<svg width="255" height="172" viewBox="0 0 255 172" fill="none" xmlns="http://www.w3.org/2000/svg">
<path d="M83.7696 66.5309C83.7728 66.5437 83.776 66.5565 83.7791 66.5694C84.284 68.6185 84.7808 70.6348 84.2469 72.8553C84.17 73.1749 84.074 73.4712 83.9621 73.7445C83.9439 73.7889 83.9253 73.8327 83.9062 73.8759C83.5322 74.7251 82.9997 75.3393 82.4065 75.7262C81.2224 76.4987 79.7243 76.3452 78.5922 75.3555C77.753 74.622 77.0362 73.3074 76.7986 71.7262C76.5076 69.7893 76.8846 67.519 77.4352 65.8041C77.6617 66.8415 77.6688 67.9777 77.9398 69.0239C78.3786 70.7155 79.3242 72.0538 80.3613 72.5678C80.9814 72.8754 81.5349 72.6926 82.0692 72.082C83.2166 70.7714 83.4787 68.6692 83.7696 66.5309Z" fill="#F5BC67"/>
<path d="M77.4352 65.8041C77.6041 65.4044 77.7863 65.0173 78.009 64.6997C78.7723 63.6097 79.7695 62.9043 80.7736 63.1019C82.1938 63.3811 82.9383 64.7459 83.7696 66.5309C83.4787 68.6692 83.2166 70.7714 82.0692 72.082C81.5349 72.6926 80.9814 72.8754 80.3613 72.5678C79.3242 72.0538 78.3786 70.7155 77.9398 69.0239C77.6688 67.9777 77.6617 66.8415 77.4352 65.8041Z" fill="#634749"/>
<path d="M0.405592 62.9622C7.89465 62.128 15.3765 61.8822 22.8718 61.4056C15.4562 64.7553 8.14557 66.1733 0.485714 66.215L0.405592 62.9622Z" fill="#1D1418"/>
<path d="M0 52.3607C0.0234838 51.8658 0.143988 51.4668 0.251264 51.0097C2.64234 48.803 16.0944 50.1415 19.3319 50.2448C19.277 50.293 19.2234 50.3444 19.1678 50.3896C17.9861 51.3548 16.7305 50.4491 15.6437 51.6169C16.2373 52.0289 23.2782 51.0978 26.2249 52.7342C20.6153 53.9706 5.46042 54.0118 0 52.3607Z" fill="#B06344"/>
<path d="M0.493056 73.0752L22.4212 72.9673C29.5808 72.8821 36.7499 72.566 43.9064 73.1114C36.3127 75.5061 28.2848 75.1953 20.5832 75.7475C13.9088 76.2261 7.20933 77.4591 0.52276 76.6265L0.493056 73.0752Z" fill="#1D1418"/>
<path d="M182.16 76.2697L182.756 75.869C182.784 75.9433 182.811 76.0203 182.841 76.0925C184.59 80.2486 188.666 79.3905 190.581 82.9775C185.502 84.2426 154.962 86.1139 151.442 83.8399C157.097 81.3719 178.897 80.8157 182.16 76.2697Z" fill="url(#paint0_linear_281_23874)"/>
<path d="M181.576 76.2773L182.16 76.2697C178.897 80.8157 157.097 81.3719 151.442 83.8399C149.557 84.272 147.417 83.9539 145.492 84.1242C141.958 84.4365 138.441 85.2561 134.901 85.4296C132.021 85.5715 129.14 85.0867 126.26 85.0421C124.854 85.0204 123.455 85.6158 122.059 85.288C128.705 78.817 170.713 77.9874 181.576 76.2773Z" fill="#634749"/>
<path d="M157.857 65.8446C160.81 66.3525 163.771 66.8089 166.709 67.5363C165.569 68.1819 163.93 67.7559 162.705 67.9746C160.686 68.3353 158.734 69.5081 156.699 69.7163C145.939 70.8185 135.126 70.8164 124.358 71.7296L101.972 73.434C96.1562 73.9241 89.6834 75.5785 83.9062 73.8759C83.8594 73.8622 83.8127 73.8481 83.766 73.8339C83.8313 73.8038 83.8966 73.774 83.9621 73.7445C89.0032 71.4738 94.5972 71.0985 99.7719 70.3077C107.373 69.145 115.289 67.8261 122.926 67.8035C134.572 66.797 146.212 66.6007 157.857 65.8446Z" fill="#634749"/>
<path d="M138.094 50.5931C140.603 51.4687 143.877 50.9778 146.487 51.0941C145.895 52.1374 143.97 51.9129 143.064 52.0114C136.438 52.3835 129.819 52.9569 123.206 53.7315L121.578 53.4949C115.269 54.7392 108.592 53.6851 102.237 53.7478C86.8527 53.8563 71.4685 53.8202 56.0844 53.6397C48.5533 53.6766 40.6612 54.4709 33.1686 53.2863C30.8431 53.4029 28.5411 53.0485 26.2249 52.7342C23.2782 51.0978 16.2373 52.0289 15.6437 51.6169C16.7305 50.4491 17.9861 51.3548 19.1678 50.3896C19.2234 50.3444 19.277 50.293 19.3319 50.2448C22.7619 50.3046 26.1918 50.2965 29.6215 50.2205L34.8922 50.4576C39.246 50.5921 43.6 50.6212 47.9542 50.5449C49.9822 50.944 52.3011 50.5054 54.3575 50.4418C58.4415 50.8878 62.5746 50.5156 66.67 50.738C75.1168 50.2098 83.7174 50.8355 92.179 50.8925L94.2337 51.1533C99.0559 50.3805 104.271 50.9978 109.135 50.968C110.552 50.8805 111.989 51.0692 113.406 51.1672C114.444 50.3193 119.179 50.866 120.712 50.7626C124.986 51.6531 133.618 51.0908 138.094 50.5931Z" fill="#CDA087"/>
<path d="M123.206 53.7315C129.819 52.9569 136.438 52.3835 143.064 52.0114C145.065 54.8992 159.019 63.8541 161.733 64.5942L162.277 65.4278C160.801 65.6984 159.318 65.5851 157.857 65.8446C146.212 66.6007 134.572 66.797 122.926 67.8035C123.902 65.0107 125.393 61.5647 125.715 58.3207C125.841 57.0522 125.746 55.8128 125.289 54.7573C124.822 53.6781 123.949 53.8732 123.206 53.7315Z" fill="url(#paint1_linear_281_23874)"/>
<path d="M250.874 78.8529L255 77.7129C253.418 81.6563 250.955 84.6661 248.813 87.6983C248.76 87.7409 248.706 87.7829 248.653 87.8267C244.78 91.0425 241.401 95.9075 237.421 98.9815C232.141 103.06 226.534 106.147 221.134 109.761C213.751 114.704 206.457 120.038 199.099 125.091C191.612 130.233 184.013 135.102 176.693 140.912L173.459 143.282C166.348 148.383 159.264 153.707 152.053 158.385C145.52 162.723 139.133 167.628 132.613 172C133.268 166.29 133.548 160.812 134.722 155.286C137.37 154.74 142.395 150.052 145.081 148.19C150.14 144.683 155.259 141.391 160.345 137.996C189.568 118.144 218.902 98.7877 248.347 79.927C249.131 79.4505 250.061 79.1946 250.874 78.8529Z" fill="#1D1418"/>
<path d="M0.888232 102.67C7.35295 103.388 14.0775 102.701 20.5617 102.52L54.5223 101.631C88.1521 100.794 121.784 100.358 155.418 100.323C153.79 105.194 152 109.931 150.276 114.705C137.017 115.575 123.753 116.151 110.484 116.431C104.001 116.611 90.7602 117.341 90.7602 117.341L69.7876 117.126C69.7876 117.126 23.9819 117.261 1.07838 118.943L0.888232 102.67Z" fill="#1D1418"/>
<path d="M147.567 12.1074C152.03 15.2193 156.576 18.8679 161.174 21.3145C160.741 21.9819 160.323 22.5854 159.748 22.8545C157.529 23.8937 154.759 21.4062 152.821 19.6658C152.805 19.651 152.788 19.6362 152.772 19.6215C150.386 17.4795 148.401 16.6591 147.567 12.1074Z" fill="#FCBB6D"/>
<path d="M141.813 31.862C140.589 27.9751 139.554 23.8979 138.334 19.9947C136.362 13.6852 133.976 7.19234 132.534 0.489097L132.89 0L133.691 0.338424L133.295 0.943975C135.502 6.33008 138.496 11.453 140.99 16.5121C146.741 28.179 152.424 39.8883 158.529 51.0279C154.883 50.772 151.294 50.5636 147.645 50.8143C146.359 44.3388 143.794 37.8132 141.813 31.862Z" fill="#B06344"/>
<path d="M135.007 1.10606C138.152 2.47457 141.309 4.27286 144.353 6.19937C146.57 7.43276 148.783 8.74509 151.017 9.88095C154.415 11.5983 157.865 13.102 161.208 15.1125C170.698 20.8213 179.976 27.9399 189.395 34.0503L190.886 34.9075C195.351 37.9594 199.97 39.8477 204.448 42.7156C215.896 50.0491 227.173 58.13 238.581 65.6255C243.475 68.8419 249.079 70.7358 253.687 74.9746C254.314 75.8868 254.794 76.2924 255 77.7129L250.874 78.8529L196.873 45.1528C184.893 37.5215 173.067 29.3176 161.174 21.3145C156.576 18.8679 152.03 15.2193 147.567 12.1074C143.935 9.57852 137.76 6.3341 134.93 1.83538L135.007 1.10606Z" fill="url(#paint2_linear_281_23874)"/>
<path d="M147.645 50.8143L146.487 51.0941C145.895 52.1374 143.97 51.9129 143.064 52.0114C145.065 54.8992 159.019 63.8541 161.733 64.5942L162.277 65.4278C167.897 65.1999 173.537 65.5341 179.157 65.7233C183.912 65.8842 188.843 65.7422 193.56 66.8177C189.43 68.8098 178.336 64.6591 175.824 71.2516C175.824 72.2752 175.763 72.5734 176.227 73.3346C177.524 75.4611 179.896 75.7343 181.576 76.2773L182.16 76.2697L182.756 75.869C182.784 75.9433 182.811 76.0203 182.841 76.0925C184.59 80.2486 188.666 79.3905 190.581 82.9775C209.841 81.8712 229.087 81.3969 248.347 79.927C249.131 79.4505 250.061 79.1946 250.874 78.8529L196.873 45.1528C184.893 37.5215 173.067 29.3176 161.174 21.3145C160.741 21.9819 160.323 22.5854 159.748 22.8545C157.529 23.8937 154.759 21.4062 152.821 19.6658L152.772 19.6215C150.386 17.4795 148.401 16.6591 147.567 12.1074C143.935 9.57852 137.76 6.3341 134.93 1.83538L135.007 1.10606L133.691 0.338424L133.295 0.943975C135.502 6.33008 138.496 11.453 140.99 16.5121C146.741 28.179 152.424 39.8883 158.529 51.0279C154.883 50.772 151.294 50.5636 147.645 50.8143Z" fill="url(#paint3_linear_281_23874)"/>
<path d="M141.285 137.146C138.981 142.952 136.367 148.837 134.722 155.286C137.37 154.74 142.395 150.052 145.081 148.19C150.14 144.683 155.259 141.391 160.345 137.996C189.568 118.144 218.902 98.7877 248.347 79.927C229.087 81.3969 209.841 81.8712 190.581 82.9775C185.502 84.2426 154.962 86.1139 151.442 83.8399C149.557 84.272 147.417 83.9539 145.492 84.1242C141.958 84.4365 138.441 85.2561 134.901 85.4296C132.021 85.5715 129.14 85.0867 126.26 85.0421C124.854 85.0204 123.455 85.6158 122.059 85.288C128.705 78.817 170.713 77.9874 181.576 76.2773C179.896 75.7343 177.524 75.4611 176.227 73.3346C175.763 72.5734 175.824 72.2752 175.824 71.2516C178.336 64.6591 189.43 68.8098 193.56 66.8177C188.843 65.7422 183.912 65.8842 179.157 65.7233C173.537 65.5341 167.897 65.1999 162.277 65.4278C160.801 65.6984 159.318 65.5851 157.857 65.8446C160.81 66.3525 163.771 66.8089 166.709 67.5363C165.569 68.1819 163.93 67.7559 162.705 67.9746C160.686 68.3353 158.734 69.5081 156.699 69.7163C145.939 70.8185 135.126 70.8164 124.358 71.7296L101.972 73.434C96.1562 73.9241 89.6834 75.5785 83.9062 73.8759C83.5322 74.7251 82.9997 75.3393 82.4065 75.7262C81.2224 76.4987 79.7243 76.3452 78.5922 75.3555C77.753 74.622 77.0362 73.3074 76.7986 71.7262C76.5076 69.7893 76.8846 67.519 77.4352 65.8041C77.6041 65.4044 77.7863 65.0173 78.009 64.6997C78.7723 63.6097 79.7695 62.9043 80.7736 63.1019C82.1938 63.3811 82.9383 64.7459 83.7696 66.5309L83.7791 66.5694C84.284 68.6185 84.7808 70.6348 84.2469 72.8553C84.17 73.1749 84.074 73.4712 83.9621 73.7445C89.0032 71.4738 94.5972 71.0985 99.7719 70.3077C107.373 69.145 115.289 67.8261 122.926 67.8035C123.902 65.0107 125.393 61.5647 125.715 58.3207C125.841 57.0522 125.746 55.8128 125.289 54.7573C124.822 53.6781 123.949 53.8732 123.206 53.7315L121.578 53.4949C115.269 54.7392 108.592 53.6851 102.237 53.7478C86.8527 53.8563 71.4685 53.8202 56.0844 53.6397C48.5533 53.6766 40.6612 54.4709 33.1686 53.2863C30.8431 53.4029 28.5411 53.0485 26.2249 52.7342C20.6153 53.9706 5.46042 54.0118 0 52.3607C0.290912 55.91 0.365929 59.3837 0.405592 62.9622C7.89465 62.128 15.3765 61.8822 22.8718 61.4056C15.4562 64.7553 8.14557 66.1733 0.485714 66.215L0.493056 73.0752L22.4212 72.9673C29.5808 72.8821 36.7499 72.566 43.9064 73.1114C36.3127 75.5061 28.2848 75.1953 20.5832 75.7475C13.9088 76.2261 7.20933 77.4591 0.52276 76.6265C0.679871 85.278 0.991508 94.0196 0.888232 102.67C7.35295 103.388 14.0775 102.701 20.5617 102.52L54.5223 101.631C88.1521 100.794 121.784 100.358 155.418 100.323C153.79 105.194 152 109.931 150.276 114.705C147.253 122.155 144.256 129.636 141.285 137.146Z" fill="url(#paint4_linear_281_23874)"/>
<path d="M83.1878 67.746C83.1878 68.8901 82.6444 69.8176 81.974 69.8176C81.3037 69.8176 80.7603 68.8901 80.7603 67.746C80.7603 66.6019 81.3037 65.6745 81.974 65.6745C82.6444 65.6745 83.1878 66.6019 83.1878 67.746Z" fill="#634749"/>
<defs>
<linearGradient id="paint0_linear_281_23874" x1="121.004" y1="278.32" x2="305.166" y2="139.287" gradientUnits="userSpaceOnUse">
<stop stop-color="#C36135"/>
<stop offset="1" stop-color="#D7854A"/>
</linearGradient>
<linearGradient id="paint1_linear_281_23874" x1="114.879" y1="235.677" x2="232.171" y2="76.2701" gradientUnits="userSpaceOnUse">
<stop stop-color="#C25E33"/>
<stop offset="1" stop-color="#D7864A"/>
</linearGradient>
<linearGradient id="paint2_linear_281_23874" x1="194.67" y1="8.74125" x2="190.01" y2="54.1245" gradientUnits="userSpaceOnUse">
<stop stop-color="#F9E0C3"/>
<stop offset="1" stop-color="#F9F1F1"/>
</linearGradient>
<linearGradient id="paint3_linear_281_23874" x1="112.833" y1="164.336" x2="149.57" y2="86.917" gradientUnits="userSpaceOnUse">
<stop stop-color="#D78549"/>
<stop offset="1" stop-color="#FFCE71"/>
</linearGradient>
<linearGradient id="paint4_linear_281_23874" x1="112.833" y1="164.336" x2="149.57" y2="86.917" gradientUnits="userSpaceOnUse">
<stop stop-color="#D78549"/>
<stop offset="1" stop-color="#FFCE71"/>
</linearGradient>
</defs>
</svg>
