<svg width="982" height="521" viewBox="0 0 982 521" fill="none" xmlns="http://www.w3.org/2000/svg">
<path d="M638.5 193.499L534.5 253.499L509.5 226.499L621.5 170.999L675 143.999L762 87.4991L797.5 128.499L771 153.499L727.5 143.999L643 180.999L638.5 193.499Z" fill="#624649"/>
<path d="M1.5 520.499V497.999L0 478.499L14.5 470.999L38 452.499L66 437.999L77.5 431.499L154.5 391.499L222 362.499L236.5 353.999L249.5 345.999L282 337.499L311 324.999L413 270.999L442.5 255.499L489.5 240.499L507 207.999L517 223.999L536.5 253.499H528.5L515 258.499L480.5 262.999L438 280.999L427 296.499L423 321.499L405.5 317.999L390.5 328.999L315.5 356.999L231.5 411.999L108.5 480.499L69.5 506.999L63 513.999L45 517.999L39.5 520.499H1.5Z" fill="#5F3E38"/>
<path d="M90.9887 430.276L94.4962 428.873C92.5832 431.368 90.3569 433.502 88.3207 435.877C86.644 438.296 84.9055 440.793 84.039 443.64L83.0263 444.077C82.4918 441.201 85.9717 437.233 87.4109 434.764C85.759 436.242 82.7663 440.249 80.8365 440.89L80.2587 440.689C81.0593 438.451 82.3016 436.408 83.0865 434.125C77.814 436.389 72.5556 436.327 68.9317 441.261C67.6331 442.095 66.5821 442.646 65.0731 443.044C69.4853 437.594 75.6405 433.718 81.5713 430.13L82.4181 430.261C82.4816 431.612 82.3359 432.759 83.2547 433.807L86.4021 432.204L90.9887 430.276Z" fill="#624649"/>
<path d="M72.0138 482.73C70.7647 482.042 69.4302 481.093 68.5328 479.979C66.6569 477.648 63.806 471.217 64.3771 468.229C64.5077 467.546 64.7006 467.366 65.2177 466.983C66.186 467.839 66.0965 468.243 66.3407 469.482C70.129 473.176 72.757 479.331 78.1612 481.022C79.9307 481.576 82.9447 481.814 84.5944 480.859C80.8309 479.157 77.4697 477.319 74.3656 474.535C72.0369 472.037 69.6783 469.633 67.8705 466.717C75.3851 471.192 83.0038 476.947 91.5801 479.206C95.433 480.22 100.372 479.743 103.928 481.339C93.8638 484.244 81.9258 488.201 72.0138 482.73Z" fill="#624649"/>
<path d="M407.897 260.613L409.298 260.528C409.837 263.857 412.418 266.617 413.622 269.738C414.917 273.096 415.139 276.81 416.473 280.238C417.589 283.279 418.5 286.66 421.596 288.243C426.449 290.725 435.244 286.302 440.012 284.649C437.066 288.679 433.801 293.791 430.113 297.102C428.992 298.109 426.97 298.314 426.055 299.34C425.426 300.048 425.685 301.573 425.809 302.471C426.94 310.695 425.622 312.505 423.25 320.241C417.054 319.348 410.989 318.853 404.73 318.813C397.548 324.355 391.209 328.595 382.708 331.963C386.329 328.6 390.307 325.082 393.336 321.168C396.391 318.857 403.467 307.469 403.992 303.823C404.058 303.363 403.622 303.013 403.361 302.649C393.75 309.411 382.612 315.436 370.979 317.685C379.793 312.512 391.045 307.231 396.798 298.43C398.678 296.211 399.83 294.211 400.588 291.393C398.879 289.502 392.516 281.267 391.75 279.231C394.728 282.346 398.438 284.347 401.948 286.776C405.383 290.071 412.107 292.531 416.876 292.384C417.438 292.368 417.675 292.078 418.129 291.771C417.985 290.567 417.199 289.991 416.368 289.19C411.938 285.018 408.188 280.104 404.909 274.994C405.312 270.357 405.688 264.784 407.897 260.613Z" fill="#402931"/>
<path d="M510.521 214.744L511.056 215.494C512.991 219.09 515.291 222.465 517.221 226.052C518.574 228.524 518.953 233.309 521.234 234.8L522.828 238.025C526.368 242.657 528.347 248.606 531.148 253.7C520.319 253.622 510.028 250.39 499.342 250.009L495.901 250.022L495.632 251.487C497.305 252.868 499.503 252.479 501.476 253.12C507.527 253.783 512.449 255.573 517.789 258.401C507.343 261.95 496.577 262.278 486.082 265.133C480.608 266.621 475.953 270.148 470.332 271.278C471.86 269.326 474.459 269.61 476.337 268.189L473.734 267.704L466.543 268.128C462.635 268.1 458.709 268.17 454.829 267.643L455.397 267.608C455.67 267.588 455.943 267.551 456.217 267.548C457.329 267.533 457.954 267.547 458.935 266.981C461.563 265.467 466.308 262.144 467.11 259.139L466.49 259.007C466.127 258.743 466.013 258.494 465.787 258.114C467.928 256.416 470.93 255.469 473.436 254.401C476.104 252.686 479.117 251.404 481.853 249.769C489.888 244.968 496.262 239.188 502.281 232.083C503.57 230.133 504.599 228.357 505.366 226.143C506.393 222.467 508.953 218.299 510.521 214.744Z" fill="#402931"/>
<path d="M510.436 217.418C512.896 222.284 513.494 227.981 515.762 232.911L520.771 241.004C521.571 242.341 521.923 243.014 521.7 244.623C520.94 246.256 519.916 246.973 518.273 247.562C512.265 249.713 505.452 248.583 499.342 250.009L495.901 250.022L495.638 249.424C498.751 244.258 513.603 245.16 517.434 241.605C517.728 240.684 517.983 240.185 517.809 239.214C517.582 237.952 516.873 236.535 515.739 235.847C515.013 235.407 514.147 235.816 513.34 235.98C511.878 238.599 508.185 239.881 505.581 241.127C507.496 233.302 508.89 225.323 510.436 217.418Z" fill="#624649"/>
<path d="M467.11 259.139C476.112 259.213 483.894 257.366 492.664 255.677C495.691 255.094 500.565 254.15 503.241 255.959C493.644 259.946 483.933 265.739 473.734 267.704L466.543 268.128C462.635 268.1 458.709 268.17 454.829 267.643L455.397 267.608C455.67 267.588 455.943 267.551 456.217 267.548C457.329 267.533 457.954 267.547 458.935 266.981C461.563 265.467 466.308 262.144 467.11 259.139Z" fill="url(#paint0_linear_275_18349)"/>
<path d="M327.45 326.489C334.033 326.866 340.567 328.116 347.184 328.428C363.315 329.187 381.528 324.837 395.501 316.765C393.204 318.57 391.04 320.373 388.974 322.449C384.106 324.888 380.133 328.945 375.167 331.42C354.495 345.315 325.544 349.755 301.353 344.997C295.412 343.828 289.453 341.841 283.437 341.194C279.533 340.775 275.475 341.391 271.611 340.885C260.399 341.79 253.928 346.454 244.043 350.461L243.953 350.047C244.883 349.185 245.801 348.311 246.709 347.426C249.43 345.507 252.15 343.683 255.024 342.001C259.279 339.433 263.24 337.187 268.031 335.776C271.873 334.553 276.426 334.677 280.424 334.566C282.444 334.572 284.574 334.721 286.578 334.51C287.022 333.635 287.042 333.45 287.945 332.966C295.007 329.179 302.383 329.885 310.013 330.556C312.646 330.788 315.511 330.773 318.056 331.518C329.424 331.766 340.816 332.751 352.178 332.588C357.127 332.233 362.099 331.381 366.953 330.375C364.429 329.005 357.554 330.993 354.474 331.047C345.818 331.197 335.684 329.134 327.45 326.489Z" fill="#624649"/>
<path d="M302.559 336.816L304.269 337.039L305.085 338.909C303.941 339.794 302.319 339.638 300.958 339.458C298.942 339.191 296.629 338.958 294.766 338.14C297.357 338.064 300.274 338.172 302.559 336.816Z" fill="#A16444"/>
<path d="M286.578 334.51C290.643 334.665 294.555 335.454 298.584 335.821L302.559 336.816C300.274 338.172 297.357 338.064 294.766 338.14C289.425 338.05 283.358 337.536 278.119 338.464L277.791 338.609C270.673 338.647 259.984 342.212 255.024 342.001C259.279 339.433 263.24 337.187 268.031 335.776C271.873 334.553 276.426 334.677 280.424 334.566C282.444 334.572 284.574 334.721 286.578 334.51Z" fill="#C68F6F"/>
<path d="M177.873 431.32C188.072 426.94 198.262 421.714 208.704 417.998C216.554 415.205 224.808 413.731 232.696 410.891C218.738 421.717 204.004 430.281 188.868 439.286C181.651 443.579 174.756 448.558 167.318 452.454C148.107 462.514 123.416 468.594 101.871 470.341C95.3621 470.87 88.7967 469.919 82.3793 470.386C89.4381 474.006 96.6775 478.004 104.813 478.22C106.321 478.447 107.73 478.387 108.927 479.364C107.862 480.463 105.435 481.101 103.928 481.339C100.372 479.743 95.433 480.22 91.5801 479.206C83.0038 476.947 75.3851 471.192 67.8705 466.717C69.6783 469.633 72.0369 472.037 74.3656 474.535C70.929 473.434 69.5635 470.23 67.1273 467.804L66.8004 467.482C66.4339 466.251 66.0547 465.025 65.6627 463.802C64.9263 463.702 64.2916 464.096 63.6373 464.389C64.56 463.267 65.2228 462.526 66.6052 461.939C69.496 461.832 72.2495 463.816 74.7375 465.166C75.2737 461.91 81.2551 444.447 81.1943 443.764C81.0773 442.439 79.8851 442.587 80.2587 440.689L80.8365 440.89C82.7663 440.249 85.759 436.242 87.4109 434.764C85.9717 437.233 82.4918 441.201 83.0263 444.077L82.9334 444.619C81.5876 447.055 80.967 449.453 79.9104 451.971C80.7099 454.73 82.305 455.405 84.7046 456.723C87.7575 458.4 91.1986 459.693 94.5018 460.787C96.7254 460.986 98.9532 461.108 101.185 461.153C116.609 461.315 134.536 457.618 148.792 451.602C155.734 448.673 162.29 444.865 169.176 441.812C177.474 438.133 186.78 435.223 193.417 428.703C188.08 429.028 183.135 430.694 177.873 431.32Z" fill="#402931"/>
<path d="M505.366 226.143C504.599 228.357 503.57 230.133 502.281 232.083C496.262 239.188 489.888 244.968 481.853 249.769C479.117 251.404 476.104 252.686 473.436 254.401C470.93 255.469 467.928 256.416 465.787 258.114C466.013 258.494 466.127 258.743 466.49 259.007L467.11 259.139C466.308 262.144 461.563 265.467 458.935 266.981C457.954 267.547 457.329 267.533 456.217 267.548C455.943 267.551 455.67 267.588 455.397 267.608L454.829 267.643C458.709 268.17 462.635 268.1 466.543 268.128L473.734 267.704L476.337 268.189C474.459 269.61 471.86 269.326 470.332 271.278C465.841 272.945 442.47 284.403 440.012 284.649C435.244 286.302 426.449 290.725 421.596 288.243C418.5 286.66 417.589 283.279 416.473 280.238C415.139 276.81 414.917 273.096 413.622 269.738C412.418 266.617 409.837 263.857 409.298 260.528C411.601 261.686 413.211 266.498 414.385 268.815C415.923 267.708 417.453 266.495 419.083 265.532C424.75 262.4 430.466 259.362 436.232 256.417L439.51 254.723C447.973 252.039 455.088 246.463 463.301 243.348C480.087 236.983 491.895 243.732 505.366 226.143Z" fill="#624649"/>
<path d="M430.661 269.877C429.84 269.973 429.066 269.896 428.247 269.824C428.669 267.995 429.929 267.041 431.393 265.929C443.887 256.444 451.653 256.943 466.49 259.007L467.11 259.139C466.308 262.144 461.563 265.467 458.935 266.981C457.954 267.547 457.329 267.533 456.217 267.548C455.943 267.551 455.67 267.588 455.397 267.608L454.829 267.643C447.285 267.541 438.227 266.711 431.083 269.409L430.661 269.877Z" fill="#DFAC90"/>
<path d="M251.391 353.478C255.33 351.523 260.249 350.409 264.562 349.607C284.258 345.945 297.568 352.365 316.324 356.465C311.158 358.555 305.891 360.56 300.954 363.152C292.212 367.741 284.033 373.305 275.363 378.012C260.433 386.119 244.958 393.257 229.741 400.789C223.79 403.735 218.199 407.385 212.2 410.252C217.785 400.816 224.264 392.173 230.482 383.183C230.6 383.104 230.733 383.043 230.836 382.945C232.93 380.966 236.975 375.116 236.962 372.258C238.033 370.45 240.374 368.662 241.935 367.261C242.049 367.23 242.16 367.165 242.278 367.166C243.061 367.171 243.343 367.387 244.167 367.11C247.479 365.996 265.54 357.322 266.868 354.829L266.141 353.868C264.284 353.553 262.273 353.577 260.388 353.476L251.391 353.478Z" fill="#402931"/>
<path d="M260.388 353.476C267.433 349.869 279.455 351.456 286.947 353.078C266.821 356.045 251.539 367.396 238.263 382.325C256.883 370.534 269.773 358.241 293.239 357.657C283.486 362.703 273.22 366.602 263.578 371.895C249.957 379.373 237.116 388.464 223.924 396.678C226.981 391.293 242.316 371.903 241.935 367.261C242.049 367.23 242.16 367.165 242.278 367.166C243.061 367.171 243.343 367.387 244.167 367.11C247.479 365.996 265.54 357.322 266.868 354.829L266.141 353.868C264.284 353.553 262.273 353.577 260.388 353.476Z" fill="#624649"/>
<path d="M621.791 162.559C623.248 162.769 624.165 162.901 625.291 163.96L626.664 165.046C627.142 166.288 628.577 168.77 628.509 169.965C629.1 170.785 629.353 171.337 629.556 172.331C623.361 176.721 617.206 165.797 613.053 165.465C614.696 170.461 617.363 174.523 619.428 179.262C618.387 180.247 617.701 180.317 616.345 180.655C618.123 180.805 619.394 180.943 620.891 181.967C620.773 182.855 620.852 183.042 620.126 183.63C619.389 184.224 618.5 184.308 617.78 184.985C617.712 185.029 617.639 185.073 617.566 185.116C610.837 189.13 607.427 190.547 601.384 196.093C599.691 198.931 595.645 201.675 593.13 203.872C589.136 207.362 585.175 211.016 580.837 214.073C568.476 222.782 554.311 229.866 544.53 241.846C541.154 245.981 538.712 250.743 536.05 255.348C533.982 252.417 522.915 235.293 521.234 234.8C518.953 233.309 518.574 228.524 517.221 226.052C515.291 222.465 512.991 219.09 511.056 215.494L510.521 214.744L511.237 214.442L511.564 214.643C517.471 215.443 523.673 215.138 529.629 215.111L531.716 215.059C547.579 214.724 564.959 208.246 576.96 197.892C583.093 191.418 590.137 185.635 595.854 178.785C598.279 175.882 600.63 172.241 600.276 168.304C601.744 167.943 604.119 167.349 604.946 166.05C606.645 165.908 608.344 165.358 609.543 164.117C611.148 164.157 612.753 164.173 614.359 164.163C616.57 164.05 620.064 164.025 621.791 162.559Z" fill="#624649"/>
<path d="M511.564 214.643C517.471 215.443 523.673 215.138 529.629 215.111C525.45 215.927 520.931 215.685 516.691 215.499C518.09 217.818 520.95 221.542 521.349 224.116C520.75 224.153 520.102 224.218 519.505 224.155C517.406 223.936 513.142 216.65 511.564 214.643Z" fill="#A16444"/>
<path d="M575.171 210.26C582.187 205.57 588.562 200.492 594.97 195.014C598.734 191.797 602.577 187.909 606.718 185.235C609.633 183.349 613.143 182.006 616.345 180.655C618.123 180.805 619.394 180.943 620.891 181.967C620.773 182.855 620.852 183.042 620.126 183.63C619.389 184.224 618.5 184.308 617.78 184.985C617.712 185.029 617.639 185.073 617.566 185.116C610.837 189.13 607.427 190.547 601.384 196.093C599.691 198.931 595.645 201.675 593.13 203.872C589.136 207.362 585.175 211.016 580.837 214.073C568.476 222.782 554.311 229.866 544.53 241.846C541.154 245.981 538.712 250.743 536.05 255.348C533.982 252.417 522.915 235.293 521.234 234.8C518.953 233.309 518.574 228.524 517.221 226.052L518.267 225.666C520.351 227.11 520.671 230.392 522.651 231.87C523.495 232.501 524.047 232.271 525.028 232.159L525.311 231.505C524.734 228.892 523.094 226.424 521.818 224.09L522.633 224.037C522.895 224.085 523.158 224.124 523.421 224.157C528.781 224.845 555.883 220.448 561.179 218.474C566.017 216.671 571.075 213.447 575.171 210.26Z" fill="url(#paint1_linear_275_18349)"/>
<path d="M157.546 391.217C157.714 392.608 157.459 393.271 156.612 394.42C156.273 394.881 155.877 395.294 155.475 395.699C152.894 395.35 150.449 397.694 148.512 399.174C145.508 401.469 140.854 404.92 138.742 408.044L138.247 408.355C132.379 416.059 127.787 423.001 125.268 432.497C124.91 435.156 124.422 437.864 124.417 440.55C128.298 442.619 145.31 439.165 150.476 438.429C159.916 436.595 168.836 434.729 177.873 431.32C183.135 430.694 188.08 429.028 193.417 428.703C186.78 435.223 177.474 438.133 169.176 441.812C162.29 444.865 155.734 448.673 148.792 451.602C134.536 457.618 116.609 461.315 101.185 461.153C98.9532 461.108 96.7254 460.986 94.5018 460.787C91.1986 459.693 87.7575 458.4 84.7046 456.723C82.305 455.405 80.7099 454.73 79.9104 451.971C80.967 449.453 81.5876 447.055 82.9334 444.619L83.0263 444.077L84.039 443.64C84.9055 440.793 86.644 438.296 88.3207 435.877C90.3569 433.502 92.5832 431.368 94.4962 428.873C97.7122 425.853 101.309 423.204 104.781 420.485L111.758 415.45L113.722 413.97L121.137 408.774C123.714 407.077 126.184 405.29 128.645 403.433C132.064 401.427 135.615 399.641 139.129 397.807C142.908 396.139 146.763 394.773 150.665 393.42L155.19 391.918L155.498 392.579L157.546 391.217Z" fill="#624649"/>
<path d="M117.286 419.733C118.205 418.696 118.166 418.613 119.529 418.489C122.523 419.48 122.73 422.283 124.932 423.721L123.39 428.214C121.708 429.266 120.652 429.662 118.645 429.725C116.221 431.18 113.877 432.499 111.243 433.559L114.723 425.26C115.898 424.04 117.194 421.447 117.286 419.733Z" fill="#C68F6F"/>
<path d="M118.645 429.725C120.652 429.662 121.708 429.266 123.39 428.214L122.789 431.518L122.648 432.064C122.252 434.963 121.887 437.842 121.672 440.763C120.429 440.941 119.399 441.17 118.251 441.685L118.12 442.527C118.231 442.614 118.339 442.706 118.453 442.787C122.556 445.718 145.377 440.563 151.082 439.388C158.114 437.814 165.768 436.685 172.972 436.456C155.166 441.47 126.497 449.575 108.42 445.789C108.501 442.458 109.911 439.184 110.966 436.061C111.4 435.277 111.268 434.424 111.243 433.559C113.877 432.499 116.221 431.18 118.645 429.725Z" fill="url(#paint2_linear_275_18349)"/>
<path d="M118.645 429.725C120.652 429.662 121.708 429.266 123.39 428.214L122.789 431.518L122.648 432.064C121.776 432.753 121.251 433.089 120.145 433.27C119.114 432.233 119.027 431.113 118.645 429.725Z" fill="#A07869"/>
<path d="M117.286 419.733C117.194 421.447 115.898 424.04 114.723 425.26C111.989 425.468 106.682 432.376 104.861 434.498L100.73 439.363C98.9619 441.699 97.3133 443.899 96.3872 446.726C101.58 447.896 106.489 449.795 111.816 450.672C119.545 451.946 127.249 451.449 135.024 451.913C130.904 452.864 126.722 453.789 122.526 454.321C113.219 455.5 94.4653 456.793 86.7116 450.561C84.9983 449.184 83.1934 446.837 82.9334 444.619L83.0263 444.077L84.039 443.64C84.9055 440.793 86.644 438.296 88.3207 435.877C90.4312 438.098 92.0217 438.551 94.9671 439.111C101.146 431.25 109.761 426.1 117.286 419.733Z" fill="#A16444"/>
<path d="M88.3207 435.877C90.4312 438.098 92.0217 438.551 94.9671 439.111C93.8087 440.921 92.4516 442.762 91.5536 444.709C91.0079 445.614 90.8233 445.933 89.8471 446.436C88.1817 447.295 86.8685 447.336 85.1024 446.786C83.9012 445.698 84.1212 445.194 84.039 443.64C84.9055 440.793 86.644 438.296 88.3207 435.877Z" fill="#A07869"/>
<path d="M155.19 391.918L155.498 392.579C143.956 400.581 129.216 409.354 124.932 423.721C122.73 422.283 122.523 419.48 119.529 418.489C118.166 418.613 118.205 418.696 117.286 419.733C109.761 426.1 101.146 431.25 94.9671 439.111C92.0217 438.551 90.4312 438.098 88.3207 435.877C90.3569 433.502 92.5832 431.368 94.4962 428.873C97.7122 425.853 101.309 423.204 104.781 420.485L111.758 415.45L113.722 413.97L121.137 408.774C123.714 407.077 126.184 405.29 128.645 403.433C132.064 401.427 135.615 399.641 139.129 397.807C142.908 396.139 146.763 394.773 150.665 393.42L155.19 391.918Z" fill="#DFAC90"/>
<path d="M393.629 270.044C398.177 266.297 402.614 263.24 407.897 260.613C405.688 264.784 405.312 270.357 404.909 274.994C408.188 280.104 411.938 285.018 416.368 289.19C417.199 289.991 417.985 290.567 418.129 291.771C417.675 292.078 417.438 292.368 416.876 292.384C412.107 292.531 405.383 290.071 401.948 286.776C398.438 284.347 394.728 282.346 391.75 279.231C392.516 281.267 398.879 289.502 400.588 291.393C399.83 294.211 398.678 296.211 396.798 298.43C391.045 307.231 379.793 312.512 370.979 317.685C364.835 318.947 358.649 320.448 352.416 321.169C344.588 322.074 336.634 321.911 328.765 322.026C325.532 322.504 322.099 323.275 318.831 323.212L317.701 323.49C320.033 325.139 324.618 325.818 327.45 326.489C335.684 329.134 345.818 331.197 354.474 331.047C357.554 330.993 364.429 329.005 366.953 330.375C362.099 331.381 357.127 332.233 352.178 332.588C340.816 332.751 329.424 331.766 318.056 331.518C315.511 330.773 312.646 330.788 310.013 330.556C302.383 329.885 295.007 329.179 287.945 332.966C287.042 333.45 287.022 333.635 286.578 334.51C284.574 334.721 282.444 334.572 280.424 334.566C286.706 329.814 293.333 326.782 300.504 323.678C298.615 317.766 308.414 330.574 304 326.489C300.973 323.688 304.107 328.56 300.505 326.489L301.999 322.026C313.53 322.412 298.315 324.775 310.013 322.026L316 317.685C316.997 318.646 320.118 314.435 320.999 315.499C327.17 322.624 334.421 301.785 343.238 304.405C347.301 302.107 351.16 299.183 355.029 296.559C366.216 288.893 377.753 284.165 390.461 279.703L390.271 278.123C389.429 277.044 388.976 275.447 388.462 274.177C390.226 272.857 391.919 271.435 393.629 270.044Z" fill="url(#paint3_linear_275_18349)"/>
<path d="M365.673 296.052C367.262 295.337 368.913 294.794 370.559 294.227C371.196 295.118 371.692 295.006 372.725 295.176C376.832 295.855 381.451 296.582 385.603 296.642L386.112 297.396C379.818 301.167 358.603 303.659 349.917 306.308C356.371 300.15 371.216 300.327 379.67 297.319C374.997 296.983 370.331 296.561 365.673 296.052Z" fill="#A07869"/>
<path d="M385.603 296.642C389.129 296.863 392.834 296.847 396.225 297.91C383.197 308.577 346.152 318.258 328.765 322.026C325.532 322.504 322.099 323.275 318.831 323.212C326.569 321 333.82 318.604 340.957 314.822C344.901 311.707 350.031 310.779 354.17 308.012C352.422 308.214 350.359 308.703 348.685 308.028L348.662 307.895L349.837 308.247L348.929 307.214L348.729 307.42L348.838 306.915L349.917 306.308C358.603 303.659 379.818 301.167 386.112 297.396L385.603 296.642Z" fill="#A16444"/>
<path d="M354.17 308.012C356.358 307.138 360.463 308.183 362.863 308.466C356.404 311.479 348.074 313.987 340.957 314.822C344.901 311.707 350.031 310.779 354.17 308.012Z" fill="#A07869"/>
<path d="M393.629 270.044C398.177 266.297 402.614 263.24 407.897 260.613C405.688 264.784 405.312 270.357 404.909 274.994C408.188 280.104 411.938 285.018 416.368 289.19C417.199 289.991 417.985 290.567 418.129 291.771C417.675 292.078 417.438 292.368 416.876 292.384C412.107 292.531 405.383 290.071 401.948 286.776C398.438 284.347 394.728 282.346 391.75 279.231C392.516 281.267 398.879 289.502 400.588 291.393C399.83 294.211 398.678 296.211 396.798 298.43C391.045 307.231 379.793 312.512 370.979 317.685C364.835 318.947 358.649 320.448 352.416 321.169C344.588 322.074 336.634 321.911 328.765 322.026C346.152 318.258 383.197 308.577 396.225 297.91C392.834 296.847 389.129 296.863 385.603 296.642C381.451 296.582 376.832 295.855 372.725 295.176C371.692 295.006 371.196 295.118 370.559 294.227L378.46 291.18C382.271 288.149 388.264 286.313 392.77 284.434L390.461 279.703L390.271 278.123C389.429 277.044 388.976 275.447 388.462 274.177C390.226 272.857 391.919 271.435 393.629 270.044Z" fill="#624649"/>
<path d="M392.77 284.434C393.372 285.589 393.968 286.748 394.558 287.909C389.182 288.943 383.788 289.921 378.46 291.18C382.271 288.149 388.264 286.313 392.77 284.434Z" fill="#C68F6F"/>
<path d="M251.391 353.478L260.388 353.476C262.273 353.577 264.284 353.553 266.141 353.868L266.868 354.829C265.54 357.322 247.479 365.996 244.167 367.11C243.343 367.387 243.061 367.171 242.278 367.166C242.16 367.165 242.049 367.23 241.935 367.261C240.374 368.662 238.033 370.45 236.962 372.258C233.748 375.505 230.435 378.699 227.384 382.099C226.613 383.57 225.782 385.033 225.135 386.563C201.554 411.338 185.368 422.383 152.485 431.894C145.498 433.915 138.305 435.198 131.355 437.316C131.659 435.205 131.789 432.821 132.418 430.791C133.098 427.598 139.463 410.17 139.237 409.078C139.159 408.704 138.907 408.388 138.742 408.044C140.854 404.92 145.508 401.469 148.512 399.174C150.449 397.694 152.894 395.35 155.475 395.699C155.877 395.294 156.273 394.881 156.612 394.42C157.459 393.271 157.714 392.608 157.546 391.217C158.518 391.068 159.56 390.564 160.491 390.228C165.888 387.891 171.557 386.024 177.011 383.767C177.455 383.546 177.555 383.32 177.831 382.92L182.458 381.224C184.734 380.304 187.102 379.547 189.415 378.723C191.232 377.688 193.081 376.742 194.951 375.808L200.897 371.965C212.312 365.572 224.226 361.741 236.672 357.923C239.824 356.882 242.927 355.893 246.171 355.174C247.842 354.489 249.665 354.022 251.391 353.478Z" fill="#402931"/>
<path d="M150.361 402.198C150.334 402.321 150.31 402.445 150.28 402.567C149.642 405.127 146.401 408.582 146.639 410.904L148.872 409.65C146.859 412.156 142.055 419.371 139.265 419.964C141.692 413.615 145.863 407.275 150.361 402.198Z" fill="#624649"/>
<path d="M191.994 388.265C197.556 381.884 206.836 377.598 213.828 372.699C211.66 375.928 208.622 378.286 206.538 381.452C199.863 388.578 193.438 398.062 188.413 406.43C189.487 401.03 191.382 395.885 192.567 390.529C193.09 389.871 193.044 389.801 193.063 388.949L191.994 388.265Z" fill="#A07869"/>
<path d="M177.831 382.92L182.458 381.224C182.295 383.116 181.686 384.244 180.191 385.484C178.555 386.84 176.214 388.083 174.941 389.772C172.581 390.143 169.458 392.367 167.574 393.822C160.653 397.209 153.922 403.917 148.872 409.65L146.639 410.904C146.401 408.582 149.642 405.127 150.28 402.567C150.31 402.445 150.334 402.321 150.361 402.198C151.859 399.951 153.791 397.823 155.475 395.699C155.877 395.294 156.273 394.881 156.612 394.42C157.459 393.271 157.714 392.608 157.546 391.217C158.518 391.068 159.56 390.564 160.491 390.228C165.888 387.891 171.557 386.024 177.011 383.767C177.455 383.546 177.555 383.32 177.831 382.92Z" fill="#A16444"/>
<path d="M191.994 388.265L193.063 388.949C193.044 389.801 193.09 389.871 192.567 390.529L192.319 390.861C189.863 394.209 188.929 398.499 185.978 401.488C179.086 408.473 164.76 410.376 157.322 419.074L156.454 418.665C156.744 414.611 166.461 402.338 168.853 397.646C170.854 395.755 172.507 393.068 174.437 391.015L175.668 391.843L171.796 396.155L170.078 404.868C177.618 399.51 183.952 393.009 191.994 388.265Z" fill="#A16444"/>
<path d="M246.171 355.174L246.698 355.453C235.718 360.415 222.869 364.324 213.828 372.699C206.836 377.598 197.556 381.884 191.994 388.265C183.952 393.009 177.618 399.51 170.078 404.868L171.796 396.155L175.668 391.843L174.437 391.015L174.941 389.772C176.214 388.083 178.555 386.84 180.191 385.484C181.686 384.244 182.295 383.116 182.458 381.224C184.734 380.304 187.102 379.547 189.415 378.723C191.232 377.688 193.081 376.742 194.951 375.808L200.897 371.965C212.312 365.572 224.226 361.741 236.672 357.923C239.824 356.882 242.927 355.893 246.171 355.174Z" fill="#DFAC90"/>
<path d="M189.415 378.723C191.232 377.688 193.081 376.742 194.951 375.808C188.374 381.147 181.834 385.953 175.668 391.843L174.437 391.015L174.941 389.772C176.214 388.083 178.555 386.84 180.191 385.484C181.686 384.244 182.295 383.116 182.458 381.224C184.734 380.304 187.102 379.547 189.415 378.723Z" fill="#986D5D"/>
<path d="M251.391 353.478L260.388 353.476C262.273 353.577 264.284 353.553 266.141 353.868L266.868 354.829C265.54 357.322 247.479 365.996 244.167 367.11C243.343 367.387 243.061 367.171 242.278 367.166C242.16 367.165 242.049 367.23 241.935 367.261C240.374 368.662 238.033 370.45 236.962 372.258C233.748 375.505 230.435 378.699 227.384 382.099C217.153 390.959 206.687 399.533 195.987 407.82C200.023 401.893 204.302 396.147 208.825 390.584C213.347 385.02 218.097 379.658 223.074 374.496C224.165 370.65 229.276 368.863 230.653 364.945L230.035 364.271C225.793 366.355 221.293 368.406 217.657 371.474C214.143 374.439 211.08 379.104 207.028 381.192C206.863 381.277 206.701 381.365 206.538 381.452C208.622 378.286 211.66 375.928 213.828 372.699C222.869 364.324 235.718 360.415 246.698 355.453L246.171 355.174C247.842 354.489 249.665 354.022 251.391 353.478Z" fill="#A16444"/>
<path d="M230.035 364.271C231.894 362.459 243.645 358.232 246.701 356.943C248.538 356.167 249.629 355.524 251.548 356.304C240.508 360.826 232.054 366.798 223.074 374.496C224.165 370.65 229.276 368.863 230.653 364.945L230.035 364.271Z" fill="#624649"/>
<path d="M251.391 353.478L260.388 353.476C262.273 353.577 264.284 353.553 266.141 353.868C260.786 353.63 256.649 355.221 251.548 356.304C249.629 355.524 248.538 356.167 246.701 356.943C243.645 358.232 231.894 362.459 230.035 364.271C225.793 366.355 221.293 368.406 217.657 371.474C214.143 374.439 211.08 379.104 207.028 381.192C206.863 381.277 206.701 381.365 206.538 381.452C208.622 378.286 211.66 375.928 213.828 372.699C222.869 364.324 235.718 360.415 246.698 355.453L246.171 355.174C247.842 354.489 249.665 354.022 251.391 353.478Z" fill="#986D5D"/>
<path d="M779.189 47.5473L780.179 47.4821C779.898 49.2245 778.592 50.441 777.298 51.5488C777.332 54.1623 774.901 57.421 773.073 59.3048C773.005 59.37 772.938 59.4297 772.87 59.4927L774.153 60.237C774.609 63.008 774.93 65.8077 775.43 68.5691L776.331 69.0344C776.809 69.8126 776.927 70.1918 776.978 71.1055C778.412 72.6685 781.062 78.0512 780.944 80.1516C780.939 80.2607 780.905 80.3676 780.888 80.4757C781.85 80.3384 782.542 80.0419 783.296 79.4314C785.215 77.8768 787.364 75.6178 787.657 73.0623C789.75 74.5511 789.001 77.0987 790.841 78.2994C790.925 78.2617 791.01 78.2229 791.094 78.1857C793.806 77.0182 795.933 77.3378 798.74 76.9727C801.244 77.838 802.313 77.2034 804.856 77.0273L805.486 78.2358L805.768 77.8982L805.875 78.2791C806.876 81.7731 809.054 87.6318 812.289 89.529C812.576 89.6973 812.874 89.8267 813.178 89.9488L813.679 90.5277C816.869 89.4221 819.71 86.9184 823.018 86.2877L823.446 86.9792C820.301 89.3721 817.218 91.7807 814.303 94.4521C812.57 96.0399 810.826 98.2128 808.935 99.5305C807.861 101.812 806.297 103.903 804.896 105.996C802.589 106.231 800.22 106.341 798.065 107.271C800.378 108.783 808.958 113.972 810.168 116.017L810.961 116.108C813.302 117.382 816.12 118.581 817.91 120.585C818.112 121.465 818.073 121.597 817.78 122.458C815.766 124.571 800.935 127.269 797.384 127.747C794.554 128.786 782.897 120.481 778.255 120.007C778.294 121.546 777.816 124.456 776.758 125.606C776.646 125.73 776.522 125.844 776.398 125.964C776.831 127.692 776.601 130.62 775.717 132.179C775.267 132.973 774.024 133.942 773.124 134.088C772.088 134.255 770.76 133.495 769.832 133.085C770.777 135.811 772.212 143.709 771.003 146.236C770.974 146.305 770.929 146.372 770.896 146.44C771.295 147.938 771.751 149.353 771.56 150.922L770.761 151.788C769.956 151.735 769.18 151.696 768.397 151.505L768.307 152.049C767.008 152.964 763.986 152.537 762.377 152.44C755.845 152.047 729.885 148.163 725.84 143.605C727.466 142.04 729.739 138.74 730.403 136.599C729.604 134.282 728.574 133.145 726.475 132.024C725.952 131.488 725.254 131.298 724.568 131.014C723.195 131.681 721.969 132.828 720.478 133.127C716.86 140.396 672.912 156.326 663.162 161.961C654.784 166.803 647.976 172.64 641.557 179.782L640.859 179.957L638.58 178.556C637.708 177.54 636.96 176.73 635.79 176.037L635.03 176.622C636.228 178.169 637.719 180.852 637.455 182.85C637.444 182.908 637.432 182.966 637.427 183.024C639.385 184.748 640.594 187.733 640.814 190.328C640.932 191.674 640.696 192.071 639.992 193.136C638.248 193.933 636.583 193.509 634.878 192.875C631.874 191.761 629.038 189.974 626.011 189.02C624.745 189.615 602.391 196.045 601.384 196.093C607.427 190.547 610.837 189.13 617.566 185.116C617.639 185.073 617.712 185.029 617.78 184.985C618.5 184.308 619.389 184.224 620.126 183.63C620.852 183.042 620.773 182.855 620.891 181.967C619.394 180.943 618.123 180.805 616.345 180.655C617.701 180.317 618.387 180.247 619.428 179.262C617.363 174.523 614.696 170.461 613.053 165.465C617.206 165.797 623.361 176.721 629.556 172.331C629.353 171.337 629.1 170.785 628.509 169.965C628.577 168.77 627.142 166.288 626.664 165.046L625.291 163.96C626.917 160.577 629.263 155.079 633.123 153.824C634.968 153.226 637.117 153.095 639.036 152.58C640.443 152.202 642.181 151.91 643.47 151.235C643.605 151.164 643.74 151.087 643.875 151.013C646.367 151.027 649 150.18 651.38 149.468C657.462 147.649 676.839 140.82 679.945 135.041C680.305 134.893 680.66 134.736 681.009 134.546C683.518 133.155 688.632 127.971 689.437 125.234C691.749 123.804 696.211 122.536 697.843 120.578C701.258 120.129 704.622 119.024 707.942 118.11C708.724 118.674 709.444 119.245 710.356 119.577C712.314 119.447 714.142 118.77 715.999 118.178L716.37 118.018C725.468 110.888 727.398 98.7934 738.454 92.6714C741.717 91.8505 746.466 90.9975 748.525 88.096L747.895 87.0641L747.254 83.0643L747.507 82.5597L746.708 80.4667C747.09 80.1066 747.04 80.1786 747.366 79.7892C748.598 78.3146 750.196 76.1118 749.994 74.1269C750.247 73.9907 750.32 73.9631 750.584 73.7634C751.603 72.9915 751.625 72.6561 751.833 71.4521C751.963 71.3834 752.222 71.254 752.362 71.1612C754.118 69.9785 760.459 64.4236 760.914 62.6457C763.069 61.1789 764.881 58.8186 766.935 57.1189C770.912 53.8269 775.335 50.9293 779.189 47.5473Z" fill="#402931"/>
<path d="M716.37 118.018C725.468 110.888 727.398 98.7934 738.454 92.6714C741.481 95.0935 749.532 103.077 750.562 106.558L750.371 107.999C747.822 112.552 730.954 126.935 726.098 128.398C725.547 128.564 724.962 128.588 724.388 128.587L723.257 127.06C722.554 125.065 719.403 122.239 717.957 120.547C717.715 119.572 716.978 118.798 716.37 118.018Z" fill="#A16444"/>
<path d="M738.195 98.6235C739.911 99.212 741.982 99.6593 742.882 101.388C743.765 103.082 743.428 105.3 742.803 107.03C740.305 113.939 730.493 123.747 723.898 126.789C723.685 126.886 723.471 126.975 723.257 127.06C722.554 125.065 719.403 122.239 717.957 120.547C720.101 118.41 737.734 99.5502 738.195 98.6235Z" fill="#C2703B"/>
<path d="M779.189 47.5473L780.179 47.4821C779.898 49.2245 778.592 50.441 777.298 51.5488C777.332 54.1623 774.901 57.421 773.073 59.3048C773.005 59.37 772.938 59.4297 772.87 59.4927L774.153 60.237C774.609 63.008 774.93 65.8077 775.43 68.5691L775.397 69.062C773.911 71.3058 766.248 80.474 763.846 80.8858C763.441 80.955 763.413 80.9438 763.052 80.95C763.947 82.2947 764.105 82.4359 764.037 84.0293C762.63 84.2194 761.978 84.5221 760.943 85.4916C762.175 86.8064 763.503 88.2783 763.435 90.2059C763.424 90.4895 763.39 90.7646 763.339 91.0431C766.456 93.4737 768.999 101.794 769.483 105.65C769.72 107.529 771.357 125.465 770.918 126.36C770.215 126.253 769.545 126.16 768.865 125.959C768.853 123.969 761.933 111.913 760.476 108.976C760.481 108.806 760.492 108.635 760.481 108.465C760.363 106.538 758.338 103.666 756.908 102.466C757.083 100.246 755.732 98.6359 754.348 97.0054C753.932 94.3053 751.715 90.5941 750.033 88.4499C749.949 86.546 748.525 84.1502 747.507 82.5597L746.708 80.4667C747.09 80.1066 747.04 80.1786 747.366 79.7892C748.598 78.3146 750.196 76.1118 749.994 74.1269C750.247 73.9907 750.32 73.9631 750.584 73.7634C751.603 72.9915 751.625 72.6561 751.833 71.4521C751.963 71.3834 752.222 71.254 752.362 71.1612C754.118 69.9785 760.459 64.4236 760.914 62.6457C763.069 61.1789 764.881 58.8186 766.935 57.1189C770.912 53.8269 775.335 50.9293 779.189 47.5473Z" fill="#624649"/>
<path d="M765.916 102.583C767.79 104.253 767.987 107.02 768.139 109.393C768.319 112.143 768.313 115.752 767.21 118.287C767.16 118.411 767.109 118.539 767.053 118.663C767.019 118.738 766.98 118.81 766.946 118.884C766.58 116.347 763.362 111.606 761.387 110.039C762.315 110.07 763.244 110.046 764.15 109.808C764.814 109.633 765.736 109.073 766.068 108.448C767.058 106.582 766.468 104.499 765.916 102.583Z" fill="#A16444"/>
<path d="M772.87 59.4927L774.153 60.237C774.609 63.008 774.93 65.8077 775.43 68.5691L775.397 69.062C773.911 71.3058 766.248 80.474 763.846 80.8858C763.441 80.955 763.413 80.9438 763.052 80.95C763.159 80.0188 763.086 78.9667 763.086 78.0214C763.103 69.7833 771.751 66.0547 772.87 59.4927Z" fill="#FAEB99"/>
<path d="M779.189 47.5473L780.179 47.4821C779.898 49.2245 778.592 50.441 777.298 51.5488C776.297 53.3824 774.266 54.7626 772.696 56.1405C765.697 62.2856 757.038 68.9832 756.019 78.943C756.413 79.7572 756.481 80.124 756.425 81.0259C756.605 83.0486 755.502 83.9021 754.253 85.397C753.083 86.7946 751.923 88.1697 750.033 88.4499C749.949 86.546 748.525 84.1502 747.507 82.5597L746.708 80.4667C747.09 80.1066 747.04 80.1786 747.366 79.7892C748.598 78.3146 750.196 76.1118 749.994 74.1269C750.247 73.9907 750.32 73.9631 750.584 73.7634C751.603 72.9915 751.625 72.6561 751.833 71.4521C751.963 71.3834 752.222 71.254 752.362 71.1612C754.118 69.9785 760.459 64.4236 760.914 62.6457C763.069 61.1789 764.881 58.8186 766.935 57.1189C770.912 53.8269 775.335 50.9293 779.189 47.5473Z" fill="#FAEB99"/>
<path d="M756.019 78.943C757.792 79.6722 758.714 81.018 759.452 82.7476C759.761 83.4745 760.009 84.1508 760.037 84.9481C759.693 89.8706 763.84 92.3991 764.392 96.6093C765.489 98.1869 766.4 99.8512 766.074 101.847C766.034 102.094 765.973 102.339 765.916 102.583C766.468 104.499 767.058 106.582 766.068 108.448C765.736 109.073 764.814 109.633 764.15 109.808C763.244 110.046 762.315 110.07 761.387 110.039L760.476 108.976C760.481 108.806 760.492 108.635 760.481 108.465C760.363 106.538 758.338 103.666 756.908 102.466C757.083 100.246 755.732 98.6359 754.348 97.0054C753.932 94.3053 751.715 90.5941 750.033 88.4499C751.923 88.1697 753.083 86.7946 754.253 85.397C755.502 83.9021 756.605 83.0486 756.425 81.0259C756.481 80.124 756.413 79.7572 756.019 78.943Z" fill="#C2703B"/>
<path d="M756.425 81.0259C757.741 82.4083 759.243 84.9188 759.12 86.9072C759.108 87.0647 759.075 87.2211 759.058 87.3781C759.024 89.3664 756.554 95.165 755.159 96.4889C754.939 96.6982 754.618 96.8687 754.348 97.0054C753.932 94.3053 751.715 90.5941 750.033 88.4499C751.923 88.1697 753.083 86.7946 754.253 85.397C755.502 83.9021 756.605 83.0486 756.425 81.0259Z" fill="#F9C175"/>
<path d="M697.843 120.578C701.258 120.129 704.622 119.024 707.942 118.11C708.724 118.674 709.444 119.245 710.356 119.577C712.314 119.447 714.142 118.77 715.999 118.178C716.77 123.602 719.606 124.393 720.618 128.032L720.534 129.189C718.323 130.637 712.46 134.574 710.142 135.098C708.921 136.858 672.879 155.137 669.975 155.521C669.638 155.566 669.3 155.58 668.957 155.576L649.36 166.799C645.624 168.963 641.714 171.818 637.658 173.261C636.808 171.724 634.839 170.566 633.196 170.061C633.111 170.036 633.027 170.014 632.943 169.99C632.678 168.78 632.414 168.806 631.429 168.12C630.529 166.92 629.269 166.411 627.958 165.753L626.664 165.046L625.291 163.96C626.917 160.577 629.263 155.079 633.123 153.824C634.968 153.226 637.117 153.095 639.036 152.58C640.443 152.202 642.181 151.91 643.47 151.235C643.605 151.164 643.74 151.087 643.875 151.013C646.367 151.027 649 150.18 651.38 149.468C657.462 147.649 676.839 140.82 679.945 135.041C680.305 134.893 680.66 134.736 681.009 134.546C683.518 133.155 688.632 127.971 689.437 125.234C691.749 123.804 696.211 122.536 697.843 120.578Z" fill="#624649"/>
<path d="M701.247 126.13C703.379 126.219 705.59 126.477 707.65 127.056C709.714 127.635 711.267 128.138 712.359 130.054C711.982 131.47 711.543 131.682 710.446 132.585C708.944 134.491 707.357 135.305 705 135.596C702.119 135.951 696.903 136.169 694.231 134.964C695.868 133.933 700.099 127.959 701.247 126.13Z" fill="#C2703B"/>
<path d="M697.843 120.578C701.258 120.129 704.622 119.024 707.942 118.11C708.724 118.674 709.444 119.245 710.356 119.577C707.132 122.002 701.19 122.632 697.297 124.465C692.509 127.289 688.959 131.957 685.054 135.828C676.457 144.346 660.686 153.957 648.831 156.054C647.678 157.831 643.976 158.983 642.125 160.169C639.132 162.084 634.293 167.421 631.429 168.12C630.529 166.92 629.269 166.411 627.958 165.753L626.664 165.046L625.291 163.96C626.917 160.577 629.263 155.079 633.123 153.824C634.968 153.226 637.117 153.095 639.036 152.58C640.443 152.202 642.181 151.91 643.47 151.235C643.605 151.164 643.74 151.087 643.875 151.013C646.367 151.027 649 150.18 651.38 149.468C657.462 147.649 676.839 140.82 679.945 135.041C680.305 134.893 680.66 134.736 681.009 134.546C683.518 133.155 688.632 127.971 689.437 125.234C691.749 123.804 696.211 122.536 697.843 120.578Z" fill="#DFAC90"/>
<path d="M627.958 165.753C634.81 164.174 634.681 156.061 648.831 156.054C647.678 157.831 643.976 158.983 642.125 160.169C639.132 162.084 634.293 167.421 631.429 168.12C630.529 166.92 629.269 166.411 627.958 165.753Z" fill="#E19B6A"/>
<path d="M775.43 68.5691L776.331 69.0344C776.809 69.8126 776.927 70.1918 776.978 71.1055C778.412 72.6685 781.062 78.0512 780.944 80.1516C780.939 80.2607 780.905 80.3676 780.888 80.4757C781.85 80.3384 782.542 80.0419 783.296 79.4314C785.215 77.8768 787.364 75.6178 787.657 73.0623C789.75 74.5511 789.001 77.0987 790.841 78.2994C790.925 78.2617 791.01 78.2229 791.094 78.1857C793.806 77.0182 795.933 77.3378 798.74 76.9727C801.244 77.838 802.313 77.2034 804.856 77.0273L805.486 78.2358L805.768 77.8982L805.875 78.2791C806.876 81.7731 809.054 87.6318 812.289 89.529C812.576 89.6973 812.874 89.8267 813.178 89.9488L813.679 90.5277C816.869 89.4221 819.71 86.9184 823.018 86.2877L823.446 86.9792C820.301 89.3721 817.218 91.7807 814.303 94.4521C812.57 96.0399 810.826 98.2128 808.935 99.5305C807.861 101.812 806.297 103.903 804.896 105.996C802.589 106.231 800.22 106.341 798.065 107.271C800.378 108.783 808.958 113.972 810.168 116.017L810.961 116.108C813.302 117.382 816.12 118.581 817.91 120.585C818.112 121.465 818.073 121.597 817.78 122.458C815.766 124.571 800.935 127.269 797.384 127.747C795.539 124.615 781.749 114.373 778.019 111.912C777.073 110.493 776.263 108.996 775.425 107.514C775.447 107.403 775.481 107.294 775.487 107.181C775.633 104.353 767.261 87.8665 764.909 85.4916C764.875 84.9087 764.391 84.4884 764.037 84.0293C764.105 82.4359 763.947 82.2947 763.052 80.95C763.413 80.9438 763.441 80.955 763.846 80.8858C766.248 80.474 773.911 71.3058 775.397 69.062L775.43 68.5691Z" fill="#4A4662"/>
<path d="M783.336 105.997C785.181 104.65 786.227 102.495 786.863 100.357C787.696 101.455 788.169 102.187 788.32 103.572C787.628 104.766 787.139 105.226 785.704 105.584C784.939 105.775 784.118 105.918 783.336 105.997Z" fill="#A16444"/>
<path d="M784.241 88.0285C784.95 85.7723 787.398 82.0128 789.35 80.6934C791.415 84.7078 787.268 95.1093 796.574 98.0007C798.178 98.4992 799.99 98.6983 801.644 98.9493C804.271 97.7976 812.593 93.0084 813.679 90.5277C816.869 89.4221 819.71 86.9184 823.018 86.2877L823.446 86.9792C820.301 89.3721 817.218 91.7807 814.303 94.4521C812.57 96.0399 810.826 98.2128 808.935 99.5305C807.861 101.812 806.297 103.903 804.896 105.996C802.589 106.231 800.22 106.341 798.065 107.271C797.812 107.203 797.677 107.18 797.446 107.081C791.421 104.493 786.644 93.7876 784.241 88.0285Z" fill="url(#paint4_linear_275_18349)"/>
<path d="M778.019 111.912C781.867 111.204 787.24 110.546 789.744 107.16C789.879 106.976 789.868 106.988 789.952 106.83C798.11 110.103 801.413 113.54 808.187 118.023C809.408 117.474 809.476 117.189 810.168 116.017L810.961 116.108C813.302 117.382 816.12 118.581 817.91 120.585C818.112 121.465 818.073 121.597 817.78 122.458C815.766 124.571 800.935 127.269 797.384 127.747C795.539 124.615 781.749 114.373 778.019 111.912Z" fill="#A16444"/>
<path d="M795.421 116.286C799.072 115.889 803.292 115.857 806.539 117.94C807.388 118.484 807.506 118.566 807.743 119.527C806.758 120.76 805.554 120.884 804.097 121.227C802.707 122.1 799.207 123.139 797.598 122.841C795.995 122.544 795.522 121.801 794.74 120.528C794.493 118.793 794.774 117.865 795.421 116.286Z" fill="#E19B6A"/>
<path d="M775.43 68.5691L776.331 69.0344C776.809 69.8126 776.927 70.1918 776.978 71.1055C778.412 72.6685 781.062 78.0512 780.944 80.1516C780.939 80.2607 780.905 80.3676 780.888 80.4757C782.604 82.4027 783.336 85.5495 783.932 88.0285L783.459 90.1221C785.198 92.4801 786.542 95.9718 787.268 98.7951L786.863 100.357C786.227 102.495 785.181 104.65 783.336 105.997C782.452 107.164 781.648 107.791 780.134 107.989C778.531 108.197 776.978 107.916 775.425 107.514C775.447 107.403 775.481 107.294 775.487 107.181C775.633 104.353 767.261 87.8665 764.909 85.4916C764.875 84.9087 764.391 84.4884 764.037 84.0293C764.105 82.4359 763.947 82.2947 763.052 80.95C763.413 80.9438 763.441 80.955 763.846 80.8858C766.248 80.474 773.911 71.3058 775.397 69.062L775.43 68.5691Z" fill="#C2703B"/>
<path d="M775.397 69.062C775.267 74.7233 773.174 78.4473 769.112 82.3329C767.925 83.4649 766.513 85.0083 764.909 85.4916C764.875 84.9087 764.391 84.4884 764.037 84.0293C764.105 82.4359 763.947 82.2947 763.052 80.95C763.413 80.9438 763.441 80.955 763.846 80.8858C766.248 80.474 773.911 71.3058 775.397 69.062Z" fill="#F9C175"/>
<path d="M44.9726 448.716C44.97 450.768 43.8266 451.341 43.3007 453.017C42.4773 454.298 41.294 455.782 40.7256 457.173C36.0428 465.988 36.4814 469.896 35.4906 479.277C32.6685 469.133 37.8466 460.353 41.2638 451.247C42.2621 450.174 43.7238 449.471 44.9726 448.716Z" fill="#624649"/>
<path d="M43.9211 459.307C44.4198 457.04 44.9687 454.758 46.6108 453.029L46.928 454.289L48.2123 454.461C49.0035 458.037 48.4169 461.606 49.3952 465.236C48.0992 467.937 46.9532 470.714 45.7687 473.466C44.6835 468.811 44.3553 464.056 43.9211 459.307Z" fill="#A16444"/>
<path d="M51.0441 446.423C53.0631 444.099 55.3057 442.269 58.0047 440.795C56.5729 443.786 51.4303 449.178 52.2125 452.313C53.4945 453.313 55.0519 453.087 56.6538 453.103L49.3952 465.236C48.4169 461.606 49.0035 458.037 48.2123 454.461L46.928 454.289L46.6108 453.029L51.0441 446.423Z" fill="#A07869"/>
<path d="M75.8228 431.364C77.7701 430.737 79.5205 430.229 81.5713 430.13C75.6405 433.718 69.4853 437.594 65.0731 443.044C61.8604 445.726 58.8931 449.575 56.6538 453.103C55.0519 453.087 53.4945 453.313 52.2125 452.313C51.4303 449.178 56.5729 443.786 58.0047 440.795C63.5 436.916 69.8043 434.302 75.8228 431.364Z" fill="#DFAC90"/>
<path d="M41.2638 451.247C37.8466 460.353 32.6685 469.133 35.4906 479.277C36.2286 482.479 37.1894 486.01 39.1327 488.705C43.3104 496.757 54.0867 502.377 62.499 504.993C65.0596 505.789 67.7141 506.288 70.3422 506.807C49.037 510.392 47.6269 503.6 29.9134 499.053C20.1212 496.54 10.9406 497.043 1 498.296V490.401V478.913C9.28607 474.943 16.4907 470.233 23.8006 464.707L25.7604 463.244C27.6736 460.601 31.3853 458.272 34.0379 456.387L35.2302 455.56L41.2638 451.247Z" fill="url(#paint5_linear_275_18349)"/>
<path d="M34.0379 456.387L35.2302 455.56C30.7031 463.69 27.7348 470.481 29.2568 480.024C30.8611 485.069 33.9477 489.046 36.3154 493.698C36.9078 494.558 37.0427 494.556 36.9006 495.64C33.5924 496.913 17.0656 492.561 12.9311 491.453C16.6518 490.663 19.6739 489.492 23.0303 487.748C24.6902 486.19 25.3756 485.135 25.4628 482.8C25.505 481.671 25.6068 481.164 25.0171 480.185C22.4858 481.482 20.4194 483.609 17.8391 484.749C12.4655 487.124 6.44621 488.098 1 490.401V478.913C9.28607 474.943 16.4907 470.233 23.8006 464.707L25.7604 463.244C27.6736 460.601 31.3853 458.272 34.0379 456.387Z" fill="#624649"/>
<path d="M882.804 30.3852C882.945 30.2761 883.147 30.1101 883.31 30.0099C888.627 26.7022 908.083 20.9909 913.8 22.0244C910.081 25.4092 888.475 29.952 882.804 30.3852Z" fill="#D8DAEE"/>
<path d="M978.295 0.541028C979.358 0.487128 980.439 0.474074 981.485 0.246094L980.551 1.07761L981.727 0.305846C981.254 1.79723 977.839 3.49414 976.388 4.26202C972.573 6.27829 967.627 8.43533 963.469 9.57613C962.986 10.5198 953.899 17.0644 952.521 17.9824C948.419 19.3136 945.274 20.435 942.14 23.5672C941.881 23.826 941.999 23.723 941.712 23.934C940.671 25.735 938.342 26.2706 936.958 27.801C934.966 30.006 934.274 33.3081 932.322 35.5643C921.424 37.4857 910.581 40.4924 901.506 47.1023C898.631 49.197 895.677 52.7264 892.408 54.007L892.538 52.7742C889.798 53.1321 886.332 55.8969 883.654 57.0221C883.384 57.0677 883.108 57.1071 882.832 57.1611C881.752 57.3766 881.004 57.6028 879.89 57.3485C878.905 57.1234 878.055 57.0891 877.048 57.1037C875.169 57.9522 873.161 58.3905 871.315 59.2417C868.316 60.623 865.509 62.4836 862.42 63.6702C859.595 64.7573 846.88 68.3559 844.46 68.056L843.825 67.0798H843.42C843.138 64.9699 847.105 61.5845 848.483 59.7729C848.45 59.7031 848.427 59.6266 848.382 59.5636C847.319 58.0602 844.213 57.4711 842.497 56.9647C839.357 58.072 836.173 59.6457 832.791 59.1061C834.907 58.1879 837.298 58.0247 839.143 56.5332L838.896 55.2583C843.391 55.157 848.388 53.37 852.275 51.1049C853.114 50.3183 853.609 50.1439 854.74 49.9442C854.852 49.9239 854.97 49.9065 855.089 49.8879C854.053 49.3224 851.488 49.3269 850.239 49.1874C852.011 49.1503 854.706 49.3416 856.304 48.5955C853.755 47.2818 850.694 46.9796 847.892 46.4766L842.379 45.4695C842.609 45.2304 842.801 45.0031 842.958 44.7116C844.241 42.3969 845.552 40.5099 848.011 39.3379L849.974 38.3792C851.735 38.5699 852.945 38.3612 854.537 37.5813C856.141 36.7965 857.322 35.7336 857.885 34.053L859.151 33.3199C859.533 31.9009 858.903 31.2145 858.296 29.9475L860.783 31.0109C861.536 30.6761 861.565 30.6575 861.97 29.9402L862.493 30.4533C862.656 31.6506 862.538 32.4518 863.539 33.276C865.137 34.5875 867.894 34.6112 869.863 34.9836C874.398 34.1262 878.708 32.4872 882.804 30.3852C888.475 29.952 910.081 25.4092 913.8 22.0244C914.199 21.9946 914.593 21.9496 914.987 21.8855C917.299 21.5107 920.27 20.4434 921.677 18.4731C922.817 18.4644 923.957 18.4445 925.098 18.4134C929.239 18.2947 941.071 16.5463 943.951 13.5013C946.922 13.049 973.934 3.29756 975.397 1.52148C976.489 1.32574 977.321 1.07756 978.295 0.541028Z" fill="#F9FAF9"/>
<path d="M861.97 29.9402L862.493 30.4533C862.656 31.6506 862.538 32.4518 863.539 33.276C865.137 34.5875 867.894 34.6112 869.863 34.9836C867.467 37.0958 864.125 35.9429 861.43 36.8983C858.954 37.7783 857.277 40.3062 854.52 40.7327C853.851 40.273 853.434 39.797 852.945 39.1657C850.723 38.8309 848.59 39.8853 846.84 41.1878C845.749 41.9997 844.944 42.8971 844.759 44.2925C844.702 44.6948 844.961 44.9204 845.158 45.2574L847.577 45.6861L847.892 46.4766L842.379 45.4695C842.609 45.2304 842.801 45.0031 842.958 44.7116C844.241 42.3969 845.552 40.5099 848.011 39.3379L849.974 38.3792C851.735 38.5699 852.945 38.3612 854.537 37.5813C856.141 36.7965 857.322 35.7336 857.885 34.053L859.151 33.3199C859.533 31.9009 858.903 31.2145 858.296 29.9475L860.783 31.0109C861.536 30.6761 861.565 30.6575 861.97 29.9402Z" fill="#D8DAEE"/>
<path d="M852.275 51.1049C856.321 50.1973 860.749 49.5526 864.653 48.2011C862.875 51.1668 856.023 54.9257 853.029 57.4953C851.334 58.9308 849.717 60.4493 848.179 62.051C846.642 63.6526 845.19 65.3289 843.825 67.0798H843.42C843.138 64.9699 847.105 61.5845 848.483 59.7729C848.45 59.7031 848.427 59.6266 848.382 59.5636C847.319 58.0602 844.213 57.4711 842.497 56.9647C839.357 58.072 836.173 59.6457 832.791 59.1061C834.907 58.1879 837.298 58.0247 839.143 56.5332L838.896 55.2583C843.391 55.157 848.388 53.37 852.275 51.1049Z" fill="#B6C4F6"/>
<path d="M877.048 57.1037C881.578 53.8365 885.336 49.2735 889.938 46.3112C900.032 39.8133 911.24 35.6892 921.975 30.4702C928.243 27.4207 933.661 22.9207 939.816 19.712C947.35 15.7852 955.778 13.2671 963.469 9.57613C962.986 10.5198 953.899 17.0644 952.521 17.9824C948.419 19.3136 945.274 20.435 942.14 23.5672C941.881 23.826 941.999 23.723 941.712 23.934C940.671 25.735 938.342 26.2706 936.958 27.801C934.966 30.006 934.274 33.3081 932.322 35.5643C921.424 37.4857 910.581 40.4924 901.506 47.1023C898.631 49.197 895.677 52.7264 892.408 54.007L892.538 52.7742C889.798 53.1321 886.332 55.8969 883.654 57.0221C883.384 57.0677 883.108 57.1071 882.832 57.1611C881.752 57.3766 881.004 57.6028 879.89 57.3485C878.905 57.1234 878.055 57.0891 877.048 57.1037Z" fill="url(#paint6_linear_275_18349)"/>
<path d="M850.059 18.0815C851.51 17.898 852.849 17.7956 854.115 18.7189C854.475 18.9817 854.683 19.3249 854.92 19.6912C854.83 20.7118 854.593 21.504 854.228 22.4599C855.094 25.1352 858.858 27.0955 858.296 29.9475C858.903 31.2145 859.533 31.9009 859.151 33.3199L857.885 34.053C857.322 35.7336 856.141 36.7965 854.537 37.5813C852.945 38.3612 851.735 38.5699 849.974 38.3792L848.011 39.3379C845.552 40.5099 844.241 42.3969 842.958 44.7116C842.801 45.0031 842.609 45.2304 842.379 45.4695L847.892 46.4766C850.694 46.9796 853.755 47.2818 856.304 48.5955C854.706 49.3416 852.011 49.1503 850.239 49.1874C851.488 49.3269 854.053 49.3224 855.089 49.8879C854.97 49.9065 854.852 49.9239 854.74 49.9442C853.609 50.1439 853.114 50.3183 852.275 51.1049C848.388 53.37 843.391 55.157 838.896 55.2583L839.143 56.5332C837.298 58.0247 834.907 58.1879 832.791 59.1061C836.173 59.6457 839.357 58.072 842.497 56.9647C844.213 57.4711 847.319 58.0602 848.382 59.5636C848.427 59.6266 848.45 59.7031 848.483 59.7729C847.105 61.5845 843.138 64.9699 843.42 67.0798C841.653 69.9673 836.842 75.1795 837.219 78.5644C838.097 79.136 838.384 79.0263 839.402 79.0004L839.47 79.9552L841.298 80.5842L844.308 80.6096L844.837 81.8091C836.606 81.8445 831.013 86.1313 823.446 86.9792L823.018 86.2877C819.71 86.9184 816.869 89.4221 813.679 90.5277L813.178 89.9488C812.874 89.8267 812.576 89.6973 812.289 89.529C809.054 87.6318 806.876 81.7731 805.875 78.2791L805.768 77.8982L805.486 78.2358L804.856 77.0273C802.313 77.2034 801.244 77.838 798.74 76.9727C795.933 77.3378 793.806 77.0182 791.094 78.1857C791.01 78.2229 790.925 78.2617 790.841 78.2994C789.001 77.0987 789.75 74.5511 787.657 73.0623C787.364 75.6178 785.215 77.8768 783.296 79.4314C782.542 80.0419 781.85 80.3384 780.888 80.4757C780.905 80.3676 780.939 80.2607 780.944 80.1516C781.062 78.0512 778.412 72.6685 776.978 71.1055C776.927 70.1918 776.809 69.8126 776.331 69.0344L775.43 68.5691C774.93 65.8077 774.609 63.008 774.153 60.237L772.87 59.4927C772.938 59.4297 773.005 59.37 773.073 59.3048C774.901 57.421 777.332 54.1623 777.298 51.5488C778.592 50.441 779.898 49.2245 780.179 47.4821L780.989 47.4905C781.394 46.9307 781.918 46.4226 782.565 46.1531C785.744 44.8275 796.439 42.1083 799.545 43.4924C800.096 44.6616 800.186 45.2625 799.888 46.525C801.88 45.6135 804.457 43.4502 805.318 41.4241C807.484 40.7141 809.312 38.9485 810.944 37.4294C812.097 37.7653 813.076 38.1631 814.123 38.7432L814.928 38.5929C815.063 38.5569 815.198 38.526 815.333 38.486C819.491 37.246 828.054 28.946 832.994 26.4316C835.025 25.3957 838.969 23.6082 839.948 21.5878C841.793 21.0449 843.403 20.5047 845.062 19.5094C846.683 19.2917 848.331 18.8275 849.929 18.4669L850.059 18.0815Z" fill="#0441DE"/>
<path d="M799.196 54.4981C800.569 54.6562 801.025 54.2365 802.189 53.5934C806.173 51.3929 810.955 47.8371 815.428 46.8339C820.036 45.8009 830.288 47.2947 833.438 45.0909L834.834 45.9494C837.253 45.3755 839.909 45.5168 842.379 45.4695L847.892 46.4766C850.694 46.9796 853.755 47.2818 856.304 48.5955C854.706 49.3416 852.011 49.1503 850.239 49.1874C846.998 48.3479 843.149 48.2866 839.796 47.9535C829.691 47.4742 817.752 46.5852 808.491 51.497C805.65 53.0043 802.606 56.1849 799.483 56.8078C798.504 57.003 798.234 56.9417 797.328 56.549C797.57 55.3854 797.88 55.2059 798.926 54.618C799.01 54.5696 799.106 54.5381 799.196 54.4981Z" fill="#7592F9"/>
<path d="M842.379 45.4695L847.892 46.4766C850.694 46.9796 853.755 47.2818 856.304 48.5955C854.706 49.3416 852.011 49.1503 850.239 49.1874C846.998 48.3479 843.149 48.2866 839.796 47.9535C838.93 47.2739 836.426 47.0736 835.273 46.929L835.357 47.625C836.561 45.7142 837.613 46.7737 839.588 46.2971C838.052 46.0496 836.392 46.0473 834.834 45.9494C837.253 45.3755 839.909 45.5168 842.379 45.4695Z" fill="#B6C4F6"/>
<path d="M794.903 54.0593L795.708 55.0231C794.616 57.5544 793.198 62.1742 791.404 64.1091C795.365 62.1078 799.196 59.0504 803.484 57.8908C811.321 55.772 835.312 57.1814 838.896 55.2583L839.143 56.5332C837.298 58.0247 834.907 58.1879 832.791 59.1061C831.227 60.3349 828.757 59.9287 826.85 59.6975C818.022 58.6273 799.86 60.0643 792.619 65.923C791.871 66.5296 791.212 67.3347 790.442 67.8883C789.811 69.2089 789.721 69.2471 788.405 69.9099C789.975 66.5763 794.155 57.2652 794.903 54.0593Z" fill="#A4ADFC"/>
<path d="M780.179 47.4821L780.989 47.4905C781.76 51.5134 777.231 57.0486 776.477 61.0917C775.999 63.6432 777.208 66.6995 776.331 69.0344L775.43 68.5691C774.93 65.8077 774.609 63.008 774.153 60.237L772.87 59.4927C772.938 59.4297 773.005 59.37 773.073 59.3048C774.901 57.421 777.332 54.1623 777.298 51.5488C778.592 50.441 779.898 49.2245 780.179 47.4821Z" fill="#F9C175"/>
<path d="M850.059 18.0815C851.51 17.898 852.849 17.7956 854.115 18.7189C854.475 18.9817 854.683 19.3249 854.92 19.6912C854.83 20.7118 854.593 21.504 854.228 22.4599C855.094 25.1352 858.858 27.0955 858.296 29.9475C858.903 31.2145 859.533 31.9009 859.151 33.3199L857.885 34.053C857.322 35.7336 856.141 36.7965 854.537 37.5813C852.945 38.3612 851.735 38.5699 849.974 38.3792L848.011 39.3379C845.552 40.5099 844.241 42.3969 842.958 44.7116C842.801 45.0031 842.609 45.2304 842.379 45.4695C839.909 45.5168 837.253 45.3755 834.834 45.9494L833.438 45.0909C830.288 47.2947 820.036 45.8009 815.428 46.8339C810.955 47.8371 806.173 51.3929 802.189 53.5934C801.025 54.2365 800.569 54.6562 799.196 54.4981C800.935 53.2288 803.545 50.5231 804.463 48.5904C806.01 47.6176 814.612 39.9112 814.928 38.5929C815.063 38.5569 815.198 38.526 815.333 38.486C819.491 37.246 828.054 28.946 832.994 26.4316C835.025 25.3957 838.969 23.6082 839.948 21.5878C841.793 21.0449 843.403 20.5047 845.062 19.5094C846.683 19.2917 848.331 18.8275 849.929 18.4669L850.059 18.0815Z" fill="#0441DE"/>
<path d="M844.01 38.0669C845.197 37.664 847.634 36.5489 848.703 37.0879C849.355 37.417 849.586 37.776 849.974 38.3792L848.011 39.3379C845.552 40.5099 844.241 42.3969 842.958 44.7116C842.801 45.0031 842.609 45.2304 842.379 45.4695C839.909 45.5168 837.253 45.3755 834.834 45.9494L833.438 45.0909C833.517 45.0532 833.601 45.0211 833.68 44.9772C835.087 44.1529 835.486 43.0412 835.998 41.5918C836.37 41.5468 836.719 41.5007 837.084 41.4101C839.211 40.8885 842.801 39.9709 844.01 38.0669Z" fill="#D8DAEE"/>
<path d="M850.543 18.6205C851.814 18.8793 852.135 18.8129 853.035 19.7924C852.326 24.702 840.848 29.7427 839.34 33.8297L839.864 34.0497C838.789 35.7162 834.243 36.2968 832.347 36.7261C835.779 33.9833 838.384 30.4139 841.67 27.5107C844.022 25.4284 847.02 23.8969 849.715 22.2725L849.817 21.6936L847.696 20.5452C849.096 19.9956 849.603 19.86 850.543 18.6205Z" fill="#90B0DF"/>
<path d="M850.059 18.0815C851.51 17.898 852.849 17.7956 854.115 18.7189C854.475 18.9817 854.683 19.3249 854.92 19.6912C854.83 20.7118 854.593 21.504 854.228 22.4599C855.094 25.1352 858.858 27.0955 858.296 29.9475C858.903 31.2145 859.533 31.9009 859.151 33.3199L857.885 34.053C858.133 33.1326 857.947 32.5047 857.727 31.6118C856.76 30.3132 855.797 30.0094 854.335 29.521L854.262 28.2365C851.071 27.2372 843.571 33.2411 839.864 34.0497L839.34 33.8297C840.848 29.7427 852.326 24.702 853.035 19.7924C852.135 18.8129 851.814 18.8793 850.543 18.6205L849.929 18.4669L850.059 18.0815Z" fill="#B6C4F6"/>
<path d="M849.929 18.4669L850.543 18.6205C849.603 19.86 849.096 19.9956 847.696 20.5452C844.669 22.7204 840.679 23.8395 837.467 25.9274C830.664 30.343 824.273 36.5826 816.964 40.0558C814.978 41.9699 806.82 48.3603 804.463 48.5904C806.01 47.6176 814.612 39.9112 814.928 38.5929C815.063 38.5569 815.198 38.526 815.333 38.486C819.491 37.246 828.054 28.946 832.994 26.4316C835.025 25.3957 838.969 23.6082 839.948 21.5878C841.793 21.0449 843.403 20.5047 845.062 19.5094C846.683 19.2917 848.331 18.8275 849.929 18.4669Z" fill="#7592F9"/>
<path d="M816.964 40.0558L819.974 39.9264L820.239 40.2989L818.14 41.6261C820.863 42.1151 838.26 39.1061 842.3 38.2706C840.37 39.384 837.371 39.8943 835.998 41.5918C835.486 43.0412 835.087 44.1529 833.68 44.9772C833.601 45.0211 833.517 45.0532 833.438 45.0909C830.288 47.2947 820.036 45.8009 815.428 46.8339C810.955 47.8371 806.173 51.3929 802.189 53.5934C801.025 54.2365 800.569 54.6562 799.196 54.4981C800.935 53.2288 803.545 50.5231 804.463 48.5904C806.82 48.3603 814.978 41.9699 816.964 40.0558Z" fill="#6972A0"/>
<path d="M842.497 56.9647C844.213 57.4711 847.319 58.0602 848.382 59.5636C848.427 59.6266 848.45 59.7031 848.483 59.7729C847.105 61.5845 843.138 64.9699 843.42 67.0798C841.653 69.9673 836.842 75.1795 837.219 78.5644C838.097 79.136 838.384 79.0263 839.402 79.0004L839.47 79.9552L841.298 80.5842L844.308 80.6096L844.837 81.8091C836.606 81.8445 831.013 86.1313 823.446 86.9792L823.018 86.2877C819.71 86.9184 816.869 89.4221 813.679 90.5277L813.178 89.9488C812.874 89.8267 812.576 89.6973 812.289 89.529C809.054 87.6318 806.876 81.7731 805.875 78.2791L805.768 77.8982L805.486 78.2358L804.856 77.0273C802.313 77.2034 801.244 77.838 798.74 76.9727C795.933 77.3378 793.806 77.0182 791.094 78.1857C791.01 78.2229 790.925 78.2617 790.841 78.2994C789.001 77.0987 789.75 74.5511 787.657 73.0623L788.472 72.0046L788.405 69.9099C789.721 69.2471 789.811 69.2089 790.442 67.8883C791.212 67.3347 791.871 66.5296 792.619 65.923C799.86 60.0643 818.022 58.6273 826.85 59.6975C828.757 59.9287 831.227 60.3349 832.791 59.1061C836.173 59.6457 839.357 58.072 842.497 56.9647Z" fill="#0441DE"/>
<path d="M834.08 62.1027L834.991 62.8049C833.011 65.3176 822.501 70.0084 819.142 70.3994C818.86 70.432 818.579 70.4596 818.292 70.4759L818.602 69.5369C817.814 68.7559 816.61 69.0266 815.518 69.022L815.884 68.3801C814.129 68.5944 812.986 68.6659 811.282 68.0515C818.647 65.6445 827.024 65.8786 834.08 62.1027Z" fill="#7574B6"/>
<path d="M841.298 80.5842L844.308 80.6096L844.837 81.8091C836.606 81.8445 831.013 86.1313 823.446 86.9792L823.018 86.2877C819.71 86.9184 816.869 89.4221 813.679 90.5277L813.178 89.9488C812.981 89.538 812.958 89.1358 812.891 88.6879C814.331 88.666 827.902 83.1375 831.981 82.2114C834.53 81.633 839.217 81.8164 841.298 80.5842Z" fill="#696FA0"/>
<path d="M811.282 68.0515C812.986 68.6659 814.129 68.5944 815.884 68.3801L815.518 69.022C816.61 69.0266 817.814 68.7559 818.602 69.5369L818.292 70.4759C814.967 72.1633 808.626 76.0078 805.183 76.4438L804.856 77.0273C802.313 77.2034 801.244 77.838 798.74 76.9727C795.933 77.3378 793.806 77.0182 791.094 78.1857C791.01 78.2229 790.925 78.2617 790.841 78.2994C789.001 77.0987 789.75 74.5511 787.657 73.0623L788.472 72.0046L788.889 72.0389C795.185 67.5828 803.9 69.0969 811.282 68.0515Z" fill="#515499"/>
<path d="M788.472 72.0046L788.889 72.0389C788.996 72.058 789.103 72.0749 789.209 72.0963C793.975 73.037 793.514 74.6141 799.388 73.9479L799.697 73.9108C801.154 73.9744 802.521 73.9367 803.86 74.5966C803.011 75.8682 800.237 76.6244 798.74 76.9727C795.933 77.3378 793.806 77.0182 791.094 78.1857C791.01 78.2229 790.925 78.2617 790.841 78.2994C789.001 77.0987 789.75 74.5511 787.657 73.0623L788.472 72.0046Z" fill="#2F4D87"/>
<path d="M877.048 57.1037C878.055 57.0891 878.905 57.1234 879.89 57.3485C881.004 57.6028 881.752 57.3766 882.832 57.1611C883.108 57.1071 883.384 57.0677 883.654 57.0221C884.374 57.8076 886.27 58.7404 886.354 59.3194C884.79 60.9977 880.762 64.4613 880.435 66.6359C880.216 69.1903 875.827 77.5488 873.892 79.4967C872.795 83.3811 866.409 102.96 864.912 105.059L865.21 105.471C865.115 106.666 865.014 107.85 865.014 109.049L865.548 109.023C867.883 108.714 870.032 107.851 872.204 106.994L873.116 108.134C872.643 110.078 870.831 114.221 869.301 115.455C869.138 116.383 868.997 116.812 868.44 117.569C867.202 120.128 864.586 126.121 861.936 127.164L860.771 127.597C858.965 130.734 855.437 138.985 852.394 140.4C852.18 139.683 851.96 138.993 851.668 138.302L850.301 140.007C847.274 138.239 849.49 132.131 844.466 131.007C844.128 133.429 842.306 136.411 840.528 138.084C840.708 137.55 840.888 137.017 841.017 136.47C841.619 133.985 838.57 134.631 837.439 132.789L837.636 132.29C838.378 132.588 839.222 132.964 840.016 133.066C841.113 133.208 842.199 133.017 843.082 132.393C842.407 131.02 841.118 130.316 839.897 129.468C837.208 128.392 834.001 127.874 831.177 127.121C826.844 126.937 821.904 123.831 817.78 122.458C818.073 121.597 818.112 121.465 817.91 120.585C816.12 118.581 813.302 117.382 810.961 116.108L810.168 116.017C808.958 113.972 800.378 108.783 798.065 107.271C800.22 106.341 802.589 106.231 804.896 105.996C806.297 103.903 807.861 101.812 808.935 99.5305C810.826 98.2128 812.57 96.0399 814.303 94.4521C817.218 91.7807 820.301 89.3721 823.446 86.9792C831.013 86.1313 836.606 81.8445 844.837 81.8091L844.308 80.6096L841.298 80.5842L839.47 79.9552L839.402 79.0004C838.384 79.0263 838.097 79.136 837.219 78.5644C836.842 75.1795 841.653 69.9673 843.42 67.0798H843.825L844.46 68.056C846.88 68.3559 859.595 64.7573 862.42 63.6702C865.509 62.4836 868.316 60.623 871.315 59.2417C873.161 58.3905 875.169 57.9522 877.048 57.1037Z" fill="#0441DE"/>
<path d="M853.266 95.0913C855.668 95.0558 858.082 94.9607 860.473 95.1684C861.407 99.019 857.384 101.905 857.17 105.671C856.478 106.621 855.809 107.744 854.92 108.511C855.28 107.46 855.561 107.23 855.1 106.185L852.135 105.863C853.311 103.067 855.764 98.7878 854.925 95.7192L853.266 95.0913Z" fill="#6F87C6"/>
<path d="M813.442 96.9823C817.111 98.6877 830.968 95.147 835.959 94.8477C841.754 94.4994 847.482 94.7807 853.266 95.0913L854.925 95.7192C855.764 98.7878 853.311 103.067 852.135 105.863C851.808 105.865 851.555 105.842 851.246 105.721C845.625 103.512 838.913 103.237 832.921 103.583C827.682 103.049 822.484 101.926 817.319 100.926C816.205 99.7786 812.711 99.6121 811.135 99.2357L811.068 99.8461C811.974 97.465 813.904 99.2874 815.771 98.3214L814.781 98.2291L814.759 98.4806L815.828 98.3343L813.83 98.0884L813.442 96.9823Z" fill="#3E3BC2"/>
<path d="M865.902 75.525C867.399 73.7707 869.605 72.7096 870.51 70.5209C871.45 73.1372 869.982 78.9048 868.716 81.4209C868.496 81.8671 868.237 82.1073 867.883 82.4499C860.259 87.1058 837.698 86.3912 826.754 89.8149C821.471 91.4673 818.157 94.487 813.442 96.9823L813.83 98.0884L815.828 98.3343L814.759 98.4806L814.781 98.2291L815.771 98.3214C813.904 99.2874 811.974 97.465 811.068 99.8461L811.135 99.2357C812.711 99.6121 816.205 99.7786 817.319 100.926C814.196 100.938 811.782 100.915 808.935 99.5305C810.826 98.2128 812.57 96.0399 814.303 94.4521C817.218 91.7807 820.301 89.3721 823.446 86.9792C831.013 86.1313 836.606 81.8445 844.837 81.8091L844.308 80.6096C850.908 79.9164 856.81 79.2339 862.763 76.0325C863.967 75.5661 864.642 75.0192 865.902 75.525Z" fill="url(#paint7_linear_275_18349)"/>
<path d="M862.763 76.0325C863.967 75.5661 864.642 75.0192 865.902 75.525C866.122 77.2298 865.902 79.6615 864.856 81.0951C864.35 81.786 863.826 82.0735 863.05 82.3836L860.631 82.0358C861.469 81.4591 862.33 80.6079 862.769 79.6778C863.433 78.2448 863.162 77.4492 862.763 76.0325Z" fill="#6F87C6"/>
<path d="M862.763 76.0325C863.162 77.4492 863.433 78.2448 862.769 79.6778C862.33 80.6079 861.469 81.4591 860.631 82.0358C855.719 82.7358 849.834 81.9801 844.837 81.8091L844.308 80.6096C850.908 79.9164 856.81 79.2339 862.763 76.0325Z" fill="#696FA0"/>
<path d="M877.048 57.1037C878.055 57.0891 878.905 57.1234 879.89 57.3485C881.004 57.6028 881.752 57.3766 882.832 57.1611C883.108 57.1071 883.384 57.0677 883.654 57.0221C884.374 57.8076 886.27 58.7404 886.354 59.3194C884.79 60.9977 880.762 64.4613 880.435 66.6359C880.216 69.1903 875.827 77.5488 873.892 79.4967C872.795 83.3811 866.409 102.96 864.912 105.059L862.195 107.452C862.06 107.752 862.026 107.855 861.829 108.168C861.289 109.04 860.951 109.643 859.967 109.919C859.702 107.913 859.792 107.132 858.476 105.548C859.77 104.853 860.501 103.319 861.114 102.038C862.898 98.3259 869.205 86.1971 867.883 82.4499C868.237 82.1073 868.496 81.8671 868.716 81.4209C869.982 78.9048 871.45 73.1372 870.51 70.5209C869.605 72.7096 867.399 73.7707 865.902 75.525C864.642 75.0192 863.967 75.5661 862.763 76.0325C856.81 79.2339 850.908 79.9164 844.308 80.6096L841.298 80.5842L839.47 79.9552L839.402 79.0004C838.384 79.0263 838.097 79.136 837.219 78.5644C836.842 75.1795 841.653 69.9673 843.42 67.0798H843.825L844.46 68.056C846.88 68.3559 859.595 64.7573 862.42 63.6702C865.509 62.4836 868.316 60.623 871.315 59.2417C873.161 58.3905 875.169 57.9522 877.048 57.1037Z" fill="#D8DAEE"/>
<path d="M871.439 65.5084C871.574 65.8516 871.703 66.1999 871.771 66.5616C872.063 68.0234 871.349 69.3844 870.51 70.5209C869.605 72.7096 867.399 73.7707 865.902 75.525C864.642 75.0192 863.967 75.5661 862.763 76.0325C856.81 79.2339 850.908 79.9164 844.308 80.6096L841.298 80.5842L839.47 79.9552L839.402 79.0004C847.037 77.6388 867.011 71.7103 871.439 65.5084Z" fill="url(#paint8_linear_275_18349)"/>
<path d="M857.03 112.361C858.549 111.943 860.557 111.02 861.992 111.615C861.143 113.809 859.792 116.689 858.346 118.548C858.228 118.83 857.891 119.136 857.688 119.37C856.872 118.067 857.469 114.629 857.12 112.808L857.03 112.361Z" fill="#F9FAF9"/>
<path d="M804.896 105.996C806.297 103.903 807.861 101.812 808.935 99.5305C811.782 100.915 814.196 100.938 817.319 100.926C822.484 101.926 827.682 103.049 832.921 103.583C838.913 103.237 845.625 103.512 851.246 105.721C851.555 105.842 851.808 105.865 852.135 105.863L855.1 106.185C855.561 107.23 855.28 107.46 854.92 108.511C855.207 109.96 855.291 110.774 854.655 112.132C853.136 113.667 850.841 113.556 848.821 113.605C841.827 117.323 813.42 107.618 804.896 105.996Z" fill="#464762"/>
<path d="M832.921 103.583C838.913 103.237 845.625 103.512 851.246 105.721C851.555 105.842 851.808 105.865 852.135 105.863L855.1 106.185C855.561 107.23 855.28 107.46 854.92 108.511C855.207 109.96 855.291 110.774 854.655 112.132C853.136 113.667 850.841 113.556 848.821 113.605L850.059 107.282C848.945 105.915 836.161 105.389 833.185 103.738C833.095 103.689 833.011 103.635 832.921 103.583Z" fill="#444DA1"/>
<path d="M810.944 37.4294C815.181 35.0208 818.934 31.5679 823.142 29.0298C828.262 25.9404 834.406 23.8513 839.948 21.5878C838.969 23.6082 835.025 25.3957 832.994 26.4316C828.054 28.946 819.491 37.246 815.333 38.486C815.198 38.526 815.063 38.5569 814.928 38.5929L814.123 38.7432C813.076 38.1631 812.097 37.7653 810.944 37.4294Z" fill="#A4ADFC"/>
<path d="M849.271 16.045C851.206 13.1314 850.475 7.21609 850.256 3.88095C852.922 7.85322 855.426 12.0841 858.296 15.9027C859.404 15.9388 859.488 15.6912 860.332 15.0263C861.356 14.84 862.206 14.4684 863.151 14.0472L864.361 14.0668C863.832 15.8937 862.234 16.7238 860.704 17.7782L861.064 17.8103C861.852 17.8845 862.51 17.9031 863.202 18.3144C862.971 19.9759 862.183 29.4394 861.97 29.9402C861.565 30.6575 861.536 30.6761 860.783 31.0109L858.296 29.9475C858.858 27.0955 855.094 25.1352 854.228 22.4599C854.593 21.504 854.83 20.7118 854.92 19.6912C854.683 19.3249 854.475 18.9817 854.115 18.7189C852.849 17.7956 851.51 17.898 850.059 18.0815L849.271 16.045Z" fill="#F9FAF9"/>
<path d="M876.463 11.4989C881.004 10.655 886.321 10.8441 890.613 9.46996C890.113 10.0595 867.742 25.8363 867.219 26.049C866.561 27.5304 865.396 28.3777 863.984 29.1007L863.05 29.9874L862.493 30.4533L861.97 29.9402C862.183 29.4394 862.971 19.9759 863.202 18.3144C862.51 17.9031 861.852 17.8845 861.064 17.8103L860.704 17.7782C862.234 16.7238 863.832 15.8937 864.361 14.0668C868.294 13.0814 872.412 11.7573 876.463 11.4989Z" fill="#7684CB"/>
<path d="M864.361 14.0668C868.294 13.0814 872.412 11.7573 876.463 11.4989L875.878 12.5914C872.821 13.4962 869.755 14.3709 866.679 15.2154C869.053 15.8859 871.298 15.7063 873.729 15.5686C873.661 15.6507 873.594 15.7343 873.526 15.8149C871.675 18.019 865.812 20.9329 866.206 24.0488C866.291 24.742 866.662 25.3445 867.016 25.9297L867.219 26.049C866.561 27.5304 865.396 28.3777 863.984 29.1007L863.05 29.9874L862.493 30.4533L861.97 29.9402C862.183 29.4394 862.971 19.9759 863.202 18.3144C862.51 17.9031 861.852 17.8845 861.064 17.8103L860.704 17.7782C862.234 16.7238 863.832 15.8937 864.361 14.0668Z" fill="#90B0DF"/>
<path d="M909.783 73.5057C911.898 72.5104 913.862 70.7128 915.741 69.3034C915.673 70.688 914.88 71.5247 914.081 72.5897C912.466 76.5704 908.719 82.1973 905.439 84.9745C903.014 90.22 894.648 95.9757 889.803 98.9133C884.081 101.806 878.264 104.872 872.204 106.994C870.032 107.851 867.883 108.714 865.548 109.023L865.014 109.049C865.014 107.85 865.115 106.666 865.21 105.471C869.712 101.337 868.71 95.5251 873.976 93.0118C879.124 92.2516 891.266 86.789 894.974 83.3862C895.925 82.5101 895.869 82.3768 895.959 81.1441C900.347 79.9665 906.452 76.6171 909.783 73.5057Z" fill="#5D5F98"/>
<path d="M895.959 81.1441C900.347 79.9665 906.452 76.6171 909.783 73.5057C909.563 75.2032 908.922 75.5053 907.577 76.5288C899.897 82.3841 867.5 101.73 865.548 109.023L865.014 109.049C865.014 107.85 865.115 106.666 865.21 105.471C869.712 101.337 868.71 95.5251 873.976 93.0118C879.124 92.2516 891.266 86.789 894.974 83.3862C895.925 82.5101 895.869 82.3768 895.959 81.1441Z" fill="#6F87C6"/>
<path d="M932.322 35.5643L932.063 36.4493L930.87 37.1031C930.746 37.2392 930.628 37.3777 930.499 37.5121C929.312 38.7989 927.354 39.7098 925.941 40.8041C922.723 43.2943 919.381 46.1773 916.731 49.2819C911.369 55.5587 897.14 78.5436 892.476 81.6077C893.899 81.8704 894.636 81.7348 895.959 81.1441C895.869 82.3768 895.925 82.5101 894.974 83.3862C891.266 86.789 879.124 92.2516 873.976 93.0118C868.71 95.5251 869.712 101.337 865.21 105.471L864.912 105.059C866.409 102.96 872.795 83.3811 873.892 79.4967C875.827 77.5488 880.216 69.1903 880.435 66.6359C880.762 64.4613 884.79 60.9977 886.354 59.3194C886.27 58.7404 884.374 57.8076 883.654 57.0221C886.332 55.8969 889.798 53.1321 892.538 52.7742L892.408 54.007C895.677 52.7264 898.631 49.197 901.506 47.1023C910.581 40.4924 921.424 37.4857 932.322 35.5643Z" fill="url(#paint9_linear_275_18349)"/>
<path d="M886.45 68.959C886.546 68.1635 886.771 67.5766 887.119 66.8621C892.532 55.8749 913.473 42.4037 924.917 38.544C923.73 41.5592 903.729 52.4445 899.543 57.4514C896.257 61.3741 893.837 71.5995 890.422 74.0633L889.961 73.1124C889.027 73.9541 888.323 74.9466 887.575 75.9447C887.125 75.8581 886.883 75.8418 886.512 75.5627C886.703 75.3495 886.883 75.1295 887.058 74.9022C888.143 73.4905 889.111 70.3707 888.785 68.622C888.712 68.2332 888.385 68.1674 888.07 67.9643L886.45 68.959Z" fill="#6F87C6"/>
<path d="M886.45 68.959L888.07 67.9643C888.385 68.1674 888.712 68.2332 888.785 68.622C889.111 70.3707 888.143 73.4905 887.058 74.9022C886.883 75.1295 886.703 75.3495 886.512 75.5627C886.883 75.8418 887.125 75.8581 887.575 75.9447C888.323 74.9466 889.027 73.9541 889.961 73.1124L890.422 74.0633C890.197 77.5949 883.789 83.2393 881.533 86.0041C884.402 85.5326 890.743 83.9122 892.476 81.6077C893.899 81.8704 894.636 81.7348 895.959 81.1441C895.869 82.3768 895.925 82.5101 894.974 83.3862C891.266 86.789 879.124 92.2516 873.976 93.0118C868.71 95.5251 869.712 101.337 865.21 105.471L864.912 105.059C866.409 102.96 872.795 83.3811 873.892 79.4967C876.356 79.5107 878.393 78.1475 880.3 76.7178C882.399 75.1402 886.067 71.6929 886.45 68.959Z" fill="#0441DE"/>
<path d="M886.512 75.5627C886.883 75.8418 887.125 75.8581 887.575 75.9447C888.323 74.9466 889.027 73.9541 889.961 73.1124L890.422 74.0633C890.197 77.5949 883.789 83.2393 881.533 86.0041C880.385 87.094 878.219 88.28 876.587 88.3351C876.036 88.3537 875.524 88.1652 875.006 87.9897C879.411 85.3577 884.965 80.5662 886.512 75.5627Z" fill="#6A9AE1"/>
<path d="M932.322 35.5643L932.063 36.4493L930.87 37.1031C928.749 37.048 926.92 38.0421 924.917 38.544C913.473 42.4037 892.532 55.8749 887.119 66.8621C886.771 67.5766 886.546 68.1635 886.45 68.959C886.067 71.6929 882.399 75.1402 880.3 76.7178C878.393 78.1475 876.356 79.5107 873.892 79.4967C875.827 77.5488 880.216 69.1903 880.435 66.6359C880.762 64.4613 884.79 60.9977 886.354 59.3194C886.27 58.7404 884.374 57.8076 883.654 57.0221C886.332 55.8969 889.798 53.1321 892.538 52.7742L892.408 54.007C895.677 52.7264 898.631 49.197 901.506 47.1023C910.581 40.4924 921.424 37.4857 932.322 35.5643Z" fill="#90B0DF"/>
<path d="M883.654 57.0221C886.332 55.8969 889.798 53.1321 892.538 52.7742L892.408 54.007C891.936 55.5103 882.281 65.6648 880.75 66.4767C880.649 66.5324 880.537 66.583 880.435 66.6359C880.762 64.4613 884.79 60.9977 886.354 59.3194C886.27 58.7404 884.374 57.8076 883.654 57.0221Z" fill="#A1B9F7"/>
<path d="M614.955 159.042C616.975 159.281 620.205 160.49 621.516 162.119C621.622 162.254 621.701 162.412 621.791 162.559C620.064 164.025 616.57 164.05 614.359 164.163C612.753 164.173 611.148 164.157 609.543 164.117C611.202 162.917 614.122 160.888 614.955 159.042Z" fill="#DFAC90"/>
<path d="M581.928 183.049C588.77 178.37 596.045 166.402 604.946 166.05C604.119 167.349 601.744 167.943 600.276 168.304C600.63 172.241 598.279 175.882 595.854 178.785C590.137 185.635 583.093 191.418 576.96 197.892C564.959 208.246 547.579 214.724 531.716 215.059L529.629 215.111C523.673 215.138 517.471 215.443 511.564 214.643L511.237 214.442L510.521 214.744C508.953 218.299 506.393 222.467 505.366 226.143C491.895 243.732 480.087 236.983 463.301 243.348C455.088 246.463 447.973 252.039 439.51 254.723C444.377 250.722 450.652 247.739 455.967 244.3C458.183 242.996 460.391 241.676 462.589 240.342C472.578 234.217 487.647 234.366 495.666 225.613C498.859 222.128 504.031 212.705 507.635 207.94C512.698 208.361 517.765 208.722 522.836 209.024C532.406 209.223 543.247 208.378 552.099 204.477C555.997 202.857 559.798 200.906 563.611 199.09C568.436 196.281 580.117 188.086 581.928 183.049Z" fill="#DFAC90"/>
<path d="M735.708 89.1054C739.889 87.7005 743.501 86.9645 747.895 87.0641L748.525 88.096C746.466 90.9975 741.717 91.8505 738.454 92.6714C727.398 98.7934 725.468 110.888 716.37 118.018L715.999 118.178C714.142 118.77 712.314 119.447 710.356 119.577C709.444 119.245 708.724 118.674 707.942 118.11C709.698 117.682 711.785 117.441 712.989 116.09C716.905 114.664 727.826 97.9095 731.235 93.6599C732.479 92.107 734.054 91.002 735.343 89.533L735.708 89.1054Z" fill="#FCDCA4"/>
<defs>
<linearGradient id="paint0_linear_275_18349" x1="865.194" y1="430.753" x2="315.283" y2="320.232" gradientUnits="userSpaceOnUse">
<stop stop-color="#553031"/>
<stop offset="1" stop-color="#996E70"/>
</linearGradient>
<linearGradient id="paint1_linear_275_18349" x1="606.925" y1="404.149" x2="535.478" y2="98.8948" gradientUnits="userSpaceOnUse">
<stop stop-color="#492118"/>
<stop offset="1" stop-color="#773F27"/>
</linearGradient>
<linearGradient id="paint2_linear_275_18349" x1="465.297" y1="601.811" x2="50.4619" y2="164.155" gradientUnits="userSpaceOnUse">
<stop stop-color="#84523E"/>
<stop offset="1" stop-color="#A36B4C"/>
</linearGradient>
<linearGradient id="paint3_linear_275_18349" x1="406.722" y1="509.911" x2="403.466" y2="147.395" gradientUnits="userSpaceOnUse">
<stop stop-color="#C1896D"/>
<stop offset="1" stop-color="#ECB4B2"/>
</linearGradient>
<linearGradient id="paint4_linear_275_18349" x1="174.947" y1="405.913" x2="440.309" y2="-42.1202" gradientUnits="userSpaceOnUse">
<stop stop-color="#2A2451"/>
<stop offset="1" stop-color="#454D79"/>
</linearGradient>
<linearGradient id="paint5_linear_275_18349" x1="450.007" y1="511.603" x2="447.876" y2="27.0301" gradientUnits="userSpaceOnUse">
<stop stop-color="#96573C"/>
<stop offset="1" stop-color="#B88361"/>
</linearGradient>
<linearGradient id="paint6_linear_275_18349" x1="251.17" y1="325.982" x2="345.346" y2="448.506" gradientUnits="userSpaceOnUse">
<stop stop-color="#DDEBFF"/>
<stop offset="1" stop-color="#A3CDFF"/>
</linearGradient>
<linearGradient id="paint7_linear_275_18349" x1="502.639" y1="398.459" x2="535.214" y2="167.589" gradientUnits="userSpaceOnUse">
<stop stop-color="#4C43B9"/>
<stop offset="1" stop-color="#7682C4"/>
</linearGradient>
<linearGradient id="paint8_linear_275_18349" x1="443.988" y1="533.799" x2="500.808" y2="20.9078" gradientUnits="userSpaceOnUse">
<stop stop-color="#6E91D5"/>
<stop offset="1" stop-color="#9BA6E0"/>
</linearGradient>
<linearGradient id="paint9_linear_275_18349" x1="573.025" y1="218.358" x2="535.332" y2="161.825" gradientUnits="userSpaceOnUse">
<stop stop-color="#0441DE"/>
<stop offset="1" stop-color="#6D6CA1"/>
</linearGradient>
</defs>
</svg>
