<svg width="237" height="422" viewBox="0 0 237 422" fill="none" xmlns="http://www.w3.org/2000/svg">
<path d="M178.909 73.5374C184.873 72.5595 194.371 71.9558 198.962 67.9561C197.955 72.9129 183.349 82.4372 179.179 85.3843C178.431 85.9222 177.846 86.2423 176.957 86.5073C179.095 83.8742 182.747 82.3393 183.045 78.5792C182.533 76.179 180.85 74.8399 178.909 73.5374Z" fill="#B1572F"/>
<path d="M33.5117 70.9463C39.5544 73.5074 50.9197 81.3641 57.0181 80.9269C58.5974 84.0304 61.1029 87.4439 61.7651 90.8569L61.3099 91.7307C59.8752 91.8685 58.701 91.6603 57.367 91.1309C57.0901 90.7376 57.233 90.8721 56.8504 90.5953C48.7378 84.7163 41.163 77.4487 33.5117 70.9463Z" fill="#AC826D"/>
<path d="M159.592 59.0945C164.064 56.265 187.203 44.5037 188.469 41.1543C188.997 45.3645 181.272 53.8271 178.589 57.2767C174.583 62.4299 169.964 69.6012 165.274 73.9482C166.177 71.8433 166.713 69.5984 167.311 67.3923C168.676 66.1382 170.081 65.1305 170.476 63.289C168.694 60.1416 169.286 58.1347 169.861 54.7937L169.238 54.9563L169.759 55.2484L169.66 55.7412L168.737 55.3783C166.277 57.3993 163.28 58.8779 160.074 59.0698L159.592 59.0945Z" fill="#B1572F"/>
<path d="M86.7292 75.7955C85.4267 61.5259 84.4804 47.5686 82.3474 33.3643C88.7446 45.4176 93.0634 58.0145 97.0553 71.0097C97.5386 72.7669 97.9707 74.2286 96.9293 75.9097C96.3374 76.8651 95.5987 77.5847 94.6939 78.2357C95.3106 79.7554 96.1084 81.3594 96.446 82.9601L94.7327 82.2293C93.6547 82.7576 93.5923 82.9258 93.1906 84.0584C92.8209 85.1015 92.6218 86.2454 92.386 87.3273L92.804 88.0475C91.7761 89.3371 91.6821 89.4777 90.1068 89.9166C88.4076 89.6133 87.1405 89.0243 85.6226 88.2422L84.7459 88.0408C84.023 88.2377 84.1029 88.1252 83.4766 87.8039C80.6443 83.4519 66.3911 64.1174 65.8262 61.8556L66.5925 61.0516C72.889 65.5848 80.1374 72.2774 86.7292 75.7955Z" fill="url(#paint0_linear_120_36698)"/>
<path d="M92.3867 87.3277C90.5665 82.2347 90.4827 76.924 90.1445 71.584C91.8257 73.6911 93.243 75.9692 94.6946 78.236C95.3112 79.7557 96.1091 81.3598 96.4467 82.9605L94.7334 82.2296C93.6554 82.758 93.593 82.9262 93.1912 84.0588C92.8216 85.1019 92.6224 86.2457 92.3867 87.3277Z" fill="#FDD792"/>
<path d="M30.9123 27.8594C38.4674 36.3574 46.3156 44.4859 54.9712 51.88C58.7167 55.0798 62.7727 57.9312 66.5936 61.0516L65.8273 61.8556C66.3922 64.1174 80.6455 83.4519 83.4778 87.8039C84.104 88.1251 84.0241 88.2376 84.7471 88.0407L85.6237 88.2421C87.1417 89.0242 88.4087 89.6133 90.1079 89.9165C91.6833 89.4777 91.7772 89.337 92.8052 88.0475L92.3871 87.3273C92.6229 86.2453 92.8221 85.1015 93.1917 84.0584C93.5934 82.9258 93.6559 82.7576 94.7339 82.2292L96.4471 82.9601C97.434 85.061 98.3893 87.1844 99.4578 89.2448C100.158 91.7237 100.795 95.535 103.2 96.882C103.277 96.9248 103.357 96.9619 103.436 97.0024L104.157 96.1596C104.223 97.0964 104.213 98.1327 104.486 99.0301C103.886 100.36 103.745 101.028 102.48 101.829C101.765 101.465 101.096 101.145 100.323 100.911C99.1759 101.689 99.2502 101.991 98.9835 103.338C98.5739 105.41 98.5148 106.452 96.6508 107.738C95.0833 108.82 91.9314 109.71 91.0261 111.199L91.6776 113.713C90.2446 115.574 85.6349 115.879 83.3157 116.268C84.7994 116.98 86.3697 117.884 87.9282 118.386L87.7769 118.779C87.0004 120.851 87.4922 123.294 86.3287 125.081L84.4084 125.61L82.7964 126.236L79.7092 127.036C77.5555 127.568 75.3252 128.278 73.1359 128.606L68.9325 129.505L68.5516 129.401C61.5361 125.017 46.9969 122.471 38.5433 120.267C30.7395 117.827 22.923 115.43 15.0938 113.075C27.3958 110.792 40.1654 108.906 52.6177 107.623C41.5883 100.356 29.5552 94.448 18.1624 87.756C31.202 88.1195 44.3835 89.8338 57.3664 91.1307C58.7004 91.6602 59.8746 91.8683 61.3093 91.7305L61.7645 90.8567C61.1023 87.4438 58.5968 84.0302 57.0175 80.9267C53.2028 73.2777 49.7809 65.4334 45.9544 57.7928C40.9469 47.7936 35.5625 38.0403 30.9123 27.8594Z" fill="#CF9B84"/>
<path d="M75.8873 101.582L76.666 102.438C76.1489 103.552 75.3404 103.815 74.2067 104.201C67.9463 106.33 64.0084 104.969 57.7563 104.671C59.5056 106.315 61.4101 107.917 63.0232 109.69C59.0785 107.926 55.7207 105.667 52.5098 102.793C58.4602 103.384 65.0898 105.454 71.0436 104.136C72.8705 103.732 74.8875 103.181 75.8873 101.582Z" fill="#F1A66C"/>
<path d="M62.1133 73.0635C69.1221 76.6812 74.7462 82.5102 80.0085 88.2547C79.887 88.1967 79.7655 88.1399 79.6445 88.0808C75.2751 85.9276 73.3655 81.3466 69.4765 79.2103C68.7158 79.5169 68.3237 79.5355 68.0047 80.3665C66.0799 85.3847 74.0091 95.7535 75.2548 100.828C68.2528 94.3632 65.1352 81.8457 62.1133 73.0635Z" fill="#F1A66C"/>
<path d="M75.2559 100.828C74.0102 95.7532 66.0809 85.3843 68.0057 80.3662C68.3247 79.5352 68.7169 79.5166 69.4776 79.21C73.3665 81.3463 75.2761 85.9273 79.6456 88.0805C79.7665 88.1396 79.888 88.1964 80.0096 88.2543L80.2003 88.4541C81.2879 89.5692 82.2196 90.5904 83.8102 90.6208C84.5703 89.7875 84.6176 89.1377 84.747 88.0405L85.6236 88.242C87.1416 89.024 88.4086 89.6131 90.1078 89.9164C91.6832 89.4775 91.7771 89.3369 92.8051 88.0473L92.387 87.3271C92.6228 86.2452 92.8219 85.1013 93.1916 84.0582C93.5933 82.9256 93.6558 82.7574 94.7338 82.2291L96.447 82.9599C97.4339 85.0608 98.3892 87.1842 99.4577 89.2446C100.158 91.7236 100.795 95.5349 103.2 96.8818C103.277 96.9246 103.357 96.9617 103.436 97.0022L104.157 96.1594C104.223 97.0962 104.213 98.1326 104.485 99.03C103.886 100.359 103.745 101.027 102.48 101.829C101.765 101.465 101.096 101.144 100.323 100.911C99.1758 101.689 99.2501 101.991 98.9834 103.338C98.5738 105.41 98.5147 106.452 96.6507 107.738C95.0832 108.82 91.9313 109.71 91.026 111.199L91.6775 113.713C90.2445 115.574 85.6348 115.879 83.3156 116.267C84.7993 116.98 86.3696 117.883 87.9281 118.386L87.7768 118.779C87.0003 120.851 87.4921 123.294 86.3286 125.081L84.4083 125.61L82.7963 126.236L79.7091 127.036C77.5553 127.568 75.3251 128.278 73.1358 128.606L73.097 127.879C74.6004 127.44 76.0194 127.041 77.3922 126.261L77.4282 125.414C73.5285 121.003 61.2203 119.84 55.4668 117.931C58.8387 115.239 62.6112 113.704 66.5513 112.052L63.0236 109.689C61.4105 107.916 59.5059 106.314 57.7567 104.67C64.0087 104.968 67.9466 106.33 74.2071 104.201C75.3408 103.815 76.1493 103.551 76.6664 102.438L75.8877 101.582L75.2559 100.828Z" fill="#FDD792"/>
<path d="M83.8699 104.554C82.6 102.903 81.302 101.337 80.502 99.3978L80.9233 99.3506C82.6743 101.036 84.0117 102.818 85.3834 104.82C86.3432 106.093 87.4106 107.201 87.509 108.852C86.6229 110.087 85.5392 110.393 84.0584 110.644C83.8159 108.662 83.9059 106.555 83.8699 104.554Z" fill="#FDDA85"/>
<path d="M92.3865 87.3275C92.6223 86.2456 92.8214 85.1017 93.1911 84.0586C93.5928 82.926 93.6552 82.7578 94.7332 82.2295L96.4465 82.9604C97.4334 85.0612 98.3887 87.1846 99.4571 89.245C100.158 91.724 100.794 95.5353 103.2 96.8822C103.276 96.925 103.357 96.9621 103.435 97.0027L103.009 97.495C101.34 97.3656 99.6659 97.715 98.0168 97.9558L96.9759 96.8687C96.6412 98.1341 96.7014 98.7468 95.5564 99.5356C93.891 99.3061 92.3083 97.4815 91.0784 96.3708C91.7744 98.0779 93.0099 100.346 92.7899 102.194C91.0384 103.688 89.7793 104.037 88.6107 106.154C88.798 105.144 89.3387 104.373 89.6273 103.415C90.0937 101.867 87.2648 99.3415 86.3685 97.8894L86.1632 97.5512L85.5589 97.4415C84.6019 96.1323 83.4991 94.9473 82.416 93.7427L82.6939 93.6386C84.0268 94.8011 85.3361 96.1339 86.9295 96.9222C89.1997 94.8455 84.9417 90.862 85.6231 88.2424C87.141 89.0245 88.4081 89.6135 90.1073 89.9168C91.6826 89.4779 91.7766 89.3373 92.8045 88.0477L92.3865 87.3275Z" fill="#FDDA85"/>
<path d="M92.1156 102.848C91.3881 100.546 88.6627 96.406 89.2057 94.1954C90.9448 93.581 92.5326 94.4176 94.2103 94.969C95.4988 95.4168 96.1711 95.7488 96.9768 96.8684C96.6421 98.1338 96.7023 98.7465 95.5573 99.5353C93.8919 99.3058 92.3092 97.4812 91.0793 96.3705C91.7753 98.0775 93.0108 100.346 92.7908 102.194C91.0393 103.688 89.7802 104.037 88.6116 106.154C88.7989 105.144 89.3396 104.373 89.6282 103.415C90.0946 101.867 87.2657 99.3412 86.3694 97.8891L86.1641 97.5509C88.2441 99.1336 90.1762 101.085 92.1156 102.848Z" fill="#FEF196"/>
<path d="M92.3867 87.3275C92.6225 86.2456 92.8216 85.1017 93.1913 84.0586C93.593 82.926 93.6554 82.7578 94.7335 82.2295L96.4467 82.9604C97.4336 85.0612 98.3889 87.1846 99.4574 89.245C100.158 91.724 100.794 95.5353 103.2 96.8822C103.277 96.925 103.357 96.9621 103.435 97.0027L103.009 97.495C101.34 97.3656 99.6661 97.715 98.017 97.9558L96.9761 96.8687C96.1704 95.7491 95.4981 95.4171 94.2097 94.9693C94.2378 92.3294 93.8136 90.4772 92.8047 88.0477L92.3867 87.3275Z" fill="#FDD792"/>
<path d="M104.157 96.1592C104.223 97.096 104.213 98.1323 104.485 99.0297C103.886 100.359 103.745 101.027 102.48 101.829C101.765 101.464 101.096 101.144 100.323 100.911C99.1758 101.689 99.2501 101.99 98.9834 103.337C98.5738 105.41 98.5147 106.451 96.6507 107.738C95.0832 108.82 91.9313 109.71 91.026 111.199L91.6775 113.713C90.2445 115.574 85.6348 115.878 83.3156 116.267C84.7993 116.98 86.3696 117.883 87.9281 118.386L87.7768 118.779C87.0003 120.85 87.4921 123.294 86.3285 125.08L84.4083 125.609C83.8254 124.659 83.2436 124.279 82.1515 124.029C80.4991 123.651 79.7147 123.552 78.7718 122.155C79.2331 120.628 80.1564 120.076 81.3154 119.006C82.0019 116.558 78.1427 115.797 78.0234 113.622C79.1459 113.068 81.8888 113.356 83.2712 113.192C82.3411 112.577 81.3498 112.079 80.3646 111.56L80.2363 111.068C81.5293 110.385 82.6607 110.541 84.0594 110.643C85.5403 110.393 86.6239 110.087 87.5101 108.851C87.4116 107.2 86.3443 106.092 85.3844 104.819C86.6014 105.614 87.123 106.112 88.6112 106.153C89.7798 104.037 91.0389 103.687 92.7904 102.193C93.0104 100.346 91.7749 98.0772 91.0789 96.3702C92.3088 97.4808 93.8915 99.3054 95.5569 99.535C96.7019 98.7462 96.6417 98.1335 96.9764 96.8681L98.0173 97.9551C99.6664 97.7143 101.34 97.3649 103.009 97.4943L103.436 97.002L104.157 96.1592Z" fill="#FEF9B9"/>
<path d="M82.1619 143.311C82.0449 142.336 82.32 141.44 82.7302 140.555C83.2618 139.409 83.7896 138.499 84.9784 138.071C85.7948 139.238 85.6823 139.947 85.756 141.305L85.5456 141.79L82.1619 143.311Z" fill="#CCC4C3"/>
<path d="M82.796 126.236L84.408 125.609C84.6314 127.417 84.7793 127.772 85.8647 129.236C85.6317 130.924 85.4815 131.222 84.0851 132.299C82.9187 131.664 82.0753 131.186 81.3281 130.045C81.3641 128.324 81.9268 127.695 82.796 126.236Z" fill="#FEFEFE"/>
<path d="M79.7084 127.036C79.5312 129.288 78.1825 131.288 77.0842 133.21C74.446 132.198 71.1152 131.319 68.9316 129.506L73.1351 128.606C75.3243 128.278 77.5546 127.568 79.7084 127.036Z" fill="#CCC4C3"/>
<path d="M123.307 0C124.279 17.2662 122.858 30.4976 126.007 48.3956C135.211 37.9165 143.792 26.9783 152.928 16.474C145.321 33.4132 137.221 52.1529 137.693 70.9692C140.49 69.8265 143.331 68.668 145.927 67.1134C150.397 64.437 154.67 60.8637 159.592 59.0942L160.074 59.0694C163.28 58.8776 166.277 57.3989 168.738 55.3779L169.66 55.7408L169.76 55.248L169.239 54.956L169.861 54.7934C169.286 58.1343 168.695 60.1412 170.476 63.2886C170.081 65.1301 168.676 66.1378 167.312 67.3919C166.713 69.598 166.178 71.843 165.275 73.9478L164.033 75.8405C164.303 76.1702 164.329 76.3919 164.776 76.4262C169.039 76.7576 174.594 74.2713 178.91 73.5376C180.851 74.8401 182.533 76.1792 183.045 78.5794C182.747 82.3395 179.095 83.8744 176.957 86.5075C177.846 86.2425 178.431 85.9224 179.18 85.3845C181.224 85.8177 183.278 86.1956 185.341 86.5182C187.563 86.7427 189.662 87.0358 191.102 88.9848C192.216 90.4809 192.199 92.5874 191.867 94.3479C191.445 96.55 190.404 98.3747 188.531 99.6524C182.719 103.609 172.861 100.195 165.929 102.268C158.901 106.411 151.858 110.32 144.542 113.939L142.837 113.982C142.46 115.747 142.158 117.574 141.688 119.314L135.911 122.742C135.215 124.021 134.356 125.457 134.019 126.877C133.056 130.931 134.316 135.97 129.912 138.217C137.339 139.002 153.328 139.568 158.121 145.827C159.225 147.27 159.604 148.713 159.376 150.509C159.336 150.825 159.313 150.884 159.237 151.224C150.293 159.555 130.462 162.37 118.585 161.966C115.916 161.855 113.249 161.711 110.584 161.533L105.419 161.24C99.3225 159.88 92.9236 159.504 86.7543 158.234C83.3019 156.985 80.4494 155.188 77.567 152.963C77.5062 152.01 77.437 151.036 77.504 150.082C77.7234 146.932 79.9942 145.251 82.1621 143.311L85.5458 141.79L85.7562 141.304C86.1011 139.424 87.3501 137.587 86.4606 135.632C85.7275 134.022 85.5716 133.356 84.0852 132.299C85.4816 131.223 85.6318 130.924 85.8648 129.236C84.7794 127.772 84.6315 127.417 84.4081 125.61L86.3284 125.081C87.4919 123.294 87.0002 120.851 87.7766 118.779L87.9279 118.386C86.3694 117.884 84.7991 116.98 83.3155 116.268C85.6346 115.879 90.2443 115.574 91.6774 113.713L91.0259 111.199C91.9311 109.71 95.083 108.82 96.6505 107.738C98.5146 106.452 98.5736 105.41 98.9832 103.338C99.2499 101.991 99.1756 101.689 100.323 100.911C101.096 101.145 101.765 101.465 102.48 101.829C103.745 101.028 103.886 100.36 104.485 99.0301C104.212 98.1327 104.223 97.0964 104.157 96.1596L103.435 97.0024C103.357 96.9619 103.277 96.9248 103.2 96.882C100.794 95.535 100.158 91.7237 99.4575 89.2448C98.3891 87.1844 97.4337 85.061 96.4469 82.9601C96.1093 81.3594 95.3115 79.7553 94.6948 78.2356C95.5995 77.5847 96.3382 76.8651 96.9301 75.9097C97.9716 74.2285 97.5395 72.7668 97.0562 71.0097C102.89 62.8245 120.365 11.979 123.307 0Z" fill="url(#paint1_linear_120_36698)"/>
<path d="M141.936 79.4969C145.611 75.8133 150.676 74.0539 155.42 72.1494C153.196 75.8746 151.195 79.5053 147.735 82.2409C148.225 81.0256 148.9 79.817 148.665 78.4858L147.822 77.962C145.811 78.2681 143.879 78.9118 141.936 79.4969Z" fill="#CF9B84"/>
<path d="M104.751 84.7362C104.596 76.5841 109.852 68.7849 109.765 60.7391L109.756 60.2744L109.904 61.0075L110.232 60.4877L109.907 60.5805C109.927 61.461 110.054 62.5784 109.725 63.3982C109.673 63.527 109.612 63.6519 109.555 63.7785L109.875 63.6289C109.627 67.6618 109.696 71.5356 109.9 75.5674C109.63 79.7872 107.363 84.034 107.228 86.5361C107.025 90.2945 109.536 90.3192 107.6 94.5986L108.276 95.8179L107.486 97.3229L106.92 97.3139L106.053 95.3908L105.371 95.1776L104.156 96.1594L103.435 97.0022C103.357 96.9617 103.276 96.9246 103.2 96.8818C100.794 95.5349 100.158 91.7236 99.457 89.2446C99.7592 89.3363 99.8762 89.3819 100.165 89.4381C101.466 89.6913 102.528 89.6232 103.655 88.9171C104.764 87.573 104.709 86.3836 104.751 84.7362Z" fill="#FDDA85"/>
<path d="M104.751 84.7363C105.01 86.1446 105.12 93.2592 105.181 93.4308C105.337 93.873 106.434 94.9375 106.844 95.1969C107.062 95.3336 107.311 95.4259 107.544 95.5255L107.6 94.5988L108.276 95.818L107.486 97.3231L106.92 97.3141L106.053 95.391L105.371 95.1777L104.156 96.1596L103.435 97.0024C103.357 96.9619 103.276 96.9247 103.2 96.882C100.794 95.535 100.158 91.7237 99.457 89.2447C99.7592 89.3364 99.8762 89.382 100.165 89.4383C101.466 89.6915 102.528 89.6234 103.655 88.9173C104.764 87.5731 104.709 86.3837 104.751 84.7363Z" fill="#FEF196"/>
<path d="M109.901 75.568C111.589 74.9536 113.821 73.8109 115.592 74.2587C117.111 75.4544 117.311 77.926 117.965 79.6966C116.458 82.395 117.775 86.5034 118.454 89.3521L117.83 93.8093C116.903 92.4556 115.602 91.1727 113.937 90.8295C112.427 90.5178 111.098 91.0585 109.818 91.8001C108.889 92.9901 108.636 94.3865 108.277 95.8184L107.601 94.5992C109.536 90.3198 107.026 90.295 107.229 86.5366C107.364 84.0346 109.631 79.7878 109.901 75.568Z" fill="#FDD792"/>
<path d="M141.936 79.4968C143.879 78.9117 145.811 78.268 147.822 77.9619L148.665 78.4857C148.9 79.8169 148.225 81.0255 147.735 82.2408C143.982 87.4035 140.923 90.3028 137.115 94.8343C138.557 96.9492 140.518 96.2746 142.118 98.0312C140.215 99.256 137.882 100.569 136.469 102.36L135.636 102.641L131.61 106.232C130.16 104.3 129.184 102.976 129.168 100.506L129.552 98.4453C129.53 97.5563 129.573 96.8345 129.085 96.0507C126.848 95.4903 125.056 97.1377 122.921 97.0106C121.839 96.9459 121.739 96.7067 121.01 95.968C120.796 95.2039 120.524 94.4731 120.668 93.6758C120.873 92.5415 120.833 91.4157 120.834 90.2617L119.731 88.0973L119.66 87.8092C121.521 86.1882 121.9 82.6627 122.736 80.352C122.596 82.306 122.082 84.9139 123.084 86.6614C123.937 87.3231 124.807 87.9532 125.689 88.5761C126.567 87.956 127.38 87.1515 128.199 86.4499C129.022 87.0204 127.47 88.6177 127.842 89.6783C132.409 85.9221 137.728 83.8359 141.936 79.4968Z" fill="#F1A66C"/>
<path d="M122.736 80.3516C122.596 82.3056 122.082 84.9134 123.084 86.661C123.937 87.3226 124.807 87.9528 125.689 88.5756L125.914 90.1791C127.048 90.7114 127.699 90.5719 128.846 90.1105C132.218 88.7545 135.215 86.4832 138.572 85.0513C136.857 88.7748 135.317 92.073 132.22 94.8862C132.712 93.7001 132.995 92.949 132.868 91.6589C131.574 91.7016 130.396 92.9574 129.331 93.7232C128.011 94.6712 126.633 95.6182 124.941 95.1979C123.796 94.9137 123.137 94.6881 122.538 93.6951C122.902 92.754 123.292 91.8245 123.711 90.9066L123.108 90.2062L120.834 90.2613L119.731 88.0968L119.66 87.8088C121.521 86.1878 121.9 82.6623 122.736 80.3516Z" fill="#FDD792"/>
<path d="M120.836 90.2612L123.109 90.2061L123.712 90.9065C123.294 91.8244 122.903 92.7539 122.539 93.695C123.138 94.688 123.797 94.9136 124.942 95.1978C126.635 95.6181 128.013 94.6711 129.332 93.7231C130.397 92.9574 131.575 91.7015 132.869 91.6588C132.997 92.9489 132.713 93.7 132.222 94.8861C134.23 95.2411 135.69 93.5729 137.117 94.8337C138.559 96.9487 140.519 96.2741 142.119 98.0306C140.216 99.2555 137.883 100.568 136.47 102.36L135.637 102.64L131.611 106.232C130.161 104.299 129.186 102.976 129.17 100.505L129.553 98.4448C129.531 97.5558 129.575 96.8339 129.087 96.0502C126.849 95.4898 125.058 97.1372 122.923 97.01C121.841 96.9453 121.74 96.7062 121.011 95.9675C120.797 95.2034 120.525 94.4725 120.669 93.6753C120.875 92.541 120.834 91.4152 120.836 90.2612Z" fill="#FDDA85"/>
<path d="M129.552 98.4453C131.685 98.766 133.257 99.098 134.634 100.95C135.032 101.485 135.367 102.033 135.635 102.641L131.61 106.232C130.159 104.3 129.184 102.976 129.168 100.506L129.552 98.4453Z" fill="#FDD792"/>
<path d="M132.221 94.8868C134.229 95.2418 135.689 93.5736 137.116 94.8344C138.558 96.9494 140.518 96.2748 142.119 98.0313C140.216 99.2562 137.883 100.569 136.47 102.36C135.384 99.7699 131.61 97.7922 131.363 95.4303L132.221 94.8868Z" fill="#FDD792"/>
<path d="M117.965 79.6963C119.739 82.6552 119.966 84.4236 119.662 87.8089L119.733 88.097L120.836 90.2615C120.834 91.4155 120.875 92.5413 120.669 93.6756C120.525 94.4728 120.797 95.2037 121.011 95.9677C121.741 96.7065 121.841 96.9456 122.923 97.0103C125.058 97.1375 126.849 95.4901 129.087 96.0505C129.575 96.8342 129.531 97.5561 129.553 98.445L129.17 100.505C129.186 102.976 130.161 104.299 131.611 106.232L129.271 108.879C122.195 117.162 116.614 126.73 114.206 137.445C111.947 137.529 109.49 137.431 107.297 137.998C104.44 137.242 103.269 134.075 101.365 132.15C100.35 131.125 99.351 131.389 98.066 131.445C95.5763 131.436 93.3004 130.376 90.8057 130.141C89.1583 129.948 87.4962 129.552 85.8657 129.236C84.7804 127.772 84.6324 127.417 84.4091 125.61L86.3294 125.081C87.4929 123.294 87.0011 120.851 87.7776 118.779L87.9289 118.386C86.3704 117.884 84.8001 116.98 83.3164 116.268C85.6356 115.879 90.2453 115.574 91.6783 113.713L91.0268 111.199C91.9321 109.71 95.084 108.82 96.6515 107.738C98.5155 106.452 98.5746 105.41 98.9842 103.338C99.2509 101.991 99.1766 101.689 100.324 100.911C101.097 101.145 101.766 101.465 102.481 101.829C103.746 101.028 103.887 100.36 104.486 99.0302C104.213 98.1328 104.223 97.0964 104.158 96.1596L105.372 95.1778L106.055 95.391L106.921 97.3141L107.488 97.3231L108.278 95.8181C108.636 94.3862 108.89 92.9897 109.819 91.7997C111.099 91.0582 112.428 90.5175 113.938 90.8292C115.602 91.1724 116.903 92.4552 117.83 93.8089L118.454 89.3517C117.775 86.5031 116.459 82.3947 117.965 79.6963Z" fill="#FEFEFE"/>
<path d="M87.9281 118.386C89.4196 119.184 91.008 119.937 92.4207 120.862C91.0862 122.749 89.0055 124.94 88.9329 127.322C89.3476 128.521 89.9401 129.227 90.8048 130.141C89.1574 129.948 87.4954 129.551 85.8649 129.236C84.7795 127.772 84.6316 127.417 84.4082 125.609L86.3285 125.081C87.492 123.294 87.0003 120.851 87.7767 118.779L87.9281 118.386Z" fill="#FFFEE3"/>
<path d="M117.759 97.3542C119.243 98.8441 120.076 100.852 120.996 102.717C122.112 101.51 123.292 99.7916 124.943 99.4152C125.808 100.013 126.578 100.516 127.564 100.89L129.168 100.505C129.184 102.976 130.159 104.299 131.61 106.232L129.27 108.878C125.97 106.519 123.92 105.42 119.983 104.351C119.045 104.096 118.348 103.886 117.641 103.176C116.493 102.025 116.924 98.8132 116.983 97.334L117.759 97.3542Z" fill="#FEF9B9"/>
<path d="M108.276 95.8181C108.635 94.3862 108.889 92.9897 109.817 91.7998C111.097 91.0582 112.426 90.5175 113.937 90.8292C115.601 91.1724 116.902 92.4552 117.829 93.8089L117.759 97.3547L116.984 97.3344C115.331 97.3592 115.92 98.0467 114.752 98.6262C113.916 99.0409 107.234 99.9884 106.379 99.8792C105.914 99.8196 104.946 99.2367 104.485 99.0302C104.212 98.1328 104.222 97.0964 104.156 96.1596L105.371 95.1778L106.053 95.3911L106.92 97.3142L107.486 97.3232L108.276 95.8181Z" fill="#FFFEE3"/>
<path d="M117.963 79.6963C119.737 82.6552 119.964 84.4236 119.66 87.8089L119.731 88.097L120.834 90.2615C120.832 91.4155 120.873 92.5413 120.667 93.6756C120.523 94.4728 120.795 95.2037 121.009 95.9678C121.739 96.7065 121.839 96.9456 122.921 97.0103C125.056 97.1375 126.847 95.4901 129.085 96.0505C129.573 96.8342 129.53 97.5561 129.551 98.445L129.168 100.505L127.564 100.89C126.578 100.516 125.808 100.013 124.942 99.4156C123.292 99.792 122.112 101.511 120.996 102.718C120.076 100.853 119.243 98.8445 117.759 97.3546L117.828 93.8089L118.452 89.3517C117.773 86.5031 116.457 82.3947 117.963 79.6963Z" fill="#FEF196"/>
<path d="M176.957 86.5078C177.846 86.2428 178.431 85.9226 179.18 85.3848C181.224 85.818 183.278 86.1959 185.341 86.5185C187.563 86.743 189.662 87.0361 191.102 88.9851C192.216 90.4811 192.199 92.5876 191.867 94.3481C191.445 96.5503 190.404 98.3749 188.531 99.6527C182.719 103.61 172.861 100.196 165.929 102.268C158.901 106.412 151.858 110.32 144.542 113.939L142.837 113.982C142.46 115.747 142.158 117.574 141.688 119.314L135.911 122.743C135.215 124.021 134.356 125.457 134.019 126.877C133.056 130.931 134.316 135.97 129.912 138.217C137.339 139.002 153.328 139.568 158.121 145.828C159.225 147.27 159.604 148.714 159.376 150.509C159.336 150.825 159.313 150.884 159.237 151.225C150.293 159.556 130.462 162.37 118.585 161.966C115.916 161.855 113.249 161.711 110.584 161.534L105.419 161.24C99.3225 159.88 92.9236 159.504 86.7543 158.234C83.3019 156.985 80.4494 155.188 77.567 152.964C77.5062 152.011 77.437 151.037 77.504 150.082C77.7234 146.933 79.9942 145.251 82.1621 143.311L85.5458 141.79L85.7562 141.305C86.1011 139.424 87.3501 137.587 86.4606 135.633C85.7275 134.022 85.5716 133.356 84.0852 132.3C85.4816 131.223 85.6318 130.925 85.8648 129.236C87.4953 129.552 89.1573 129.948 90.8047 130.141C93.2995 130.376 95.5753 131.437 98.065 131.445C99.3501 131.389 100.349 131.125 101.364 132.151C103.268 134.075 104.439 137.242 107.296 137.998C109.489 137.431 111.946 137.529 114.205 137.445C116.613 126.73 122.194 117.162 129.271 108.879L131.611 106.232L135.636 102.641L136.469 102.36C137.882 100.569 140.215 99.256 142.118 98.0312C153.869 91.6103 164.124 89.5156 176.957 86.5078Z" fill="#634849"/>
<path d="M185.342 86.5186C187.564 86.743 189.663 87.0362 191.103 88.9852C192.217 90.4812 192.2 92.5877 191.868 94.3482C191.446 96.5504 190.405 98.375 188.532 99.6528C182.72 103.61 172.862 100.196 165.929 102.268C158.902 106.412 151.859 110.32 144.543 113.939L142.838 113.982C142.461 115.747 142.159 117.574 141.689 119.314L135.912 122.743C135.216 124.021 134.357 125.458 134.019 126.877C133.057 130.931 134.317 135.97 129.913 138.217C127.949 138.103 126.019 138.053 124.122 137.483L123.379 138.521C124.252 141.55 122.352 145.087 122.773 148.31C122.989 149.967 124.23 151.328 123.786 152.933C121.888 154.104 119.204 154.323 117.031 154.739C118.934 141.006 119.884 129.703 128.183 118.037C136.549 106.276 150.526 96.6303 164.858 94.0596C169.883 93.1582 175.13 93.4497 180.177 92.5506C182.438 92.1472 184.886 91.6256 186.276 89.6311C186.405 88.0748 186.163 87.8784 185.342 86.5186Z" fill="#412B31"/>
<path d="M141.156 113.325C146.542 109.184 158.962 101.747 165.929 102.268C158.902 106.411 151.859 110.32 144.543 113.939L142.837 113.982L141.156 113.325Z" fill="#CF9B84"/>
<path d="M124.121 137.483C128.249 127.822 133.203 120.232 141.155 113.325L142.837 113.982C142.46 115.747 142.158 117.574 141.688 119.314L135.911 122.743C135.215 124.021 134.355 125.457 134.018 126.877C133.056 130.931 134.316 135.97 129.912 138.217C127.948 138.103 126.018 138.053 124.121 137.483Z" fill="#FEFEFE"/>
<path d="M85.8648 129.236C87.4953 129.552 89.1573 129.949 90.8047 130.142C93.2995 130.376 95.5753 131.437 98.065 131.445C99.3501 131.39 100.349 131.125 101.364 132.151C103.268 134.075 104.439 137.243 107.296 137.998C109.489 137.431 111.946 137.53 114.205 137.445L113.717 139.308C113.386 141.015 113.073 142.726 112.778 144.44C112.273 147.425 111.694 151.064 113.565 153.694C119.841 156.354 121.121 158.828 128.881 158.639C135.418 158.479 145.783 156.308 150.299 151.392C151.522 150.061 152.076 148.794 151.98 146.959C149.025 139.048 129.898 143.016 123.648 138.722C123.555 138.659 123.468 138.588 123.378 138.521L124.121 137.483C126.018 138.053 127.948 138.103 129.912 138.217C137.339 139.003 153.328 139.568 158.121 145.828C159.225 147.271 159.604 148.714 159.376 150.51C159.336 150.825 159.313 150.884 159.237 151.225C150.293 159.556 130.462 162.37 118.585 161.967C115.916 161.855 113.249 161.711 110.584 161.534L105.419 161.24C99.3225 159.88 92.9236 159.504 86.7543 158.235C83.3019 156.985 80.4494 155.188 77.567 152.964C77.5062 152.011 77.437 151.037 77.504 150.083C77.7234 146.933 79.9942 145.251 82.1621 143.311L85.5458 141.79L85.7562 141.305C86.1011 139.425 87.3501 137.588 86.4606 135.633C85.7275 134.022 85.5717 133.357 84.0852 132.3C85.4816 131.223 85.6318 130.925 85.8648 129.236Z" fill="#B1572F"/>
<path d="M85.8648 129.236C87.4953 129.552 89.1573 129.949 90.8047 130.142C93.2995 130.376 95.5753 131.437 98.065 131.445C99.3501 131.39 100.349 131.125 101.364 132.151C103.268 134.075 104.439 137.243 107.296 137.998C109.489 137.431 111.946 137.53 114.205 137.445L113.717 139.308C106.406 139.84 90.385 140.186 85.4175 146.42C84.6731 147.354 84.1527 148.52 84.4059 149.729C84.8149 151.677 86.6665 153.096 88.3033 154.038C96.2488 158.613 106.006 157.984 114.548 160.558L113.928 161.42L114.762 161.263L114.655 160.613L114.073 161.407L110.584 161.534L105.419 161.24C99.3225 159.88 92.9236 159.504 86.7543 158.235C83.3019 156.985 80.4494 155.188 77.567 152.964C77.5062 152.011 77.437 151.037 77.504 150.083C77.7234 146.933 79.9942 145.251 82.1621 143.311L85.5458 141.79L85.7562 141.305C86.1011 139.425 87.3501 137.588 86.4606 135.633C85.7275 134.022 85.5717 133.357 84.0852 132.3C85.4816 131.223 85.6318 130.925 85.8648 129.236Z" fill="#FDD792"/>
<path d="M98.0645 131.445C99.3496 131.389 100.349 131.125 101.363 132.15C103.267 134.074 104.438 137.242 107.295 137.998C102.84 138.462 98.3974 139.024 93.9668 139.683C94.7132 138.625 95.4432 137.557 96.1566 136.477C97.1722 134.915 98.4589 133.296 98.0645 131.445Z" fill="#CCC4C3"/>
<path d="M85.8655 129.236C87.4961 129.552 89.1581 129.949 90.8055 130.142C93.3002 130.376 95.5761 131.437 98.0658 131.445C98.4602 133.297 97.1734 134.915 96.1579 136.477C95.4444 137.557 94.7145 138.626 93.9681 139.683L85.5465 141.79L85.757 141.305C86.1018 139.425 87.3509 137.588 86.4614 135.633C85.7283 134.022 85.5724 133.357 84.0859 132.3C85.4824 131.223 85.6326 130.925 85.8655 129.236Z" fill="url(#paint2_linear_120_36698)"/>
<path d="M226.064 316.488L227.105 316.628C230.599 314.182 233.564 301.782 234.925 297.422C236.377 301.152 236.321 304.172 235.072 307.986C237.576 314.398 230.205 339.665 227.139 346.66C226.717 347.623 226.272 348.247 225.451 348.894C225.732 347.904 225.715 347.791 225.417 346.805C223.577 345.726 221.377 344.228 219.194 344.261C218.648 345.209 218.457 346.168 218.215 347.228C217.022 348.469 216.724 348.625 215.064 349.098C215.396 348.828 215.526 348.746 215.801 348.456C217.608 346.582 219.008 343.584 218.958 340.965C220.691 338.246 222.193 333.955 222.879 330.85C223.206 329.341 223.217 329.233 222.384 327.935C222.941 327.343 223.358 326.612 223.768 325.914C224.742 324.257 226.075 321.902 225.569 319.943C225.816 318.792 225.951 317.659 226.064 316.488Z" fill="#271A0C"/>
<path d="M225.57 319.943L226.735 319.383C228.108 322.414 224.94 329.859 223.798 332.914C222.993 335.05 221.598 339.858 219.443 340.782C219.285 340.85 219.122 340.904 218.959 340.965C220.692 338.246 222.194 333.955 222.881 330.85C223.207 329.341 223.218 329.233 222.385 327.935C222.943 327.344 223.359 326.612 223.77 325.914C224.743 324.258 226.076 321.902 225.57 319.943Z" fill="#412B31"/>
<path d="M203.042 218.735C213.259 223.972 226.543 253.607 229.908 264.086C231.033 267.595 233.795 274.454 232.62 278.026C234.921 281.833 236.783 291.28 235.815 295.637C235.669 296.296 235.309 296.876 234.926 297.421C233.565 301.782 230.6 314.182 227.106 316.627L226.065 316.487C226.689 314.22 226.515 311.278 226.627 308.915C227.297 294.824 225.823 280.405 220.045 267.334C218.779 264.473 217.513 261.579 214.508 260.421C212.882 254.84 210.075 247.579 205.984 243.372C206.946 242.122 207.115 242.089 207.02 240.541C207.835 240.135 208.342 240.071 208.668 239.138C209.934 235.532 205.444 228.572 203.981 225.179C203.149 223.254 202.22 220.798 203.042 218.735Z" fill="#271A0C"/>
<path d="M110.584 161.534C113.249 161.711 115.917 161.855 118.586 161.966C130.462 162.37 150.294 159.556 159.237 151.225C158.268 162.477 157.542 173.673 157.447 184.97C160.567 186.514 164.068 187.942 166.945 189.876L169.558 191.586C174.021 193.647 181.87 197.268 184.559 201.479C188.469 203.568 201.956 214.473 203.008 218.442C203.03 218.537 203.03 218.638 203.042 218.736C202.22 220.799 203.149 223.255 203.981 225.18C205.444 228.573 209.934 235.533 208.668 239.139C208.342 240.072 207.835 240.135 207.019 240.542C207.115 242.09 206.946 242.123 205.984 243.372C210.075 247.58 212.882 254.841 214.508 260.421C217.513 261.58 218.779 264.473 220.045 267.334C225.823 280.406 227.297 294.825 226.627 308.915C226.515 311.279 226.689 314.221 226.065 316.488C225.952 317.659 225.817 318.793 225.57 319.943C226.076 321.902 224.743 324.257 223.769 325.914C223.358 326.612 222.942 327.343 222.385 327.935C223.218 329.233 223.207 329.341 222.88 330.85C222.194 333.955 220.692 338.246 218.959 340.965C219.009 343.584 217.608 346.582 215.802 348.456C215.527 348.746 215.397 348.828 215.065 349.098C216.725 348.625 217.023 348.469 218.216 347.228C218.458 346.168 218.649 345.209 219.195 344.261C221.378 344.228 223.578 345.726 225.418 346.805C225.716 347.791 225.733 347.905 225.451 348.894C225.547 350.314 225.536 351.146 224.534 352.305C224.377 352.488 224.174 352.66 224 352.821C221.569 360.594 211.633 377.832 204.628 381.995C203.441 384.37 201.68 385.891 199.463 387.287C195.772 394.324 185.431 400.414 179.045 404.725C173.351 407.932 167.567 411.263 161.51 413.729C160.793 414.014 160.074 414.291 159.351 414.562C158.629 414.832 157.904 415.095 157.177 415.351C156.449 415.607 155.719 415.855 154.986 416.097C154.254 416.337 153.519 416.571 152.781 416.798C152.044 417.024 151.305 417.243 150.563 417.454C149.821 417.666 149.078 417.87 148.332 418.066C147.586 418.263 146.838 418.452 146.089 418.634C145.339 418.815 144.588 418.989 143.835 419.155C143.082 419.322 142.327 419.481 141.571 419.632C140.815 419.783 140.057 419.926 139.298 420.062C138.538 420.198 137.778 420.327 137.016 420.448C136.254 420.568 135.492 420.681 134.728 420.787C133.964 420.892 133.199 420.989 132.433 421.079C131.667 421.169 130.9 421.252 130.132 421.326C129.365 421.401 128.596 421.468 127.827 421.527C127.058 421.586 126.289 421.638 125.519 421.681C124.749 421.725 123.979 421.761 123.208 421.789C122.437 421.817 121.666 421.837 120.895 421.85C120.124 421.863 119.353 421.868 118.582 421.865C117.81 421.862 117.039 421.852 116.268 421.833C115.497 421.815 114.726 421.789 113.956 421.755C113.185 421.721 112.415 421.68 111.646 421.63C110.876 421.581 110.107 421.524 109.338 421.459C108.57 421.395 107.802 421.322 107.035 421.242C106.268 421.162 105.502 421.074 104.737 420.978C103.971 420.882 103.207 420.779 102.444 420.668C101.681 420.557 100.919 420.439 100.158 420.312C99.3971 420.186 98.6376 420.052 97.8792 419.911C97.1211 419.769 96.3645 419.62 95.6095 419.464C94.8544 419.307 94.1009 419.142 93.3488 418.971C92.5971 418.798 91.8471 418.619 91.0988 418.432C90.3505 418.245 89.6042 418.051 88.8601 417.849C79.1011 415.105 70.0083 411.1 61.2149 406.088C52.4929 400.831 44.8275 394.678 37.2758 387.889L34.0975 384.867L30.5051 381.054C8.01308 355.487 0.634655 335.678 0 302.064C0.581204 293.024 2.06318 283.983 3.93283 275.132C4.37056 272.907 5.16558 270.644 5.77379 268.452C6.08156 266.331 6.69595 264.239 7.415 262.223C20.2375 226.262 46.7523 203.081 80.4712 187.13C80.4925 185.051 80.3665 182.956 80.3007 180.878C79.89 171.768 78.8069 162.008 77.5674 152.964C80.4498 155.188 83.3023 156.985 86.7547 158.234C92.924 159.504 99.3229 159.88 105.42 161.24L110.584 161.534Z" fill="#412B31"/>
<path d="M177.16 203.679C179.332 205.3 181.194 207.425 183.214 209.246C183.237 208.751 183.259 208.252 183.315 207.76C183.456 206.588 183.389 205.871 184.345 205.101C185.375 206.669 185.358 209.401 185.048 211.256C186.309 213.039 188.042 215.018 188.464 217.187C188.255 218.034 188.137 218.321 187.462 218.934V217.637C186.404 217.626 185.774 217.507 184.812 217.058C181.65 213.139 178.539 208.557 177.16 203.679Z" fill="#412B31"/>
<path d="M185.049 211.257C185.898 211.332 187.283 211.276 187.93 211.843C193.387 217.133 200.499 231.711 203.515 238.926C205.006 239.24 205.838 239.512 207.02 240.542C207.115 242.09 206.947 242.123 205.985 243.372C210.075 247.58 212.883 254.841 214.509 260.421C216.602 265.504 219.313 272.049 217.074 277.472C217.001 277.645 216.922 277.811 216.843 277.981C219.133 270.291 199.188 238.011 194.124 229.852C192.076 226.558 188.183 222.727 187.463 218.935C188.138 218.321 188.256 218.034 188.464 217.187C188.042 215.018 186.309 213.04 185.049 211.257Z" fill="#412B31"/>
<path d="M203.514 238.926C205.005 239.24 205.837 239.512 207.019 240.542C207.115 242.09 206.946 242.123 205.984 243.372C205.742 241.639 204.526 240.28 203.514 238.926Z" fill="#412B31"/>
<path d="M169.559 191.586C174.021 193.647 181.87 197.268 184.56 201.479C188.47 203.568 201.956 214.473 203.008 218.442C203.031 218.537 203.031 218.638 203.042 218.736C202.221 220.799 203.149 223.255 203.982 225.18C205.445 228.573 209.935 235.533 208.669 239.139C208.342 240.072 207.836 240.135 207.02 240.542C205.839 239.512 205.006 239.24 203.515 238.926C200.499 231.711 193.387 217.133 187.93 211.843C188.037 210.972 187.862 210.971 187.317 210.264L187.907 209.343L187.688 209.392C188.386 209.54 188.768 209.693 189.336 210.149C191.007 211.5 192.842 213.543 193.01 215.749C193.399 213.039 193.421 211.192 191.958 208.795C186.225 201.576 175.586 198.584 169.559 191.586Z" fill="#271A0C"/>
<path d="M214.508 260.421C217.512 261.579 218.778 264.473 220.044 267.334C225.822 280.405 227.297 294.824 226.627 308.915C226.514 311.278 226.689 314.22 226.064 316.488C225.952 317.659 225.817 318.792 225.569 319.943C226.076 321.902 224.742 324.257 223.769 325.914C223.358 326.612 222.942 327.343 222.385 327.935C222.126 328.394 221.878 328.979 221.49 329.331C220.725 331.178 219.324 332.738 218.03 334.235L217.366 334.206C217.501 330.431 225.164 325.647 225.125 319.463L224.455 318.966C223.347 319.611 222.874 320.967 221.687 321.51C221.018 318.268 221.805 314.308 221.98 310.961C222.525 300.567 222.092 287.215 216.843 277.981C216.921 277.811 217 277.644 217.073 277.472C219.313 272.048 216.601 265.504 214.508 260.421Z" fill="#271A0C"/>
<path d="M86.7539 158.234C92.9232 159.504 99.3221 159.88 105.419 161.24L104.784 161.463C102.827 163.223 102.909 179.413 102.296 183.188C101.875 185.775 101.347 188.283 99.1055 189.896C97.6263 190.369 96.348 190.412 94.9572 189.609C87.5067 185.309 88.8047 165.879 86.8355 158.52C86.8096 158.424 86.7809 158.329 86.7539 158.234Z" fill="#634849"/>
<path d="M222.385 327.935C223.217 329.233 223.206 329.341 222.88 330.85C222.193 333.954 220.691 338.245 218.958 340.964C219.009 343.583 217.608 346.581 215.802 348.456C215.526 348.745 215.397 348.828 215.065 349.097C215.07 349.493 215.082 349.808 214.947 350.186C213.506 354.151 210.457 358.375 208.015 361.796C207.231 362.896 206.43 363.983 205.612 365.058C204.791 366.133 203.954 367.194 203.103 368.242C202.252 369.291 201.383 370.326 200.498 371.348C199.617 372.369 198.718 373.377 197.803 374.371C196.888 375.364 195.956 376.343 195.007 377.308C194.061 378.272 193.101 379.221 192.126 380.156C191.151 381.09 190.16 382.01 189.155 382.913C188.154 383.817 187.137 384.704 186.106 385.576C185.074 386.448 184.028 387.304 182.966 388.143C181.908 388.983 180.838 389.805 179.754 390.611C178.67 391.417 177.574 392.206 176.468 392.978C175.358 393.749 174.236 394.504 173.103 395.241C171.97 395.977 170.827 396.696 169.673 397.397C168.519 398.098 167.354 398.781 166.178 399.446C165.002 400.111 163.816 400.757 162.62 401.385C161.423 402.013 160.218 402.622 159.003 403.212C131.24 416.517 108.219 413.712 80.02 403.712C56.6981 395.443 36.361 382.482 20.5296 363.257C16.4319 358.282 12.3916 352.878 9.61328 347.04C16.8032 352.978 22.968 360.09 30.1304 366.099C52.7343 385.065 81.2387 397.019 110.945 397.188C145.12 397.384 174.476 381.199 198.343 357.603C203.249 352.751 221.456 335.215 221.49 329.33C221.878 328.979 222.126 328.393 222.385 327.935Z" fill="#412B31"/>
<path d="M5.77278 268.451C6.08055 266.33 6.69494 264.239 7.41399 262.223C20.2365 226.262 46.7513 203.081 80.4702 187.13C84.4514 192.623 88.9378 196.07 94.6351 199.601C101.203 201.294 107.593 203.598 114.179 205.232C129.411 209.01 143.865 209.92 152.723 224.892C162.05 240.658 161.338 260.845 156.884 278.023C151.091 300.365 137.581 320.783 117.414 332.528C99.3596 343.043 75.6945 347.514 55.3175 342.105C36.4933 337.109 22.7729 323.045 13.244 306.574C6.86317 295.545 3.2938 283.978 6.0721 271.231L5.77278 268.451Z" fill="#634849"/>
<path d="M5.77344 268.451C6.0812 266.33 6.6956 264.239 7.41465 262.223C20.2371 226.262 46.752 203.081 80.4708 187.13C84.452 192.623 88.9385 196.07 94.6357 199.601C103.847 207.689 116.994 216.298 117.807 229.77C118.753 245.467 105.06 268.743 94.8428 280.07C94.455 280.496 94.062 280.918 93.6641 281.336C93.2657 281.753 92.8625 282.165 92.4544 282.573C92.0463 282.981 91.6336 283.383 91.2161 283.78C90.7982 284.178 90.3756 284.57 89.9484 284.958C89.5212 285.345 89.0893 285.727 88.6527 286.104C88.2161 286.481 87.775 286.852 87.3294 287.219C86.8838 287.585 86.4338 287.945 85.9796 288.3C85.5254 288.656 85.067 289.005 84.6045 289.35C84.1416 289.694 83.6748 290.033 83.2041 290.365C82.7334 290.698 82.2585 291.026 81.7795 291.347C81.3009 291.669 80.8183 291.984 80.3318 292.294C79.8453 292.603 79.3551 292.907 78.8611 293.205C78.3675 293.503 77.8703 293.795 77.3696 294.08C76.8688 294.367 76.3645 294.646 75.8566 294.92C75.3491 295.194 74.8384 295.461 74.3246 295.722C73.8103 295.984 73.2931 296.239 72.7728 296.487C72.2526 296.736 71.7293 296.978 71.2031 297.214C70.6772 297.451 70.1483 297.68 69.6164 297.904C69.0849 298.127 68.5506 298.344 68.0135 298.554C67.4767 298.764 66.9375 298.968 66.3959 299.166C65.8539 299.363 65.3096 299.554 64.7631 299.738C64.2166 299.922 63.668 300.1 63.1174 300.271C62.5668 300.441 62.0141 300.605 61.4593 300.763C60.9046 300.92 60.3479 301.071 59.7894 301.215C59.2313 301.359 58.6712 301.497 58.1094 301.627C57.5478 301.758 56.9848 301.881 56.4203 301.998C55.8554 302.115 55.2894 302.225 54.7223 302.328C54.1548 302.431 53.5861 302.528 53.0164 302.617C52.447 302.707 51.8765 302.789 51.3048 302.865C50.7332 302.94 50.1606 303.009 49.5871 303.071C49.014 303.132 48.4401 303.187 47.8654 303.235C47.2908 303.283 46.7156 303.324 46.1398 303.358C35.1262 303.897 24.0462 300.863 15.8086 293.283C9.10481 287.114 8.37 279.481 6.07275 271.231L5.77344 268.451Z" fill="#AC826D"/>
<path d="M34.779 260.371C36.1851 260.856 37.4819 261.715 38.3405 262.942C39.8562 265.108 39.8698 267.991 39.3009 270.477C38.1903 275.33 35.8255 278.832 31.6232 281.414C29.8514 280.98 28.4038 280.22 27.3224 278.701C26.0452 276.906 25.873 274.681 26.2736 272.578C27.2712 267.339 30.4664 263.29 34.779 260.371Z" fill="#FDD792"/>
<path d="M68.868 206.041C73.463 205.721 78.8165 206.9 82.8456 209.073C87.9487 211.826 91.2519 216.278 92.8403 221.818C95.1336 229.813 93.3258 238.113 89.3136 245.231C89.1208 245.575 88.9237 245.917 88.7223 246.255C88.5209 246.594 88.3153 246.931 88.1056 247.265C87.896 247.598 87.6822 247.93 87.4643 248.258C87.2463 248.587 87.0243 248.913 86.7981 249.236C86.5723 249.558 86.3423 249.879 86.1083 250.196C85.8742 250.513 85.6364 250.828 85.3949 251.139C85.1529 251.45 84.9072 251.759 84.6578 252.064C84.4084 252.369 84.1552 252.671 83.8983 252.97C83.6413 253.27 83.3808 253.566 83.1167 253.858C82.8523 254.151 82.5845 254.44 82.3133 254.726C82.0417 255.012 81.7668 255.294 81.4885 255.573C81.2098 255.852 80.9279 256.128 80.6428 256.4C80.3574 256.672 80.0688 256.94 79.7769 257.205C79.4851 257.47 79.1899 257.731 78.8914 257.989C78.5928 258.247 78.2912 258.501 77.9866 258.751C77.682 259.001 77.3743 259.247 77.0633 259.49C76.7524 259.732 76.4386 259.97 76.1221 260.205C75.8051 260.44 75.4855 260.671 75.1633 260.897C74.8407 261.124 74.5153 261.347 74.1871 261.566C73.8593 261.784 73.5287 261.999 73.1952 262.209C72.8621 262.42 72.5262 262.626 72.1875 262.828C71.8492 263.03 71.5084 263.228 71.1652 263.422C70.8217 263.615 70.476 263.805 70.1283 263.99C69.7802 264.175 69.4298 264.356 69.0773 264.532C68.7247 264.708 68.37 264.88 68.0133 265.048C67.6562 265.216 67.2973 265.379 66.9364 265.537C66.5756 265.696 66.2129 265.85 65.8483 266C65.4837 266.15 65.1172 266.295 64.7489 266.435C64.3806 266.576 64.0105 266.712 63.6388 266.843C63.2671 266.975 62.8939 267.101 62.5192 267.223C62.1445 267.345 61.7682 267.463 61.3905 267.576C61.0128 267.688 60.6338 267.796 60.2534 267.9C54.3137 268.596 47.966 267.891 42.9597 264.368C38.6819 261.358 36.2609 256.699 35.3624 251.621C33.6334 241.845 36.9636 231.292 42.5787 223.263C48.8797 214.252 57.9956 207.982 68.868 206.041Z" fill="#F1A66C"/>
<path d="M68.373 213.48C70.6067 213.391 72.7728 213.235 74.8838 214.088C77.3802 215.097 79.3078 216.85 80.3448 219.355C82.6173 224.844 80.639 232.442 78.3592 237.61C74.5012 246.357 68.207 250.678 59.5981 254C57.5029 254.13 55.5224 254.26 53.5047 253.582C50.7203 252.647 48.2109 251.164 46.923 248.417C45.0517 244.424 45.6256 238.472 47.1098 234.446C50.4395 225.413 59.8012 217.418 68.373 213.48Z" fill="#FDD792"/>
<defs>
<linearGradient id="paint0_linear_120_36698" x1="99.094" y1="68.8403" x2="68.4514" y2="58.7721" gradientUnits="userSpaceOnUse">
<stop stop-color="#F3AA68"/>
<stop offset="1" stop-color="#FFC572"/>
</linearGradient>
<linearGradient id="paint1_linear_120_36698" x1="185.008" y1="69.4513" x2="104.79" y2="45.975" gradientUnits="userSpaceOnUse">
<stop stop-color="#D36454"/>
<stop offset="1" stop-color="#F2AB68"/>
</linearGradient>
<linearGradient id="paint2_linear_120_36698" x1="87.2356" y1="139.99" x2="92.5267" y2="129.994" gradientUnits="userSpaceOnUse">
<stop stop-color="#E9D6D7"/>
<stop offset="1" stop-color="#FEF5E8"/>
</linearGradient>
</defs>
</svg>
