<svg width="1701" height="667" viewBox="0 0 1701 667" fill="none" xmlns="http://www.w3.org/2000/svg">
<path d="M1444.24 646.712C1478.09 634.845 1515.65 629.659 1551.18 625.824C1536.07 643.356 1506.07 645.861 1484.26 647.476C1470.98 648.572 1457.69 648.796 1444.4 648.149L1444.24 646.712Z" fill="#0C2742"/>
<path d="M546.046 659.358C556.423 657.816 566.502 653.214 576.907 651.222C598.12 647.162 620.426 647.944 641.929 647.968C661.866 648.62 681.625 653.871 701.044 658.154C649.287 660.125 597.808 659.377 546.046 659.358Z" fill="#0C2742"/>
<path d="M47.0035 53.027L65.7967 48.8018C69.5323 55.2285 78.0193 57.3568 85.0952 59.1553C132.493 71.2077 182.577 63.7731 230.329 75.3596C201.585 102.805 204.384 140.041 202.879 176.86C177.198 174.695 149.923 173.447 124.747 167.816C110.941 154.242 79.9721 158.127 61.9458 156.603C55.3646 156.048 49.3751 154.08 45.3515 148.575C30.3409 128.03 42.6081 76.3648 47.0035 53.027Z" fill="url(#paint0_linear_120_42156)"/>
<path d="M346.535 9.06644C399.993 6.06642 452.823 3.55072 506.373 4.63449C516.651 6.11618 526.496 6.61101 536.876 6.5953C491.059 35.9201 440.315 56.614 397.574 90.6299C341.045 105.771 289.526 78.7475 233.625 76.093L230.324 75.3601C182.573 63.7737 132.489 71.2083 85.0906 59.1558C78.0146 57.3574 69.5276 55.2291 65.792 48.8023C106.818 35.5379 152.523 32.373 195.149 26.8546C242.77 20.6897 290.058 13.9017 337.841 8.9121L346.535 9.06644Z" fill="#EA9363"/>
<path d="M1588.56 466.883C1596.39 469.789 1603.35 471.867 1608.88 478.443L1610.21 483.407C1626.31 487.205 1654.53 490.687 1667.7 499.781C1679.48 504.702 1688.4 508.532 1695.29 519.839L1694.82 527.538L1696.28 534.627C1701.49 541.695 1700.92 549.546 1699.61 557.842C1699.45 558.828 1699.27 559.81 1699.06 560.789C1698.85 561.766 1698.61 562.738 1698.35 563.703C1698.11 564.67 1697.83 565.63 1697.51 566.582C1697.22 567.534 1696.89 568.477 1696.52 569.412C1696.17 570.349 1695.8 571.276 1695.42 572.192C1695.02 573.11 1694.59 574.017 1694.14 574.912C1693.7 575.809 1693.24 576.694 1692.75 577.567C1692.26 578.439 1691.76 579.3 1691.23 580.148C1690.71 580.996 1690.16 581.83 1689.58 582.651C1689.01 583.473 1688.41 584.279 1687.8 585.069C1687.19 585.86 1686.56 586.636 1685.92 587.397C1685.27 588.156 1684.6 588.898 1683.9 589.624C1683.22 590.352 1682.52 591.062 1681.81 591.753C1681.07 592.444 1680.33 593.118 1679.58 593.774C1678.83 594.428 1678.06 595.063 1677.28 595.679C1676.49 596.297 1675.69 596.894 1674.87 597.47C1642.23 620.837 1589.82 619.737 1551.18 625.824C1515.65 629.659 1478.09 634.845 1444.24 646.711L1439.32 644.63C1431.62 631.198 1436.96 608.776 1433.27 593.172C1430.79 582.635 1425.92 577.473 1417.04 571.907C1416.86 569.53 1415.97 567.02 1415.37 564.7C1404.87 551.771 1387.7 549.409 1372.36 545.404C1421.7 528.744 1478.43 532.988 1526.68 514.331C1532.36 512.132 1535.42 510.653 1537.88 504.946L1540.21 504.846C1550.05 504.399 1569.01 503.967 1575.71 495.812C1578.93 491.899 1578.22 490.412 1577.8 485.663C1583.27 480.056 1585.63 474.001 1588.56 466.883Z" fill="#483241"/>
<path d="M1588.56 466.883C1596.39 469.789 1603.35 471.867 1608.88 478.443L1610.21 483.407C1626.31 487.205 1654.53 490.687 1667.7 499.781C1679.48 504.702 1688.4 508.532 1695.29 519.839L1694.82 527.538C1683.4 523.967 1675 519.799 1662.46 519.983C1643.74 520.255 1621.28 528.279 1602.99 533.012C1543.95 548.284 1478.06 571.323 1417.04 571.907C1416.86 569.53 1415.97 567.02 1415.37 564.7C1404.87 551.771 1387.7 549.409 1372.36 545.404C1421.7 528.744 1478.43 532.988 1526.68 514.331C1532.36 512.132 1535.42 510.653 1537.88 504.946L1540.21 504.846C1550.05 504.399 1569.01 503.967 1575.71 495.812C1578.93 491.899 1578.22 490.412 1577.8 485.663C1583.27 480.056 1585.63 474.001 1588.56 466.883Z" fill="#5B475B"/>
<path d="M1588.56 466.883C1596.39 469.789 1603.35 471.867 1608.88 478.443L1610.21 483.407L1608.46 488.713C1599.87 491.807 1586.76 487.362 1577.8 485.663C1583.28 480.056 1585.63 474.001 1588.56 466.883Z" fill="#25658D"/>
<path d="M161.205 405.613C235.046 427.608 310.832 421.676 383.036 452.359L383.9 453.377C373.172 460.582 362.261 467.223 351.112 473.741L361 479.43C367.553 481.28 374.188 482.761 380.905 483.872C387.623 484.982 394.381 485.717 401.18 486.077L395.447 493.535C379.887 492.708 364.562 495.71 349.319 494.996C349.151 505.498 348.884 515.305 346.426 525.548C344.285 531.252 342.45 538.572 338.858 543.47C330.67 545.653 322.321 547.601 314.23 550.098C306.067 554.954 295.444 563.286 286.428 565.713L270.774 580.472C270.033 586.381 270.303 589.302 273.329 594.478C275.939 596.316 278.303 598.166 281.266 599.402C285.07 613.577 286.614 627.648 287.334 642.282C382.646 636.195 475.54 642.816 570.697 645.714C589.208 646.279 625.93 642.182 641.928 647.968C620.425 647.944 598.119 647.161 576.907 651.222C566.501 653.214 556.422 657.816 546.045 659.358C459.148 659.138 372.268 657.767 285.405 655.245C203.446 656.392 118.569 646.763 43.9558 611.059C31.0447 608.093 18.2383 604.551 5.41618 601.216C1.48161 577.603 0.405762 552.676 0 528.742L3.15707 528.904C26.8326 513.483 54.3092 505.359 77.9297 490.383L84.7309 470.645C90.3095 454.409 85.3906 442.681 99.5582 430.369C120.283 422.587 141.192 415.115 161.205 405.613Z" fill="#322D37"/>
<path d="M43.9561 611.058C101.412 602.354 223.3 607.317 271.973 642.38C276.934 645.953 281.374 650.655 285.405 655.244C203.446 656.391 118.569 646.762 43.9561 611.058Z" fill="#0C2742"/>
<path d="M77.927 490.382C122.299 529.006 267.268 505.953 328.07 528.288C321.902 534.71 314.486 540.553 314.227 550.097C306.064 554.953 295.441 563.286 286.426 565.713C243.637 562.375 199.582 552.464 156.896 546.302C105.754 538.919 54.4687 534.629 3.1543 528.904C26.8298 513.482 54.3064 505.359 77.927 490.382Z" fill="#5B475B"/>
<path d="M161.21 405.613C235.051 427.608 310.836 421.676 383.041 452.359L383.905 453.377C373.177 460.582 362.266 467.223 351.117 473.741L361.004 479.43C367.558 481.28 374.193 482.761 380.91 483.872C387.628 484.982 394.386 485.717 401.185 486.077L395.452 493.535C379.892 492.708 364.567 495.71 349.324 494.995C349.156 505.498 348.889 515.305 346.431 525.548C344.29 531.252 342.455 538.572 338.863 543.47C330.674 545.653 322.326 547.601 314.234 550.098C314.494 540.553 321.91 534.71 328.078 528.289C267.276 505.954 122.307 529.006 77.9346 490.383L84.7357 470.645C90.3143 454.409 85.3954 442.681 99.563 430.369C120.288 422.587 141.197 415.115 161.21 405.613Z" fill="#322D37"/>
<path d="M328.077 528.289C329.978 519.629 331.672 506.911 337.556 499.935C341.509 495.252 343.522 495.72 349.324 494.995C349.156 505.498 348.889 515.304 346.431 525.548C344.29 531.252 342.454 538.571 338.863 543.469C330.674 545.653 322.326 547.6 314.234 550.098C314.494 540.553 321.91 534.71 328.077 528.289Z" fill="#0C2742"/>
<path d="M161.21 405.613C235.05 427.608 310.836 421.676 383.041 452.359L383.905 453.377C373.177 460.582 362.266 467.223 351.116 473.741C306.202 450.493 245.872 457.773 196.689 452.199C163.144 448.398 131.649 440.684 99.5625 430.369C120.288 422.587 141.196 415.115 161.21 405.613Z" fill="url(#paint1_linear_120_42156)"/>
<path d="M233.626 76.0923C289.527 78.7467 341.045 105.771 397.575 90.6291L401.072 99.137L419.659 117.36C417.488 144.451 418.611 174.543 410.8 200.617L408.729 211.033L402.873 228.339C396.821 254.549 394.069 284.507 396.234 311.358C394.289 342.4 382.575 384.919 391.297 414.723C394.509 425.702 400.952 436.377 405.302 447.019C398.959 451.427 390.538 451.44 383.033 452.359C310.828 421.676 235.042 427.608 161.202 405.613C159.974 390.118 159.246 374.547 158.283 359.029L158.12 357.22C160.704 297.672 153.039 248.41 132.707 192.598L124.743 167.815C149.919 173.446 177.194 174.695 202.874 176.86C204.38 140.04 201.581 102.805 230.325 75.3594L233.626 76.0923Z" fill="#322D37"/>
<path d="M299.265 267.693C325.64 273.724 351.396 280.552 377.279 288.439C377.271 303.604 377.815 320.479 366.362 332.136C359.268 339.356 348.682 341.78 338.86 341.29C331.344 340.916 323.592 339.34 316.192 338.039L298.755 332.688C291.527 323.489 294.959 295.143 296.488 283.324C297.184 278.073 298.11 272.862 299.265 267.693Z" fill="#483241"/>
<path d="M298.753 332.688L316.19 338.039L314.407 341.843L372.473 352.084L372.578 416.464C348.127 413.815 318.666 413.265 295.724 404.438L292.475 403.514C286.763 396.765 288.444 385.66 288.499 376.99C288.904 363.749 290.897 350.359 292.292 337.183L298.753 332.688Z" fill="#483241"/>
<path d="M298.753 332.688L316.19 338.039L314.407 341.843C306.63 344.44 300.512 346.662 296.318 354.374C288.449 368.851 295.708 388.875 295.724 404.438L292.475 403.514C286.763 396.765 288.444 385.66 288.499 376.99C288.904 363.749 290.897 350.359 292.292 337.183L298.753 332.688Z" fill="#0C2742"/>
<path d="M230.325 75.3594L233.626 76.0923C238.225 112.391 236.723 145.336 234.574 181.674C274.548 194.182 326.917 214.373 366.755 192.483C371.289 189.991 375.598 186.986 379.823 184.001C390.263 188.831 401.936 193.185 410.8 200.617L408.729 211.033L402.873 228.339C373.627 222.025 342.983 223.004 313.401 218.363C289.173 214.562 265.849 205.64 241.503 202.661C232.283 201.533 220.998 199.889 213.191 206.009C212.513 210.397 211.953 213.941 209.825 217.868C205.026 215.159 204.657 204.525 200.874 199.132C179.937 191.028 154.872 192.881 132.707 192.598L124.743 167.815C149.919 173.446 177.194 174.695 202.874 176.86C204.38 140.04 201.581 102.805 230.325 75.3594Z" fill="#0C2742"/>
<path d="M214.862 264.873C241.124 264.711 267.291 266.109 293.511 267.402C294.504 290.465 292.179 313.999 292.286 337.183C290.891 350.358 288.899 363.748 288.493 376.989C286.098 381.222 286.54 391.612 285.485 396.819C283.242 398.628 280.925 400.479 278.38 401.856C271.653 405.502 264.173 405.419 256.982 403.366C235.807 397.316 224.995 382.185 215.568 363.916L214.529 367.565C216.935 373.416 214.885 386.46 214.658 393.123L177.464 386.696C177.448 371.667 171.545 342.164 182.361 330.505C184.717 329.897 187.681 328.586 190.04 329.156C203.194 332.34 207.765 339.766 214.469 350.672L212.689 350.392L217.838 348.324C218.26 336.468 227.215 337.17 232.401 328.829C227.215 323.68 219.482 317.345 217.82 310.02C214.406 294.989 214.767 280.185 214.862 264.873Z" fill="#483241"/>
<path d="M233.63 76.0918C289.531 78.7463 341.049 105.77 397.579 90.6286L401.076 99.1365L419.663 117.359C417.492 144.451 418.615 174.543 410.804 200.616C401.94 193.184 390.267 188.831 379.827 184.001C375.602 186.985 371.293 189.99 366.759 192.483C326.921 214.373 274.552 194.182 234.578 181.674C236.727 145.336 238.229 112.39 233.63 76.0918Z" fill="url(#paint2_linear_120_42156)"/>
<path d="M401.072 99.1367L419.659 117.359C417.489 144.451 418.612 174.543 410.8 200.616C401.936 193.184 390.263 188.831 379.824 184.001C376.177 167.252 371.873 147.271 376.015 130.278C379.74 114.993 388.18 107.239 401.072 99.1367Z" fill="#322D37"/>
<path d="M739.631 476.778C766.917 485.388 812.307 476.346 833.564 487.383L835.744 488.501C865.957 482.791 905.112 483.462 935.68 487.087C940.253 487.831 945.622 488.074 949.724 490.242C1018.74 490.875 1086.99 487.15 1156.04 490.697C1181.83 489.778 1272.45 498.299 1290.78 485.535L1317.38 485.619L1317.98 490.011C1325.33 490.742 1333 490.786 1339.16 495.307C1341.7 500.341 1341.98 501.25 1341.51 506.844C1346.54 511.192 1350.05 513.998 1351.62 520.813C1351.3 531.438 1344.16 538.883 1337.06 546.082C1344.37 547.093 1351.7 548.001 1358.97 549.229C1364 548.603 1367.79 547.674 1372.35 545.404C1387.69 549.41 1404.86 551.771 1415.36 564.7C1415.96 567.02 1416.85 569.53 1417.04 571.907C1425.91 577.473 1430.78 582.635 1433.27 593.172C1436.96 608.776 1431.62 631.198 1439.31 644.63L1444.24 646.711L1444.39 648.149C1346.15 680.24 1236.67 662.444 1135.2 658.772C1088.72 657.088 1042.09 658.944 995.539 657.531C897.271 663.264 799.268 667.4 701.04 658.154C681.621 653.871 661.861 648.62 641.924 647.968C625.926 642.182 589.204 646.279 570.693 645.714C475.536 642.816 382.642 636.195 287.33 642.282C286.61 627.648 285.066 613.578 281.262 599.402C278.299 598.166 275.935 596.316 273.325 594.478C270.299 589.303 270.029 586.381 270.77 580.473L286.424 565.713C295.44 563.287 306.063 554.954 314.226 550.098C322.317 547.601 330.666 545.653 338.854 543.47C342.446 538.572 344.281 531.252 346.422 525.548C348.88 515.305 349.147 505.498 349.315 494.996C364.558 495.71 379.883 492.708 395.443 493.535L401.176 486.077C450.145 484.221 499.834 490.532 548.499 485.244C552.69 482.511 556.52 479.145 560.423 476.011C619.746 478.993 680.23 478.174 739.631 476.778Z" fill="#6D3F3F"/>
<path d="M591.243 589.842L622.238 593.279C621.691 593.717 621.164 594.177 620.596 594.586C597.565 611.191 469.326 600.431 437.878 593.724C472.287 592.203 510.247 597.855 543.818 590.895C559.478 590.607 575.659 591.128 591.243 589.842Z" fill="#483241"/>
<path d="M1235.26 592.41L1293.64 593.224L1298.56 595.884L1297.72 599.685C1296.31 600.528 1295.49 601.104 1294.03 601.711C1273.22 610.389 1223.77 609.559 1202.17 605.512C1188.53 602.959 1175.52 597.585 1162.48 593.012C1186.72 591.871 1210.99 594.027 1235.26 592.41Z" fill="#322D37"/>
<path d="M1358.98 549.229C1364.01 548.604 1367.8 547.674 1372.36 545.405C1387.7 549.41 1404.87 551.771 1415.37 564.701C1415.97 567.02 1416.86 569.531 1417.04 571.908C1425.92 577.473 1430.79 582.635 1433.27 593.172C1436.97 608.777 1431.62 631.199 1439.32 644.631L1444.24 646.712L1444.4 648.149C1346.15 680.241 1236.68 662.445 1135.21 658.772C1088.73 657.089 1042.1 658.945 995.546 657.531C1078.7 644.345 1159.63 640.806 1243.67 641.335C1290.66 641.628 1342.28 650.481 1388.33 641.275C1392.78 640.259 1399.71 638.102 1403.43 635.403C1408.82 631.46 1408.95 629.039 1409.5 622.929C1403.22 607.955 1386.07 599.355 1372.99 590.926C1377.33 590.405 1383.25 590.225 1386.99 587.892C1391.23 585.264 1390.71 583.031 1391.34 578.497C1392.12 577.591 1392.38 577.355 1393.04 576.162C1395.63 571.429 1394.56 569.389 1393.19 564.614C1384.5 554.14 1371.76 551.646 1358.98 549.229Z" fill="#232125"/>
<path d="M1391.34 578.497C1403.3 582.036 1411.81 588.481 1417.67 599.712C1421.78 607.56 1423.27 617.105 1420 625.544C1417.67 631.589 1412.93 636.264 1406.99 638.804C1401.18 641.301 1394.56 641.162 1388.32 641.275C1392.78 640.259 1399.71 638.102 1403.43 635.403C1408.82 631.461 1408.95 629.039 1409.5 622.929C1403.22 607.955 1386.07 599.356 1372.98 590.926C1377.33 590.405 1383.25 590.225 1386.99 587.892C1391.23 585.264 1390.71 583.031 1391.34 578.497Z" fill="#322D37"/>
<path d="M928.768 548.16C955.133 548.172 981.463 549.144 1007.76 551.074C1017.52 556.202 1027.39 559.427 1037.91 562.644L1011.7 577.511C1016.54 580.76 1022.68 583.383 1024.99 588.763L1024.37 590.118L983.044 590.008C901.404 597.679 816.168 600.197 734.639 590.684C721.584 591.472 708.191 590.603 695.105 590.352C694.039 588.752 694.05 587.1 693.762 585.231C705.715 568.93 752.817 559.152 771.482 553.786C815.862 557.207 856.391 559.964 900.582 552.796C909.978 550.613 919.185 549.215 928.768 548.16Z" fill="#EFAD73"/>
<path d="M928.768 548.16C955.133 548.172 981.463 549.144 1007.76 551.074C1017.52 556.202 1027.39 559.427 1037.91 562.644L1011.7 577.511C1016.54 580.76 1022.68 583.383 1024.99 588.763L1024.37 590.118L983.044 590.008C953.714 567.487 876.203 561.089 839.941 560.966C807.304 560.856 758.417 567.231 734.639 590.684C721.584 591.472 708.191 590.603 695.105 590.352C694.039 588.752 694.05 587.1 693.762 585.231C705.715 568.93 752.817 559.152 771.482 553.786C815.862 557.207 856.391 559.964 900.582 552.796C909.978 550.613 919.185 549.215 928.768 548.16Z" fill="#EA9363"/>
<path d="M928.77 548.16C955.135 548.172 981.464 549.144 1007.76 551.074C1017.52 556.202 1027.39 559.427 1037.91 562.644L1011.71 577.511C977.09 560.05 939.084 553.456 900.584 552.796C909.979 550.613 919.186 549.215 928.77 548.16Z" fill="#CA7864"/>
<path d="M1337.07 546.082C1344.37 547.093 1351.7 548.001 1358.98 549.229C1371.75 551.645 1384.5 554.14 1393.19 564.614C1394.55 569.388 1395.63 571.428 1393.04 576.161C1392.38 577.354 1392.12 577.59 1391.33 578.496C1390.71 583.03 1391.23 585.263 1386.99 587.891C1383.25 590.224 1377.33 590.404 1372.98 590.925C1346.53 591.367 1320.08 592.133 1293.64 593.224L1235.26 592.409C1211.28 585.098 1062.3 590.789 1024.38 590.119L1025 588.763C1022.68 583.383 1016.54 580.76 1011.71 577.511L1037.91 562.645C1027.39 559.428 1017.52 556.202 1007.76 551.074L1019.31 550.695C1128.19 552.448 1227.77 552.752 1337.07 546.082Z" fill="url(#paint3_linear_120_42156)"/>
<path d="M1290.78 485.534L1317.38 485.618L1317.98 490.011C1325.34 490.741 1333.01 490.786 1339.16 495.307C1341.7 500.341 1341.99 501.249 1341.52 506.843C1346.54 511.191 1350.05 513.998 1351.62 520.812C1351.31 531.438 1344.16 538.883 1337.07 546.082C1227.77 552.752 1128.19 552.448 1019.31 550.694L1007.76 551.074C981.465 549.144 955.136 548.173 928.771 548.16C919.187 549.215 909.98 550.613 900.585 552.796C856.394 559.964 815.865 557.207 771.485 553.786L745.626 550.697C744.95 549.851 744.639 549.427 743.833 548.595C731.67 536.053 700.387 537.762 684.146 537.254C684.783 524.911 684.743 512.487 684.971 500.126C721.521 503.027 772.548 512.521 805.723 494.765L805.422 490.88C815.53 490.354 825.658 489.309 835.749 488.5C865.962 482.791 905.117 483.461 935.685 487.087C940.258 487.83 945.627 488.074 949.729 490.241C1018.75 490.875 1086.99 487.149 1156.04 490.697C1181.83 489.778 1272.46 498.299 1290.78 485.534Z" fill="#974F2F"/>
<path d="M928.773 548.16C953.999 527.765 1025.18 538.05 1056.02 539.561C1061.85 540.534 1072.85 540.699 1076.93 544.621C1058.64 550.357 1037.74 545.637 1019.31 550.694L1007.76 551.074C981.468 549.144 955.138 548.172 928.773 548.16Z" fill="#322D37"/>
<path d="M1290.78 485.535L1317.38 485.619L1317.98 490.011C1325.34 490.742 1333.01 490.786 1339.16 495.307C1341.7 500.341 1341.99 501.249 1341.52 506.844C1346.54 511.192 1350.05 513.998 1351.62 520.812C1351.31 531.438 1344.16 538.883 1337.07 546.082C1227.77 552.752 1128.19 552.449 1019.31 550.695C1037.74 545.637 1058.64 550.357 1076.93 544.622C1072.85 540.7 1061.85 540.535 1056.02 539.561C1079.66 540.802 1117.4 539.168 1136.7 523.977C1141.38 520.291 1142.12 519.192 1142.88 513.38C1117.82 475.247 983.186 517.805 949.728 490.242C1018.74 490.875 1086.99 487.15 1156.04 490.697C1181.83 489.778 1272.46 498.299 1290.78 485.535Z" fill="#6D3F3F"/>
<path d="M1290.79 485.535L1317.38 485.619L1317.99 490.011C1314.58 492.037 1309.92 492.708 1306.05 493.485C1272.02 500.318 1186.15 510.917 1156.05 490.697C1181.83 489.778 1272.46 498.299 1290.79 485.535Z" fill="#483241"/>
<path d="M739.631 476.778C766.917 485.388 812.307 476.346 833.564 487.383L835.745 488.501C825.653 489.31 815.525 490.354 805.417 490.88L805.718 494.765C772.543 512.522 721.516 503.027 684.966 500.127C684.738 512.488 684.778 524.912 684.142 537.255C700.382 537.763 731.665 536.053 743.828 548.595C744.634 549.428 744.945 549.852 745.621 550.698L771.48 553.787C752.815 559.153 705.712 568.931 693.759 585.232C694.047 587.101 694.037 588.753 695.102 590.352C670.935 589.753 646.382 592.017 622.235 593.279L591.24 589.842C575.657 591.127 559.476 590.606 543.816 590.894C495.406 590.36 446.995 590.33 398.585 590.805C369.519 612.811 311.095 584.138 281.262 599.402C278.299 598.166 275.935 596.316 273.325 594.478C270.299 589.303 270.029 586.381 270.77 580.473L286.424 565.713C295.44 563.287 306.063 554.954 314.226 550.098C322.317 547.601 330.666 545.653 338.854 543.47C342.446 538.572 344.281 531.253 346.422 525.548C348.88 515.305 349.147 505.498 349.315 494.996C364.558 495.71 379.883 492.708 395.443 493.535L401.176 486.077C450.145 484.221 499.834 490.532 548.499 485.244C552.69 482.511 556.52 479.145 560.423 476.011C619.746 478.993 680.231 478.174 739.631 476.778Z" fill="#6D3F3F"/>
<path d="M605.485 553.544C628.983 551.224 652.08 550.727 675.682 551.046C655.056 562.641 633.224 568.968 610.548 575.258C606.318 570.578 599.318 567.928 594.255 563.824C596.716 558.106 600.438 556.779 605.485 553.544Z" fill="#AE6766"/>
<path d="M401.181 486.076C450.15 484.22 499.839 490.532 548.504 485.244L568.104 488.676C523.507 516.896 444.365 504.513 395.448 493.534L401.181 486.076Z" fill="#483241"/>
<path d="M739.64 476.778C766.925 485.388 812.316 476.346 833.572 487.383L835.753 488.501C825.661 489.31 815.533 490.354 805.426 490.88C762.386 489.517 719.344 490.65 676.297 490.252C640.252 489.917 604.139 487.852 568.107 488.676L548.508 485.244C552.699 482.511 556.529 479.145 560.432 476.011C619.754 478.993 680.239 478.174 739.64 476.778Z" fill="#CA7864"/>
<path d="M745.627 550.698L771.485 553.787C752.82 559.154 705.718 568.931 693.765 585.233C694.053 587.102 694.043 588.753 695.108 590.353C670.94 589.753 646.388 592.018 622.241 593.28L591.246 589.842C596.581 583.256 603.38 579.544 610.552 575.259C633.228 568.968 655.061 562.641 675.686 551.046L745.627 550.698Z" fill="#CA7864"/>
<path d="M346.422 525.548C387.593 552.863 501.397 521.32 533.038 546.046C554.824 555.305 582.128 553.412 605.484 553.543C600.437 556.779 596.714 558.106 594.254 563.823C599.316 567.928 606.316 570.577 610.547 575.258C603.374 579.543 596.576 583.255 591.24 589.842C575.657 591.127 559.476 590.606 543.816 590.894C495.406 590.36 446.995 590.331 398.585 590.805C369.519 612.811 311.095 584.138 281.262 599.402C278.299 598.167 275.935 596.316 273.325 594.478C270.299 589.303 270.029 586.381 270.77 580.473L286.424 565.713C295.44 563.287 306.063 554.954 314.226 550.098C322.317 547.601 330.666 545.653 338.854 543.47C342.446 538.572 344.281 531.253 346.422 525.548Z" fill="url(#paint4_linear_120_42156)"/>
<path d="M281.262 599.403C278.299 598.167 275.935 596.316 273.325 594.479C270.299 589.303 270.029 586.382 270.77 580.473C313.464 585.874 355.464 590.431 398.585 590.806C369.519 612.811 311.095 584.138 281.262 599.403Z" fill="#483241"/>
<path d="M346.429 525.548C387.6 552.863 501.404 521.32 533.046 546.046C505.37 546.64 477.26 544.483 449.553 543.813C412.658 543.26 375.76 543.145 338.861 543.47C342.453 538.572 344.288 531.253 346.429 525.548Z" fill="#322D37"/>
<path d="M506.376 4.63276C564.771 5.02281 623.094 1.00447 681.503 0.617033C702.086 0.480907 724.927 -1.31494 745.239 1.93377C751.636 5.60657 757.181 9.38682 762.841 14.1382L763.275 18.3685C759.671 21.7297 756.89 23.2037 752.173 24.6016C794.103 30.0205 835.216 32.9655 877.572 31.8896C939.732 30.3111 1105.6 12.2663 1155.68 27.1224C1174.34 32.2167 1185.94 40.5493 1200.52 52.6227C1213.48 56.7719 1235.91 62.0887 1242.77 74.9815C1244.5 78.2537 1244.24 79.8558 1243.87 83.3505C1254.29 87.1071 1264.47 91.9004 1269.55 102.346C1269.5 107.806 1269.29 108.712 1266.41 113.346C1277.38 135.914 1287.61 161.634 1278.74 186.901C1275.18 197.061 1268.14 203.993 1258.42 208.456C1249.52 212.553 1239.97 213.561 1230.26 213.844C1223.56 217.325 1217.51 220.681 1211.54 225.399L1215.68 232.815C1249.16 255.056 1359.71 232.883 1396.02 219.935C1414.73 213.268 1430.62 200.935 1450.02 195.621C1480.26 187.341 1513.45 185.029 1544.58 181.095C1548.69 186.833 1549.5 187.914 1550 194.888C1554.21 198.432 1558.58 200.825 1559.13 206.815C1560 216.388 1558.11 263.841 1554.32 271.496C1554.29 276.415 1553.71 278.985 1551.39 283.341C1552.85 294.197 1543.51 303.624 1547.56 313.577C1552.93 319.26 1555.13 324.297 1554.89 332.158C1554.71 338.792 1553.19 345.509 1548.98 350.742C1547.56 357.682 1542.96 360.664 1540.47 366.858C1538.87 370.797 1538.95 374.816 1537.75 378.74L1539.16 387.041C1537.3 389.483 1535.55 391.941 1533.35 394.091C1552.33 400.049 1578.9 407.017 1588.37 426.292C1588.58 426.716 1588.74 427.164 1588.92 427.601L1588.69 430.193C1592.09 433.554 1596.91 437.261 1598.4 441.882C1600.76 448.764 1601.12 449.871 1599.4 456.874C1595.91 460.397 1592.56 463.921 1588.56 466.882C1585.63 474 1583.27 480.055 1577.8 485.662C1578.22 490.411 1578.92 491.898 1575.7 495.811C1569 503.966 1550.05 504.398 1540.21 504.845L1537.88 504.945C1535.42 510.652 1532.35 512.131 1526.67 514.33C1478.43 532.987 1421.7 528.743 1372.35 545.403C1367.8 547.673 1364 548.602 1358.98 549.228C1351.7 548 1344.37 547.092 1337.06 546.081C1344.16 538.882 1351.31 531.437 1351.62 520.811C1350.05 513.997 1346.54 511.191 1341.51 506.843C1341.99 501.248 1341.7 500.34 1339.16 495.306C1333.01 490.785 1325.34 490.741 1317.98 490.01L1317.38 485.617L1290.78 485.534C1272.46 498.298 1181.83 489.777 1156.04 490.696C1086.99 487.149 1018.74 490.874 949.727 490.241C945.625 488.073 940.255 487.829 935.682 487.086C905.114 483.46 865.959 482.79 835.747 488.5L833.566 487.382C812.31 476.345 766.919 485.387 739.634 476.777C680.233 478.172 619.748 478.992 560.426 476.01C556.523 479.144 552.693 482.51 548.502 485.243C499.836 490.531 450.148 484.22 401.179 486.076C394.379 485.716 387.621 484.981 380.904 483.871C374.187 482.76 367.551 481.279 360.998 479.429L351.11 473.74C362.26 467.222 373.171 460.581 383.899 453.376L383.035 452.358C390.54 451.439 398.962 451.426 405.304 447.018C400.954 436.376 394.511 425.701 391.299 414.722C382.577 384.918 394.291 342.399 396.236 311.357C394.071 284.506 396.823 254.548 402.875 228.338L408.731 211.032L410.802 200.616C418.613 174.542 417.49 144.45 419.661 117.359L401.074 99.1361L397.577 90.6282C440.318 56.6122 491.062 35.9184 536.879 6.59356C526.499 6.60927 516.653 6.11444 506.376 4.63276Z" fill="#6D3F3F"/>
<path d="M383.899 453.377L659.447 462.641C704.128 463.898 751.351 461.299 795.629 466.707C776.851 469.204 757.754 471.034 739.634 476.778C680.233 478.173 619.748 478.992 560.426 476.011C556.523 479.144 552.693 482.511 548.502 485.244C499.836 490.532 450.148 484.22 401.179 486.076C394.379 485.717 387.621 484.982 380.904 483.872C374.187 482.76 367.551 481.279 360.998 479.43L351.11 473.741C362.26 467.223 373.171 460.581 383.899 453.377Z" fill="#915554"/>
<path d="M360.998 479.431C361.278 479.237 361.561 479.049 361.838 478.852C362.213 478.585 362.569 478.295 362.951 478.038C386.77 462.075 530.91 470.292 560.426 476.012C556.523 479.146 552.693 482.512 548.502 485.245C499.837 490.533 450.148 484.222 401.179 486.078C394.38 485.718 387.621 484.983 380.904 483.873C374.187 482.762 367.551 481.281 360.998 479.431Z" fill="#AE6766"/>
<path d="M481.73 299.138L493.563 307.447C492.367 327.007 484.317 362.625 499.183 378.125C507.66 386.96 533.985 388.078 546.315 388.968C621.247 394.392 698.52 390.531 773.732 390.981C887.715 391.667 1002.35 394.953 1116.28 391.767C1142.45 391.036 1186.62 393.675 1205.6 373.858C1206.04 373.395 1206.49 372.924 1206.93 372.455C1207.93 379.607 1206.67 385.696 1202.35 391.536C1199.29 395.704 1195.52 399.563 1191.59 402.919C1194.39 417.924 1195.83 436.489 1205.28 448.83L1209.81 451.301L1207.35 457.113C1213.58 461.644 1220.86 459.236 1228.21 460.534C1212.11 471.741 1124.55 461.424 1103.16 459.869C1121.8 445.343 1151.83 463.233 1171.59 450.246C1177.17 446.597 1180.15 440.843 1181.3 434.39C1182.38 428.309 1181.56 422.139 1177.48 417.319C1168.76 406.992 1151.67 404.298 1139 403.322C1076.32 398.497 1012.86 405.979 950.11 406.502C794.552 407.801 638.017 409.994 482.615 403.589C478.435 367.68 476.099 334.96 481.73 299.138Z" fill="#483241"/>
<path d="M1209.81 451.302C1227.51 451.166 1245.28 449.868 1262.95 448.933C1269.21 449.821 1278.27 449.92 1283.82 452.834C1297.75 453.933 1315.76 454.041 1325.99 465.203C1328.69 468.166 1329.71 471.797 1330.49 475.637L1328.4 476.158C1325.1 480.889 1322.64 483.179 1317.38 485.619L1290.78 485.535C1272.46 498.3 1181.83 489.779 1156.04 490.698C1086.99 487.151 1018.74 490.876 949.728 490.242C945.626 488.075 940.256 487.831 935.683 487.088C905.115 483.462 865.96 482.792 835.748 488.501L833.567 487.384C812.31 476.347 766.92 485.389 739.635 476.779C757.755 471.035 776.852 469.206 795.63 466.708L797.159 466.808C824.8 461.734 859.528 464.899 887.903 464.292C959.648 462.447 1031.4 460.973 1103.16 459.87C1124.55 461.425 1212.12 471.742 1228.22 460.535C1220.86 459.237 1213.58 461.645 1207.35 457.114L1209.81 451.302Z" fill="#AE6766"/>
<path d="M935.686 487.088C949.214 479.729 1262.22 474.014 1289.84 481.467L1290.78 485.535C1272.46 498.3 1181.83 489.779 1156.05 490.698C1086.99 487.151 1018.75 490.876 949.73 490.242C945.628 488.075 940.259 487.831 935.686 487.088Z" fill="#CA7864"/>
<path d="M1209.81 451.302C1227.51 451.166 1245.28 449.868 1262.95 448.933C1269.21 449.821 1278.27 449.92 1283.82 452.834C1297.74 453.933 1315.76 454.041 1325.99 465.203C1328.69 468.166 1329.71 471.797 1330.49 475.637L1328.4 476.158C1322.46 469.897 1308.37 469.253 1300.1 468.857C1230.89 465.538 1159.31 469.473 1089.92 470.268C991.924 471.391 895.086 470.109 797.158 466.808C824.8 461.734 859.528 464.899 887.902 464.292C959.648 462.447 1031.4 460.973 1103.16 459.87C1124.55 461.425 1212.12 471.742 1228.22 460.535C1220.86 459.237 1213.58 461.645 1207.35 457.114L1209.81 451.302Z" fill="#915554"/>
<path d="M1209.82 451.302C1227.51 451.166 1245.29 449.868 1262.96 448.933C1269.22 449.821 1278.27 449.92 1283.82 452.834C1264.61 452.896 1246.62 461.402 1228.22 460.535C1220.86 459.237 1213.59 461.645 1207.36 457.114L1209.82 451.302Z" fill="#322D37"/>
<path d="M1184.63 172.205C1185.76 171.577 1186.1 171.441 1187.17 170.457C1191.83 166.069 1191.12 161.608 1191.52 155.697C1200.94 162.244 1208.87 167.242 1211.02 179.318C1211.88 184.205 1212.41 189.904 1211.46 194.805C1212.67 201.355 1213.22 205.878 1218.56 210.475C1222.35 211.784 1226.26 213.538 1230.26 213.844C1223.56 217.326 1217.51 220.682 1211.54 225.399C1213.09 246.729 1218.66 285.79 1208.17 304.688C1226.99 301.052 1270.73 289.015 1287.75 301.23C1292.25 304.45 1294.34 309.245 1294.63 314.704C1294.76 317.345 1294.08 320.251 1293.56 322.834C1296.6 331.363 1296.81 337.322 1293.48 346.07C1304.66 354.67 1308.51 369.552 1310.18 383.031C1312.38 400.701 1307.88 420.309 1296.81 434.416C1288.01 445.636 1276.18 447.005 1262.96 448.932C1245.29 449.867 1227.51 451.165 1209.82 451.301L1205.29 448.83C1195.84 436.49 1194.4 417.924 1191.6 402.919C1195.52 399.563 1199.29 395.704 1202.35 391.536C1206.67 385.696 1207.93 379.607 1206.94 372.455C1206.49 372.924 1206.05 373.395 1205.6 373.858C1186.62 393.675 1142.46 391.036 1116.28 391.767C1002.35 394.953 887.719 391.667 773.737 390.982C698.524 390.531 621.252 394.392 546.319 388.968C533.989 388.078 507.665 386.961 499.188 378.125C484.321 362.625 492.371 327.007 493.568 307.447C496.107 292.059 495.552 275.499 500.183 260.598L501.112 257.441L507.062 259.523C506.191 286.133 506.497 314.039 511.793 340.238C525.728 344.314 539.369 347.675 553.806 349.39C585.139 353.112 642.477 348.274 668.875 366.811C717.943 369.764 769.59 372.95 818.653 369.421C866.483 370.741 915.751 371.79 963.531 369.424C997.086 370.384 1030.48 368.701 1063.98 366.866L1152.04 367.251L1154.45 359.717C1163.04 358.411 1170.68 355.353 1176.31 348.489C1198.14 321.876 1187.17 268.4 1184.13 236.368C1183.95 227.161 1179.34 217.514 1176.18 208.897C1176.2 208.247 1176.31 207.596 1176.28 206.946C1175.99 200.072 1172.46 198.685 1167.56 194.815C1173.79 191.645 1176.23 190.64 1180.18 184.629C1179.4 177.983 1178.72 176.891 1174.61 171.561L1184.63 172.205Z" fill="#6D3F3F"/>
<path d="M1209.57 323.771C1213.84 324.444 1216.49 324.099 1219.52 327.646C1223.5 332.279 1224.44 339.091 1223.42 344.931C1221.9 353.452 1218.29 356.609 1211.62 361.403C1210.62 362.801 1208.95 363.311 1207.45 364.083C1203.4 353.036 1211.07 336.363 1209.57 323.771Z" fill="#322D37"/>
<path d="M1174.6 171.562L1184.63 172.206C1190.96 179.779 1191.78 189.156 1190.78 198.664C1190.36 202.988 1189.16 206.483 1186.96 210.245L1182.27 212.661C1179.97 211.462 1178.11 210.625 1176.17 208.897C1176.2 208.248 1176.3 207.596 1176.28 206.947C1175.99 200.072 1172.46 198.685 1167.56 194.816C1173.79 191.646 1176.23 190.64 1180.18 184.63C1179.39 177.983 1178.71 176.891 1174.6 171.562Z" fill="#915554"/>
<path d="M1184.14 236.369C1193.56 242.481 1195.6 251.29 1197.83 261.688C1204 290.45 1202.72 332.856 1185.71 357.827C1183.74 360.704 1181.28 363.126 1178.69 365.416C1171.23 371.835 1161.6 373.838 1152.04 375.168V367.252L1154.45 359.717C1163.04 358.411 1170.68 355.354 1176.31 348.49C1198.14 321.877 1187.17 268.4 1184.14 236.369Z" fill="#974F2F"/>
<path d="M501.11 257.443L507.06 259.524C506.189 286.134 506.495 314.04 511.791 340.239C525.725 344.315 539.367 347.676 553.804 349.391C585.137 353.114 642.475 348.276 668.873 366.813C717.941 369.766 769.588 372.951 818.651 369.423C866.481 370.742 915.749 371.792 963.529 369.425C997.084 370.386 1030.47 368.703 1063.98 366.868L1152.04 367.252V375.169C1103.92 390.412 1011.66 376.475 958.869 376.365L504.864 375.957C499.259 338.095 500.482 298.794 500.181 260.6L501.11 257.443Z" fill="#AE6766"/>
<path d="M511.795 340.238C525.73 344.314 539.371 347.675 553.808 349.39C585.141 353.112 642.479 348.274 668.877 366.811L512.164 369.505L511.795 340.238Z" fill="#6D3F3F"/>
<path d="M1211.54 225.4L1215.68 232.816C1249.16 255.057 1359.71 232.884 1396.02 219.937C1414.74 213.269 1430.63 200.937 1450.02 195.622C1480.26 187.342 1513.45 185.031 1544.58 181.096C1548.69 186.834 1549.5 187.916 1550 194.889C1554.21 198.434 1558.58 200.827 1559.13 206.816C1560 216.39 1558.11 263.843 1554.32 271.497C1554.29 276.416 1553.72 278.987 1551.39 283.343C1552.85 294.199 1543.51 303.626 1547.56 313.579C1552.93 319.262 1555.13 324.299 1554.89 332.16C1554.71 338.793 1553.19 345.511 1548.98 350.744C1547.56 357.684 1542.96 360.665 1540.47 366.859C1538.87 370.799 1538.95 374.817 1537.75 378.741L1539.16 387.043C1537.3 389.485 1535.55 391.943 1533.35 394.092C1552.33 400.05 1578.9 407.019 1588.38 426.294C1588.58 426.718 1588.74 427.166 1588.92 427.603L1588.69 430.195C1592.09 433.556 1596.91 437.263 1598.4 441.883C1600.76 448.765 1601.12 449.873 1599.4 456.875C1595.91 460.399 1592.56 463.922 1588.56 466.883C1585.63 474.001 1583.27 480.056 1577.8 485.663C1578.22 490.412 1578.92 491.899 1575.7 495.813C1569 503.967 1550.05 504.399 1540.21 504.847L1537.88 504.946C1535.42 510.653 1532.35 512.132 1526.67 514.331C1478.43 532.988 1421.7 528.745 1372.35 545.405C1367.8 547.674 1364 548.604 1358.98 549.229C1351.7 548.002 1344.37 547.093 1337.06 546.083C1344.16 538.884 1351.31 531.439 1351.62 520.813C1350.05 513.999 1346.54 511.192 1341.51 506.844C1341.99 501.25 1341.7 500.342 1339.16 495.308C1333.01 490.787 1325.34 490.742 1317.98 490.012L1317.38 485.619C1322.64 483.179 1325.1 480.889 1328.4 476.158L1330.49 475.637C1329.71 471.797 1328.69 468.166 1325.99 465.203C1315.76 454.04 1297.74 453.933 1283.82 452.833C1278.27 449.92 1269.21 449.82 1262.95 448.933C1276.17 447.006 1288.01 445.637 1296.8 434.417C1307.88 420.31 1312.38 400.702 1310.18 383.032C1308.5 369.553 1304.66 354.671 1293.48 346.071C1296.8 337.322 1296.59 331.364 1293.56 322.835C1294.08 320.251 1294.76 317.346 1294.63 314.704C1294.34 309.246 1292.25 304.45 1287.74 301.23C1270.73 289.016 1226.99 301.052 1208.16 304.689C1218.66 285.79 1213.08 246.73 1211.54 225.4Z" fill="#322D37"/>
<path d="M1503.14 413.959C1510.55 412.758 1520.81 411.724 1527.04 407.271C1532.62 403.284 1532.64 400.328 1533.35 394.093C1552.33 400.051 1578.9 407.019 1588.38 426.294C1588.59 426.719 1588.74 427.166 1588.93 427.603L1588.69 430.195C1558.25 434.234 1528.11 442.588 1497.85 448.143C1451.02 456.742 1402.64 463.261 1356.31 474.188C1355.89 472.499 1355.52 471.051 1354.71 469.507C1348.53 457.847 1333.4 454.986 1321.83 451.86C1359.63 450.876 1462.12 437.509 1494.68 422.957C1500.39 420.407 1501.05 419.428 1503.14 413.959Z" fill="#5B475B"/>
<path d="M1395.68 262.727C1406.07 268.892 1408.87 276.601 1411.8 287.845C1421.02 323.19 1420 381.12 1401.49 413.102C1398.4 418.445 1393.66 424.107 1388.58 427.592C1407.8 427.652 1444.21 431.186 1458.22 414.934C1459.63 413.275 1460.73 410.963 1461.23 408.858C1472.22 407.565 1493.97 402.539 1502.98 409.445L1503.14 413.958C1501.04 419.427 1500.39 420.406 1494.68 422.955C1462.12 437.508 1359.63 450.874 1321.83 451.859C1333.4 454.984 1348.53 457.846 1354.71 469.505C1355.52 471.05 1355.88 472.498 1356.3 474.186C1364.76 482.422 1372.59 490.126 1373.14 502.728C1373.71 515.367 1365.2 520.72 1362.61 531.613L1363.79 531.757C1364.18 531.346 1364.58 530.93 1364.99 530.527C1366.57 528.969 1365.83 529.461 1367.51 528.678C1379.47 535.72 1517.98 485.458 1537.88 504.945C1535.41 510.652 1532.35 512.131 1526.67 514.33C1478.42 532.987 1421.7 528.744 1372.35 545.404C1367.8 547.673 1364 548.603 1358.97 549.228C1351.7 548.001 1344.37 547.092 1337.06 546.082C1344.16 538.883 1351.3 531.438 1351.62 520.812C1350.05 513.998 1346.54 511.191 1341.51 506.843C1341.98 501.249 1341.7 500.341 1339.16 495.307C1333 490.786 1325.33 490.741 1317.98 490.011L1317.38 485.618C1322.64 483.178 1325.1 480.888 1328.4 476.157L1330.49 475.636C1329.71 471.796 1328.69 468.165 1325.99 465.202C1315.75 454.039 1297.74 453.932 1283.82 452.832C1278.27 449.919 1269.21 449.819 1262.95 448.932C1276.17 447.005 1288 445.636 1296.8 434.416C1307.87 420.309 1312.38 400.701 1310.18 383.031C1308.5 369.552 1304.65 354.67 1293.48 346.07C1295.05 345.536 1296.75 344.871 1298.42 344.635C1304.29 343.813 1306.15 345.74 1310.78 348.795C1319.58 362.371 1319.03 379.824 1317.4 395.374C1315.49 413.599 1311.96 433.131 1297.09 445.251C1316.88 444.673 1338.29 445.427 1357.48 440.086C1372.17 435.997 1380.88 427.89 1388.32 414.722C1406.04 383.369 1412.56 327.596 1402.04 292.884C1398.97 282.821 1395.23 277.14 1385.94 272.054L1395.68 262.727Z" fill="#0C2742"/>
<path d="M1328.4 476.157L1330.49 475.636C1338.56 479 1347.19 481.691 1353.01 488.5C1353.74 493.047 1354.55 494.552 1351.72 498.544C1349.29 501.989 1344.97 504.489 1341.51 506.843C1341.99 501.249 1341.7 500.34 1339.16 495.306C1333.01 490.785 1325.34 490.741 1317.98 490.01L1317.38 485.618C1322.64 483.178 1325.1 480.887 1328.4 476.157Z" fill="#322D37"/>
<path d="M1293.56 322.835C1294.97 323.431 1295.6 323.756 1297.22 324.109C1310.34 326.989 1341.67 288.745 1354.76 280.107C1363.82 274.135 1375.05 269.714 1385.94 272.054C1395.23 277.141 1398.98 282.821 1402.04 292.884C1412.56 327.596 1406.04 383.369 1388.32 414.723C1380.89 427.89 1372.17 435.998 1357.48 440.087C1338.29 445.427 1316.88 444.673 1297.09 445.252C1311.96 433.131 1315.49 413.6 1317.4 395.374C1319.03 379.825 1319.58 362.371 1310.78 348.795C1306.15 345.74 1304.29 343.814 1298.43 344.636C1296.75 344.871 1295.05 345.536 1293.48 346.07C1296.8 337.322 1296.59 331.363 1293.56 322.835Z" fill="#483241"/>
<path d="M1211.54 225.4L1215.68 232.816C1249.16 255.057 1359.71 232.884 1396.02 219.937C1414.74 213.269 1430.63 200.937 1450.02 195.622C1480.26 187.342 1513.45 185.031 1544.58 181.096C1548.69 186.834 1549.5 187.916 1550 194.889C1554.21 198.434 1558.58 200.827 1559.13 206.816C1560 216.39 1558.11 263.843 1554.32 271.497C1554.29 276.416 1553.72 278.987 1551.39 283.343C1552.85 294.199 1543.51 303.626 1547.56 313.579C1552.93 319.262 1555.13 324.299 1554.89 332.16C1554.71 338.793 1553.19 345.511 1548.98 350.744C1547.56 357.684 1542.96 360.665 1540.47 366.859C1538.87 370.799 1538.95 374.817 1537.75 378.741L1539.16 387.043C1537.3 389.485 1535.55 391.943 1533.35 394.092C1532.64 400.328 1532.62 403.283 1527.04 407.27C1520.81 411.723 1510.55 412.757 1503.14 413.959L1502.98 409.446C1493.98 402.54 1472.22 407.566 1461.23 408.859C1460.73 410.964 1459.63 413.276 1458.22 414.935C1444.21 431.187 1407.8 427.653 1388.58 427.592C1393.66 424.108 1398.4 418.446 1401.49 413.103C1420 381.121 1421.02 323.191 1411.8 287.846C1408.87 276.602 1406.07 268.893 1395.68 262.728L1385.94 272.055C1375.05 269.714 1363.82 274.136 1354.76 280.107C1341.67 288.746 1310.34 326.99 1297.22 324.11C1295.6 323.757 1294.97 323.432 1293.56 322.835C1294.08 320.251 1294.76 317.346 1294.63 314.704C1294.34 309.246 1292.25 304.45 1287.74 301.23C1270.73 289.016 1226.99 301.052 1208.16 304.689C1218.66 285.79 1213.08 246.73 1211.54 225.4Z" fill="#322D37"/>
<path d="M1395.68 262.727C1410.73 249.889 1429.24 231.967 1450.58 233.007C1460.03 233.465 1468.06 237.92 1474.03 245.072C1494.24 269.235 1489.21 316.206 1486.05 345.596C1484.14 363.481 1481.1 392.523 1467.15 405.102C1465.39 406.68 1463.32 407.832 1461.23 408.858C1460.73 410.963 1459.63 413.275 1458.22 414.934C1444.21 431.186 1407.8 427.652 1388.59 427.592C1393.66 424.107 1398.4 418.445 1401.49 413.102C1420 381.12 1421.02 323.19 1411.81 287.845C1408.87 276.601 1406.07 268.892 1395.68 262.727Z" fill="#483241"/>
<path d="M837.245 194.39C879.968 185.102 933.115 192.23 977.157 191.877C1008.3 191.628 1146.65 180.267 1166.73 194.06C1167.04 194.272 1167.3 194.563 1167.56 194.817C1172.46 198.686 1175.99 200.073 1176.28 206.948C1176.31 207.597 1176.2 208.249 1176.18 208.898C1179.34 217.516 1183.95 227.162 1184.13 236.369C1187.17 268.401 1198.14 321.878 1176.31 348.49C1170.68 355.354 1163.04 358.412 1154.45 359.718L1152.04 367.252L1063.98 366.867C1030.48 368.702 997.086 370.386 963.531 369.425C915.751 371.791 866.484 370.742 818.653 369.422C769.59 372.951 717.943 369.765 668.875 366.812C642.477 348.276 585.139 353.113 553.806 349.391C539.369 347.676 525.728 344.315 511.793 340.239C506.497 314.04 506.191 286.134 507.063 259.524C508.612 240.212 508.029 220.922 507.68 201.573C543.301 191.874 572.683 191.701 609.144 195.262C685.155 193.751 761.287 196.468 837.245 194.39Z" fill="#7C4325"/>
<path d="M1063.97 366.866C1065.35 365.944 1065.44 365.832 1067.17 364.981C1085.98 355.737 1130.8 347.392 1150.88 354.182C1152.93 354.871 1153.55 357.808 1154.44 359.716L1152.04 367.25L1063.97 366.866Z" fill="#6D3F3F"/>
<path d="M818.651 369.421C848.625 351.343 915.087 355.4 948.495 363.295C953.582 364.497 959.317 366.269 963.529 369.424C915.749 371.79 866.482 370.741 818.651 369.421Z" fill="#6D3F3F"/>
<path d="M506.377 4.63276C564.772 5.02281 623.095 1.00447 681.503 0.617033C702.087 0.480907 724.928 -1.31494 745.239 1.93377C751.637 5.60657 757.182 9.38682 762.841 14.1382L763.276 18.3685C759.671 21.7297 756.891 23.2037 752.174 24.6016C794.103 30.0205 835.216 32.9655 877.573 31.8896C939.733 30.3111 1105.6 12.2663 1155.68 27.1224C1174.34 32.2167 1185.94 40.5493 1200.52 52.6227C1213.48 56.7719 1235.91 62.0887 1242.77 74.9815C1244.5 78.2538 1244.24 79.8558 1243.87 83.3505C1254.29 87.1071 1264.47 91.9005 1269.55 102.346C1269.5 107.806 1269.29 108.712 1266.41 113.346C1277.38 135.914 1287.61 161.634 1278.74 186.901C1275.18 197.061 1268.14 203.993 1258.43 208.456C1249.53 212.553 1239.97 213.561 1230.26 213.844C1226.25 213.537 1222.35 211.783 1218.56 210.474C1213.22 205.878 1212.67 201.354 1211.46 194.804C1212.4 189.904 1211.88 184.205 1211.02 179.317C1208.87 167.241 1200.94 162.244 1191.51 155.697C1191.12 161.608 1191.83 166.068 1187.17 170.456C1186.1 171.44 1185.75 171.576 1184.63 172.205L1174.6 171.56C1178.71 176.89 1179.39 177.982 1180.18 184.629C1176.23 190.639 1173.79 191.645 1167.56 194.815C1167.3 194.561 1167.04 194.27 1166.72 194.058C1146.64 180.265 1008.29 191.626 977.154 191.875C933.112 192.228 879.965 185.1 837.243 194.388C761.284 196.466 685.152 193.749 609.142 195.26C572.681 191.699 543.298 191.872 507.678 201.571C508.026 220.92 508.61 240.21 507.06 259.522L501.109 257.441L500.18 260.598C495.549 275.498 496.104 292.059 493.565 307.446L481.732 299.137L487.073 274.184C465.931 267.564 426.939 263.611 406.928 275.42C402.318 278.142 399.661 281.64 398.604 286.744C396.902 294.943 398.064 303.276 396.237 311.357C394.072 284.506 396.824 254.548 402.876 228.338L408.732 211.032L410.803 200.616C418.614 174.542 417.491 144.45 419.661 117.359L401.075 99.1361L397.577 90.6282C440.318 56.6122 491.062 35.9184 536.879 6.59356C526.5 6.60927 516.654 6.11444 506.377 4.63276Z" fill="url(#paint5_linear_120_42156)"/>
<path d="M1191.52 155.698C1197.67 152.701 1201.49 150.635 1208.53 152.366C1213.93 155.688 1217.54 159.138 1219.11 165.51C1221.07 173.34 1219.82 183.913 1215.18 190.518C1214.06 192.13 1212.85 193.405 1211.46 194.806C1212.41 189.905 1211.88 184.206 1211.02 179.319C1208.87 167.243 1200.94 162.245 1191.52 155.698Z" fill="#322D37"/>
<path d="M489.687 157.142L498.729 159.31C515.721 160.778 533.949 161.085 550.64 164.289C539.485 164.414 528.488 163.708 519.867 172.095C512.661 179.106 509.998 192.161 507.682 201.572C508.03 220.92 508.614 240.211 507.064 259.522L501.113 257.441L500.184 260.598C495.553 275.499 496.108 292.059 493.569 307.447L481.736 299.138L487.077 274.185C488.022 255.446 489.666 235.813 483.407 217.815C480.158 209.514 478.388 200.184 477.718 191.313C476.671 177.422 480.941 167.574 489.687 157.142Z" fill="#322D37"/>
<path d="M489.686 157.142L498.727 159.31C515.72 160.778 533.948 161.085 550.639 164.289C539.484 164.414 528.487 163.708 519.866 172.095C512.659 179.106 509.997 192.161 507.68 201.572C508.029 220.92 508.612 240.211 507.063 259.522L501.112 257.441C497.021 225.792 501.385 186.781 489.686 157.142Z" fill="#6D3F3F"/>
<path d="M402.876 228.34L408.732 211.033C421.784 222.439 432.921 228.688 450.853 227.274C461.342 226.447 474.196 222.976 483.403 217.816C489.662 235.813 488.018 255.447 487.073 274.185C465.931 267.565 426.939 263.612 406.928 275.421C402.318 278.144 399.661 281.641 398.604 286.746C396.902 294.945 398.064 303.277 396.237 311.359C394.072 284.508 396.824 254.549 402.876 228.34Z" fill="#483241"/>
<path d="M528.496 146.069C631.583 142.721 733.919 147.245 836.969 148.75C875.305 147.52 913.656 148.172 951.996 147.423C989.633 146.69 1028.63 143.478 1066.04 148.512C1057.9 152.329 1048.98 157.559 1040.37 159.944C944.415 166.389 848.76 164.546 752.671 164.41C685.215 164.313 618.099 166.659 550.638 164.289C533.947 161.085 515.719 160.779 498.727 159.31C499.161 157.297 498.892 157.795 500.371 155.651C505.468 148.258 520.35 147.237 528.496 146.069Z" fill="#AE6766"/>
<path d="M528.496 146.069C631.583 142.721 733.919 147.245 836.969 148.75C861.071 155.177 890.778 149.737 916.009 151.734C860.524 152.449 564.358 165.941 528.496 146.069Z" fill="#EFAD73"/>
<path d="M1040.37 159.943C1065.61 159.778 1156.04 154.283 1174.6 171.561C1178.71 176.891 1179.39 177.983 1180.18 184.629C1176.23 190.64 1173.79 191.645 1167.56 194.815C1167.3 194.561 1167.04 194.271 1166.72 194.059C1146.65 180.265 1008.29 191.627 977.155 191.875C933.113 192.229 879.966 185.1 837.244 194.388C761.285 196.467 685.154 193.75 609.143 195.26C572.682 191.7 543.299 191.873 507.679 201.572C509.995 192.161 512.658 179.106 519.865 172.095C528.485 163.708 539.483 164.414 550.637 164.289C618.098 166.658 685.214 164.312 752.67 164.409C848.759 164.545 944.414 166.388 1040.37 159.943Z" fill="#481F1E"/>
<path d="M506.375 4.63276C564.771 5.02281 623.093 1.00447 681.502 0.617033C702.086 0.480907 724.926 -1.31494 745.238 1.93377C751.636 5.60657 757.181 9.38682 762.84 14.1382L763.275 18.3685C759.67 21.7297 756.89 23.2037 752.173 24.6016C794.102 30.0205 835.215 32.9655 877.571 31.8896C939.732 30.3111 1105.6 12.2663 1155.68 27.1224C1174.34 32.2167 1185.94 40.5493 1200.52 52.6227C1213.48 56.7719 1235.91 62.0887 1242.77 74.9815C1244.5 78.2537 1244.24 79.8558 1243.87 83.3505C1246.64 90.2432 1247.22 91.157 1245.6 98.3167C1238.4 106.545 1228.95 108.113 1218.53 108.898C1196.49 110.555 1173.45 108.762 1151.28 108.749L1009.78 108.806C892.66 108.89 775.23 111.704 658.159 110.38C582.271 109.521 505.182 104.571 429.511 111.838L419.66 117.359L401.074 99.1361L397.576 90.6282C440.317 56.6122 491.061 35.9184 536.878 6.59356C526.498 6.60927 516.653 6.11444 506.375 4.63276Z" fill="#EFAD73"/>
<path d="M506.375 4.63276C564.771 5.02281 623.093 1.00447 681.502 0.617033C702.086 0.480907 724.926 -1.31494 745.238 1.93377C751.636 5.60657 757.181 9.38682 762.84 14.1382L763.275 18.3685C759.67 21.7297 756.89 23.2037 752.173 24.6016C642.447 2.08314 597.195 18.3083 501.619 66.8583C484.022 75.7982 463.464 81.4056 447.223 92.3795C440.72 96.7696 431.794 104.112 429.511 111.838L419.66 117.359L401.074 99.1361L397.576 90.6282C440.317 56.6122 491.061 35.9184 536.878 6.59356C526.498 6.60927 516.653 6.11444 506.375 4.63276Z" fill="#974F2F"/>
<path d="M765.862 15.3099L754.23 24.6155C754.23 24.6155 800.872 31.8472 831.001 33.921C900.885 38.7312 940.102 26.2501 1010.13 24.6155C1067.35 23.2798 1156.69 24.6155 1156.69 24.6155L1152.04 6.00441L877.529 1.35164C825.744 1.06582 744.925 1.35164 744.925 1.35164L765.862 15.3099Z" fill="#EFAD73"/>
<path d="M1151.59 5.66309C1165.02 7.10812 1178.9 8.10821 1192.01 11.3726C1202.09 13.8779 1211.02 18.6632 1221.39 19.9381L1211.07 21.4539L1209.95 24.2129C1214.53 29.5533 1219.16 34.3178 1221.49 41.077C1213.87 44.3649 1207.01 47.3231 1200.52 52.6242C1185.94 40.5508 1174.34 32.2182 1155.68 27.1239C1156.7 18.705 1154.61 13.3621 1151.59 5.66309Z" fill="#AE6766"/>
<path d="M1221.39 19.9368C1258.04 19.8818 1294.27 21.6881 1330.84 24.1305C1358.22 25.9577 1389.61 30.5887 1416.76 27.0992C1425.16 27.2274 1433.93 27.874 1442.3 27.251C1493.22 30.3033 1544.92 36.0181 1595.87 36.505L1602.67 38.2589C1606.91 39.0678 1611.57 39.5704 1615.53 41.3217L1617.75 45.6412C1610.42 57.7669 1592.65 60.437 1579.43 63.6622C1521.52 77.7879 1459.43 77.5079 1400.24 83.7304C1370.66 85.4896 1341 87.7147 1311.39 88.7697C1303.69 89.0445 1296.13 87.686 1288.48 88.0786C1291.91 95.9975 1294.08 100.353 1291.02 108.929C1282.62 111.429 1275.16 112.846 1266.41 113.346C1269.29 108.712 1269.5 107.807 1269.56 102.346C1264.48 91.9007 1254.29 87.1073 1243.87 83.3508C1244.24 79.856 1244.5 78.254 1242.78 74.9817C1235.92 62.089 1213.48 56.7721 1200.52 52.6229C1207.02 47.3218 1213.87 44.3637 1221.49 41.0757C1219.16 34.3165 1214.53 29.552 1209.95 24.2117L1211.07 21.4526L1221.39 19.9368Z" fill="#EFAD73"/>
<path d="M1221.49 41.0781C1243.56 44.6174 1267.46 52.3427 1281.18 71.3166C1284.9 76.4554 1286.75 82.0496 1288.48 88.0811C1291.91 96 1294.08 100.356 1291.02 108.932C1282.62 111.432 1275.16 112.848 1266.41 113.348C1269.29 108.715 1269.5 107.809 1269.56 102.348C1264.48 91.9031 1254.29 87.1098 1243.87 83.3532C1244.24 79.8584 1244.5 78.2564 1242.78 74.9842C1235.92 62.0914 1213.48 56.7746 1200.52 52.6253C1207.02 47.3243 1213.87 44.3661 1221.49 41.0781Z" fill="#6D3F3F"/>
<path d="M1615.53 41.3232C1625.16 43.2369 1638.12 44.2239 1646.6 49.0642C1649.35 51.6506 1653.04 54.1976 1653.88 58.0275L1659.82 64.5669C1659.51 67.8575 1659.3 70.5695 1658.14 73.6978C1654.53 86.6508 1663.83 97.3001 1659.06 108.818C1659.64 114.633 1660.92 117.47 1656.5 122.062C1655.37 123.219 1653.8 124.109 1652.46 124.963C1648.33 130.504 1643.67 132.3 1637.54 134.889C1620.11 151.612 1574.79 159.07 1552.04 165.102L1556.1 174.939C1552.78 178.971 1549.35 179.442 1544.58 181.096C1513.46 185.031 1480.26 187.343 1450.03 195.623C1430.63 200.937 1414.74 213.269 1396.02 219.937C1359.71 232.885 1249.16 255.058 1215.68 232.817L1211.54 225.4C1217.51 220.683 1223.56 217.327 1230.26 213.845C1239.97 213.563 1249.53 212.555 1258.43 208.458C1268.14 203.994 1275.18 197.062 1278.74 186.903C1287.62 161.636 1277.38 135.915 1266.41 113.347C1275.16 112.847 1282.62 111.431 1291.02 108.931C1294.08 100.355 1291.91 95.999 1288.48 88.0801C1296.13 87.6875 1303.69 89.046 1311.39 88.7712C1341 87.7162 1370.66 85.4911 1400.24 83.7319C1459.43 77.5094 1521.52 77.7894 1579.43 63.6637C1592.65 60.4385 1610.42 57.7684 1617.75 45.6427L1615.53 41.3232Z" fill="#232125"/>
<path d="M1288.48 88.0797C1296.12 87.687 1303.69 89.0456 1311.38 88.7707C1340.99 87.7157 1370.65 85.4906 1400.23 83.7314L1397.93 87.543C1407.62 111.855 1417.98 141.666 1407.35 167.376C1404.47 174.376 1399.32 180.58 1393.45 185.287C1393.3 189.366 1390.57 192.735 1387.64 195.397C1369.66 211.688 1326.2 207.015 1302.8 206.821C1309.53 201.073 1313.01 191.994 1315.21 183.635C1320.23 164.478 1320.89 140.365 1310.49 122.771C1305.42 114.185 1300.23 111.357 1291.02 108.93C1294.08 100.355 1291.91 95.9986 1288.48 88.0797Z" fill="#915554"/>
<path d="M1615.53 41.3232C1625.16 43.2369 1638.12 44.2239 1646.6 49.0642C1649.35 51.6506 1653.04 54.1976 1653.88 58.0275L1659.82 64.5669C1659.51 67.8575 1659.3 70.5695 1658.15 73.6978C1654.53 86.6508 1663.83 97.3001 1659.06 108.818C1659.64 114.633 1660.92 117.47 1656.5 122.062C1655.37 123.219 1653.8 124.109 1652.46 124.963C1648.33 130.504 1643.67 132.3 1637.54 134.889C1620.11 151.612 1574.79 159.07 1552.05 165.102C1544.95 158.63 1536.42 159.277 1527.39 159.772C1486.13 162.031 1429.79 187.73 1393.46 185.288C1399.32 180.581 1404.48 174.376 1407.36 167.376C1417.99 141.667 1407.62 111.855 1397.93 87.5434L1400.24 83.7319C1459.43 77.5094 1521.52 77.7894 1579.43 63.6637C1592.65 60.4385 1610.42 57.7684 1617.75 45.6427L1615.53 41.3232Z" fill="#483241"/>
<defs>
<linearGradient id="paint0_linear_120_42156" x1="114.244" y1="161.687" x2="135.835" y2="58.4199" gradientUnits="userSpaceOnUse">
<stop stop-color="#3D302F"/>
<stop offset="1" stop-color="#694543"/>
</linearGradient>
<linearGradient id="paint1_linear_120_42156" x1="179.551" y1="370.37" x2="305.44" y2="512.906" gradientUnits="userSpaceOnUse">
<stop stop-color="#554452"/>
<stop offset="1" stop-color="#776178"/>
</linearGradient>
<linearGradient id="paint2_linear_120_42156" x1="303.713" y1="195.506" x2="315.864" y2="86.4358" gradientUnits="userSpaceOnUse">
<stop stop-color="#484040"/>
<stop offset="1" stop-color="#845250"/>
</linearGradient>
<linearGradient id="paint3_linear_120_42156" x1="1230.14" y1="501.29" x2="1177.28" y2="640.495" gradientUnits="userSpaceOnUse">
<stop stop-color="#855150"/>
<stop offset="1" stop-color="#AB7270"/>
</linearGradient>
<linearGradient id="paint4_linear_120_42156" x1="435.342" y1="532.329" x2="445.68" y2="604.668" gradientUnits="userSpaceOnUse">
<stop stop-color="#865352"/>
<stop offset="1" stop-color="#A5716F"/>
</linearGradient>
<linearGradient id="paint5_linear_120_42156" x1="804.663" y1="21.0453" x2="874.44" y2="299.91" gradientUnits="userSpaceOnUse">
<stop stop-color="#833D3C"/>
<stop offset="1" stop-color="#9C5B5A"/>
</linearGradient>
</defs>
</svg>
