
<svg width="1701" height="702" viewBox="0 0 1701 702" fill="none" xmlns="http://www.w3.org/2000/svg">
<path d="M1444.24 681.712C1478.09 669.845 1515.65 664.659 1551.18 660.824C1536.07 678.356 1506.07 680.861 1484.26 682.476C1470.98 683.572 1457.69 683.796 1444.4 683.149L1444.24 681.712Z" fill="#0C2742"/>
<path d="M546.045 694.358C556.422 692.816 566.501 688.214 576.906 686.222C598.119 682.162 620.425 682.944 641.928 682.968C661.865 683.62 681.624 688.871 701.043 693.154C649.286 695.125 597.807 694.377 546.045 694.358Z" fill="#0C2742"/>
<path d="M47.0035 88.027L65.7967 83.8018C69.5323 90.2285 78.0193 92.3568 85.0952 94.1553C132.493 106.208 182.578 98.7731 230.329 110.36C201.585 137.805 204.384 175.041 202.879 211.86C177.198 209.695 149.923 208.447 124.747 202.816C110.941 189.242 79.9721 193.127 61.9458 191.603C55.3646 191.048 49.3751 189.08 45.3515 183.575C30.3409 163.03 42.6081 111.365 47.0035 88.027Z" fill="url(#paint0_linear_66_520)"/>
<path d="M354.693 26.7452C408.142 22.7488 460.962 19.3976 514.503 20.8413C524.778 22.8151 534.622 20.0204 545 19.9995C499.191 59.0638 448.456 90.0844 405.723 135.398C349.204 155.568 297.694 119.569 241.804 116.033L238.503 115.057C190.76 99.622 138.39 113.555 91 97.4995C83.9253 95.1038 67.735 93.0607 64 84.4995C105.019 66.8296 160.715 57.7924 203.334 50.4413C250.946 42.2288 298.226 33.1863 346 26.5396L354.693 26.7452Z" fill="#EA9363"/>
<path d="M1588.56 501.882C1596.39 504.788 1603.35 506.867 1608.88 513.443L1610.21 518.406C1626.31 522.204 1654.53 525.686 1667.7 534.78C1679.48 539.702 1688.4 543.532 1695.29 554.838L1694.82 562.537L1696.28 569.626C1701.49 576.694 1700.92 584.545 1699.61 592.841C1699.45 593.827 1699.27 594.81 1699.06 595.789C1698.85 596.766 1698.61 597.737 1698.35 598.702C1698.11 599.669 1697.83 600.629 1697.51 601.582C1697.22 602.533 1696.89 603.476 1696.52 604.412C1696.17 605.349 1695.8 606.276 1695.42 607.192C1695.02 608.11 1694.59 609.017 1694.14 609.912C1693.7 610.809 1693.24 611.694 1692.75 612.566C1692.26 613.439 1691.76 614.299 1691.23 615.147C1690.71 615.996 1690.16 616.83 1689.58 617.65C1689.01 618.472 1688.41 619.278 1687.8 620.069C1687.19 620.86 1686.56 621.635 1685.92 622.396C1685.27 623.155 1684.6 623.898 1683.9 624.624C1683.22 625.352 1682.52 626.061 1681.81 626.752C1681.07 627.443 1680.33 628.117 1679.58 628.773C1678.83 629.428 1678.06 630.063 1677.28 630.679C1676.49 631.297 1675.69 631.894 1674.87 632.47C1642.23 655.836 1589.82 654.737 1551.18 660.823C1515.65 664.658 1478.09 669.844 1444.24 681.711L1439.32 679.63C1431.62 666.198 1436.96 643.776 1433.27 628.171C1430.79 617.634 1425.92 612.472 1417.04 606.907C1416.86 604.53 1415.97 602.019 1415.37 599.7C1404.87 586.77 1387.7 584.409 1372.36 580.404C1421.7 563.744 1478.43 567.987 1526.68 549.33C1532.36 547.131 1535.42 545.652 1537.88 539.945L1540.21 539.846C1550.05 539.398 1569.01 538.966 1575.71 530.812C1578.93 526.898 1578.22 525.411 1577.8 520.663C1583.27 515.055 1585.63 509 1588.56 501.882Z" fill="#483241"/>
<path d="M1588.56 501.882C1596.39 504.788 1603.35 506.867 1608.88 513.443L1610.21 518.406C1626.31 522.204 1654.53 525.686 1667.7 534.78C1679.48 539.702 1688.4 543.532 1695.29 554.838L1694.82 562.537C1683.4 558.967 1675 554.799 1662.46 554.982C1643.74 555.254 1621.28 563.278 1602.99 568.011C1543.95 583.283 1478.06 606.323 1417.04 606.907C1416.86 604.53 1415.97 602.019 1415.37 599.7C1404.87 586.77 1387.7 584.409 1372.36 580.404C1421.7 563.744 1478.43 567.987 1526.68 549.33C1532.36 547.131 1535.42 545.652 1537.88 539.945L1540.21 539.846C1550.05 539.398 1569.01 538.966 1575.71 530.812C1578.93 526.898 1578.22 525.411 1577.8 520.663C1583.27 515.055 1585.63 509 1588.56 501.882Z" fill="#5B475B"/>
<path d="M1588.56 501.882C1596.39 504.788 1603.35 506.867 1608.88 513.443L1610.21 518.406L1608.46 523.712C1599.87 526.807 1586.76 522.362 1577.8 520.663C1583.28 515.055 1585.63 509 1588.56 501.882Z" fill="#25658D"/>
<path d="M161.205 440.612C235.046 462.607 310.832 456.675 383.036 487.359L383.9 488.377C373.172 495.581 362.261 502.223 351.112 508.741L361 514.43C367.553 516.279 374.188 517.76 380.905 518.872C387.623 519.982 394.381 520.717 401.18 521.076L395.447 528.534C379.887 527.707 364.562 530.71 349.319 529.995C349.151 540.498 348.884 550.304 346.426 560.548C344.285 566.252 342.45 573.571 338.858 578.469C330.67 580.652 322.321 582.6 314.23 585.097C306.067 589.954 295.444 598.286 286.428 600.713L270.774 615.472C270.033 621.38 270.303 624.302 273.329 629.477C275.939 631.315 278.303 633.166 281.266 634.401C285.07 648.577 286.614 662.648 287.334 677.281C382.646 671.195 475.54 677.815 570.697 680.713C589.208 681.279 625.93 677.182 641.928 682.967C620.425 682.944 598.119 682.161 576.907 686.221C566.501 688.213 556.422 692.815 546.045 694.357C459.148 694.137 372.268 692.767 285.405 690.245C203.446 691.391 118.569 681.763 43.9558 646.059C31.0447 643.093 18.2383 639.551 5.41618 636.216C1.48161 612.603 0.405762 587.676 0 563.741L3.15707 563.904C26.8326 548.482 54.3092 540.359 77.9298 525.382L84.7309 505.644C90.3095 489.408 85.3906 477.681 99.5582 465.369C120.283 457.586 141.192 450.115 161.205 440.612Z" fill="#322D37"/>
<path d="M43.9561 646.058C101.412 637.354 223.3 642.317 271.973 677.38C276.934 680.953 281.374 685.655 285.405 690.244C203.446 691.391 118.569 681.762 43.9561 646.058Z" fill="#0C2742"/>
<path d="M77.927 525.382C122.299 564.006 267.269 540.953 328.07 563.288C321.902 569.71 314.486 575.553 314.227 585.097C306.064 589.953 295.441 598.286 286.426 600.713C243.637 597.375 199.582 587.464 156.896 581.302C105.754 573.919 54.4687 569.629 3.1543 563.904C26.8298 548.482 54.3064 540.359 77.927 525.382Z" fill="#5B475B"/>
<path d="M161.21 440.612C235.051 462.607 310.836 456.675 383.041 487.359L383.905 488.377C373.177 495.581 362.266 502.223 351.117 508.741L361.004 514.43C367.558 516.279 374.193 517.76 380.91 518.872C387.628 519.982 394.386 520.717 401.185 521.076L395.452 528.534C379.892 527.707 364.567 530.71 349.324 529.995C349.156 540.498 348.889 550.304 346.431 560.548C344.29 566.252 342.455 573.571 338.863 578.469C330.674 580.652 322.326 582.6 314.234 585.097C314.494 575.553 321.91 569.71 328.078 563.288C267.276 540.953 122.307 564.006 77.9346 525.382L84.7357 505.644C90.3143 489.408 85.3954 477.681 99.563 465.369C120.288 457.586 141.197 450.115 161.21 440.612Z" fill="#322D37"/>
<path d="M328.077 563.289C329.978 554.629 331.672 541.911 337.556 534.935C341.509 530.252 343.522 530.72 349.324 529.995C349.156 540.498 348.889 550.304 346.431 560.548C344.29 566.252 342.454 573.571 338.863 578.469C330.674 580.653 322.326 582.6 314.234 585.098C314.494 575.553 321.91 569.71 328.077 563.289Z" fill="#0C2742"/>
<path d="M161.21 440.612C235.05 462.607 310.836 456.675 383.041 487.359L383.905 488.377C373.177 495.581 362.266 502.223 351.116 508.741C306.202 485.492 245.872 492.772 196.689 487.199C163.144 483.398 131.649 475.683 99.5625 465.369C120.288 457.586 141.196 450.115 161.21 440.612Z" fill="url(#paint1_linear_66_520)"/>
<path d="M233.626 111.092C289.527 113.746 341.045 140.77 397.575 125.629L401.072 134.137L419.659 152.359C417.488 179.451 418.611 209.543 410.8 235.616L408.729 246.032L402.873 263.339C396.821 289.548 394.069 319.507 396.234 346.358C394.289 377.4 382.575 419.918 391.297 449.722C394.509 460.701 400.952 471.377 405.302 482.018C398.959 486.427 390.538 486.44 383.033 487.359C310.828 456.675 235.042 462.607 161.202 440.612C159.974 425.117 159.246 409.547 158.283 394.028L158.12 392.219C160.704 332.672 153.039 283.41 132.707 227.598L124.743 202.815C149.919 208.446 177.194 209.695 202.874 211.86C204.38 175.04 201.581 137.804 230.325 110.359L233.626 111.092Z" fill="#322D37"/>
<path d="M299.265 302.692C325.64 308.723 351.396 315.551 377.279 323.438C377.271 338.603 377.815 355.478 366.362 367.135C359.268 374.355 348.682 376.779 338.86 376.289C331.344 375.915 323.592 374.339 316.192 373.038L298.755 367.687C291.527 358.488 294.959 330.142 296.488 318.323C297.184 313.072 298.11 307.861 299.265 302.692Z" fill="#483241"/>
<path d="M298.753 367.688L316.19 373.038L314.407 376.842L372.473 387.083L372.578 451.463C348.127 448.814 318.666 448.264 295.724 439.437L292.475 438.513C286.763 431.764 288.444 420.659 288.499 411.989C288.904 398.748 290.897 385.358 292.292 372.182L298.753 367.688Z" fill="#483241"/>
<path d="M298.753 367.688L316.19 373.038L314.407 376.842C306.63 379.439 300.512 381.661 296.318 389.373C288.449 403.85 295.708 423.874 295.724 439.437L292.475 438.513C286.763 431.764 288.444 420.659 288.499 411.989C288.904 398.748 290.897 385.358 292.292 372.182L298.753 367.688Z" fill="#0C2742"/>
<path d="M230.325 110.359L233.626 111.092C238.225 147.39 236.723 180.336 234.574 216.674C274.548 229.182 326.917 249.373 366.755 227.483C371.289 224.99 375.598 221.985 379.823 219.001C390.263 223.831 401.936 228.184 410.8 235.616L408.729 246.032L402.873 263.339C373.627 257.025 342.983 258.004 313.401 253.362C289.173 249.561 265.849 240.64 241.503 237.661C232.283 236.532 220.998 234.889 213.191 241.009C212.513 245.396 211.953 248.941 209.825 252.868C205.026 250.158 204.657 239.525 200.874 234.132C179.937 226.027 154.872 227.88 132.707 227.598L124.743 202.815C149.919 208.446 177.194 209.695 202.874 211.86C204.38 175.04 201.581 137.804 230.325 110.359Z" fill="#0C2742"/>
<path d="M214.862 299.872C241.124 299.71 267.291 301.108 293.511 302.401C294.504 325.464 292.179 348.998 292.286 372.182C290.891 385.357 288.899 398.747 288.493 411.988C286.098 416.221 286.54 426.611 285.485 431.818C283.242 433.627 280.925 435.478 278.38 436.855C271.653 440.502 264.173 440.418 256.982 438.365C235.807 432.316 224.995 417.184 215.568 398.915L214.529 402.564C216.935 408.415 214.885 421.46 214.658 428.122L177.464 421.695C177.448 406.666 171.545 377.163 182.361 365.504C184.717 364.896 187.681 363.585 190.04 364.155C203.194 367.339 207.765 374.765 214.469 385.671L212.689 385.391L217.838 383.323C218.26 371.467 227.215 372.169 232.401 363.828C227.215 358.679 219.482 352.344 217.82 345.019C214.406 329.988 214.767 315.184 214.862 299.872Z" fill="#483241"/>
<path d="M233.63 111.091C289.531 113.746 341.049 140.77 397.579 125.628L401.076 134.136L419.663 152.359C417.492 179.45 418.615 209.542 410.804 235.616C401.94 228.184 390.267 223.83 379.827 219C375.602 221.985 371.293 224.99 366.759 227.482C326.921 249.372 274.552 229.181 234.578 216.673C236.727 180.335 238.229 147.39 233.63 111.091Z" fill="url(#paint2_linear_66_520)"/>
<path d="M401.072 134.137L419.659 152.359C417.489 179.451 418.612 209.543 410.8 235.616C401.936 228.184 390.263 223.831 379.824 219.001C376.177 202.252 371.873 182.271 376.015 165.278C379.74 149.993 388.18 142.239 401.072 134.137Z" fill="#322D37"/>
<path d="M739.631 511.778C766.917 520.388 812.307 511.346 833.564 522.383L835.744 523.5C865.957 517.791 905.111 518.461 935.68 522.087C940.253 522.83 945.622 523.074 949.724 525.241C1018.74 525.875 1086.99 522.15 1156.04 525.697C1181.83 524.778 1272.45 533.299 1290.78 520.534L1317.38 520.618L1317.98 525.011C1325.33 525.741 1333 525.786 1339.16 530.307C1341.7 535.341 1341.98 536.249 1341.51 541.843C1346.54 546.192 1350.05 548.998 1351.62 555.812C1351.3 566.438 1344.16 573.883 1337.06 581.082C1344.37 582.092 1351.7 583.001 1358.97 584.228C1364 583.603 1367.79 582.673 1372.35 580.404C1387.69 584.409 1404.86 586.77 1415.36 599.7C1415.96 602.019 1416.85 604.53 1417.04 606.907C1425.91 612.472 1430.78 617.634 1433.27 628.171C1436.96 643.776 1431.62 666.198 1439.31 679.63L1444.24 681.711L1444.39 683.148C1346.15 715.24 1236.67 697.444 1135.2 693.771C1088.72 692.088 1042.09 693.944 995.539 692.53C897.271 698.263 799.268 702.399 701.04 693.153C681.621 688.87 661.861 683.619 641.924 682.967C625.926 677.182 589.204 681.279 570.693 680.713C475.536 677.815 382.642 671.195 287.33 677.281C286.61 662.648 285.066 648.577 281.262 634.402C278.299 633.166 275.935 631.315 273.325 629.478C270.299 624.302 270.029 621.381 270.77 615.472L286.424 600.713C295.44 598.286 306.063 589.954 314.226 585.098C322.317 582.6 330.666 580.653 338.854 578.469C342.446 573.571 344.281 566.252 346.422 560.548C348.88 550.304 349.147 540.498 349.315 529.995C364.558 530.71 379.883 527.707 395.443 528.534L401.176 521.076C450.145 519.22 499.834 525.532 548.499 520.244C552.69 517.511 556.52 514.144 560.423 511.011C619.746 513.992 680.231 513.173 739.631 511.778Z" fill="#6D3F3F"/>
<path d="M591.243 624.842L622.238 628.279C621.691 628.717 621.164 629.177 620.596 629.586C597.565 646.191 469.326 635.431 437.878 628.724C472.287 627.203 510.247 632.855 543.818 625.895C559.478 625.607 575.659 626.128 591.243 624.842Z" fill="#483241"/>
<path d="M1235.26 627.41L1293.64 628.224L1298.56 630.884L1297.72 634.685C1296.31 635.528 1295.49 636.104 1294.03 636.711C1273.22 645.389 1223.77 644.559 1202.17 640.512C1188.53 637.959 1175.52 632.585 1162.48 628.012C1186.72 626.871 1210.99 629.027 1235.26 627.41Z" fill="#322D37"/>
<path d="M1358.98 584.229C1364.01 583.604 1367.8 582.674 1372.36 580.405C1387.7 584.41 1404.87 586.771 1415.37 599.701C1415.97 602.02 1416.86 604.531 1417.04 606.908C1425.92 612.473 1430.79 617.635 1433.27 628.172C1436.97 643.777 1431.63 666.199 1439.32 679.631L1444.24 681.712L1444.4 683.149C1346.15 715.241 1236.68 697.445 1135.21 693.772C1088.73 692.089 1042.1 693.945 995.547 692.531C1078.7 679.345 1159.63 675.806 1243.67 676.335C1290.66 676.628 1342.28 685.481 1388.33 676.275C1392.78 675.259 1399.71 673.102 1403.43 670.403C1408.82 666.46 1408.96 664.039 1409.5 657.929C1403.22 642.955 1386.08 634.355 1372.99 625.926C1377.33 625.405 1383.25 625.225 1386.99 622.892C1391.23 620.264 1390.71 618.031 1391.34 613.497C1392.12 612.591 1392.38 612.355 1393.04 611.162C1395.63 606.429 1394.56 604.389 1393.2 599.614C1384.5 589.14 1371.76 586.646 1358.98 584.229Z" fill="#232125"/>
<path d="M1391.34 613.497C1403.3 617.036 1411.81 623.481 1417.67 634.712C1421.78 642.56 1423.27 652.105 1420 660.544C1417.67 666.589 1412.93 671.264 1406.99 673.804C1401.18 676.301 1394.56 676.162 1388.32 676.275C1392.78 675.259 1399.71 673.102 1403.43 670.403C1408.82 666.461 1408.95 664.039 1409.5 657.929C1403.22 642.955 1386.07 634.356 1372.98 625.926C1377.33 625.405 1383.25 625.225 1386.99 622.892C1391.23 620.264 1390.71 618.031 1391.34 613.497Z" fill="#322D37"/>
<path d="M928.768 583.16C955.133 583.172 981.463 584.144 1007.76 586.074C1017.52 591.202 1027.39 594.427 1037.91 597.644L1011.7 612.511C1016.54 615.76 1022.68 618.383 1024.99 623.763L1024.37 625.118L983.044 625.008C901.404 632.679 816.168 635.197 734.639 625.684C721.584 626.472 708.191 625.603 695.105 625.352C694.039 623.752 694.05 622.1 693.762 620.231C705.715 603.93 752.817 594.152 771.482 588.786C815.862 592.207 856.391 594.964 900.582 587.796C909.978 585.613 919.185 584.215 928.768 583.16Z" fill="#EFAD73"/>
<path d="M928.768 583.16C955.133 583.172 981.463 584.144 1007.76 586.074C1017.52 591.202 1027.39 594.427 1037.91 597.644L1011.7 612.511C1016.54 615.76 1022.68 618.383 1024.99 623.763L1024.37 625.118L983.044 625.008C953.714 602.487 876.203 596.089 839.941 595.966C807.304 595.856 758.417 602.231 734.639 625.684C721.584 626.472 708.191 625.603 695.105 625.352C694.039 623.752 694.05 622.1 693.762 620.231C705.715 603.93 752.817 594.152 771.482 588.786C815.862 592.207 856.391 594.964 900.582 587.796C909.978 585.613 919.185 584.215 928.768 583.16Z" fill="#EA9363"/>
<path d="M928.77 583.16C955.135 583.172 981.464 584.144 1007.76 586.074C1017.52 591.202 1027.39 594.427 1037.91 597.644L1011.71 612.511C977.09 595.05 939.084 588.456 900.584 587.796C909.979 585.613 919.186 584.215 928.77 583.16Z" fill="#CA7864"/>
<path d="M1337.07 581.082C1344.37 582.093 1351.7 583.001 1358.98 584.229C1371.75 586.645 1384.5 589.14 1393.19 599.614C1394.55 604.388 1395.63 606.428 1393.04 611.161C1392.38 612.354 1392.12 612.59 1391.33 613.496C1390.71 618.03 1391.23 620.263 1386.99 622.891C1383.24 625.224 1377.33 625.404 1372.98 625.925C1346.53 626.367 1320.08 627.133 1293.64 628.224L1235.26 627.409C1211.28 620.098 1062.3 625.789 1024.38 625.119L1025 623.763C1022.68 618.383 1016.54 615.76 1011.71 612.511L1037.91 597.645C1027.39 594.428 1017.52 591.202 1007.76 586.074L1019.31 585.695C1128.19 587.448 1227.77 587.752 1337.07 581.082Z" fill="url(#paint3_linear_66_520)"/>
<path d="M1290.78 520.534L1317.38 520.618L1317.98 525.011C1325.34 525.741 1333.01 525.786 1339.16 530.307C1341.7 535.341 1341.99 536.249 1341.52 541.843C1346.54 546.191 1350.05 548.998 1351.62 555.812C1351.31 566.438 1344.16 573.883 1337.07 581.082C1227.77 587.752 1128.19 587.448 1019.31 585.694L1007.76 586.074C981.465 584.144 955.136 583.173 928.771 583.16C919.187 584.215 909.98 585.613 900.585 587.796C856.394 594.964 815.865 592.207 771.485 588.786L745.626 585.697C744.95 584.851 744.639 584.427 743.833 583.595C731.67 571.053 700.387 572.762 684.146 572.254C684.783 559.911 684.743 547.487 684.971 535.126C721.521 538.027 772.548 547.521 805.723 529.765L805.422 525.88C815.53 525.354 825.658 524.309 835.749 523.5C865.962 517.791 905.117 518.461 935.685 522.087C940.258 522.83 945.627 523.074 949.729 525.241C1018.75 525.875 1086.99 522.149 1156.04 525.697C1181.83 524.778 1272.46 533.299 1290.78 520.534Z" fill="#974F2F"/>
<path d="M928.773 583.16C953.999 562.764 1025.18 573.05 1056.02 574.56C1061.85 575.534 1072.85 575.699 1076.93 579.62C1058.64 585.356 1037.74 580.636 1019.31 585.694L1007.76 586.073C981.468 584.143 955.138 583.172 928.773 583.16Z" fill="#322D37"/>
<path d="M1290.78 520.534L1317.38 520.618L1317.98 525.011C1325.34 525.741 1333.01 525.786 1339.16 530.307C1341.7 535.341 1341.99 536.249 1341.52 541.843C1346.54 546.191 1350.05 548.998 1351.62 555.812C1351.31 566.438 1344.16 573.883 1337.07 581.082C1227.77 587.752 1128.19 587.448 1019.31 585.694C1037.74 580.637 1058.64 585.357 1076.93 579.621C1072.85 575.7 1061.85 575.535 1056.02 574.561C1079.66 575.802 1117.4 574.168 1136.7 558.977C1141.38 555.291 1142.12 554.192 1142.88 548.38C1117.82 510.246 983.187 552.804 949.729 525.241C1018.74 525.875 1086.99 522.149 1156.04 525.697C1181.83 524.778 1272.46 533.299 1290.78 520.534Z" fill="#6D3F3F"/>
<path d="M1290.79 520.534L1317.38 520.618L1317.99 525.011C1314.58 527.037 1309.92 527.707 1306.05 528.485C1272.02 535.317 1186.15 545.917 1156.05 525.697C1181.83 524.778 1272.46 533.299 1290.79 520.534Z" fill="#483241"/>
<path d="M739.631 511.778C766.917 520.388 812.307 511.346 833.564 522.383L835.744 523.5C825.653 524.309 815.525 525.354 805.417 525.88L805.718 529.765C772.543 547.521 721.516 538.027 684.966 535.126C684.738 547.488 684.778 559.912 684.142 572.255C700.382 572.762 731.665 571.053 743.828 583.595C744.634 584.427 744.946 584.852 745.621 585.697L771.48 588.786C752.815 594.153 705.712 603.93 693.759 620.231C694.047 622.101 694.037 623.752 695.102 625.352C670.935 624.752 646.382 627.017 622.235 628.279L591.24 624.841C575.657 626.127 559.476 625.606 543.816 625.894C495.406 625.36 446.995 625.33 398.585 625.805C369.519 647.81 311.095 619.137 281.262 634.402C278.299 633.166 275.935 631.315 273.325 629.478C270.299 624.302 270.029 621.381 270.77 615.472L286.424 600.713C295.44 598.286 306.063 589.954 314.226 585.098C322.317 582.6 330.666 580.653 338.854 578.469C342.446 573.571 344.281 566.252 346.422 560.548C348.88 550.304 349.147 540.498 349.315 529.995C364.558 530.71 379.883 527.707 395.443 528.534L401.176 521.076C450.145 519.22 499.834 525.532 548.499 520.244C552.69 517.511 556.52 514.144 560.423 511.011C619.746 513.992 680.231 513.173 739.631 511.778Z" fill="#6D3F3F"/>
<path d="M605.484 588.544C628.982 586.224 652.079 585.727 675.681 586.046C655.055 597.641 633.223 603.968 610.547 610.258C606.317 605.578 599.317 602.928 594.254 598.824C596.715 593.106 600.437 591.779 605.484 588.544Z" fill="#AE6766"/>
<path d="M401.181 521.076C450.15 519.22 499.839 525.531 548.504 520.243L568.104 523.675C523.507 551.895 444.365 539.513 395.448 528.534L401.181 521.076Z" fill="#483241"/>
<path d="M739.64 511.778C766.925 520.388 812.316 511.346 833.572 522.383L835.753 523.5C825.661 524.309 815.533 525.354 805.426 525.88C762.386 524.516 719.344 525.65 676.297 525.252C640.252 524.917 604.139 522.851 568.107 523.676L548.508 520.244C552.699 517.511 556.529 514.144 560.432 511.011C619.754 513.992 680.239 513.173 739.64 511.778Z" fill="#CA7864"/>
<path d="M745.627 585.698L771.485 588.787C752.82 594.154 705.718 603.931 693.765 620.233C694.053 622.102 694.043 623.753 695.108 625.353C670.94 624.753 646.388 627.018 622.241 628.28L591.246 624.842C596.581 618.256 603.38 614.544 610.552 610.259C633.228 603.968 655.061 597.641 675.686 586.046L745.627 585.698Z" fill="#CA7864"/>
<path d="M346.422 560.548C387.593 587.863 501.397 556.32 533.038 581.046C554.824 590.305 582.128 588.412 605.484 588.543C600.437 591.779 596.714 593.106 594.254 598.823C599.316 602.928 606.317 605.577 610.547 610.258C603.374 614.543 596.576 618.255 591.24 624.842C575.657 626.127 559.476 625.606 543.816 625.894C495.406 625.36 446.995 625.331 398.585 625.805C369.519 647.811 311.095 619.138 281.262 634.402C278.299 633.167 275.935 631.316 273.325 629.478C270.299 624.303 270.029 621.381 270.77 615.473L286.424 600.713C295.44 598.287 306.063 589.954 314.226 585.098C322.317 582.601 330.666 580.653 338.854 578.47C342.446 573.572 344.281 566.253 346.422 560.548Z" fill="url(#paint4_linear_66_520)"/>
<path d="M281.262 634.403C278.299 633.167 275.935 631.316 273.325 629.479C270.299 624.303 270.029 621.382 270.77 615.473C313.464 620.874 355.464 625.431 398.585 625.806C369.519 647.811 311.095 619.138 281.262 634.403Z" fill="#483241"/>
<path d="M346.429 560.548C387.6 587.863 501.404 556.32 533.046 581.046C505.37 581.64 477.26 579.483 449.553 578.813C412.658 578.26 375.76 578.145 338.861 578.47C342.453 573.572 344.288 566.253 346.429 560.548Z" fill="#322D37"/>
<path d="M525.5 40.4995C583.896 40.8896 623.094 36.004 681.503 35.6165C702.086 35.4804 724.927 33.6846 745.239 36.9333C751.636 40.6061 757.181 44.3863 762.841 49.1377L763.275 53.368C759.671 56.7293 756.89 58.2032 752.173 59.6011C794.103 65.02 835.216 67.965 877.572 66.8891C939.732 65.3106 1105.6 47.2658 1155.68 62.1219C1174.34 67.2162 1185.94 75.5488 1200.52 87.6222C1213.48 91.7714 1235.91 97.0882 1242.77 109.981C1244.5 113.253 1244.24 114.855 1243.87 118.35C1254.29 122.107 1264.47 126.9 1269.55 137.345C1269.5 142.806 1269.29 143.711 1266.41 148.345C1277.38 170.913 1287.61 196.633 1278.74 221.9C1275.18 232.06 1268.14 238.992 1258.42 243.456C1249.52 247.553 1239.97 248.56 1230.26 248.843C1223.56 252.325 1217.51 255.681 1211.54 260.398L1215.68 267.814C1249.16 290.055 1359.71 267.882 1396.02 254.935C1414.73 248.267 1430.62 235.935 1450.02 230.62C1480.26 222.34 1513.45 220.029 1544.58 216.094C1548.69 221.832 1549.5 222.913 1550 229.887C1554.21 233.432 1558.58 235.825 1559.13 241.814C1560 251.388 1558.11 298.841 1554.32 306.495C1554.29 311.414 1553.71 313.985 1551.39 318.341C1552.85 329.197 1543.51 338.624 1547.56 348.577C1552.93 354.26 1555.13 359.297 1554.89 367.158C1554.71 373.791 1553.19 380.509 1548.98 385.742C1547.56 392.682 1542.96 395.663 1540.47 401.857C1538.87 405.797 1538.95 409.815 1537.75 413.739L1539.16 422.04C1537.3 424.483 1535.55 426.941 1533.35 429.09C1552.33 435.048 1578.9 442.017 1588.37 461.292C1588.58 461.716 1588.74 462.164 1588.92 462.601L1588.69 465.193C1592.09 468.554 1596.91 472.261 1598.4 476.881C1600.76 483.763 1601.12 484.871 1599.4 491.873C1595.91 495.397 1592.56 498.92 1588.56 501.881C1585.63 508.999 1583.27 515.054 1577.8 520.661C1578.22 525.41 1578.92 526.897 1575.7 530.811C1569 538.965 1550.05 539.397 1540.21 539.845L1537.88 539.944C1535.42 545.651 1532.35 547.13 1526.67 549.329C1478.43 567.986 1421.7 563.743 1372.35 580.403C1367.8 582.672 1364 583.602 1358.98 584.227C1351.7 582.999 1344.37 582.091 1337.06 581.081C1344.16 573.882 1351.31 566.437 1351.62 555.811C1350.05 548.997 1346.54 546.19 1341.51 541.842C1341.99 536.248 1341.7 535.34 1339.16 530.306C1333.01 525.785 1325.34 525.74 1317.98 525.01L1317.38 520.617L1290.78 520.533C1272.46 533.298 1181.83 524.777 1156.04 525.696C1086.99 522.148 1018.74 525.874 949.727 525.24C945.625 523.072 940.255 522.829 935.682 522.086C905.114 518.46 865.959 517.79 835.747 523.499L833.566 522.381C812.31 511.345 766.919 520.387 739.634 511.777C680.233 513.172 619.748 513.991 560.426 511.01C556.523 514.143 552.693 517.51 548.502 520.243C499.836 525.531 450.148 519.219 401.179 521.075C394.379 520.716 387.621 519.981 380.904 518.871C374.187 517.759 367.551 516.278 360.998 514.428L351.11 508.74C362.26 502.222 373.171 495.58 383.899 488.376L383.035 487.358C390.54 486.439 398.961 486.426 405.304 482.017C400.954 471.376 394.511 460.7 391.299 449.721C382.577 419.917 394.291 377.399 396.236 346.357C394.071 319.506 396.823 289.547 402.875 263.338L408.731 246.031L410.802 235.615C418.613 209.542 417.49 179.45 419.661 152.358L401.074 134.136L397.577 125.628C440.318 91.6117 491.062 70.9179 536.879 41.5931C526.499 41.6088 535.778 41.9812 525.5 40.4995Z" fill="#6D3F3F"/>
<path d="M383.899 488.376L659.447 497.641C704.128 498.897 751.351 496.298 795.629 501.706C776.851 504.204 757.754 506.034 739.634 511.777C680.233 513.172 619.748 513.992 560.426 511.01C556.523 514.144 552.693 517.51 548.502 520.243C499.836 525.531 450.148 519.22 401.179 521.076C394.379 520.716 387.621 519.981 380.904 518.871C374.187 517.76 367.551 516.279 360.998 514.429L351.11 508.74C362.26 502.222 373.171 495.581 383.899 488.376Z" fill="#915554"/>
<path d="M360.998 514.43C361.278 514.237 361.561 514.048 361.838 513.852C362.213 513.585 362.569 513.294 362.951 513.038C386.77 497.074 530.91 505.292 560.426 511.012C556.523 514.145 552.693 517.512 548.502 520.245C499.837 525.533 450.148 519.221 401.179 521.077C394.38 520.718 387.621 519.983 380.904 518.873C374.187 517.761 367.551 516.28 360.998 514.43Z" fill="#AE6766"/>
<path d="M481.729 334.137L493.562 342.446C492.366 362.006 484.316 397.624 499.182 413.124C507.659 421.959 533.984 423.077 546.314 423.967C621.246 429.391 698.519 425.53 773.731 425.98C887.714 426.666 1002.35 429.952 1116.28 426.766C1142.45 426.035 1186.62 428.674 1205.59 408.857C1206.04 408.394 1206.49 407.923 1206.93 407.454C1207.92 414.606 1206.67 420.695 1202.35 426.535C1199.29 430.703 1195.52 434.562 1191.59 437.918C1194.39 452.923 1195.83 471.488 1205.28 483.829L1209.81 486.3L1207.35 492.112C1213.58 496.643 1220.86 494.235 1228.21 495.533C1212.11 506.74 1124.55 496.423 1103.16 494.868C1121.8 480.342 1151.83 498.232 1171.59 485.245C1177.17 481.596 1180.15 475.842 1181.3 469.389C1182.38 463.308 1181.56 457.138 1177.48 452.318C1168.76 441.991 1151.67 439.297 1139 438.321C1076.31 433.496 1012.86 440.978 950.109 441.501C794.551 442.8 638.016 444.993 482.614 438.588C478.434 402.679 476.098 369.959 481.729 334.137Z" fill="#483241"/>
<path d="M1209.81 486.302C1227.51 486.166 1245.28 484.867 1262.95 483.933C1269.21 484.82 1278.27 484.92 1283.82 487.833C1297.75 488.933 1315.76 489.04 1325.99 500.202C1328.69 503.166 1329.71 506.797 1330.49 510.637L1328.4 511.158C1325.1 515.888 1322.64 518.179 1317.38 520.619L1290.78 520.535C1272.46 533.299 1181.83 524.779 1156.04 525.697C1086.99 522.15 1018.74 525.875 949.728 525.242C945.626 523.074 940.256 522.831 935.683 522.087C905.115 518.462 865.96 517.791 835.748 523.501L833.567 522.383C812.31 511.346 766.92 520.388 739.635 511.778C757.755 506.035 776.852 504.205 795.63 501.708L797.159 501.807C824.8 496.734 859.528 499.899 887.903 499.291C959.648 497.447 1031.4 495.973 1103.16 494.87C1124.55 496.425 1212.12 506.742 1228.22 495.535C1220.86 494.236 1213.58 496.645 1207.35 492.113L1209.81 486.302Z" fill="#AE6766"/>
<path d="M935.686 522.087C949.214 514.728 1262.22 509.013 1289.84 516.466L1290.78 520.534C1272.46 533.299 1181.83 524.778 1156.05 525.697C1086.99 522.15 1018.75 525.875 949.73 525.241C945.628 523.074 940.259 522.83 935.686 522.087Z" fill="#CA7864"/>
<path d="M1209.81 486.302C1227.51 486.166 1245.28 484.867 1262.95 483.933C1269.21 484.82 1278.27 484.92 1283.82 487.833C1297.74 488.933 1315.76 489.04 1325.99 500.202C1328.69 503.166 1329.71 506.797 1330.49 510.637L1328.4 511.158C1322.46 504.896 1308.37 504.252 1300.1 503.857C1230.89 500.537 1159.31 504.472 1089.92 505.268C991.924 506.391 895.086 505.108 797.158 501.807C824.8 496.734 859.528 499.899 887.902 499.291C959.648 497.447 1031.4 495.973 1103.16 494.87C1124.55 496.425 1212.12 506.742 1228.22 495.535C1220.86 494.236 1213.58 496.645 1207.35 492.113L1209.81 486.302Z" fill="#915554"/>
<path d="M1209.82 486.302C1227.51 486.166 1245.29 484.867 1262.96 483.933C1269.21 484.82 1278.27 484.92 1283.82 487.833C1264.61 487.896 1246.62 496.401 1228.22 495.535C1220.86 494.236 1213.59 496.645 1207.36 492.113L1209.82 486.302Z" fill="#322D37"/>
<path d="M1184.63 207.205C1185.76 206.577 1186.1 206.44 1187.17 205.456C1191.83 201.069 1191.13 196.608 1191.52 190.697C1200.94 197.244 1208.87 202.241 1211.02 214.317C1211.88 219.205 1212.41 224.904 1211.47 229.804C1212.67 236.354 1213.22 240.878 1218.56 245.475C1222.36 246.784 1226.26 248.538 1230.26 248.844C1223.56 252.326 1217.51 255.682 1211.54 260.399C1213.09 281.729 1218.66 320.789 1208.17 339.687C1226.99 336.051 1270.73 324.014 1287.75 336.229C1292.25 339.449 1294.35 344.245 1294.63 349.703C1294.76 352.344 1294.08 355.25 1293.56 357.834C1296.6 366.363 1296.81 372.321 1293.48 381.07C1304.66 389.669 1308.51 404.551 1310.18 418.031C1312.38 435.701 1307.88 455.308 1296.81 469.416C1288.01 480.636 1276.18 482.005 1262.96 483.932C1245.29 484.866 1227.51 486.165 1209.82 486.301L1205.29 483.829C1195.84 471.489 1194.4 452.924 1191.6 437.918C1195.52 434.562 1199.29 430.704 1202.36 426.536C1206.67 420.696 1207.93 414.607 1206.94 407.455C1206.49 407.923 1206.05 408.395 1205.6 408.858C1186.62 428.675 1142.46 426.036 1116.28 426.766C1002.35 429.952 887.72 426.667 773.738 425.981C698.525 425.531 621.253 429.392 546.32 423.968C533.99 423.078 507.666 421.96 499.189 413.125C484.322 397.625 492.372 362.007 493.569 342.446C496.108 327.059 495.553 310.499 500.184 295.598L501.113 292.441L507.063 294.522C506.192 321.132 506.498 349.038 511.794 375.237C525.728 379.313 539.37 382.675 553.807 384.389C585.14 388.112 642.478 383.274 668.876 401.811C717.944 404.764 769.591 407.949 818.654 404.421C866.484 405.74 915.752 406.79 963.532 404.423C997.087 405.384 1030.48 403.701 1063.98 401.866L1152.04 402.251L1154.45 394.716C1163.04 393.41 1170.68 390.353 1176.31 383.489C1198.14 356.876 1187.17 303.399 1184.14 271.368C1183.95 262.161 1179.34 252.514 1176.18 243.896C1176.2 243.247 1176.31 242.595 1176.28 241.946C1175.99 235.071 1172.46 233.684 1167.57 229.815C1173.8 226.645 1176.23 225.639 1180.18 219.629C1179.4 212.982 1178.72 211.891 1174.61 206.561L1184.63 207.205Z" fill="#6D3F3F"/>
<path d="M1209.57 358.771C1213.84 359.444 1216.49 359.098 1219.52 362.645C1223.5 367.279 1224.44 374.09 1223.42 379.931C1221.9 388.452 1218.29 391.609 1211.62 396.402C1210.62 397.8 1208.95 398.31 1207.45 399.083C1203.4 388.036 1211.07 371.363 1209.57 358.771Z" fill="#322D37"/>
<path d="M1174.6 206.561L1184.63 207.205C1190.96 214.778 1191.78 224.155 1190.78 233.663C1190.36 237.988 1189.16 241.483 1186.96 245.245L1182.27 247.661C1179.97 246.462 1178.11 245.624 1176.17 243.896C1176.2 243.247 1176.3 242.595 1176.28 241.946C1175.99 235.072 1172.46 233.684 1167.56 229.815C1173.79 226.645 1176.23 225.64 1180.18 219.629C1179.39 212.983 1178.71 211.891 1174.6 206.561Z" fill="#915554"/>
<path d="M1184.14 271.368C1193.56 277.481 1195.6 286.29 1197.83 296.688C1204 325.45 1202.72 367.856 1185.71 392.827C1183.74 395.704 1181.28 398.125 1178.69 400.416C1171.23 406.835 1161.6 408.838 1152.04 410.167V402.251L1154.45 394.717C1163.04 393.411 1170.68 390.353 1176.31 383.489C1198.14 356.877 1187.17 303.4 1184.14 271.368Z" fill="#974F2F"/>
<path d="M501.111 292.442L507.061 294.523C506.19 321.133 506.496 349.039 511.792 375.238C525.726 379.314 539.368 382.675 553.805 384.39C585.138 388.113 642.476 383.275 668.874 401.812C717.942 404.765 769.589 407.95 818.652 404.422C866.482 405.741 915.75 406.791 963.53 404.424C997.085 405.385 1030.48 403.702 1063.98 401.867L1152.04 402.252V410.168C1103.92 425.411 1011.66 411.474 958.87 411.364L504.865 410.956C499.26 373.094 500.483 333.793 500.182 295.599L501.111 292.442Z" fill="#AE6766"/>
<path d="M511.795 375.237C525.73 379.313 539.371 382.675 553.808 384.389C585.141 388.112 642.479 383.274 668.877 401.811L512.164 404.504L511.795 375.237Z" fill="#6D3F3F"/>
<path d="M1211.54 260.4L1215.68 267.816C1249.16 290.057 1359.71 267.884 1396.02 254.937C1414.74 248.269 1430.63 235.937 1450.02 230.622C1480.26 222.342 1513.45 220.031 1544.58 216.096C1548.69 221.834 1549.5 222.916 1550 229.889C1554.21 233.434 1558.59 235.827 1559.14 241.816C1560 251.39 1558.11 298.843 1554.32 306.497C1554.29 311.416 1553.72 313.987 1551.39 318.343C1552.85 329.199 1543.51 338.626 1547.56 348.579C1552.93 354.262 1555.13 359.299 1554.89 367.16C1554.71 373.793 1553.19 380.511 1548.98 385.744C1547.56 392.684 1542.96 395.665 1540.47 401.859C1538.87 405.799 1538.95 409.817 1537.75 413.741L1539.16 422.043C1537.3 424.485 1535.55 426.943 1533.35 429.092C1552.33 435.05 1578.9 442.019 1588.38 461.294C1588.59 461.718 1588.74 462.166 1588.93 462.603L1588.69 465.195C1592.09 468.556 1596.91 472.263 1598.4 476.883C1600.76 483.765 1601.12 484.873 1599.4 491.875C1595.92 495.399 1592.56 498.922 1588.56 501.883C1585.63 509.001 1583.27 515.056 1577.8 520.663C1578.22 525.412 1578.93 526.899 1575.71 530.813C1569 538.967 1550.05 539.399 1540.21 539.847L1537.88 539.946C1535.42 545.653 1532.35 547.132 1526.67 549.331C1478.43 567.988 1421.7 563.745 1372.35 580.405C1367.8 582.674 1364 583.604 1358.98 584.229C1351.7 583.002 1344.37 582.093 1337.07 581.083C1344.16 573.884 1351.31 566.439 1351.62 555.813C1350.05 548.999 1346.54 546.192 1341.52 541.844C1341.99 536.25 1341.7 535.342 1339.16 530.308C1333.01 525.787 1325.34 525.742 1317.98 525.012L1317.38 520.619C1322.64 518.179 1325.1 515.889 1328.4 511.158L1330.49 510.637C1329.71 506.797 1328.69 503.166 1325.99 500.203C1315.76 489.04 1297.75 488.933 1283.82 487.833C1278.27 484.92 1269.21 484.82 1262.96 483.933C1276.18 482.006 1288.01 480.637 1296.8 469.417C1307.88 455.31 1312.38 435.702 1310.18 418.032C1308.51 404.553 1304.66 389.671 1293.48 381.071C1296.8 372.322 1296.59 366.364 1293.56 357.835C1294.08 355.251 1294.76 352.346 1294.63 349.704C1294.34 344.246 1292.25 339.45 1287.75 336.23C1270.73 324.016 1226.99 336.052 1208.16 339.689C1218.66 320.79 1213.09 281.73 1211.54 260.4Z" fill="#322D37"/>
<path d="M1503.14 448.958C1510.55 447.757 1520.81 446.723 1527.04 442.27C1532.62 438.283 1532.64 435.327 1533.35 429.092C1552.33 435.05 1578.9 442.018 1588.38 461.293C1588.59 461.718 1588.74 462.165 1588.93 462.602L1588.69 465.194C1558.25 469.233 1528.11 477.587 1497.85 483.142C1451.02 491.741 1402.64 498.26 1356.31 509.187C1355.89 507.498 1355.52 506.05 1354.71 504.506C1348.53 492.846 1333.4 489.985 1321.83 486.859C1359.63 485.875 1462.12 472.508 1494.68 457.956C1500.39 455.406 1501.05 454.427 1503.14 448.958Z" fill="#5B475B"/>
<path d="M1395.68 297.726C1406.07 303.891 1408.87 311.601 1411.8 322.844C1421.02 358.19 1420 416.119 1401.49 448.101C1398.4 453.444 1393.66 459.107 1388.58 462.591C1407.8 462.651 1444.21 466.185 1458.22 449.934C1459.63 448.274 1460.73 445.963 1461.23 443.858C1472.22 442.565 1493.98 437.539 1502.98 444.444L1503.14 448.957C1501.04 454.426 1500.39 455.405 1494.68 457.955C1462.12 472.507 1359.63 485.874 1321.83 486.858C1333.4 489.984 1348.53 492.845 1354.71 504.505C1355.52 506.049 1355.89 507.497 1356.3 509.186C1364.76 517.421 1372.59 525.125 1373.14 537.728C1373.71 550.366 1365.2 555.72 1362.61 566.613L1363.79 566.757C1364.18 566.346 1364.58 565.929 1365 565.526C1366.57 563.969 1365.83 564.461 1367.51 563.678C1379.47 570.72 1517.98 520.458 1537.88 539.945C1535.42 545.652 1532.35 547.131 1526.67 549.33C1478.43 567.987 1421.7 563.743 1372.35 580.403C1367.8 582.673 1364 583.602 1358.97 584.228C1351.7 583 1344.37 582.092 1337.06 581.081C1344.16 573.882 1351.3 566.437 1351.62 555.811C1350.05 548.997 1346.54 546.191 1341.51 541.843C1341.99 536.249 1341.7 535.34 1339.16 530.306C1333.01 525.785 1325.34 525.741 1317.98 525.01L1317.38 520.618C1322.64 518.178 1325.1 515.887 1328.4 511.157L1330.49 510.636C1329.71 506.795 1328.69 503.165 1325.99 500.201C1315.75 489.039 1297.74 488.931 1283.82 487.832C1278.27 484.918 1269.21 484.819 1262.95 483.931C1276.17 482.005 1288.01 480.636 1296.8 469.416C1307.88 455.308 1312.38 435.701 1310.18 418.03C1308.5 404.551 1304.66 389.669 1293.48 381.07C1295.05 380.536 1296.75 379.871 1298.42 379.635C1304.29 378.813 1306.15 380.74 1310.78 383.795C1319.58 397.371 1319.03 414.824 1317.4 430.374C1315.49 448.599 1311.96 468.13 1297.09 480.251C1316.88 479.672 1338.29 480.426 1357.48 475.086C1372.17 470.997 1380.89 462.889 1388.32 449.722C1406.04 418.368 1412.56 362.596 1402.04 327.883C1398.97 317.82 1395.23 312.14 1385.94 307.053L1395.68 297.726Z" fill="#0C2742"/>
<path d="M1328.4 511.156L1330.49 510.635C1338.56 513.999 1347.19 516.69 1353.01 523.499C1353.74 528.046 1354.55 529.552 1351.72 533.544C1349.29 536.989 1344.97 539.489 1341.51 541.842C1341.98 536.248 1341.7 535.34 1339.16 530.306C1333.01 525.785 1325.34 525.74 1317.98 525.01L1317.38 520.617C1322.64 518.177 1325.1 515.887 1328.4 511.156Z" fill="#322D37"/>
<path d="M1293.56 357.834C1294.97 358.431 1295.6 358.756 1297.22 359.109C1310.34 361.989 1341.67 323.745 1354.76 315.106C1363.82 309.135 1375.05 304.713 1385.94 307.054C1395.23 312.14 1398.98 317.821 1402.04 327.884C1412.56 362.596 1406.04 418.369 1388.32 449.722C1380.89 462.89 1372.17 470.997 1357.48 475.086C1338.3 480.427 1316.88 479.673 1297.09 480.251C1311.96 468.131 1315.49 448.599 1317.41 430.374C1319.03 414.824 1319.58 397.371 1310.78 383.795C1306.15 380.74 1304.29 378.813 1298.43 379.635C1296.75 379.871 1295.05 380.536 1293.48 381.07C1296.8 372.321 1296.59 366.363 1293.56 357.834Z" fill="#483241"/>
<path d="M1211.54 260.4L1215.68 267.816C1249.16 290.057 1359.71 267.884 1396.02 254.937C1414.74 248.269 1430.63 235.937 1450.02 230.622C1480.26 222.342 1513.45 220.031 1544.58 216.096C1548.69 221.834 1549.5 222.916 1550 229.889C1554.21 233.434 1558.59 235.827 1559.14 241.816C1560 251.39 1558.11 298.843 1554.32 306.497C1554.29 311.416 1553.72 313.987 1551.39 318.343C1552.85 329.199 1543.51 338.626 1547.56 348.579C1552.93 354.262 1555.13 359.299 1554.89 367.16C1554.71 373.793 1553.19 380.511 1548.98 385.744C1547.56 392.684 1542.96 395.665 1540.47 401.859C1538.87 405.799 1538.95 409.817 1537.75 413.741L1539.16 422.043C1537.3 424.485 1535.55 426.943 1533.35 429.092C1532.64 435.328 1532.62 438.283 1527.04 442.27C1520.81 446.723 1510.55 447.757 1503.14 448.959L1502.98 444.446C1493.98 437.54 1472.22 442.566 1461.23 443.859C1460.73 445.964 1459.63 448.276 1458.22 449.935C1444.21 466.187 1407.8 462.653 1388.58 462.593C1393.66 459.108 1398.4 453.446 1401.49 448.103C1420 416.121 1421.02 358.191 1411.8 322.846C1408.87 311.602 1406.07 303.893 1395.68 297.728L1385.94 307.055C1375.05 304.714 1363.82 309.136 1354.76 315.107C1341.67 323.746 1310.34 361.99 1297.22 359.11C1295.6 358.757 1294.97 358.432 1293.56 357.835C1294.08 355.251 1294.76 352.346 1294.63 349.704C1294.34 344.246 1292.25 339.45 1287.75 336.23C1270.73 324.016 1226.99 336.052 1208.16 339.689C1218.66 320.79 1213.09 281.73 1211.54 260.4Z" fill="#322D37"/>
<path d="M1395.68 297.726C1410.73 284.888 1429.24 266.967 1450.58 268.006C1460.03 268.464 1468.06 272.92 1474.03 280.072C1494.24 304.234 1489.21 351.206 1486.05 380.596C1484.14 398.481 1481.1 427.523 1467.15 440.101C1465.39 441.68 1463.32 442.832 1461.23 443.858C1460.73 445.963 1459.63 448.274 1458.22 449.934C1444.21 466.185 1407.8 462.651 1388.59 462.591C1393.66 459.107 1398.4 453.444 1401.49 448.101C1420 416.12 1421.02 358.19 1411.81 322.844C1408.87 311.601 1406.07 303.891 1395.68 297.726Z" fill="#483241"/>
<path d="M837.244 229.389C879.967 220.101 933.114 227.23 977.156 226.876C1008.3 226.628 1146.65 215.266 1166.73 229.06C1167.04 229.272 1167.3 229.562 1167.56 229.816C1172.46 233.685 1175.99 235.073 1176.28 241.947C1176.31 242.596 1176.2 243.248 1176.18 243.897C1179.34 252.515 1183.95 262.162 1184.13 271.369C1187.17 303.4 1198.14 356.877 1176.31 383.49C1170.68 390.354 1163.03 393.411 1154.45 394.718L1152.04 402.252L1063.98 401.867C1030.48 403.702 997.085 405.385 963.53 404.424C915.75 406.791 866.483 405.741 818.652 404.422C769.589 407.951 717.942 404.765 668.874 401.812C642.476 383.275 585.138 388.113 553.805 384.39C539.368 382.676 525.727 379.314 511.792 375.238C506.496 349.039 506.19 321.133 507.062 294.523C508.611 275.212 508.028 255.921 507.679 236.573C543.3 226.874 572.682 226.701 609.143 230.261C685.154 228.751 761.286 231.468 837.244 229.389Z" fill="#7C4325"/>
<path d="M1063.97 401.865C1065.35 400.944 1065.44 400.831 1067.17 399.98C1085.98 390.737 1130.8 382.391 1150.88 389.182C1152.93 389.87 1153.55 392.807 1154.44 394.716L1152.04 402.25L1063.97 401.865Z" fill="#6D3F3F"/>
<path d="M818.65 404.421C848.624 386.342 915.086 390.4 948.494 398.295C953.581 399.497 959.316 401.269 963.528 404.423C915.748 406.79 866.481 405.74 818.65 404.421Z" fill="#6D3F3F"/>
<path d="M524.5 40.4995C582.896 40.8896 623.095 36.004 681.503 35.6165C702.087 35.4804 724.928 33.6846 745.239 36.9333C751.637 40.6061 757.182 44.3863 762.841 49.1377L763.276 53.368C759.671 56.7293 756.891 58.2032 752.174 59.6011C794.103 65.02 835.216 67.965 877.573 66.8891C939.733 65.3106 1105.6 47.2658 1155.68 62.1219C1174.34 67.2162 1185.94 75.5488 1200.52 87.6222C1213.48 91.7714 1235.91 97.0882 1242.77 109.981C1244.5 113.253 1244.24 114.855 1243.87 118.35C1254.29 122.107 1264.47 126.9 1269.55 137.345C1269.5 142.806 1269.29 143.711 1266.41 148.345C1277.38 170.913 1287.61 196.633 1278.74 221.901C1275.18 232.06 1268.14 238.992 1258.43 243.456C1249.53 247.553 1239.97 248.56 1230.26 248.843C1226.25 248.537 1222.35 246.783 1218.56 245.474C1213.22 240.877 1212.67 236.353 1211.46 229.804C1212.4 224.903 1211.88 219.204 1211.02 214.317C1208.87 202.241 1200.94 197.243 1191.51 190.696C1191.12 196.607 1191.83 201.068 1187.17 205.455C1186.1 206.44 1185.75 206.576 1184.63 207.204L1174.6 206.56C1178.71 211.89 1179.39 212.982 1180.18 219.628C1176.23 225.639 1173.79 226.644 1167.56 229.814C1167.3 229.56 1167.04 229.27 1166.72 229.058C1146.64 215.264 1008.29 226.626 977.154 226.874C933.112 227.228 879.965 220.099 837.243 229.387C761.284 231.466 685.153 228.749 609.142 230.259C572.681 226.699 543.298 226.872 507.678 236.571C508.026 255.919 508.61 275.21 507.06 294.521L501.109 292.44L500.18 295.597C495.549 310.498 496.104 327.058 493.565 342.446L481.732 334.137L487.073 309.184C465.931 302.563 426.939 298.61 406.928 310.419C402.318 313.142 399.661 316.639 398.604 321.744C396.902 329.943 398.064 338.276 396.237 346.357C394.072 319.506 396.824 289.547 402.876 263.338L408.732 246.031L410.803 235.615C418.614 209.542 417.491 179.45 419.661 152.358L401.075 134.136L397.577 125.628C440.318 91.6118 491.062 70.9179 536.879 41.5931C526.5 41.6088 534.778 41.9812 524.5 40.4995Z" fill="url(#paint5_linear_66_520)"/>
<path d="M1191.52 190.698C1197.67 187.701 1201.49 185.635 1208.53 187.366C1213.93 190.688 1217.54 194.138 1219.11 200.51C1221.07 208.34 1219.82 218.913 1215.18 225.518C1214.06 227.13 1212.85 228.405 1211.47 229.806C1212.41 224.905 1211.88 219.206 1211.02 214.319C1208.87 202.243 1200.94 197.245 1191.52 190.698Z" fill="#322D37"/>
<path d="M489.687 192.142L498.729 194.309C515.721 195.778 533.949 196.084 550.64 199.288C539.485 199.414 528.488 198.707 519.867 207.095C512.661 214.105 509.998 227.16 507.682 236.571C508.03 255.92 508.614 275.21 507.064 294.522L501.113 292.441L500.184 295.598C495.553 310.498 496.108 327.059 493.569 342.446L481.736 334.137L487.077 309.184C488.022 290.446 489.666 270.812 483.407 252.815C480.158 244.514 478.388 235.184 477.718 226.312C476.671 212.422 480.941 202.574 489.687 192.142Z" fill="#322D37"/>
<path d="M489.686 192.142L498.727 194.309C515.72 195.778 533.948 196.084 550.639 199.288C539.484 199.414 528.487 198.707 519.866 207.095C512.659 214.105 509.997 227.16 507.68 236.571C508.029 255.92 508.612 275.21 507.063 294.522L501.112 292.441C497.021 260.791 501.385 221.781 489.686 192.142Z" fill="#6D3F3F"/>
<path d="M402.876 263.339L408.732 246.033C421.784 257.439 432.921 263.687 450.853 262.274C461.342 261.447 474.196 257.975 483.403 252.815C489.662 270.813 488.018 290.447 487.073 309.185C465.931 302.565 426.939 298.612 406.928 310.421C402.318 313.143 399.661 316.64 398.604 321.745C396.902 329.944 398.064 338.277 396.237 346.358C394.072 319.507 396.824 289.549 402.876 263.339Z" fill="#483241"/>
<path d="M528.496 181.069C631.583 177.721 733.919 182.244 836.969 183.75C875.305 182.519 913.656 183.171 951.996 182.422C989.633 181.689 1028.63 178.477 1066.04 183.511C1057.9 187.328 1048.98 192.558 1040.37 194.943C944.415 201.388 848.76 199.545 752.671 199.409C685.215 199.312 618.099 201.658 550.638 199.289C533.947 196.085 515.719 195.778 498.727 194.31C499.161 192.297 498.892 192.794 500.371 190.65C505.468 183.258 520.35 182.236 528.496 181.069Z" fill="#AE6766"/>
<path d="M528.496 181.069C631.583 177.721 733.919 182.244 836.969 183.75C861.071 190.176 890.778 184.736 916.009 186.734C860.524 187.449 564.358 200.941 528.496 181.069Z" fill="#EFAD73"/>
<path d="M1040.37 194.943C1065.61 194.778 1156.04 189.283 1174.61 206.561C1178.72 211.89 1179.4 212.982 1180.18 219.629C1176.23 225.639 1173.79 226.645 1167.56 229.815C1167.3 229.561 1167.04 229.27 1166.73 229.058C1146.65 215.265 1008.3 226.626 977.156 226.875C933.114 227.228 879.967 220.1 837.245 229.388C761.286 231.467 685.155 228.749 609.144 230.26C572.683 226.699 543.3 226.872 507.68 236.571C509.996 227.16 512.659 214.105 519.866 207.095C528.486 198.707 539.483 199.414 550.638 199.288C618.099 201.657 685.215 199.312 752.671 199.409C848.76 199.545 944.415 201.388 1040.37 194.943Z" fill="#481F1E"/>
<path d="M503.5 19.9995C561.832 20.5233 618.155 13.9037 676.5 13.3834C697.062 13.2006 746.21 9.02091 766.5 13.3836C772.891 18.3159 895.846 21.0542 901.5 27.4348L761.303 19.0642C757.702 23.5781 766.015 10.6418 761.303 12.5191C803 12.5186 833.5 8.58155 877 13.3834C939.093 11.2636 1104.48 5.54954 1154.5 25.5C1173.14 32.3412 1183.51 48.8511 1198.07 65.0646C1211.02 70.6367 1233.43 77.7767 1240.28 95.0906C1242 99.485 1241.74 101.636 1241.38 106.33C1244.15 115.586 1244.72 116.813 1243.1 126.428C1235.91 137.477 1226.47 139.583 1216.06 140.637C1194.05 142.863 1171.03 140.455 1148.88 140.437L1007.54 140.514C890.548 140.627 773.245 144.406 656.301 142.627C580.495 141.474 503.489 134.826 427.9 144.585L418.06 151.999L399.494 127.528L396 116.103C438.695 70.4223 494.733 58.4449 540.5 19.0642C530.132 19.0853 513.766 21.9892 503.5 19.9995Z" fill="#EFAD73"/>
<path d="M539 34.9995C597.396 35.3896 623.093 36.004 681.502 35.6165C702.086 35.4804 724.926 33.6846 745.238 36.9333C751.636 40.6061 757.181 44.3863 762.84 49.1377L763.275 53.368C759.67 56.7293 756.89 58.2032 752.173 59.6011C642.447 37.0827 597.195 53.3078 501.619 101.858C484.022 110.798 463.464 116.405 447.223 127.379C440.72 131.769 431.794 139.112 429.511 146.837L419.66 152.358L401.074 134.136L397.576 125.628C440.317 91.6117 491.061 70.9179 536.878 41.5931C526.498 41.6088 549.278 36.4812 539 34.9995Z" fill="#974F2F"/>
<path d="M765.863 50.3099L754.231 59.6155C754.231 59.6155 800.873 66.8472 831.002 68.921C900.886 73.7312 940.103 61.2501 1010.13 59.6155C1067.35 58.2798 1156.7 59.6155 1156.7 59.6155L1152.04 41.0044L877.53 36.3516C825.745 36.0658 744.926 36.3516 744.926 36.3516L765.863 50.3099Z" fill="#EFAD73"/>
<path d="M1129 18.9995C1152.04 18.5234 1178.01 13.8947 1200 18.9995C1217.44 20.2484 1318.7 35.9911 1336.5 35.8038L1268.5 41.5L1232.4 35.8033C1240.76 41.1209 1249.16 45.7792 1253.83 53.0545C1241.19 57.9684 1229.01 77.4867 1218.5 84.4995C1192.39 73.1412 1172.54 50.4465 1140.2 47.6196C1141.06 37.9416 1134.93 27.2304 1129 18.9995Z" fill="#AE6766"/>
<path d="M1211 22C1249.83 21.9282 1286.26 23.31 1325 26.4999C1354.01 28.8864 1394.5 31.0187 1419 34.4999C1427.9 34.6675 1430.13 35.3137 1439 34.4999C1495.36 34.4999 1546.85 56.0047 1600.82 56.6407L1608.03 58.9314C1612.52 59.9879 1617.46 60.6443 1621.64 62.9316L1624 68.5731C1616.23 84.4102 1597.4 87.8975 1583.4 92.1097C1522.06 110.559 1456.27 110.193 1393.57 118.32C1362.23 120.618 1330.81 123.524 1299.45 124.902C1291.29 125.261 1283.28 123.486 1275.18 123.999C1278.81 134.342 1281.12 140.031 1277.87 151.232C1268.97 154.497 1261.07 156.347 1251.8 157C1254.85 150.948 1255.08 149.765 1255.13 142.633C1249.75 128.991 1238.96 122.731 1227.92 117.824C1228.31 113.26 1228.59 111.168 1226.76 106.894C1219.49 90.055 1195.73 83.1109 1182 77.6917C1188.88 70.7681 1196.14 66.9046 1204.21 62.6103C1201.75 53.7823 1196.84 47.5596 1191.98 40.5847L1193.18 36.9812L1211 22Z" fill="#EFAD73"/>
<path d="M1221.49 76.0771C1243.56 79.6164 1267.46 87.3417 1281.18 106.316C1284.9 111.454 1286.75 117.049 1288.48 123.08C1291.91 130.999 1294.08 135.355 1291.02 143.931C1282.62 146.431 1275.16 147.847 1266.41 148.347C1269.29 143.714 1269.5 142.808 1269.56 137.347C1264.48 126.902 1254.29 122.109 1243.87 118.352C1244.24 114.857 1244.5 113.255 1242.78 109.983C1235.92 97.0904 1213.48 91.7736 1200.52 87.6244C1207.02 82.3233 1213.87 79.3651 1221.49 76.0771Z" fill="#6D3F3F"/>
<path d="M1615.53 76.3228C1625.16 78.2364 1638.12 79.2234 1646.6 84.0637C1649.35 86.6501 1653.04 89.1971 1653.88 93.027L1659.82 99.5664C1659.51 102.857 1659.3 105.569 1658.14 108.697C1654.53 121.65 1663.83 132.3 1659.06 143.818C1659.64 149.632 1660.92 152.47 1656.5 157.061C1655.37 158.218 1653.8 159.109 1652.46 159.962C1648.33 165.504 1643.67 167.3 1637.54 169.889C1620.11 186.611 1574.79 194.07 1552.04 200.101L1556.1 209.939C1552.78 213.97 1549.35 214.441 1544.58 216.096C1513.46 220.03 1480.26 222.342 1450.03 230.622C1430.63 235.936 1414.74 248.269 1396.02 254.936C1359.71 267.884 1249.16 290.057 1215.68 267.816L1211.54 260.4C1217.51 255.683 1223.56 252.326 1230.26 248.845C1239.97 248.562 1249.53 247.554 1258.43 243.457C1268.14 238.994 1275.18 232.062 1278.74 221.902C1287.62 196.635 1277.38 170.915 1266.41 148.347C1275.16 147.847 1282.62 146.43 1291.02 143.93C1294.08 135.355 1291.91 130.999 1288.48 123.08C1296.13 122.687 1303.69 124.046 1311.39 123.771C1341 122.716 1370.66 120.491 1400.24 118.731C1459.43 112.509 1521.52 112.789 1579.43 98.6632C1592.65 95.438 1610.42 92.7679 1617.75 80.6422L1615.53 76.3228Z" fill="#232125"/>
<path d="M1288.48 123.08C1296.12 122.687 1303.69 124.046 1311.38 123.771C1340.99 122.716 1370.65 120.491 1400.23 118.731L1397.93 122.543C1407.62 146.855 1417.98 176.666 1407.35 202.376C1404.47 209.376 1399.32 215.58 1393.45 220.287C1393.3 224.366 1390.57 227.735 1387.64 230.397C1369.66 246.688 1326.2 242.015 1302.8 241.821C1309.53 236.073 1313.01 226.994 1315.21 218.635C1320.23 199.478 1320.89 175.365 1310.49 157.771C1305.42 149.185 1300.23 146.357 1291.02 143.93C1294.08 135.355 1291.91 130.999 1288.48 123.08Z" fill="#915554"/>
<path d="M1620.5 62C1630.13 63.9916 1637.67 73.0183 1646.15 78.0559C1648.9 80.7477 1652.59 83.3984 1653.42 87.3843L1659.37 94.1902C1659.05 97.6149 1658.84 100.437 1657.69 103.693C1654.08 117.174 1663.37 128.257 1658.61 140.245C1659.18 146.296 1660.47 149.249 1656.04 154.028C1654.92 155.232 1653.35 156.158 1652.01 157.047C1647.88 162.814 1643.22 164.683 1637.09 167.378C1619.65 184.782 1574.34 192.544 1551.59 198.821C1544.5 192.086 1535.96 192.759 1526.93 193.274C1485.67 195.625 1429.34 222.371 1393 219.829C1398.86 214.931 1404.02 208.474 1406.9 201.188C1417.53 174.431 1407.16 143.405 1397.48 118.103L1399.78 114.136C1458.97 107.66 1521.07 107.951 1578.97 93.2502C1592.19 89.8936 1609.97 87.1147 1617.3 74.495L1620.5 62Z" fill="#483241"/>
<defs>
<linearGradient id="paint0_linear_66_520" x1="114.244" y1="196.687" x2="135.835" y2="93.4199" gradientUnits="userSpaceOnUse">
<stop stop-color="#3D302F"/>
<stop offset="1" stop-color="#694543"/>
</linearGradient>
<linearGradient id="paint1_linear_66_520" x1="179.551" y1="405.369" x2="305.44" y2="547.905" gradientUnits="userSpaceOnUse">
<stop stop-color="#554452"/>
<stop offset="1" stop-color="#776178"/>
</linearGradient>
<linearGradient id="paint2_linear_66_520" x1="303.713" y1="230.505" x2="315.864" y2="121.435" gradientUnits="userSpaceOnUse">
<stop stop-color="#484040"/>
<stop offset="1" stop-color="#845250"/>
</linearGradient>
<linearGradient id="paint3_linear_66_520" x1="1230.14" y1="536.29" x2="1177.28" y2="675.495" gradientUnits="userSpaceOnUse">
<stop stop-color="#855150"/>
<stop offset="1" stop-color="#AB7270"/>
</linearGradient>
<linearGradient id="paint4_linear_66_520" x1="435.342" y1="567.329" x2="445.68" y2="639.668" gradientUnits="userSpaceOnUse">
<stop stop-color="#865352"/>
<stop offset="1" stop-color="#A5716F"/>
</linearGradient>
<linearGradient id="paint5_linear_66_520" x1="804.663" y1="56.0449" x2="874.44" y2="334.909" gradientUnits="userSpaceOnUse">
<stop stop-color="#833D3C"/>
<stop offset="1" stop-color="#9C5B5A"/>
</linearGradient>
</defs>
</svg>
