<svg width="261" height="144" viewBox="0 0 261 144" fill="none" xmlns="http://www.w3.org/2000/svg">
<path d="M0 0H126.873H147.641H260.493C260.731 0.378103 260.812 0.693828 260.833 1.13536C260.973 4.05216 260.863 7.0229 260.865 9.94419V26.5606C260.864 28.9919 261.22 35.4866 260.78 37.5672C260.742 37.7441 260.678 37.911 260.603 38.0747L260.593 38.6856C260.766 39.1045 260.828 39.4624 260.841 39.913C261.09 48.9106 260.983 142.936 260.683 143.667C260.633 143.788 260.569 143.894 260.493 144H0V0ZM126.873 0C126.852 0.622605 126.823 1.07499 127.09 1.65384C127.122 1.72472 127.149 1.7982 127.179 1.87022C127.26 2.06364 127.218 2.0802 127.144 2.28415C126.438 2.32323 125.688 2.31443 124.995 2.45873C120.116 2.42254 115.374 3.09511 110.534 3.54398C104.992 4.05799 99.4261 4.13646 93.8796 4.75769C89.6308 5.23354 85.4382 6.23954 81.1887 6.76339C73.3446 7.73034 57.5279 8.27575 51.133 11.8822L50.5125 12.2302C52.8132 15.222 56.5235 33.8699 56.5952 38.6899L56.8166 39.0283C56.4698 40.1011 55.4244 44.9796 55.7594 45.8719C56.4423 46.4277 57.7811 46.5369 57.8727 47.5315C57.959 48.47 56.487 52.7183 56.1649 53.9508C54.0103 62.1958 52.1633 70.7983 54.922 79.1661C55.5195 80.9785 56.3933 83.0359 57.8261 84.3567C58.4198 84.9046 59.1714 85.3639 59.8343 85.8273C61.4936 87.2268 63.1704 88.8621 64.9829 90.0521C69.6867 93.1415 75.0367 94.277 80.3854 95.6748C82.6183 96.2582 84.8215 96.9592 87.0545 97.5393C86.5278 96.792 84.6539 94.608 84.6985 93.8177C88.4842 97.8521 92.6719 101.127 97.0132 104.531C99.4261 106.423 101.851 108.502 104.557 109.962C109.146 111.18 113.454 113.022 118.147 113.994C121.896 114.78 125.673 115.405 129.476 115.868C132.686 116.268 135.978 116.53 139.151 117.146C141.059 116.754 142.999 116.391 144.805 115.644C147.503 114.24 150.079 112.949 153.142 112.595C160.361 111.495 170.102 102.766 174.679 97.421C177.34 94.3142 186.551 81.3128 186.266 77.6062L186.863 77.4322L187.138 77.6474C187.385 78.5918 187.062 79.6806 186.863 80.6125C185.84 85.4069 183.803 89.5217 181.353 93.7299C177.138 100.97 170.355 106.996 163.25 111.288C160.326 113.054 157.235 114.56 154.235 116.191C152.093 117.357 149.576 119.397 147.247 120.012C156.327 119.886 166.92 119.395 175.667 116.949C185.291 114.257 195.226 104.064 200.024 95.4993C201.846 92.2452 203.611 88.9415 205.034 85.4897C207.844 78.6709 212.422 63.6312 213.261 56.4984C213.515 54.3386 213.553 52.0366 212.952 49.9279C211.558 45.0281 207.773 45.5244 204.112 43.4523C202.106 42.3173 201.76 40.6279 201.188 38.5591C201.287 38.5128 201.381 38.4637 201.471 38.4042C204.555 36.3861 209.882 22.08 210.66 18.1365C211.351 18.4832 211.598 18.8777 211.838 19.6059C212.262 20.8902 212.328 22.7626 211.731 23.997C212.1 25.3858 211.515 26.8922 210.825 28.0883C209.586 30.2374 207.822 31.9322 207.105 34.3652C213.84 36.1837 234.293 41.6732 237.815 47.8191C238.024 48.184 238.107 48.3964 238.074 48.8128C238.709 49.0882 239.428 49.4163 240.124 49.169C240.629 48.99 240.945 48.6542 241.177 48.1869C246.576 45.799 249.6 42.7086 253.579 38.5566C255.15 38.4679 256.706 38.3398 257.973 39.4716C258.559 39.9954 258.876 40.7046 259.167 41.4197C259.199 41.4002 259.231 41.3815 259.261 41.361C260.117 40.7887 260.416 39.6417 260.593 38.6856L260.603 38.0747C260.678 37.911 260.742 37.7441 260.78 37.5672C261.22 35.4866 260.864 28.9919 260.865 26.5606V9.94419C260.863 7.0229 260.973 4.05216 260.833 1.13536C260.812 0.693828 260.731 0.378103 260.493 0H147.641H126.873ZM0 0V144H260.493C260.569 143.894 260.633 143.788 260.683 143.667C260.983 142.936 261.09 48.9106 260.841 39.913C260.828 39.4624 260.766 39.1045 260.593 38.6856C260.416 39.6417 260.117 40.7887 259.261 41.361C259.231 41.3815 259.199 41.4002 259.167 41.4197C258.876 40.7046 258.559 39.9954 257.973 39.4716C256.706 38.3398 255.15 38.4679 253.579 38.5566C249.6 42.7086 246.576 45.799 241.177 48.1869C240.945 48.6542 240.629 48.99 240.124 49.169C239.428 49.4163 238.709 49.0882 238.074 48.8128C240.197 53.6091 237.437 85.0982 236.55 92.1559C236.268 94.2828 235.905 96.3956 235.462 98.4943C235.266 99.4386 234.801 100.625 234.792 101.561C232.677 102.175 230.463 104.296 229.077 105.924C229.839 106.492 230.813 107.249 230.959 108.253C230.963 108.282 230.962 108.311 230.964 108.341C230.855 108.967 230.689 109.35 230.142 109.738C230.062 109.795 229.979 109.848 229.895 109.898C230.344 111.088 229.885 112.526 229.389 113.638C227.711 117.401 222.94 121.634 222.423 125.57C222.409 125.676 222.419 125.632 222.385 125.731C221.669 126.459 219.532 127.108 218.532 127.508C212.228 130.026 205.483 131.593 198.961 133.438C185.512 137.241 172.078 139.627 158.207 141.226C151.98 141.943 145.601 142.778 139.346 143.078C136.987 143.185 134.628 143.259 132.267 143.301C129.907 143.343 127.546 143.352 125.185 143.328C122.825 143.305 120.465 143.249 118.105 143.16C115.746 143.071 113.388 142.95 111.032 142.796C108.677 142.642 106.324 142.455 103.973 142.236C101.622 142.018 99.2745 141.767 96.9306 141.482C94.5868 141.199 92.2473 140.883 89.9123 140.534C87.5773 140.186 85.2475 139.806 82.9229 139.393C80.598 138.98 78.2793 138.535 75.9668 138.058C73.6544 137.581 71.3489 137.073 69.0505 136.532C66.752 135.991 64.4613 135.419 62.1786 134.815C59.8958 134.211 57.6218 133.576 55.3566 132.91C53.0913 132.242 50.8356 131.545 48.5895 130.816C46.3434 130.086 44.1077 129.326 41.8825 128.536C39.6573 127.745 37.4434 126.924 35.2408 126.071C33.0382 125.219 30.8477 124.337 28.6693 123.425C27.7405 121.111 27.3786 118.554 27.1473 116.084C25.7785 117.022 24.6951 118.396 23.4909 119.534C22.7956 120.19 21.4466 121.593 20.4324 121.563C19.9094 120.91 19.8521 117.759 19.7404 116.825C17.146 116.642 14.0296 116.225 11.7808 114.825C10.3646 113.944 9.84149 113.019 9.47026 111.416C9.19034 109.018 8.82374 106.557 8.25506 104.209C7.74383 102.098 7.05027 100.004 6.6445 97.872C4.2127 91.8927 2.38973 72.0392 2.48671 64.9173C2.07458 62.629 2.14078 60.0634 1.9456 57.7315C1.74327 55.314 1.33025 52.9207 1.11893 50.5059C0.938127 48.4397 0.945037 46.333 0.899668 44.259C0.848205 43.4155 0.802526 42.5717 0.762631 41.7276C0.706861 40.4524 0.499758 39.0266 1.42546 38.0129C4.80531 34.1645 28.6923 23.5993 34.6486 21.0702C38.0576 19.6227 44.0845 17.518 46.9389 15.524C48.2173 14.5156 49.1892 13.1925 50.5125 12.2302L51.133 11.8822C57.5279 8.27575 73.3446 7.73034 81.1887 6.76339C85.4382 6.23954 89.6308 5.23354 93.8796 4.75769C99.4261 4.13646 104.992 4.05799 110.534 3.54398C115.374 3.09511 120.116 2.42254 124.995 2.45873C125.688 2.31443 126.438 2.32323 127.144 2.28415C127.218 2.0802 127.26 2.06364 127.179 1.87022C127.149 1.7982 127.122 1.72472 127.09 1.65384C126.823 1.07499 126.852 0.622605 126.873 0H0Z" fill="url(#paint0_linear_392_7031)"/>
<path d="M144.805 115.644C147.503 114.24 150.079 112.949 153.142 112.595C152.794 113.378 150.744 114.19 149.961 114.491C148.279 115.139 146.608 115.541 144.805 115.644Z" fill="#644A49"/>
<path d="M104.557 109.962C109.146 111.18 113.454 113.022 118.147 113.994C121.896 114.78 125.673 115.405 129.476 115.868C132.686 116.268 135.978 116.53 139.151 117.146C137.235 117.668 135.421 117.971 133.438 118.084C124.49 118.596 111.354 116.033 104.557 109.962Z" fill="#644A49"/>
<path d="M20.1741 50.2975C20.8926 50.331 22.6998 50.1112 23.1297 50.5521C23.2327 51.2467 23.2309 52.0241 23.4934 52.6762C23.6127 55.3826 23.236 58.2053 23.1711 60.9253C23.0768 64.8771 23.2783 68.8298 23.4972 72.7743C24.0199 82.1926 25.5945 91.5037 26.1499 100.906C20.753 103.539 16.2137 107.471 11.0223 110.416C11.0219 110.387 11.0204 110.358 11.0209 110.329C11.0822 106.303 20.4155 100.17 23.1977 97.4185L21.7633 68.4503C21.4555 62.5339 21.3869 56.087 20.1741 50.2975Z" fill="#7A6D7F"/>
<path d="M31.8528 104.862C35.304 106.477 38.7368 108.379 42.2826 109.755C46.7179 111.477 51.396 112.731 55.9587 114.072C64.1947 116.575 72.5313 118.676 80.9686 120.375C89.4059 122.074 97.905 123.364 106.466 124.246C112.315 124.79 118.155 124.816 124.014 125.11C123.521 126.766 123.062 128.162 121.433 129.04C119.639 130.005 117.399 129.99 115.464 130.617C111.283 130.518 107.024 129.808 102.861 129.369C76.9281 126.634 53.1838 119.81 29.3046 109.407C30.0718 107.853 30.9869 106.363 31.8528 104.862Z" fill="#B6908F"/>
<path d="M124.014 125.11C126.794 124.951 129.641 125.057 132.43 125.015C136.959 124.945 141.483 124.766 146.003 124.479C167.693 123.12 192.204 118.925 212.779 111.886C217.226 110.364 221.354 108.129 225.727 106.464C226.75 106.074 228.036 105.455 229.077 105.924C229.839 106.492 230.813 107.249 230.959 108.253C230.963 108.282 230.962 108.311 230.964 108.341C230.855 108.967 230.689 109.35 230.142 109.738C230.062 109.795 229.979 109.848 229.895 109.898C228.368 112.181 221.436 114.276 218.752 115.239C205.45 120.014 192.526 123.882 178.651 126.627C174.49 127.457 170.311 128.179 166.113 128.795C161.916 129.411 157.706 129.92 153.482 130.321C149.259 130.722 145.028 131.015 140.79 131.201C136.552 131.387 132.312 131.464 128.07 131.433C123.908 131.368 119.567 131.321 115.464 130.617C117.399 129.99 119.639 130.005 121.433 129.04C123.062 128.162 123.521 126.766 124.014 125.11Z" fill="url(#paint1_linear_392_7031)"/>
<path d="M1.42546 38.0129C4.80531 34.1645 28.6923 23.5993 34.6486 21.0702C38.0576 19.6227 44.0845 17.518 46.9389 15.524C46.1469 17.0153 45.3264 18.1927 44.1951 19.4456C46.1138 22.3287 52.9133 32.5134 52.3434 35.5529C52.2759 35.9134 51.9272 36.2394 51.6335 36.4315C51.4194 36.5714 51.1947 36.6978 50.9717 36.8228C44.5628 38.6069 38.7964 41.2236 33.0056 44.4978C29.946 46.2277 27.0013 48.1717 23.8189 49.6688L23.7671 49.6927C23.7009 50.6851 23.666 51.6961 23.4934 52.6762C23.2309 52.0241 23.2327 51.2467 23.1297 50.5521C22.6998 50.1112 20.8926 50.331 20.1741 50.2975C15.83 48.9943 2.94483 39.9468 1.24108 40.2718C0.522501 41.3218 1.59433 43.2549 0.942519 44.2038C0.929328 44.223 0.913949 44.2406 0.899668 44.259C0.848205 43.4155 0.802526 42.5717 0.762631 41.7276C0.706861 40.4524 0.499758 39.0266 1.42546 38.0129Z" fill="#92797B"/>
<path d="M1.42546 38.0129C4.80531 34.1645 28.6923 23.5993 34.6486 21.0702C38.0576 19.6227 44.0845 17.518 46.9389 15.524C46.1469 17.0153 45.3264 18.1927 44.1951 19.4456C46.1138 22.3287 52.9133 32.5134 52.3434 35.5529C52.2759 35.9134 51.9272 36.2394 51.6335 36.4315C51.4194 36.5714 51.1947 36.6978 50.9717 36.8228C49.695 35.6842 48.5291 33.1148 47.3531 31.672C45.0656 28.8651 42.3716 26.4818 39.7507 24.0037C33.3177 25.9134 26.9463 27.9985 20.793 30.699C15.7295 32.9212 10.9613 35.6418 5.7054 37.446C4.44671 37.8782 2.72478 38.5306 1.42546 38.0129Z" fill="#EBDED3"/>
<path d="M0.899668 44.259C0.913949 44.2406 0.929328 44.223 0.942519 44.2038C1.59433 43.2549 0.522501 41.3218 1.24108 40.2718C2.94483 39.9468 15.83 48.9943 20.1741 50.2975C21.3869 56.087 21.4555 62.5339 21.7633 68.4503L23.1977 97.4185C20.4155 100.17 11.0822 106.303 11.0209 110.329C11.0204 110.358 11.0219 110.387 11.0223 110.416C10.5816 110.907 10.0539 111.138 9.47026 111.416C9.19034 109.018 8.82374 106.557 8.25506 104.209C7.74383 102.098 7.05027 100.004 6.6445 97.872C4.2127 91.8927 2.38973 72.0392 2.48671 64.9173C2.07458 62.629 2.14078 60.0634 1.9456 57.7315C1.74327 55.314 1.33025 52.9207 1.11893 50.5059C0.938127 48.4397 0.945037 46.333 0.899668 44.259Z" fill="#284966"/>
<path d="M2.48671 64.9173C3.01684 65.3777 3.11012 65.7087 3.23926 66.3993C4.06595 70.8204 4.23792 75.4948 4.81589 79.9721C5.50602 85.3183 6.61204 90.6844 7.02966 96.0579C7.08067 96.7142 7.08178 97.2339 6.69377 97.7967C6.67674 97.8215 6.66092 97.8472 6.6445 97.872C4.2127 91.8927 2.38973 72.0392 2.48671 64.9173Z" fill="#B6908F"/>
<path d="M234.792 101.561C238.174 102.053 244.07 104.312 246.158 106.98C246.579 107.311 247.656 107.968 247.787 108.444C248.089 109.169 248.263 109.724 247.961 110.483C246.761 113.508 239.65 117.535 236.649 118.781C236.06 119.026 235.409 119.136 234.781 119.222C234.994 118.107 234.367 116.496 233.757 115.571C233.636 115.387 233.478 115.255 233.297 115.133C232.929 115.169 232.876 115.162 232.636 115.45C231.975 116.244 231.537 117.619 231.086 118.564C229.354 122.197 226.735 125.225 222.489 125.72C222.455 125.724 222.42 125.728 222.385 125.731C222.419 125.632 222.409 125.676 222.423 125.57C222.94 121.634 227.711 117.401 229.389 113.638C229.885 112.526 230.344 111.088 229.895 109.898C229.979 109.848 230.062 109.795 230.142 109.738C230.689 109.35 230.855 108.967 230.964 108.341C230.962 108.311 230.963 108.282 230.959 108.253C230.813 107.249 229.839 106.492 229.077 105.924C230.463 104.296 232.677 102.175 234.792 101.561Z" fill="#1C1618"/>
<path d="M253.579 38.5566C255.15 38.4679 256.706 38.3398 257.973 39.4716C258.559 39.9954 258.876 40.7046 259.167 41.4197C259.84 44.0607 259.167 49.9105 258.429 52.5835C257.954 54.2981 257.182 56.0399 256.922 57.796C256.49 60.7082 256.403 63.6872 256.015 66.6123C255.103 73.4858 250.447 103.729 247.833 108.367C247.819 108.393 247.802 108.419 247.787 108.444C247.656 107.968 246.579 107.311 246.158 106.98C244.07 104.312 238.174 102.053 234.792 101.561C234.801 100.625 235.266 99.4386 235.462 98.4943C235.905 96.3956 236.268 94.2828 236.55 92.1559C237.437 85.0982 240.197 53.6091 238.074 48.8128C238.709 49.0882 239.428 49.4163 240.124 49.169C240.629 48.99 240.945 48.6542 241.177 48.1869C246.576 45.799 249.6 42.7086 253.579 38.5566Z" fill="#644A49"/>
<path d="M238.074 48.8128C238.709 49.0882 239.428 49.4163 240.124 49.169C240.629 48.99 240.945 48.6542 241.177 48.1869C242.943 52.2636 241.23 94.7652 239.745 98.429C239.697 98.5481 239.645 98.6615 239.581 98.7741C242.175 99.8988 245.456 102.926 246.525 105.588C246.677 105.965 246.694 106.277 246.627 106.673L246.158 106.98C244.07 104.312 238.174 102.053 234.792 101.561C234.801 100.625 235.266 99.4386 235.462 98.4943C235.905 96.3956 236.268 94.2828 236.55 92.1559C237.437 85.0982 240.197 53.6091 238.074 48.8128Z" fill="#92797B"/>
<path d="M126.873 0H147.641H260.493C260.731 0.378103 260.812 0.693828 260.833 1.13536C260.973 4.05216 260.863 7.0229 260.865 9.94419V26.5606C260.864 28.9919 261.22 35.4866 260.78 37.5672C260.742 37.7441 260.678 37.911 260.603 38.0747L260.593 38.6856C260.416 39.6417 260.117 40.7887 259.261 41.361C259.231 41.3815 259.199 41.4002 259.167 41.4197C258.876 40.7046 258.559 39.9954 257.973 39.4716C256.706 38.3398 255.15 38.4679 253.579 38.5566C249.6 42.7086 246.576 45.799 241.177 48.1869C240.945 48.6542 240.629 48.99 240.124 49.169C239.428 49.4163 238.709 49.0882 238.074 48.8128C238.107 48.3964 238.024 48.184 237.815 47.8191C234.293 41.6732 213.84 36.1837 207.105 34.3652C207.822 31.9322 209.586 30.2374 210.825 28.0883C211.515 26.8922 212.1 25.3858 211.731 23.997C212.328 22.7626 212.262 20.8902 211.838 19.6059C211.598 18.8777 211.351 18.4832 210.66 18.1365C209.882 22.08 204.555 36.3861 201.471 38.4042C201.381 38.4637 201.287 38.5128 201.188 38.5591C201.76 40.6279 202.106 42.3173 204.112 43.4523C207.773 45.5244 211.558 45.0281 212.952 49.9279C213.553 52.0366 213.515 54.3386 213.261 56.4984C212.422 63.6312 207.844 78.6709 205.034 85.4897C203.611 88.9415 201.846 92.2452 200.024 95.4993C195.226 104.064 185.291 114.257 175.667 116.949C166.92 119.395 156.327 119.886 147.247 120.012C149.576 119.397 152.093 117.357 154.235 116.191C157.235 114.56 160.326 113.054 163.25 111.288C170.355 106.996 177.138 100.97 181.353 93.7299C183.803 89.5217 185.84 85.4069 186.863 80.6125C187.062 79.6806 187.385 78.5918 187.138 77.6474L186.863 77.4322L186.266 77.6062C186.551 81.3128 177.34 94.3142 174.679 97.421C170.102 102.766 160.361 111.495 153.142 112.595C150.079 112.949 147.503 114.24 144.805 115.644C142.999 116.391 141.059 116.754 139.151 117.146C135.978 116.53 132.686 116.268 129.476 115.868C125.673 115.405 121.896 114.78 118.147 113.994C113.454 113.022 109.146 111.18 104.557 109.962C101.851 108.502 99.4261 106.423 97.0132 104.531C92.6719 101.127 88.4842 97.8521 84.6985 93.8177C84.6539 94.608 86.5278 96.792 87.0545 97.5393C84.8215 96.9592 82.6183 96.2582 80.3854 95.6748C75.0367 94.277 69.6867 93.1415 64.9829 90.0521C63.1704 88.8621 61.4936 87.2268 59.8343 85.8273C59.1714 85.3639 58.4198 84.9046 57.8261 84.3567C56.3933 83.0359 55.5195 80.9785 54.922 79.1661C52.1633 70.7983 54.0103 62.1958 56.1649 53.9508C56.487 52.7183 57.959 48.47 57.8727 47.5315C57.7811 46.5369 56.4423 46.4277 55.7594 45.8719C55.4244 44.9796 56.4698 40.1011 56.8166 39.0283L56.5952 38.6899C56.5235 33.8699 52.8132 15.222 50.5125 12.2302L51.133 11.8822C57.5279 8.27575 73.3446 7.73034 81.1887 6.76339C85.4382 6.23954 89.6308 5.23354 93.8796 4.75769C99.4261 4.13646 104.992 4.05799 110.534 3.54398C115.374 3.09511 120.116 2.42254 124.995 2.45873C125.688 2.31443 126.438 2.32323 127.144 2.28415C127.218 2.0802 127.26 2.06364 127.179 1.87022C127.149 1.7982 127.122 1.72472 127.09 1.65384C126.823 1.07499 126.852 0.622605 126.873 0ZM147.641 0C147.96 0.325306 148.187 0.714921 148.485 1.03355C148.992 1.57493 150.909 1.82547 151.632 1.83209C152.41 1.83924 154.792 1.58682 155.324 2.05435C158.316 2.16612 175.133 4.10738 176.782 5.21663C183.125 5.96464 206.834 11.1278 210.461 15.6825C210.7 15.983 211.051 16.5272 211.084 16.9186L210.66 18.1365C211.351 18.4832 211.598 18.8777 211.838 19.6059C212.262 20.8902 212.328 22.7626 211.731 23.997C212.1 25.3858 211.515 26.8922 210.825 28.0883C209.586 30.2374 207.822 31.9322 207.105 34.3652C213.84 36.1837 234.293 41.6732 237.815 47.8191C238.024 48.184 238.107 48.3964 238.074 48.8128C238.709 49.0882 239.428 49.4163 240.124 49.169C240.629 48.99 240.945 48.6542 241.177 48.1869C246.576 45.799 249.6 42.7086 253.579 38.5566C255.15 38.4679 256.706 38.3398 257.973 39.4716C258.559 39.9954 258.876 40.7046 259.167 41.4197C259.199 41.4002 259.231 41.3815 259.261 41.361C260.117 40.7887 260.416 39.6417 260.593 38.6856L260.603 38.0747C260.678 37.911 260.742 37.7441 260.78 37.5672C261.22 35.4866 260.864 28.9919 260.865 26.5606V9.94419C260.863 7.0229 260.973 4.05216 260.833 1.13536C260.812 0.693828 260.731 0.378103 260.493 0H147.641ZM126.873 0C126.852 0.622605 126.823 1.07499 127.09 1.65384C127.122 1.72472 127.149 1.7982 127.179 1.87022C127.26 2.06364 127.218 2.0802 127.144 2.28415C126.438 2.32323 125.688 2.31443 124.995 2.45873C120.116 2.42254 115.374 3.09511 110.534 3.54398C104.992 4.05799 99.4261 4.13646 93.8796 4.75769C89.6308 5.23354 85.4382 6.23954 81.1887 6.76339C73.3446 7.73034 57.5279 8.27575 51.133 11.8822L50.5125 12.2302C52.8132 15.222 56.5235 33.8699 56.5952 38.6899C59.6646 36.3955 60.7191 30.079 62.4794 26.6965C81.4182 14.6282 121.521 13.7514 143.684 15.1783C151.498 15.7579 159.267 16.7082 166.99 18.0292C170.422 18.5902 173.915 19.0794 177.308 19.8366C183.315 21.1768 195.989 24.4185 199.539 30.0036C201.443 32.9968 200.1 36.1303 201.188 38.5591C201.287 38.5128 201.381 38.4637 201.471 38.4042C204.555 36.3861 209.882 22.08 210.66 18.1365L211.084 16.9186C211.051 16.5272 210.7 15.983 210.461 15.6825C206.834 11.1278 183.125 5.96464 176.782 5.21663C175.133 4.10738 158.316 2.16612 155.324 2.05435C154.792 1.58682 152.41 1.83924 151.632 1.83209C150.909 1.82547 148.992 1.57493 148.485 1.03355C148.187 0.714921 147.96 0.325306 147.641 0H126.873Z" fill="url(#paint2_linear_392_7031)"/>
<path d="M56.8166 39.0283L57.0842 38.9665C57.0419 40.2075 55.8358 45.007 56.1311 45.6392C56.7253 45.9339 57.7368 46.2578 58.0137 46.8941C58.3245 49.0778 57.1467 52.0169 56.5651 54.1217C53.9257 63.6746 52.2437 73.4144 56.8526 82.698C56.8531 81.8668 56.8266 81.1419 57.1751 80.3672L57.4452 80.2905C58.7867 81.6871 58.6381 84.2102 59.8343 85.8273C59.1714 85.3639 58.4198 84.9046 57.8261 84.3567C56.3933 83.0359 55.5195 80.9785 54.922 79.1661C52.1633 70.7983 54.0103 62.1958 56.1649 53.9508C56.487 52.7183 57.959 48.47 57.8727 47.5315C57.7811 46.5369 56.4423 46.4277 55.7594 45.8719C55.4244 44.9796 56.4698 40.1011 56.8166 39.0283Z" fill="#644A49"/>
<path d="M126.873 0H147.641C147.96 0.325306 148.187 0.714921 148.485 1.03355C148.992 1.57493 150.909 1.82547 151.632 1.83209C152.41 1.83924 154.792 1.58682 155.324 2.05435C158.316 2.16612 175.133 4.10738 176.782 5.21663C183.125 5.96464 206.834 11.1278 210.461 15.6825C210.7 15.983 211.051 16.5272 211.084 16.9186L210.66 18.1365C209.882 22.08 204.555 36.3861 201.471 38.4042C201.381 38.4637 201.287 38.5128 201.188 38.5591C200.1 36.1303 201.443 32.9968 199.539 30.0036C195.989 24.4185 183.315 21.1768 177.308 19.8366C173.915 19.0794 170.422 18.5902 166.99 18.0292C159.267 16.7082 151.498 15.7579 143.684 15.1783C121.521 13.7514 81.4182 14.6282 62.4794 26.6965C60.7191 30.079 59.6646 36.3955 56.5952 38.6899C56.5235 33.8699 52.8132 15.222 50.5125 12.2302L51.133 11.8822C57.5279 8.27575 73.3446 7.73034 81.1887 6.76339C85.4382 6.23954 89.6308 5.23354 93.8796 4.75769C99.4261 4.13646 104.992 4.05799 110.534 3.54398C115.374 3.09511 120.116 2.42254 124.995 2.45873C125.688 2.31443 126.438 2.32323 127.144 2.28415C127.218 2.0802 127.26 2.06364 127.179 1.87022C127.149 1.7982 127.122 1.72472 127.09 1.65384C126.823 1.07499 126.852 0.622605 126.873 0ZM126.873 0C126.852 0.622605 126.823 1.07499 127.09 1.65384C127.122 1.72472 127.149 1.7982 127.179 1.87022C127.26 2.06364 127.218 2.0802 127.144 2.28415C126.438 2.32323 125.688 2.31443 124.995 2.45873C120.116 2.42254 115.374 3.09511 110.534 3.54398C104.992 4.05799 99.4261 4.13646 93.8796 4.75769C89.6308 5.23354 85.4382 6.23954 81.1887 6.76339C73.3446 7.73034 57.5279 8.27575 51.133 11.8822C51.2334 11.9767 51.3383 12.0581 51.4571 12.1287C54.9121 14.179 73.4309 10.6058 77.7885 9.95909C92.151 7.82761 106.356 6.33436 120.877 6.09324C126.477 6.00534 132.075 6.05771 137.672 6.25036C143.094 6.45551 157.872 7.70334 162.607 6.414C162.965 6.31663 163.033 6.33068 163.21 6.01337C163.193 5.98794 163.177 5.96169 163.159 5.9371C162.383 4.89725 160.066 4.52394 158.851 4.32096C163.35 4.3967 171.208 6.96395 175.148 6.09212C175.738 5.96172 176.289 5.55382 176.782 5.21663C175.133 4.10738 158.316 2.16612 155.324 2.05435C154.792 1.58682 152.41 1.83924 151.632 1.83209C150.909 1.82547 148.992 1.57493 148.485 1.03355C148.187 0.714921 147.96 0.325306 147.641 0H126.873Z" fill="url(#paint3_linear_392_7031)"/>
<path d="M195.147 23.3787C196.204 23.0072 199.531 24.6324 200.796 24.9162C201.758 25.1319 203.018 25.3011 203.878 24.7133C204.447 24.3244 204.682 23.6714 204.806 23.0239C204.842 23.3 204.871 23.5828 204.845 23.8614C204.75 24.9178 204.234 26.1072 203.425 26.7929C203.428 26.8199 203.434 26.8468 203.434 26.874C203.451 27.826 202.301 29.2248 201.688 29.9217C201.726 29.4351 201.52 28.9075 201.304 28.4776C200.242 26.3705 197.335 24.1337 195.147 23.3787Z" fill="#92797B"/>
<path d="M72.9534 16.0481C77.33 15.7423 81.7793 15.8792 86.1629 15.9265C78.7676 17.7031 68.9809 19.762 62.3394 23.1737C59.7613 24.7405 59.4877 26.4369 58.0781 28.8931C57.6862 24.9434 56.6259 20.8937 55.8376 16.9966C61.5347 16.8276 67.2408 16.2324 72.9534 16.0481Z" fill="#92797B"/>
<path d="M126.873 0H147.641C147.96 0.325306 148.187 0.714921 148.485 1.03355C148.992 1.57493 150.909 1.82547 151.632 1.83209C152.41 1.83924 154.792 1.58682 155.324 2.05435C158.316 2.16612 175.133 4.10738 176.782 5.21663C176.289 5.55382 175.738 5.96172 175.148 6.09212C171.208 6.96395 163.35 4.3967 158.851 4.32096C160.066 4.52394 162.383 4.89725 163.159 5.9371C163.177 5.96169 163.193 5.98794 163.21 6.01337C163.033 6.33068 162.965 6.31663 162.607 6.414C157.872 7.70334 143.094 6.45551 137.672 6.25036C132.075 6.05771 126.477 6.00534 120.877 6.09324C106.356 6.33436 92.151 7.82761 77.7885 9.95909C73.4309 10.6058 54.9121 14.179 51.4571 12.1287C51.3383 12.0581 51.2334 11.9767 51.133 11.8822C57.5279 8.27575 73.3446 7.73034 81.1887 6.76339C85.4382 6.23954 89.6308 5.23354 93.8796 4.75769C99.4261 4.13646 104.992 4.05799 110.534 3.54398C115.374 3.09511 120.116 2.42254 124.995 2.45873C125.688 2.31443 126.438 2.32323 127.144 2.28415C127.218 2.0802 127.26 2.06364 127.179 1.87022C127.149 1.7982 127.122 1.72472 127.09 1.65384C126.823 1.07499 126.852 0.622605 126.873 0ZM126.873 0C126.852 0.622605 126.823 1.07499 127.09 1.65384C127.122 1.72472 127.149 1.7982 127.179 1.87022C127.26 2.06364 127.218 2.0802 127.144 2.28415C126.438 2.32323 125.688 2.31443 124.995 2.45873C127.139 2.63385 129.288 2.44605 131.436 2.5155C134.097 2.60153 147.237 3.76171 148.721 2.93289C150.71 2.96828 152.614 1.99775 155.324 2.05435C154.792 1.58682 152.41 1.83924 151.632 1.83209C150.909 1.82547 148.992 1.57493 148.485 1.03355C148.187 0.714921 147.96 0.325306 147.641 0H126.873Z" fill="#EBDED3"/>
<path d="M126.873 0H147.641C147.96 0.325306 148.187 0.714921 148.485 1.03355C148.992 1.57493 150.909 1.82547 151.632 1.83209C152.41 1.83924 154.792 1.58682 155.324 2.05435C152.614 1.99775 150.71 2.96828 148.721 2.93289C147.237 3.76171 134.097 2.60153 131.436 2.5155C129.288 2.44605 127.139 2.63385 124.995 2.45873C125.688 2.31443 126.438 2.32323 127.144 2.28415C127.218 2.0802 127.26 2.06364 127.179 1.87022C127.149 1.7982 127.122 1.72472 127.09 1.65384C126.823 1.07499 126.852 0.622605 126.873 0ZM126.873 0C126.852 0.622605 126.823 1.07499 127.09 1.65384C127.122 1.72472 127.149 1.7982 127.179 1.87022C127.26 2.06364 127.218 2.0802 127.144 2.28415C131.585 2.99892 135.346 -0.68144 140.728 0.16074C141.845 0.335457 142.905 0.865217 143.985 1.19409C145.054 1.51961 146.394 1.54222 147.353 2.0884L147.264 2.36921L146.298 2.77514L148.721 2.93289C150.71 2.96828 152.614 1.99775 155.324 2.05435C154.792 1.58682 152.41 1.83924 151.632 1.83209C150.909 1.82547 148.992 1.57493 148.485 1.03355C148.187 0.714921 147.96 0.325306 147.641 0H126.873Z" fill="url(#paint4_linear_392_7031)"/>
<path d="M126.873 0H147.641C147.96 0.325306 148.187 0.714921 148.485 1.03355C148.992 1.57493 150.909 1.82547 151.632 1.83209C152.41 1.83924 154.792 1.58682 155.324 2.05435C152.614 1.99775 150.71 2.96828 148.721 2.93289L146.298 2.77514L147.264 2.36921L147.353 2.0884C146.394 1.54222 145.054 1.51961 143.985 1.19409C142.905 0.865217 141.845 0.335457 140.728 0.16074C135.346 -0.68144 131.585 2.99892 127.144 2.28415C127.218 2.0802 127.26 2.06364 127.179 1.87022C127.149 1.7982 127.122 1.72472 127.09 1.65384C126.823 1.07499 126.852 0.622605 126.873 0Z" fill="#FEFDFE" fill-opacity="0.588235"/>
<path d="M211.084 16.9186C211.671 17.2322 214.756 18.3669 215.003 18.6414C225.734 20.7667 236.363 25.2046 246.187 29.9599C249.206 31.4215 252.121 33.2511 255.171 34.6092C256.759 34.7986 259.134 35.645 260.167 36.9523C260.398 37.2442 260.582 37.7012 260.603 38.0747L260.593 38.6856C260.416 39.6417 260.117 40.7887 259.261 41.361C259.231 41.3815 259.199 41.4002 259.167 41.4197C258.876 40.7046 258.559 39.9954 257.973 39.4716C256.706 38.3398 255.15 38.4679 253.579 38.5566C249.6 42.7086 246.576 45.799 241.177 48.1869C240.945 48.6542 240.629 48.99 240.124 49.169C239.428 49.4163 238.709 49.0882 238.074 48.8128C238.107 48.3964 238.024 48.184 237.815 47.8191C234.293 41.6732 213.84 36.1837 207.105 34.3652C207.822 31.9322 209.586 30.2374 210.825 28.0883C211.515 26.8922 212.1 25.3858 211.731 23.997C212.328 22.7626 212.262 20.8902 211.838 19.6059C211.598 18.8777 211.351 18.4832 210.66 18.1365L211.084 16.9186Z" fill="#92797B"/>
<path d="M210.086 31.8806C212.895 35.1512 231.99 38.3488 238.451 44.5331C238.87 44.9342 239.748 45.6127 239.895 46.1744C242.701 45.2528 248.716 39.8649 249.97 37.2775C250.142 36.9222 250.154 36.5824 250.093 36.1979C251.575 36.5889 252.65 37.3232 253.579 38.5566C249.6 42.7086 246.576 45.799 241.177 48.1869C240.945 48.6542 240.629 48.99 240.124 49.169C239.428 49.4163 238.709 49.0882 238.074 48.8128C238.107 48.3964 238.024 48.184 237.815 47.8191C234.293 41.6732 213.84 36.1837 207.105 34.3652L207.978 34.2692C208.966 33.6436 209.513 32.8741 210.086 31.8806Z" fill="#B6908F"/>
<path d="M211.084 16.9186C211.671 17.2322 214.756 18.3669 215.003 18.6414C225.734 20.7667 236.363 25.2046 246.187 29.9599C249.206 31.4215 252.121 33.2511 255.171 34.6092C256.759 34.7986 259.134 35.645 260.167 36.9523C260.398 37.2442 260.582 37.7012 260.603 38.0747L260.593 38.6856C260.416 39.6417 260.117 40.7887 259.261 41.361C259.231 41.3815 259.199 41.4002 259.167 41.4197C258.876 40.7046 258.559 39.9954 257.973 39.4716C256.706 38.3398 255.15 38.4679 253.579 38.5566C252.65 37.3232 251.575 36.5889 250.093 36.1979C249.943 35.5796 249.492 35.2286 249.068 34.766C246.439 32.3719 240.516 30.5712 237.114 29.0878C233.47 27.4985 229.953 25.6965 226.184 24.4005C223.656 23.531 221.127 22.8996 218.497 22.4311C218.52 22.5564 218.53 22.6792 218.511 22.8063C218.103 25.6321 212.445 30.1846 210.086 31.8806C209.513 32.8741 208.966 33.6436 207.978 34.2692L207.105 34.3652C207.822 31.9322 209.586 30.2374 210.825 28.0883C211.515 26.8922 212.1 25.3858 211.731 23.997C212.328 22.7626 212.262 20.8902 211.838 19.6059C211.598 18.8777 211.351 18.4832 210.66 18.1365L211.084 16.9186Z" fill="#EBDED3"/>
<path d="M211.084 16.9186C211.671 17.2322 214.756 18.3669 215.003 18.6414C215.222 19.5011 214.788 20.0309 214.347 20.7759C213.603 22.0304 212.932 23.1375 211.731 23.997C212.328 22.7626 212.262 20.8902 211.838 19.6059C211.598 18.8777 211.351 18.4832 210.66 18.1365L211.084 16.9186Z" fill="#70ACBC"/>
<path d="M255.171 34.6092C256.759 34.7986 259.134 35.645 260.167 36.9523C260.398 37.2442 260.582 37.7012 260.603 38.0747L260.593 38.6856C260.416 39.6417 260.117 40.7887 259.261 41.361C259.231 41.3815 259.199 41.4002 259.167 41.4197C258.876 40.7046 258.559 39.9954 257.973 39.4716C256.706 38.3398 255.15 38.4679 253.579 38.5566C252.65 37.3232 251.575 36.5889 250.093 36.1979C249.943 35.5796 249.492 35.2286 249.068 34.766C250.594 34.8887 252.385 36.1275 253.876 36.607C254.371 36.7663 254.912 36.9132 255.401 36.6651C255.714 35.9102 255.458 35.3447 255.171 34.6092Z" fill="#70ACBC"/>
<path d="M91.5542 29.4636C94.3262 28.4385 97.6884 28.2727 100.608 27.727C118.777 24.3304 146.287 22.2497 163.454 29.8975C172.842 34.0794 182.039 44.9215 185.683 54.4217C186.149 55.6342 186.604 56.887 186.843 58.1664C187.666 62.5897 188.032 73.6327 186.266 77.6062C186.551 81.3128 177.34 94.3142 174.679 97.421C170.102 102.766 160.361 111.495 153.142 112.595C150.079 112.949 147.503 114.24 144.805 115.644C142.999 116.391 141.059 116.754 139.151 117.146C135.978 116.53 132.686 116.268 129.476 115.868C125.673 115.405 121.896 114.78 118.147 113.994C113.454 113.022 109.146 111.18 104.557 109.962C101.851 108.502 99.4261 106.423 97.0132 104.531C92.6719 101.127 88.4842 97.8521 84.6985 93.8177C84.3353 92.9942 82.1398 90.9699 81.4033 90.0273C77.8014 85.416 75.6344 79.5531 74.6347 73.8162C72.5918 62.0931 76.3575 49.3185 83.2391 39.7947C85.8303 36.2089 89.0034 33.1112 91.5542 29.4636Z" fill="url(#paint5_linear_392_7031)"/>
<path d="M136.305 26.1646C140.207 25.5786 147.737 26.9812 151.596 28.2142C159.587 30.7679 165.555 35.3728 171.64 41.0141C173.833 43.0473 176.208 45.1328 177.594 47.8409C178.512 49.634 178.756 51.9416 179.269 53.888C180.648 59.1229 183.541 66.7778 181.799 72.1679C181.58 71.7622 181.901 69.5405 181.909 68.8879C181.939 66.6718 181.378 59.5221 179.93 58.0308C180.212 57.2051 179.59 55.4982 179.352 54.6435C178.543 51.7496 176.769 49.7116 175.114 47.3034C174.206 45.9828 173.821 44.3423 172.891 43.0322C169.985 38.9384 163.487 34.1721 159.11 31.7173C150.356 26.8079 139.428 25.2283 129.616 27.2435C127.404 27.6978 125.285 28.6394 123.115 29.2535C124.183 28.551 127.771 27.2809 128.989 27.0682C129.703 26.9432 130.449 27.009 131.167 26.8579C131.631 26.7604 132.031 26.4033 132.498 26.3595C133.719 26.245 135.004 26.4006 136.215 26.1821C136.245 26.1767 136.275 26.1704 136.305 26.1646Z" fill="#AD6945"/>
<path d="M131.131 35.8442C133.262 33.8343 136.061 32.9823 138.951 33.0779C148.277 33.3865 157.162 39.1619 163.332 45.8267C168.146 51.0276 171.802 58.1038 171.487 65.3934C171.469 65.8137 171.382 66.2342 171.21 66.619L171.08 66.7163C169.167 67.0287 157.555 63.7587 155.313 62.8711C155.271 62.7397 155.228 62.612 155.171 62.4862C154.328 60.6152 144.199 53.8896 141.912 53.0062C141.878 53.0093 141.844 53.0136 141.81 53.0158C140.564 53.0955 137.421 50.0288 136.449 49.2219C136.188 48.851 135.909 48.4471 135.715 48.0375C135.317 47.2031 135.828 46.1559 136.094 45.3499C135.958 44.2484 135.854 43.1275 135.597 42.0469C133.807 40.1122 132.244 38.2672 131.131 35.8442Z" fill="#EBDED3"/>
<path d="M136.094 45.3499C136.321 47.6472 138.137 49.9058 139.859 51.3208C140.54 51.8799 141.273 52.3965 141.912 53.0062C141.878 53.0093 141.844 53.0136 141.81 53.0158C140.564 53.0955 137.421 50.0288 136.449 49.2219C136.188 48.851 135.909 48.4471 135.715 48.0375C135.317 47.2031 135.828 46.1559 136.094 45.3499Z" fill="#FEA64D"/>
<path d="M136.449 49.2219C137.421 50.0288 140.564 53.0955 141.81 53.0158C141.844 53.0136 141.878 53.0093 141.912 53.0062C144.199 53.8896 154.328 60.6152 155.171 62.4862C155.228 62.612 155.271 62.7397 155.313 62.8711C157.555 63.7587 169.167 67.0287 171.08 66.7163L171.21 66.619C171.329 66.7323 171.433 66.8588 171.52 66.9985C171.608 67.1381 171.676 67.2865 171.726 67.4437C173.028 71.5399 170.75 78.4676 168.872 82.2259C166.95 86.0706 160.897 93.1233 157.392 95.5399C155.138 97.0932 152.233 98.3015 149.636 99.163C147.702 99.8052 145.641 100.418 143.623 100.706C141.81 100.965 133.245 101.068 131.831 100.353C132.368 100.074 134.493 100.559 135.232 100.594C138.638 100.753 142.077 100.852 145.436 100.151C146.788 99.869 153.31 97.8687 153.912 96.9526C153.769 96.6058 153.562 96.4908 153.261 96.2979C152.021 95.5026 150.629 94.5286 149.221 94.0916C148.241 93.787 147.172 93.7821 146.16 93.643C144.683 93.4403 142.872 91.3332 141.862 90.2491C139.976 88.2215 140.985 86.7319 140.255 85.9961C139.309 86.4596 138.182 87.3766 137.414 88.1048C136.957 88.5385 136.876 88.867 136.853 89.467C138.013 90.4055 140.091 90.2946 141.298 91.2488C142.288 92.0309 142.172 93.8673 143.279 94.483C144.267 95.0342 145.591 94.6229 146.634 95.093L146.363 95.2452C140.46 95.3313 143.34 93.2152 140.506 91.4408C139.245 90.6513 137.575 90.6149 136.28 89.7675C135.488 88.2778 140.095 85.1561 141.078 84.0819C141.935 83.1451 142.594 82.0892 142.976 80.8723C143.664 78.6734 144.074 73.8559 143.629 71.6069C143.408 70.4984 142.969 69.4135 142.612 68.343C141.753 65.7674 141.842 63.7932 142.144 61.1487L142.397 61.0704C142.645 61.5942 142.465 62.1885 142.399 62.7604C142.97 62.8711 144.446 63.3181 144.917 63.1106C144.93 62.7613 144.97 62.4929 144.743 62.1922C144.241 61.5279 143.25 60.9108 142.617 60.3433C141.612 59.4407 140.692 58.442 139.683 57.5427C137.274 55.3972 134.13 53.4233 133.274 50.1171C134.651 49.7113 136.689 52.1649 138.326 51.9828C138.08 50.9639 136.92 50.3167 136.449 49.2219Z" fill="#F88E61"/>
<mask id="path-2-outside-1_392_7031" maskUnits="userSpaceOnUse" x="55" y="38" width="160" height="55" fill="black">
<rect fill="white" x="55" y="38" width="160" height="55"/>
<path d="M82.144 58.112C82.144 56.992 81.752 56.432 80.968 56.432C80.6693 56.432 80.3147 56.5067 79.904 56.656C79.4933 56.8053 79.1013 56.936 78.728 57.048C77.3467 57.7947 76.264 58.616 75.48 59.512C74.7333 60.3707 73.968 61.3413 73.184 62.424C72.4 63.5067 71.728 64.664 71.168 65.896C70.608 67.128 70.1787 68.2853 69.88 69.368C68.7973 73.3627 69.208 76.0507 71.112 77.432C71.896 77.992 72.7173 78.272 73.576 78.272C74.472 78.2347 75.1813 78.048 75.704 77.712C76.264 77.376 76.8053 77.0587 77.328 76.76C77.8507 76.4613 78.448 76.256 79.12 76.144C79.8293 75.9947 80.688 76.088 81.696 76.424C82.7413 76.7227 83.3013 77.1333 83.376 77.656C83.4507 78.1787 83.4507 78.72 83.376 79.28C83.3013 79.84 83.2827 80.344 83.32 80.792C83.3947 81.24 83.8053 81.52 84.552 81.632C85.2613 82.528 84.8133 83.6107 83.208 84.88C82.7973 85.216 82.4053 85.5333 82.032 85.832C78.8213 87.8853 75.4053 89.024 71.784 89.248C69.5067 89.3973 67.08 88.9867 64.504 88.016C60.6587 86.56 58.4933 83.2933 58.008 78.216C57.3733 73.512 57.9707 68.64 59.8 63.6C61.3307 59.344 63.6453 55.4053 66.744 51.784C69.544 48.4613 72.3067 46.296 75.032 45.288C78.28 43.608 81.7893 42.9547 85.56 43.328C89.5547 43.8507 92.168 45.5493 93.4 48.424C94.632 51.2987 94.4267 54.752 92.784 58.784C92.224 60.2027 91.16 61.3227 89.592 62.144C88.248 62.8907 86.792 63.264 85.224 63.264C83.656 63.264 82.648 62.7787 82.2 61.808C81.752 60.8 81.7333 59.568 82.144 58.112ZM111.11 61.976L111.334 62.032C111.408 62.032 111.446 62.0507 111.446 62.088C112.416 61.7147 113.219 61.9947 113.854 62.928C114.264 63.5627 114.582 64.5333 114.806 65.84C114.88 67.632 114.694 70.1147 114.246 73.288C113.387 79.7093 112.92 83.536 112.846 84.768C112.92 86.0747 112.118 86.9707 110.438 87.456C108.982 87.904 107.526 87.8853 106.07 87.4C104.539 86.8773 103.904 86.0747 104.166 84.992C103.867 85.552 103.568 85.944 103.27 86.168C102.971 86.4293 102.374 86.7653 101.478 87.176C100.619 87.624 99.3869 87.9787 97.7816 88.24C96.1762 88.5387 94.5709 88.6133 92.9656 88.464C91.3602 88.352 89.8856 87.96 88.5416 87.288C87.2349 86.6533 86.3576 85.6453 85.9096 84.264C85.0509 81.576 85.1629 78.16 86.2456 74.016C86.9922 71.2907 88.3362 68.8827 90.2776 66.792C92.5176 64.4027 95.0562 62.424 97.8936 60.856C100.022 59.6987 102.075 59.008 104.054 58.784C104.726 58.7093 105.304 58.728 105.79 58.84C106.312 58.952 106.854 59.064 107.414 59.176C108.011 59.288 108.571 59.456 109.094 59.68C110.438 60.24 111.11 61.0053 111.11 61.976ZM100.75 76.816C101.011 76.2933 101.216 75.64 101.366 74.856C101.552 74.072 101.795 73.2133 102.094 72.28C99.0696 73.512 96.7549 75.024 95.1496 76.816C93.3949 78.7947 93.5069 80.1573 95.4856 80.904C97.2029 81.352 98.4536 81.072 99.2376 80.064C99.5736 79.616 99.8722 79.056 100.134 78.384C100.395 77.712 100.712 77.0213 101.086 76.312C100.974 76.4987 100.862 76.6667 100.75 76.816ZM121.197 61.752C123.698 60.744 125.378 60.7253 126.237 61.696C126.685 62.2187 126.909 62.9467 126.909 63.88V64.16C128.29 62.5547 130.698 61.2107 134.133 60.128C137.754 59.008 140.741 58.6907 143.093 59.176C146.154 59.8107 147.872 61.808 148.245 65.168C148.544 68.0053 147.89 71.608 146.285 75.976C145.762 77.096 145.352 78.0107 145.053 78.72C144.792 79.392 144.549 80.008 144.325 80.568C143.84 81.6133 143.074 82.864 142.029 84.32C141.432 85.44 140.498 86.2987 139.229 86.896C137.997 87.4933 136.765 87.8293 135.533 87.904C134.338 88.016 133.349 87.8293 132.565 87.344C131.781 86.896 131.557 86.168 131.893 85.16C132.752 82.8453 133.461 80.736 134.021 78.832C134.581 76.928 135.16 75.304 135.757 73.96C136.317 72.056 136.392 70.8613 135.981 70.376C135.645 70.0027 135.066 70.0587 134.245 70.544C133.536 70.992 133.032 71.5147 132.733 72.112C132.061 72.5973 130.792 74.5387 128.925 77.936C128.402 78.8693 127.88 79.8027 127.357 80.736C126.872 81.632 126.405 82.472 125.957 83.256C125.546 84.04 125.173 84.6933 124.837 85.216C124.538 85.7387 124.258 86.0747 123.997 86.224C123.773 86.4107 123.568 86.5227 123.381 86.56C123.232 86.6347 123.101 86.7093 122.989 86.784C122.877 86.8587 122.784 87.1013 122.709 87.512C122.56 88.3707 121.664 89.0053 120.021 89.416C117.37 90.088 114.981 89.976 112.853 89.08C112.144 88.7813 111.584 88.3707 111.173 87.848C110.314 86.1307 111.789 80.288 115.597 70.32C116.941 66.8107 117.818 64.72 118.229 64.048C119.162 62.6293 119.76 61.8267 120.021 61.64C120.32 61.4533 120.712 61.4907 121.197 61.752ZM167.696 58.504C169.152 58.6907 170.123 59.2133 170.608 60.072C171.131 60.8933 171.336 61.7893 171.224 62.76C171.112 63.6933 170.758 64.552 170.16 65.336C169.6 66.0827 168.966 66.4747 168.256 66.512C167.995 67.296 167.584 67.8373 167.024 68.136C166.464 68.4347 165.848 68.64 165.176 68.752C164.504 68.864 163.795 68.9947 163.048 69.144C162.339 69.256 161.667 69.5733 161.032 70.096C160.398 70.6187 159.856 71.1413 159.408 71.664C158.998 72.1493 158.662 72.6347 158.4 73.12C157.952 73.9413 157.56 74.9493 157.224 76.144C157.15 76.9653 157.542 77.7307 158.4 78.44C159.408 79.224 160.51 79.5787 161.704 79.504C162.899 79.392 163.851 79.448 164.56 79.672C165.307 79.8587 165.867 80.1387 166.24 80.512C167.062 81.3707 166.987 82.36 166.016 83.48C164.15 86.4667 161.014 88.24 156.608 88.8C155.302 88.9867 153.995 89.024 152.688 88.912C151.382 88.8373 150.112 88.352 148.88 87.456C147.648 86.56 146.678 85.3467 145.968 83.816C144.4 80.3067 144.531 76.2187 146.36 71.552C148.115 67.184 150.747 63.824 154.256 61.472C158.102 58.8587 162.582 57.8693 167.696 58.504ZM185.578 77.712C184.868 78.048 184.178 78.3093 183.506 78.496C182.834 78.6827 182.05 78.8693 181.154 79.056C178.802 79.5413 177.103 79.8213 176.058 79.896C176.17 80.2693 176.73 80.7173 177.738 81.24C178.41 81.352 179.138 81.2587 179.922 80.96C180.743 80.624 181.583 80.3253 182.442 80.064C183.338 79.7653 184.196 79.5973 185.018 79.56C185.876 79.5227 186.679 79.84 187.426 80.512C187.724 81.184 187.967 81.576 188.154 81.688C188.34 81.8 188.508 81.856 188.658 81.856C188.807 81.856 188.975 81.912 189.162 82.024C189.348 82.136 189.61 82.5653 189.946 83.312C190.319 84.0587 190.226 84.768 189.666 85.44C189.143 86.112 188.322 86.6907 187.202 87.176C186.082 87.6613 184.775 88.0533 183.282 88.352C181.788 88.6507 180.295 88.856 178.802 88.968C175.442 89.2293 172.884 88.968 171.13 88.184C168.591 87.3253 166.948 85.6267 166.202 83.088C165.231 79.728 165.772 75.808 167.826 71.328C168.759 69.2373 170.234 66.9973 172.25 64.608C174.004 62.5173 175.964 61.0053 178.13 60.072C180.631 58.9893 183.244 58.4853 185.97 58.56C188.882 58.6347 190.898 59.904 192.018 62.368C192.578 63.6747 192.69 65.504 192.354 67.856C191.756 70.9173 190.972 73.0827 190.002 74.352C189.031 75.584 187.556 76.704 185.578 77.712ZM182.33 68.864C180.351 68.4533 178.802 69.5733 177.682 72.224C177.346 72.9333 177.084 73.68 176.898 74.464C178.167 74.6133 179.511 73.904 180.93 72.336C181.452 71.7013 181.844 71.0667 182.106 70.432C182.367 69.76 182.442 69.2373 182.33 68.864ZM200.385 83.816C200.161 84.6 199.9 85.2907 199.601 85.888C199.303 86.4853 198.855 87.0453 198.257 87.568C197.66 88.0907 196.951 88.576 196.129 89.024C195.308 89.5093 194.524 89.8453 193.777 90.032C192.06 90.4053 191.164 89.9013 191.089 88.52C190.977 88.1467 190.735 87.9227 190.361 87.848C190.025 87.8107 189.708 87.7173 189.409 87.568C188.625 87.232 188.401 86.3173 188.737 84.824C189.335 82.7707 189.988 80.288 190.697 77.376C191.407 74.4267 192.321 71.1973 193.441 67.688C196.092 59.176 199.377 51.504 203.297 44.672C203.559 44.336 203.857 43.9067 204.193 43.384C204.529 42.824 204.959 42.32 205.481 41.872C206.788 40.6773 208.393 40.3973 210.297 41.032C210.26 41.5173 210.372 41.9653 210.633 42.376C210.895 42.7493 211.193 43.1413 211.529 43.552C212.388 44.5227 212.78 45.4 212.705 46.184C208.748 55.5547 205.183 66.0267 202.009 77.6C201.636 78.944 201.337 80.12 201.113 81.128C200.889 82.136 200.647 83.032 200.385 83.816Z"/>
</mask>
<path d="M82.144 58.112C82.144 56.992 81.752 56.432 80.968 56.432C80.6693 56.432 80.3147 56.5067 79.904 56.656C79.4933 56.8053 79.1013 56.936 78.728 57.048C77.3467 57.7947 76.264 58.616 75.48 59.512C74.7333 60.3707 73.968 61.3413 73.184 62.424C72.4 63.5067 71.728 64.664 71.168 65.896C70.608 67.128 70.1787 68.2853 69.88 69.368C68.7973 73.3627 69.208 76.0507 71.112 77.432C71.896 77.992 72.7173 78.272 73.576 78.272C74.472 78.2347 75.1813 78.048 75.704 77.712C76.264 77.376 76.8053 77.0587 77.328 76.76C77.8507 76.4613 78.448 76.256 79.12 76.144C79.8293 75.9947 80.688 76.088 81.696 76.424C82.7413 76.7227 83.3013 77.1333 83.376 77.656C83.4507 78.1787 83.4507 78.72 83.376 79.28C83.3013 79.84 83.2827 80.344 83.32 80.792C83.3947 81.24 83.8053 81.52 84.552 81.632C85.2613 82.528 84.8133 83.6107 83.208 84.88C82.7973 85.216 82.4053 85.5333 82.032 85.832C78.8213 87.8853 75.4053 89.024 71.784 89.248C69.5067 89.3973 67.08 88.9867 64.504 88.016C60.6587 86.56 58.4933 83.2933 58.008 78.216C57.3733 73.512 57.9707 68.64 59.8 63.6C61.3307 59.344 63.6453 55.4053 66.744 51.784C69.544 48.4613 72.3067 46.296 75.032 45.288C78.28 43.608 81.7893 42.9547 85.56 43.328C89.5547 43.8507 92.168 45.5493 93.4 48.424C94.632 51.2987 94.4267 54.752 92.784 58.784C92.224 60.2027 91.16 61.3227 89.592 62.144C88.248 62.8907 86.792 63.264 85.224 63.264C83.656 63.264 82.648 62.7787 82.2 61.808C81.752 60.8 81.7333 59.568 82.144 58.112ZM111.11 61.976L111.334 62.032C111.408 62.032 111.446 62.0507 111.446 62.088C112.416 61.7147 113.219 61.9947 113.854 62.928C114.264 63.5627 114.582 64.5333 114.806 65.84C114.88 67.632 114.694 70.1147 114.246 73.288C113.387 79.7093 112.92 83.536 112.846 84.768C112.92 86.0747 112.118 86.9707 110.438 87.456C108.982 87.904 107.526 87.8853 106.07 87.4C104.539 86.8773 103.904 86.0747 104.166 84.992C103.867 85.552 103.568 85.944 103.27 86.168C102.971 86.4293 102.374 86.7653 101.478 87.176C100.619 87.624 99.3869 87.9787 97.7816 88.24C96.1762 88.5387 94.5709 88.6133 92.9656 88.464C91.3602 88.352 89.8856 87.96 88.5416 87.288C87.2349 86.6533 86.3576 85.6453 85.9096 84.264C85.0509 81.576 85.1629 78.16 86.2456 74.016C86.9922 71.2907 88.3362 68.8827 90.2776 66.792C92.5176 64.4027 95.0562 62.424 97.8936 60.856C100.022 59.6987 102.075 59.008 104.054 58.784C104.726 58.7093 105.304 58.728 105.79 58.84C106.312 58.952 106.854 59.064 107.414 59.176C108.011 59.288 108.571 59.456 109.094 59.68C110.438 60.24 111.11 61.0053 111.11 61.976ZM100.75 76.816C101.011 76.2933 101.216 75.64 101.366 74.856C101.552 74.072 101.795 73.2133 102.094 72.28C99.0696 73.512 96.7549 75.024 95.1496 76.816C93.3949 78.7947 93.5069 80.1573 95.4856 80.904C97.2029 81.352 98.4536 81.072 99.2376 80.064C99.5736 79.616 99.8722 79.056 100.134 78.384C100.395 77.712 100.712 77.0213 101.086 76.312C100.974 76.4987 100.862 76.6667 100.75 76.816ZM121.197 61.752C123.698 60.744 125.378 60.7253 126.237 61.696C126.685 62.2187 126.909 62.9467 126.909 63.88V64.16C128.29 62.5547 130.698 61.2107 134.133 60.128C137.754 59.008 140.741 58.6907 143.093 59.176C146.154 59.8107 147.872 61.808 148.245 65.168C148.544 68.0053 147.89 71.608 146.285 75.976C145.762 77.096 145.352 78.0107 145.053 78.72C144.792 79.392 144.549 80.008 144.325 80.568C143.84 81.6133 143.074 82.864 142.029 84.32C141.432 85.44 140.498 86.2987 139.229 86.896C137.997 87.4933 136.765 87.8293 135.533 87.904C134.338 88.016 133.349 87.8293 132.565 87.344C131.781 86.896 131.557 86.168 131.893 85.16C132.752 82.8453 133.461 80.736 134.021 78.832C134.581 76.928 135.16 75.304 135.757 73.96C136.317 72.056 136.392 70.8613 135.981 70.376C135.645 70.0027 135.066 70.0587 134.245 70.544C133.536 70.992 133.032 71.5147 132.733 72.112C132.061 72.5973 130.792 74.5387 128.925 77.936C128.402 78.8693 127.88 79.8027 127.357 80.736C126.872 81.632 126.405 82.472 125.957 83.256C125.546 84.04 125.173 84.6933 124.837 85.216C124.538 85.7387 124.258 86.0747 123.997 86.224C123.773 86.4107 123.568 86.5227 123.381 86.56C123.232 86.6347 123.101 86.7093 122.989 86.784C122.877 86.8587 122.784 87.1013 122.709 87.512C122.56 88.3707 121.664 89.0053 120.021 89.416C117.37 90.088 114.981 89.976 112.853 89.08C112.144 88.7813 111.584 88.3707 111.173 87.848C110.314 86.1307 111.789 80.288 115.597 70.32C116.941 66.8107 117.818 64.72 118.229 64.048C119.162 62.6293 119.76 61.8267 120.021 61.64C120.32 61.4533 120.712 61.4907 121.197 61.752ZM167.696 58.504C169.152 58.6907 170.123 59.2133 170.608 60.072C171.131 60.8933 171.336 61.7893 171.224 62.76C171.112 63.6933 170.758 64.552 170.16 65.336C169.6 66.0827 168.966 66.4747 168.256 66.512C167.995 67.296 167.584 67.8373 167.024 68.136C166.464 68.4347 165.848 68.64 165.176 68.752C164.504 68.864 163.795 68.9947 163.048 69.144C162.339 69.256 161.667 69.5733 161.032 70.096C160.398 70.6187 159.856 71.1413 159.408 71.664C158.998 72.1493 158.662 72.6347 158.4 73.12C157.952 73.9413 157.56 74.9493 157.224 76.144C157.15 76.9653 157.542 77.7307 158.4 78.44C159.408 79.224 160.51 79.5787 161.704 79.504C162.899 79.392 163.851 79.448 164.56 79.672C165.307 79.8587 165.867 80.1387 166.24 80.512C167.062 81.3707 166.987 82.36 166.016 83.48C164.15 86.4667 161.014 88.24 156.608 88.8C155.302 88.9867 153.995 89.024 152.688 88.912C151.382 88.8373 150.112 88.352 148.88 87.456C147.648 86.56 146.678 85.3467 145.968 83.816C144.4 80.3067 144.531 76.2187 146.36 71.552C148.115 67.184 150.747 63.824 154.256 61.472C158.102 58.8587 162.582 57.8693 167.696 58.504ZM185.578 77.712C184.868 78.048 184.178 78.3093 183.506 78.496C182.834 78.6827 182.05 78.8693 181.154 79.056C178.802 79.5413 177.103 79.8213 176.058 79.896C176.17 80.2693 176.73 80.7173 177.738 81.24C178.41 81.352 179.138 81.2587 179.922 80.96C180.743 80.624 181.583 80.3253 182.442 80.064C183.338 79.7653 184.196 79.5973 185.018 79.56C185.876 79.5227 186.679 79.84 187.426 80.512C187.724 81.184 187.967 81.576 188.154 81.688C188.34 81.8 188.508 81.856 188.658 81.856C188.807 81.856 188.975 81.912 189.162 82.024C189.348 82.136 189.61 82.5653 189.946 83.312C190.319 84.0587 190.226 84.768 189.666 85.44C189.143 86.112 188.322 86.6907 187.202 87.176C186.082 87.6613 184.775 88.0533 183.282 88.352C181.788 88.6507 180.295 88.856 178.802 88.968C175.442 89.2293 172.884 88.968 171.13 88.184C168.591 87.3253 166.948 85.6267 166.202 83.088C165.231 79.728 165.772 75.808 167.826 71.328C168.759 69.2373 170.234 66.9973 172.25 64.608C174.004 62.5173 175.964 61.0053 178.13 60.072C180.631 58.9893 183.244 58.4853 185.97 58.56C188.882 58.6347 190.898 59.904 192.018 62.368C192.578 63.6747 192.69 65.504 192.354 67.856C191.756 70.9173 190.972 73.0827 190.002 74.352C189.031 75.584 187.556 76.704 185.578 77.712ZM182.33 68.864C180.351 68.4533 178.802 69.5733 177.682 72.224C177.346 72.9333 177.084 73.68 176.898 74.464C178.167 74.6133 179.511 73.904 180.93 72.336C181.452 71.7013 181.844 71.0667 182.106 70.432C182.367 69.76 182.442 69.2373 182.33 68.864ZM200.385 83.816C200.161 84.6 199.9 85.2907 199.601 85.888C199.303 86.4853 198.855 87.0453 198.257 87.568C197.66 88.0907 196.951 88.576 196.129 89.024C195.308 89.5093 194.524 89.8453 193.777 90.032C192.06 90.4053 191.164 89.9013 191.089 88.52C190.977 88.1467 190.735 87.9227 190.361 87.848C190.025 87.8107 189.708 87.7173 189.409 87.568C188.625 87.232 188.401 86.3173 188.737 84.824C189.335 82.7707 189.988 80.288 190.697 77.376C191.407 74.4267 192.321 71.1973 193.441 67.688C196.092 59.176 199.377 51.504 203.297 44.672C203.559 44.336 203.857 43.9067 204.193 43.384C204.529 42.824 204.959 42.32 205.481 41.872C206.788 40.6773 208.393 40.3973 210.297 41.032C210.26 41.5173 210.372 41.9653 210.633 42.376C210.895 42.7493 211.193 43.1413 211.529 43.552C212.388 44.5227 212.78 45.4 212.705 46.184C208.748 55.5547 205.183 66.0267 202.009 77.6C201.636 78.944 201.337 80.12 201.113 81.128C200.889 82.136 200.647 83.032 200.385 83.816Z" fill="white"/>
<path d="M82.144 58.112L84.0689 58.6549L84.144 58.3887V58.112H82.144ZM79.904 56.656L79.2205 54.7764L79.2205 54.7764L79.904 56.656ZM78.728 57.048L78.1533 55.1323L77.9571 55.1912L77.777 55.2886L78.728 57.048ZM75.48 59.512L73.9748 58.195L73.9708 58.1996L75.48 59.512ZM73.184 62.424L71.5641 61.251L71.5641 61.251L73.184 62.424ZM71.168 65.896L72.9887 66.7236L72.9887 66.7236L71.168 65.896ZM69.88 69.368L67.952 68.8361L67.9496 68.8448L69.88 69.368ZM71.112 77.432L69.9375 79.0508L69.9435 79.0552L69.9495 79.0595L71.112 77.432ZM73.576 78.272V80.272H73.6176L73.6593 80.2703L73.576 78.272ZM75.704 77.712L74.675 75.997L74.6485 76.0129L74.6225 76.0296L75.704 77.712ZM79.12 76.144L79.4488 78.1168L79.4906 78.1098L79.532 78.1011L79.12 76.144ZM81.696 76.424L81.0635 78.3214L81.1048 78.3351L81.1466 78.347L81.696 76.424ZM83.376 77.656L81.3961 77.9388L83.376 77.656ZM83.376 79.28L81.3935 79.0157L83.376 79.28ZM83.32 80.792L81.3269 80.9581L81.3337 81.0399L81.3472 81.1208L83.32 80.792ZM84.552 81.632L86.1201 80.3906L85.6298 79.7713L84.8487 79.6541L84.552 81.632ZM83.208 84.88L81.9675 83.3112L81.9544 83.3215L81.9415 83.3321L83.208 84.88ZM82.032 85.832L83.1096 87.5169L83.1987 87.4599L83.2814 87.3937L82.032 85.832ZM71.784 89.248L71.6605 87.2518L71.6531 87.2523L71.784 89.248ZM64.504 88.016L63.7958 89.8864L63.7988 89.8875L64.504 88.016ZM58.008 78.216L59.9989 78.0257L59.9952 77.987L59.99 77.9486L58.008 78.216ZM59.8 63.6L61.68 64.2824L61.682 64.2769L59.8 63.6ZM66.744 51.784L68.2636 53.0843L68.2685 53.0786L68.2734 53.0728L66.744 51.784ZM75.032 45.288L75.7258 47.1638L75.8414 47.1211L75.9508 47.0644L75.032 45.288ZM85.56 43.328L85.8195 41.3449L85.7883 41.3408L85.7571 41.3377L85.56 43.328ZM93.4 48.424L91.5617 49.2118L91.5617 49.2118L93.4 48.424ZM92.784 58.784L90.9318 58.0294L90.9277 58.0395L90.9237 58.0497L92.784 58.784ZM89.592 62.144L88.664 60.3723L88.6422 60.3837L88.6207 60.3957L89.592 62.144ZM82.2 61.808L80.3724 62.6203L80.3781 62.6332L80.3841 62.6461L82.2 61.808ZM84.144 58.112C84.144 57.38 84.027 56.4744 83.4885 55.7051C82.8589 54.8057 81.9019 54.432 80.968 54.432V58.432C80.9263 58.432 80.7934 58.424 80.6226 58.3427C80.4418 58.2566 80.3016 58.1275 80.2115 57.9989C80.1305 57.8831 80.1172 57.8074 80.1228 57.8315C80.1285 57.8559 80.144 57.9423 80.144 58.112H84.144ZM80.968 54.432C80.355 54.432 79.7581 54.5809 79.2205 54.7764L80.5875 58.5356C80.7216 58.4868 80.8213 58.4596 80.89 58.4451C80.9595 58.4305 80.9828 58.432 80.968 58.432V54.432ZM79.2205 54.7764C78.8415 54.9142 78.486 55.0325 78.1533 55.1323L79.3027 58.9637C79.7167 58.8395 80.1451 58.6964 80.5875 58.5356L79.2205 54.7764ZM77.777 55.2886C76.2491 56.1144 74.9569 57.0727 73.9748 58.195L76.9852 60.829C77.5711 60.1593 78.4442 59.4749 79.679 58.8074L77.777 55.2886ZM73.9708 58.1996C73.1792 59.11 72.3771 60.1283 71.5641 61.251L74.8039 63.597C75.5589 62.5544 76.2875 61.6313 76.9892 60.8244L73.9708 58.1996ZM71.5641 61.251C70.7008 62.4431 69.9618 63.7164 69.3473 65.0684L72.9887 66.7236C73.4942 65.6116 74.0992 64.5702 74.8039 63.597L71.5641 61.251ZM69.3473 65.0684C68.7523 66.3773 68.2836 67.6342 67.952 68.8361L71.808 69.8999C72.0737 68.9365 72.4637 67.8787 72.9887 66.7236L69.3473 65.0684ZM67.9496 68.8448C66.8293 72.9783 66.9388 76.8753 69.9375 79.0508L72.2865 75.8132C71.4772 75.2261 70.7653 73.747 71.8104 69.8912L67.9496 68.8448ZM69.9495 79.0595C71.0295 79.8309 72.2504 80.272 73.576 80.272V76.272C73.1843 76.272 72.7625 76.1531 72.2745 75.8045L69.9495 79.0595ZM73.6593 80.2703C74.7622 80.2243 75.8602 79.9892 76.7855 79.3944L74.6225 76.0296C74.5025 76.1068 74.1818 76.245 73.4927 76.2737L73.6593 80.2703ZM76.733 79.427C77.2818 79.0977 77.8109 78.7876 78.3203 78.4965L76.3357 75.0235C75.7998 75.3298 75.2462 75.6543 74.675 75.997L76.733 79.427ZM78.3203 78.4965C78.6123 78.3296 78.9798 78.195 79.4488 78.1168L78.7912 74.1712C77.9162 74.317 77.089 74.5931 76.3357 75.0235L78.3203 78.4965ZM79.532 78.1011C79.7689 78.0512 80.2456 78.0487 81.0635 78.3214L82.3285 74.5266C81.1304 74.1273 79.8898 73.9381 78.708 74.1869L79.532 78.1011ZM81.1466 78.347C81.3395 78.4022 81.4811 78.4544 81.5807 78.4984C81.682 78.5431 81.7197 78.5706 81.7173 78.5688C81.7144 78.5667 81.6496 78.5191 81.5751 78.4096C81.4951 78.292 81.4235 78.1305 81.3961 77.9388L85.3559 77.3732C85.2207 76.4267 84.654 75.7621 84.0827 75.3432C83.535 74.9415 82.8818 74.6828 82.2454 74.501L81.1466 78.347ZM81.3961 77.9388C81.4431 78.2679 81.4457 78.6246 81.3935 79.0157L85.3585 79.5443C85.4557 78.8154 85.4582 78.0895 85.3559 77.3732L81.3961 77.9388ZM81.3935 79.0157C81.3045 79.6837 81.275 80.3356 81.3269 80.9581L85.3131 80.6259C85.2903 80.3524 85.2982 79.9963 85.3585 79.5443L81.3935 79.0157ZM81.3472 81.1208C81.6488 82.9306 83.3032 83.4671 84.2553 83.6099L84.8487 79.6541C84.6326 79.6217 84.672 79.591 84.8107 79.6855C84.8917 79.7408 85.0031 79.8371 85.1031 79.9871C85.2054 80.1406 85.2668 80.307 85.2928 80.4632L81.3472 81.1208ZM82.9839 82.8734C82.9703 82.8562 82.9054 82.761 82.8842 82.6009C82.8635 82.4437 82.9013 82.3481 82.9 82.3513C82.8935 82.3669 82.8466 82.4665 82.6884 82.6477C82.5328 82.8258 82.3004 83.048 81.9675 83.3112L84.4485 86.4488C85.3457 85.7394 86.1772 84.8929 86.596 83.8807C86.8187 83.3425 86.9359 82.7289 86.8498 82.0771C86.7633 81.4224 86.4884 80.8558 86.1201 80.3906L82.9839 82.8734ZM81.9415 83.3321C81.5359 83.6639 81.1496 83.9766 80.7826 84.2703L83.2814 87.3937C83.661 87.09 84.0587 86.7681 84.4745 86.4279L81.9415 83.3321ZM80.9545 84.1471C78.0152 86.0268 74.9252 87.0499 71.6605 87.2518L71.9075 91.2442C75.8854 90.9981 79.6275 89.7438 83.1096 87.5169L80.9545 84.1471ZM71.6531 87.2523C69.7126 87.3795 67.5725 87.035 65.2092 86.1445L63.7988 89.8875C66.5875 90.9383 69.3007 91.4151 71.9149 91.2437L71.6531 87.2523ZM65.2122 86.1456C62.265 85.0296 60.4327 82.5639 59.9989 78.0257L56.0171 78.4063C56.5539 84.0227 59.0524 88.0904 63.7958 89.8864L65.2122 86.1456ZM59.99 77.9486C59.4039 73.6043 59.9464 69.0585 61.68 64.2824L57.92 62.9176C55.9949 68.2215 55.3428 73.4197 56.026 78.4834L59.99 77.9486ZM61.682 64.2769C63.1263 60.261 65.3139 56.5315 68.2636 53.0843L65.2244 50.4837C61.9767 54.2792 59.535 58.427 57.918 62.9231L61.682 64.2769ZM68.2734 53.0728C70.9526 49.8935 73.4471 48.0066 75.7258 47.1638L74.3382 43.4122C71.1663 44.5854 68.1354 47.0292 65.2146 50.4952L68.2734 53.0728ZM75.9508 47.0644C78.8425 45.5688 81.9624 44.9816 85.3629 45.3183L85.7571 41.3377C81.6163 40.9278 77.7175 41.6472 74.1132 43.5116L75.9508 47.0644ZM85.3005 45.3111C88.8263 45.7724 90.6891 47.1756 91.5617 49.2118L95.2383 47.6362C93.6469 43.923 90.2831 41.9289 85.8195 41.3449L85.3005 45.3111ZM91.5617 49.2118C92.5116 51.4282 92.4533 54.2948 90.9318 58.0294L94.6362 59.5386C96.4 55.2092 96.7524 51.1691 95.2383 47.6362L91.5617 49.2118ZM90.9237 58.0497C90.5677 58.9515 89.8791 59.7359 88.664 60.3723L90.52 63.9157C92.4409 62.9095 93.8803 61.4539 94.6443 59.5183L90.9237 58.0497ZM88.6207 60.3957C87.5799 60.9739 86.4592 61.264 85.224 61.264V65.264C87.1248 65.264 88.9161 64.8074 90.5633 63.8923L88.6207 60.3957ZM85.224 61.264C84.6274 61.264 84.3068 61.1689 84.1596 61.098C84.053 61.0466 84.0357 61.0128 84.0159 60.9699L80.3841 62.6461C81.3034 64.638 83.2922 65.264 85.224 65.264V61.264ZM84.0276 60.9957C83.8291 60.5491 83.7381 59.8278 84.0689 58.6549L80.2191 57.5691C79.7286 59.3081 79.6749 61.0509 80.3724 62.6203L84.0276 60.9957ZM111.11 61.976H109.11V63.5376L110.624 63.9163L111.11 61.976ZM111.334 62.032L110.848 63.9723L111.087 64.032H111.334V62.032ZM111.446 62.088H109.446V65.0001L112.164 63.9547L111.446 62.088ZM113.854 62.928L115.533 61.8415L115.52 61.8223L115.507 61.8034L113.854 62.928ZM114.806 65.84L116.804 65.7567L116.798 65.6285L116.777 65.5021L114.806 65.84ZM114.246 73.288L112.265 73.0084L112.264 73.0157L112.263 73.0229L114.246 73.288ZM112.846 84.768L110.849 84.647L110.842 84.7645L110.849 84.8821L112.846 84.768ZM110.438 87.456L109.882 85.5346L109.866 85.5394L109.849 85.5444L110.438 87.456ZM106.07 87.4L105.423 89.2927L105.43 89.2951L105.437 89.2974L106.07 87.4ZM104.166 84.992L106.11 85.4613L102.401 84.0508L104.166 84.992ZM103.27 86.168L102.07 84.568L102.009 84.6132L101.953 84.6628L103.27 86.168ZM101.478 87.176L100.644 85.3579L100.598 85.3792L100.552 85.4028L101.478 87.176ZM97.7816 88.24L97.4602 86.266L97.4379 86.2696L97.4157 86.2737L97.7816 88.24ZM92.9656 88.464L93.1508 86.4726L93.1278 86.4705L93.1048 86.4689L92.9656 88.464ZM88.5416 87.288L89.436 85.4991L89.4257 85.494L89.4154 85.489L88.5416 87.288ZM85.9096 84.264L84.0044 84.8726L84.0071 84.881L85.9096 84.264ZM86.2456 74.016L84.3166 73.4875L84.3135 73.499L84.3105 73.5104L86.2456 74.016ZM90.2776 66.792L88.8185 65.4241L88.812 65.4311L90.2776 66.792ZM97.8936 60.856L96.938 59.099L96.9262 59.1055L97.8936 60.856ZM104.054 58.784L103.833 56.7962L103.829 56.7967L104.054 58.784ZM105.79 58.84L105.34 60.7888L105.355 60.7923L105.371 60.7956L105.79 58.84ZM107.414 59.176L107.021 61.1372L107.033 61.1395L107.045 61.1417L107.414 59.176ZM109.094 59.68L108.306 61.5183L108.315 61.5223L108.324 61.5262L109.094 59.68ZM100.75 76.816L98.9607 75.9216L102.35 78.016L100.75 76.816ZM101.366 74.856L99.42 74.3928L99.4094 74.437L99.4009 74.4818L101.366 74.856ZM102.094 72.28L103.998 72.8896L105.303 68.8129L101.339 70.4278L102.094 72.28ZM95.1496 76.816L93.6599 75.4815L93.6532 75.489L95.1496 76.816ZM95.4856 80.904L94.7794 82.7752L94.8784 82.8125L94.9807 82.8392L95.4856 80.904ZM99.2376 80.064L100.816 81.2919L100.827 81.278L100.838 81.264L99.2376 80.064ZM100.134 78.384L101.998 79.1089L101.998 79.1089L100.134 78.384ZM101.086 76.312L102.855 77.2435L99.3706 75.283L101.086 76.312ZM110.624 63.9163L110.848 63.9723L111.819 60.0917L111.595 60.0357L110.624 63.9163ZM111.334 64.032C111.269 64.032 110.922 64.0345 110.523 63.8348C110.295 63.7209 110.004 63.5174 109.774 63.1729C109.536 62.8159 109.446 62.4286 109.446 62.088H113.446C113.446 61.7287 113.35 61.3251 113.103 60.9541C112.864 60.5956 112.559 60.3804 112.312 60.2571C111.875 60.0388 111.473 60.032 111.334 60.032V64.032ZM112.164 63.9547C112.243 63.9242 112.268 63.9267 112.247 63.9277C112.237 63.9283 112.218 63.9283 112.193 63.9248C112.168 63.9213 112.142 63.9151 112.117 63.9064C112.092 63.8977 112.073 63.8884 112.062 63.8816C112.05 63.8749 112.049 63.8725 112.056 63.8788C112.072 63.8924 112.124 63.9407 112.2 64.0526L115.507 61.8034C115.027 61.0974 114.355 60.4508 113.434 60.1296C112.492 59.801 111.552 59.9041 110.728 60.2213L112.164 63.9547ZM112.174 64.0145C112.367 64.3114 112.627 64.9671 112.834 66.1779L116.777 65.5021C116.536 64.0996 116.162 62.8139 115.533 61.8415L112.174 64.0145ZM112.807 65.9233C112.874 67.5349 112.707 69.8774 112.265 73.0084L116.226 73.5676C116.68 70.352 116.886 67.7291 116.804 65.7567L112.807 65.9233ZM112.263 73.0229C111.41 79.4049 110.929 83.3235 110.849 84.647L114.842 84.889C114.911 83.7485 115.364 80.0138 116.228 73.5531L112.263 73.0229ZM110.849 84.8821C110.855 84.9896 110.841 85.0356 110.838 85.0434C110.837 85.0477 110.834 85.0587 110.81 85.0855C110.748 85.1547 110.516 85.3514 109.882 85.5346L110.993 89.3774C112.039 89.0752 113.049 88.5813 113.789 87.7545C114.579 86.8734 114.907 85.7868 114.842 84.6539L110.849 84.8821ZM109.849 85.5444C108.795 85.8689 107.766 85.8572 106.702 85.5026L105.437 89.2974C107.285 89.9135 109.168 89.9391 111.026 89.3676L109.849 85.5444ZM106.716 85.5073C106.436 85.4119 106.25 85.3211 106.134 85.2497C106.017 85.1785 105.997 85.1429 106.014 85.1655C106.039 85.1971 106.081 85.2675 106.099 85.363C106.117 85.4529 106.102 85.4952 106.11 85.4613L102.221 84.5227C101.961 85.6007 102.141 86.7162 102.877 87.6465C103.534 88.4773 104.488 88.9732 105.423 89.2927L106.716 85.5073ZM102.401 84.0508C102.289 84.2615 102.195 84.4037 102.127 84.4939C102.056 84.5871 102.033 84.5955 102.07 84.568L104.47 87.768C105.112 87.2863 105.577 86.5949 105.93 85.9332L102.401 84.0508ZM101.953 84.6628C101.955 84.6606 101.869 84.7313 101.617 84.8728C101.382 85.005 101.062 85.1665 100.644 85.3579L102.311 88.9941C103.199 88.5873 104.044 88.148 104.587 87.6732L101.953 84.6628ZM100.552 85.4028C99.9684 85.7076 98.9775 86.019 97.4602 86.266L98.1029 90.214C99.7963 89.9383 101.269 89.5404 102.403 88.9492L100.552 85.4028ZM97.4157 86.2737C95.9897 86.539 94.5698 86.6046 93.1508 86.4726L92.7803 90.4554C94.572 90.6221 96.3628 90.5383 98.1474 90.2063L97.4157 86.2737ZM93.1048 86.4689C91.7434 86.3739 90.528 86.0451 89.436 85.4991L87.6471 89.0769C89.2432 89.8749 90.977 90.3301 92.8264 90.4592L93.1048 86.4689ZM89.4154 85.489C88.5979 85.0919 88.0921 84.5106 87.812 83.647L84.0071 84.881C84.623 86.78 85.8719 88.2147 87.6678 89.087L89.4154 85.489ZM87.8147 83.6554C87.1165 81.4698 87.1477 78.4753 88.1806 74.5216L84.3105 73.5104C83.1781 77.8447 82.9853 81.6822 84.0044 84.8726L87.8147 83.6554ZM88.1745 74.5445C88.8352 72.133 90.0189 70.0098 91.7432 68.1529L88.812 65.4311C86.6536 67.7555 85.1493 70.4483 84.3166 73.4875L88.1745 74.5445ZM91.7366 68.1599C93.8352 65.9214 96.2084 64.0724 98.8609 62.6065L96.9262 59.1055C93.9041 60.7756 91.1999 62.8839 88.8185 65.4241L91.7366 68.1599ZM98.8491 62.613C100.798 61.5528 102.605 60.9608 104.279 60.7713L103.829 56.7967C101.545 57.0552 99.2447 57.8445 96.938 59.099L98.8491 62.613ZM104.274 60.7718C104.797 60.7137 105.137 60.742 105.34 60.7888L106.239 56.8912C105.471 56.714 104.654 56.705 103.833 56.7962L104.274 60.7718ZM105.371 60.7956C105.903 60.9096 106.453 61.0235 107.021 61.1372L107.806 57.2148C107.254 57.1045 106.722 56.9944 106.209 56.8844L105.371 60.7956ZM107.045 61.1417C107.508 61.2286 107.927 61.3558 108.306 61.5183L109.881 57.8417C109.215 57.5562 108.514 57.3474 107.782 57.2103L107.045 61.1417ZM108.324 61.5262C108.827 61.7358 109.035 61.9169 109.103 61.9936C109.13 62.0252 109.127 62.0301 109.118 62.0085C109.109 61.9854 109.11 61.9695 109.11 61.976H113.11C113.11 59.8165 111.522 58.5253 109.863 57.8338L108.324 61.5262ZM102.538 77.7104C102.906 76.9757 103.158 76.1339 103.33 75.2302L99.4009 74.4818C99.2743 75.1461 99.116 75.611 98.9607 75.9216L102.538 77.7104ZM103.311 75.3192C103.484 74.5937 103.712 73.7845 103.998 72.8896L100.189 71.6704C99.8778 72.6421 99.6205 73.5503 99.42 74.3928L103.311 75.3192ZM101.339 70.4278C98.1291 71.7355 95.5267 73.3976 93.6599 75.4815L96.6392 78.1505C97.983 76.6504 100.01 75.2885 102.848 74.1322L101.339 70.4278ZM93.6532 75.489C92.7142 76.5479 91.7966 77.9328 91.9243 79.4858C92.0746 81.3151 93.507 82.295 94.7794 82.7752L96.1917 79.0328C95.8598 78.9076 95.7645 78.813 95.772 78.8206C95.7818 78.8304 95.817 78.8694 95.851 78.9405C95.886 79.0137 95.9053 79.0907 95.9108 79.1582C95.9213 79.2853 95.877 79.2731 95.9784 79.0669C96.0792 78.8619 96.2807 78.5548 96.6459 78.143L93.6532 75.489ZM94.9807 82.8392C97.1146 83.3959 99.3491 83.1782 100.816 81.2919L97.6589 78.8361C97.558 78.9658 97.2912 79.3081 95.9904 78.9688L94.9807 82.8392ZM100.838 81.264C101.309 80.6356 101.688 79.9046 101.998 79.1089L98.2696 77.6591C98.0563 78.2074 97.8383 78.5964 97.6376 78.864L100.838 81.264ZM101.998 79.1089C102.229 78.5148 102.514 77.8931 102.855 77.2435L99.3157 75.3805C98.911 76.1496 98.5612 76.9092 98.2696 77.6591L101.998 79.1089ZM99.3706 75.283C99.2883 75.4201 99.2142 75.5298 99.1496 75.616L102.35 78.016C102.509 77.8035 102.659 77.5772 102.801 77.341L99.3706 75.283ZM121.197 61.752L120.249 63.5129L121.075 63.9576L121.945 63.607L121.197 61.752ZM126.237 61.696L127.756 60.3944L127.745 60.3826L127.735 60.3709L126.237 61.696ZM126.909 64.16H124.909V69.5507L128.425 65.4645L126.909 64.16ZM134.133 60.128L133.542 58.2173L133.532 58.2205L134.133 60.128ZM143.093 59.176L143.499 57.2176L143.497 57.2173L143.093 59.176ZM148.245 65.168L150.234 64.9586L150.233 64.9471L148.245 65.168ZM146.285 75.976L148.097 76.8218L148.133 76.7452L148.162 76.6659L146.285 75.976ZM145.053 78.72L143.21 77.9439L143.199 77.9694L143.189 77.9951L145.053 78.72ZM144.325 80.568L146.139 81.4102L146.162 81.3611L146.182 81.3108L144.325 80.568ZM142.029 84.32L140.404 83.1536L140.327 83.2616L140.264 83.3788L142.029 84.32ZM139.229 86.896L138.377 85.0864L138.367 85.0913L138.356 85.0964L139.229 86.896ZM135.533 87.904L135.412 85.9077L135.379 85.9097L135.346 85.9127L135.533 87.904ZM132.565 87.344L133.618 85.6435L133.588 85.625L133.557 85.6075L132.565 87.344ZM131.893 85.16L130.018 84.4644L130.006 84.4958L129.996 84.5275L131.893 85.16ZM134.021 78.832L135.94 79.3963L135.94 79.3963L134.021 78.832ZM135.757 73.96L137.585 74.7723L137.638 74.6513L137.676 74.5243L135.757 73.96ZM135.981 70.376L137.508 69.0841L137.488 69.0608L137.468 69.0381L135.981 70.376ZM134.245 70.544L133.228 68.8221L133.202 68.8372L133.177 68.853L134.245 70.544ZM132.733 72.112L133.904 73.7334L134.302 73.4458L134.522 73.0064L132.733 72.112ZM128.925 77.936L130.67 78.9132L130.674 78.9062L130.678 78.8991L128.925 77.936ZM127.357 80.736L125.612 79.7588L125.605 79.7711L125.598 79.7834L127.357 80.736ZM125.957 83.256L124.221 82.2637L124.202 82.2955L124.185 82.328L125.957 83.256ZM124.837 85.216L123.155 84.1345L123.126 84.1784L123.101 84.2237L124.837 85.216ZM123.997 86.224L123.005 84.4875L122.852 84.5749L122.717 84.6876L123.997 86.224ZM123.381 86.56L122.989 84.5988L122.726 84.6514L122.487 84.7711L123.381 86.56ZM122.989 86.784L124.098 88.4481L124.098 88.4481L122.989 86.784ZM122.709 87.512L120.741 87.1542L120.74 87.1618L120.739 87.1693L122.709 87.512ZM120.021 89.416L119.536 87.4757L119.53 87.4773L120.021 89.416ZM112.853 89.08L112.077 90.9233L112.077 90.9233L112.853 89.08ZM111.173 87.848L109.384 88.7424L109.475 88.924L109.6 89.0836L111.173 87.848ZM115.597 70.32L113.729 69.6047L113.729 69.6063L115.597 70.32ZM118.229 64.048L116.558 62.9488L116.54 62.9766L116.522 63.0051L118.229 64.048ZM120.021 61.64L118.961 59.944L118.909 59.9767L118.859 60.0125L120.021 61.64ZM121.945 63.607C123.087 63.1466 123.869 62.9873 124.355 62.9819C124.798 62.977 124.802 63.0918 124.739 63.0211L127.735 60.3709C126.814 59.3295 125.548 58.9684 124.311 58.9821C123.117 58.9954 121.808 59.3494 120.449 59.897L121.945 63.607ZM124.718 62.9976C124.76 63.0464 124.909 63.2535 124.909 63.88H128.909C128.909 62.6398 128.61 61.3909 127.756 60.3944L124.718 62.9976ZM124.909 63.88V64.16H128.909V63.88H124.909ZM128.425 65.4645C129.448 64.2762 131.435 63.0756 134.734 62.0355L133.532 58.2205C129.962 59.3458 127.133 60.8332 125.393 62.8555L128.425 65.4645ZM134.724 62.0387C138.191 60.9663 140.805 60.746 142.689 61.1347L143.497 57.2173C140.677 56.6353 137.317 57.0497 133.542 58.2173L134.724 62.0387ZM142.687 61.1344C143.869 61.3794 144.641 61.8494 145.16 62.4539C145.691 63.0711 146.102 63.9962 146.257 65.3889L150.233 64.9471C150.014 62.9798 149.38 61.2262 148.194 59.8461C146.996 58.4532 145.378 57.6072 143.499 57.2176L142.687 61.1344ZM146.256 65.3774C146.509 67.7768 145.966 71.045 144.408 75.2861L148.162 76.6659C149.814 72.171 150.579 68.2338 150.234 64.9586L146.256 65.3774ZM144.473 75.1302C143.945 76.2613 143.522 77.2015 143.21 77.9439L146.896 79.4961C147.181 78.8198 147.58 77.9307 148.097 76.8218L144.473 75.1302ZM143.189 77.9951C142.93 78.6622 142.689 79.2722 142.468 79.8252L146.182 81.3108C146.409 80.7438 146.654 80.1218 146.917 79.4449L143.189 77.9951ZM142.511 79.7258C142.099 80.613 141.412 81.7501 140.404 83.1536L143.654 85.4864C144.737 83.9779 145.58 82.6137 146.139 81.4102L142.511 79.7258ZM140.264 83.3788C139.891 84.0784 139.3 84.6522 138.377 85.0864L140.081 88.7056C141.697 87.9451 142.972 86.8016 143.794 85.2612L140.264 83.3788ZM138.356 85.0964C137.334 85.5921 136.356 85.8505 135.412 85.9077L135.654 89.9003C137.174 89.8082 138.66 89.3945 140.102 88.6956L138.356 85.0964ZM135.346 85.9127C134.454 85.9964 133.933 85.8387 133.618 85.6435L131.512 89.0445C132.765 89.8199 134.222 90.0356 135.72 89.8953L135.346 85.9127ZM133.557 85.6075C133.528 85.5907 133.555 85.6006 133.601 85.6539C133.65 85.7117 133.694 85.7891 133.721 85.8738C133.771 86.0379 133.704 86.0528 133.79 85.7925L129.996 84.5275C129.746 85.2752 129.623 86.1581 129.897 87.0502C130.186 87.9879 130.827 88.6541 131.573 89.0805L133.557 85.6075ZM133.768 85.8556C134.639 83.5076 135.364 81.3537 135.94 79.3963L132.102 78.2677C131.558 80.1183 130.864 82.183 130.018 84.4644L133.768 85.8556ZM135.94 79.3963C136.483 77.5498 137.033 76.0135 137.585 74.7723L133.929 73.1477C133.286 74.5945 132.679 76.3062 132.102 78.2677L135.94 79.3963ZM137.676 74.5243C137.974 73.5095 138.178 72.5723 138.229 71.7608C138.273 71.0524 138.239 69.948 137.508 69.0841L134.454 71.6679C134.275 71.4566 134.239 71.2764 134.237 71.2652C134.234 71.2528 134.249 71.3228 134.237 71.5112C134.213 71.8944 134.1 72.5065 133.838 73.3957L137.676 74.5243ZM137.468 69.0381C136.804 68.301 135.91 68.0692 135.102 68.1473C134.393 68.2159 133.748 68.5145 133.228 68.8221L135.262 72.2659C135.397 72.1862 135.487 72.145 135.537 72.1259C135.589 72.1059 135.568 72.1209 135.488 72.1287C135.402 72.137 135.235 72.1378 135.028 72.066C134.811 71.9907 134.628 71.8619 134.494 71.7139L137.468 69.0381ZM133.177 68.853C132.238 69.4464 131.443 70.22 130.944 71.2176L134.522 73.0064C134.62 72.8093 134.834 72.5376 135.313 72.235L133.177 68.853ZM131.562 70.4906C131.171 70.773 130.831 71.1554 130.555 71.4996C130.259 71.8705 129.94 72.322 129.603 72.8375C128.928 73.8698 128.116 75.2548 127.172 76.9729L130.678 78.8991C131.6 77.2199 132.357 75.9356 132.951 75.0265C133.249 74.5713 133.49 74.2341 133.679 73.9984C133.889 73.736 133.959 73.6936 133.904 73.7334L131.562 70.4906ZM127.18 76.9588C126.657 77.8921 126.135 78.8255 125.612 79.7588L129.102 81.7132C129.625 80.7799 130.147 79.8465 130.67 78.9132L127.18 76.9588ZM125.598 79.7834C125.119 80.6678 124.66 81.4944 124.221 82.2637L127.693 84.2483C128.15 83.4496 128.624 82.5962 129.116 81.6886L125.598 79.7834ZM124.185 82.328C123.792 83.0795 123.448 83.6776 123.155 84.1345L126.519 86.2975C126.898 85.7091 127.301 85.0005 127.729 84.184L124.185 82.328ZM123.101 84.2237C122.989 84.4183 122.91 84.528 122.867 84.5796C122.847 84.6037 122.844 84.6032 122.861 84.5879C122.878 84.5729 122.925 84.533 123.005 84.4875L124.989 87.9605C125.742 87.5305 126.242 86.7876 126.573 86.2083L123.101 84.2237ZM122.717 84.6876C122.681 84.7169 122.682 84.7117 122.717 84.6922C122.753 84.6728 122.845 84.6276 122.989 84.5988L123.773 88.5212C124.415 88.3927 124.922 88.0568 125.277 87.7604L122.717 84.6876ZM122.487 84.7711C122.28 84.8745 122.075 84.9899 121.88 85.1199L124.098 88.4481C124.127 88.4288 124.183 88.3948 124.275 88.3489L122.487 84.7711ZM121.88 85.1199C121.282 85.518 121.047 86.1007 120.968 86.304C120.858 86.5902 120.789 86.8901 120.741 87.1542L124.677 87.8698C124.703 87.7232 124.718 87.6964 124.702 87.74C124.692 87.7639 124.659 87.8476 124.588 87.958C124.521 88.0616 124.37 88.267 124.098 88.4481L121.88 85.1199ZM120.739 87.1693C120.776 86.9513 120.904 86.9045 120.769 87C120.603 87.1177 120.233 87.3015 119.536 87.4757L120.506 91.3563C121.452 91.1199 122.351 90.781 123.081 90.264C123.842 89.7249 124.492 88.9314 124.679 87.8547L120.739 87.1693ZM119.53 87.4773C117.22 88.0628 115.286 87.9344 113.629 87.2367L112.077 90.9233C114.676 92.0176 117.52 92.1132 120.512 91.3547L119.53 87.4773ZM113.629 87.2367C113.183 87.0488 112.916 86.8287 112.746 86.6124L109.6 89.0836C110.252 89.9126 111.105 90.5139 112.077 90.9233L113.629 87.2367ZM112.962 86.9536C113.005 87.0401 112.889 86.8224 112.96 85.9489C113.024 85.1589 113.219 84.0754 113.574 82.6674C114.283 79.8587 115.572 75.991 117.465 71.0337L113.729 69.6063C111.814 74.617 110.462 78.6546 109.696 81.6886C109.314 83.2019 109.063 84.5241 108.973 85.6241C108.89 86.6406 108.912 87.7972 109.384 88.7424L112.962 86.9536ZM117.465 71.0353C118.133 69.2894 118.68 67.9114 119.107 66.8939C119.554 65.8293 119.822 65.2774 119.936 65.0909L116.522 63.0051C116.226 63.4906 115.849 64.3201 115.419 65.3461C114.968 66.4193 114.405 67.8413 113.729 69.6047L117.465 71.0353ZM119.9 65.1472C120.358 64.4513 120.716 63.9325 120.981 63.576C121.115 63.397 121.21 63.2782 121.272 63.2064C121.36 63.1055 121.319 63.1703 121.183 63.2675L118.859 60.0125C118.592 60.203 118.379 60.4382 118.252 60.5846C118.099 60.7601 117.938 60.9657 117.773 61.188C117.44 61.6342 117.034 62.226 116.558 62.9488L119.9 65.1472ZM121.081 63.336C120.814 63.5031 120.537 63.5368 120.349 63.519C120.196 63.5044 120.154 63.4618 120.249 63.5129L122.145 59.9911C121.41 59.5951 120.164 59.1919 118.961 59.944L121.081 63.336ZM167.696 58.504L167.951 56.5202L167.943 56.5192L167.696 58.504ZM170.608 60.072L168.867 61.0561L168.893 61.1016L168.921 61.1457L170.608 60.072ZM171.224 62.76L173.21 62.9983L173.211 62.9892L171.224 62.76ZM170.16 65.336L168.569 64.1239L168.565 64.1299L168.56 64.136L170.16 65.336ZM168.256 66.512L168.151 64.5148L166.79 64.5864L166.359 65.8795L168.256 66.512ZM167.024 68.136L167.965 69.9007L167.965 69.9007L167.024 68.136ZM165.176 68.752L164.847 66.7792L164.847 66.7792L165.176 68.752ZM163.048 69.144L163.36 71.1195L163.4 71.1132L163.44 71.1052L163.048 69.144ZM161.032 70.096L159.761 68.5521L159.761 68.5521L161.032 70.096ZM159.408 71.664L157.89 70.3624L157.881 70.3721L159.408 71.664ZM158.4 73.12L160.156 74.0777L160.161 74.0682L158.4 73.12ZM157.224 76.144L155.299 75.6025L155.249 75.7797L155.232 75.9629L157.224 76.144ZM158.4 78.44L157.126 79.9819L157.149 80.0007L157.172 80.0187L158.4 78.44ZM161.704 79.504L161.829 81.5001L161.86 81.4982L161.891 81.4953L161.704 79.504ZM164.56 79.672L163.958 81.5792L164.016 81.5975L164.075 81.6123L164.56 79.672ZM166.24 80.512L167.686 79.1296L167.67 79.1135L167.654 79.0978L166.24 80.512ZM166.016 83.48L164.505 82.1701L164.403 82.2879L164.32 82.42L166.016 83.48ZM156.608 88.8L156.356 86.816L156.341 86.8179L156.325 86.8201L156.608 88.8ZM152.688 88.912L152.859 86.9193L152.831 86.9169L152.802 86.9153L152.688 88.912ZM148.88 87.456L147.704 89.0735L147.704 89.0735L148.88 87.456ZM145.968 83.816L144.142 84.6319L144.148 84.6444L144.154 84.6569L145.968 83.816ZM146.36 71.552L144.504 70.8065L144.501 70.8143L144.498 70.8221L146.36 71.552ZM154.256 61.472L155.37 63.1334L155.38 63.1262L154.256 61.472ZM167.442 60.4878C168.59 60.635 168.822 60.9756 168.867 61.0561L172.349 59.0879C171.424 57.4511 169.714 56.7464 167.951 56.5202L167.442 60.4878ZM168.921 61.1457C169.196 61.5784 169.297 62.0141 169.237 62.5308L173.211 62.9892C173.375 61.5646 173.066 60.2082 172.296 58.9982L168.921 61.1457ZM169.238 62.5217C169.171 63.0836 168.962 63.6092 168.569 64.1239L171.751 66.5481C172.554 65.4948 173.053 64.3031 173.21 62.9983L169.238 62.5217ZM168.56 64.136C168.394 64.3577 168.272 64.4522 168.213 64.4884C168.167 64.5172 168.154 64.5146 168.151 64.5148L168.361 68.5092C169.836 68.4316 170.964 67.5976 171.76 66.536L168.56 64.136ZM166.359 65.8795C166.283 66.1074 166.207 66.2337 166.159 66.2972C166.116 66.3542 166.09 66.3674 166.083 66.3713L167.965 69.9007C169.101 69.295 169.781 68.2627 170.154 67.1445L166.359 65.8795ZM166.083 66.3713C165.728 66.5606 165.321 66.7003 164.847 66.7792L165.505 70.7248C166.375 70.5797 167.2 70.3087 167.965 69.9007L166.083 66.3713ZM164.847 66.7792C164.152 66.8951 163.421 67.0298 162.656 67.1828L163.44 71.1052C164.168 70.9596 164.857 70.8329 165.505 70.7248L164.847 66.7792ZM162.736 67.1685C161.626 67.3438 160.63 67.836 159.761 68.5521L162.304 71.6399C162.703 71.3107 163.052 71.1682 163.36 71.1195L162.736 67.1685ZM159.761 68.5521C159.054 69.1346 158.426 69.7371 157.89 70.3624L160.927 72.9656C161.287 72.5456 161.742 72.1027 162.304 71.6399L159.761 68.5521ZM157.881 70.3721C157.394 70.9478 156.976 71.5471 156.639 72.1718L160.161 74.0682C160.348 73.7222 160.601 73.3509 160.935 72.9559L157.881 70.3721ZM156.644 72.1623C156.106 73.1503 155.663 74.307 155.299 75.6025L159.15 76.6855C159.457 75.5916 159.799 74.7324 160.156 74.0777L156.644 72.1623ZM155.232 75.9629C155.078 77.6599 155.955 79.0138 157.126 79.9819L159.674 76.8981C159.395 76.6678 159.283 76.5024 159.242 76.4222C159.211 76.3614 159.214 76.3422 159.216 76.3251L155.232 75.9629ZM157.172 80.0187C158.537 81.0803 160.113 81.6073 161.829 81.5001L161.579 77.5079C160.906 77.55 160.279 77.3677 159.628 76.8613L157.172 80.0187ZM161.891 81.4953C162.963 81.3947 163.612 81.4699 163.958 81.5792L165.163 77.7648C164.09 77.4261 162.835 77.3893 161.518 77.5127L161.891 81.4953ZM164.075 81.6123C164.621 81.7488 164.8 81.9006 164.826 81.9262L167.654 79.0978C166.933 78.3767 165.992 77.9685 165.045 77.7317L164.075 81.6123ZM164.795 81.8944C164.858 81.9604 164.852 81.9743 164.834 81.9297C164.813 81.8769 164.801 81.8083 164.806 81.7475C164.81 81.6952 164.822 81.7012 164.784 81.7764C164.745 81.8549 164.664 81.9868 164.505 82.1701L167.528 84.7899C168.162 84.0577 168.712 83.1364 168.795 82.0485C168.883 80.8768 168.404 79.8806 167.686 79.1296L164.795 81.8944ZM164.32 82.42C162.852 84.7687 160.335 86.3102 156.356 86.816L156.86 90.784C161.692 90.1698 165.447 88.1646 167.712 84.54L164.32 82.42ZM156.325 86.8201C155.168 86.9854 154.014 87.0183 152.859 86.9193L152.517 90.9047C153.976 91.0297 155.435 90.9879 156.891 90.7799L156.325 86.8201ZM152.802 86.9153C151.938 86.8659 151.03 86.5466 150.057 85.8385L147.704 89.0735C149.194 90.1574 150.825 90.8088 152.574 90.9087L152.802 86.9153ZM150.057 85.8385C149.129 85.1637 148.365 84.2307 147.783 82.9751L144.154 84.6569C144.99 86.4626 146.168 87.9563 147.704 89.0735L150.057 85.8385ZM147.794 83.0001C146.506 80.1166 146.527 76.6078 148.222 72.2819L144.498 70.8221C142.535 75.8295 142.295 80.4968 144.142 84.6319L147.794 83.0001ZM148.216 72.2975C149.839 68.2581 152.232 65.2364 155.37 63.1334L153.143 59.8106C149.262 62.4116 146.391 66.1099 144.504 70.8065L148.216 72.2975ZM155.38 63.1262C158.78 60.816 162.761 59.9069 167.45 60.4888L167.943 56.5192C162.402 55.8317 157.423 56.9014 153.132 59.8178L155.38 63.1262ZM185.578 77.712L186.434 79.5195L186.46 79.5071L186.486 79.4941L185.578 77.712ZM183.506 78.496L184.041 80.423L184.041 80.423L183.506 78.496ZM181.154 79.056L181.558 81.0147L181.562 81.014L181.154 79.056ZM176.058 79.896L175.915 77.9011L173.425 78.079L174.142 80.4707L176.058 79.896ZM177.738 81.24L176.817 83.0155L177.097 83.1609L177.409 83.2128L177.738 81.24ZM179.922 80.96L180.634 82.829L180.656 82.8203L180.679 82.8111L179.922 80.96ZM182.442 80.064L183.024 81.9773L183.049 81.9697L183.074 81.9614L182.442 80.064ZM185.018 79.56L184.931 77.5619L184.927 77.5621L185.018 79.56ZM187.426 80.512L189.253 79.6997L189.08 79.3104L188.764 79.0254L187.426 80.512ZM188.154 81.688L189.183 79.973L189.183 79.973L188.154 81.688ZM189.162 82.024L188.133 83.739L189.162 82.024ZM189.946 83.312L188.122 84.1327L188.139 84.1699L188.157 84.2064L189.946 83.312ZM189.666 85.44L188.129 84.1596L188.108 84.1855L188.087 84.2121L189.666 85.44ZM187.202 87.176L187.997 89.0111L187.997 89.0111L187.202 87.176ZM183.282 88.352L183.674 90.3132L183.674 90.3132L183.282 88.352ZM178.802 88.968L178.652 86.9736L178.647 86.974L178.802 88.968ZM171.13 88.184L171.946 86.358L171.86 86.3196L171.771 86.2894L171.13 88.184ZM166.202 83.088L164.28 83.6431L164.283 83.6523L166.202 83.088ZM167.826 71.328L169.644 72.1613L169.648 72.1523L169.652 72.1433L167.826 71.328ZM172.25 64.608L173.778 65.8977L173.782 65.8937L172.25 64.608ZM178.13 60.072L178.921 61.9086L178.924 61.9074L178.13 60.072ZM185.97 58.56L185.915 60.5593L185.918 60.5593L185.97 58.56ZM192.018 62.368L193.856 61.5802L193.847 61.5602L193.838 61.5404L192.018 62.368ZM192.354 67.856L194.317 68.239L194.326 68.1891L194.334 68.1388L192.354 67.856ZM190.002 74.352L191.573 75.5897L191.582 75.5784L191.59 75.5669L190.002 74.352ZM182.33 68.864L184.245 68.2893L183.903 67.1479L182.736 66.9057L182.33 68.864ZM177.682 72.224L179.489 73.0802L179.507 73.0417L179.524 73.0024L177.682 72.224ZM176.898 74.464L174.952 74.0008L174.431 76.1876L176.664 76.4503L176.898 74.464ZM180.93 72.336L182.413 73.6778L182.444 73.6433L182.474 73.6074L180.93 72.336ZM182.106 70.432L183.955 71.1935L183.963 71.1753L183.97 71.1569L182.106 70.432ZM184.722 75.9045C184.103 76.1975 183.52 76.4164 182.97 76.569L184.041 80.423C184.836 80.2022 185.634 79.8985 186.434 79.5195L184.722 75.9045ZM182.97 76.569C182.351 76.741 181.611 76.9177 180.746 77.098L181.562 81.014C182.488 80.821 183.316 80.6243 184.041 80.423L182.97 76.569ZM180.75 77.0973C178.403 77.5816 176.817 77.8367 175.915 77.9011L176.2 81.8909C177.389 81.806 179.201 81.5011 181.558 81.0147L180.75 77.0973ZM174.142 80.4707C174.378 81.2559 174.945 81.7799 175.312 82.0737C175.736 82.4126 176.256 82.7244 176.817 83.0155L178.658 79.4645C178.212 79.2329 177.948 79.0594 177.811 78.9503C177.745 78.8975 177.744 78.8873 177.774 78.9235C177.8 78.9557 177.904 79.0886 177.973 79.3213L174.142 80.4707ZM177.409 83.2128C178.504 83.3952 179.594 83.2249 180.634 82.829L179.21 79.091C178.681 79.2924 178.316 79.3088 178.067 79.2672L177.409 83.2128ZM180.679 82.8111C181.442 82.4988 182.224 82.2209 183.024 81.9773L181.859 78.1507C180.942 78.4298 180.044 78.7492 179.164 79.1089L180.679 82.8111ZM183.074 81.9614C183.821 81.7126 184.497 81.5858 185.109 81.5579L184.927 77.5621C183.896 77.6089 182.855 77.8181 181.809 78.1666L183.074 81.9614ZM185.105 81.5581C185.352 81.5474 185.66 81.6135 186.088 81.9986L188.764 79.0254C187.698 78.0665 186.401 77.498 184.931 77.5619L185.105 81.5581ZM185.598 81.3243C185.765 81.7007 185.943 82.0581 186.131 82.3627C186.273 82.5915 186.591 83.0825 187.125 83.403L189.183 79.973C189.295 80.0404 189.375 80.1066 189.425 80.1514C189.475 80.1973 189.509 80.2345 189.526 80.2546C189.557 80.2916 189.559 80.3001 189.532 80.2573C189.508 80.2181 189.471 80.1535 189.422 80.0566C189.373 79.9609 189.317 79.8428 189.253 79.6997L185.598 81.3243ZM187.125 83.403C187.489 83.6213 188.017 83.856 188.658 83.856V79.856C188.834 79.856 188.969 79.8889 189.052 79.9166C189.134 79.9439 189.178 79.9703 189.183 79.973L187.125 83.403ZM188.658 83.856C188.482 83.856 188.346 83.8231 188.263 83.7954C188.182 83.7681 188.137 83.7417 188.133 83.739L190.191 80.309C189.827 80.0907 189.299 79.856 188.658 79.856V83.856ZM188.133 83.739C188.007 83.6638 187.921 83.5897 187.872 83.5441C187.821 83.4967 187.789 83.4595 187.775 83.4426C187.75 83.412 187.755 83.413 187.789 83.4699C187.859 83.5841 187.97 83.7943 188.122 84.1327L191.77 82.4913C191.586 82.0831 191.398 81.7052 191.206 81.3901C191.073 81.1714 190.745 80.6418 190.191 80.309L188.133 83.739ZM188.157 84.2064C188.179 84.2499 188.178 84.2611 188.174 84.2427C188.173 84.2337 188.171 84.2195 188.17 84.2012C188.169 84.1827 188.17 84.163 188.173 84.1431C188.175 84.1233 188.179 84.1065 188.183 84.0936C188.187 84.0808 188.19 84.0741 188.19 84.0739C188.19 84.0737 188.176 84.103 188.129 84.1596L191.202 86.7204C191.67 86.1586 192.033 85.4706 192.139 84.6649C192.246 83.8517 192.069 83.0869 191.735 82.4176L188.157 84.2064ZM188.087 84.2121C187.841 84.529 187.344 84.9347 186.407 85.3409L187.997 89.0111C189.3 88.4466 190.446 87.695 191.244 86.6679L188.087 84.2121ZM186.407 85.3409C185.443 85.7583 184.277 86.1134 182.89 86.3908L183.674 90.3132C185.273 89.9933 186.72 89.5643 187.997 89.0111L186.407 85.3409ZM182.89 86.3908C181.475 86.6738 180.063 86.8678 178.652 86.9736L178.951 90.9624C180.528 90.8442 182.102 90.6276 183.674 90.3132L182.89 86.3908ZM178.647 86.974C175.403 87.2263 173.245 86.9386 171.946 86.358L170.314 90.01C172.524 90.9974 175.481 91.2324 178.957 90.962L178.647 86.974ZM171.771 86.2894C169.84 85.6364 168.681 84.4278 168.12 82.5237L164.283 83.6523C165.216 86.8256 167.342 89.0143 170.489 90.0786L171.771 86.2894ZM168.123 82.5329C167.331 79.7905 167.709 76.3823 169.644 72.1613L166.008 70.4947C163.836 75.2337 163.131 79.6655 164.28 83.6431L168.123 82.5329ZM169.652 72.1433C170.487 70.2735 171.842 68.1921 173.778 65.8977L170.721 63.3183C168.625 65.8026 167.031 68.2011 165.999 70.5127L169.652 72.1433ZM173.782 65.8937C175.368 64.0042 177.084 62.7005 178.921 61.9086L177.338 58.2354C174.844 59.3102 172.641 61.0304 170.718 63.3223L173.782 65.8937ZM178.924 61.9074C181.158 60.9407 183.481 60.4926 185.915 60.5592L186.025 56.5607C183.008 56.4781 180.104 57.038 177.335 58.2366L178.924 61.9074ZM185.918 60.5593C187.095 60.5895 187.958 60.856 188.6 61.2605C189.234 61.6594 189.776 62.2696 190.197 63.1956L193.838 61.5404C193.139 60.0024 192.114 58.7459 190.731 57.8755C189.358 57.0107 187.757 56.6052 186.021 56.5607L185.918 60.5593ZM190.179 63.1558C190.528 63.9689 190.689 65.3674 190.374 67.5732L194.334 68.1388C194.691 65.6406 194.628 63.3805 193.856 61.5802L190.179 63.1558ZM190.391 67.473C189.807 70.4669 189.091 72.25 188.413 73.1371L191.59 75.5669C192.853 73.9153 193.706 71.3677 194.317 68.239L190.391 67.473ZM188.431 73.1143C187.697 74.0449 186.491 75.0024 184.67 75.9299L186.486 79.4941C188.622 78.4056 190.365 77.1231 191.573 75.5897L188.431 73.1143ZM182.736 66.9057C181.232 66.5936 179.771 66.8654 178.512 67.7752C177.327 68.6315 176.475 69.9414 175.839 71.4456L179.524 73.0024C180.008 71.8559 180.491 71.2805 180.855 71.0168C181.146 70.8066 181.449 70.7238 181.923 70.8223L182.736 66.9057ZM175.874 71.3678C175.477 72.2063 175.17 73.085 174.952 74.0008L178.843 74.9272C178.999 74.275 179.214 73.6604 179.489 73.0802L175.874 71.3678ZM176.664 76.4503C178.906 76.7141 180.845 75.4106 182.413 73.6778L179.447 70.9942C178.177 72.3974 177.428 72.5126 177.131 72.4777L176.664 76.4503ZM182.474 73.6074C183.099 72.8484 183.605 72.0446 183.955 71.1935L180.256 69.6705C180.084 70.0887 179.806 70.5543 179.386 71.0646L182.474 73.6074ZM183.97 71.1569C184.273 70.3775 184.556 69.324 184.245 68.2893L180.414 69.4387C180.363 69.2674 180.388 69.1826 180.378 69.2532C180.368 69.3196 180.336 69.4656 180.242 69.7071L183.97 71.1569ZM200.385 83.816L198.488 83.1835L198.474 83.2248L198.462 83.2666L200.385 83.816ZM199.601 85.888L201.39 86.7824L199.601 85.888ZM198.257 87.568L196.94 86.0628L196.94 86.0628L198.257 87.568ZM196.129 89.024L195.172 87.2682L195.142 87.2847L195.112 87.3021L196.129 89.024ZM193.777 90.032L194.202 91.9864L194.232 91.9798L194.262 91.9723L193.777 90.032ZM191.089 88.52L193.086 88.412L193.074 88.1738L193.005 87.9453L191.089 88.52ZM190.361 87.848L190.754 85.8868L190.669 85.8698L190.582 85.8602L190.361 87.848ZM189.409 87.568L190.304 85.7791L190.251 85.7529L190.197 85.7297L189.409 87.568ZM188.737 84.824L186.817 84.2653L186.8 84.3247L186.786 84.385L188.737 84.824ZM190.697 77.376L192.641 77.8493L192.642 77.8437L190.697 77.376ZM193.441 67.688L195.347 68.2961L195.351 68.2826L193.441 67.688ZM203.297 44.672L201.719 43.4441L201.632 43.5549L201.563 43.6767L203.297 44.672ZM204.193 43.384L205.876 44.4655L205.892 44.4395L205.908 44.413L204.193 43.384ZM205.481 41.872L206.783 43.3905L206.807 43.3697L206.831 43.3481L205.481 41.872ZM210.297 41.032L212.291 41.1854L212.411 39.6284L210.93 39.1346L210.297 41.032ZM210.633 42.376L208.946 43.4498L208.97 43.4869L208.995 43.5229L210.633 42.376ZM211.529 43.552L209.981 44.8185L210.006 44.8483L210.031 44.8771L211.529 43.552ZM212.705 46.184L214.548 46.9621L214.667 46.6793L214.696 46.3736L212.705 46.184ZM202.009 77.6L203.936 78.1353L203.938 78.1289L202.009 77.6ZM198.462 83.2666C198.265 83.9567 198.045 84.5279 197.813 84.9936L201.39 86.7824C201.755 86.0535 202.058 85.2433 202.308 84.3654L198.462 83.2666ZM197.813 84.9936C197.65 85.3192 197.378 85.6796 196.94 86.0628L199.574 89.0732C200.331 88.4111 200.956 87.6514 201.39 86.7824L197.813 84.9936ZM196.94 86.0628C196.471 86.4738 195.887 86.8783 195.172 87.2682L197.087 90.7798C198.015 90.2737 198.849 89.7076 199.574 89.0732L196.94 86.0628ZM195.112 87.3021C194.419 87.7118 193.813 87.9614 193.292 88.0917L194.262 91.9723C195.235 91.7292 196.197 91.3068 197.147 90.7459L195.112 87.3021ZM193.353 88.0776C193.041 88.1455 192.845 88.1551 192.743 88.15C192.644 88.145 192.689 88.1294 192.798 88.1908C192.853 88.2221 192.912 88.2661 192.966 88.3227C193.02 88.3789 193.056 88.4338 193.078 88.476C193.118 88.5551 193.094 88.5578 193.086 88.412L189.092 88.628C189.152 89.7386 189.595 90.9783 190.837 91.6772C191.926 92.2897 193.177 92.2092 194.202 91.9864L193.353 88.0776ZM193.005 87.9453C192.865 87.478 192.608 86.9979 192.18 86.6024C191.749 86.2049 191.245 85.9851 190.754 85.8868L189.969 89.8092C189.851 89.7856 189.655 89.7151 189.467 89.5416C189.281 89.3701 189.202 89.1887 189.174 89.0947L193.005 87.9453ZM190.582 85.8602C190.478 85.8486 190.389 85.8216 190.304 85.7791L188.515 89.3569C189.027 89.613 189.573 89.7727 190.141 89.8358L190.582 85.8602ZM190.197 85.7297C190.282 85.7662 190.392 85.8387 190.484 85.9524C190.571 86.0606 190.594 86.1468 190.596 86.1543C190.596 86.155 190.581 86.0888 190.588 85.9284C190.596 85.7701 190.624 85.5514 190.689 85.263L186.786 84.385C186.588 85.266 186.493 86.2173 186.711 87.1057C186.954 88.1003 187.586 88.9625 188.622 89.4063L190.197 85.7297ZM190.658 85.3827C191.266 83.2924 191.927 80.7796 192.641 77.8493L188.754 76.9027C188.049 79.7964 187.404 82.2489 186.817 84.2653L190.658 85.3827ZM192.642 77.8437C193.338 74.9503 194.238 71.7685 195.347 68.2961L191.536 67.0799C190.404 70.6262 189.476 73.903 188.753 76.9083L192.642 77.8437ZM195.351 68.2826C197.964 59.8922 201.194 52.3572 205.032 45.6673L201.563 43.6767C197.561 50.6508 194.22 58.4598 191.532 67.0934L195.351 68.2826ZM204.876 45.8999C205.187 45.5006 205.521 45.0179 205.876 44.4655L202.511 42.3025C202.194 42.7954 201.931 43.1714 201.719 43.4441L204.876 45.8999ZM205.908 44.413C206.128 44.0471 206.415 43.7062 206.783 43.3905L204.18 40.3535C203.503 40.9338 202.931 41.6009 202.478 42.355L205.908 44.413ZM206.831 43.3481C207.521 42.7172 208.338 42.487 209.665 42.9294L210.93 39.1346C208.449 38.3076 206.055 38.6375 204.132 40.3959L206.831 43.3481ZM208.303 40.8786C208.233 41.7954 208.452 42.674 208.946 43.4498L212.321 41.3022C212.299 41.2684 212.295 41.2513 212.294 41.2469C212.293 41.2425 212.288 41.2254 212.291 41.1854L208.303 40.8786ZM208.995 43.5229C209.289 43.9432 209.619 44.3752 209.981 44.8185L213.077 42.2855C212.768 41.9075 212.5 41.5554 212.272 41.2291L208.995 43.5229ZM210.031 44.8771C210.37 45.2597 210.551 45.5525 210.641 45.7539C210.727 45.9462 210.712 46.0143 210.714 45.9944L214.696 46.3736C214.849 44.7704 214.025 43.3551 213.027 42.2269L210.031 44.8771ZM210.863 45.4059C206.866 54.8705 203.273 65.4275 200.081 77.0711L203.938 78.1289C207.092 66.6258 210.63 56.2388 214.548 46.9621L210.863 45.4059ZM200.082 77.0647C199.703 78.4315 199.395 79.6427 199.161 80.6941L203.066 81.5619C203.28 80.5973 203.569 79.4565 203.936 78.1353L200.082 77.0647ZM199.161 80.6941C198.948 81.6508 198.723 82.4784 198.488 83.1835L202.283 84.4485C202.57 83.5856 202.83 82.6212 203.066 81.5619L199.161 80.6941Z" fill="black" mask="url(#path-2-outside-1_392_7031)"/>
<defs>
<linearGradient id="paint0_linear_392_7031" x1="115.684" y1="5.99331" x2="131.263" y2="143.815" gradientUnits="userSpaceOnUse">
<stop stop-color="#482828"/>
<stop offset="1" stop-color="#3F333B"/>
</linearGradient>
<linearGradient id="paint1_linear_392_7031" x1="196.95" y1="206.563" x2="2.50125" y2="142.298" gradientUnits="userSpaceOnUse">
<stop stop-color="#7A5054"/>
<stop offset="1" stop-color="#A27270"/>
</linearGradient>
<linearGradient id="paint2_linear_392_7031" x1="172.393" y1="21.3461" x2="34.6615" y2="132.296" gradientUnits="userSpaceOnUse">
<stop stop-color="#5B4544"/>
<stop offset="1" stop-color="#895E61"/>
</linearGradient>
<linearGradient id="paint3_linear_392_7031" x1="185.07" y1="247.573" x2="-39.3181" y2="121.784" gradientUnits="userSpaceOnUse">
<stop stop-color="#C29E9B"/>
<stop offset="1" stop-color="#C4B4AE"/>
</linearGradient>
<linearGradient id="paint4_linear_392_7031" x1="128.162" y1="37.8826" x2="106.895" y2="108.48" gradientUnits="userSpaceOnUse">
<stop stop-color="#FBFBFC" stop-opacity="0.792157"/>
<stop offset="1" stop-color="#F9F9FB" stop-opacity="0.85098"/>
</linearGradient>
<linearGradient id="paint5_linear_392_7031" x1="60.9956" y1="128.026" x2="138.529" y2="-26.6598" gradientUnits="userSpaceOnUse">
<stop stop-color="#F08B4C"/>
<stop offset="1" stop-color="#894B2C"/>
</linearGradient>
</defs>
</svg>
