<svg width="1300" height="1440" viewBox="0 0 1300 1440" fill="none" xmlns="http://www.w3.org/2000/svg">
<path d="M324.302 261.933C326.497 251.229 327.337 240.276 329.754 229.584C336.785 198.487 353.34 166.3 375.647 143.376C414.044 103.914 470.141 92.5574 523.249 99.8417C545.028 102.829 566.088 108.876 588.241 108.492C622.149 107.903 657.072 99.1264 682.876 76.3003C693.656 66.7637 703.056 55.5134 713.178 45.2812C746.452 11.6478 794.83 0.304868 840.9 0.00474588C885.993 -0.289766 937.496 13.1036 969.96 45.6233C1000.65 76.3704 1023.93 117.891 1048.44 153.636C1103.95 234.585 1156.52 292.523 1164.02 396.371C1165.79 420.869 1164.3 469.797 1164.3 469.797C1164.3 469.797 1164.4 484.167 1169.3 491.229C1173.01 496.562 1176.88 504.552 1176.88 504.552L1188.42 520.958C1222.44 619.953 1251.19 708.411 1225.41 814.488C1233.96 826.653 1243.07 838.897 1250.45 851.81C1288.49 918.404 1309.17 1004.01 1296.05 1079.96C1281.7 1163 1230.06 1220.17 1168.49 1272.93C1124.89 1307.36 1088.7 1323.07 1039.06 1345.94C1019.73 1351.29 997.866 1358.84 979.835 1367.51C959.602 1373.89 938.997 1378.26 918.702 1384.22C900.078 1385.02 881.871 1389 863.068 1389.36C833.203 1412.66 799.68 1428.97 762.312 1436.26C727.367 1443.07 691.666 1441.94 661.524 1421.37C629.602 1399.59 607.312 1363.46 600.058 1325.82C554.994 1325.93 512.056 1324.7 468.284 1312.62C393.858 1292.08 324.577 1252.85 277.874 1190.41C264.348 1172.33 253.512 1152.88 242.445 1133.26C212.635 1120.96 185.662 1105.61 161.328 1084.34C79.4297 1012.75 49.557 915.941 23.6498 814.525C13.4694 774.673 2.85409 734.984 0.435611 693.727C-3.86038 620.436 23.899 571.578 71.311 518.201C71.1171 501.312 70.5663 484.335 71.0103 467.452C73.6069 368.342 133.307 316.143 226.096 294.427C259.343 286.647 296.565 288.273 322.812 263.372L324.302 261.933Z" fill="black"/>
<path d="M736.04 449.156C744.167 453.346 748.905 466.165 757.793 467.943C757.235 479.346 756.566 490.743 755.787 502.134C748.019 484.747 741.047 467.559 736.04 449.156Z" fill="#C1C0C2"/>
<path d="M1103.18 364.258L1100.86 361.228L1102.38 359.579C1114.93 361.938 1130.86 381.023 1137.76 391.227L1138.59 392.458L1136.78 405.851C1127.84 393.462 1115.75 372.557 1103.18 364.258Z" fill="#C1C0C2"/>
<path d="M1094.41 968.39C1117.32 955.771 1137.55 940.03 1158.41 924.409C1161.88 931.447 1165.17 938.672 1169.09 945.463C1172.66 946.405 1178.66 947.179 1181.24 949.617L1173.36 950.256L1172.15 952.026C1175.25 956.267 1178 959.316 1183.26 960.578C1153.11 960.488 1124.1 963.131 1094.41 968.39Z" fill="#C1C0C2"/>
<path d="M938.205 1059.76C965.332 1039.8 987.783 1026.15 1022.67 1031.13C1019.3 1031.32 1015.95 1031.52 1012.57 1031.57L1010.34 1033.27C1009.2 1054.65 1019.73 1080.72 1026.7 1100.89C1028.06 1104.83 1027.68 1106.96 1026.84 1110.89C1001.42 1084.35 974.336 1067.31 938.205 1059.76Z" fill="#C1C0C2"/>
<path d="M1047.16 991.381C1074.82 987.659 1102.69 981.071 1130.47 979.012C1120.24 984.995 1110.1 989.527 1106.27 1001.61C1100.62 1004.52 1095.48 1008.09 1093.65 1014.53C1091.87 1020.76 1094.46 1027.21 1097.78 1032.45C1101.05 1037.6 1105.72 1041.85 1109.99 1046.16C1104.13 1045.31 1095.62 1045.45 1090.97 1041.91C1071.68 1029.91 1031.78 1021.63 1009.22 1018.54C1022.4 1010.51 1036.4 1002.58 1047.16 991.381Z" fill="#C1C0C2"/>
<path d="M117.455 986.302C120.307 987.721 123.252 989.008 125.872 990.82C153.361 1027.79 173.398 1047.36 214.02 1070.57C222.161 1075.22 241.616 1074.88 245.301 1083.4C224.435 1083.89 205.21 1080.29 184.934 1075.81C185.336 1076.07 185.735 1076.34 186.14 1076.59C217.151 1096.12 259.02 1098.51 293.771 1090.35C305.116 1101.24 318.122 1110.44 331.128 1119.22C322.47 1120.67 313.763 1121.7 305.007 1122.3C255.625 1125.71 209.673 1104.49 173.095 1072.43C154.097 1062.66 124.767 1024.67 113.507 1006.54C118.115 1008.82 120.512 1011.71 123.25 1016.03C125.02 1018.82 126.627 1021.1 128.898 1023.5L130.48 1022.28L130.677 1017.12L128.305 1016.6C122.213 1008.67 120.15 995.855 117.455 986.302Z" fill="#C1C0C2"/>
<path d="M429.09 1196.32C430.349 1194.12 431.102 1193.24 432.906 1191.57C462.158 1190.24 494.45 1183.15 522.583 1174.9C536.859 1170.72 550.632 1164.87 564.717 1160.09C587.988 1152.19 611.513 1145.27 634.675 1137.01C653.596 1130.25 672.787 1122.23 692.231 1117.21C699.591 1115.3 707.162 1113.67 714.774 1114.57C611.226 1185.59 578.141 1223.8 443.484 1199.18C438.678 1198.3 433.85 1197.42 429.09 1196.32Z" fill="#C1C0C2"/>
<path d="M898.474 957.804C935.661 976.9 973.234 983.614 1014.39 987.516C975.94 1005.72 940.425 1028.35 905.451 1052.48C873.524 1052.97 844 1057.84 813.484 1067.34C803.342 1070.5 792.399 1075.93 782.164 1078.12C783.451 1071.7 791.381 1073.74 795.296 1069.44C791.483 1066.51 779.764 1071.93 774.596 1072.23C774.138 1072.25 773.677 1072.27 773.216 1072.29C828.302 1049.13 872.777 1012.89 898.474 957.804Z" fill="#888383"/>
<path d="M897.4 1203.4C905.411 1210.54 913.307 1217.8 921.087 1225.19C925.561 1239.32 962.909 1281.26 976.227 1287.74C991.68 1295.26 1009.85 1291.43 1025.25 1285.66C1032.43 1282.97 1039.27 1279.91 1046.02 1276.28C1045.83 1282.72 1043.99 1293.47 1047.82 1298.8C1047.2 1299.55 1046.57 1300.28 1045.92 1301C1004.08 1348.06 940.973 1370.62 879.075 1373.88C898.743 1356.15 911.477 1334.77 918.215 1309.31C925.488 1281.84 919.474 1247.74 905.227 1223.31L903.785 1223.76C901.143 1217.11 899.308 1210.28 897.4 1203.4Z" fill="#A7A5A7"/>
<path d="M1072.75 1216.81C1080.24 1224.41 1087.54 1231.35 1098.09 1234.5C1099.5 1234.93 1100.94 1235.26 1102.39 1235.48C1103.85 1235.71 1105.32 1235.83 1106.8 1235.85C1108.27 1235.86 1109.74 1235.78 1111.21 1235.58C1112.67 1235.39 1114.11 1235.1 1115.54 1234.7C1148.35 1225.23 1220.22 1158.8 1241.37 1132.83C1250.27 1121.91 1264.69 1090.86 1274.25 1085.45C1261.71 1159.38 1197.98 1227.82 1138.33 1270.28C1114.56 1287.2 1089.52 1300.14 1062.41 1310.82C1076 1291.71 1084.44 1266.69 1080.39 1243.04C1079.97 1240.72 1079.44 1238.42 1078.81 1236.14C1072.24 1259.95 1065.44 1280.84 1047.82 1298.8C1043.99 1293.47 1045.83 1282.72 1046.02 1276.28C1039.27 1279.91 1032.43 1282.97 1025.25 1285.66C1009.85 1291.43 991.68 1295.26 976.227 1287.74C962.909 1281.26 925.561 1239.32 921.087 1225.19C951.32 1243.23 969.952 1268.06 1010.21 1263.9C1039.59 1260.87 1055.71 1237.8 1072.75 1216.81Z" fill="url(#paint0_linear_88_29546)"/>
<path d="M113.712 801.642C127.856 818.23 141.415 835.508 159.724 847.769C183.113 909.417 204.772 970.176 241.493 1025.55C253.613 1043.82 267.648 1060.47 280.912 1077.88C270.053 1081.88 256.901 1084.31 245.301 1083.4C241.616 1074.88 222.161 1075.22 214.02 1070.57C173.398 1047.36 153.361 1027.79 125.872 990.82C123.252 989.008 120.307 987.721 117.455 986.302C114.423 978.936 110.28 971.784 106.616 964.696C112.492 969.868 118.638 974.762 124.68 979.741C132.45 983.197 141.477 987.971 150.177 987.424C154.848 987.126 158.504 985.466 161.505 981.78C179.103 960.188 144.531 890.495 136.994 866.379C134.926 859.768 134.173 852.949 133.473 846.088C126.894 832.255 117.357 816.359 113.712 801.642Z" fill="#A7A5A7"/>
<path d="M133.473 846.088C149.868 866.962 197.319 972.022 194.865 994.75C194.427 998.811 192.938 1001.48 189.667 1003.9C182.051 1009.53 171.645 1010.1 162.601 1008.47C148.915 1006.01 137.208 997.03 127.265 987.791L125.872 990.82C123.252 989.008 120.307 987.721 117.455 986.302C114.423 978.936 110.28 971.784 106.616 964.696C112.492 969.868 118.638 974.762 124.68 979.741C132.45 983.197 141.477 987.971 150.177 987.424C154.848 987.126 158.504 985.466 161.505 981.78C179.103 960.188 144.531 890.495 136.994 866.379C134.926 859.768 134.173 852.949 133.473 846.088Z" fill="#C1C0C2"/>
<path d="M611.743 1059.24C616.073 1062.02 620.52 1064.6 625.086 1066.97C671.674 1090.95 724.683 1087.36 773.216 1072.29C773.677 1072.27 774.138 1072.25 774.596 1072.23C779.764 1071.93 791.483 1066.51 795.296 1069.44C791.381 1073.74 783.451 1071.7 782.164 1078.12C758.707 1088.99 737.2 1101.86 714.774 1114.57C707.162 1113.67 699.591 1115.3 692.231 1117.21C672.787 1122.23 653.596 1130.25 634.675 1137.01C611.513 1145.27 587.988 1152.19 564.717 1160.09C550.632 1164.87 536.859 1170.72 522.583 1174.9C494.45 1183.15 462.158 1190.24 432.906 1191.57C431.102 1193.24 430.349 1194.12 429.09 1196.32C424.987 1195.58 420.982 1195.03 416.831 1194.61C414.622 1194.36 412.56 1193.11 410.581 1192.1C385 1179.06 352.266 1182.32 324.805 1172.45C314.972 1168.92 297.118 1159.69 287.359 1162.04C280.133 1155.41 274.139 1146.68 268.019 1139C299.4 1149.33 326.064 1146.46 356.611 1135.15C395.96 1156.08 446.114 1165 489.996 1155.92C546.956 1144.14 581.342 1105.69 611.743 1059.24Z" fill="#A7A5A7"/>
<path d="M287.359 1162.04C297.118 1159.69 314.972 1168.92 324.805 1172.45C352.266 1182.32 385 1179.06 410.581 1192.1C412.56 1193.11 414.622 1194.36 416.831 1194.61C422.851 1197.71 429.036 1200.66 435.334 1203.14C484.62 1222.6 545.377 1226.37 596.621 1212.84C612.182 1208.73 626.828 1202.52 641.616 1196.3C622.119 1227.09 607.857 1256.27 602.349 1292.55C584.481 1292.64 566.574 1292.46 548.774 1290.79C449.995 1281.56 351.499 1239.58 287.359 1162.04Z" fill="url(#paint1_linear_88_29546)"/>
<path d="M343.937 627.675C356.878 638.227 392.408 674.433 400.358 687.921C410.258 704.722 420.178 752.142 427.302 773.551C454.553 855.476 508.147 961.908 571.099 1022.11C532.146 1068.31 492.738 1096.98 430.745 1102.49C400.288 1105.19 372.494 1100.71 344.215 1089.16L344.372 1090.25C346.948 1091.72 349.559 1093.12 352.204 1094.46C354.85 1095.81 357.526 1097.08 360.233 1098.3C362.94 1099.51 365.676 1100.66 368.439 1101.74C371.203 1102.82 373.99 1103.83 376.802 1104.78C379.615 1105.72 382.448 1106.6 385.303 1107.41C388.157 1108.21 391.029 1108.95 393.92 1109.62C396.81 1110.29 399.716 1110.89 402.637 1111.42C405.556 1111.95 408.487 1112.4 411.43 1112.79C414.371 1113.18 417.321 1113.49 420.279 1113.73C423.236 1113.98 426.197 1114.15 429.163 1114.25C432.128 1114.35 435.095 1114.38 438.063 1114.33C441.03 1114.29 443.994 1114.18 446.954 1113.99C449.916 1113.8 452.872 1113.54 455.82 1113.21C458.769 1112.88 461.709 1112.48 464.639 1112.01C467.567 1111.53 470.483 1110.99 473.387 1110.38C476.289 1109.76 479.175 1109.08 482.045 1108.33C524.103 1096.87 553.49 1068.57 574.415 1031.28C574.999 1030.27 575.557 1029.23 576.087 1028.19C582.975 1034.16 589.79 1040.28 596.908 1045.98C571.099 1086.23 538.629 1124.57 489.521 1135.16C438.849 1146.09 385.93 1132.87 342.936 1105.07C312.308 1085.26 280.136 1055.8 261.679 1024.07L263.213 1022.97C264.981 1017.09 260.675 1003.63 259.644 996.988C271.967 1010.21 289.466 1020.65 305.903 1027.94C334.483 1040.61 366.936 1044.4 396.564 1032.89C414.555 1025.89 429.876 1014.15 437.439 995.88C459.356 942.921 420.988 835.511 405.512 780.589C397.37 751.704 390.803 720.817 379.363 693.169C373.429 678.917 366.446 665.197 358.412 652.01C354.07 644.931 348.107 637.888 344.943 630.228C344.594 629.383 344.274 628.528 343.937 627.675Z" fill="url(#paint2_linear_88_29546)"/>
<path d="M434.142 846.548L435.075 847.104C451.091 881.175 459.656 918.62 472.061 953.964C475.338 963.296 484.679 974.849 485.038 984.52L478.85 986.983C474.553 995.086 478.462 1011.43 473.027 1023.44C467.989 1034.57 452.622 1040.89 450.925 1051.85L451.821 1052.74L465.055 1044.99C458.962 1076.37 450.158 1062.49 443.526 1075.27C442.907 1076.46 442.376 1077.69 441.713 1078.86C441.449 1079.32 441.173 1079.78 440.912 1080.24L439.687 1082.45C431.194 1086.48 418.815 1086.93 409.426 1088.77C441.901 1089.51 485.359 1081.97 511.446 1061.44C507.604 1060.62 507.101 1060.98 504.805 1057.89L505.812 1054.39C508.11 1052.29 509.594 1051.65 512.559 1051.02C514.911 1050.52 516.985 1050.01 519.214 1049.09C522.19 1047.85 520.655 1047.84 523.609 1049C523.221 1049.98 522.861 1050.96 522.431 1051.91C522.201 1052.42 521.934 1052.92 521.687 1053.42L523.412 1053.62C528.94 1049.29 534.195 1044.35 537.41 1038.02C538.961 1034.97 540.599 1033.54 543.221 1031.34C543.117 1031.85 543.081 1032.37 542.907 1032.85C537.191 1048.8 515.937 1061.86 501.948 1069.58C476.405 1083.33 444.92 1091.38 415.887 1090.65C367.346 1089.43 328.292 1070.41 295.087 1035.63C335.436 1051.27 386.703 1064.61 429.727 1052.74C446.232 1048.19 461.924 1040.09 470.268 1024.42C492.365 982.924 447.783 890.521 434.142 846.548Z" fill="#A7A5A7"/>
<path d="M724.037 509.632C732.358 518.787 745.4 530.293 749.947 541.795C755.256 555.222 756.36 571.766 758.53 585.956C762.343 610.908 765.831 636.011 770.782 660.767C786.003 736.827 804.876 801.297 831.947 874.011C843.817 903.157 857.217 927.06 882.357 946.685C851.085 998.02 805.284 1042 745.381 1056.74C742.771 1057.38 740.146 1057.96 737.506 1058.47C734.869 1058.98 732.219 1059.43 729.559 1059.81C726.899 1060.19 724.23 1060.51 721.553 1060.76C718.878 1061.01 716.197 1061.19 713.51 1061.31C710.825 1061.43 708.139 1061.48 705.45 1061.46C702.762 1061.45 700.076 1061.37 697.393 1061.23C694.709 1061.08 692.029 1060.87 689.356 1060.59C686.683 1060.32 684.018 1059.97 681.361 1059.56C678.704 1059.15 676.06 1058.68 673.428 1058.14C670.794 1057.6 668.174 1057 665.57 1056.33C662.968 1055.67 660.383 1054.94 657.814 1054.14C655.247 1053.35 652.701 1052.49 650.176 1051.57C647.65 1050.65 645.149 1049.67 642.672 1048.63C640.196 1047.59 637.746 1046.49 635.324 1045.32C632.901 1044.16 630.509 1042.94 628.146 1041.66C625.784 1040.38 623.454 1039.05 621.157 1037.65C573.541 1008.36 537.646 958.329 510.302 910.421C514.773 902.382 509.088 882.401 507.515 872.898C538.672 903.605 570.281 918.44 613.056 927.34C637.974 936.728 667.942 936.271 694.133 933.716C701.358 933.009 710.017 930.793 717.144 931.163C734.887 919.613 751.934 902.806 763.529 885.043C771.316 873.111 778.311 859.513 780.857 845.384C790.901 789.609 746.856 687.456 734.466 628.399C729.829 588.556 721.387 549.986 724.037 509.632Z" fill="#C1C0C2"/>
<path d="M844.365 928.863C844.913 933.786 842.151 939.115 840.102 943.465C825.113 975.281 795.501 1003.79 762.149 1015.53C719.04 1030.69 672.337 1025.32 631.617 1005.77C627.019 1003.18 622.779 1000.18 618.462 997.148C647.981 1007.26 676.359 1012.19 707.58 1008.99C766.328 1002.98 807.816 973.472 844.365 928.863Z" fill="black"/>
<path d="M724.037 509.632C732.358 518.787 745.4 530.293 749.947 541.795C755.256 555.222 756.36 571.766 758.53 585.956C762.343 610.908 765.831 636.011 770.782 660.767C786.003 736.827 804.876 801.297 831.947 874.011C831.301 874.432 830.635 874.83 830.002 875.273C824.185 879.377 818.871 894.231 815.353 901.117C791.873 947.061 774.885 977.492 722.253 991.084C702.873 996.088 683.025 997.875 663.1 995.6C611.721 989.732 572.434 951.636 534.015 920.384C579.372 944.038 621.627 973.242 675.246 956.444C690.154 951.773 706.451 942.59 717.144 931.163C734.887 919.613 751.934 902.806 763.529 885.043C771.316 873.111 778.311 859.513 780.857 845.384C790.901 789.609 746.856 687.456 734.466 628.399C729.829 588.556 721.387 549.986 724.037 509.632Z" fill="#A7A5A7"/>
<path d="M1158.41 924.409C1191.62 893.979 1203.06 868.124 1221.8 828.44C1260.45 896.116 1297.85 1001.17 1276.41 1078.87C1275.82 1081.01 1275.36 1083.54 1274.25 1085.45C1264.69 1090.86 1250.27 1121.91 1241.37 1132.83C1220.22 1158.8 1148.35 1225.23 1115.54 1234.7C1114.11 1235.1 1112.67 1235.39 1111.21 1235.58C1109.74 1235.78 1108.27 1235.86 1106.8 1235.85C1105.32 1235.83 1103.85 1235.71 1102.39 1235.48C1100.94 1235.26 1099.5 1234.93 1098.09 1234.5C1087.54 1231.35 1080.24 1224.41 1072.75 1216.81C1055.71 1237.8 1039.59 1260.87 1010.21 1263.9C969.952 1268.06 951.32 1243.23 921.087 1225.19C913.307 1217.8 905.411 1210.54 897.4 1203.4C899.308 1210.28 901.143 1217.11 903.785 1223.76C905.89 1238.39 907.138 1252.72 908.104 1267.45C889.596 1228.35 865.08 1194.98 824.551 1176.67C854.446 1199.79 876.543 1225.11 894.303 1258.34C905.156 1281.16 910.912 1299.78 902.093 1324.76C900.789 1328.46 899.3 1332.33 897.465 1335.78C885.884 1363.29 850.219 1390.24 823.106 1401.14C822.033 1401.57 820.917 1401.9 819.815 1402.26C787.439 1415.98 748.121 1427.02 712.605 1422.8C685.692 1419.61 665.028 1403.06 648.911 1382.27C627.045 1354.07 620.486 1326.35 625.286 1291.24C633.958 1227.81 677.652 1170.36 727.887 1132.86C784.654 1090.47 851.565 1063.87 923.291 1074.76C983.809 1083.95 1022.29 1113.41 1057.77 1161.26C1052.87 1142.31 1038.79 1125.87 1026.84 1110.89C1027.68 1106.96 1028.06 1104.83 1026.7 1100.89C1019.73 1080.72 1009.2 1054.65 1010.34 1033.27L1012.57 1031.57C1015.95 1031.52 1019.3 1031.32 1022.67 1031.13C1046.02 1031.77 1068.1 1037.98 1090.97 1041.91C1095.62 1045.45 1104.13 1045.31 1109.99 1046.16C1105.72 1041.85 1101.05 1037.6 1097.78 1032.45C1094.46 1027.21 1091.87 1020.76 1093.65 1014.53C1095.48 1008.09 1100.62 1004.52 1106.27 1001.61C1110.1 989.527 1120.24 984.995 1130.47 979.012C1164.94 972.067 1202.93 976.872 1235.75 963.579C1217.92 964.987 1200.93 962.656 1183.26 960.578C1178 959.316 1175.25 956.267 1172.15 952.026L1173.36 950.256L1181.24 949.617C1178.66 947.179 1172.66 946.405 1169.09 945.463C1165.17 938.672 1161.88 931.447 1158.41 924.409Z" fill="#F7E9E0"/>
<path d="M1109.99 1046.16C1105.72 1041.85 1101.05 1037.6 1097.78 1032.45C1094.46 1027.21 1091.87 1020.76 1093.65 1014.53C1095.48 1008.09 1100.62 1004.52 1106.27 1001.61C1105.03 1016.6 1105.54 1034.13 1115.51 1046.4C1117.45 1048.78 1119.69 1050.99 1121.87 1053.16C1099.33 1050.79 1076 1048.41 1053.55 1052.79C1049.34 1052.04 1046.67 1051.84 1042.46 1052.58C1043.56 1050.85 1044.66 1049.17 1045.83 1047.48L1044.78 1045.78C1041.03 1045.61 1040.1 1045.35 1037.3 1048.31C1031.72 1054.2 1031.8 1069.12 1032.72 1076.78C1038.12 1100.92 1048.98 1123.01 1058.54 1145.72C1062.19 1154.41 1066.93 1163.88 1068.81 1173.07C1069.48 1176.31 1069.04 1177.19 1067.45 1179.77C1063.07 1176.78 1059.4 1168.26 1058.04 1163.07C1057.89 1162.48 1057.86 1161.86 1057.77 1161.26C1052.87 1142.31 1038.79 1125.87 1026.84 1110.89C1027.68 1106.96 1028.06 1104.83 1026.7 1100.89C1019.73 1080.72 1009.2 1054.65 1010.34 1033.27L1012.57 1031.57C1015.95 1031.52 1019.3 1031.32 1022.67 1031.13C1046.02 1031.77 1068.1 1037.98 1090.97 1041.91C1095.62 1045.45 1104.13 1045.31 1109.99 1046.16Z" fill="#C1C0C2"/>
<path d="M751.218 1153.51C752.856 1153.47 754.494 1153.44 756.135 1153.52C776.431 1154.57 800.273 1179.3 812.989 1193.48C837.66 1220.99 842.14 1240.95 840.04 1277.03C832.939 1256.55 825.706 1241.32 811.944 1224.46C798.969 1209.57 780.393 1193.63 761.07 1188.1C734.958 1180.63 711.079 1196.58 688.898 1208.26C691.07 1203.86 693.38 1199.49 695.999 1195.35C709.025 1174.73 727.013 1158.87 751.218 1153.51Z" fill="#FEFDFB"/>
<path d="M894.303 1258.34C905.156 1281.16 910.912 1299.78 902.093 1324.76C900.789 1328.46 899.3 1332.33 897.465 1335.78C885.884 1363.29 850.219 1390.24 823.106 1401.14C822.033 1401.57 820.917 1401.9 819.815 1402.26C812.663 1398.59 781.661 1406.22 771.575 1406.66C749.613 1407.62 727.024 1402.11 705.147 1400.11C714.668 1398.46 724.827 1395.58 734.497 1396.15C740.356 1394.98 746.204 1393.28 752.01 1391.84C762.318 1382.57 780.214 1379.93 792.758 1373.73C805.461 1367.44 817.562 1358.53 828.701 1349.86C858.914 1326.36 889.335 1298.21 894.303 1258.34Z" fill="#C1C0C2"/>
<path d="M752.01 1391.84C805.806 1381.5 857.366 1344.13 900.48 1311.82C897.06 1318.27 893.109 1324.49 889.38 1330.77C881.508 1338.21 874.485 1346.78 865.838 1353.35C835.111 1376.66 797.024 1391.61 758.884 1396.8C752.836 1397.63 745.19 1399.21 739.117 1398.77C737.189 1398.63 736.821 1398.42 735.213 1397.89L734.497 1396.15C740.356 1394.98 746.204 1393.28 752.01 1391.84Z" fill="black"/>
<path d="M889.38 1330.77C895.017 1328.24 897.369 1323.18 900.143 1317.82C900.874 1323.63 899.673 1325.69 897.099 1330.85C895.793 1333.47 896.206 1332.37 896.06 1335.67L897.465 1335.78C885.884 1363.29 850.219 1390.24 823.106 1401.14C822.033 1401.57 820.917 1401.9 819.815 1402.26C812.663 1398.59 781.661 1406.22 771.575 1406.66C749.613 1407.62 727.024 1402.11 705.147 1400.11C714.668 1398.46 724.827 1395.58 734.497 1396.15L735.213 1397.89C736.821 1398.42 737.189 1398.63 739.117 1398.77C745.19 1399.21 752.836 1397.63 758.884 1396.8C797.024 1391.61 835.111 1376.66 865.838 1353.35C874.485 1346.78 881.508 1338.21 889.38 1330.77Z" fill="#A7A5A7"/>
<path d="M343.139 336.809C338.041 313.17 335.321 291.182 337.923 266.954C342.779 221.753 362.417 180.03 398.528 151.418C451.448 109.491 502.833 119.294 564.706 126.353C612.17 131.77 673.498 127.018 707.741 89.5871C721.216 74.8614 731.597 57.4908 747.486 45.0624C781.206 18.6797 831.686 14.3069 872.729 19.7539C920.14 26.0425 958.59 47.5195 987.277 85.6154C1002.47 105.794 1015.92 127.621 1030.17 148.504C1062.41 195.76 1107.12 256.859 1127.2 309.523C1137.08 335.449 1142.4 364.838 1138.59 392.458L1137.76 391.227C1130.86 381.023 1114.93 361.938 1102.38 359.579L1100.86 361.228L1103.18 364.258C1107.68 376.571 1112.02 388.952 1117.35 400.934C1168.56 527.137 1252.8 699.27 1196.05 834.818C1176.13 882.389 1137.27 930.196 1088.39 949.819C1039.21 969.559 976.41 966.424 928.107 945.438C883.554 926.078 862.303 889.306 845.492 845.676C841.715 835.87 837.48 825.526 834.732 815.403C823.851 788.109 816.12 759.244 808.189 730.985C775.343 613.934 762.964 504.937 781.697 384.245C769.414 410.667 760.545 438.859 757.793 467.943C748.905 466.165 744.167 453.346 736.04 449.156C732.375 429.059 725.768 408.499 720.985 388.551C716.334 421.475 728.528 467.435 737.72 499.773C728.112 490.374 717.7 482.685 707.429 474.114C688.117 461.141 668.291 449.818 647.706 439.016C654.419 445.512 661.445 451.731 668.324 458.053C688.187 473.421 707.701 490.545 724.037 509.632C721.387 549.986 729.829 588.556 734.466 628.399C746.856 687.456 790.901 789.609 780.857 845.384C778.311 859.513 771.316 873.111 763.529 885.043C751.934 902.806 734.887 919.613 717.144 931.163C710.017 930.793 701.358 933.009 694.133 933.716C667.942 936.271 637.974 936.728 613.056 927.34C570.281 918.44 538.672 903.605 507.515 872.898C509.088 882.401 514.773 902.382 510.302 910.421C453.44 820.458 416.368 700.117 403.421 594.996C400.512 571.384 399.686 547.68 398.984 523.92C393.703 559.242 393.92 592.337 396.008 627.751C387.375 609.087 379.54 590.34 372.938 570.86C370.347 597.018 382.755 627.535 390.615 652.291C380.349 644.045 366.402 635.055 357.561 625.552C346.786 618.45 336.214 611.404 324.591 605.719C330.734 613.365 337.209 620.54 343.937 627.675C344.274 628.528 344.594 629.383 344.943 630.228C348.107 637.888 354.07 644.931 358.412 652.01C366.446 665.197 373.429 678.917 379.363 693.169C390.803 720.817 397.37 751.704 405.512 780.589C420.988 835.511 459.356 942.921 437.439 995.88C429.876 1014.15 414.555 1025.89 396.564 1032.89C366.936 1044.4 334.483 1040.61 305.903 1027.94C289.466 1020.65 271.967 1010.21 259.644 996.988C260.675 1003.63 264.981 1017.09 263.213 1022.97L261.679 1024.07C219.177 971.604 170.563 832.547 152.926 764.744C147.704 744.675 144.172 724.211 140.957 703.744C136.292 739.329 143.579 777.276 149.331 812.379C115.687 783.321 98.4016 746.695 76.5099 709.216C85.3958 742.016 97.21 771.936 113.712 801.642C117.357 816.359 126.894 832.255 133.473 846.088C134.173 852.949 134.926 859.768 136.994 866.379C144.531 890.495 179.103 960.188 161.505 981.78C158.504 985.466 154.848 987.126 150.177 987.424C141.477 987.971 132.45 983.197 124.68 979.741C118.638 974.762 112.492 969.868 106.616 964.696C110.28 971.784 114.423 978.936 117.455 986.302C120.15 995.855 122.213 1008.67 128.305 1016.6L130.677 1017.12L130.48 1022.28L128.898 1023.5C126.627 1021.1 125.02 1018.82 123.25 1016.03C120.512 1011.71 118.115 1008.82 113.507 1006.54C80.0676 961.77 55.6608 893.309 43.4588 839.079C35.5339 803.861 30.824 766.688 26.0286 730.895C15.4461 651.89 28.7754 609.169 76.6054 546.561C78.492 562.854 81.291 578.988 85.0024 594.965C88.7157 610.941 93.3179 626.659 98.809 642.118C95.9426 592.788 90.5863 543.476 91.5502 494.003C93.5876 389.289 131.093 342.918 233.63 319.408C268.805 311.344 300.878 306.789 327.874 280.885C331.715 300.085 336.366 318.409 343.139 336.809Z" fill="#F7E9E0"/>
<path d="M969.73 323.623C983.986 322.692 998.425 325.166 1012.27 328.294C997.776 330.229 983.028 330.518 968.479 332.176C940.548 335.365 914.641 343.165 888.767 353.919C878.664 358.432 869.025 363.918 859.324 369.225C888.171 340.691 930.032 326.944 969.73 323.623Z" fill="black"/>
<path d="M668.324 458.053C688.187 473.421 707.701 490.545 724.037 509.632C721.387 549.986 729.829 588.556 734.466 628.399L728.519 622.868C723.461 571.303 691.683 504.272 668.324 458.053Z" fill="#C1C0C2"/>
<path d="M869.157 274.757C848.252 283.845 814.074 286.722 792.028 280.201C791.069 279.924 790.117 279.624 789.172 279.301C788.228 278.975 787.292 278.627 786.365 278.254C785.438 277.882 784.522 277.487 783.617 277.068C782.71 276.649 781.814 276.208 780.93 275.744C780.046 275.28 779.174 274.794 778.314 274.286C777.456 273.779 776.61 273.25 775.776 272.698C774.944 272.146 774.127 271.574 773.323 270.981C772.519 270.39 771.731 269.778 770.959 269.144C770.188 268.512 769.433 267.861 768.694 267.189C767.954 266.52 767.232 265.832 766.528 265.125C765.825 264.416 765.14 263.691 764.473 262.948C763.806 262.208 763.158 261.449 762.529 260.673C761.901 259.899 761.293 259.109 760.705 258.303C760.117 257.497 759.549 256.677 759.002 255.844C758.455 255.01 757.93 254.161 757.428 253.299C756.924 252.439 756.443 251.566 755.984 250.68C744.538 228.286 744.858 192.896 752.522 169.38C758.052 203.939 768.273 228.726 797.524 249.816C818.941 265.259 843.314 271.643 869.157 274.757Z" fill="#C1C0C2"/>
<path d="M331.943 433.395C353.646 465.152 372.663 532.952 372.938 570.86C370.347 597.018 382.755 627.535 390.615 652.291C380.349 644.045 366.402 635.055 357.561 625.552C362.726 615.578 348.843 533.207 345.814 517.522C340.697 491.038 330.273 460.255 331.943 433.395Z" fill="#C1C0C2"/>
<path d="M282.235 504.443C281.463 523.264 256.845 567.435 242.375 580.219C234.293 587.361 223.417 592.432 212.455 591.812C186.696 590.356 159.181 565.233 143.407 546.488C135.994 537.683 128.718 528.127 126.448 516.65C135.407 526.904 144.725 536.368 156.059 544.039C173.971 556.165 195.902 562.585 217.493 558.142C247.082 552.05 266.608 528.377 282.235 504.443Z" fill="#C1C0C2"/>
<path d="M755.315 152.674C755.455 153.059 755.599 153.443 755.734 153.827C759.398 164.284 760.587 175.343 764.327 185.845C773.458 211.49 797.491 232.818 821.558 244.537C859.487 263.007 902.186 262.943 941.7 249.339C964.233 241.581 982.851 229.475 993.282 207.221C999.319 194.341 998.653 183.509 1000.35 170.065C1005.93 184.689 1004.5 198.865 997.815 213.005C985.391 239.272 959.475 256.665 932.623 265.762C912.854 272.457 890.051 276.184 869.157 274.757C843.314 271.643 818.941 265.259 797.524 249.816C768.273 228.726 758.052 203.939 752.522 169.38C752.921 163.801 754.292 158.178 755.315 152.674Z" fill="black"/>
<path d="M685.947 168.71C693.392 190.369 694.125 215.661 697.503 238.302C701.814 267.2 709.376 295.552 713.808 324.487C717.056 345.701 716.857 367.593 720.985 388.551C716.334 421.475 728.528 467.435 737.72 499.773C728.112 490.374 717.7 482.685 707.429 474.114C711.692 460.468 710.219 363.158 706.344 348.985C701.122 329.887 689.53 313.784 686.462 293.594C682.196 265.506 682.895 198.343 685.947 168.71Z" fill="url(#paint3_linear_88_29546)"/>
<path d="M281.991 656.134C283.492 656.439 283.764 656.431 285.377 657.143C321.655 673.19 361.003 738.143 374.684 773.843C388.035 808.685 387.816 826.02 372.542 860.163C370.052 865.911 368.701 872.137 367.09 878.179C366.622 873.186 366.069 868.202 365.432 863.226C364.795 858.252 364.073 853.291 363.266 848.341C362.46 843.391 361.569 838.456 360.593 833.537C359.619 828.617 358.56 823.715 357.417 818.831C356.277 813.948 355.052 809.086 353.745 804.242C352.437 799.399 351.047 794.581 349.574 789.786C348.102 784.992 346.548 780.223 344.915 775.481C343.279 770.739 341.564 766.026 339.769 761.342C337.974 756.658 336.1 752.005 334.146 747.385C332.192 742.764 330.16 738.178 328.051 733.627C325.941 729.076 323.755 724.561 321.492 720.085C319.227 715.608 316.887 711.171 314.472 706.773C312.057 702.375 309.568 698.02 307.005 693.708C304.44 689.394 301.803 685.125 299.094 680.901C296.385 676.678 293.605 672.502 290.753 668.371C287.902 664.242 284.981 660.163 281.991 656.134Z" fill="#FEFDFB"/>
<path d="M236.451 334.835C238.843 334.781 241.097 334.913 243.468 335.23C253.358 336.557 264.003 337.959 270.477 346.351C270.846 348.946 271.377 350.357 270.531 352.909C268.339 359.518 260.673 364.137 254.844 367.158C228.299 380.908 197.409 385.297 170.751 399.86L168.84 400.912L150.051 413.871C146.001 408.914 142.008 403.582 141.488 396.968C140.771 387.911 145.009 379.802 150.77 373.118C171.361 349.226 205.901 337.53 236.451 334.835Z" fill="#FEFDFB"/>
<path d="M390.373 292.335C407.254 298.823 420.979 309.291 439.302 314.48C478.901 325.696 524.044 322.485 560.19 302.343C600.289 279.999 621.846 247.636 634.247 204.402C636.501 215.84 637.749 223.181 635.256 234.765L636.347 236.187L639.396 231.814C640.427 234.964 640.098 235.202 638.977 238.378C638.615 238.689 638.218 238.967 637.89 239.314C632.025 245.513 622.807 269.991 616.903 279.758C593.769 318.028 539.388 350.912 494.776 354.679C466.668 357.055 441.286 344.413 420.496 326.512C409.932 317.416 396.865 304.741 390.373 292.335Z" fill="#C1C0C2"/>
<path d="M728.519 622.868L734.466 628.399C746.856 687.456 790.901 789.609 780.857 845.384C778.311 859.513 771.316 873.111 763.529 885.043C751.934 902.806 734.887 919.613 717.144 931.163C710.017 930.793 701.358 933.009 694.133 933.716C667.942 936.271 637.974 936.728 613.056 927.34C626.606 927.556 639.972 927.464 653.447 925.826C682.988 922.233 714.864 911.751 733.552 887.2C740.336 878.289 744.518 868.039 746.55 857.07C757.018 800.624 736.498 683.257 728.519 622.868Z" fill="#C1C0C2"/>
<path d="M512.109 139.814C521.616 138.653 531.354 138.779 540.574 141.5C556.179 146.105 566.262 155.799 573.724 169.79L573.223 170.572C569.961 175.745 566.839 180.016 561.909 183.747C539.051 201.047 467.118 221.975 438.799 217.969L422.488 211.678C430.304 220.157 440.297 227.896 446.631 237.505C446.176 237.23 445.704 236.978 445.265 236.675C434.269 229.015 423.18 214.946 420.872 201.642C419.358 192.91 420.445 185.054 425.72 177.801C443.146 153.83 484.454 143.589 512.109 139.814Z" fill="#FEFDFB"/>
<path d="M300.547 442.138L301.101 441.527C301.859 463.155 291.523 485.33 282.235 504.443C266.608 528.377 247.082 552.05 217.493 558.142C195.902 562.585 173.971 556.165 156.059 544.039C144.725 536.368 135.407 526.904 126.448 516.65C119.61 506.468 114.945 496.553 111.185 484.901C110.491 483.777 110.224 483.454 109.746 482.049C108.679 478.902 108.426 476.644 109.921 473.651C116.676 474.481 128.378 487.557 134.715 491.4C143.933 496.99 154.047 500.606 164.329 503.708C206.77 516.512 243.744 495.65 273.541 466.501C280.586 459.607 289.795 447.322 298.453 443.092C299.142 442.755 299.85 442.455 300.547 442.138Z" fill="#C1C0C2"/>
<path d="M300.547 442.138L301.101 441.527C301.859 463.155 291.523 485.33 282.235 504.443C266.608 528.377 247.082 552.05 217.493 558.142C195.902 562.585 173.971 556.165 156.059 544.039C144.725 536.368 135.407 526.904 126.448 516.65C119.61 506.468 114.945 496.553 111.185 484.901C118.039 487.482 130.598 506.106 137.284 512.327C149.036 523.261 165.633 533.423 181.135 537.984C182.233 538.316 183.337 538.621 184.448 538.898C185.561 539.175 186.68 539.424 187.806 539.647C188.93 539.869 190.06 540.063 191.195 540.227C192.329 540.394 193.466 540.532 194.607 540.643C195.75 540.751 196.894 540.832 198.038 540.887C199.183 540.939 200.329 540.963 201.475 540.96C202.622 540.956 203.768 540.924 204.915 540.864C206.06 540.804 207.202 540.716 208.343 540.598C209.482 540.482 210.619 540.337 211.752 540.163C212.886 539.991 214.014 539.79 215.138 539.56C216.263 539.332 217.38 539.076 218.491 538.791C219.6 538.507 220.703 538.196 221.799 537.857C222.895 537.519 223.981 537.153 225.059 536.761C226.134 536.368 227.2 535.949 228.257 535.504C229.313 535.057 230.358 534.586 231.39 534.09C232.424 533.593 233.444 533.07 234.45 532.523C268.167 514.549 289.601 477.365 300.547 442.138Z" fill="black"/>
<path d="M390.373 292.335C396.865 304.741 409.932 317.416 420.496 326.512C441.286 344.413 466.668 357.055 494.776 354.679C539.388 350.912 593.769 318.028 616.903 279.758C622.807 269.991 632.025 245.513 637.89 239.314C638.218 238.967 638.615 238.689 638.977 238.378C637.881 249.485 634.402 260.286 630.653 270.76C633.798 282.695 623.583 299.524 617.611 309.683C594.103 349.692 560.271 384.285 514.116 396.183C492.457 401.767 470.72 401.349 450.973 389.625C423.351 373.225 391.039 331.222 383.738 299.863C383.246 297.751 383.246 296.066 383.277 293.911C377.522 282.308 373.337 271.632 370.488 258.996C376.954 269.969 382.207 282.591 390.373 292.335Z" fill="#C1C0C2"/>
<path d="M390.373 292.335C396.865 304.741 409.932 317.416 420.496 326.512C441.286 344.413 466.668 357.055 494.776 354.679C539.388 350.912 593.769 318.028 616.903 279.758C622.807 269.991 632.025 245.513 637.89 239.314C638.218 238.967 638.615 238.689 638.977 238.378C637.881 249.485 634.402 260.286 630.653 270.76C609.782 313.677 575.781 349.462 529.822 365.551C503.471 374.779 474.59 377.087 448.896 364.547C419.903 350.396 400.512 319.798 383.277 293.911C377.522 282.308 373.337 271.632 370.488 258.996C376.954 269.969 382.207 282.591 390.373 292.335Z" fill="black"/>
<path d="M863.318 387.277C871.782 394.966 867.246 453.877 867.645 467.937C869.053 517.668 878.594 569.463 891.628 617.454C897.867 640.423 905.516 663.006 911.853 685.969C903.448 681.148 896.299 676.149 888.818 669.998L887.123 668.296C842.955 623.199 824.75 559.292 826.259 497.338C827.164 460.129 835.179 414.143 863.318 387.277Z" fill="#FEFDFB"/>
<path d="M755.315 152.674C755.748 149.825 755.186 149.373 757.543 147.488C760.148 148.804 778.274 173.863 784.271 179.59C817.966 211.77 890.47 224.723 934.107 210.152C946.188 206.119 962.769 200.899 968.842 188.714C977.719 170.909 964.727 142.885 970.798 133.094C978.307 134.288 988.775 150.299 992.984 156.141C994.541 158.273 995.937 160.505 997.172 162.836C998.406 165.17 999.467 167.58 1000.35 170.065C998.653 183.509 999.319 194.341 993.282 207.221C982.851 229.475 964.233 241.581 941.7 249.339C902.186 262.943 859.487 263.007 821.558 244.537C797.491 232.818 773.458 211.49 764.327 185.845C760.587 175.343 759.398 164.284 755.734 153.827C755.599 153.443 755.455 153.059 755.315 152.674Z" fill="#C1C0C2"/>
<path d="M802.603 47.1716C810.261 46.2376 818.666 46.218 826.369 46.6163C870.728 48.9022 910.518 66.1775 940.04 99.0647C938.12 103.135 936.221 107.392 933.646 111.098C923.125 126.244 907.584 129.557 890.577 132.303C850.121 133.576 803.805 125.431 769.844 102.055C761.601 96.3805 748.82 85.75 748.022 75.184C747.789 72.1042 748.913 69.1507 750.785 66.7413C760.345 54.4447 787.905 49.323 802.603 47.1716Z" fill="#FEFDFB"/>
<path d="M458.47 477.477C461.638 477.586 463.414 477.561 466.058 479.406C468.489 483.732 469.714 508.785 472.96 519.051C482.526 549.313 499.682 577.201 507.087 608.251C513.028 633.162 503.92 659.654 502.147 684.819C500.062 714.385 505.32 745.536 500.888 774.668L499.584 775.089L494.866 768.853C488.487 759.603 482.56 749.887 476.99 740.123C467.014 722.629 458.142 704.201 451.959 685.01C437.205 639.198 427.87 568.268 438.445 521.463C442.042 505.537 454.387 493.748 458.215 478.627C458.31 478.245 458.386 477.858 458.47 477.477Z" fill="#FEFDFB"/>
<path d="M233.04 683.975C250.306 682.121 269.972 686.858 285.026 695.399C307.193 707.973 327.817 734.659 333.952 759.496C338.988 779.885 330.026 789.898 319.893 806.231C305.971 828.665 305.94 862.985 312.777 888.108C313.463 890.627 314.188 891.968 313.572 894.618L306.825 892.689C297.132 889.688 287.387 885.16 278.844 879.685C237.176 852.969 207.368 794.383 195.967 747.682C192.699 734.289 192.983 720.273 189.849 706.809C189.728 706.293 189.596 705.777 189.47 705.264C202.897 690.844 213.981 686.536 233.04 683.975Z" fill="#FEFDFB"/>
<path d="M808.774 641.346C828.791 709.059 855.927 776.609 919.89 814.026C921.964 815.26 924.068 816.443 926.202 817.574C928.336 818.704 930.496 819.781 932.682 820.805C934.871 821.828 937.081 822.797 939.315 823.711C941.55 824.626 943.806 825.485 946.084 826.289C948.363 827.091 950.659 827.837 952.972 828.527C955.288 829.215 957.619 829.847 959.964 830.423C962.31 830.997 964.669 831.513 967.04 831.972C969.412 832.43 971.793 832.829 974.184 833.169C976.575 833.508 978.973 833.788 981.378 834.011C983.784 834.233 986.193 834.396 988.606 834.499C991.019 834.6 993.433 834.643 995.848 834.628C998.265 834.611 1000.68 834.534 1003.09 834.398C1005.5 834.261 1007.91 834.066 1010.31 833.812C1012.71 833.557 1015.11 833.243 1017.49 832.869C1019.88 832.497 1022.25 832.066 1024.62 831.576C1026.98 831.084 1029.33 830.535 1031.67 829.93C1069.58 819.815 1102.23 793.517 1121.77 759.76C1173.57 670.293 1135.91 528.862 1106.76 436.186C1099.36 412.642 1088.96 389.816 1082.57 365.941C1087.06 374.26 1092.81 382.661 1096.03 391.521C1097.46 395.433 1098.93 399.331 1100.44 403.215C1106.64 403.549 1111.93 404.522 1117.35 400.934C1168.56 527.137 1252.8 699.27 1196.05 834.818C1176.13 882.389 1137.27 930.196 1088.39 949.819C1039.21 969.559 976.41 966.424 928.107 945.438C883.554 926.078 862.303 889.306 845.492 845.676C841.715 835.87 837.48 825.526 834.732 815.403C846.4 799.951 820.15 712.515 815.457 689.983C812.174 673.915 809.947 657.702 808.774 641.346Z" fill="#C1C0C2"/>
<path d="M1160.89 808.057C1161.19 819.619 1140.86 844.677 1133.66 853.496C1105.75 887.727 1064.19 911.187 1020 915.616C978.158 919.812 939.455 909.311 906.806 882.978C901.66 878.9 896.931 874.32 892.117 869.863C930.676 894.209 971.823 903.294 1017.24 897.16C1078.81 888.846 1124.08 856.183 1160.89 808.057Z" fill="black"/>
<defs>
<linearGradient id="paint0_linear_88_29546" x1="850.756" y1="1123.38" x2="388.463" y2="639.569" gradientUnits="userSpaceOnUse">
<stop stop-color="#888383"/>
<stop offset="1" stop-color="#A7A5A7"/>
</linearGradient>
<linearGradient id="paint1_linear_88_29546" x1="736.771" y1="-276.629" x2="-51.4341" y2="302.158" gradientUnits="userSpaceOnUse">
<stop stop-color="#888383"/>
<stop offset="1" stop-color="#888383"/>
</linearGradient>
<linearGradient id="paint2_linear_88_29546" x1="953.035" y1="638.384" x2="59.9792" y2="1176.37" gradientUnits="userSpaceOnUse">
<stop stop-color="#888383"/>
<stop offset="1" stop-color="#A7A5A7"/>
</linearGradient>
<linearGradient id="paint3_linear_88_29546" x1="-803.554" y1="1017.62" x2="-592.78" y2="21.182" gradientUnits="userSpaceOnUse">
<stop stop-color="#888383"/>
<stop offset="1" stop-color="#A7A5A7"/>
</linearGradient>
</defs>
</svg>
