<svg width="405" height="193" viewBox="0 0 405 193" fill="none" xmlns="http://www.w3.org/2000/svg">
<path d="M1.87899 139.251C5.52844 145.317 8.49776 153.541 12.7005 158.905C17.4757 165.596 22.2804 171.742 27.9996 177.651L29.6384 182.831C26.2129 183.068 23.1505 182.857 19.746 182.437C7.31296 171.852 4.0184 161.687 1.48828 145.929L1.87899 139.251Z" fill="#F05C4B"/>
<path d="M193.249 165.898C231.471 168.481 269.416 168.89 307.691 169.632C327.776 170.022 348.788 171.814 368.773 170.468C373.937 170.736 379.445 170.358 383.918 173.214C376.009 180.004 368.184 186.209 357.673 188.168C326.673 193.943 275.387 190.764 242.63 191.036C179.397 191.564 110.469 195.334 47.7079 190.462C44.1746 190.187 40.7067 189.767 37.2305 189.058C54.5738 178.164 132.539 194.054 159.599 184.31C174.651 179.355 182.258 178.249 193.249 165.898Z" fill="url(#paint0_linear_61_725)"/>
<path d="M41.9614 3.6788C72.4664 -1.11955 126.75 2.40951 159.762 2.06526L286.272 0.692503C311.765 0.426397 338.41 -1.15119 363.745 1.59012C372.171 2.50037 378.678 4.97341 385.565 9.9386C396.556 17.8584 401.274 28.4858 403.263 41.6137C406.93 65.8061 403.352 94.0872 400.693 118.292C399.785 126.552 397.698 135.811 397.965 144.062C394.82 154.438 392.207 165.606 383.918 173.214C379.445 170.358 373.937 170.736 368.773 170.468C374.486 164.098 378.034 156.979 380.687 148.888C390.076 120.256 400.94 51.9475 386.968 24.6188C386.385 24.4055 385.798 24.2007 385.219 23.9747C382.294 22.8363 379.899 20.8405 377.436 18.944C351.248 22.9208 324.061 52.5515 285.801 40.1776C285.298 40.2409 284.798 40.3001 284.297 40.3698C277.767 41.2737 271.816 43.1258 265.577 45.1955L266.671 48.0108L265.972 45.1766C265.528 45.2906 265.089 45.4173 264.643 45.5208C249.575 49.0499 231.765 46.0023 216.32 45.9368C215.912 46.2008 215.53 46.5155 215.093 46.7288C210.981 48.7288 203.431 47.0857 199.306 45.6813C192.343 43.3096 189.961 37.3116 186.919 31.1722L180.391 20.8891L164.985 18.4772C169.244 21.7233 176.928 25.9578 178.41 30.9504C165.295 40.1606 121.468 39.0075 103.793 40.6358L98.0379 34.4816L87.2183 32.6675C85.5372 32.2599 82.6861 31.1236 81.0557 31.1701C75.4612 31.3327 66.5466 35.4383 60.7577 36.7773C47.3405 39.8776 33.71 42.2536 20.128 44.5197C16.3392 45.8714 12.4911 47.4997 8.60938 48.5261C8.86492 43.0984 9.94424 37.7657 10.8651 32.4161L18.261 21.4065L14.3793 15.9176C22.9665 8.43284 30.6392 4.74745 41.9614 3.6788Z" fill="url(#paint1_linear_61_725)"/>
<path d="M177.465 13.1548L177.704 10.3248C212.629 1.43978 305.234 11.2688 341.373 18.6163C320.514 24.6649 299.603 30.7198 278.228 34.6903C257.533 37.9533 234.614 35.288 216.321 45.9365C215.913 46.2005 215.531 46.5152 215.094 46.7285C210.982 48.7285 203.431 47.0854 199.307 45.6809C192.344 43.3092 189.961 37.3113 186.92 31.1718L180.392 20.8888L173.178 14.9541L177.465 13.1548Z" fill="#CCA3AD"/>
<path d="M14.3793 15.9175C22.9665 8.4327 30.6392 4.74732 41.9614 3.67867C82.0864 6.37563 137.037 -4.24539 173.177 14.9544L180.391 20.889L164.985 18.4771C169.244 21.7232 176.928 25.9576 178.41 30.9503C165.295 40.1605 121.468 39.0074 103.793 40.6357L98.0379 34.4815L87.2183 32.6673C85.5372 32.2597 82.6861 31.1235 81.0557 31.1699C75.4612 31.3326 66.5466 35.4382 60.7577 36.7772C47.3405 39.8775 33.71 42.2535 20.128 44.5196C16.3392 45.8713 12.4911 47.4996 8.60938 48.526C8.86492 43.0983 9.94424 37.7655 10.8651 32.416L18.261 21.4064L14.3793 15.9175Z" fill="#78C2DE"/>
<path d="M1.87949 139.251C-1.1237 112.07 0.0927905 79.9835 1.27971 52.5577C1.91963 37.7213 3.01363 26.2977 14.3801 15.9175L18.2618 21.4064L10.8659 32.416C9.94505 37.7656 8.86572 43.0983 8.61018 48.526C12.4919 47.4996 16.34 45.8713 20.1288 44.5196C33.7108 42.2535 47.3413 39.8775 60.7585 36.7772C66.5474 35.4382 75.462 31.3326 81.0565 31.17C82.6869 31.1235 85.538 32.2598 87.2191 32.6674L98.0387 34.4815L103.794 40.6357C121.469 39.0074 165.296 40.1605 178.411 30.9503C176.929 25.9577 169.245 21.7232 164.985 18.4771L180.392 20.889L186.92 31.1721C188.667 53.2504 186.639 74.9233 187.419 96.8981L187.112 110.516C186.375 128.345 187.275 151.933 173.144 165.235C157.676 179.794 68.6466 175.739 47.1195 173.967C31.9747 172.721 24.3083 168.312 12.7011 158.905C8.49827 153.541 5.52895 145.317 1.87949 139.251Z" fill="url(#paint2_linear_61_725)"/>
<path d="M20.1281 44.5195C33.71 42.2534 47.3405 39.8774 60.7578 36.7771C66.5466 35.4381 75.4612 31.3325 81.0558 31.1698C82.6862 31.1234 85.5373 32.2596 87.2184 32.6672C73.5456 44.1394 66.8424 65.3877 49.3153 70.355C36.7682 73.2399 25.8705 75.7025 16.8947 85.466C15.5304 89.2929 15.8978 89.7047 12.1048 91.6287C6.09415 82.5727 8.64955 59.3201 8.60942 48.5259C12.4912 47.4995 16.3392 45.8712 20.1281 44.5195Z" fill="url(#paint3_linear_61_725)"/>
<path d="M27.9996 177.651C54.4244 189.562 127.344 183.606 159.6 184.31C132.539 194.054 54.5743 178.164 37.2309 189.058C30.5719 188.39 25.5561 185.528 19.7461 182.437C23.1506 182.857 26.2129 183.068 29.6385 182.831L27.9996 177.651Z" fill="#DC3E2B"/>
<defs>
<linearGradient id="paint0_linear_61_725" x1="194.609" y1="227.998" x2="220.847" y2="130.748" gradientUnits="userSpaceOnUse">
<stop stop-color="#DA4744"/>
<stop offset="1" stop-color="#BB7A7D"/>
</linearGradient>
<linearGradient id="paint1_linear_61_725" x1="360.855" y1="177.13" x2="251.012" y2="-39.1561" gradientUnits="userSpaceOnUse">
<stop stop-color="#886A8A"/>
<stop offset="1" stop-color="#B689A0"/>
</linearGradient>
<linearGradient id="paint2_linear_61_725" x1="77.0299" y1="181.147" x2="102.788" y2="95.7534" gradientUnits="userSpaceOnUse">
<stop stop-color="#937087"/>
<stop offset="1" stop-color="#808BB3"/>
</linearGradient>
<linearGradient id="paint3_linear_61_725" x1="45.5353" y1="83.1748" x2="43.5114" y2="35.2709" gradientUnits="userSpaceOnUse">
<stop stop-color="#5596C4"/>
<stop offset="1" stop-color="#6CB9DB"/>
</linearGradient>
</defs>
</svg>
