<svg width="400" height="188" viewBox="0 0 400 188" fill="none" xmlns="http://www.w3.org/2000/svg">
<path d="M182.139 21.9689C215.305 21.7662 247.818 20.6807 280.858 17.5571C303.857 15.3839 329.639 10.1441 352.573 10.9826C363.129 11.3691 372.523 17.7387 383.156 15.2339C394.364 24.8116 397.14 37.6734 398.295 51.8742C400.523 79.2979 401.763 143.983 392.143 167.546C383.684 140.57 390.476 83.8766 386.373 51.4454C385.207 42.2331 382.312 28.4146 374.001 22.8517C364.088 16.2139 261.077 23.3671 243.119 26.8328L247.533 27.044C227.884 31.5256 209.907 33.836 189.771 34.6555L186.075 28.6153L182.139 21.9689Z" fill="#A58193"/>
<path d="M155.646 2.86648L274.845 1.21916C301.451 0.809443 330.434 -2.0544 356.561 2.7524C367.03 4.67639 374.985 8.48636 383.157 15.234C372.523 17.7388 363.129 11.3692 352.573 10.9827C329.64 10.1442 303.857 15.384 280.858 17.5572C247.818 20.6808 215.305 21.7663 182.139 21.969C177.248 16.8201 173.241 13.4072 166.8 10.3639C162.844 8.46101 159.216 5.42405 155.646 2.86648Z" fill="url(#paint0_linear_61_726)"/>
<path d="M29.279 6.81769C60.4746 -2.48757 121.278 2.63813 155.645 2.86622C159.215 5.42379 162.843 8.46075 166.799 10.3636C173.24 13.4069 177.246 16.8198 182.138 21.9688L186.074 28.6151C187.969 46.1042 187.667 63.268 186.315 80.7951C181.2 85.8997 180.964 97.1416 179.958 104.191C175.306 102.787 171.831 96.6263 166.727 94.8734C163.124 93.6337 155.998 97.7118 152.351 99.3443L150.64 97.9209C152.372 94.4256 155.386 89.6652 154.754 85.661C154.646 84.9788 154.469 84.3115 154.328 83.6357L147.046 75.1984C136.325 69.965 124.114 67.0611 113.062 62.2543L103.417 48.0092C100.036 42.0978 96.4644 37.0249 90.2235 33.9964C83.4906 32.6848 79.6786 34.7693 73.7335 37.6036C68.2403 38.4378 67.5961 40.4695 64.2423 44.44C63.3194 43.6966 62.6055 43.3861 62.1599 42.2647C50.3372 39.4072 36.0161 39.5656 23.752 38.0196C21.2683 36.1527 19.5936 33.7007 17.3824 31.5612C13.2028 27.5169 12.3516 27.6542 6.71484 27.6626C12.1869 18.6003 18.8079 12.9676 27.9991 7.89474L29.279 6.81769Z" fill="#78C2DE"/>
<path d="M2.05494 50.246C2.51746 41.9102 3.60716 35.4539 6.71596 27.6629C12.3528 27.6545 13.2039 27.5172 17.3835 31.5616C19.5947 33.701 21.2694 36.153 23.7531 38.0199C36.0172 39.5659 50.3383 39.4075 62.161 42.265C62.6066 43.3864 63.3205 43.6969 64.2434 44.4403C67.5972 40.4698 68.2414 38.4381 73.7346 37.6039C79.6797 34.7697 83.4918 32.6852 90.2247 33.9967C96.4655 37.0252 100.037 42.0981 103.418 48.0095L113.063 62.2546C124.115 67.0614 136.327 69.9653 147.047 75.1987L154.329 83.636C154.47 84.3118 154.648 84.9791 154.755 85.6613C155.387 89.6656 152.373 94.4259 150.641 97.9212L152.352 99.3446C155.999 97.7121 163.125 93.634 166.728 94.8737C171.833 96.6266 175.307 102.787 179.959 104.192C180.965 97.1419 181.201 85.9 186.316 80.7954C184.046 110.825 183.138 150.562 158.924 171.882C150.248 179.519 140.609 182.61 129.471 184.748C100.058 187.432 70.5223 186.923 41.0162 187.259C33.0457 181.335 24.8344 177.451 17.9135 170.038C3.54592 154.644 2.01897 139.149 2.50894 118.988C0.603959 97.6129 -1.79937 71.4162 2.05494 50.246Z" fill="url(#paint1_linear_61_726)"/>
<defs>
<linearGradient id="paint0_linear_61_726" x1="261.277" y1="22.5225" x2="252.301" y2="-15.1098" gradientUnits="userSpaceOnUse">
<stop stop-color="#C4A094"/>
<stop offset="1" stop-color="#EBBFAF"/>
</linearGradient>
<linearGradient id="paint1_linear_61_726" x1="45.9878" y1="184.04" x2="105.279" y2="63.1238" gradientUnits="userSpaceOnUse">
<stop stop-color="#756C87"/>
<stop offset="1" stop-color="#5EA3CC"/>
</linearGradient>
</defs>
</svg>
