<svg width="294" height="343" viewBox="0 0 294 343" fill="none" xmlns="http://www.w3.org/2000/svg">
<path d="M124.293 9.94216L124.01 8.39153C124.237 7.73212 124.516 7.1661 125.039 6.68561C131.47 0.776798 156.463 0.0650609 165.387 0.0538081C177.561 0.0386169 199.814 -1.10635 208.934 7.99093C207.666 10.6032 203.957 11.93 201.294 12.8538C191.331 16.3112 180.156 17.1298 169.687 17.3116C153.89 17.6734 138.841 16.5728 124.293 9.94216Z" fill="#F9A976"/>
<path d="M179.084 3.34666C184.393 2.98207 194 2.69907 198.911 4.98787C200.163 5.57133 200.413 5.94829 200.825 7.18159C200.634 7.63057 200.403 8.0745 200.052 8.42221C195.807 12.6307 182.218 12.4929 176.576 12.6561C170.973 12.6819 163.645 12.8243 158.358 10.9062C156.837 10.3537 154.85 9.26672 154.188 7.72171C154.018 7.32393 154.347 6.86427 154.496 6.47548C158.889 3.10866 173.387 3.61278 179.084 3.34666Z" fill="#AA6533"/>
<path d="M122.134 58.9529C118.032 54.5564 110.351 50.3068 109.039 44.0233C108.739 42.5841 108.966 41.1387 109.852 39.9436C112.066 36.9532 117.774 36.1261 121.248 35.46L121.351 36.1104C118.251 38.0042 113.267 40.4815 112.301 44.2855C112.048 45.2808 112.178 46.1737 112.445 47.1454C113.488 47.8886 114.662 48.3382 115.833 48.8434C118.329 50.8126 120.82 52.4392 123.73 53.7406C126.987 58.8353 134.243 70.4121 134.138 76.564L133.591 77.597C130.521 70.6023 127.3 64.6141 122.134 58.9529Z" fill="#FEFFFF"/>
<path d="M121.246 35.4603C123.679 34.4616 127.182 34.2321 129.781 34.1055L130.967 34.4295C131.844 35.9729 132.307 37.4526 132.776 39.1568C133.364 40.479 133.915 41.8496 134.57 43.1381C133.385 43.8655 133.011 44.4434 132.675 45.8269C132.27 47.5024 132.55 48.8578 132.984 50.4731C133.663 51.3435 134.438 51.7306 135.399 52.2477C130.508 51.604 119.811 48.0898 115.832 48.8437C114.661 48.3385 113.487 47.889 112.443 47.1457C112.177 46.174 112.047 45.2811 112.3 44.2858C113.265 40.4818 118.25 38.0045 121.35 36.1107L121.246 35.4603Z" fill="#C3F1F8"/>
<path d="M129.781 34.1055L130.967 34.4295C131.844 35.9729 132.307 37.4526 132.776 39.1568C132.366 39.1602 131.952 39.1703 131.543 39.1473C130.199 39.0707 130.139 39.0471 129.278 38.0557C129.126 36.6491 129.458 35.4609 129.781 34.1055Z" fill="#FEFFFF"/>
<path d="M208.933 7.99121C208.71 10.5084 207.124 12.6386 206.196 14.9465C203.851 20.7816 201.294 28.6591 201.184 34.9798C200.662 38.1064 200.661 41.2982 200.558 44.4602C193.324 45.5011 186.124 46.4728 178.809 46.7322C164.172 46.2612 148.567 48.3604 134.57 43.1386C133.916 41.8502 133.365 40.4796 132.776 39.1574C132.308 37.4531 131.845 35.9734 130.968 34.4301L129.781 34.106L130.627 33.4663C130.578 28.2203 126.369 19.8184 125.28 14.0868L124.184 10.7448L124.293 9.94245C138.841 16.5731 153.89 17.6736 169.687 17.3119C180.156 17.1301 191.33 16.3115 201.294 12.8541C203.956 11.9302 207.665 10.6035 208.933 7.99121Z" fill="#634849"/>
<path d="M208.933 7.99121C208.711 10.5084 207.124 12.6386 206.197 14.9465C203.851 20.7816 201.294 28.6591 201.185 34.9798C200.662 38.1064 200.661 41.2982 200.558 44.4602C193.325 45.5011 186.124 46.4728 178.81 46.7322C178.685 43.3023 181.369 31.1797 180.603 29.6826C179.005 26.5599 173.603 25.9978 170.595 25.186C168.351 23.0164 166.642 20.4013 164.85 17.8621C166.422 17.8666 168.297 18.1237 169.687 17.3119C180.156 17.1301 191.331 16.3115 201.294 12.8541C203.956 11.9302 207.666 10.6035 208.933 7.99121Z" fill="#422B31"/>
<path d="M219.732 38.5224C214.324 35.2929 207.847 34.8158 201.706 35.141L201.184 34.9795C200.662 38.1061 200.661 41.2979 200.558 44.4599C193.324 45.5008 186.124 46.4725 178.809 46.7319C164.172 46.2609 148.567 48.3601 134.57 43.1383C133.386 43.8658 133.011 44.4436 132.676 45.8271C132.27 47.5027 132.551 48.8581 132.985 50.4734C133.664 51.3438 134.439 51.7309 135.399 52.2479C130.509 51.6043 119.812 48.0901 115.832 48.844C118.329 50.8132 120.82 52.4398 123.73 53.7412C127.06 54.5986 130.398 55.5697 133.797 56.1155C136.341 56.3321 139.7 56.3805 141.79 58.0487L143.441 61.6789C145.482 69.1856 147.513 76.6788 149.234 84.2665C150.264 95.8439 153.178 108.493 145.041 118.298C141.462 122.611 136.06 125.429 132.934 130.099C117.396 141.01 107.918 151.799 104.523 170.965C102.674 181.406 104.366 187.495 104.959 197.588L100.808 198.959C92.1909 201.724 84.1491 204.76 76.2868 209.278C76.329 211.488 76.2058 213.852 76.6272 216.022C77.4419 226.393 79.2677 236.288 82.0162 246.317C84.9531 254.147 87.8451 261.835 92.1684 269.037C99.6464 285.534 112.276 298.829 124.349 312.038C114.416 310.312 105.489 306.663 95.7923 304.358C104.787 315.168 114.84 324.595 125.905 333.247C117.939 331.662 110.519 322.236 105.025 316.533L101.902 321.716C105.404 325.044 110.569 329.014 112.651 333.369L112.585 334.414C112.933 334.878 113.433 335.253 113.916 335.562C128.946 345.161 202.148 342.351 220.903 338.017C230.006 335.914 247.718 318.201 247.718 318.201L262.262 302.138C262.262 302.138 273.636 288.249 278.815 278.093C285.414 265.149 286.65 256.743 289.944 242.593C291.791 234.658 293.604 230.237 293.815 222.093C294.068 212.286 289.612 197.328 289.612 197.328C289.775 196.909 289.286 196.046 289.314 195.593C288.814 190.593 283.814 177.593 282.146 173.7C282.146 173.621 282.151 173.54 282.146 173.461C281.454 166.761 265.739 146.024 260.715 141.182C259.663 139.347 257.722 137.662 256.107 136.308C254.548 131.969 239.064 121.933 234.67 119.561C232.695 116.27 219.355 109.807 215.431 107.088C209.172 102.753 205.694 97.3084 204.378 89.8051C202.38 78.4184 206.374 67.0166 214.014 58.4904C216.778 55.406 220.34 52.5332 222.635 49.1101C223.733 47.4785 224.7 45.2999 224.211 43.3088C223.665 41.0672 221.544 39.682 219.732 38.5224Z" fill="#77C2DD"/>
<path d="M184.675 138.88C185.436 139.067 186.43 139.231 187.121 139.596C188.354 140.248 188.513 140.89 188.957 142.113C188.84 143.942 188.235 144.965 187.29 146.483C186.805 146.334 186.318 146.182 185.844 146.001C184.263 145.397 183.735 144.678 183.066 143.23C183.029 141.44 183.77 140.355 184.675 138.88Z" fill="#FEFFFF"/>
<path d="M192.85 158.936C193.717 159.031 195.023 159.334 195.777 159.828C196.884 160.555 197.45 161.323 197.621 162.642C197.825 164.211 196.559 165.701 195.7 166.902C194.612 166.818 193.243 166.675 192.326 166.027C191.493 165.438 190.981 164.69 190.828 163.693C190.533 161.789 191.758 160.326 192.85 158.936Z" fill="#FEFFFF"/>
<path d="M161.414 112.662C162.569 112.568 163.922 112.471 165.035 112.842C166.776 113.423 168.214 114.984 168.975 116.613C169.981 118.767 169.987 121.248 169.168 123.463C168.225 126.016 166.718 127.129 164.321 128.191C162.864 128.187 160.835 127.859 159.545 127.142C157.247 125.865 156.577 123.79 155.838 121.448C156.119 119.961 156.368 118.417 156.838 116.976C157.66 114.456 159.199 113.772 161.414 112.662Z" fill="#FEFFFF"/>
<path d="M150.916 188.539C156.11 187.211 162.479 187.315 167.838 187.255C191.889 186.986 216.351 189.882 239.127 197.894C241.49 198.725 245.125 199.592 247.201 200.908C247.33 200.989 247.437 201.101 247.55 201.198L248.647 202.1C248.202 206.985 247.364 220.463 243.594 223.668C240.14 225.91 221.556 229.181 217.251 229.319L216.621 228.719C213.268 229.099 206.722 230.809 203.615 229.889C209.306 222.906 210.043 209.069 210.91 200.513C194.332 195.997 173.114 193.116 155.877 193.744C155.229 192.36 154.893 190.371 153.899 189.236C153.323 188.578 151.804 188.64 150.916 188.539Z" fill="url(#paint0_linear_117_36064)"/>
<path d="M132.933 130.098C138.587 127.697 144.014 124.749 150.174 127.262C151.224 127.691 152.252 128.172 153.281 128.645C158.789 136.491 159.563 144.502 157.919 153.763C155.773 165.851 151.312 177.646 146.102 188.716C139.792 189.137 108.804 194.267 105.15 197.618L104.958 197.588C104.365 187.495 102.673 181.405 104.522 170.965C107.917 151.799 117.396 141.009 132.933 130.098Z" fill="#C3F1F8"/>
<path d="M141.722 131.248C143.628 131.099 145.648 131.338 147.423 132.066C150.098 133.164 152.125 134.97 153.198 137.687C156.028 144.857 152.774 154.217 149.788 160.926C145.218 171.19 138.359 181.504 127.495 185.691C125.42 185.83 123.333 185.695 121.449 184.751C118.574 183.31 116.683 180.859 115.696 177.828C112.847 169.08 115.673 157.594 119.859 149.667C124.638 140.615 131.879 134.305 141.722 131.248Z" fill="#FEFFFF"/>
<path d="M146.103 188.716L150.916 188.539C151.804 188.64 153.323 188.578 153.899 189.236C154.893 190.371 155.228 192.36 155.877 193.743C173.114 193.116 194.332 195.997 210.91 200.513C210.043 209.069 209.306 222.905 203.615 229.888C197.054 231.225 189.741 228.027 183.458 229.685C184.715 230.854 186.261 230.045 187.23 230.9C185.678 231.219 184.124 231.578 182.556 231.806C168.136 231.099 153.987 230.062 139.654 228.307C128.801 226.231 117.432 222.844 106.48 221.82L105.672 221.952C105.48 221.765 105.236 221.509 105.007 221.349C102.763 219.785 78.9174 212.462 77.0275 212.738L76.6275 216.022C76.2061 213.852 76.3293 211.487 76.2871 209.278C84.1494 204.76 92.1912 201.724 100.809 198.959L104.959 197.588L105.152 197.618C108.805 194.267 139.794 189.138 146.103 188.716Z" fill="#89D18C"/>
<path d="M146.103 188.716L150.915 188.539C151.804 188.64 153.322 188.578 153.898 189.236C154.893 190.371 155.228 192.36 155.877 193.743C152.448 194.556 149.42 194.529 145.954 194.752L143.564 194.537C144.462 192.624 145.263 190.656 146.103 188.716Z" fill="#5FD687"/>
<path d="M105.152 197.618C108.805 194.268 139.794 189.138 146.103 188.717C145.264 190.657 144.463 192.625 143.565 194.538L145.955 194.752L145.524 195.067C143.856 196.296 141.894 197.886 141.481 200.018C142.149 201.044 142.64 201.294 143.859 201.534C150.771 202.895 170.993 207.251 174.76 212.68C174.965 212.976 175.114 213.289 175.253 213.619C174.966 214.722 174.947 214.836 173.987 215.448C169.844 218.095 124.594 220.719 117.972 220.299C108.584 219.703 98.5401 217.838 89.4467 215.458C86.413 214.664 82.2641 213.846 80.2212 211.316C80.1824 210.503 80.026 210.215 80.5914 209.569C84.8967 204.65 104.223 205.426 105.841 200.414C104.446 199.029 102.694 198.984 100.809 198.959L104.959 197.588L105.152 197.618Z" fill="#90F976"/>
<path d="M105.15 197.618C108.804 194.268 139.792 189.138 146.102 188.717C145.262 190.657 144.462 192.625 143.564 194.538C139.425 201.602 133.19 214.607 124.636 216.759C122.018 217.419 119.503 216.646 117.276 215.238C110.462 210.926 109.048 203.96 105.15 197.618Z" fill="url(#paint1_linear_117_36064)"/>
<path d="M76.627 216.022L77.027 212.738C78.9169 212.462 102.763 219.785 105.006 221.349C105.236 221.509 105.479 221.765 105.671 221.952L106.479 221.82C117.431 222.844 128.8 226.231 139.653 228.307C153.986 230.062 168.135 231.099 182.555 231.806C184.124 231.578 185.677 231.219 187.23 230.9C186.26 230.045 184.715 230.854 183.458 229.685C189.74 228.027 197.053 231.225 203.614 229.888C206.722 230.808 213.267 229.099 216.621 228.719L217.251 229.318C221.555 229.181 240.139 225.91 243.593 223.667C244.685 227.108 242.62 231.135 241.056 234.134C221.757 271.159 182.595 297.515 143.534 309.725C138.145 311.414 132.695 312.869 127.182 314.091L124.349 312.037C112.276 298.829 99.6461 285.533 92.1681 269.037C87.8448 261.834 84.9529 254.147 82.0159 246.316C79.2674 236.287 77.4417 226.392 76.627 216.022Z" fill="url(#paint2_linear_117_36064)"/>
<path d="M186.461 234.429C188.332 235.912 190.039 237.739 191.774 239.386C190.058 240.811 188.71 242.327 187.322 244.069C185.788 243.675 183.535 240.657 182.391 239.454C183.89 237.91 185.156 236.137 186.461 234.429Z" fill="white"/>
<path d="M203.614 229.889C206.721 230.809 213.267 229.1 216.62 228.72L217.25 229.319C211.106 231.194 189.004 232.734 182.555 231.806C184.123 231.578 185.677 231.22 187.229 230.9C186.26 230.046 184.714 230.854 183.457 229.685C189.74 228.027 197.053 231.225 203.614 229.889Z" fill="#7C9D87"/>
<path d="M139.262 235.714C141.094 238.096 142.955 239.911 145.29 241.78C143.42 244.373 141.248 246.639 139.292 249.147C137.17 246.225 135.153 244.312 132.09 242.429C134.498 240.764 136.653 239.296 138.282 236.788L139.262 235.714Z" fill="white"/>
<path d="M127.705 276.539C130.431 279.236 132.604 282.168 135.898 284.243C132.492 286.537 130.489 288.861 128.235 292.228C125.645 288.815 122.783 286.636 119.225 284.355C123.107 282.425 125.389 280.162 127.705 276.539Z" fill="white"/>
<path d="M159.259 256.051C160.346 256.993 161.176 258.653 162.036 259.819C165.092 263.964 168.434 266.4 173.038 268.59C166.176 271.735 162.783 275.005 159.668 281.781C156.363 274.993 152.259 271.889 145.678 268.571C152.584 265.724 156.128 262.867 159.259 256.051Z" fill="#FEFEFE"/>
<path d="M76.627 216.022L77.027 212.738C78.9169 212.462 102.763 219.785 105.006 221.349C105.236 221.509 105.479 221.765 105.671 221.952L106.479 221.82C117.431 222.844 128.8 226.231 139.653 228.307C140.896 229.008 142.112 229.496 142.748 230.842C142.389 232.849 140.631 234.221 139.263 235.714L138.282 236.788C136.548 237.793 133.312 239.231 132.855 241.399C132.463 243.253 133.007 245.262 132.376 247.086C130.359 252.923 118.407 262.615 113.353 266.359C108.19 270.184 102.518 272.974 96.7992 275.847C95.4798 273.413 94.305 270.873 92.1681 269.037C87.8448 261.834 84.9529 254.147 82.0159 246.316C79.2674 236.287 77.4417 226.392 76.627 216.022Z" fill="#55BA5F"/>
<path d="M113.147 248.997C114.659 249.775 116.289 251.873 117.52 253.108C115.98 255.084 114.731 256.976 113.635 259.233C112.436 256.556 111.09 255.339 108.715 253.71L113.147 248.997Z" fill="white"/>
<path d="M105.671 221.952L106.479 221.819C106.741 222.294 107.033 222.698 107.362 223.125C108.708 224.866 110.339 226.536 110.034 228.889C109.26 230.688 107.277 231.875 105.755 233.031C103.912 231.011 102.138 229.3 99.9277 227.667C101.96 225.882 103.801 223.903 105.671 221.952Z" fill="white"/>
<path d="M133.797 56.1155C130.398 55.5698 127.061 54.5987 123.73 53.7412C126.987 58.8359 134.243 70.4127 134.138 76.5646L133.591 77.5976C135.498 84.2823 136.659 95.1884 133.227 101.478C132.83 102.207 132.404 102.931 131.88 103.576L131.511 103.791C126.682 109.567 116.129 113.606 109.781 117.887C82.9501 135.985 55.8145 158.093 50.6508 193.455C47.2201 216.949 46.3851 222.398 46.211 223.409C46.2777 224.427 46.7934 232.209 47.2429 236.233C49.0755 258.664 62.7081 288.498 78.4828 304.529C82.9237 308.421 86.6287 313.04 90.9531 317.049C97.6276 322.863 104.176 329.138 111.671 333.883L112.585 334.414L112.651 333.369C110.569 329.014 105.404 325.044 101.903 321.716L105.026 316.533C110.519 322.236 117.939 331.662 125.906 333.247C114.84 324.595 104.787 315.168 95.7929 304.358C105.49 306.663 114.417 310.312 124.35 312.038C112.276 298.829 99.647 285.534 92.1689 269.037C87.8456 261.835 84.9537 254.147 82.0167 246.317C79.2682 236.288 77.4425 226.393 76.6278 216.022C76.2064 213.853 76.3296 211.488 76.2874 209.278C84.1497 204.76 92.1915 201.724 100.809 198.959L104.959 197.588C104.366 187.495 102.674 181.406 104.524 170.966C107.919 151.799 117.397 141.01 132.935 130.099C136.061 125.429 141.463 122.611 145.042 118.298C153.178 108.493 150.265 95.8439 149.235 84.2665C147.513 76.6788 145.483 69.1856 143.442 61.6789L141.79 58.0487C139.701 56.3805 136.342 56.3321 133.797 56.1155Z" fill="#D9D9D9"/>
<path d="M133.797 56.1152C136.341 56.3318 139.7 56.3802 141.79 58.0485L143.441 61.6786C145.482 69.1853 147.513 76.6785 149.235 84.2662C150.264 95.8436 153.178 108.493 145.041 118.298C141.462 122.611 136.061 125.429 132.935 130.099C117.397 141.01 107.919 151.799 104.524 170.965C102.674 181.406 104.366 187.495 104.959 197.588L100.809 198.959C92.1912 201.724 84.1494 204.76 76.2871 209.278C77.7308 184.964 84.1111 161.03 101.029 142.744C106.854 136.447 113.494 131.204 120.196 125.899C127.099 120.435 134.809 114.798 138.705 106.644C146.12 91.1304 139.155 71.1579 133.797 56.1152Z" fill="url(#paint3_linear_117_36064)"/>
<path d="M54.1377 233.216C53.9104 231.392 53.5492 230.271 54.239 228.546L55.8965 228.185C56.4203 228.733 57.0538 229.299 57.5028 229.903L57.1146 230.329L54.1377 233.216Z" fill="#6CA1A7"/>
<path d="M57.1136 230.329C57.1519 230.444 57.1918 230.559 57.229 230.674C59.2325 236.87 59.74 243.543 61.6974 249.773C67.0987 266.965 81.7824 293.238 95.7921 304.357C104.786 315.167 114.84 324.595 125.905 333.247C117.939 331.662 110.519 322.236 105.025 316.532L101.902 321.715C105.404 325.044 110.569 329.014 112.65 333.369L112.585 334.414L111.67 333.883C110.487 330.9 101.887 323.28 99.2365 320.431C75.1906 294.582 57.6509 269.424 54.1367 233.216L57.1136 230.329Z" fill="url(#paint4_linear_117_36064)"/>
<path d="M57.5015 229.903C65.6732 235.296 73.2514 241.934 82.0156 246.317C84.9526 254.147 87.8445 261.835 92.1678 269.037C99.6458 285.534 112.275 298.829 124.348 312.038C114.416 310.311 105.489 306.663 95.7918 304.358C81.7821 293.238 67.0984 266.965 61.6971 249.773C59.7397 243.543 59.2322 236.87 57.2286 230.674C57.1915 230.559 57.1515 230.444 57.1133 230.329L57.5015 229.903Z" fill="url(#paint5_linear_117_36064)"/>
<path d="M201.706 35.1404C207.847 34.8152 214.324 35.2924 219.732 38.5219C218.596 39.2786 217.15 39.3529 215.808 39.3467C212.17 39.3298 203.968 38.7728 201.496 36.3552L201.706 35.1404Z" fill="#C3F1F8"/>
<path d="M205.51 108.63C209.028 109.302 213.664 114.888 216.784 117.258C222.141 121.324 227.936 124.697 233.388 128.601C246.655 138.099 258.768 150.081 267.934 163.602C281.566 183.713 291.244 211.985 286.478 236.422C285.032 243.856 282.472 251.077 279.834 258.16C270.747 282.529 257.947 302.209 238.812 319.867C234.586 323.768 230.198 327.783 225.421 331.003C221.595 333.578 217.741 335.414 213.223 336.458L213.136 335.514L214.594 334.296C215.591 333.861 216.498 333.337 217.415 332.764C249.13 313.021 273.397 277.129 281.69 240.889C282.377 237.904 283.558 232.809 281.865 230.11C281.842 230.215 281.831 230.323 281.792 230.424C280.272 234.759 267.827 242.763 263.495 244.528C261.84 245.202 260.946 245.465 259.303 244.767C263.472 240.546 266.55 222.643 266.651 216.427C266.673 214.88 266.229 214.649 265.199 213.62C265.638 213.072 265.92 212.569 266.1 211.883C267.675 205.939 265.526 197.258 264.046 191.392C258.003 167.388 243.015 146.768 225.32 129.896C218.45 123.346 210.417 116.855 205.51 108.63Z" fill="url(#paint6_linear_117_36064)"/>
<path d="M259.303 244.768C260.946 245.465 261.841 245.202 263.495 244.529C267.827 242.764 280.273 234.759 281.792 230.424C281.831 230.323 281.842 230.215 281.865 230.11C283.558 232.809 282.377 237.905 281.69 240.889C273.397 277.129 249.131 313.021 217.415 332.764C216.498 333.337 215.591 333.861 214.594 334.296L213.136 335.514L213.223 336.458C202.863 338.551 178.748 339.026 167.949 338.401C162.955 338.111 158.009 337.204 153.016 336.924C144.993 336.474 133.381 337.468 126.246 333.247H125.906C114.84 324.595 104.787 315.168 95.793 304.358C105.49 306.663 114.417 310.311 124.35 312.038L127.183 314.091L136.307 321.112C160.381 322.83 183.828 322.541 207.819 319.801C225.753 304.337 239.926 284.79 251.207 264.098C254.588 257.896 258.077 251.812 259.303 244.768Z" fill="#2F6587"/>
<path d="M126.246 333.247C145.789 335.107 165.115 336.125 184.753 335.698C194.698 335.482 204.652 334.279 214.594 334.296L213.136 335.515L213.223 336.459C202.863 338.552 178.747 339.026 167.949 338.401C162.955 338.112 158.009 337.204 153.016 336.924C144.993 336.474 133.38 337.469 126.246 333.247Z" fill="#52A1C4"/>
<path d="M135.399 52.2475C141.941 55.5338 183.675 54.5926 192.466 53.218C201.851 51.7507 210.855 48.8823 219.867 45.9707C213.992 51.4952 208.915 54.1408 201.078 56.0205C197.188 71.8475 194.688 91.3221 203.65 105.982C204.188 106.862 204.817 107.863 205.509 108.63C210.416 116.855 218.449 123.346 225.319 129.896C243.014 146.768 258.003 167.388 264.045 191.392C265.525 197.258 267.674 205.939 266.099 211.883C265.919 212.569 265.638 213.072 265.199 213.62L265.092 212.945C261.963 208.397 254.019 203.488 248.646 202.1L247.549 201.198C247.734 200.879 247.898 200.559 248.016 200.207C249.276 196.386 247.734 190.86 246.609 187.077C241.168 168.763 226.062 150.991 212.303 138.089C205.416 131.631 197.319 125.227 192.429 117.017C188.547 110.499 186.377 103.13 185.592 95.6071C185.272 92.5284 185.49 87.6233 184.179 84.9181C184.138 84.8337 184.091 84.7522 184.047 84.6694C181.991 88.7846 180.122 92.1424 175.467 93.7279C171.169 95.1919 165.897 94.3957 161.758 92.7545C156.867 91.4458 152.693 87.8213 149.234 84.266C147.512 76.6783 145.482 69.1851 143.441 61.6784L141.789 58.0483C139.7 56.3801 136.341 56.3317 133.796 56.115C130.398 55.5693 127.06 54.5982 123.729 53.7407C120.819 52.4394 118.328 50.8128 115.832 48.8435C119.812 48.0896 130.508 51.6038 135.399 52.2475Z" fill="#52A1C4"/>
<path d="M141.789 58.0481C158.44 59.3073 174.497 59.5588 191.144 57.917L189.677 64.0323C186.591 63.0691 179.878 65.6572 176.4 65.9469C170.212 66.3464 164.247 66.2283 158.088 65.4901C153.131 64.4014 148.291 63.1731 143.44 61.6782L141.789 58.0481Z" fill="#2F6587"/>
<path d="M176.4 65.9477C179.879 65.6579 186.591 63.0698 189.678 64.0331C187.999 70.7223 186.739 78.3302 184.047 84.67C181.991 88.7851 180.122 92.143 175.467 93.7285C171.168 95.1925 165.897 94.3963 161.758 92.7551L161.808 92.2465C165.877 90.7341 169.742 88.8859 172.777 85.6811C176.932 81.2936 178.373 74.5347 177.945 68.6247C177.841 67.2001 177.427 66.8001 176.4 65.9477Z" fill="#634849"/>
<path d="M158.088 65.4902C164.247 66.2284 170.212 66.3466 176.399 65.9471C177.427 66.7995 177.841 67.1995 177.944 68.6241C178.373 74.534 176.932 81.293 172.777 85.6805C169.742 88.8852 165.876 90.7335 161.807 92.2459C161.952 91.7395 162.088 91.2309 162.215 90.72C164.519 81.4612 162.903 73.5641 158.088 65.4902Z" fill="#D6775F"/>
<path d="M143.441 61.6787C148.292 63.1736 153.132 64.4019 158.089 65.4906C162.904 73.5644 164.52 81.4616 162.217 90.7203C162.089 91.2312 161.953 91.7398 161.809 92.2462L161.759 92.7548C156.868 91.4461 152.694 87.8217 149.235 84.2663C147.513 76.6786 145.483 69.1854 143.441 61.6787Z" fill="#F9A976"/>
<path d="M248.645 202.1C254.019 203.488 261.963 208.397 265.091 212.944L265.198 213.62C266.228 214.649 266.672 214.88 266.65 216.427C266.549 222.643 263.471 240.546 259.302 244.767C258.075 251.812 254.587 257.895 251.205 264.098C239.925 284.789 225.752 304.336 207.817 319.801C183.827 322.541 160.379 322.83 136.306 321.111L127.182 314.091C132.694 312.869 138.145 311.414 143.533 309.725C182.594 297.514 221.757 271.159 241.055 234.134C242.62 231.135 244.684 227.108 243.593 223.667C247.363 220.462 248.201 206.984 248.645 202.1Z" fill="#40654A"/>
<defs>
<linearGradient id="paint0_linear_117_36064" x1="182.554" y1="220.999" x2="226.738" y2="179.993" gradientUnits="userSpaceOnUse">
<stop stop-color="#8CBC7B"/>
<stop offset="1" stop-color="#5BA962"/>
</linearGradient>
<linearGradient id="paint1_linear_117_36064" x1="130.531" y1="213.808" x2="124.967" y2="192.337" gradientUnits="userSpaceOnUse">
<stop stop-color="#CFFBD1"/>
<stop offset="1" stop-color="#E0F5DB"/>
</linearGradient>
<linearGradient id="paint2_linear_117_36064" x1="195.921" y1="283.187" x2="147.807" y2="225.906" gradientUnits="userSpaceOnUse">
<stop stop-color="#568C55"/>
<stop offset="1" stop-color="#67AE72"/>
</linearGradient>
<linearGradient id="paint3_linear_117_36064" x1="162.478" y1="77.4456" x2="61.6886" y2="193.612" gradientUnits="userSpaceOnUse">
<stop stop-color="#48B1D0"/>
<stop offset="1" stop-color="#8CCDE4"/>
</linearGradient>
<linearGradient id="paint4_linear_117_36064" x1="67.3772" y1="280.389" x2="89.1561" y2="272.707" gradientUnits="userSpaceOnUse">
<stop stop-color="#B7ABC0"/>
<stop offset="1" stop-color="#8DB6CA"/>
</linearGradient>
<linearGradient id="paint5_linear_117_36064" x1="81.3218" y1="299.596" x2="97.1303" y2="242.42" gradientUnits="userSpaceOnUse">
<stop stop-color="#5A679E"/>
<stop offset="1" stop-color="#75B3D7"/>
</linearGradient>
<linearGradient id="paint6_linear_117_36064" x1="185.145" y1="232.64" x2="283.931" y2="201.181" gradientUnits="userSpaceOnUse">
<stop stop-color="#368FDA"/>
<stop offset="1" stop-color="#5ED8ED"/>
</linearGradient>
</defs>
</svg>
