<svg width="969" height="113" viewBox="0 0 969 113" fill="none" xmlns="http://www.w3.org/2000/svg">
<g clip-path="url(#clip0_42_41)">
<path d="M950.184 10.4526C927.075 10.8636 903.552 10.6976 880.469 9.61858C872.534 9.24828 864.764 7.35029 856.793 7.25529C839.611 7.05029 822.426 7.97429 805.241 8.14229L696.544 8.60528C658.567 8.02928 620.502 8.95629 582.515 9.03329L450.119 8.48729L382.275 8.57229C373.334 8.58129 360.374 9.62859 351.796 8.42229C351.084 6.43729 350.737 4.24728 348.72 3.31228C338.261 -1.53272 305.153 2.95928 292 1.35828C293.617 -0.588718 294.095 -1.26171 296.542 -2.17771C296.863 -2.21271 297.178 -2.24371 297.5 -2.26171C312.285 -3.08371 327.242 -2.72272 342.047 -2.72672C369.724 -2.79872 397.401 -2.71172 425.078 -2.46572L844.002 -2.32072C854.46 -2.24972 864.918 -2.29371 875.375 -2.45371C892.389 -2.85871 909.783 -3.72972 926.726 -1.76972C936.718 -0.612716 942.913 3.99928 950.184 10.4526Z" fill="#795A5A"/>
<path d="M573.034 6.80958C579.271 7.05858 585.725 7.67458 591.951 7.40658C596.499 7.49958 601.315 7.93358 605.838 7.64858C612.803 8.72658 659.974 9.50258 664.265 6.92258L855.922 7.38859C881.812 7.44059 910.512 4.09958 936.032 7.00258C943.912 7.89958 951.112 10.0686 956.912 15.8156C958.542 17.4326 961.132 20.4606 961.532 22.7716L961.682 22.9322C963.225 24.5827 964.779 26.2455 964.682 28.6776C964.652 29.4716 964.482 30.1516 964.112 30.8586C966.492 32.5556 968.302 34.8556 968.802 37.8116C969.492 41.8756 968.242 46.1006 967.742 50.1366C968.352 51.3816 968.532 52.5116 968.702 53.8826L967.942 54.5886L946.077 14L892.577 12.5L835.643 13.2963L821.077 13.5L787.084 13.3122L640.077 12.5L475.577 13.5H339.577L209.077 12L87.5774 14L71.0774 19.5L26.0774 27L6.07739 20.5C10.8964 12.37 19.4508 1.80503 32.0774 4.04658L52.5774 0H260.577L498.077 4.04658L573.034 6.80958Z" fill="url(#paint0_linear_42_41)"/>
<path d="M692.731 103.238C695.982 103.39 707.735 103.237 709.835 104.516C708.29 104.757 706.77 104.931 705.21 105.03C705.973 104.672 706.081 104.797 706.864 105.073C709.489 105.998 713.006 109.3 715.564 110.936L715.7 111.467C712.92 111.466 709.815 111.214 707.191 112.226C697.455 113.652 676.229 111.781 665.429 111.448C667.876 110.532 668.354 109.859 669.971 107.912C676.432 107.857 687.199 106.477 692.731 103.238Z" fill="#696470"/>
<path d="M954.032 43.1016L954.232 43.1976C958.302 45.1916 961.282 49.2516 965.442 50.7816L966.202 50.0756C966.032 48.7046 965.852 47.5746 965.242 46.3296C967.752 48.7956 967.952 50.6926 967.992 54.1646C968.032 58.2646 967.232 65.2216 964.312 68.3096C964.252 68.3686 964.202 68.4256 964.142 68.4836C965.962 70.5806 966.072 73.0626 965.902 75.7146C965.272 85.6726 959.692 94.7016 952.322 101.142C946.982 105.797 940.712 109.359 933.692 110.524C918.332 113.074 901.962 112.801 886.432 112.82C860.492 112.851 834.572 111.985 808.643 111.985L743.904 112.423C732.284 112.522 720.318 113.202 708.742 112.357C708.225 112.32 707.708 112.276 707.191 112.226C709.815 111.214 712.92 111.466 715.7 111.467L715.564 110.936C713.006 109.3 709.489 105.998 706.864 105.073C706.081 104.797 705.973 104.672 705.21 105.03C706.77 104.931 708.29 104.757 709.835 104.516C707.735 103.237 695.982 103.39 692.731 103.238C692.962 102.726 692.896 102.169 692.889 101.619L690.698 100.901C693.791 100.844 697.302 101.124 700.337 100.677C713.376 100.77 727.33 101.779 740.268 100.691C765.743 101.69 791.095 100.664 816.568 100.761C836.722 100.838 856.952 102.276 877.092 101.091C881.832 100.812 888.552 100.935 892.562 98.1316C892.802 98.0186 893.042 97.9086 893.282 97.7736C899.032 94.5236 903.322 89.5756 905.102 83.1186C906.632 77.5556 910.482 56.4006 907.972 51.8946C912.752 51.6456 925.752 52.6536 929.272 49.8466C932.052 51.2976 934.382 53.5696 937.232 54.9696C940.702 56.6716 944.902 57.3096 948.602 55.9946C950.972 55.1516 953.052 53.4796 954.112 51.1596C955.342 48.4836 954.982 45.7726 954.032 43.1016Z" fill="url(#paint1_linear_42_41)"/>
<path d="M892.562 98.1316L893.712 99.5218C892.792 101.416 890.222 102.36 888.322 103.012C876.312 107.156 823.03 103.938 806.074 103.938L709.835 104.516C707.735 103.237 695.982 103.39 692.731 103.238C692.962 102.726 692.896 102.169 692.889 101.619L690.698 100.901C693.791 100.844 697.302 101.124 700.337 100.677C713.376 100.77 727.33 101.779 740.268 100.691C765.743 101.69 791.095 100.664 816.568 100.761C836.722 100.838 856.952 102.276 877.092 101.091C881.832 100.812 888.552 100.935 892.562 98.1316Z" fill="#795A5A"/>
<path d="M954.032 43.1016L954.232 43.1976C958.302 45.1916 961.282 49.2516 965.442 50.7816L966.202 50.0756C966.032 48.7046 965.852 47.5746 965.242 46.3296C967.752 48.7956 967.952 50.6926 967.992 54.1646C968.032 58.2646 967.232 65.2216 964.312 68.3096C964.252 68.3686 964.202 68.4256 964.142 68.4836C961.932 73.7026 953.582 78.1736 948.562 80.2226C935.562 85.5376 920.462 84.3126 906.692 84.1866C906.992 87.0616 904.932 90.7256 903.152 92.9036C900.722 95.8806 897.512 98.6078 893.712 99.5218L892.562 98.1316C892.802 98.0186 893.042 97.9086 893.282 97.7736C899.032 94.5236 903.322 89.5756 905.102 83.1186C906.632 77.5556 910.482 56.4006 907.972 51.8946C912.752 51.6456 925.752 52.6536 929.272 49.8466C932.052 51.2976 934.382 53.5696 937.232 54.9696C940.702 56.6716 944.902 57.3096 948.602 55.9946C950.972 55.1516 953.052 53.4796 954.112 51.1596C955.342 48.4836 954.982 45.7726 954.032 43.1016Z" fill="#696470"/>
<path d="M11.7869 98.8177C34.8959 98.4067 58.4189 98.5727 81.5019 99.6517C89.4369 100.022 97.2069 101.92 105.178 102.015C122.36 102.22 139.545 101.296 156.73 101.128L265.427 100.665C303.404 101.241 341.469 100.314 379.456 100.237L511.852 100.783L579.696 100.698C588.637 100.689 601.597 99.6417 610.175 100.848C610.887 102.833 611.234 105.023 613.251 105.958C623.71 110.803 656.818 106.311 669.971 107.912C668.354 109.859 667.876 110.532 665.429 111.448C665.108 111.483 664.793 111.514 664.471 111.532C649.686 112.354 634.729 111.993 619.924 111.997C592.247 112.069 564.57 111.982 536.893 111.736L117.969 111.591C107.511 111.52 97.0532 111.564 86.5959 111.724C69.5819 112.129 52.1879 113 35.2449 111.04C25.2529 109.883 19.0579 105.271 11.7869 98.8177Z" fill="#795A5A"/>
<path d="M610.175 100.848C635.073 100.026 666.465 98.1547 690.698 100.901L692.889 101.619C692.896 102.169 692.962 102.726 692.731 103.238C687.199 106.477 676.432 107.857 669.971 107.912C656.818 106.311 623.71 110.803 613.251 105.958C611.234 105.023 610.887 102.833 610.175 100.848Z" fill="#8E7C82"/>
<path d="M476.024 81.6798C494.822 82.1978 630.019 80.5578 633.253 82.3038C633.25 82.3204 633.248 82.3368 633.245 82.3532C633.238 82.3973 633.232 82.4411 633.222 82.4848C632.578 85.3578 617.601 97.9978 614.448 100.023L520.851 100.165C497.976 100.237 475.093 100.758 452.218 100.239C452.648 100.072 453.068 99.8808 453.477 99.6668C456.273 98.1708 472.903 85.0028 473.621 82.5038L476.024 81.6798Z" fill="#3E2828"/>
<path d="M66.236 31.8672C70.024 26.7222 72.068 19.7202 78.216 16.6962C81.478 15.0922 84.555 15.5132 87.844 16.6512C84.034 19.1252 80.503 21.6172 77.493 25.0782L76.08 26.9472C74.6 38.6802 72.167 65.5782 79.742 75.2292C82.078 78.2052 85.172 80.9172 87.873 83.5892C94.505 84.0352 101.599 83.1682 108.256 82.9012C119.099 82.5025 129.946 82.2582 140.797 82.1682C176.446 81.9495 212.093 82.0622 247.739 82.5062L248.738 82.1432C262.609 82.5098 276.483 82.7675 290.358 82.9162C291.747 82.9932 293.182 83.0002 294.528 83.3742C291.664 87.5512 274.888 99.3162 269.955 100.259C268.487 100.539 266.919 100.588 265.427 100.665L156.73 101.128C139.545 101.296 122.36 102.22 105.178 102.015C97.2069 101.92 89.4369 100.022 81.5019 99.6517C58.4189 98.5727 34.8959 98.4067 11.7869 98.8177C5.78087 92.4057 3.581 80.6392 2.175 72.2202C1.794 70.4702 1.641 68.7052 1.47 66.9252C1.01867 63.2585 0.528667 59.5968 0 55.9402L0.677002 50.4052C0.821002 47.5062 1.13899 44.6002 1.38499 41.7082L1.668 35.2942C3.045 29.3272 4.55601 23.4222 6.75101 17.6992C25.876 22.8952 49.662 18.9472 69.521 18.8702C67.917 23.0682 66.507 27.3412 66.236 31.8672Z" fill="url(#paint2_linear_42_41)"/>
<path d="M0 55.9403L0.677002 50.4053C1.053 52.7523 1.176 55.4014 2.733 57.2964C9.306 62.0034 54.349 58.9254 64.282 58.2124L64.877 65.3764C45.833 70.3394 21.073 67.6543 1.47 66.9253C1.01867 63.2586 0.528667 59.5969 0 55.9403Z" fill="#696470"/>
<path d="M1.38499 41.7081C14.621 41.1731 54.17 38.2965 65.132 43.3595C64.7653 48.3055 64.482 53.2562 64.282 58.2122C54.349 58.9252 9.306 62.0032 2.733 57.2962C1.176 55.4012 1.053 52.7521 0.677002 50.4051C0.821002 47.5061 1.13899 44.6001 1.38499 41.7081Z" fill="#8E7C82"/>
<path d="M6.75103 17.6992C25.876 22.8952 49.662 18.9472 69.521 18.8702C67.917 23.0682 66.507 27.3412 66.236 31.8672L65.721 35.6332C65.587 37.9892 65.789 41.1326 65.132 43.3596C54.17 38.2966 14.621 41.1732 1.38501 41.7082L1.66802 35.2942C3.04502 29.3272 4.55603 23.4222 6.75103 17.6992Z" fill="#8E7C82"/>
<path d="M857.332 13.0012C870.512 12.9002 888.172 9.96711 898.412 19.9911C903.792 25.2531 908.032 36.0021 908.182 43.6061C908.192 44.3041 908.082 44.9551 907.922 45.6301C907.902 45.7101 907.892 45.7891 907.872 45.8691C907.842 46.0061 907.802 46.1411 907.762 46.2761C908.412 48.4721 908.922 49.6336 907.972 51.8946C910.482 56.4006 906.632 77.5556 905.102 83.1186C903.322 89.5756 899.032 94.5236 893.282 97.7736C893.042 97.9086 892.802 98.0186 892.562 98.1316C888.552 100.935 881.832 100.812 877.092 101.091C856.952 102.276 836.722 100.838 816.568 100.761C791.095 100.664 765.743 101.69 740.268 100.691L739.115 99.8992C740.282 95.6342 755.347 88.4311 756.138 82.4361L758.706 81.6551C773.012 82.4971 787.632 81.7471 801.963 81.5671C817.402 81.3731 832.812 81.6791 848.242 81.9071C863.582 82.1331 884.132 81.0442 895.752 69.6202C900.012 65.4342 902.542 59.8252 902.552 53.8202C902.562 46.3622 898.412 38.8941 893.242 33.7421C876.622 17.2071 845.552 21.4531 824.096 21.4091C826.573 19.4521 829.5 13.3761 829.5 13.3761L837.902 13.3581C837.902 13.3581 850.859 13.1852 857.332 13.0012Z" fill="#2A1C1D"/>
<path d="M857.332 13.0012C863.972 11.1352 877.392 12.421 884.942 12.25C903.262 11.836 922.302 9.62005 940.542 11.478C942.882 11.716 944.962 12.707 946.982 13.85C952.352 16.885 957.962 25.22 961.612 27.051C963.992 28.748 965.802 31.048 966.302 34.004C966.992 38.068 965.742 42.2936 965.242 46.3296C965.852 47.5746 966.032 48.7046 966.202 50.0756L965.442 50.7816C961.282 49.2516 958.302 45.1916 954.232 43.1976L954.032 43.1016C954.982 45.7726 955.342 48.4836 954.112 51.1596C953.052 53.4796 950.972 55.1516 948.602 55.9946C944.902 57.3096 940.702 56.6716 937.232 54.9696C934.382 53.5696 932.052 51.2976 929.272 49.8466C925.752 52.6536 912.752 51.6456 907.972 51.8946C908.922 49.6336 908.412 48.4721 907.762 46.2761C907.802 46.1411 907.842 46.0061 907.872 45.8691C907.892 45.7891 907.902 45.7101 907.922 45.6301C908.082 44.9551 908.192 44.3041 908.182 43.6061C908.032 36.0021 903.792 25.2531 898.412 19.9911C888.172 9.96716 870.512 12.9002 857.332 13.0012Z" fill="#D1AA91"/>
<path d="M907.622 33.3535C915.882 33.5275 924.132 34.6835 932.412 34.9605C932.622 38.0575 931.692 47.2395 929.632 49.5015C929.462 49.6905 929.442 49.6986 929.272 49.8466C925.752 52.6536 912.752 51.6456 907.972 51.8946C908.922 49.6336 908.412 48.4721 907.762 46.2761L908.982 47.1445C909.492 46.5665 909.612 46.4705 909.732 45.6955C910.252 42.0245 909.932 36.3905 907.622 33.3535Z" fill="#8E7C82"/>
<path d="M932.412 34.9604C938.082 33.8934 946.322 31.9858 951.472 35.5488C952.912 36.5418 953.952 38.1868 954.252 39.9128C954.345 40.4454 954.372 40.9814 954.332 41.5208C954.299 42.0601 954.199 42.5868 954.032 43.1015C954.982 45.7725 955.342 48.4835 954.112 51.1595C953.052 53.4795 950.972 55.1515 948.602 55.9945C944.902 57.3095 940.702 56.6715 937.232 54.9695C934.382 53.5695 932.052 51.2975 929.272 49.8465C929.442 49.6985 929.462 49.6904 929.632 49.5014C931.692 47.2394 932.622 38.0574 932.412 34.9604Z" fill="#2A1C1D"/>
<path d="M69.5211 18.8702C73.4371 16.1352 77.1849 13.7173 82.0289 13.2553C101.49 11.3993 121.295 12.5533 140.825 12.5693L242.901 12.5623C358.417 13.3576 473.933 13.4437 589.451 12.8203C581.961 17.0403 561.624 12.2973 558.084 17.5763C558.876 18.8013 559.168 18.8343 560.613 19.1373C562.741 19.5833 566.803 19.0813 568.498 20.1813C566.439 21.6093 552.378 20.7993 548.82 20.9833L405.365 21.4723C388.954 21.5436 372.543 21.456 356.134 21.2093C346.24 21.0263 336.219 21.1053 326.408 19.7023C306.712 15.7943 282.07 18.9633 261.693 18.9763L137.185 18.2623C121.266 18.2543 103.29 20.9582 87.8441 16.6512C84.5551 15.5132 81.4781 15.0922 78.2161 16.6962C72.0681 19.7202 70.0241 26.7222 66.2361 31.8672C66.5071 27.3412 67.9171 23.0682 69.5211 18.8702Z" fill="#613F3C"/>
<path d="M589.451 12.8203C617.532 12.499 645.614 12.4791 673.696 12.7598C683.131 12.9128 702.254 12.8435 702.254 12.8435L704 12.5L829.5 13.3761L828 16.5L824.096 21.4091L703.751 20.8148C703.751 20.8148 613.607 20.9803 568.498 20.1813C566.803 19.0813 562.741 19.5833 560.613 19.1373C559.168 18.8343 558.876 18.8013 558.084 17.5763C561.624 12.2973 581.961 17.0403 589.451 12.8203Z" fill="#3E2828"/>
<path d="M690.698 100.901C693.791 100.844 697.302 101.124 700.337 100.677C713.376 100.77 727.33 101.779 740.268 100.691L739.115 99.8993C740.282 95.6343 755.347 88.4312 756.138 82.4362C752.501 85.6492 718.208 78.9711 714.153 81.4881C713.398 81.9561 712.641 82.2301 711.77 82.4021C707.693 79.9571 646.684 82.2861 635.743 81.5871L633.253 82.3039L633.245 82.3533C633.238 82.3974 633.232 82.4412 633.222 82.4849C632.578 85.3579 617.601 97.9979 614.448 100.023L520.851 100.165C497.976 100.237 475.093 100.758 452.218 100.239C452.648 100.072 453.068 99.8809 453.477 99.6669C456.273 98.1709 472.903 85.0029 473.621 82.5039C459.765 81.9719 445.721 82.4731 431.852 82.6131C409.132 82.9011 386.411 83.037 363.689 83.0211L314.544 82.9391C306.62 82.8951 298.212 82.0663 290.358 82.9163C291.747 82.9933 293.182 83.0003 294.528 83.3743C291.664 87.5513 274.888 99.3163 269.955 100.259C268.487 100.539 266.919 100.588 265.427 100.665C303.404 101.241 341.469 100.314 379.456 100.237L511.852 100.783L579.696 100.698C588.637 100.689 601.597 99.6418 610.175 100.848C635.073 100.026 666.465 98.1547 690.698 100.901Z" fill="#3E2828"/>
</g>
<defs>
<linearGradient id="paint0_linear_42_41" x1="530.49" y1="32.7959" x2="530.395" y2="54.1887" gradientUnits="userSpaceOnUse">
<stop stop-color="#C8B0A4"/>
<stop offset="1" stop-color="#C7C4C3"/>
</linearGradient>
<linearGradient id="paint1_linear_42_41" x1="662.785" y1="-36.9209" x2="584.273" y2="247.423" gradientUnits="userSpaceOnUse">
<stop stop-color="#283B53"/>
<stop offset="1" stop-color="#6F6161"/>
</linearGradient>
<linearGradient id="paint2_linear_42_41" x1="733.641" y1="-11.0216" x2="579.145" y2="342.73" gradientUnits="userSpaceOnUse">
<stop stop-color="#3C1E34"/>
<stop offset="1" stop-color="#332F35"/>
</linearGradient>
<clipPath id="clip0_42_41">
<rect width="969" height="113" fill="white"/>
</clipPath>
</defs>
</svg>
