<svg width="1244" height="238" viewBox="0 0 1244 238" fill="none" xmlns="http://www.w3.org/2000/svg">
<path d="M70 10L23 118.5L85.5 225H1151.5L1216 118.5L1177.5 18.5L750.5 24L70 10Z" fill="#3E2828"/>
<path d="M64.3507 0.282432C85.0727 -0.296769 105.944 0.193131 126.68 0.200431L244.742 0.248031C363.7 -0.0460361 482.657 0.331033 601.612 1.37923L1026.12 0.909835C1036.05 0.828035 1046.01 0.427032 1055.94 0.602332C1068.32 0.821032 1082.5 2.26603 1094.76 0.142829L1096.35 0.116431C1106.11 0.628131 1116.11 0.512131 1125.81 1.41963C1133.84 0.949931 1141.86 1.79903 1149.83 0.146132C1157.69 0.288066 1165.53 0.470234 1173.38 0.692634C1177.06 1.35873 1182.48 1.88464 1184.85 5.12514C1185.6 6.14714 1186.08 7.16914 1185.9 8.44614C1191.03 19.3871 1220.64 66.4401 1220.89 73.8191C1228.75 81.8951 1243.64 104.835 1243.48 116.422C1243.45 118.691 1242.85 122.505 1241.15 124.136C1240.79 124.488 1240.35 124.751 1239.9 124.99C1240.01 124.707 1240.11 124.423 1240.2 124.136C1241.08 121.483 1241.86 117.479 1240.59 114.965C1234.23 112.848 1224.4 115.505 1219.44 114.549C1222.06 114.62 1224.64 114.735 1227.25 115.046C1223.19 115.832 1218.68 115.529 1214.54 115.579C1215.45 119.179 1212.1 124.477 1210.27 127.547C1208.15 131.111 1202.2 141.006 1198.26 142.001C1198.13 142.032 1198.01 142.053 1197.88 142.081C1197.77 142.106 1197.67 142.134 1197.56 142.159C1197.34 142.209 1197.13 142.241 1196.91 142.26C1202.02 138.571 1209.86 125.401 1212.32 119.308C1213.22 117.064 1214.21 114.141 1213.22 111.79C1213.27 111.212 1213.27 110.648 1213.17 110.073C1211.64 101.468 1172.67 34.3241 1165.87 29.7621C1084.27 30.7201 1002.66 30.7971 921.048 29.9931C914.277 33.4021 869.503 30.5471 858.906 30.4651C849.215 30.6585 839.524 30.7188 829.832 30.6461C824.224 28.7521 795.771 29.4071 787.891 29.2891C784.333 29.8561 780.091 29.5111 776.46 29.5681C764.21 29.7591 752.098 29.4391 739.857 29.2071C705.49 29.8865 671.12 30.1965 636.747 30.1371C561.023 30.5818 485.299 30.4811 409.576 29.8351C407.442 28.8091 401.806 29.2471 399.251 29.1171C407.08 28.4041 414.531 27.4341 422.446 27.4001C434.081 27.3511 445.702 28.5051 457.327 28.3551C457.39 28.0201 457.438 27.6581 457.388 27.3171C456.961 24.4541 453.245 17.5011 450.961 15.6831C436.634 14.6631 421.81 15.5371 407.408 15.2321C377.257 14.5941 347.107 13.3381 316.939 13.3371C303.564 13.3361 290.2 14.1581 276.825 14.1311C262.663 14.1031 248.483 13.2031 234.325 12.8251C226.38 12.6131 218.399 12.8291 210.467 12.3101L108.546 11.9871C91.7887 11.8831 74.8727 12.2581 58.1414 11.5391C59.8632 7.62713 62.1927 3.96523 64.3507 0.282432Z" fill="#D1AA91"/>
<path d="M1096.35 0.116431C1106.11 0.628131 1116.11 0.512131 1125.81 1.41963L1127.67 2.80334C1123.25 4.00684 1117.39 3.45404 1112.79 3.54124C1099.22 3.79884 1085.75 3.82633 1072.18 3.19583C1064.7 2.84853 1057.25 1.97193 1049.78 1.68573C1042.2 1.39573 1033.48 2.49983 1026.12 0.909835C1036.05 0.828035 1046.01 0.427032 1055.94 0.602332C1068.32 0.821032 1082.5 2.26603 1094.76 0.142829L1096.35 0.116431Z" fill="#A07664"/>
<path d="M210.467 12.3101C220.412 12.0151 230.35 12.3591 240.294 12.1851C256.66 11.8981 272.947 11.1921 289.324 11.4841C305.197 11.7681 320.975 13.0041 336.874 13.0191L616.328 12.7851L747.203 12.4761C760.193 12.4581 788.852 10.8901 799.523 12.8811L799.548 13.3931C801.329 13.5171 803.079 13.6501 804.84 13.9591L805.229 14.7151C806.511 16.5561 806.786 17.8551 806.37 20.0981C805.937 22.4391 804.885 25.3401 803.264 27.1101C798.31 28.9401 793.058 28.6481 787.859 28.6181L787.891 29.2891C784.333 29.8561 780.091 29.5111 776.46 29.5681C764.21 29.7591 752.098 29.4391 739.857 29.2071C705.49 29.8865 671.12 30.1965 636.747 30.1371C561.023 30.5818 485.299 30.4811 409.576 29.8351C407.442 28.8091 401.806 29.2471 399.251 29.1171C407.08 28.4041 414.531 27.4341 422.446 27.4001C434.081 27.3511 445.702 28.5051 457.327 28.3551C457.39 28.0201 457.438 27.6581 457.388 27.3171C456.961 24.4541 453.245 17.5011 450.961 15.6831C436.634 14.6631 421.81 15.5371 407.408 15.2321C377.257 14.5941 347.107 13.3381 316.939 13.3371C303.564 13.3361 290.2 14.1581 276.825 14.1311C262.663 14.1031 248.483 13.2031 234.325 12.8251C226.38 12.6131 218.399 12.8291 210.467 12.3101Z" fill="#C08C71"/>
<path d="M770.086 17.2581C779.837 15.6081 789.769 14.9081 799.548 13.3931C801.329 13.5171 803.079 13.6501 804.84 13.9591L805.229 14.7151C793.671 17.5341 781.911 18.5281 770.086 17.2581Z" fill="#A07664"/>
<path d="M739.857 29.2071C749.931 26.9411 778.89 25.6171 787.859 28.6181L787.891 29.2891C784.333 29.8561 780.091 29.5111 776.46 29.5681C764.21 29.7591 752.098 29.4391 739.857 29.2071Z" fill="#A07664"/>
<path d="M1149.83 0.146132C1157.69 0.288066 1165.53 0.470234 1173.38 0.692634C1177.06 1.35873 1182.48 1.88464 1184.85 5.12514C1185.6 6.14714 1186.08 7.16914 1185.9 8.44614C1191.03 19.3871 1220.64 66.4401 1220.89 73.8191C1228.75 81.8951 1243.64 104.835 1243.48 116.422C1243.45 118.691 1242.85 122.505 1241.15 124.136C1240.79 124.488 1240.35 124.751 1239.9 124.99C1240.01 124.707 1240.11 124.423 1240.2 124.136C1241.08 121.483 1241.86 117.479 1240.59 114.965C1234.23 112.848 1224.4 115.505 1219.44 114.549C1222.06 114.62 1224.64 114.735 1227.25 115.046C1223.19 115.832 1218.68 115.529 1214.54 115.579C1215.45 119.179 1212.1 124.477 1210.27 127.547C1208.15 131.111 1202.2 141.006 1198.26 142.001C1198.13 142.032 1198.01 142.053 1197.88 142.081C1197.77 142.106 1197.67 142.134 1197.56 142.159C1197.34 142.209 1197.13 142.241 1196.91 142.26C1202.02 138.571 1209.86 125.401 1212.32 119.308C1213.22 117.064 1214.21 114.141 1213.22 111.79C1213.27 111.212 1213.27 110.648 1213.17 110.073C1211.64 101.468 1172.67 34.3241 1165.87 29.7621C1084.27 30.7201 1002.66 30.7971 921.048 29.9931C914.277 33.4021 869.503 30.5471 858.906 30.4651C849.215 30.6585 839.524 30.7188 829.832 30.6461C824.224 28.7521 795.771 29.4071 787.891 29.2891L787.859 28.6181C793.058 28.6481 798.31 28.9401 803.264 27.1101C804.885 25.3401 805.937 22.4391 806.37 20.0981C806.786 17.8551 806.511 16.5561 805.229 14.7151L804.84 13.9591C803.079 13.6501 801.329 13.5171 799.548 13.3931L799.523 12.8811C824.993 12.4951 850.389 13.1231 875.853 13.3501C907.983 13.5208 940.112 13.5165 972.242 13.3371C1018.17 12.9801 1063.96 10.4191 1109.87 9.82813C1127.02 9.60713 1144.27 9.39913 1161.41 9.80313C1168.03 9.95813 1174.65 10.8821 1181.27 10.9581C1182.54 10.9721 1184.09 10.9611 1185.05 10.0191C1184.87 9.22113 1184.53 8.73814 1183.97 8.15614C1176.01 -0.147365 1156.23 2.62754 1145.7 2.87234C1139.69 2.98467 1133.68 2.96167 1127.67 2.80334L1125.81 1.41963C1133.84 0.949931 1141.86 1.79903 1149.83 0.146132Z" fill="url(#paint0_linear_92_33437)"/>
<path d="M858.906 30.4651C859.269 30.4011 859.637 30.3381 860.004 30.3061C868.196 29.5921 916.813 26.3911 921.048 29.9931C914.277 33.4021 869.503 30.5471 858.906 30.4651Z" fill="#795A5A"/>
<path d="M58.1414 11.5391C74.8727 12.2581 91.7887 11.8831 108.546 11.9871L210.467 12.3101C218.399 12.8291 226.38 12.6131 234.325 12.8251C248.483 13.2031 262.663 14.1031 276.825 14.1311C290.2 14.1581 303.564 13.3361 316.939 13.3371C347.107 13.3381 377.257 14.5941 407.408 15.2321C421.81 15.5371 436.634 14.6631 450.961 15.6831C453.245 17.5011 456.961 24.4541 457.388 27.3171C457.438 27.6581 457.39 28.0201 457.327 28.3551C445.702 28.5051 434.081 27.3511 422.446 27.4001C414.531 27.4341 407.08 28.4041 399.251 29.1171C401.806 29.2471 407.442 28.8091 409.576 29.8351C390.316 31.3531 370.309 30.6201 350.977 30.3381C329.787 30.0628 308.597 29.9308 287.405 29.9421C217.091 29.7831 146.658 30.7321 76.3577 29.5631C69.0517 40.3831 61.7507 51.3231 55.4028 62.7411C51.0312 70.6041 47.3807 78.8741 42.9568 86.6931C39.4121 92.9581 35.1156 98.7701 31.5472 105.025C29.6765 108.459 27.8599 111.921 26.0976 115.412C35.9358 142.365 53.0418 165.686 66.0957 190.971C67.6087 194.58 69.1897 199.246 72.1727 201.887L80.5997 217.892C112.93 216.626 145.595 217.219 177.959 216.964L354.326 215.677L848.082 215.395L997.592 215.926C1047.51 216.252 1097.39 216.994 1147.29 215.067C1155.57 210.962 1193.38 152.677 1196.91 142.26C1197.13 142.241 1197.34 142.209 1197.56 142.159C1197.67 142.134 1197.77 142.106 1197.88 142.081C1198.01 142.053 1198.13 142.032 1198.26 142.001C1202.2 141.006 1208.15 131.111 1210.27 127.547C1212.1 124.477 1215.45 119.179 1214.54 115.579C1218.68 115.529 1223.19 115.832 1227.25 115.046C1224.64 114.735 1222.06 114.62 1219.44 114.549C1224.4 115.505 1234.23 112.848 1240.59 114.965C1241.86 117.479 1241.08 121.483 1240.2 124.136C1240.11 124.423 1240.01 124.707 1239.9 124.99C1239.53 127.413 1233.32 136.979 1231.23 138.506C1230.59 138.977 1229.89 139.375 1229.13 139.616C1225.77 151.253 1216.37 161.543 1210.08 171.728C1203.66 182.118 1174.82 231.927 1166.75 236.491C1164.79 237.6 1162.33 237.377 1160.17 237.262C1151.47 238.245 1141.8 237.483 1133.02 237.468C1113.37 237.435 1093.7 237.165 1074.06 237.364C987.221 237.998 900.38 237.987 813.539 237.33L379.923 237.282C275.236 238.099 170.549 238.089 65.8627 237.254C56.3977 223.59 49.1346 207.538 41.391 192.826C36.1547 182.878 30.3885 173.241 25.0975 163.328C16.7609 147.709 8.8961 132.021 0 116.693C4.774 107.18 10.5601 98.0871 15.6004 88.7001C29.3608 62.7481 43.5411 37.0278 58.1414 11.5391Z" fill="url(#paint1_linear_92_33437)"/>
<path d="M1173.72 120.943C1180.31 120.744 1186.91 120.723 1193.5 120.62C1193.55 122.497 1192.74 123.813 1191.68 125.28C1184.68 134.915 1170.56 136.98 1159.97 140.437C1148.5 144.183 1138.13 147.8 1126.11 149.682C1120.84 150.757 1115.5 151.516 1110.19 152.331C1111.92 150.399 1112.82 148.037 1113.58 145.59C1115.62 138.998 1117.76 128.609 1114.45 122.337C1134.07 120.864 1154.03 121.392 1173.72 120.943Z" fill="#613F3C"/>
<path d="M47.3674 86.8271C73.1877 87.7401 99.2437 86.2361 125.023 87.8311C124.148 93.7921 122.883 99.9351 122.486 105.936C94.1927 108.088 65.5097 106.94 37.1792 106.073C39.1254 99.5481 42.9753 92.0391 47.3674 86.8271Z" fill="#613F3C"/>
<path d="M32.4519 116.966L120.134 116.813L129.47 117.647C129.998 121.304 130.488 124.965 130.94 128.632C131.111 130.412 131.264 132.177 131.645 133.927C128.647 134.394 125.64 134.786 122.623 135.103C110.302 135.705 97.9447 135.185 85.6147 135.082C71.602 135.031 57.5912 135.166 43.5822 135.487L32.4519 116.966Z" fill="#613F3C"/>
<path d="M66.0957 190.971L730.139 196.044C753.135 196.22 1019.09 197.089 1022.81 198.87C842.961 207.023 663.024 210.073 483.001 208.019C422.697 207.209 362.393 204.34 302.106 202.693C275.134 201.956 248.12 202.257 221.136 201.724C204.055 201.387 77.1887 198.907 72.1727 201.887C69.1897 199.246 67.6087 194.58 66.0957 190.971Z" fill="url(#paint2_linear_92_33437)"/>
<path d="M750.053 36.2991C751.105 36.8991 752.236 37.2631 753.447 37.3261C761.093 37.7251 769.057 37.0321 776.726 36.9281C790.574 36.8128 804.423 36.8135 818.272 36.9301L1018.21 39.3621C1033.29 39.6621 1048.36 39.8625 1063.44 39.9631C1082.81 39.9121 1102.04 39.4101 1121.39 40.7761C1133.95 39.7341 1146.82 39.9261 1159.42 40.2571C1166.96 45.3951 1192.06 93.6271 1194.1 103.64C1194.34 104.827 1194.24 106.049 1194.11 107.243C1186.45 108.454 1178.1 108.091 1170.33 108.351C1134.42 109.552 1128.17 102.983 1099.73 84.1861C1096.79 82.2471 1091.96 78.4981 1088.5 80.6711C1088.1 78.3601 1085.51 75.3321 1083.88 73.7151C1078.08 67.9681 1070.88 65.7991 1063 64.9021C1037.48 61.9991 1008.78 65.3401 982.892 65.2881L791.235 64.8221C786.944 67.4021 739.773 66.6261 732.808 65.5481C728.285 65.8331 723.469 65.3991 718.921 65.3061C712.695 65.5741 706.241 64.9581 700.004 64.7091C702.509 61.7571 707.645 61.4761 710.608 59.0841C711.786 58.1331 711.703 57.3781 711.89 55.9661C714.216 55.1555 716.55 54.3655 718.892 53.5961C725.022 51.5651 738.816 45.1051 741.641 39.4831C736.233 39.4811 721.465 38.9461 716.988 37.5851C724.463 35.6621 732.695 36.2531 740.315 36.8811C743.324 37.1291 746.714 37.9261 749.68 37.2861L750.053 36.2991Z" fill="#613F3C"/>
<path d="M750.053 36.2991C751.105 36.8991 752.236 37.2631 753.447 37.3261C761.093 37.7251 769.057 37.0321 776.726 36.9281C790.574 36.8128 804.423 36.8135 818.272 36.9301L1018.21 39.3621C1033.29 39.6621 1048.36 39.8625 1063.44 39.9631C1082.81 39.9121 1102.04 39.4101 1121.39 40.7761C1128.33 45.1701 1140.89 40.4341 1147.83 43.7811C1121.21 48.3851 1093.54 48.3231 1066.62 49.9661C1011.24 53.3471 955.897 53.3101 900.454 54.2911C870.492 54.8211 840.556 56.5921 810.602 57.1281C785.392 57.5791 760.08 55.5001 734.912 56.9981C728.175 57.3991 718.869 57.6691 713.431 62.0381L713.329 62.8221C714.822 63.9881 717.89 64.2081 718.921 65.3061C712.695 65.5741 706.241 64.9581 700.004 64.7091C702.509 61.7571 707.645 61.4761 710.608 59.0841C711.786 58.1331 711.703 57.3781 711.89 55.9661C714.216 55.1555 716.55 54.3655 718.892 53.5961C725.022 51.5651 738.816 45.1051 741.641 39.4831C736.233 39.4811 721.465 38.9461 716.988 37.5851C724.463 35.6621 732.695 36.2531 740.315 36.8811C743.324 37.1291 746.714 37.9261 749.68 37.2861L750.053 36.2991Z" fill="#795A5A"/>
<path d="M739.857 29.2071C752.098 29.4391 764.21 29.7591 776.46 29.5681C780.091 29.5111 784.333 29.8561 787.891 29.2891C795.771 29.4071 824.224 28.7521 829.832 30.6461C824.277 31.9061 817.074 31.1911 811.354 31.2371C800.471 31.3241 789.547 31.5531 778.667 31.3161C767.028 31.0631 755.924 30.1231 744.306 31.5951C746.003 32.5111 749.174 33.9591 749.958 35.8371C750.016 35.9771 750.031 36.1551 750.053 36.2991L749.68 37.2861C746.714 37.9261 743.324 37.1291 740.315 36.8811C732.695 36.2531 724.463 35.6621 716.988 37.5851C721.465 38.9461 736.233 39.4811 741.641 39.4831C738.816 45.1051 725.022 51.5651 718.892 53.5961C716.55 54.3655 714.216 55.1555 711.89 55.9661C711.703 57.3781 711.786 58.1331 710.608 59.0841C707.645 61.4761 702.509 61.7571 700.004 64.7091C657.451 66.2161 614.763 64.7921 572.169 64.9831L186.516 65.4971C180.649 65.4571 159.492 64.1511 155.674 65.1411C153.984 63.0801 151.373 62.6671 148.925 61.9461C145.333 62.9341 139.581 63.8481 136.665 66.1871C135.571 67.4405 134.531 68.7378 133.547 70.0791C132.563 71.4198 131.637 72.8001 130.769 74.2201C129.901 75.6395 129.094 77.0928 128.35 78.5801C127.604 80.0681 126.923 81.5848 126.307 83.1301L125.023 87.8311C99.2437 86.2361 73.1877 87.7401 47.3674 86.8271C42.9753 92.0391 39.1254 99.5481 37.1792 106.073L31.5472 105.025C35.1156 98.7701 39.4121 92.9581 42.9568 86.6931C47.3807 78.8741 51.0312 70.6041 55.4028 62.7411C61.7507 51.3231 69.0517 40.3831 76.3577 29.5631C146.658 30.7321 217.091 29.7831 287.405 29.9421C308.597 29.9308 329.787 30.0628 350.977 30.3381C370.309 30.6201 390.316 31.3531 409.576 29.8351C485.299 30.4811 561.023 30.5818 636.747 30.1371C671.12 30.1965 705.49 29.8865 739.857 29.2071Z" fill="url(#paint3_linear_92_33437)"/>
<path d="M60.9557 65.6611C64.785 65.3971 68.6174 65.1875 72.4527 65.0321C81.3757 64.6161 132.894 62.7491 136.665 66.1871C135.571 67.4405 134.531 68.7378 133.547 70.0791C132.563 71.4198 131.637 72.8001 130.769 74.2201C129.901 75.6395 129.094 77.0928 128.35 78.5801C127.604 80.0681 126.923 81.5848 126.307 83.1301C101.162 83.5731 75.3227 84.5791 50.2407 82.9021C52.9101 76.8561 56.4099 70.5031 60.9557 65.6611Z" fill="#613F3C"/>
<path d="M492.384 37.8591C572.99 37.2485 653.584 38.0221 734.164 40.1801C733.953 40.9291 733.662 41.5161 733.109 42.0701C727.88 47.3101 719.674 51.6031 712.418 52.7571C692.76 55.8831 672.288 55.1681 652.427 55.1901L305.382 55.3651C284.457 55.3961 263.488 55.0951 242.569 55.5001L165.636 57.3261C157.576 57.5781 149.528 58.3731 141.472 58.5401C131.908 58.7391 122.307 58.3591 112.737 58.3731C97.0987 58.3961 81.4667 58.7121 65.8277 58.5111C69.0567 52.0461 73.7447 46.1721 78.0047 40.3571C164.267 40.4058 250.528 39.9285 336.786 38.9251L420.289 38.2461C444.307 38.1681 468.374 38.4631 492.384 37.8591Z" fill="url(#paint4_linear_92_33437)"/>
<defs>
<linearGradient id="paint0_linear_92_33437" x1="677.242" y1="249.809" x2="646.1" y2="-41.4536" gradientUnits="userSpaceOnUse">
<stop stop-color="#674C4B"/>
<stop offset="1" stop-color="#A27A69"/>
</linearGradient>
<linearGradient id="paint1_linear_92_33437" x1="627.516" y1="263.418" x2="612.601" y2="-27.1348" gradientUnits="userSpaceOnUse">
<stop stop-color="#684841"/>
<stop offset="1" stop-color="#936B5F"/>
</linearGradient>
<linearGradient id="paint2_linear_92_33437" x1="597.262" y1="-82.1978" x2="646.887" y2="241.25" gradientUnits="userSpaceOnUse">
<stop stop-color="#56362C"/>
<stop offset="1" stop-color="#714F42"/>
</linearGradient>
<linearGradient id="paint3_linear_92_33437" x1="521.014" y1="-203.503" x2="730.009" y2="250.038" gradientUnits="userSpaceOnUse">
<stop stop-color="#442D2E"/>
<stop offset="1" stop-color="#86645A"/>
</linearGradient>
<linearGradient id="paint4_linear_92_33437" x1="146.321" y1="192.589" x2="650.022" y2="-100.873" gradientUnits="userSpaceOnUse">
<stop stop-color="#654F40"/>
<stop offset="1" stop-color="#A2756C"/>
</linearGradient>
</defs>
</svg>
