<svg width="219" height="342" viewBox="0 0 219 342" fill="none" xmlns="http://www.w3.org/2000/svg">
<path d="M31.6288 1.85313C35.1624 1.28816 38.7405 0.57069 42.2991 0.22168C46.6623 3.66521 56.9105 9.88139 59.8101 12.916C60.3433 14.6222 61.3678 16.8821 60.6877 18.5652L61.4835 19.8348C60.8141 20.9213 59.9805 21.2713 58.7548 21.5727C56.3414 22.1669 53.793 22.5021 51.3407 22.9411C48.1603 23.2543 44.9841 23.604 41.812 23.9902L37.5343 15.3171C35.8481 12.4017 31.0336 5.03004 31.6288 1.85313Z" fill="#634849"/>
<path d="M31.6279 1.85313C35.1615 1.28816 38.7396 0.57069 42.2983 0.22168C46.6615 3.66521 56.9097 9.88139 59.8092 12.916C60.3425 14.6222 61.367 16.8821 60.6869 18.5652C54.5654 12.4191 47.9562 7.60924 40.7912 2.77734L32.8587 2.51788L31.6279 1.85313Z" fill="#AB685C"/>
<path d="M37.5343 15.3175C35.8481 12.4021 31.0336 5.03043 31.6288 1.85352L32.8595 2.51827C38.9467 9.27996 45.6327 15.8958 51.3407 22.9415C48.1603 23.2547 44.9841 23.6044 41.812 23.9906L37.5343 15.3175Z" fill="#412B31"/>
<path d="M142.815 0.100547C148.934 -0.0192017 155.147 -0.100057 161.258 0.269424C165.168 4.22112 171.248 9.60468 173.029 14.9995C182.015 16.2415 211.589 21.2924 217.013 28.3842C218.001 29.6728 218.605 31.2561 218.287 32.8922C217.96 34.5712 216.588 37.5818 215.263 38.6196C211.23 38.5142 203.769 41.75 199.598 42.8098C195.341 43.8911 190.986 44.6782 186.667 45.4699C180.754 46.5534 174.811 47.437 168.837 48.1207C162.864 48.8044 156.874 49.2866 150.867 49.5674C113.769 51.2423 32.3375 47.218 1.43164 25.8695C12.5099 20.03 25.3742 17.7865 37.5327 15.3173L41.8104 23.9904C44.9825 23.6042 48.1588 23.2545 51.3391 22.9413C53.7914 22.5022 56.3399 22.167 58.7533 21.5729C59.9789 21.2715 60.8125 20.9214 61.4819 19.835L60.6861 18.5653C61.3662 16.8822 60.3417 14.6223 59.8085 12.9162C62.0433 13.4535 86.8691 10.8994 90.875 10.6881C109.362 9.71267 127.483 11.5304 145.902 11.4045C144.745 7.68308 143.466 3.95092 142.815 0.100547Z" fill="url(#paint0_linear_66_131)"/>
<path d="M206.896 33.4229C207.234 33.4884 207.541 33.6741 207.848 33.8184C204.727 36.1699 197.199 36.5819 193.289 37.2308C154.096 43.7437 113.783 42.9122 74.3252 39.2823C73.8032 39.3688 73.5662 39.3304 73.0586 39.2312L74.1174 38.8801L74.0703 39.2481C85.908 39.244 97.7432 39.7557 109.586 39.7716C126.323 39.7433 143.048 39.274 159.76 38.3638C175.491 37.568 191.411 36.3813 206.896 33.4229Z" fill="#F2AF7A"/>
<path d="M142.815 0.100547C148.934 -0.0192017 155.147 -0.100057 161.259 0.269424C165.168 4.22112 171.248 9.60468 173.029 14.9995C174.41 17.5715 176.243 20.2142 175.802 23.2606C174.943 24.4637 174.144 24.7452 172.686 24.9903C160.865 26.9784 126.33 23.3916 114.565 20.4424C124.831 16.6043 137.185 17.3121 147.998 17.2763C147.149 15.3859 146.554 13.3711 145.902 11.4045C144.745 7.68308 143.466 3.95092 142.815 0.100547Z" fill="#634849"/>
<path d="M142.815 0.100586C150.288 4.22116 155.62 16.7876 158.25 24.5175C154.606 22.8513 149.838 21.1134 147.999 17.2763C147.149 15.3859 146.554 13.3712 145.903 11.4045C144.746 7.68312 143.466 3.95096 142.815 0.100586Z" fill="#412B31"/>
<path d="M191.642 330.204C198.735 330.572 209.82 325.598 215.485 321.484L215.602 320.618L215.909 322.037C216.513 323.176 216.657 323.39 216.564 324.66C216.094 325.552 215.556 326.198 214.743 326.783C208.382 331.353 196.458 333.662 188.756 335.169C141.065 344.508 79.0288 343.669 31.1156 335.41C23.3273 334.067 5.61684 331.142 0.87757 324.202C-0.013891 322.896 -0.162834 321.932 0.148307 320.396C16.5139 333.036 38.2263 333.878 58.0805 335.651C61.9047 335.6 65.9486 336.4 69.7728 336.753C104.569 339.967 139.462 338.196 174.054 333.776C178.583 333.197 188.152 333.099 191.642 330.204Z" fill="url(#paint1_linear_66_131)"/>
<path d="M5.18946 301.291C6.56844 300.659 7.98357 300.122 9.43488 299.682C10.8862 299.241 12.3605 298.9 13.8579 298.659C11.9818 300.655 9.93383 301.403 10.0091 304.446C11.1144 306.809 13.1742 307.825 15.5308 308.671C34.8241 315.596 58.5496 317.083 78.935 318.667C83.0449 318.987 95.5366 318.962 98.8624 320.202C115.397 321.09 131.831 319.774 148.287 318.39C153.731 316.076 160.384 316.266 166.172 315.324C177.047 313.554 188.971 311.294 199.298 307.47C201.856 306.521 206.094 304.952 207.204 302.23C207.654 301.132 207.429 300.887 207.02 299.836C210.008 300.468 212.813 301.094 214.563 303.826C216.85 307.391 217.05 315.221 216.16 319.234C216.052 319.711 215.827 320.185 215.602 320.617L215.484 321.484C209.819 325.597 198.735 330.571 191.642 330.203C188.152 333.099 178.582 333.197 174.053 333.776C139.462 338.196 104.568 339.967 69.7722 336.753C65.948 336.399 61.9041 335.6 58.0799 335.65C38.2257 333.878 16.5133 333.036 0.147715 320.396L0.078125 320.095C0.5781 318.173 0.725484 316.358 0.81504 314.378L0.670736 306.409C0.689159 306.27 0.702469 306.131 0.726521 305.994C1.13285 303.657 3.35997 302.448 5.18946 301.291Z" fill="#634849"/>
<path d="M80.9229 321.829C86.9423 321.189 92.9768 320.759 99.0263 320.541C100.109 321.043 100.047 321.5 100.852 322.102C103.167 323.834 125.21 321.472 130.791 322.991C122.78 324.704 89.6128 323.84 80.9229 321.829Z" fill="#E88F70"/>
<path d="M197.353 313.505C192.614 318.727 143.839 322.472 134.812 322.914C133.473 322.993 132.132 323.019 130.791 322.992C125.21 321.473 103.167 323.834 100.851 322.103C100.047 321.5 100.108 321.043 99.0261 320.541L98.8623 320.203C115.397 321.09 131.831 319.774 148.287 318.39C159.504 318.279 170.43 316.993 181.55 315.693C186.821 315.076 192.179 314.762 197.353 313.505Z" fill="url(#paint2_linear_66_131)"/>
<path d="M0.670736 306.409C15.4008 319.643 67.8 321.294 69.0256 322.563C68.3532 323.149 67.5912 323.398 66.7678 323.714C63.7976 324.395 59.8976 325.503 58.2728 328.354C56.8936 330.774 57.4233 333.111 58.0799 335.651C38.2257 333.879 16.5133 333.036 0.147715 320.397L0.078125 320.095C0.5781 318.174 0.725484 316.359 0.81504 314.379L0.670736 306.409Z" fill="#412B31"/>
<path d="M196.929 319.736C196.959 321.187 193.74 328.126 192.625 329.318C192.374 329.588 192.103 329.812 191.821 330.046C191.76 330.097 191.704 330.151 191.642 330.204C188.152 333.099 178.582 333.197 174.054 333.776C139.462 338.196 104.569 339.967 69.7726 336.753C65.9483 336.4 61.9045 335.6 58.0802 335.651C57.4237 333.111 56.894 330.774 58.2732 328.354C59.898 325.503 63.798 324.395 66.7681 323.714C72.995 326.173 81.9731 325.124 88.656 325.462C119.321 327.013 150.255 328.672 180.696 323.512C186.003 322.612 191.898 321.718 196.929 319.736Z" fill="#6D422B"/>
<path d="M1.43328 25.8701C32.3391 47.2186 113.771 51.243 150.869 49.568C156.875 49.2872 162.865 48.805 168.839 48.1213C174.813 47.4376 180.756 46.554 186.668 45.4705C190.987 44.6788 195.342 43.8917 199.6 42.8104C203.771 41.7506 211.232 38.5148 215.265 38.6203C215.009 39.8607 214.804 40.112 213.724 40.8305C209.467 43.6722 202.287 45.7499 197.328 46.9377C198.443 48.3613 199.247 50.2625 199.871 51.9563L199.713 52.792C200.864 55.3559 202.466 58.348 201.749 61.244C203.924 63.4194 203.95 67.345 203.945 70.2707C203.94 72.2532 204.062 74.5279 203.566 76.4526C204.513 79.4734 204.83 88.1521 203.407 91.044C204.984 94.336 204.129 105.731 202.865 109.233C202.727 109.615 202.481 109.967 202.246 110.293L202.138 110.448C203.08 114.628 193.705 154.733 191.561 158.207C191.315 158.598 191.008 158.925 190.665 159.227C192.881 162.566 192.963 169.697 192.047 173.549C192.026 173.634 191.996 173.716 191.97 173.799C192.942 174.866 193.664 176.162 193.597 177.652C193.582 178.025 193.515 178.393 193.444 178.759C198.142 183.882 203.883 219.304 203.612 227.124C203.597 227.574 203.525 228.027 203.448 228.469C205.193 232.252 204.707 246.543 203.295 250.552C203.152 250.961 202.967 251.171 202.696 251.499C203.29 253.591 202.476 262.993 201.355 264.84C201.217 265.07 201.012 265.249 200.823 265.437C202.128 268.797 198.822 281.606 197.297 285.011C197.077 285.505 196.806 285.974 196.535 286.444C197.236 289.532 194.651 295.49 197.082 297.549C199.6 297.785 205.332 298.036 207.02 299.837C207.43 300.888 207.655 301.133 207.205 302.231C206.094 304.953 201.857 306.522 199.298 307.471C188.971 311.295 177.047 313.555 166.173 315.325C160.385 316.267 153.731 316.077 148.287 318.391C131.832 319.775 115.397 321.091 98.8629 320.203C95.5371 318.963 83.0454 318.988 78.9356 318.668C58.5502 317.084 34.8247 315.597 15.5314 308.672C13.1748 307.826 11.115 306.81 10.0096 304.447C9.93438 301.404 11.9824 300.656 13.8584 298.66L15.5943 298.087C10.6994 288.17 6.3752 276.885 4.24532 265.981C1.50748 253.032 0.0525693 238.364 1.20348 225.18C4.14704 208.866 12.2664 197.795 20.4917 183.89L21.8233 181.601C23.0325 179.398 24.2812 176.918 24.622 174.404C24.8124 172.997 24.7126 171.592 23.8119 170.445C23.0939 168.92 21.7629 167.738 20.616 166.53C21.7818 164.713 22.9624 162.895 24.0483 161.029C24.8241 159.697 25.9228 158.012 25.494 156.431L24.1824 153.355C21.0418 144.558 16.5559 136.303 13.4905 127.506C4.1752 100.773 5.5953 72.0725 13.8963 45.3359C11.8992 44.4994 9.86735 43.758 7.80092 43.1118C5.73449 42.4657 3.6423 41.9176 1.52436 41.4676C1.60487 36.2679 1.57452 31.0688 1.43328 25.8701ZM173.245 51.6508C170.645 51.9901 168.102 52.2434 165.477 52.3227C150.721 52.7367 136.008 54.0867 121.224 54.3267C110.08 54.5079 98.9351 53.5596 87.8241 53.7198L73.4343 53.008C65.6593 62.1861 60.4856 71.8525 57.931 83.6262C57.9525 87.7263 58.1265 91.8899 57.9269 95.9828L57.6664 96.2438C59.0855 102.167 60.1658 108.607 62.9799 114.045L54.7454 111.074C55.667 113.87 56.5493 116.682 57.6782 119.404L57.9115 119.547L61.549 125.966L62.7066 127.066C66.3569 132.172 71.2783 136.107 74.9777 141.097C75.6901 142.246 76.3886 143.25 77.3031 144.253L77.0749 144.73L75.5739 144.981C78.212 147.721 81.4124 149.404 84.3805 151.713C93.5316 156.411 101.56 164.016 104.75 174.014C108.177 184.754 105.731 208.144 106.436 220.631C107.347 221.742 108.158 222.296 109.399 222.948C110.142 224.259 114.789 226.184 116.23 227.163L116.326 224.774C123.288 229.605 128.125 234.625 132.508 241.88C139.833 242.116 146.889 242.873 154.121 244.08C156.778 244.635 159.628 245.036 162.156 246.032C162.498 257.357 161.726 267.743 157.166 278.264C155.545 282.003 153.457 285.595 151.966 289.375C157.196 288.643 162.478 288.383 167.749 288.282L168.056 288.145L169.985 287.913L172.57 288.337L173.511 287.488C174.468 288.108 174.852 288.261 175.389 289.295C175.906 289.077 176.408 288.822 176.853 288.477C179.509 286.422 184.048 279.781 184.411 276.449C186.464 274.106 189.734 266.49 189.524 263.276C189.713 263.026 189.739 263.011 189.902 262.682C192.369 257.672 193.162 243.265 191.294 238.001C191.335 237.747 191.381 237.493 191.407 237.237C191.821 233.167 189.119 227.433 186.658 224.296C187.057 223.843 187.584 223.174 187.584 222.555C187.579 217.483 175.19 174.01 172.176 171.05C173.163 167.36 167.207 158.913 165.456 155.385C168.916 151.295 173.66 149.292 176.121 144.238C177.938 140.51 182.799 126.915 181.617 123.443C182.349 120.854 182.226 118.046 182.114 115.386C181.387 116.687 180.66 117.204 179.427 117.941C179.622 117.704 179.637 117.694 179.836 117.397C181.643 114.743 184.498 109.783 183.843 106.444C184.381 105.82 184.693 105.188 184.887 104.388C185.732 100.912 186.044 95.0233 184.222 91.8438C185.573 88.0395 184.555 83.3468 183.879 79.4509C182.779 73.1283 178.434 55.3252 173.245 51.6508ZM44.4434 50.3356C36.9678 59.9785 28.4683 70.2395 29.9651 83.3442C29.9996 83.6595 30.0475 83.9725 30.1089 84.2833C28.609 92.2102 29.1074 102.266 29.7287 110.273C30.5895 117.571 31.9133 124.385 34.0325 131.444C35.6755 136.856 37.4757 142.216 39.4329 147.522C42.5843 156.235 48.846 168.697 45.2955 177.927C42.6958 184.684 38.6822 190.574 35.1307 196.828C33.954 198.901 32.8635 201.019 31.8591 203.181C30.8547 205.343 29.9399 207.543 29.1146 209.78C28.2893 212.016 27.5563 214.283 26.9156 216.579C26.2746 218.876 25.728 221.194 25.276 223.535C25.2033 226.67 24.4634 230.403 25.1946 233.438C22.7296 243.296 20.2752 254.436 25.7371 263.94L29.0235 262.583L29.24 262.795L34.9695 260.512L35.256 260.581C42.2501 257.424 49.9032 255.2 57.2048 252.862L57.498 252.679C65.9511 250.092 70.938 244.295 78.8204 241.925C81.9047 240.998 85.3395 240.842 88.5349 240.519C88.9856 239.109 89.5057 237.725 90.0952 236.366C90.6844 235.008 91.3401 233.683 92.0623 232.391C95.0642 227.087 98.5932 224.138 104.448 222.514C104.926 222.433 105.407 222.195 105.861 222.021L106.436 220.631C105.731 208.144 108.177 184.754 104.75 174.014C101.56 164.016 93.5316 156.411 84.3805 151.713C81.4124 149.404 78.212 147.721 75.5739 144.981L77.0749 144.73L77.3031 144.253C76.3886 143.25 75.6901 142.246 74.9777 141.097C71.2783 136.107 66.3569 132.172 62.7066 127.066L61.549 125.966L57.9115 119.547L57.6782 119.404C56.5493 116.682 55.667 113.87 54.7454 111.074L62.9799 114.045C60.1658 108.607 59.0855 102.167 57.6664 96.2438L57.9269 95.9828C58.1265 91.8899 57.9525 87.7263 57.931 83.6262C60.4856 71.8525 65.6593 62.1861 73.4343 53.008C67.0953 52.0705 60.5608 51.8264 54.165 51.4722L44.4434 50.3356Z" fill="#412B31"/>
<path d="M183.842 106.443C185.429 108.727 184.446 113.648 183.955 116.349C183.556 118.542 183.202 121.775 181.616 123.441C182.348 120.853 182.225 118.045 182.112 115.385C181.386 116.686 180.659 117.203 179.426 117.94C179.62 117.703 179.636 117.693 179.835 117.396C181.642 114.742 184.497 109.781 183.842 106.443Z" fill="#5396B3"/>
<path d="M173.511 287.487C174.468 288.108 174.851 288.261 175.389 289.295C175.547 291.797 173.418 293.841 171.878 295.589C171.499 296.02 171.121 296.444 170.722 296.858L168.644 299.222C172.697 300.704 183.449 299.867 188.28 300.149C191.12 300.645 194.922 300.996 197.256 302.75L197.583 303.365C196.421 305.542 192.338 306.491 190.03 307.195C182.077 309.618 173.695 309.029 165.773 311.101C129.906 315.217 63.3287 317.113 29.0039 305.673C34.5563 304.243 40.0356 304.349 45.6561 303.575C47.4513 303.461 49.1651 303.362 50.9061 302.882C52.7248 303.655 54.825 303.745 56.7753 303.967C60.0868 304.356 63.4019 304.862 66.7431 304.698C71.8242 306.146 77.0241 306.12 82.2597 306.277C88.5445 308.395 131.061 307.747 138.361 306.352C140.817 303.326 143.311 300.332 145.843 297.37C147.587 294.956 149.401 292.587 151.183 290.201L151.965 289.375C157.195 288.642 162.477 288.383 167.748 288.282L168.055 288.144L169.985 287.913L172.569 288.336L173.511 287.487Z" fill="url(#paint3_linear_66_131)"/>
<path d="M138.361 306.352C140.817 303.326 143.311 300.332 145.843 297.37C150.881 297.652 155.871 297.846 160.922 297.798C159.115 299.905 157.332 302.021 155.399 304.011C149.935 306.111 144.124 305.992 138.361 306.352Z" fill="#5396B3"/>
<path d="M173.511 287.487C174.468 288.108 174.852 288.261 175.389 289.295C175.548 291.797 173.419 293.841 171.879 295.589C171.5 296.02 171.121 296.444 170.722 296.858L168.644 299.222C166.05 301.296 163.875 302.633 160.497 302.883C158.801 303.273 157.102 303.65 155.399 304.012C157.333 302.021 159.116 299.905 160.922 297.798C163.45 294.97 165.559 291.399 167.749 288.282L168.056 288.144L169.985 287.913L172.569 288.336L173.511 287.487Z" fill="#634849"/>
<path d="M173.51 287.487C174.467 288.108 174.851 288.261 175.388 289.295C175.547 291.797 173.418 293.841 171.877 295.589C171.499 296.02 171.12 296.444 170.721 296.858L168.643 299.222C166.049 301.296 163.874 302.633 160.496 302.883L164.549 298.858C166.857 296.55 172.568 291.602 172.568 288.336L173.51 287.487Z" fill="#77C1DD"/>
<path d="M151.966 289.374C157.196 288.642 162.478 288.383 167.749 288.281C165.559 291.399 163.45 294.97 160.922 297.798C155.871 297.846 150.882 297.652 145.844 297.37C147.587 294.956 149.401 292.587 151.183 290.201L151.966 289.374Z" fill="#BDA0B1"/>
<path d="M19.7484 92.5913C20.1644 86.3173 20.1225 78.7879 22.6438 72.9658C24.33 85.8966 24.5987 101.178 28.9526 113.424L29.2873 113.569L29.7284 110.274C30.5892 117.572 31.9131 124.385 34.0322 131.445C35.6752 136.857 37.4754 142.216 39.4327 147.523C42.584 156.235 48.8457 168.698 45.2952 177.927C42.6956 184.684 38.6819 190.575 35.1304 196.828C33.9537 198.902 32.8632 201.02 31.8588 203.181C30.8544 205.344 29.9396 207.543 29.1143 209.78C28.2891 212.017 27.5561 214.283 26.9154 216.579C26.2743 218.876 25.7278 221.195 25.2757 223.536C24.4303 227.988 23.9099 232.501 22.9852 236.934C21.7125 243.035 19.8784 249.252 19.2535 255.454C16.4302 267.756 22.3066 281.949 27.2485 292.904C22.2078 289.379 17.7725 285.371 14.1924 280.338C11.1572 276.072 8.97151 271.351 7.17631 266.448C-1.41027 242.991 8.69364 221.208 21.0052 201.168C26.2465 192.635 33.6868 183.027 34.8745 172.813C36.7926 156.325 19.8574 140.506 17.3345 124.092C15.7603 113.849 18.0535 102.712 19.7484 92.5913Z" fill="#634849"/>
<path d="M19.7475 92.5913C20.1635 86.3173 20.1216 78.7879 22.6429 72.9658C24.3291 85.8966 24.5978 101.178 28.9517 113.424L29.2864 113.569L29.7275 110.274C30.5883 117.572 31.9122 124.385 34.0313 131.445C35.6743 136.857 37.4745 142.216 39.4318 147.523C42.5831 156.235 48.8448 168.698 45.2943 177.927C42.6946 184.684 38.681 190.575 35.1295 196.828C33.9528 198.902 32.8623 201.02 31.8579 203.181C30.8535 205.344 29.9387 207.543 29.1134 209.78C28.2882 212.017 27.5552 214.283 26.9145 216.579C26.2734 218.876 25.7269 221.195 25.2748 223.536C24.4294 227.988 23.909 232.501 22.9843 236.934C21.7115 243.035 19.8775 249.252 19.2526 255.454L18.8601 255.407C17.5817 253.225 17.5715 248.934 17.4574 246.353C16.7998 231.447 20.1768 212.778 27.4528 199.661C32.8077 190.007 43.5359 181.691 43.9223 170.019C44.0257 166.912 43.4331 163.786 42.3733 160.871C40.6431 156.114 37.7297 151.606 35.4923 147.058C32.1926 140.352 29.3381 133.195 26.8715 126.147C23.0032 115.095 20.8672 104.206 19.7475 92.5913Z" fill="#AB685C"/>
<path d="M199.711 52.791C200.863 55.3549 202.465 58.347 201.748 61.243C203.923 63.4184 203.949 67.344 203.944 70.2697C203.938 72.2522 204.061 74.5269 203.565 76.4516C204.512 79.4724 204.829 88.1511 203.406 91.043C204.982 94.335 204.128 105.73 202.864 109.232C202.726 109.614 202.48 109.966 202.245 110.292L202.137 110.447C203.079 114.627 193.704 154.732 191.559 158.206C191.314 158.597 191.007 158.924 190.664 159.226C192.88 162.565 192.961 169.696 192.045 173.548C192.025 173.633 191.994 173.715 191.969 173.798C192.941 174.865 193.663 176.161 193.596 177.651C193.581 178.024 193.514 178.392 193.443 178.758C198.14 183.881 203.882 219.303 203.611 227.123C203.596 227.573 203.524 228.026 203.447 228.468C205.192 232.251 204.706 246.542 203.294 250.551C203.15 250.96 202.966 251.17 202.695 251.498C203.289 253.59 202.475 262.992 201.354 264.839C201.216 265.069 201.011 265.248 200.822 265.436C202.127 268.796 198.821 281.605 197.296 285.01C197.076 285.504 196.805 285.973 196.533 286.443C197.235 289.531 194.65 295.489 197.081 297.548C197.071 297.639 197.055 297.729 197.045 297.82C196.748 300.643 198.667 303.935 196.134 305.968C190.198 310.736 173.198 311.225 165.772 311.101C173.694 309.028 182.077 309.617 190.029 307.194C192.337 306.491 196.421 305.541 197.583 303.365L197.255 302.749C194.921 300.996 191.119 300.644 188.279 300.149C183.448 299.866 172.696 300.704 168.643 299.222L170.721 296.857C171.12 296.443 171.499 296.02 171.878 295.589C173.418 293.84 175.547 291.797 175.388 289.294C175.905 289.076 176.407 288.821 176.852 288.476C179.508 286.421 184.047 279.78 184.41 276.448C186.462 274.105 189.732 266.489 189.523 263.275C189.712 263.025 189.738 263.01 189.901 262.681C192.368 257.671 193.161 243.264 191.293 238L192.358 237.275C192.501 236.792 192.619 236.304 192.68 235.802C193.422 229.432 191.089 222.684 190.331 216.43C189.881 212.674 191.017 208.76 190.597 204.969C188.975 190.394 184.241 176.714 180.245 162.719C179.226 159.14 178.341 152.561 176.064 149.715C176.504 149.451 176.918 149.148 177.266 148.768C187.25 137.852 190.464 108.094 189.942 93.7736C189.681 86.577 187.829 66.233 182.491 61.2737C186.084 59.3987 197.634 56.7826 199.573 54.4731C200.029 53.9286 199.793 53.4578 199.711 52.791Z" fill="#634849"/>
<path d="M191.979 66.2537C194.578 65.4533 200.371 63.5992 201.748 61.2432C203.923 63.4186 203.948 67.3442 203.943 70.2698C203.938 72.2523 204.061 74.527 203.564 76.4517L203.242 76.3893L203.186 76.6073C201.845 81.5953 198.718 85.8223 197.07 90.6757C195.924 94.0399 196.293 98.8892 194.374 101.603C194.578 100.98 194.711 100.392 194.783 99.7413C195.377 94.3807 194.855 69.8876 191.979 66.2537Z" fill="#AB685C"/>
<path d="M194.374 101.603C196.293 98.8896 195.925 94.0403 197.071 90.676C198.719 85.8226 201.846 81.5956 203.187 76.6076L203.243 76.3896L203.565 76.4521C204.512 79.4729 204.829 88.1516 203.407 91.0435C204.983 94.3355 204.128 105.731 202.864 109.233C202.726 109.615 202.48 109.967 202.245 110.293L202.137 110.447C201.733 111.633 201.406 111.712 200.418 112.424C200.618 111.287 200.797 110.88 200.377 109.781L197.992 108.732C197.982 110.72 197.941 115.521 196.319 116.89C196.007 117.154 195.654 117.363 195.285 117.545C195.403 115.578 196.273 114.086 196.585 112.227C196.744 111.294 196.713 111.065 196.16 110.328C194.917 110.994 194.799 112.011 193.453 112.741C195.649 109.326 194.927 105.378 194.374 101.603Z" fill="#F2AF7A"/>
<path d="M197.993 108.732C197.921 108.392 197.88 108.262 197.865 107.934C197.706 104.861 200.465 91.3022 202.384 89.1043L202.517 89.1401L202.798 88.9492C202.998 89.5608 203.392 90.4169 203.407 91.0433C204.983 94.3353 204.129 105.73 202.865 109.233C202.727 109.615 202.481 109.967 202.246 110.293L202.138 110.447C201.734 111.632 201.406 111.712 200.419 112.423C200.618 111.286 200.797 110.88 200.378 109.78L197.993 108.732Z" fill="#F8C279"/>
<path d="M189.524 263.276L190.506 264.029C190.419 266.809 189.493 269.501 189.109 272.257C188.168 279.057 188.055 291.338 185.302 297.201C186.53 297.81 187.999 298.295 188.659 299.554L188.28 300.149C183.449 299.867 172.698 300.704 168.645 299.222L170.722 296.858C171.121 296.444 171.5 296.02 171.879 295.589C173.419 293.84 175.548 291.797 175.389 289.295C175.906 289.076 176.408 288.821 176.853 288.477C179.509 286.422 184.048 279.78 184.411 276.448C186.464 274.105 189.734 266.49 189.524 263.276Z" fill="#412B31"/>
<path d="M184.411 276.448L185.414 277.166C185.859 280.871 182.016 293.37 179.636 296.258C179.472 296.454 179.38 296.527 179.186 296.71C176.525 297.047 173.383 297.335 170.722 296.858C171.121 296.444 171.5 296.02 171.878 295.589C173.419 293.84 175.547 291.797 175.389 289.295C175.906 289.076 176.407 288.821 176.852 288.477C179.508 286.422 184.048 279.78 184.411 276.448Z" fill="#1D1419"/>
<path d="M197.993 108.732L200.378 109.78C200.798 110.88 200.619 111.287 200.419 112.424C201.407 111.712 201.734 111.632 202.138 110.447C203.08 114.628 193.705 154.733 191.561 158.206C191.315 158.597 191.008 158.925 190.665 159.226C188.454 156.094 185.179 153.517 181.72 151.909C181.996 151.647 182.201 151.454 182.395 151.125C186.167 144.789 195.291 119.263 193.454 112.741C194.8 112.011 194.918 110.994 196.161 110.328C196.714 111.065 196.745 111.294 196.586 112.227C196.274 114.086 195.404 115.578 195.286 117.545C195.655 117.363 196.008 117.154 196.32 116.89C197.942 115.521 197.983 110.72 197.993 108.732Z" fill="#AB685C"/>
<path d="M197.993 108.732L200.377 109.78C200.797 110.88 200.618 111.287 200.418 112.424C200.72 120.114 197.286 136.546 192.026 142.195C191.744 142.501 191.447 142.789 191.146 143.079C193.633 139.14 195.915 122.34 195.286 117.545C195.654 117.363 196.007 117.154 196.319 116.89C197.941 115.521 197.982 110.72 197.993 108.732Z" fill="url(#paint4_linear_66_131)"/>
<path d="M192.676 292.034C195.511 287.287 193.315 277.539 193.392 272.052C193.505 263.767 195.577 255.563 195.777 247.239C195.956 239.863 195.265 232.751 194.677 225.433C194.344 221.294 194.313 217.135 193.909 213C193.198 205.764 192.016 198.544 191.054 191.336C190.455 186.842 189.385 181.676 190.137 177.179C190.368 175.795 190.808 174.617 191.97 173.799C192.942 174.865 193.663 176.162 193.597 177.652C193.582 178.024 193.515 178.393 193.443 178.758C198.141 183.882 203.883 219.304 203.612 227.124C203.596 227.573 203.525 228.027 203.448 228.469C205.193 232.252 204.707 246.542 203.294 250.551C203.151 250.96 202.967 251.171 202.696 251.498C203.289 253.591 202.476 262.993 201.355 264.839C201.217 265.07 201.012 265.249 200.823 265.437C202.128 268.796 198.822 281.605 197.297 285.01C197.077 285.505 196.806 285.974 196.534 286.443C195.746 288.852 194.528 290.352 192.676 292.034Z" fill="#94623E"/>
<path d="M196.687 210.64C197.915 203.105 190.751 185.704 193.443 178.758C198.141 183.881 203.882 219.303 203.611 227.123C203.596 227.573 203.524 228.027 203.447 228.468C205.192 232.252 204.706 246.542 203.294 250.551C203.151 250.96 202.966 251.17 202.695 251.498C203.289 253.59 202.475 262.993 201.354 264.839C201.216 265.069 201.012 265.248 200.822 265.436C200.832 265.581 200.843 265.725 200.843 265.87C200.94 268.898 199.297 274.387 197.255 276.519C197.477 275.892 197.677 275.259 197.854 274.618C198.77 271.254 199.456 265.133 197.695 262.045C198.811 258.923 198.791 229.775 198.535 224.868C198.299 220.25 198.11 215.068 196.687 210.64Z" fill="#F8C279"/>
<path d="M196.688 210.641C198.014 211.515 198.162 212.058 198.505 213.606C200.368 221.948 201.407 253.498 198.797 260.996L197.697 262.046C198.812 258.924 198.792 229.775 198.536 224.868C198.3 220.25 198.111 215.069 196.688 210.641Z" fill="#E88F70"/>
<path d="M106.435 220.63C107.347 221.742 108.158 222.296 109.398 222.948C110.142 224.259 114.788 226.183 116.229 227.163L116.326 224.774C123.287 229.605 128.124 234.625 132.508 241.88C139.832 242.115 146.888 242.873 154.12 244.08C156.778 244.634 159.627 245.036 162.155 246.032C162.498 257.357 161.725 267.743 157.165 278.264C155.545 282.002 153.457 285.595 151.965 289.375L151.183 290.201C149.401 292.587 147.587 294.956 145.843 297.37C143.311 300.332 140.817 303.326 138.362 306.352C131.061 307.747 88.5446 308.395 82.2599 306.277C77.0242 306.121 71.8244 306.146 66.7433 304.698C63.4021 304.862 60.087 304.357 56.7755 303.967C54.8252 303.745 52.725 303.655 50.9063 302.882C49.1653 303.362 47.4515 303.461 45.6563 303.575C45.0274 303.341 44.4066 303.075 43.8611 302.678C35.6655 296.721 26.5534 277.921 25.1328 268.037C24.9071 266.469 24.6798 265.529 25.6557 264.258L25.7366 263.94L29.023 262.582L29.2395 262.795L34.969 260.512L35.2556 260.581C42.2496 257.423 49.9027 255.199 57.2043 252.862L57.4976 252.678C65.9506 250.092 70.9375 244.295 78.8199 241.925C81.9042 240.998 85.3391 240.841 88.5344 240.519C88.9851 239.108 89.5052 237.724 90.0947 236.366C90.6839 235.008 91.3396 233.683 92.0619 232.39C95.0638 227.087 98.5928 224.138 104.447 222.514C104.925 222.432 105.406 222.194 105.861 222.02L106.435 220.63Z" fill="#634849"/>
<path d="M106.436 220.63C107.347 221.742 108.158 222.296 109.399 222.948C110.142 224.259 114.789 226.183 116.23 227.163L116.326 224.774C123.288 229.605 128.125 234.625 132.508 241.88C133.609 244.205 133.013 246.488 132.808 249.019L132.419 249.371L132.072 248.622L131.936 249.001C129.993 254.473 131.289 256.495 125.209 259.41C121.819 261.036 115.93 262.983 112.188 261.699C111.847 261.582 111.528 261.43 111.208 261.266C111.057 260.501 110.977 260.491 110.338 260.037C106.51 257.317 102.058 256.312 97.8927 252.812C96.184 251.377 95.0356 249.762 93.918 247.848C93.921 237.117 97.7397 230.459 104.448 222.514C104.926 222.432 105.407 222.194 105.861 222.02L106.436 220.63Z" fill="#AB685C"/>
<path d="M116.325 224.774C123.286 229.605 128.124 234.625 132.507 241.88C133.608 244.205 133.012 246.488 132.807 249.019L132.418 249.371L132.071 248.622C128.541 239.493 123.31 233.798 116.229 227.163L116.325 224.774Z" fill="#F2AF7A"/>
<path d="M35.2556 260.58C42.2496 257.423 49.9027 255.199 57.2043 252.861C58.6403 258.422 60.131 264.012 62.069 269.423C64.707 270.379 67.3282 270.934 70.1049 271.263C71.6294 271.443 79.0717 271.744 79.8624 272.235C80.0057 272.324 80.0655 272.505 80.1669 272.64L81.3383 272.558L81.348 272.644C75.5519 273.569 68.714 272.303 63.16 270.583C64.1134 273.08 64.9767 275.668 66.3011 277.996C70.2308 277.879 76.8462 277.04 80.3869 278.573C75.6691 279.069 70.9718 278.164 66.2249 278.421C65.7065 281.444 69.173 286.021 70.9124 288.475C73.3632 291.932 75.9885 295.227 78.9776 298.235C81.3413 300.613 84.7495 302.847 86.5146 305.658L86.2838 306.182C84.9374 306.258 83.6089 306.293 82.2599 306.277C77.0242 306.12 71.8244 306.146 66.7433 304.698C63.4021 304.862 60.087 304.356 56.7755 303.966C54.8252 303.745 52.725 303.655 50.9063 302.882C49.1653 303.361 47.4515 303.461 45.6563 303.574C45.0274 303.341 44.4066 303.074 43.8611 302.678C35.6655 296.72 26.5534 277.921 25.1328 268.037C24.9071 266.469 24.6798 265.529 25.6557 264.258L25.7366 263.94L29.023 262.582L29.2395 262.795L34.969 260.511L35.2556 260.58Z" fill="#412B31"/>
<path d="M34.969 260.512L35.2556 260.581C43.0402 277.774 53.5438 291.399 66.7433 304.698C63.4021 304.862 60.087 304.357 56.7755 303.967C54.8252 303.745 52.725 303.655 50.9063 302.882C49.1653 303.362 47.4515 303.462 45.6563 303.575C45.0274 303.341 44.4066 303.075 43.8611 302.678C35.6655 296.721 26.5534 277.921 25.1328 268.037C24.9071 266.469 24.6798 265.529 25.6557 264.258L25.7366 263.94L29.023 262.582L29.2395 262.795L34.969 260.512Z" fill="#5396B3"/>
<path d="M25.7361 263.94L29.0226 262.582L29.239 262.795C35.3308 278.914 46.2684 290.698 56.775 303.966C54.8247 303.745 52.7245 303.655 50.9058 302.882C39.9161 288.82 33.2439 280.951 25.6553 264.258L25.7361 263.94Z" fill="#B7EEF7"/>
<path d="M45.6563 303.575C45.0274 303.341 44.4066 303.075 43.8611 302.678C35.6655 296.721 26.5534 277.921 25.1328 268.038C24.9071 266.47 24.6798 265.529 25.6557 264.258C33.2444 280.951 39.9165 288.82 50.9063 302.882C49.1653 303.362 47.4515 303.462 45.6563 303.575Z" fill="#1D1419"/>
<path d="M132.508 241.88C139.833 242.116 146.889 242.873 154.121 244.08C156.778 244.635 159.628 245.036 162.156 246.032C162.499 257.357 161.726 267.743 157.166 278.264C155.545 282.003 153.458 285.595 151.966 289.375L151.183 290.201C148.98 289.336 144.843 291.008 143.227 289.83L143.957 289.757C143.139 290.012 142.76 290.315 141.96 289.955L143.224 289.613L143.125 289.109C135.568 283.598 117.129 286.477 106.737 280.949C105.236 280.15 104.559 279.394 104.071 277.78C105.575 271.48 120.626 272.978 124.41 269.535C122.665 268.674 120.034 268.848 118.066 268.724C108.122 268.102 91.1541 269.184 82.6115 263.783C81.4698 263.062 81.3178 262.639 81 261.401C81.24 260.713 81.2927 260.226 81.8879 259.767C86.3954 256.284 105.12 260.306 111.208 261.266C111.528 261.431 111.847 261.583 112.188 261.7C115.93 262.984 121.819 261.036 125.209 259.411C131.289 256.495 129.993 254.473 131.936 249.001L132.072 248.622L132.419 249.371L132.808 249.02C133.013 246.488 133.609 244.206 132.508 241.88Z" fill="url(#paint5_linear_66_131)"/>
<path d="M32.8448 81.704C33.0991 80.4733 33.1933 79.3525 34.1262 78.4365C34.7096 79.8582 33.5325 85.2335 33.4246 87.0502C33.3492 88.4186 33.3485 89.787 33.4225 91.1554C33.4966 92.5238 33.6448 93.8842 33.8672 95.2366C36.4925 110.695 51.2855 126.071 62.5403 135.957C65.9434 138.946 70.2001 142.861 74.419 144.626C74.6759 144.734 74.9353 144.834 75.1968 144.93L75.5735 144.981C78.2115 147.721 81.412 149.404 84.3801 151.713C87.5754 155.779 93.0833 161.308 92.3597 166.857C91.6341 172.418 85.116 177.388 80.8526 180.526C72.6396 186.569 63.4344 191.264 55.3646 197.45C41.4943 208.232 28.7958 223.193 26.5677 241.262C25.6721 248.526 26.6266 255.686 29.0231 262.582L25.7366 263.94C20.2748 254.435 22.7291 243.295 25.1942 233.437C31.9589 218.968 40.8413 206.849 52.9901 196.371C61.5307 188.961 70.9079 182.669 79.9688 175.933C85.5658 171.773 86.6778 170.012 87.6629 163.24C83.5234 154.597 74.3023 150.528 66.7668 145.375C63.0674 142.845 59.5783 139.941 56.2448 136.951C45.7924 127.574 33.0428 113.433 32.1237 98.6479C31.7696 92.9506 33.1446 87.3905 32.8448 81.704Z" fill="#F8F7F8"/>
<path d="M44.4424 50.335L54.164 51.4716C60.5598 51.8257 67.0942 52.0698 73.4332 53.0073C65.6583 62.1855 60.4846 71.8518 57.9299 83.6255C57.9514 87.7256 58.1254 91.8892 57.9258 95.9821L57.6654 96.2431C59.0844 102.167 60.1647 108.606 62.9788 114.044L54.7443 111.073C55.666 113.87 56.5482 116.682 57.6771 119.403L57.9105 119.546L61.548 125.965L62.7055 127.065C66.3558 132.172 71.2773 136.107 74.9767 141.097C75.689 142.245 76.3875 143.249 77.302 144.252L77.0738 144.729L75.5729 144.981L75.1962 144.93C74.9347 144.834 74.6753 144.734 74.4184 144.626C70.1995 142.861 65.9428 138.946 62.5397 135.957C51.2849 126.071 36.4919 110.695 33.8666 95.2365C33.6442 93.8842 33.496 92.5238 33.4219 91.1554C33.3479 89.7869 33.3486 88.4186 33.424 87.0501C33.5319 85.2335 34.709 79.8581 34.1256 78.4364C33.1927 79.3525 33.0985 80.4732 32.8442 81.7039C32.6737 80.2199 32.7653 78.8392 31.8872 77.61C30.9916 78.1765 30.9645 78.767 30.747 79.767C30.4272 81.2372 30.2911 82.7888 30.1079 84.2826C30.0465 83.9718 29.9985 83.6588 29.9641 83.3436C28.4672 70.2388 36.9668 59.9778 44.4424 50.335Z" fill="#77C1DD"/>
<path d="M52.6914 122.927C55.4118 124.046 58.6292 125.75 61.5482 125.965L62.7058 127.065C66.356 132.172 71.2775 136.107 74.9769 141.097C75.6893 142.245 76.3878 143.249 77.3023 144.252L77.074 144.729L75.5731 144.981L75.1964 144.93C68.2638 137.074 59.6696 130.873 52.6914 122.927Z" fill="#AB685C"/>
<path d="M57.6653 96.2432C59.0843 102.167 60.1646 108.606 62.9787 114.044L54.7442 111.073C55.6659 113.87 56.5481 116.682 57.677 119.403L57.9104 119.547L61.5479 125.965C58.6289 125.749 55.4115 124.046 52.6911 122.927C48.9354 119.592 45.4908 115.937 43.3446 111.343C41.7014 109.294 40.2782 107.14 38.8438 104.943C44.3921 100.115 50.7347 98.1765 57.6653 96.2432Z" fill="#AB685C"/>
<path d="M43.3457 111.343C48.1761 113.954 52.7398 116.987 57.6781 119.403L57.9115 119.547L61.549 125.965C58.63 125.749 55.4126 124.046 52.6922 122.927C48.9365 119.592 45.492 115.937 43.3457 111.343Z" fill="#BDA0B1"/>
<path d="M54.1644 51.4717C60.5602 51.8258 67.0947 52.0699 73.4337 53.0074C65.6587 62.1856 60.485 71.8519 57.9303 83.6257C50.7403 86.9546 43.5114 89.9299 36 92.462C37.1202 82.6559 39.0393 70.9083 45.0968 62.7731C47.9907 58.8869 51.4143 55.494 54.1644 51.4717Z" fill="#5396B3"/>
<path d="M84.3799 151.713C93.5309 156.41 101.559 164.016 104.749 174.014C108.176 184.754 105.73 208.144 106.435 220.63L105.86 222.02C105.406 222.194 104.925 222.432 104.447 222.514C98.5926 224.138 95.0636 227.086 92.0617 232.39C91.3395 233.682 90.6837 235.008 90.0946 236.366C89.505 237.724 88.9849 239.108 88.5342 240.519C85.3389 240.841 81.9041 240.998 78.8198 241.925C70.9374 244.294 65.9504 250.092 57.4974 252.678L57.2042 252.861C49.9026 255.199 42.2494 257.423 35.2554 260.581L34.9688 260.511L29.2393 262.795L29.0229 262.582C26.6264 255.686 25.6719 248.526 26.5675 241.262C28.7956 223.193 41.4941 208.232 55.3645 197.45C63.4342 191.264 72.6394 186.569 80.8524 180.526C85.1158 177.388 91.6339 172.418 92.3596 166.857C93.0832 161.308 87.5752 155.779 84.3799 151.713Z" fill="#77C1DD"/>
<path d="M87.9835 180.103L88.3346 180.69C85.4632 185.859 80.489 190.87 76.7502 195.527C71.009 194.264 66.0276 195.234 60.3774 196.354L59.4297 196.36C60.3447 194.482 74.476 188.489 77.4902 186.794C81.1149 184.756 84.43 182.259 87.9835 180.103Z" fill="#5396B3"/>
<path d="M50.0274 205.909C53.8752 211.233 58.0761 213.082 64.0973 215.136C62.7173 217.943 61.4898 220.815 60.4147 223.752C59.3401 226.689 58.4239 229.675 57.6662 232.71C56.2666 238.319 54.3833 247.468 57.4973 252.678L57.2041 252.861C49.9025 255.199 42.2493 257.423 35.2553 260.58L34.9687 260.511C34.5788 255.972 31.5718 250.92 31.0309 245.765C29.1661 227.998 39.9122 218.419 50.0274 205.909Z" fill="#5396B3"/>
<path d="M173.245 51.6504C178.434 55.3247 182.779 73.1278 183.879 79.4505C184.554 83.3464 185.573 88.0391 184.222 91.8434C186.044 95.0229 185.731 100.912 184.887 104.387C184.693 105.188 184.38 105.819 183.843 106.444C184.498 109.782 181.643 114.743 179.836 117.396C179.637 117.693 179.621 117.703 179.427 117.941C180.66 117.203 181.387 116.687 182.113 115.385C182.226 118.046 182.349 120.854 181.617 123.442C182.799 126.915 177.938 140.509 176.121 144.238C173.659 149.291 168.915 151.294 165.456 155.384C167.206 158.912 173.163 167.359 172.175 171.049C175.189 174.009 187.579 217.483 187.584 222.554C187.584 223.174 187.057 223.842 186.658 224.296C189.119 227.433 191.821 233.167 191.407 237.236C191.381 237.492 191.335 237.746 191.294 238.001C193.162 243.264 192.369 257.672 189.902 262.681C189.738 263.011 189.713 263.026 189.523 263.276C189.733 266.49 186.463 274.105 184.411 276.448C184.048 279.78 179.509 286.422 176.853 288.477C176.407 288.821 175.906 289.076 175.389 289.295C174.852 288.261 174.468 288.107 173.511 287.487L172.569 288.336L169.985 287.913L168.056 288.144L167.749 288.281C162.478 288.383 157.196 288.642 151.965 289.375C153.457 285.595 155.545 282.002 157.165 278.264C161.725 267.743 162.498 257.357 162.155 246.032C159.627 245.036 156.778 244.634 154.12 244.079C146.888 242.873 139.833 242.115 132.508 241.88C128.124 234.624 123.287 229.605 116.326 224.774L116.229 227.163C114.789 226.183 110.142 224.259 109.398 222.947C108.158 222.295 107.347 221.742 106.435 220.63C105.73 208.144 108.176 184.754 104.749 174.014C101.56 164.016 93.5313 156.41 84.3803 151.713C81.4122 149.404 78.2117 147.721 75.5737 144.981L77.0746 144.729L77.3028 144.252C76.3883 143.249 75.6898 142.245 74.9775 141.097C71.2781 136.107 66.3566 132.172 62.7063 127.065L61.5488 125.966L57.9113 119.547L57.6779 119.403C56.549 116.682 55.6668 113.87 54.7451 111.073L62.9796 114.044C60.1655 108.606 59.0852 102.167 57.6662 96.2434L57.9266 95.9824C58.1262 91.8894 57.9522 87.7259 57.9307 83.6258C60.4854 71.8521 65.6591 62.1857 73.434 53.0075L87.8238 53.7194C98.9348 53.5592 110.08 54.5075 121.224 54.3263C136.008 54.0863 150.721 52.7363 165.477 52.3223C168.102 52.243 170.645 51.9897 173.245 51.6504ZM179.427 117.941C178.127 124.103 157.124 142.67 151.544 146.32C144.95 150.594 131.878 156.346 130.261 164.331C129.71 167.05 130.555 169.564 132.122 171.788C135.136 176.068 140.254 179.749 144.555 182.654C145.113 182.821 145.661 182.963 146.242 183.022C149.038 183.302 168.946 175.581 171.392 173.28C172.237 172.485 172.109 172.166 172.175 171.049C173.163 167.359 167.206 158.912 165.456 155.384C168.915 151.294 173.659 149.291 176.121 144.238C177.938 140.509 182.799 126.915 181.617 123.442C182.349 120.854 182.226 118.046 182.113 115.385C181.387 116.687 180.66 117.203 179.427 117.941ZM172.175 171.049C172.109 172.166 172.237 172.485 171.392 173.28C168.946 175.581 149.038 183.302 146.242 183.022C145.661 182.963 145.113 182.821 144.555 182.654C158.578 193.122 173.874 203.614 183.69 218.419C184.708 219.959 186.366 222.053 186.622 223.883C186.642 224.02 186.648 224.158 186.658 224.296C187.057 223.842 187.584 223.174 187.584 222.554C187.579 217.483 175.189 174.009 172.175 171.049Z" fill="#F8F7F8"/>
<path d="M182.476 253.828C190.086 243.277 176.663 224.363 177.589 219.54C182.753 222.497 186.458 231.921 187.972 237.494C189.195 241.998 190.925 250.531 188.479 254.692C188.131 255.289 187.604 255.703 187 256.028C186.033 254.769 183.925 254.325 182.476 253.828Z" fill="#77C1DD"/>
<path d="M160.896 59.7434C162.635 59.2153 165.087 59.3483 166.929 59.2168C173.94 73.19 178.356 81.5985 178.96 97.721C179.062 100.482 179.487 103.716 178.786 106.398C178.428 106.78 178.121 107.128 177.676 107.417C176.903 106.089 175.711 105.976 174.354 105.593C173.725 104.746 172.799 104.476 171.857 104.088L171.54 103.631C171.785 103.125 171.934 102.667 172.046 102.116C174.4 90.8468 172.103 73.6045 165.706 63.8701C164.416 61.9075 163.255 60.2121 160.896 59.7434Z" fill="#77C1DD"/>
<path d="M173.244 51.6504C178.433 55.3247 182.778 73.1278 183.878 79.4505C184.553 83.3464 185.572 88.0391 184.221 91.8434L184.2 90.8967C182.655 92.7748 183.008 95.8422 181.575 97.9756C181.693 97.775 181.734 97.7223 181.831 97.4859C183.013 94.7168 181.109 89.19 180.122 86.5156C180.265 85.8647 180.338 85.2061 180.342 84.5398C180.347 78.0222 172.568 63.5132 167.922 59.0072L170.388 58.0979C169.048 56.0893 166.944 54.3504 165.476 52.3223C168.101 52.243 170.644 51.9897 173.244 51.6504Z" fill="#77C1DD"/>
<path d="M170.388 58.0977C172.645 58.6263 174.421 61.3534 175.562 63.2044C178.909 68.6237 183.182 78.6929 181.729 85.0881C181.524 86.0026 181.483 86.0932 180.71 86.5973L180.122 86.5154C180.265 85.8645 180.339 85.2058 180.342 84.5395C180.347 78.022 172.569 63.513 167.922 59.007L170.388 58.0977Z" fill="#5396B3"/>
<path d="M169.524 116.984C172.211 116.558 174.964 114.63 177.292 113.26L177.165 114.496C177.323 115.985 177.129 116.686 176.167 117.896C175.353 118.916 174.463 119.885 173.587 120.855C173.797 122.529 172.774 123.769 171.807 125.022C166.162 132.339 157.705 139.056 150.155 144.363C139.154 151.105 127.428 156.421 120.263 167.604C120.268 173.649 121.08 183.935 125.637 188.391C126.08 188.824 126.558 189.206 127.043 189.59C123.317 190.695 115.671 187.62 113.131 191.158C112.944 188.065 113.317 184.726 113.839 181.677C117.513 160.221 135.657 150.572 151.858 139.078C157.458 131.829 165.21 126.082 169.294 117.667L169.524 116.984Z" fill="#77C1DD"/>
<path d="M169.524 116.984C172.211 116.558 174.964 114.63 177.292 113.26L177.164 114.496C177.323 115.985 177.128 116.686 176.166 117.896C175.353 118.916 174.462 119.885 173.587 120.855C170.926 126.782 158.306 136.621 152.34 138.902C152.18 138.964 152.018 139.019 151.857 139.078C157.458 131.829 165.21 126.082 169.294 117.667L169.524 116.984Z" fill="#E0B3AA"/>
<path d="M169.294 117.667C165.21 126.082 157.459 131.829 151.858 139.078C135.658 150.572 117.513 160.221 113.839 181.677C113.317 184.726 112.944 188.065 113.131 191.158C113.007 201.673 112.62 212.302 113.173 222.803L116.326 224.773L116.229 227.162C114.789 226.183 110.142 224.258 109.398 222.947C110.911 219.859 110.013 198.861 109.929 193.901C111.609 187.801 111.108 181.345 113.228 175.175C116.327 166.161 121.909 159.508 127.645 152.082C134.763 142.868 142.271 133.947 148.233 123.921L148.851 123.237L149.128 121.779L149.646 121.563L158.711 120.367C160.083 119.568 162.058 119.369 163.619 119.048C165.548 118.819 167.431 118.202 169.294 117.667Z" fill="#E88F70"/>
<path d="M149.647 121.563L158.712 120.367C156.913 122.37 152.985 123.492 150.363 123.61C149.783 123.636 149.359 123.517 148.852 123.237L149.129 121.779L149.647 121.563Z" fill="#F8908E"/>
<path d="M160.897 59.7432C163.256 60.2119 164.417 61.9073 165.707 63.8699C172.104 73.6043 174.401 90.8465 172.047 102.116C171.935 102.666 171.786 103.125 171.541 103.63C166.597 102.346 161.188 102.698 156.128 102.047C157.384 86.0699 155.489 75.6421 149.032 61.0901C153.01 60.7774 156.944 60.28 160.897 59.7432Z" fill="#F8F7F8"/>
<path d="M156.127 102.047C161.187 102.698 166.596 102.346 171.54 103.631L171.857 104.088C172.798 104.476 173.725 104.746 174.354 105.593C175.71 105.976 176.903 106.089 177.675 107.417C178.474 108.49 179.037 109.032 178.904 110.486C178.796 111.636 178.049 113.746 177.164 114.497L177.292 113.26C174.963 114.63 172.21 116.559 169.523 116.984L169.293 117.667C167.43 118.202 165.547 118.82 163.618 119.049C162.057 119.369 160.082 119.568 158.71 120.368L149.645 121.564L149.127 121.78C131.029 124.045 113.894 123.382 95.9609 119.906C96.0715 119.434 96.1963 118.965 96.3862 118.517C97.273 116.428 98.8942 115.478 100.937 114.779C106.593 112.842 112.742 113.514 118.53 112.264C127.298 110.372 136.222 106.187 144.591 102.957C148.373 102.632 152.161 102.408 155.954 102.285L156.127 102.047Z" fill="#F8C279"/>
<path d="M156.127 102.047C161.187 102.698 166.597 102.346 171.54 103.631L171.857 104.088C172.799 104.476 173.725 104.746 174.355 105.593C175.711 105.976 176.903 106.089 177.676 107.417C178.474 108.49 179.037 109.032 178.904 110.486C178.797 111.636 178.049 113.746 177.164 114.497L177.292 113.26C174.964 114.63 172.21 116.559 169.524 116.984L169.293 117.667C167.431 118.202 165.547 118.82 163.618 119.049C162.057 119.369 160.082 119.568 158.711 120.368L149.646 121.564C152.895 115.759 155.622 108.99 155.955 102.285L156.127 102.047Z" fill="#F3E4BF"/>
<path d="M171.858 104.088C172.8 104.475 173.726 104.746 174.356 105.592C175.712 105.976 176.904 106.088 177.677 107.416C178.475 108.489 179.038 109.031 178.905 110.485C178.798 111.636 178.05 113.746 177.165 114.496L177.293 113.26C174.965 114.63 172.211 116.559 169.525 116.984L169.294 117.667C167.432 118.202 165.548 118.82 163.619 119.048C167.109 114.583 168.977 108.953 171.858 104.088Z" fill="#F8C279"/>
<path d="M174.355 105.593C175.711 105.976 176.904 106.089 177.677 107.417C178.475 108.49 179.038 109.032 178.905 110.486C178.797 111.636 178.05 113.746 177.165 114.497L177.293 113.26C174.964 114.63 172.211 116.559 169.524 116.984C170.502 115.047 171.653 113.19 172.713 111.294C173.664 109.579 174.923 107.616 174.355 105.593Z" fill="#F3E4BF"/>
<path d="M54.7451 111.073L62.9796 114.044C70.1108 115.926 77.2599 117.366 84.5302 118.564L95.5977 120.148L95.9621 119.906C113.895 123.382 131.03 124.045 149.128 121.78L148.851 123.238L148.233 123.921C142.271 133.948 134.763 142.869 127.645 152.082C121.909 159.508 116.328 166.161 113.228 175.176C111.108 181.345 111.609 187.801 109.929 193.902C110.013 198.861 110.911 219.86 109.398 222.947C108.158 222.295 107.347 221.742 106.435 220.63C105.73 208.144 108.176 184.754 104.749 174.014C101.56 164.016 93.5313 156.41 84.3803 151.713C81.4122 149.404 78.2117 147.721 75.5737 144.981L77.0746 144.729L77.3028 144.252C76.3883 143.249 75.6898 142.245 74.9775 141.097C71.2781 136.107 66.3566 132.172 62.7063 127.065L61.5488 125.966L57.9113 119.547L57.6779 119.403C56.549 116.682 55.6668 113.87 54.7451 111.073Z" fill="#AB685C"/>
<path d="M54.7451 111.073L62.9796 114.044C70.1108 115.926 77.2599 117.366 84.5302 118.564L95.5977 120.148L95.9621 119.906C113.895 123.382 131.03 124.045 149.128 121.78L148.851 123.238L148.233 123.921C131.504 127.211 113.762 128.967 96.808 126.313C97.2077 130.019 97.9641 133.519 98.8663 137.133C91.4557 135.257 84.1674 132.976 76.8515 130.77C72.3205 129.403 67.4103 127.591 62.7063 127.065L61.5488 125.966L57.9113 119.547L57.6779 119.403C56.549 116.682 55.6668 113.87 54.7451 111.073Z" fill="#634849"/>
<path d="M54.7451 111.073L62.9796 114.044C70.1108 115.926 77.2599 117.366 84.5302 118.564L95.5977 120.148C96.6002 121.707 96.5777 124.718 96.8075 126.578C89.1163 125.704 81.4727 124.523 73.8767 123.034C68.551 121.946 63.2759 120.397 57.9113 119.547L57.6779 119.403C56.549 116.682 55.6668 113.87 54.7451 111.073Z" fill="#412B31"/>
<path d="M62.7051 127.064C67.409 127.59 72.3192 129.403 76.8502 130.769C84.1661 132.975 91.4544 135.256 98.865 137.132L99.1695 137.305C112.668 140.779 120.252 142.761 133.966 139.197C125.15 145.676 115.94 150.707 105.327 153.554C106.808 159.053 108.105 164.362 108.44 170.074C108.889 177.732 107.958 186.465 109.927 193.901C110.012 198.86 110.91 219.859 109.397 222.947C108.157 222.295 107.346 221.741 106.434 220.629C105.729 208.143 108.175 184.753 104.748 174.013C101.558 164.015 93.53 156.409 84.379 151.712C81.4109 149.403 78.2104 147.72 75.5724 144.98L77.0733 144.728L77.3016 144.251C76.3871 143.248 75.6886 142.244 74.9762 141.096C71.2768 136.106 66.3554 132.171 62.7051 127.064Z" fill="#634849"/>
<path d="M62.7051 127.064C67.409 127.59 72.3192 129.403 76.8502 130.769C84.1661 132.975 91.4544 135.256 98.865 137.132L99.1695 137.305C100.967 142.763 103.085 148.029 105.289 153.331C96.1057 153.04 88.908 152.793 81.438 146.677C79.2708 144.902 77.2888 142.645 74.9762 141.096C71.2768 136.106 66.3554 132.171 62.7051 127.064Z" fill="#412B31"/>
<path d="M138.862 188.15C134.174 183.6 126.455 177.456 126.307 170.488C126.273 168.909 126.218 167.172 126.923 165.729C126.92 165.748 126.909 165.767 126.912 165.786C127.397 169.017 128.004 172.421 130.002 175.083C134.585 181.193 142.512 185.286 148.472 189.983C153.655 194.068 177.037 214.028 177.59 219.54C176.664 224.363 190.087 243.277 182.477 253.827C183.925 254.325 186.034 254.769 187.001 256.028L186.832 257.829C187.656 259.264 187.723 260.418 187.323 262.008C187.027 263.203 186.402 264.895 185.276 265.513C185.179 265.566 185.072 265.602 184.969 265.647C185.993 269.245 183.649 273.259 181.93 276.346C179.862 280.046 176.986 284.998 173.511 287.487L172.57 288.336L169.985 287.913L168.056 288.144L167.749 288.281C162.478 288.383 157.196 288.642 151.966 289.374C153.458 285.595 155.546 282.002 157.166 278.263C161.726 267.742 162.499 257.356 162.156 246.032C159.628 245.036 156.778 244.634 154.121 244.079C146.889 242.873 139.833 242.115 132.508 241.88C128.125 234.624 123.288 229.605 116.326 224.774L113.173 222.803C112.62 212.302 113.007 201.673 113.132 191.158C115.671 187.621 123.318 190.695 127.043 189.591C130.954 188.842 134.903 188.514 138.862 188.15Z" fill="url(#paint6_linear_66_131)"/>
<path d="M154.12 244.08L154.819 243.617C154.865 243.344 154.911 243.18 154.899 242.913C154.826 241.308 153.459 239.175 152.686 237.755C151.994 236.511 151.275 235.285 150.527 234.074C149.779 232.864 149.003 231.672 148.201 230.497C147.398 229.322 146.569 228.166 145.714 227.03C144.858 225.893 143.977 224.777 143.071 223.68C142.164 222.584 141.233 221.509 140.277 220.455C139.321 219.402 138.342 218.37 137.339 217.362C136.335 216.353 135.309 215.368 134.261 214.406C133.213 213.445 132.143 212.507 131.052 211.595C139.198 215.323 146.81 219.505 154.171 224.619C156.617 231.842 160.021 238.714 162.155 246.032C159.627 245.036 156.777 244.635 154.12 244.08Z" fill="#77C1DD"/>
<path d="M154.172 224.618C155.197 221.353 156.304 217.642 159.587 215.94C160.994 215.208 162.586 215.198 164.054 215.755C170.246 218.099 174.873 226.266 177.401 232.112C180.133 238.434 182.411 246.872 180.799 253.698L182.477 253.827C183.925 254.325 186.034 254.769 187.001 256.028L186.832 257.829C187.656 259.264 187.722 260.418 187.323 262.008C187.027 263.203 186.402 264.895 185.276 265.512C185.179 265.566 185.072 265.602 184.969 265.647C185.993 269.245 183.649 273.259 181.93 276.346C179.862 280.046 176.986 284.998 173.511 287.487L172.57 288.336L169.985 287.913L168.056 288.144L167.749 288.281C162.478 288.382 157.196 288.642 151.966 289.374C153.458 285.594 155.545 282.002 157.166 278.263C161.726 267.742 162.499 257.356 162.156 246.031C160.022 238.713 156.618 231.841 154.172 224.618Z" fill="url(#paint7_linear_66_131)"/>
<path d="M180.799 253.699L182.477 253.828C183.925 254.326 186.034 254.77 187.001 256.029L186.832 257.83C187.656 259.264 187.723 260.419 187.323 262.009C187.027 263.204 186.402 264.896 185.276 265.513C185.179 265.567 185.072 265.603 184.969 265.647L184.621 265.013L183.004 266.643C181.454 267.318 179.33 267.196 177.651 267.096C178.035 266.574 178.409 266.038 178.711 265.462C179.903 263.161 180.251 260.902 179.529 258.411C180.696 257.049 180.753 255.392 180.799 253.699Z" fill="#F2AF7A"/>
<path d="M180.798 253.699L182.477 253.828C183.925 254.326 186.034 254.77 187.001 256.029L186.832 257.83C184.447 257.789 181.822 257.655 179.529 258.411C180.696 257.049 180.752 255.392 180.798 253.699Z" fill="#F8C279"/>
<path d="M183.003 266.643L184.62 265.013L184.968 265.647C185.991 269.246 183.648 273.259 181.928 276.346C179.861 280.047 176.985 284.998 173.51 287.488L172.568 288.336L169.984 287.913L168.055 288.145C170.491 282.183 178.617 273.872 177.65 267.096C179.328 267.196 181.452 267.318 183.003 266.643Z" fill="#E88F70"/>
<path d="M183.003 266.643L184.62 265.013L184.968 265.647C185.992 269.246 183.648 273.259 181.929 276.346C179.861 280.047 176.985 284.998 173.51 287.488L172.569 288.336L169.984 287.913C170.066 287.862 170.143 287.811 170.22 287.759C170.353 287.67 170.476 287.577 170.609 287.49C175.276 284.334 180.27 276.377 182.486 271.174C183.146 269.627 183.658 268.296 183.003 266.643Z" fill="#AB685C"/>
<path d="M87.8237 53.7193C98.9347 53.5592 110.079 54.5074 121.224 54.3263C136.008 54.0863 150.721 52.7363 165.476 52.3223C166.945 54.3503 169.048 56.0892 170.389 58.0978L167.923 59.0072L166.93 59.217C165.087 59.3485 162.636 59.2155 160.896 59.7436C156.944 60.2804 153.009 60.7778 149.032 61.0905C155.489 75.6425 157.384 86.0704 156.128 102.047L155.955 102.286C152.162 102.408 148.374 102.632 144.592 102.957C136.223 106.187 127.299 110.373 118.531 112.265C112.743 113.514 106.594 112.842 100.938 114.779C98.8953 115.478 97.2741 116.429 96.3872 118.518C96.1974 118.965 96.0725 119.435 95.962 119.906L95.5976 120.148L84.5301 118.564C77.2597 117.366 70.1106 115.926 62.9795 114.044C60.1654 108.606 59.0851 102.167 57.666 96.2433L57.9265 95.9823C58.1261 91.8894 57.9521 87.7258 57.9306 83.6257C60.4852 71.852 65.6589 62.1857 73.4339 53.0075L87.8237 53.7193Z" fill="#77C1DD"/>
<path d="M57.9308 83.6257C66.8449 79.8475 75.5006 76.5002 84.8789 74.0254C84.1593 80.2242 83.4071 86.5105 83.0381 92.7384C74.6317 92.8883 66.1244 94.1621 57.9268 95.9823C58.1263 91.8894 57.9523 87.7258 57.9308 83.6257Z" fill="#B7EEF7"/>
<path d="M87.8236 53.7193C98.9346 53.5592 110.079 54.5074 121.224 54.3263C136.008 54.0863 150.721 52.7363 165.476 52.3223C166.945 54.3503 169.048 56.0892 170.389 58.0978L167.922 59.0072L166.93 59.217C165.087 59.3485 162.636 59.2155 160.896 59.7436C156.944 60.2804 153.009 60.7778 149.032 61.0905C139.934 62.3233 130.858 63.2741 121.823 64.9823C109.453 67.3205 97.2473 70.6714 85.0586 73.8028C86.9541 67.8737 89.0118 62.0016 91.2318 56.1865L90.5768 55.9275C90.85 55.4654 91.1064 54.9598 91.4738 54.5658C91.5209 54.5151 91.5747 54.4706 91.6253 54.4235L87.8236 53.7193Z" fill="#5396B3"/>
<path d="M83.0378 92.7385C102.414 90.824 128.281 89.5718 144.258 102.68L144.592 102.957C136.223 106.187 127.299 110.373 118.531 112.265C112.743 113.514 106.594 112.842 100.938 114.779C98.8953 115.478 97.2741 116.429 96.3872 118.518C96.1974 118.965 96.0725 119.435 95.962 119.906L95.5976 120.148L84.5301 118.564C77.2597 117.366 70.1106 115.926 62.9795 114.044C60.1654 108.606 59.0851 102.167 57.666 96.2434L57.9265 95.9824C66.1241 94.1621 74.6314 92.8884 83.0378 92.7385Z" fill="#E88F70"/>
<path d="M57.9265 95.9822C66.1241 94.162 74.6314 92.8882 83.0378 92.7383C83.1903 97.7247 85.7547 115.374 84.5301 118.564C77.2597 117.366 70.1106 115.926 62.9795 114.044C60.1654 108.606 59.0851 102.167 57.666 96.2432L57.9265 95.9822Z" fill="#E0B3AA"/>
<defs>
<linearGradient id="paint0_linear_66_131" x1="105.541" y1="51.8423" x2="114.088" y2="4.84014" gradientUnits="userSpaceOnUse">
<stop stop-color="#8A5C45"/>
<stop offset="1" stop-color="#AF8168"/>
</linearGradient>
<linearGradient id="paint1_linear_66_131" x1="103.396" y1="300.099" x2="113.803" y2="349.82" gradientUnits="userSpaceOnUse">
<stop stop-color="#30101C"/>
<stop offset="1" stop-color="#3E3334"/>
</linearGradient>
<linearGradient id="paint2_linear_66_131" x1="142.584" y1="312.904" x2="144.897" y2="324.386" gradientUnits="userSpaceOnUse">
<stop stop-color="#CD976E"/>
<stop offset="1" stop-color="#FFCC85"/>
</linearGradient>
<linearGradient id="paint3_linear_66_131" x1="111.286" y1="290.813" x2="116.684" y2="320.143" gradientUnits="userSpaceOnUse">
<stop stop-color="#6A5035"/>
<stop offset="1" stop-color="#A5674E"/>
</linearGradient>
<linearGradient id="paint4_linear_66_131" x1="191.552" y1="135.476" x2="200.966" y2="111.561" gradientUnits="userSpaceOnUse">
<stop stop-color="#CE976A"/>
<stop offset="1" stop-color="#F6CE9A"/>
</linearGradient>
<linearGradient id="paint5_linear_66_131" x1="112.049" y1="282.657" x2="138.556" y2="234.149" gradientUnits="userSpaceOnUse">
<stop stop-color="#C16A67"/>
<stop offset="1" stop-color="#FFC07B"/>
</linearGradient>
<linearGradient id="paint6_linear_66_131" x1="113.642" y1="219.919" x2="178.84" y2="210.39" gradientUnits="userSpaceOnUse">
<stop stop-color="#54B0D6"/>
<stop offset="1" stop-color="#6EDFEF"/>
</linearGradient>
<linearGradient id="paint7_linear_66_131" x1="139.661" y1="266.957" x2="182.036" y2="239.776" gradientUnits="userSpaceOnUse">
<stop stop-color="#FBE1DF"/>
<stop offset="1" stop-color="#F7FDFD"/>
</linearGradient>
</defs>
</svg>
