<svg width="241" height="376" viewBox="0 0 241 376" fill="none" xmlns="http://www.w3.org/2000/svg">
<path d="M34.7744 2.03783C38.6594 1.41668 42.5934 0.627859 46.5059 0.244141C51.303 4.03013 62.5704 10.8645 65.7583 14.2009C66.3445 16.0767 67.4709 18.5614 66.7232 20.4119L67.5981 21.8078C66.8622 23.0022 65.9456 23.3871 64.5981 23.7185C61.9447 24.3717 59.1428 24.7402 56.4466 25.223C52.95 25.5673 49.4579 25.9518 45.9703 26.3764L41.2672 16.8408C39.4133 13.6355 34.1201 5.53068 34.7744 2.03783Z" fill="#634849"/>
<path d="M34.7734 2.03783C38.6584 1.41668 42.5924 0.627859 46.505 0.244141C51.302 4.03013 62.5694 10.8645 65.7573 14.2009C66.3435 16.0767 67.47 18.5614 66.7222 20.4119C59.992 13.6546 52.7255 8.36637 44.848 3.05395L36.1266 2.76869L34.7734 2.03783Z" fill="#AB685C"/>
<path d="M41.2672 16.8411C39.4133 13.6357 34.1201 5.53094 34.7744 2.03809L36.1275 2.76895C42.8201 10.2031 50.171 17.4768 56.4466 25.2232C52.95 25.5676 49.4579 25.952 45.9703 26.3766L41.2672 16.8411Z" fill="#412B31"/>
<path d="M157.017 0.110546C163.745 -0.0211113 170.576 -0.110007 177.295 0.296217C181.594 4.6409 188.278 10.5598 190.236 16.4912C200.116 17.8567 232.631 23.4099 238.595 31.2069C239.681 32.6237 240.344 34.3645 239.996 36.1632C239.635 38.0092 238.128 41.3192 236.67 42.4602C232.237 42.3443 224.034 45.9019 219.448 47.0671C214.767 48.256 209.979 49.1213 205.23 49.9917C198.73 51.183 192.196 52.1545 185.628 52.9062C179.06 53.6578 172.474 54.188 165.871 54.4967C125.084 56.3382 35.5536 51.9137 1.57422 28.4421C13.7542 22.0219 27.8977 19.5553 41.2654 16.8406L45.9685 26.3761C49.4561 25.9515 52.9482 25.5671 56.4448 25.2227C59.141 24.74 61.9429 24.3715 64.5963 23.7182C65.9438 23.3868 66.8604 23.002 67.5963 21.8075L66.7214 20.4116C67.4691 18.5611 66.3427 16.0765 65.7565 14.2007C68.2135 14.7914 95.5082 11.9833 99.9125 11.7509C120.238 10.6786 140.161 12.677 160.412 12.5386C159.14 8.44714 157.733 4.34383 157.017 0.110546Z" fill="url(#paint0_linear_120_37397)"/>
<path d="M227.472 36.7471C227.843 36.8191 228.181 37.0233 228.518 37.182C225.086 39.7673 216.81 40.2202 212.511 40.9337C169.42 48.0943 125.099 47.1801 81.7168 43.1893C81.1429 43.2844 80.8824 43.2422 80.3242 43.133L81.4883 42.747L81.4365 43.1516C94.4515 43.1471 107.464 43.7097 120.485 43.7271C138.886 43.696 157.273 43.1801 175.647 42.1793C192.943 41.3044 210.446 39.9997 227.472 36.7471Z" fill="#F2AF7A"/>
<path d="M157.018 0.110546C163.746 -0.0211112 170.576 -0.110007 177.296 0.296217C181.594 4.6409 188.278 10.5598 190.236 16.4912C191.755 19.319 193.77 22.2244 193.286 25.5738C192.341 26.8966 191.463 27.206 189.859 27.4755C176.862 29.6614 138.894 25.7178 125.959 22.4754C137.245 18.2556 150.828 19.0337 162.717 18.9943C161.783 16.916 161.128 14.7009 160.412 12.5386C159.14 8.44714 157.733 4.34383 157.018 0.110546Z" fill="#634849"/>
<path d="M157.018 0.110352C165.234 4.64071 171.095 18.4568 173.987 26.9555C169.98 25.1235 164.738 23.2128 162.717 18.9941C161.783 16.9158 161.128 14.7007 160.412 12.5384C159.14 8.44695 157.733 4.34363 157.018 0.110352Z" fill="#412B31"/>
<path d="M210.701 363.041C218.499 363.446 230.686 357.977 236.914 353.455L237.043 352.502L237.381 354.062C238.045 355.315 238.202 355.55 238.101 356.946C237.584 357.927 236.993 358.637 236.098 359.281C229.105 364.305 215.995 366.843 207.527 368.5C155.093 378.768 86.8879 377.846 34.2099 368.765C25.6471 367.289 6.17542 364.073 0.964841 356.443C-0.0152725 355.007 -0.179027 353.947 0.163056 352.259C18.1562 366.155 42.0278 367.081 63.8564 369.03C68.061 368.974 72.507 369.854 76.7115 370.242C114.968 373.776 153.331 371.828 191.363 366.969C196.342 366.333 206.864 366.225 210.701 363.041Z" fill="url(#paint1_linear_120_37397)"/>
<path d="M5.70558 331.253C7.2217 330.558 8.77755 329.969 10.3732 329.484C11.9688 329 13.5898 328.625 15.2361 328.359C13.1734 330.554 10.9218 331.377 11.0045 334.722C12.2198 337.321 14.4844 338.437 17.0753 339.367C38.2873 346.981 64.3723 348.616 86.7849 350.358C91.3035 350.709 105.037 350.681 108.694 352.045C126.873 353.021 144.941 351.574 163.034 350.053C169.019 347.509 176.334 347.718 182.698 346.682C194.654 344.736 207.763 342.251 219.117 338.047C221.93 337.004 226.589 335.279 227.81 332.286C228.305 331.079 228.057 330.81 227.607 329.654C230.893 330.348 233.976 331.036 235.901 334.04C238.416 337.96 238.635 346.569 237.656 350.981C237.538 351.506 237.29 352.027 237.043 352.502L236.913 353.455C230.685 357.977 218.498 363.445 210.7 363.041C206.863 366.224 196.342 366.332 191.362 366.969C153.331 371.828 114.967 373.775 76.7109 370.242C72.5063 369.853 68.0604 368.974 63.8558 369.03C42.0272 367.081 18.1556 366.155 0.162448 352.258L0.0859375 351.927C0.635634 349.814 0.797675 347.819 0.896136 345.642L0.737482 336.88C0.757737 336.728 0.772371 336.575 0.798815 336.424C1.24555 333.855 3.69415 332.525 5.70558 331.253Z" fill="#634849"/>
<path d="M88.9707 353.834C95.5888 353.13 102.223 352.658 108.875 352.418C110.065 352.97 109.997 353.472 110.881 354.135C113.427 356.039 137.662 353.442 143.799 355.112C134.99 356.994 98.5248 356.045 88.9707 353.834Z" fill="#E88F70"/>
<path d="M216.978 344.683C211.768 350.423 158.142 354.541 148.218 355.027C146.745 355.114 145.272 355.142 143.797 355.112C137.661 353.442 113.426 356.039 110.88 354.135C109.996 353.473 110.063 352.97 108.873 352.418L108.693 352.046C126.872 353.022 144.941 351.575 163.033 350.054C175.366 349.931 187.378 348.518 199.604 347.087C205.399 346.409 211.29 346.064 216.978 344.683Z" fill="url(#paint2_linear_120_37397)"/>
<path d="M0.737482 336.881C16.9324 351.431 74.5425 353.246 75.89 354.641C75.1507 355.285 74.313 355.559 73.4077 355.906C70.1421 356.655 65.8543 357.874 64.0679 361.008C62.5516 363.669 63.1339 366.238 63.8558 369.03C42.0272 367.082 18.1556 366.156 0.162448 352.259L0.0859375 351.928C0.635634 349.815 0.797675 347.82 0.896136 345.643L0.737482 336.881Z" fill="#412B31"/>
<path d="M216.512 351.533C216.546 353.128 213.007 360.758 211.781 362.068C211.505 362.365 211.207 362.61 210.897 362.868C210.83 362.924 210.768 362.984 210.7 363.041C206.863 366.225 196.342 366.333 191.363 366.969C153.331 371.829 114.968 373.776 76.7112 370.242C72.5066 369.854 68.0606 368.974 63.856 369.03C63.1342 366.238 62.5519 363.668 64.0682 361.007C65.8545 357.874 70.1424 356.655 73.4079 355.906C80.2541 358.61 90.125 357.457 97.4725 357.828C131.187 359.533 165.197 361.357 198.666 355.684C204.5 354.695 210.982 353.712 216.512 351.533Z" fill="#6D422B"/>
<path d="M1.57567 28.4424C35.555 51.9139 125.085 56.3385 165.872 54.497C172.476 54.1883 179.062 53.6581 185.629 52.9064C192.197 52.1547 198.731 51.1832 205.232 49.9919C209.98 49.1215 214.768 48.2562 219.449 47.0674C224.035 45.9021 232.238 42.3446 236.672 42.4605C236.39 43.8243 236.165 44.1006 234.978 44.8905C230.297 48.0148 222.403 50.2991 216.951 51.605C218.178 53.1703 219.061 55.2605 219.748 57.1228L219.573 58.0416C220.839 60.8604 222.6 64.1501 221.813 67.3341C224.204 69.7259 224.232 74.0419 224.226 77.2585C224.221 79.4381 224.356 81.939 223.81 84.0551C224.851 87.3763 225.2 96.9181 223.636 100.098C225.368 103.717 224.429 116.245 223.039 120.096C222.887 120.516 222.617 120.903 222.358 121.261L222.24 121.431C223.275 126.027 212.968 170.121 210.61 173.94C210.34 174.37 210.003 174.73 209.626 175.061C212.062 178.732 212.152 186.573 211.145 190.808C211.122 190.9 211.089 190.991 211.061 191.083C212.13 192.255 212.923 193.68 212.85 195.319C212.833 195.728 212.76 196.134 212.681 196.535C217.846 202.168 224.159 241.113 223.861 249.711C223.844 250.205 223.765 250.704 223.681 251.189C225.599 255.349 225.065 271.06 223.512 275.468C223.354 275.918 223.152 276.149 222.853 276.509C223.506 278.81 222.612 289.147 221.379 291.177C221.227 291.43 221.002 291.627 220.794 291.834C222.229 295.527 218.594 309.61 216.918 313.354C216.676 313.897 216.378 314.413 216.079 314.929C216.85 318.325 214.009 324.875 216.681 327.138C219.45 327.398 225.751 327.675 227.608 329.655C228.058 330.81 228.305 331.08 227.81 332.287C226.589 335.279 221.931 337.004 219.118 338.047C207.764 342.252 194.654 344.737 182.698 346.682C176.335 347.719 169.019 347.51 163.034 350.054C144.942 351.575 126.873 353.022 108.694 352.046C105.038 350.682 91.3039 350.71 86.7853 350.358C64.3727 348.617 38.2877 346.982 17.0758 339.368C14.4848 338.438 12.2202 337.321 11.0049 334.723C10.9222 331.377 13.1739 330.555 15.2365 328.36L17.145 327.731C11.7633 316.828 7.00905 304.42 4.66736 292.432C1.65725 278.195 0.0576572 262.068 1.32303 247.573C4.55932 229.637 13.4861 217.465 22.5294 202.177L23.9934 199.66C25.3229 197.239 26.6957 194.512 27.0704 191.747C27.2797 190.201 27.17 188.656 26.1798 187.395C25.3904 185.719 23.927 184.418 22.6661 183.09C23.9478 181.093 25.2458 179.094 26.4397 177.042C27.2927 175.578 28.5006 173.726 28.0292 171.987L26.5871 168.605C23.1342 158.934 18.2021 149.857 14.8319 140.185C4.59027 110.794 6.1516 79.2395 15.2781 49.844C13.0824 48.9242 10.8485 48.1092 8.57656 47.3987C6.30463 46.6883 4.00438 46.0857 1.67581 45.591C1.76433 39.8742 1.73096 34.158 1.57567 28.4424ZM190.474 56.7869C187.615 57.1599 184.819 57.4384 181.933 57.5256C165.71 57.9808 149.534 59.4651 133.279 59.7289C121.027 59.9281 108.774 58.8855 96.5578 59.0616L80.737 58.279C72.1888 68.3699 66.5006 78.9976 63.6919 91.9422C63.7155 96.45 63.9068 101.028 63.6874 105.528L63.401 105.815C64.9612 112.327 66.149 119.407 69.2429 125.386L60.1895 122.119C61.2028 125.194 62.1728 128.286 63.414 131.278L63.6705 131.435L67.6698 138.492L68.9425 139.702C72.9557 145.316 78.3666 149.642 82.4339 155.129C83.2171 156.391 83.9851 157.495 84.9905 158.598L84.7396 159.122L83.0894 159.399C85.9898 162.411 89.5085 164.262 92.7718 166.8C102.833 171.965 111.66 180.327 115.166 191.319C118.934 203.127 116.245 228.843 117.02 242.571C118.022 243.793 118.914 244.402 120.278 245.119C121.096 246.561 126.204 248.676 127.788 249.753L127.894 247.127C135.548 252.438 140.866 257.957 145.686 265.934C153.739 266.193 161.496 267.026 169.447 268.352C172.369 268.962 175.502 269.404 178.281 270.499C178.658 282.95 177.809 294.369 172.795 305.936C171.014 310.047 168.718 313.996 167.078 318.152C172.828 317.347 178.636 317.062 184.431 316.95L184.769 316.799L186.89 316.545L189.731 317.01L190.766 316.077C191.818 316.759 192.24 316.928 192.831 318.064C193.399 317.824 193.951 317.544 194.44 317.165C197.36 314.906 202.351 307.604 202.75 303.94C205.007 301.364 208.602 292.991 208.371 289.458C208.579 289.183 208.608 289.167 208.788 288.804C211.499 283.297 212.372 267.456 210.318 261.669C210.363 261.389 210.414 261.11 210.442 260.829C210.897 256.355 207.927 250.05 205.22 246.601C205.659 246.103 206.239 245.368 206.239 244.687C206.233 239.111 192.612 191.314 189.298 188.06C190.384 184.002 183.835 174.716 181.91 170.837C185.714 166.34 190.929 164.138 193.636 158.582C195.633 154.483 200.978 139.536 199.678 135.718C200.483 132.872 200.348 129.785 200.224 126.86C199.425 128.291 198.626 128.859 197.27 129.67C197.484 129.409 197.501 129.397 197.72 129.071C199.707 126.154 202.846 120.7 202.126 117.03C202.717 116.343 203.06 115.648 203.274 114.768C204.202 110.947 204.545 104.473 202.542 100.977C204.028 96.7943 202.908 91.635 202.165 87.3516C200.956 80.4002 196.179 60.8266 190.474 56.7869ZM48.863 55.3409C40.644 65.9427 31.2992 77.2241 32.9449 91.6321C32.9828 91.9787 33.0355 92.3229 33.103 92.6646C31.4539 101.38 32.0019 112.435 32.685 121.239C33.6313 129.263 35.0869 136.755 37.4168 144.516C39.2232 150.466 41.2024 156.358 43.3543 162.192C46.819 171.772 53.7034 185.473 49.7999 195.62C46.9417 203.05 42.5289 209.526 38.6242 216.401C37.3305 218.681 36.1315 221.01 35.0272 223.387C33.923 225.764 32.9172 228.182 32.0098 230.641C31.1025 233.1 30.2966 235.592 29.5922 238.117C28.8874 240.642 28.2865 243.191 27.7895 245.765C27.7096 249.211 26.896 253.315 27.7 256.652C24.9898 267.49 22.2914 279.738 28.2964 290.188L31.9097 288.695L32.1477 288.929L38.4469 286.419L38.762 286.495C46.4516 283.023 54.8658 280.578 62.8935 278.008L63.2159 277.806C72.5096 274.963 77.9925 268.589 86.6588 265.984C90.0498 264.964 93.8262 264.792 97.3393 264.438C97.8348 262.887 98.4066 261.365 99.0548 259.872C99.7025 258.379 100.423 256.922 101.218 255.501C104.518 249.67 108.398 246.428 114.834 244.642C115.36 244.552 115.889 244.291 116.389 244.099L117.02 242.571C116.245 228.843 118.934 203.127 115.166 191.319C111.66 180.327 102.833 171.965 92.7718 166.8C89.5085 164.262 85.9898 162.411 83.0894 159.399L84.7396 159.122L84.9905 158.598C83.9851 157.495 83.2171 156.391 82.4339 155.129C78.3666 149.642 72.9557 145.316 68.9425 139.702L67.6698 138.492L63.6705 131.435L63.414 131.278C62.1728 128.286 61.2028 125.194 60.1895 122.119L69.2429 125.386C66.149 119.407 64.9612 112.327 63.401 105.815L63.6874 105.528C63.9068 101.028 63.7155 96.45 63.6919 91.9422C66.5006 78.9976 72.1888 68.3699 80.737 58.279C73.7676 57.2483 66.5833 56.9799 59.5515 56.5905L48.863 55.3409Z" fill="#412B31"/>
<path d="M202.125 117.029C203.869 119.54 202.789 124.95 202.249 127.92C201.81 130.331 201.422 133.885 199.678 135.718C200.482 132.872 200.347 129.785 200.223 126.86C199.424 128.29 198.625 128.859 197.27 129.67C197.483 129.408 197.5 129.397 197.72 129.071C199.706 126.154 202.845 120.699 202.125 117.029Z" fill="#5396B3"/>
<path d="M190.766 316.077C191.818 316.759 192.24 316.928 192.831 318.064C193.005 320.816 190.665 323.062 188.971 324.985C188.555 325.459 188.139 325.924 187.7 326.38L185.415 328.979C189.872 330.608 201.693 329.688 207.004 329.998C210.126 330.543 214.307 330.93 216.872 332.857L217.233 333.534C215.955 335.927 211.466 336.971 208.928 337.744C200.185 340.408 190.969 339.761 182.259 342.039C142.825 346.564 69.627 348.649 31.8887 336.072C37.9933 334.499 44.0175 334.615 50.1969 333.764C52.1706 333.64 54.0549 333.53 55.969 333.003C57.9686 333.853 60.2776 333.952 62.4219 334.195C66.0627 334.624 69.7075 335.18 73.3809 334.999C78.9673 336.591 84.6843 336.563 90.4406 336.736C97.3504 339.064 144.095 338.352 152.121 336.818C154.821 333.491 157.563 330.199 160.347 326.943C162.264 324.289 164.259 321.684 166.218 319.061L167.078 318.152C172.828 317.347 178.636 317.062 184.431 316.95L184.768 316.8L186.89 316.545L189.731 317.011L190.766 316.077Z" fill="url(#paint3_linear_120_37397)"/>
<path d="M152.121 336.818C154.821 333.491 157.563 330.199 160.347 326.942C165.886 327.252 171.372 327.466 176.925 327.413C174.939 329.73 172.979 332.056 170.853 334.244C164.846 336.553 158.457 336.422 152.121 336.818Z" fill="#5396B3"/>
<path d="M190.766 316.077C191.818 316.759 192.24 316.928 192.831 318.064C193.006 320.816 190.665 323.062 188.972 324.985C188.555 325.459 188.139 325.924 187.7 326.38L185.416 328.979C182.563 331.259 180.172 332.73 176.458 333.004C174.594 333.433 172.725 333.847 170.854 334.245C172.979 332.057 174.939 329.73 176.925 327.414C179.705 324.304 182.023 320.378 184.431 316.95L184.769 316.8L186.89 316.545L189.731 317.011L190.766 316.077Z" fill="#634849"/>
<path d="M190.765 316.077C191.817 316.759 192.239 316.928 192.83 318.064C193.004 320.816 190.664 323.062 188.97 324.985C188.554 325.459 188.137 325.924 187.699 326.38L185.414 328.979C182.562 331.259 180.17 332.73 176.457 333.004L180.913 328.578C183.451 326.041 189.73 320.601 189.73 317.011L190.765 316.077Z" fill="#77C1DD"/>
<path d="M167.078 318.152C172.829 317.347 178.636 317.062 184.431 316.95C182.023 320.378 179.705 324.304 176.926 327.414C171.373 327.466 165.887 327.253 160.348 326.943C162.265 324.289 164.259 321.684 166.218 319.061L167.078 318.152Z" fill="#BDA0B1"/>
<path d="M21.712 101.799C22.1695 94.9009 22.1233 86.6228 24.8955 80.2217C26.7493 94.4384 27.0447 111.24 31.8316 124.703L32.1996 124.862L32.6846 121.24C33.631 129.263 35.0865 136.755 37.4164 144.516C39.2228 150.466 41.202 156.359 43.3539 162.193C46.8186 171.772 53.703 185.474 49.7995 195.621C46.9413 203.05 42.5285 209.526 38.6238 216.402C37.3301 218.682 36.1311 221.01 35.0268 223.387C33.9226 225.764 32.9168 228.182 32.0094 230.642C31.1021 233.101 30.2962 235.593 29.5918 238.117C28.887 240.642 28.2861 243.191 27.7891 245.765C26.8596 250.661 26.2874 255.623 25.2707 260.496C23.8715 267.203 21.855 274.039 21.168 280.857C18.0639 294.383 24.5247 309.988 29.9581 322.032C24.4161 318.156 19.5397 313.75 15.6035 308.217C12.2665 303.526 9.86346 298.336 7.88973 292.945C-1.55075 267.156 9.55796 243.206 23.0939 221.173C28.8564 211.792 37.0366 201.229 38.3425 189.998C40.4512 171.87 21.8319 154.479 19.0581 136.432C17.3274 125.171 19.8486 112.926 21.712 101.799Z" fill="#634849"/>
<path d="M21.7117 101.799C22.1691 94.9009 22.123 86.6228 24.8951 80.2217C26.749 94.4384 27.0444 111.24 31.8313 124.703L32.1993 124.862L32.6843 121.24C33.6306 129.263 35.0862 136.755 37.416 144.516C39.2225 150.466 41.2017 156.359 43.3536 162.193C46.8183 171.772 53.7027 185.474 49.7991 195.621C46.9409 203.05 42.5282 209.526 38.6234 216.402C37.3298 218.682 36.1308 221.01 35.0265 223.387C33.9222 225.764 32.9164 228.182 32.0091 230.642C31.1018 233.101 30.2959 235.593 29.5915 238.117C28.8867 240.642 28.2858 243.191 27.7888 245.765C26.8593 250.661 26.2871 255.623 25.2704 260.496C23.8711 267.203 21.8546 274.039 21.1677 280.857L20.7361 280.806C19.3306 278.407 19.3194 273.689 19.1939 270.852C18.4709 254.464 22.1838 233.937 30.1833 219.516C36.0708 208.902 47.8659 199.759 48.2907 186.927C48.4043 183.511 47.7528 180.074 46.5876 176.869C44.6853 171.638 41.4822 166.682 39.0224 161.683C35.3945 154.31 32.2561 146.441 29.5442 138.692C25.2912 126.541 22.9428 114.569 21.7117 101.799Z" fill="#AB685C"/>
<path d="M219.572 58.041C220.838 60.8598 222.599 64.1496 221.811 67.3335C224.202 69.7253 224.231 74.0413 224.225 77.2579C224.219 79.4375 224.354 81.9385 223.809 84.0545C224.849 87.3758 225.198 96.9175 223.634 100.097C225.367 103.716 224.427 116.245 223.038 120.095C222.886 120.515 222.616 120.902 222.357 121.261L222.239 121.431C223.274 126.027 212.967 170.12 210.609 173.939C210.339 174.369 210.001 174.729 209.624 175.061C212.061 178.732 212.151 186.572 211.144 190.807C211.121 190.9 211.087 190.99 211.059 191.082C212.128 192.255 212.922 193.68 212.848 195.318C212.832 195.728 212.758 196.133 212.68 196.535C217.845 202.168 224.157 241.112 223.859 249.71C223.842 250.204 223.764 250.703 223.679 251.189C225.598 255.348 225.063 271.06 223.51 275.468C223.353 275.917 223.15 276.148 222.852 276.508C223.505 278.809 222.61 289.146 221.378 291.176C221.226 291.43 221.001 291.627 220.793 291.833C222.228 295.527 218.593 309.61 216.916 313.353C216.674 313.897 216.376 314.413 216.078 314.929C216.849 318.324 214.007 324.874 216.68 327.138C216.669 327.238 216.652 327.338 216.641 327.438C216.314 330.541 218.424 334.16 215.639 336.396C209.113 341.638 190.422 342.176 182.258 342.039C190.967 339.76 200.183 340.408 208.927 337.744C211.464 336.971 215.954 335.926 217.231 333.533L216.871 332.857C214.306 330.929 210.125 330.542 207.003 329.998C201.691 329.687 189.87 330.608 185.414 328.978L187.699 326.379C188.137 325.924 188.554 325.458 188.97 324.984C190.664 323.062 193.004 320.815 192.83 318.064C193.398 317.823 193.949 317.543 194.439 317.165C197.359 314.905 202.35 307.603 202.749 303.94C205.005 301.364 208.6 292.991 208.37 289.458C208.578 289.182 208.606 289.166 208.786 288.804C211.498 283.296 212.37 267.456 210.317 261.669L211.487 260.872C211.644 260.341 211.774 259.804 211.841 259.252C212.657 252.248 210.091 244.83 209.259 237.954C208.764 233.823 210.013 229.521 209.551 225.352C207.768 209.328 202.563 194.288 198.169 178.901C197.05 174.966 196.076 167.733 193.572 164.604C194.056 164.314 194.512 163.981 194.895 163.562C205.872 151.561 209.405 118.844 208.831 103.099C208.544 95.1869 206.507 72.8198 200.639 67.3673C204.589 65.3058 217.288 62.4296 219.42 59.8904C219.921 59.2918 219.662 58.7741 219.572 58.041Z" fill="#634849"/>
<path d="M211.07 72.8428C213.929 71.9628 220.298 69.9244 221.811 67.334C224.202 69.7258 224.23 74.0417 224.225 77.2583C224.219 79.438 224.354 81.9389 223.808 84.055L223.454 83.9864L223.392 84.226C221.918 89.7101 218.48 94.3574 216.669 99.6935C215.408 103.392 215.813 108.724 213.703 111.707C213.929 111.023 214.075 110.376 214.154 109.661C214.806 103.767 214.232 76.8381 211.07 72.8428Z" fill="#AB685C"/>
<path d="M213.704 111.707C215.814 108.724 215.409 103.392 216.669 99.6935C218.481 94.3574 221.919 89.71 223.393 84.226L223.455 83.9863L223.809 84.055C224.85 87.3762 225.199 96.918 223.635 100.097C225.368 103.717 224.428 116.245 223.038 120.096C222.886 120.516 222.616 120.903 222.358 121.261L222.239 121.431C221.795 122.734 221.435 122.821 220.349 123.604C220.568 122.354 220.765 121.906 220.304 120.698L217.682 119.546C217.671 121.73 217.626 127.009 215.842 128.514C215.499 128.805 215.111 129.034 214.706 129.235C214.835 127.071 215.792 125.432 216.135 123.388C216.309 122.362 216.275 122.11 215.668 121.299C214.301 122.032 214.171 123.15 212.691 123.953C215.105 120.198 214.312 115.857 213.704 111.707Z" fill="#F2AF7A"/>
<path d="M217.683 119.545C217.604 119.171 217.559 119.029 217.542 118.668C217.368 115.289 220.401 100.382 222.51 97.9654L222.657 98.0048L222.966 97.7949C223.186 98.4673 223.619 99.4086 223.636 100.097C225.369 103.717 224.429 116.245 223.039 120.096C222.887 120.515 222.617 120.902 222.359 121.261L222.24 121.431C221.796 122.734 221.436 122.821 220.35 123.604C220.569 122.353 220.766 121.906 220.305 120.698L217.683 119.545Z" fill="#F8C279"/>
<path d="M208.372 289.458L209.452 290.286C209.356 293.342 208.338 296.302 207.916 299.332C206.881 306.809 206.757 320.311 203.73 326.756C205.08 327.426 206.695 327.959 207.421 329.343L207.004 329.998C201.693 329.688 189.872 330.608 185.416 328.979L187.7 326.379C188.139 325.924 188.556 325.458 188.972 324.985C190.665 323.062 193.006 320.815 192.832 318.064C193.4 317.824 193.951 317.544 194.441 317.165C197.361 314.906 202.351 307.604 202.751 303.94C205.007 301.364 208.602 292.991 208.372 289.458Z" fill="#412B31"/>
<path d="M202.75 303.94L203.853 304.73C204.342 308.803 200.117 322.545 197.5 325.721C197.32 325.936 197.219 326.015 197.005 326.217C194.079 326.588 190.625 326.904 187.699 326.38C188.138 325.924 188.554 325.458 188.971 324.985C190.664 323.062 193.005 320.816 192.83 318.064C193.399 317.824 193.95 317.544 194.44 317.165C197.36 314.906 202.35 307.604 202.75 303.94Z" fill="#1D1419"/>
<path d="M217.683 119.546L220.305 120.698C220.766 121.907 220.569 122.354 220.35 123.604C221.436 122.822 221.796 122.734 222.24 121.431C223.275 126.027 212.968 170.121 210.611 173.94C210.34 174.37 210.003 174.73 209.626 175.061C207.195 171.618 203.594 168.785 199.791 167.016C200.095 166.729 200.32 166.517 200.534 166.155C204.68 159.189 214.712 131.124 212.692 123.954C214.172 123.15 214.301 122.033 215.669 121.3C216.276 122.11 216.31 122.362 216.136 123.388C215.792 125.432 214.836 127.072 214.707 129.235C215.112 129.034 215.5 128.805 215.843 128.514C217.627 127.01 217.672 121.731 217.683 119.546Z" fill="#AB685C"/>
<path d="M217.682 119.546L220.304 120.698C220.766 121.907 220.569 122.354 220.349 123.604C220.681 132.059 216.906 150.125 211.122 156.337C210.813 156.673 210.486 156.989 210.154 157.308C212.889 152.977 215.398 134.507 214.706 129.235C215.111 129.034 215.499 128.805 215.843 128.514C217.626 127.01 217.671 121.731 217.682 119.546Z" fill="url(#paint4_linear_120_37397)"/>
<path d="M211.837 321.076C214.954 315.857 212.54 305.14 212.624 299.107C212.748 289.998 215.027 280.978 215.246 271.826C215.443 263.717 214.684 255.898 214.037 247.853C213.671 243.301 213.637 238.729 213.193 234.182C212.411 226.227 211.111 218.289 210.053 210.364C209.395 205.423 208.219 199.744 209.046 194.8C209.299 193.277 209.783 191.982 211.06 191.083C212.129 192.256 212.923 193.681 212.849 195.319C212.833 195.729 212.759 196.134 212.681 196.536C217.846 202.169 224.158 241.113 223.86 249.711C223.843 250.205 223.765 250.704 223.68 251.189C225.599 255.349 225.064 271.061 223.511 275.468C223.354 275.918 223.151 276.149 222.853 276.509C223.506 278.81 222.611 289.147 221.379 291.177C221.227 291.43 221.002 291.627 220.794 291.834C222.229 295.528 218.594 309.61 216.917 313.354C216.675 313.898 216.377 314.414 216.079 314.93C215.213 317.578 213.873 319.227 211.837 321.076Z" fill="#94623E"/>
<path d="M216.247 231.588C217.598 223.303 209.721 204.172 212.68 196.535C217.845 202.168 224.158 241.113 223.86 249.711C223.843 250.205 223.764 250.704 223.68 251.189C225.598 255.349 225.064 271.06 223.511 275.468C223.353 275.918 223.151 276.149 222.853 276.509C223.505 278.81 222.611 289.147 221.379 291.177C221.227 291.43 221.002 291.627 220.793 291.833C220.805 291.992 220.816 292.151 220.816 292.31C220.923 295.64 219.117 301.674 216.872 304.018C217.116 303.329 217.335 302.633 217.53 301.929C218.537 298.23 219.291 291.5 217.356 288.105C218.582 284.673 218.56 252.626 218.278 247.23C218.02 242.153 217.811 236.456 216.247 231.588Z" fill="#F8C279"/>
<path d="M216.248 231.588C217.705 232.549 217.868 233.146 218.245 234.848C220.293 244.02 221.436 278.707 218.566 286.951L217.356 288.105C218.583 284.673 218.56 252.625 218.279 247.23C218.02 242.153 217.812 236.456 216.248 231.588Z" fill="#E88F70"/>
<path d="M117.02 242.571C118.022 243.793 118.913 244.402 120.277 245.119C121.095 246.561 126.203 248.676 127.787 249.753L127.894 247.127C135.547 252.438 140.865 257.957 145.685 265.934C153.738 266.193 161.495 267.026 169.447 268.352C172.368 268.962 175.501 269.404 178.281 270.499C178.658 282.95 177.808 294.369 172.794 305.936C171.013 310.047 168.717 313.996 167.077 318.152L166.217 319.061C164.258 321.684 162.263 324.289 160.347 326.943C157.562 330.199 154.82 333.491 152.121 336.818C144.094 338.352 97.3498 339.064 90.44 336.735C84.6837 336.563 78.9667 336.591 73.3803 334.999C69.7069 335.18 66.0621 334.624 62.4213 334.195C60.2771 333.951 57.968 333.852 55.9684 333.003C54.0543 333.53 52.17 333.64 50.1963 333.764C49.5048 333.507 48.8224 333.214 48.2226 332.778C39.2119 326.229 29.1936 305.56 27.6318 294.693C27.3836 292.969 27.1338 291.935 28.2068 290.538L28.2957 290.188L31.9089 288.695L32.1469 288.929L38.4462 286.419L38.7613 286.495C46.4508 283.023 54.8651 280.578 62.8928 278.008L63.2152 277.806C72.5088 274.963 77.9917 268.589 86.658 265.984C90.049 264.964 93.8254 264.792 97.3385 264.438C97.834 262.887 98.4058 261.365 99.054 259.872C99.7018 258.379 100.423 256.922 101.217 255.501C104.517 249.67 108.397 246.428 114.834 244.642C115.359 244.552 115.888 244.291 116.388 244.099L117.02 242.571Z" fill="#634849"/>
<path d="M117.02 242.571C118.023 243.793 118.914 244.402 120.278 245.119C121.096 246.561 126.204 248.676 127.788 249.753L127.895 247.127C135.548 252.438 140.866 257.957 145.686 265.934C146.896 268.491 146.241 271 146.015 273.784L145.587 274.17L145.206 273.346L145.056 273.763C142.921 279.779 144.345 282.003 137.66 285.208C133.933 286.995 127.459 289.136 123.345 287.725C122.97 287.596 122.619 287.429 122.268 287.248C122.101 286.407 122.013 286.396 121.311 285.897C117.103 282.907 112.207 281.801 107.628 277.953C105.749 276.375 104.487 274.601 103.258 272.495C103.261 260.698 107.46 253.378 114.835 244.642C115.36 244.552 115.889 244.291 116.389 244.099L117.02 242.571Z" fill="#AB685C"/>
<path d="M127.893 247.127C135.547 252.438 140.865 257.957 145.685 265.934C146.895 268.491 146.24 271 146.014 273.784L145.586 274.17L145.205 273.346C141.324 263.31 135.572 257.048 127.787 249.753L127.893 247.127Z" fill="#F2AF7A"/>
<path d="M38.7613 286.495C46.4508 283.023 54.8651 280.578 62.8928 278.008C64.4715 284.121 66.1105 290.267 68.2412 296.216C71.1416 297.268 74.0234 297.877 77.0763 298.239C78.7524 298.438 86.9348 298.769 87.8041 299.308C87.9616 299.406 88.0275 299.605 88.1389 299.754L89.4267 299.664L89.4374 299.758C83.065 300.775 75.547 299.383 69.4407 297.491C70.4889 300.237 71.4381 303.082 72.8942 305.642C77.2147 305.513 84.4879 304.591 88.3808 306.276C83.1938 306.822 78.0294 305.827 72.8104 306.11C72.2404 309.433 76.0517 314.466 77.9641 317.163C80.6586 320.963 83.5449 324.586 86.8313 327.893C89.4301 330.509 93.1773 332.964 95.1178 336.055L94.8641 336.631C93.3838 336.715 91.9231 336.753 90.44 336.735C84.6837 336.563 78.9667 336.591 73.3803 334.999C69.7069 335.18 66.0621 334.624 62.4213 334.195C60.2771 333.951 57.968 333.852 55.9684 333.003C54.0543 333.53 52.17 333.64 50.1963 333.764C49.5048 333.507 48.8224 333.214 48.2226 332.778C39.2119 326.229 29.1936 305.56 27.6318 294.693C27.3836 292.969 27.1338 291.935 28.2068 290.538L28.2957 290.188L31.9089 288.695L32.1469 288.929L38.4462 286.419L38.7613 286.495Z" fill="#412B31"/>
<path d="M38.4462 286.419L38.7613 286.495C47.3201 305.398 58.8682 320.377 73.3803 334.999C69.7069 335.18 66.0621 334.624 62.4213 334.195C60.2771 333.952 57.968 333.853 55.9684 333.003C54.0543 333.53 52.17 333.64 50.1963 333.764C49.5048 333.508 48.8224 333.215 48.2226 332.779C39.2119 326.229 29.1936 305.56 27.6318 294.693C27.3836 292.969 27.1338 291.935 28.2068 290.538L28.2957 290.188L31.9089 288.695L32.1469 288.929L38.4462 286.419Z" fill="#5396B3"/>
<path d="M28.2959 290.188L31.9092 288.695L32.1472 288.929C38.8448 306.652 50.87 319.608 62.4215 334.195C60.2773 333.952 57.9683 333.853 55.9687 333.003C43.886 317.542 36.5504 308.891 28.207 290.538L28.2959 290.188Z" fill="#B7EEF7"/>
<path d="M50.1963 333.764C49.5048 333.508 48.8224 333.215 48.2226 332.779C39.2119 326.229 29.1936 305.56 27.6318 294.693C27.3836 292.969 27.1338 291.935 28.2068 290.538C36.5501 308.891 43.8858 317.542 55.9684 333.003C54.0543 333.53 52.17 333.64 50.1963 333.764Z" fill="#1D1419"/>
<path d="M145.685 265.935C153.738 266.193 161.496 267.026 169.447 268.353C172.369 268.963 175.502 269.404 178.281 270.499C178.658 282.95 177.808 294.369 172.795 305.936C171.013 310.047 168.718 313.997 167.078 318.152L166.218 319.061C163.795 318.11 159.246 319.948 157.47 318.653L158.273 318.573C157.373 318.853 156.957 319.185 156.077 318.79L157.466 318.414L157.358 317.86C149.049 311.801 128.777 314.966 117.351 308.889C115.701 308.01 114.957 307.179 114.42 305.405C116.073 298.477 132.622 300.124 136.782 296.339C134.863 295.393 131.97 295.584 129.807 295.448C118.873 294.764 100.219 295.953 90.8265 290.015C89.5712 289.222 89.4041 288.758 89.0547 287.397C89.3186 286.64 89.3765 286.105 90.0309 285.6C94.9866 281.771 115.573 286.192 122.267 287.248C122.618 287.429 122.969 287.596 123.344 287.725C127.458 289.137 133.933 286.995 137.66 285.208C144.345 282.003 142.92 279.779 145.056 273.763L145.206 273.347L145.587 274.17L146.015 273.784C146.241 271.001 146.895 268.491 145.685 265.935Z" fill="url(#paint5_linear_120_37397)"/>
<path d="M36.1108 89.8297C36.3904 88.4766 36.494 87.2444 37.5196 86.2373C38.1611 87.8003 36.867 93.7103 36.7483 95.7076C36.6654 97.2121 36.6646 98.7166 36.746 100.221C36.8274 101.726 36.9904 103.221 37.235 104.708C40.1213 121.704 56.3854 138.609 68.7595 149.478C72.501 152.764 77.1811 157.069 81.8194 159.009C82.1019 159.127 82.3871 159.238 82.6746 159.343L83.0887 159.399C85.9891 162.412 89.5079 164.262 92.7712 166.801C96.2843 171.271 102.34 177.35 101.544 183.451C100.747 189.565 93.5802 195.029 88.8929 198.479C79.8631 205.124 69.7424 210.285 60.8702 217.086C45.6205 228.94 31.6592 245.389 29.2095 265.255C28.2249 273.242 29.2742 281.114 31.909 288.695L28.2958 290.188C22.2908 279.738 24.9892 267.491 27.6994 256.652C35.1369 240.744 44.9026 227.42 58.2596 215.9C67.6494 207.753 77.9592 200.836 87.9212 193.43C94.0748 188.856 95.2974 186.919 96.3805 179.474C91.8293 169.972 81.6912 165.498 73.4063 159.832C69.339 157.051 65.503 153.858 61.8379 150.57C50.3461 140.261 36.3285 124.714 35.318 108.459C34.9287 102.195 36.4405 96.0818 36.1108 89.8297Z" fill="#F8F7F8"/>
<path d="M48.8623 55.3408L59.5507 56.5904C66.5825 56.9798 73.7668 57.2482 80.7362 58.2789C72.1881 68.3698 66.4998 78.9975 63.6911 91.942C63.7148 96.4499 63.9061 101.028 63.6866 105.527L63.4003 105.814C64.9605 112.327 66.1482 119.407 69.2421 125.386L60.1887 122.119C61.2021 125.194 62.172 128.286 63.4132 131.278L63.6698 131.435L67.669 138.492L68.9417 139.701C72.955 145.316 78.3659 149.642 82.4332 155.128C83.2164 156.391 83.9843 157.495 84.9898 158.598L84.7388 159.122L83.0886 159.399L82.6745 159.343C82.387 159.237 82.1018 159.127 81.8193 159.009C77.1809 157.068 72.5009 152.764 68.7594 149.477C56.3853 138.609 40.1212 121.703 37.2348 104.708C36.9903 103.221 36.8273 101.725 36.7459 100.221C36.6645 98.7162 36.6652 97.2117 36.7481 95.7072C36.8669 93.7099 38.1609 87.7999 37.5195 86.2369C36.4938 87.244 36.3903 88.4762 36.1107 89.8293C35.9233 88.1977 36.024 86.6797 35.0585 85.3282C34.0739 85.9511 34.0441 86.6004 33.805 87.6998C33.4534 89.3162 33.3037 91.0221 33.1023 92.6645C33.0347 92.3228 32.982 91.9786 32.9442 91.632C31.2984 77.224 40.6433 65.9426 48.8623 55.3408Z" fill="#77C1DD"/>
<path d="M57.9316 135.151C60.9226 136.382 64.4599 138.255 67.6692 138.492L68.9419 139.701C72.9552 145.316 78.3661 149.642 82.4334 155.128C83.2166 156.391 83.9845 157.495 84.99 158.598L84.739 159.122L83.0888 159.399L82.6747 159.343C75.0527 150.705 65.6038 143.888 57.9316 135.151Z" fill="#AB685C"/>
<path d="M63.4003 105.814C64.9605 112.327 66.1482 119.407 69.2421 125.386L60.1888 122.119C61.2021 125.194 62.172 128.286 63.4132 131.278L63.6698 131.435L67.669 138.492C64.4597 138.255 60.9224 136.382 57.9314 135.151C53.8022 131.485 50.0151 127.467 47.6554 122.416C45.8488 120.163 44.2841 117.795 42.707 115.38C48.8071 110.071 55.7805 107.94 63.4003 105.814Z" fill="#AB685C"/>
<path d="M47.6562 122.416C52.967 125.287 57.9846 128.621 63.414 131.278L63.6706 131.436L67.6698 138.493C64.4605 138.255 60.9232 136.382 57.9322 135.152C53.803 131.486 50.0159 127.467 47.6562 122.416Z" fill="#BDA0B1"/>
<path d="M59.5509 56.5908C66.5827 56.9802 73.767 57.2485 80.7364 58.2793C72.1883 68.3702 66.5 78.9978 63.6913 91.9424C55.7863 95.6024 47.8385 98.8736 39.5801 101.657C40.8117 90.8762 42.9216 77.9603 49.5815 69.0161C52.7632 64.7434 56.5273 61.0131 59.5509 56.5908Z" fill="#5396B3"/>
<path d="M92.7715 166.801C102.833 171.965 111.659 180.327 115.166 191.319C118.934 203.127 116.245 228.843 117.02 242.572L116.388 244.1C115.889 244.291 115.36 244.553 114.834 244.643C108.398 246.428 104.518 249.67 101.217 255.501C100.423 256.922 99.7022 258.379 99.0544 259.872C98.4063 261.365 97.8344 262.887 97.339 264.438C93.8259 264.792 90.0494 264.965 86.6584 265.984C77.9921 268.589 72.5092 274.963 63.2156 277.807L62.8932 278.008C54.8655 280.578 46.4513 283.024 38.7617 286.495L38.4466 286.419L32.1473 288.93L31.9094 288.696C29.2745 281.114 28.2252 273.242 29.2098 265.255C31.6595 245.389 45.6208 228.94 60.8705 217.086C69.7428 210.285 79.8635 205.124 88.8932 198.479C93.5806 195.029 100.747 189.565 101.545 183.451C102.34 177.35 96.2846 171.271 92.7715 166.801Z" fill="#77C1DD"/>
<path d="M96.7333 198.013L97.1193 198.659C93.9623 204.342 88.4935 209.851 84.3829 214.971C78.0706 213.583 72.5939 214.649 66.3818 215.88L65.3398 215.887C66.3458 213.822 81.8825 207.233 85.1964 205.37C89.1816 203.129 92.8263 200.384 96.7333 198.013Z" fill="#5396B3"/>
<path d="M55.0021 226.387C59.2325 232.24 63.8512 234.273 70.4712 236.532C68.954 239.618 67.6044 242.775 66.4225 246.004C65.2409 249.233 64.2336 252.516 63.4006 255.853C61.8618 262.02 59.7912 272.078 63.2149 277.807L62.8925 278.008C54.8648 280.578 46.4505 283.023 38.761 286.495L38.4459 286.419C38.0172 281.428 34.7112 275.873 34.1164 270.206C32.0662 250.672 43.881 240.141 55.0021 226.387Z" fill="#5396B3"/>
<path d="M190.474 56.7871C196.179 60.8268 200.956 80.4004 202.165 87.3518C202.908 91.6352 204.028 96.7945 202.542 100.977C204.545 104.473 204.202 110.948 203.274 114.769C203.06 115.649 202.717 116.343 202.126 117.03C202.846 120.7 199.707 126.154 197.72 129.071C197.501 129.398 197.484 129.409 197.27 129.67C198.626 128.859 199.425 128.291 200.224 126.86C200.348 129.785 200.483 132.873 199.678 135.718C200.978 139.536 195.633 154.483 193.636 158.582C190.929 164.138 185.714 166.34 181.91 170.837C183.835 174.716 190.384 184.003 189.298 188.06C192.612 191.314 206.233 239.111 206.239 244.687C206.239 245.368 205.659 246.103 205.22 246.602C207.927 250.051 210.897 256.355 210.442 260.829C210.413 261.11 210.363 261.39 210.318 261.67C212.371 267.456 211.499 283.297 208.787 288.805C208.607 289.167 208.579 289.183 208.371 289.458C208.602 292.992 205.007 301.364 202.75 303.941C202.351 307.604 197.36 314.906 194.44 317.165C193.951 317.544 193.399 317.824 192.831 318.064C192.24 316.928 191.818 316.759 190.766 316.077L189.731 317.011L186.89 316.545L184.769 316.8L184.431 316.95C178.636 317.062 172.828 317.347 167.078 318.152C168.718 313.997 171.014 310.047 172.795 305.936C177.809 294.369 178.658 282.95 178.281 270.499C175.502 269.404 172.369 268.963 169.447 268.353C161.496 267.026 153.739 266.193 145.686 265.934C140.866 257.957 135.548 252.439 127.894 247.127L127.788 249.754C126.204 248.677 121.095 246.561 120.278 245.119C118.914 244.402 118.022 243.794 117.02 242.572C116.245 228.843 118.934 203.127 115.166 191.319C111.659 180.327 102.833 171.965 92.7717 166.801C89.5084 164.262 85.9897 162.412 83.0893 159.399L84.7395 159.122L84.9905 158.598C83.985 157.495 83.2171 156.391 82.4339 155.129C78.3666 149.642 72.9557 145.316 68.9424 139.702L67.6697 138.493L63.6705 131.436L63.4139 131.278C62.1727 128.286 61.2028 125.194 60.1895 122.119L69.2428 125.386C66.1489 119.407 64.9612 112.327 63.401 105.815L63.6874 105.528C63.9068 101.028 63.7155 96.4502 63.6919 91.9424C66.5005 78.9978 72.1888 68.3701 80.7369 58.2792L96.5577 59.0619C108.774 58.8857 121.027 59.9283 133.279 59.7291C149.534 59.4653 165.71 57.981 181.933 57.5258C184.819 57.4386 187.615 57.1601 190.474 56.7871ZM197.27 129.67C195.841 136.445 172.749 156.858 166.614 160.871C159.365 165.57 144.993 171.895 143.215 180.673C142.61 183.662 143.538 186.427 145.261 188.872C148.575 193.578 154.202 197.625 158.931 200.819C159.544 201.003 160.146 201.159 160.786 201.223C163.86 201.531 185.747 193.043 188.437 190.512C189.365 189.639 189.225 189.288 189.298 188.06C190.384 184.003 183.835 174.716 181.91 170.837C185.714 166.34 190.929 164.138 193.636 158.582C195.633 154.483 200.978 139.536 199.678 135.718C200.483 132.873 200.348 129.785 200.224 126.86C199.425 128.291 198.626 128.859 197.27 129.67ZM189.298 188.06C189.225 189.288 189.365 189.639 188.437 190.512C185.747 193.043 163.86 201.531 160.786 201.223C160.146 201.159 159.544 201.003 158.931 200.819C174.348 212.328 191.166 223.863 201.957 240.14C203.077 241.833 204.9 244.136 205.181 246.148C205.203 246.298 205.209 246.45 205.22 246.602C205.659 246.103 206.239 245.368 206.239 244.687C206.233 239.111 192.612 191.314 189.298 188.06Z" fill="#F8F7F8"/>
<path d="M200.623 279.07C208.99 267.471 194.232 246.675 195.25 241.372C200.927 244.624 205 254.985 206.666 261.112C208.011 266.064 209.912 275.446 207.223 280.021C206.84 280.677 206.261 281.131 205.597 281.489C204.533 280.105 202.215 279.617 200.623 279.07Z" fill="#77C1DD"/>
<path d="M176.896 65.6844C178.809 65.1038 181.504 65.2501 183.53 65.1055C191.238 80.4683 196.094 89.713 196.758 107.439C196.87 110.474 197.337 114.03 196.566 116.978C196.172 117.399 195.835 117.781 195.345 118.099C194.496 116.639 193.185 116.515 191.694 116.093C191.002 115.163 189.983 114.865 188.948 114.439L188.599 113.936C188.869 113.38 189.033 112.876 189.156 112.271C191.744 99.8809 189.218 80.924 182.185 70.2215C180.767 68.0638 179.49 66.1998 176.896 65.6844Z" fill="#77C1DD"/>
<path d="M190.472 56.7871C196.178 60.8268 200.954 80.4004 202.164 87.3518C202.907 91.6352 204.026 96.7945 202.541 100.977L202.519 99.9363C200.819 102.001 201.208 105.374 199.632 107.719C199.762 107.499 199.807 107.441 199.913 107.181C201.213 104.136 199.12 98.0599 198.034 95.1196C198.192 94.4039 198.272 93.6798 198.276 92.9472C198.282 85.7815 189.73 69.8296 184.621 64.8756L187.333 63.8758C185.859 61.6674 183.546 59.7556 181.932 57.5258C184.818 57.4386 187.614 57.1601 190.472 56.7871Z" fill="#77C1DD"/>
<path d="M187.333 63.875C189.814 64.4562 191.767 67.4545 193.021 69.4896C196.701 75.4479 201.399 86.5183 199.801 93.5496C199.576 94.555 199.531 94.6546 198.681 95.2088L198.034 95.1188C198.192 94.4031 198.273 93.679 198.276 92.9465C198.282 85.7807 189.73 69.8288 184.621 64.8748L187.333 63.875Z" fill="#5396B3"/>
<path d="M186.383 128.618C189.337 128.15 192.364 126.03 194.924 124.523L194.783 125.883C194.958 127.519 194.744 128.29 193.686 129.621C192.792 130.742 191.813 131.807 190.851 132.874C191.081 134.714 189.956 136.078 188.893 137.456C182.687 145.5 173.389 152.885 165.088 158.72C152.992 166.133 140.101 171.977 132.223 184.272C132.228 190.919 133.122 202.227 138.132 207.126C138.619 207.602 139.144 208.023 139.677 208.445C135.581 209.659 127.174 206.279 124.382 210.168C124.176 206.768 124.587 203.097 125.161 199.744C129.2 176.155 149.149 165.546 166.96 152.91C173.117 144.939 181.64 138.621 186.13 129.369L186.383 128.618Z" fill="#77C1DD"/>
<path d="M186.382 128.618C189.336 128.15 192.363 126.03 194.923 124.523L194.782 125.883C194.957 127.519 194.743 128.29 193.685 129.621C192.791 130.742 191.812 131.807 190.85 132.874C187.924 139.391 174.049 150.208 167.49 152.716C167.313 152.784 167.136 152.845 166.959 152.91C173.116 144.939 181.639 138.621 186.129 129.369L186.382 128.618Z" fill="#E0B3AA"/>
<path d="M186.13 129.369C181.64 138.621 173.117 144.94 166.959 152.91C149.148 165.546 129.199 176.155 125.16 199.744C124.586 203.097 124.176 206.768 124.381 210.168C124.245 221.729 123.819 233.415 124.427 244.96L127.894 247.127L127.787 249.753C126.204 248.676 121.095 246.561 120.277 245.119C121.94 241.724 120.953 218.637 120.86 213.185C122.708 206.477 122.157 199.379 124.488 192.597C127.895 182.685 134.032 175.371 140.339 167.206C148.164 157.077 156.419 147.268 162.974 136.245L163.653 135.493L163.958 133.89L164.528 133.653L174.494 132.338C176.002 131.459 178.174 131.24 179.89 130.888C182.011 130.636 184.082 129.957 186.13 129.369Z" fill="#E88F70"/>
<path d="M164.529 133.653L174.495 132.338C172.518 134.539 168.199 135.773 165.316 135.903C164.678 135.931 164.212 135.801 163.654 135.493L163.959 133.89L164.529 133.653Z" fill="#F8908E"/>
<path d="M176.898 65.6846C179.491 66.1999 180.769 68.064 182.186 70.2217C189.219 80.9242 191.746 99.8811 189.158 112.271C189.034 112.876 188.871 113.38 188.601 113.936C183.165 112.524 177.218 112.911 171.655 112.195C173.036 94.6294 170.952 83.1646 163.854 67.1654C168.226 66.8217 172.552 66.2748 176.898 65.6846Z" fill="#F8F7F8"/>
<path d="M171.653 112.195C177.216 112.911 183.164 112.524 188.599 113.937L188.947 114.44C189.983 114.866 191.001 115.163 191.693 116.094C193.184 116.515 194.495 116.639 195.345 118.099C196.222 119.279 196.841 119.875 196.695 121.473C196.577 122.738 195.755 125.058 194.782 125.883L194.923 124.524C192.363 126.03 189.336 128.151 186.382 128.618L186.129 129.369C184.081 129.957 182.01 130.636 179.889 130.888C178.173 131.241 176.001 131.459 174.493 132.338L164.527 133.653L163.957 133.891C144.059 136.381 125.22 135.652 105.504 131.83C105.625 131.312 105.763 130.796 105.971 130.304C106.947 128.007 108.729 126.962 110.974 126.193C117.194 124.064 123.953 124.802 130.317 123.429C139.958 121.349 149.769 116.747 158.97 113.196C163.128 112.838 167.292 112.592 171.464 112.458L171.653 112.195Z" fill="#F8C279"/>
<path d="M171.654 112.195C177.217 112.911 183.164 112.524 188.599 113.937L188.948 114.44C189.983 114.866 191.002 115.163 191.694 116.094C193.185 116.515 194.496 116.639 195.345 118.099C196.223 119.279 196.842 119.875 196.696 121.473C196.577 122.738 195.756 125.058 194.783 125.883L194.923 124.524C192.363 126.03 189.336 128.151 186.382 128.618L186.129 129.369C184.081 129.957 182.011 130.636 179.89 130.888C178.174 131.241 176.002 131.459 174.494 132.338L164.527 133.653C168.1 127.271 171.098 119.829 171.464 112.458L171.654 112.195Z" fill="#F3E4BF"/>
<path d="M188.949 114.439C189.984 114.865 191.003 115.163 191.695 116.094C193.186 116.515 194.497 116.639 195.346 118.099C196.224 119.279 196.843 119.875 196.697 121.473C196.578 122.738 195.757 125.058 194.784 125.883L194.924 124.524C192.364 126.03 189.337 128.15 186.383 128.618L186.13 129.369C184.082 129.957 182.012 130.636 179.891 130.888C183.728 125.979 185.781 119.788 188.949 114.439Z" fill="#F8C279"/>
<path d="M191.694 116.094C193.185 116.515 194.496 116.639 195.346 118.099C196.223 119.279 196.842 119.875 196.696 121.473C196.578 122.738 195.756 125.058 194.783 125.883L194.924 124.524C192.364 126.03 189.337 128.151 186.383 128.618C187.457 126.488 188.723 124.446 189.888 122.362C190.935 120.477 192.319 118.318 191.694 116.094Z" fill="#F3E4BF"/>
<path d="M60.1895 122.119L69.2428 125.386C77.0832 127.455 84.9432 129.038 92.9366 130.354L105.105 132.096L105.505 131.83C125.222 135.652 144.061 136.381 163.959 133.891L163.654 135.494L162.974 136.245C156.419 147.268 148.164 157.077 140.339 167.207C134.033 175.371 127.896 182.685 124.489 192.597C122.158 199.379 122.709 206.478 120.861 213.185C120.954 218.637 121.941 241.724 120.278 245.119C118.914 244.402 118.022 243.793 117.02 242.571C116.245 228.843 118.934 203.127 115.166 191.319C111.659 180.327 102.833 171.965 92.7717 166.8C89.5085 164.262 85.9897 162.411 83.0893 159.399L84.7395 159.122L84.9905 158.598C83.985 157.495 83.2171 156.391 82.4339 155.128C78.3666 149.642 72.9557 145.316 68.9424 139.702L67.6697 138.492L63.6705 131.435L63.4139 131.278C62.1727 128.286 61.2028 125.194 60.1895 122.119Z" fill="#AB685C"/>
<path d="M60.1895 122.119L69.2428 125.386C77.0832 127.455 84.9432 129.038 92.9366 130.354L105.105 132.096L105.505 131.83C125.222 135.652 144.061 136.381 163.959 133.891L163.654 135.494L162.974 136.245C144.582 139.862 125.075 141.792 106.435 138.874C106.875 142.949 107.706 146.798 108.698 150.77C100.551 148.708 92.5377 146.2 84.4942 143.774C79.5127 142.272 74.1142 140.279 68.9424 139.702L67.6697 138.492L63.6705 131.435L63.4139 131.278C62.1727 128.286 61.2028 125.194 60.1895 122.119Z" fill="#634849"/>
<path d="M60.1895 122.119L69.2428 125.386C77.0832 127.455 84.9432 129.038 92.9366 130.354L105.105 132.096C106.207 133.81 106.182 137.121 106.435 139.165C97.9788 138.205 89.5751 136.906 81.2236 135.269C75.3683 134.073 69.5686 132.37 63.6705 131.435L63.4139 131.278C62.1727 128.286 61.2028 125.194 60.1895 122.119Z" fill="#412B31"/>
<path d="M68.9414 139.701C74.1132 140.279 79.5117 142.272 84.4932 143.774C92.5367 146.2 100.55 148.708 108.697 150.77L109.032 150.96C123.873 154.779 132.211 156.958 147.289 153.041C137.597 160.163 127.47 165.694 115.802 168.825C117.43 174.871 118.856 180.708 119.225 186.988C119.718 195.408 118.695 205.009 120.86 213.184C120.953 218.637 121.94 241.724 120.277 245.119C118.913 244.402 118.021 243.793 117.019 242.571C116.244 228.843 118.933 203.127 115.165 191.319C111.658 180.326 102.832 171.964 92.7708 166.8C89.5075 164.261 85.9887 162.411 83.0883 159.399L84.7385 159.122L84.9895 158.597C83.984 157.495 83.2161 156.391 82.4329 155.128C78.3656 149.642 72.9547 145.316 68.9414 139.701Z" fill="#634849"/>
<path d="M68.9414 139.701C74.1132 140.279 79.5117 142.272 84.4933 143.774C92.5367 146.2 100.55 148.708 108.697 150.77L109.032 150.96C111.008 156.961 113.337 162.75 115.761 168.58C105.664 168.26 97.7501 167.989 89.5373 161.264C87.1545 159.313 84.9754 156.831 82.4329 155.128C78.3656 149.642 72.9547 145.316 68.9414 139.701Z" fill="#412B31"/>
<path d="M152.671 206.861C147.517 201.859 139.031 195.103 138.867 187.442C138.83 185.707 138.77 183.796 139.545 182.211C139.541 182.232 139.53 182.253 139.532 182.273C140.066 185.825 140.733 189.567 142.93 192.495C147.969 199.212 156.684 203.712 163.236 208.876C168.935 213.368 194.643 235.313 195.25 241.372C194.232 246.675 208.99 267.471 200.624 279.07C202.216 279.617 204.534 280.105 205.597 281.489L205.412 283.47C206.318 285.047 206.391 286.316 205.952 288.064C205.625 289.378 204.939 291.238 203.701 291.917C203.594 291.976 203.476 292.016 203.364 292.065C204.489 296.021 201.912 300.434 200.022 303.828C197.749 307.896 194.587 313.34 190.766 316.077L189.731 317.01L186.89 316.545L184.769 316.799L184.431 316.95C178.636 317.061 172.828 317.347 167.078 318.152C168.718 313.996 171.014 310.047 172.795 305.936C177.809 294.369 178.658 282.95 178.281 270.499C175.502 269.404 172.369 268.962 169.447 268.352C161.496 267.026 153.739 266.193 145.685 265.934C140.866 257.957 135.548 252.438 127.894 247.127L124.427 244.96C123.82 233.415 124.245 221.729 124.382 210.168C127.174 206.279 135.581 209.659 139.677 208.445C143.976 207.622 148.318 207.262 152.671 206.861Z" fill="url(#paint6_linear_120_37397)"/>
<path d="M169.446 268.352L170.215 267.844C170.265 267.544 170.316 267.363 170.302 267.07C170.223 265.305 168.72 262.959 167.869 261.398C167.109 260.031 166.318 258.683 165.496 257.352C164.673 256.021 163.821 254.71 162.939 253.419C162.056 252.127 161.145 250.856 160.204 249.607C159.264 248.357 158.295 247.13 157.298 245.924C156.301 244.719 155.278 243.537 154.227 242.378C153.176 241.22 152.099 240.086 150.996 238.977C149.893 237.868 148.765 236.785 147.612 235.728C146.46 234.67 145.284 233.64 144.084 232.637C153.041 236.736 161.409 241.333 169.503 246.956C172.191 254.897 175.934 262.453 178.28 270.499C175.5 269.404 172.368 268.962 169.446 268.352Z" fill="#77C1DD"/>
<path d="M169.504 246.956C170.631 243.366 171.848 239.286 175.457 237.414C177.004 236.61 178.754 236.598 180.369 237.211C187.177 239.788 192.263 248.767 195.042 255.195C198.047 262.145 200.551 271.422 198.778 278.928L200.624 279.07C202.216 279.617 204.534 280.105 205.597 281.489L205.412 283.469C206.318 285.047 206.391 286.316 205.952 288.064C205.625 289.378 204.939 291.238 203.701 291.917C203.594 291.976 203.476 292.015 203.364 292.064C204.489 296.021 201.912 300.433 200.022 303.827C197.749 307.896 194.587 313.34 190.766 316.076L189.731 317.01L186.89 316.545L184.769 316.799L184.431 316.95C178.636 317.061 172.828 317.346 167.078 318.151C168.718 313.996 171.014 310.046 172.795 305.936C177.809 294.368 178.658 282.95 178.281 270.498C175.935 262.453 172.193 254.897 169.504 246.956Z" fill="url(#paint7_linear_120_37397)"/>
<path d="M198.779 278.929L200.624 279.071C202.216 279.618 204.534 280.106 205.598 281.49L205.412 283.47C206.318 285.047 206.391 286.317 205.952 288.065C205.626 289.379 204.939 291.239 203.702 291.918C203.595 291.977 203.477 292.016 203.364 292.065L202.982 291.368L201.204 293.16C199.499 293.902 197.164 293.768 195.318 293.657C195.74 293.084 196.151 292.495 196.483 291.861C197.794 289.331 198.177 286.847 197.383 284.109C198.666 282.611 198.728 280.79 198.779 278.929Z" fill="#F2AF7A"/>
<path d="M198.778 278.929L200.624 279.071C202.216 279.618 204.534 280.106 205.597 281.49L205.412 283.47C202.79 283.425 199.903 283.277 197.383 284.109C198.666 282.611 198.728 280.79 198.778 278.929Z" fill="#F8C279"/>
<path d="M201.202 293.159L202.98 291.367L203.363 292.065C204.488 296.021 201.911 300.434 200.021 303.828C197.748 307.896 194.586 313.34 190.765 316.077L189.73 317.01L186.889 316.545L184.768 316.799C187.446 310.245 196.38 301.108 195.317 293.657C197.162 293.767 199.497 293.901 201.202 293.159Z" fill="#E88F70"/>
<path d="M201.202 293.159L202.98 291.367L203.363 292.065C204.488 296.021 201.911 300.434 200.021 303.828C197.748 307.896 194.586 313.34 190.765 316.077L189.73 317.01L186.889 316.545C186.979 316.488 187.063 316.433 187.147 316.375C187.294 316.278 187.429 316.176 187.575 316.079C192.706 312.61 198.198 303.861 200.634 298.141C201.36 296.44 201.922 294.977 201.202 293.159Z" fill="#AB685C"/>
<path d="M96.5571 59.0614C108.773 58.8853 121.026 59.9279 133.279 59.7287C149.533 59.4648 165.709 57.9806 181.932 57.5254C183.547 59.7551 185.859 61.667 187.334 63.8753L184.622 64.8751L183.53 65.1058C181.505 65.2504 178.81 65.1041 176.897 65.6848C172.551 66.275 168.225 66.8218 163.852 67.1656C170.951 83.1648 173.035 94.6296 171.654 112.195L171.464 112.457C167.293 112.592 163.129 112.838 158.971 113.196C149.77 116.747 139.958 121.349 130.318 123.429C123.954 124.802 117.195 124.063 110.975 126.193C108.73 126.962 106.947 128.007 105.972 130.304C105.764 130.795 105.626 131.312 105.505 131.83L105.104 132.096L92.936 130.354C84.9426 129.038 77.0826 127.454 69.2422 125.386C66.1483 119.406 64.9606 112.327 63.4004 105.814L63.6868 105.527C63.9062 101.027 63.7149 96.4497 63.6913 91.9419C66.4999 78.9973 72.1882 68.3697 80.7363 58.2788L96.5571 59.0614Z" fill="#77C1DD"/>
<path d="M63.692 91.9418C73.4926 87.7878 83.009 84.1076 93.3199 81.3867C92.5288 88.2019 91.7018 95.1134 91.2961 101.961C82.0537 102.126 72.7004 103.526 63.6875 105.527C63.9069 101.027 63.7156 96.4496 63.692 91.9418Z" fill="#B7EEF7"/>
<path d="M96.5575 59.0614C108.773 58.8853 121.027 59.9279 133.279 59.7287C149.534 59.4648 165.71 57.9806 181.933 57.5254C183.547 59.7551 185.86 61.667 187.334 63.8753L184.622 64.8751L183.53 65.1058C181.505 65.2504 178.81 65.1041 176.897 65.6848C172.552 66.275 168.226 66.8218 163.853 67.1656C153.85 68.521 143.872 69.5664 133.939 71.4445C120.338 74.0152 106.918 77.6993 93.5176 81.1421C95.6016 74.6234 97.8639 68.1673 100.305 61.7739L99.5845 61.4892C99.885 60.9811 100.167 60.4252 100.571 59.992C100.623 59.9363 100.682 59.8874 100.737 59.8356L96.5575 59.0614Z" fill="#5396B3"/>
<path d="M91.2954 101.961C112.598 99.8561 141.038 98.4794 158.604 112.891L158.971 113.196C149.77 116.747 139.958 121.349 130.318 123.429C123.954 124.802 117.195 124.064 110.975 126.193C108.73 126.962 106.947 128.007 105.972 130.304C105.764 130.796 105.626 131.312 105.505 131.83L105.104 132.096L92.936 130.354C84.9426 129.038 77.0826 127.455 69.2422 125.386C66.1483 119.407 64.9606 112.327 63.4004 105.814L63.6868 105.528C72.6996 103.526 82.0529 102.126 91.2954 101.961Z" fill="#E88F70"/>
<path d="M63.6868 105.527C72.6996 103.526 82.0529 102.126 91.2954 101.961C91.463 107.443 94.2824 126.848 92.936 130.354C84.9426 129.038 77.0826 127.455 69.2422 125.386C66.1483 119.407 64.9606 112.327 63.4004 105.814L63.6868 105.527Z" fill="#E0B3AA"/>
<defs>
<linearGradient id="paint0_linear_120_37397" x1="116.037" y1="56.9978" x2="125.434" y2="5.32148" gradientUnits="userSpaceOnUse">
<stop stop-color="#8A5C45"/>
<stop offset="1" stop-color="#AF8168"/>
</linearGradient>
<linearGradient id="paint1_linear_120_37397" x1="113.679" y1="329.943" x2="125.121" y2="384.608" gradientUnits="userSpaceOnUse">
<stop stop-color="#30101C"/>
<stop offset="1" stop-color="#3E3334"/>
</linearGradient>
<linearGradient id="paint2_linear_120_37397" x1="156.764" y1="344.022" x2="159.306" y2="356.646" gradientUnits="userSpaceOnUse">
<stop stop-color="#CD976E"/>
<stop offset="1" stop-color="#FFCC85"/>
</linearGradient>
<linearGradient id="paint3_linear_120_37397" x1="122.354" y1="319.733" x2="128.288" y2="351.98" gradientUnits="userSpaceOnUse">
<stop stop-color="#6A5035"/>
<stop offset="1" stop-color="#A5674E"/>
</linearGradient>
<linearGradient id="paint4_linear_120_37397" x1="210.601" y1="148.949" x2="220.952" y2="122.656" gradientUnits="userSpaceOnUse">
<stop stop-color="#CE976A"/>
<stop offset="1" stop-color="#F6CE9A"/>
</linearGradient>
<linearGradient id="paint5_linear_120_37397" x1="123.191" y1="310.766" x2="152.334" y2="257.434" gradientUnits="userSpaceOnUse">
<stop stop-color="#C16A67"/>
<stop offset="1" stop-color="#FFC07B"/>
</linearGradient>
<linearGradient id="paint6_linear_120_37397" x1="124.943" y1="241.789" x2="196.625" y2="231.313" gradientUnits="userSpaceOnUse">
<stop stop-color="#54B0D6"/>
<stop offset="1" stop-color="#6EDFEF"/>
</linearGradient>
<linearGradient id="paint7_linear_120_37397" x1="153.55" y1="293.505" x2="200.139" y2="263.621" gradientUnits="userSpaceOnUse">
<stop stop-color="#FBE1DF"/>
<stop offset="1" stop-color="#F7FDFD"/>
</linearGradient>
</defs>
</svg>
