<svg xmlns="http://www.w3.org/2000/svg" fill="none" viewBox="378.41999999999996 39.644 144.16 821.712" style="max-height: 500px" width="144.16" height="821.712">
<path fill="#0D0C27" d="M65.639 494.118C63.1759 494.373 60.8449 494.3 58.7195 492.879C58.447 492.694 58.185 492.496 57.9334 492.283C57.6818 492.07 57.4422 491.845 57.2144 491.608C56.9866 491.37 56.772 491.121 56.5706 490.86C56.3692 490.6 56.182 490.329 56.0092 490.049C55.8363 489.769 55.6787 489.48 55.5363 489.183C55.3939 488.886 55.2675 488.583 55.1573 488.272C55.0469 487.962 54.9533 487.647 54.8763 487.328C54.7993 487.007 54.7393 486.684 54.6965 486.357C54.3746 484.014 54.8822 481.531 56.3838 479.666C57.916 477.762 59.8938 476.981 62.2504 476.671L61.4058 477.647C58.4639 478.957 56.997 480.421 55.8831 483.478C55.8019 483.702 55.7273 483.927 55.6493 484.152C55.5296 486.027 56.3848 488.015 57.5873 489.446C58.8059 490.895 60.7481 492.287 62.6785 492.429C63.3267 492.476 63.9774 492.469 64.6266 492.461L65.639 494.118Z"/>
<path fill="#040215" d="M427.313 371.204L429.4 371.569L427.488 374.301L426.064 372.934L427.313 371.204Z"/>
<path fill="#0D0C27" d="M398.34 630.905C399.622 630.266 401.131 629.85 402.483 629.356L401.21 630.719C401.751 630.8 402.301 630.915 402.846 630.937C401.817 631.409 400.75 632.008 399.661 632.314C399.418 631.324 399.163 631.428 398.34 630.905Z"/>
<path fill="#E9D8C3" d="M444.612 81.9709C444.391 80.2367 444.941 77.4221 445.955 76.0281L446.451 76.5664C446.196 79.0101 446.031 81.5045 445.668 83.9319L444.612 81.9709Z"/>
<path fill="#A5753C" d="M419.18 279.954L420.556 280.353C418.613 281.828 417.902 287.235 415.191 286.715C414.943 286.668 414.718 286.539 414.481 286.451L415.292 286.104C416.412 284.811 416.002 283.65 416.45 282.16C416.925 280.585 417.808 280.555 419.18 279.954Z"/>
<path fill="#ECE3D8" d="M398.612 236.629L399.793 237.818L399.828 243.898L398.156 245.452C397.194 244.285 396.18 243.08 396.11 241.485C396.02 239.48 397.411 238.051 398.612 236.629Z"/>
<path fill="#8D5A34" d="M506.378 635.759L508.891 639C506.109 640.325 503.22 641.399 500.35 642.512C501.927 639.563 503.187 637.119 506.378 635.759Z"/>
<path fill="#CE9B52" d="M478.362 620.966C479.583 621.23 480.799 621.568 482.051 621.616C483.558 622.986 486.135 624.146 487.139 625.802C482.466 625.37 477.693 623.872 473.009 623.174L473.664 621.713C474.17 621.855 474.981 622.152 475.53 622.159C476.911 622.178 477.309 621.756 478.362 620.966Z"/>
<path fill="#C2843E" d="M447.859 272.77C449.676 272.811 451.459 272.893 453.266 273.092C455.706 273.229 458.148 273.28 460.591 273.244C460.426 273.273 460.262 273.303 460.097 273.331C457.192 273.809 454.272 273.788 451.338 273.861L451.419 274.43L453.454 274.507L453.52 274.934C447.839 275.348 442.014 275.535 436.379 276.34C440.001 272.678 444.696 275.46 447.859 272.77Z"/>
<path fill="#A5753C" d="M486.055 277.608C489.152 279.242 491.232 282.146 494.362 283.636C492.469 284.853 490.683 286.268 488.875 287.606C488.036 284.848 487.241 282.124 486.021 279.504L486.055 277.608Z"/>
<path fill="#B19075" d="M436.846 83.857C438.2 79.1123 440.468 74.4822 442.314 69.8975C444.412 64.6887 446.238 59.2846 448.723 54.2493C448.225 58.8082 447.771 63.3715 447.361 67.9391L446.48 67.2415L446.089 65.3526L445.636 65.3892C444.019 69.9848 440.856 81.1238 436.846 83.857Z"/>
<path fill="#6DCAB6" d="M382.455 686.242L383.813 688.366L381.358 689.615L380.64 688.036L382.455 686.242Z"/>
<path fill="#E0C7AC" d="M407.061 647.901C410.469 645.402 414.069 643.834 418.18 642.917C418.125 646.718 418.2 650.576 417.765 654.355C417.63 654.144 417.492 653.934 417.36 653.72C416.795 652.803 416.575 651.849 416.335 650.812C415.303 650.217 414.112 650.22 412.979 650.512C410.559 651.135 408.583 652.296 407.422 654.523C407.103 655.135 407.152 655.072 406.957 655.7C406.646 653.108 406.91 650.5 407.061 647.901Z"/>
<path fill="#4C6484" d="M424.422 354.671C426.852 356.024 428.165 358.957 428.896 361.546C429.425 363.424 429.634 365.075 429.578 367.036C429.571 367.304 429.569 367.573 429.561 367.841C429.555 368.002 429.543 368.163 429.535 368.324C428.727 369.238 427.863 370.105 427.313 371.205L426.064 372.934C425.524 373.485 424.944 373.995 424.376 374.516L424.012 374.127C423.335 367.794 424.076 361.023 424.422 354.671Z"/>
<path fill="#A5753C" d="M460.592 273.243C469.335 273.097 478.092 273.602 486.055 277.608L486.021 279.504C485.862 279.644 485.715 279.798 485.544 279.922C483.565 281.362 480.873 279.641 478.836 278.895C470.733 275.929 461.995 275.919 453.52 274.934L453.454 274.507L451.42 274.43L451.338 273.86C454.272 273.787 457.193 273.809 460.097 273.33C460.262 273.303 460.426 273.272 460.592 273.243Z"/>
<path fill="#164766" d="M417.508 572.254C417.867 571.42 417.845 571.687 417.897 570.966C417.94 570.385 417.989 569.819 418.059 569.238L419.537 568.214C419.668 576.562 418.376 584.846 419.637 593.159C417.643 593.389 415.693 593.806 413.728 594.2C413.742 587.516 413.862 578.131 417.508 572.254Z"/>
<path fill="#7B786A" d="M407.699 635.684C411.235 634.202 414.898 633.136 418.61 632.204C418.532 635.778 418.389 639.349 418.18 642.917C414.07 643.834 410.469 645.402 407.062 647.901C407.112 643.798 407.311 639.768 407.699 635.684Z"/>
<path fill="#C4A589" d="M475.163 681.857L475.443 680.86C480.948 680.381 487.534 682.348 493.146 682.862C494.272 685.952 495.502 689.042 496.489 692.178C491.361 691.502 480.171 691.072 476.133 689.738C475.645 688.723 475.591 687.878 475.481 686.773L475.163 681.857Z"/>
<path fill="#C2A080" d="M481.029 658.251C480.952 664.128 480.339 669.912 480.066 675.769C474.887 675.029 469.687 674.5 464.464 674.182C464.666 673.578 464.866 672.99 465.125 672.408C468.328 665.228 473.971 661.103 481.029 658.251Z"/>
<path fill="#BEE3D6" d="M463.012 434.774C468.402 427.836 477.878 420.668 484.93 415.174L484.964 423.867C478.842 430.549 472.684 437.699 465.609 443.402L464.462 444.341C464.934 441.925 467.203 439.762 468.43 437.616L468.24 431.271C466.592 432.858 465.205 434.049 463.012 434.774Z"/>
<path fill="#745B53" d="M483.191 632.692C487.621 633.791 492.115 634.917 496.265 636.863C496.146 643.41 496.635 650.705 495.704 657.171C493.46 654.186 491.821 650.93 489.108 648.26C487.248 646.43 485.486 645.046 482.813 645.06C482.996 640.937 483.201 636.82 483.191 632.692Z"/>
<path fill="#E9DCCE" d="M400.966 149.843C413.821 161.733 424.17 174.668 429.325 191.723L429.115 191.868C428.033 191.532 417.344 173.149 415.189 170.396C412.582 166.58 409.083 163.471 405.76 160.296C405.318 161.233 404.842 162.143 404.544 163.137L403.039 161.776C400.488 161.167 397.853 159.814 395.366 158.918C394.521 160.179 393.613 162.038 392.341 162.844L391.998 162.662C394.463 158.124 397.847 153.952 400.966 149.843Z"/>
<path fill="#D5B99D" d="M403.039 161.776C402.193 160.5 401.372 159.555 401.51 157.971L402.286 157.671C403.851 158.183 404.645 159.12 405.76 160.296C405.318 161.233 404.842 162.143 404.544 163.137L403.039 161.776Z"/>
<path fill="#F2CD7D" d="M442.613 268.225C457.47 265.805 478.687 270.186 492.808 275.26C494.136 275.807 495.683 276.492 496.333 277.884C496.844 278.98 496.649 280.245 496.179 281.305C495.795 282.17 495.001 282.952 494.362 283.636C491.232 282.146 489.152 279.242 486.055 277.608C478.091 273.602 469.334 273.097 460.591 273.244C458.148 273.28 455.706 273.229 453.266 273.092L453.081 272.576L451.664 272.26L451.657 271.908L452.743 270.839L452.629 269.605C450.505 267.455 445.542 268.272 442.613 268.225Z"/>
<path fill="#D5B99D" d="M450.64 679.23C454.798 679.377 470.654 679.162 473.363 680.748L473.778 682.642L475.163 681.857L475.481 686.773C475.028 687.258 474.653 687.668 474.108 688.051L473.996 689.226C471.609 690.408 454.806 689.584 450.697 689.768L450.64 679.23Z"/>
<path fill="#040215" d="M473.779 682.642L475.163 681.857L475.481 686.773C475.029 687.258 474.653 687.668 474.108 688.051L473.779 682.642Z"/>
<path fill="#8D5A34" d="M402.846 630.938L403.816 631.191C405.068 635.086 402.457 646.645 401.531 650.685C394.388 648.491 388.132 646.537 382.843 640.93C388.212 637.098 393.497 634.603 399.661 632.314C400.75 632.008 401.817 631.41 402.846 630.938Z"/>
<path fill="#4C6484" d="M458.814 501.263C468.927 494.095 477.819 485.394 487.475 477.653L487.566 485.222C478.015 493.55 466.125 501.458 458.659 511.776L457.17 511.917C457.343 510.006 457.683 507.954 457.63 506.04C457.601 504.944 457.291 504.175 456.501 503.407L458.814 501.263Z"/>
<path fill="#ECE3D8" d="M406.957 655.7C407.152 655.072 407.103 655.135 407.422 654.523C408.583 652.296 410.559 651.135 412.979 650.512C414.112 650.22 415.304 650.218 416.335 650.812C416.576 651.849 416.795 652.803 417.361 653.72C417.492 653.934 417.63 654.144 417.765 654.355C417.8 661.277 417.796 668.199 417.753 675.12C414.001 675.417 410.379 676.036 406.755 677.065C406.695 669.968 406.484 662.786 406.957 655.7Z"/>
<path fill="#E9D8C3" d="M420.14 696.929C425.641 696.359 445.162 693.329 449.554 695.923C450.155 697.012 450.15 697.243 450.117 698.498C449.58 700.331 449.411 701.895 449.409 703.803C444.744 703.889 440.135 704.489 435.481 704.658C429.569 704.873 423.615 704.722 417.701 704.677L420.14 696.929Z"/>
<path fill="#745B53" d="M451.569 629.455C461.611 630.289 471.665 631.605 481.698 632.338C481.609 636.037 481.546 639.736 481.506 643.436C471.489 639.533 461.714 638.622 451.098 637.998C451.317 635.148 451.52 632.314 451.569 629.455Z"/>
<path fill="#ECE3D8" d="M443.411 82.8351L444.612 81.9709L445.668 83.9319C442.417 108.293 435.956 123.796 424.726 145.123C423.078 148.252 421.087 153.495 418.749 155.965C418.606 156.117 418.395 156.187 418.217 156.299C417.302 155.503 416.437 154.724 415.626 153.818C418.022 149.379 419.777 144.493 422.11 139.97C427.689 129.156 434.642 118.094 438.496 106.537C440.233 101.328 441.233 95.6475 442.454 90.2867C442.381 87.7628 442.972 85.3099 443.411 82.8351Z"/>
<path fill="#7B786A" d="M419.663 631.963C428.624 629.549 441.272 628.989 450.606 629.215C450.754 632.155 450.914 635.334 450.348 638.227C439.673 638.423 429.816 640.179 419.364 642.017C418.653 639.073 419.425 635.002 419.663 631.963Z"/>
<path fill="#FAECB6" d="M413.586 274.14C423.136 271.062 432.527 268.472 442.613 268.225C445.542 268.272 450.506 267.455 452.629 269.605L452.743 270.839L451.658 271.907L451.664 272.26L453.082 272.575L453.266 273.092C451.459 272.893 449.676 272.811 447.859 272.77C444.696 275.46 440.001 272.678 436.38 276.34C430.859 277.119 425.775 278.373 420.557 280.353L419.18 279.954C417.809 280.555 416.925 280.585 416.451 282.16C416.003 283.65 416.412 284.811 415.292 286.105L414.482 286.451L413.453 286.291C411.765 285.192 409.679 283.868 408.716 282.047C408.123 280.926 407.797 279.474 408.291 278.261C409.207 276.004 411.484 275 413.586 274.14Z"/>
<path fill="#CE9B52" d="M413.453 286.291C413.583 284.841 413.653 283.28 414.236 281.928C415.632 278.686 419.5 277.82 422.508 276.705C421.579 278.191 420.626 278.98 419.18 279.954C417.809 280.555 416.925 280.585 416.451 282.16C416.003 283.65 416.412 284.811 415.292 286.105L414.482 286.451L413.453 286.291Z"/>
<path fill="#BD8A4F" d="M422.507 276.705C430.195 274.239 439.79 272.339 447.859 272.77C444.696 275.46 440.001 272.678 436.379 276.34C430.859 277.119 425.775 278.373 420.556 280.353L419.18 279.954C420.626 278.98 421.578 278.191 422.507 276.705Z"/>
<path fill="#B01B1B" d="M429.277 175.493C429.482 175.651 429.692 175.802 429.892 175.966C433.721 179.128 433.447 190.299 438.443 191.271C439.491 190.74 439.41 190.791 439.779 189.67C439.61 188.537 439.25 188.099 438.55 187.252C436.86 185.211 434.563 181.232 434.679 178.576C438.456 183.277 440.588 189.725 443.762 194.943L446.174 199.214C447.817 201.26 449.333 203.437 450.887 205.552C454.206 201.832 456.772 197.659 459.579 193.555C460.674 194.151 461.657 194.164 462.869 193.932C465.308 193.463 466.638 191.974 468.005 190.027C467.148 195.742 465.253 201.588 463.828 207.206C455.863 207.135 447.884 207.454 439.923 207.657C436.692 196.793 432.894 186.22 429.277 175.493Z"/>
<path fill="#A51111" d="M443.762 194.943L446.174 199.214C445.243 199.432 444.854 199.488 443.964 199.118C443.204 197.854 443.611 196.343 443.762 194.943Z"/>
<path fill="#000002" d="M463.309 262.807C468.984 261.421 484.59 267.598 488.408 263.732C489.671 264.16 491.141 264.503 491.877 265.72C492.628 266.963 492.387 268.288 491.945 269.578C491.727 270.214 491.495 270.881 491.187 271.479C491.694 272.746 492.15 274.062 492.808 275.26C478.688 270.186 457.47 265.805 442.613 268.225C432.527 268.472 423.136 271.062 413.586 274.14L412.903 271.544C428.24 266.736 440.712 265.427 456.578 265.213L459.135 265.45C460.801 264.796 461.932 263.936 463.309 262.807Z"/>
<path fill="#CE9B52" d="M463.309 262.807C468.984 261.421 484.59 267.598 488.408 263.732C489.671 264.16 491.141 264.503 491.876 265.72C492.628 266.963 492.387 268.288 491.945 269.578C491.727 270.214 491.495 270.881 491.186 271.479C480.494 268.288 470.28 266.265 459.135 265.45C460.8 264.796 461.932 263.936 463.309 262.807Z"/>
<path fill="#F5DBA8" d="M416.772 134.792C423.771 125.901 429.356 115.921 434.126 105.686C435.425 102.898 439.96 91.1233 441.66 89.6353L442.454 90.2866C441.233 95.6474 440.233 101.328 438.496 106.537C434.642 118.094 427.689 129.156 422.11 139.97C419.777 144.493 418.022 149.379 415.626 153.817C413.639 151.552 411.229 149.469 409.078 147.346L410.18 145.32C412.281 141.764 414.605 138.312 416.772 134.792Z"/>
<path fill="#876D5E" d="M482.814 645.06C485.486 645.046 487.248 646.43 489.108 648.26C491.821 650.93 493.461 654.186 495.705 657.171C495.438 664.231 495.786 670.998 494.266 677.963L481.188 675.93C482.182 665.664 482.724 655.373 482.814 645.06Z"/>
<path fill="#BD8A4F" d="M380.634 634.786C387.58 631.771 394.227 628.087 401.181 625.159C415.715 619.039 432.576 615.65 448.303 617.047C454.713 617.617 461.143 619.044 467.473 620.189L473.664 621.714L473.008 623.174C450.577 620.978 423.639 620.774 402.483 629.356C401.131 629.85 399.622 630.266 398.34 630.905C392.535 633.211 386.847 635.524 382.054 639.659C381.582 638.055 380.988 636.414 380.634 634.786Z"/>
<path fill="#FBFAF9" d="M407.438 683.178C421.758 680.006 436.044 679.558 450.64 679.23L450.697 689.768C444.654 689.947 438.617 690.248 432.585 690.67C425.971 691.181 415 693.429 408.92 692.205C407.026 689.829 407.456 686.062 407.438 683.178Z"/>
<path fill="#FBFAF9" d="M482.443 330.957C471.885 341.263 457.907 347.733 448.812 359.682C448.693 361.043 448.385 361.799 447.847 363.047C447.837 363.071 447.84 363.1 447.836 363.128C445.617 365.499 443.261 367.782 441.189 370.282C439.359 372.555 437.408 374.794 435.694 377.152C430.766 382.496 427.911 388.763 423.467 394.3C422.298 394.754 421.829 395.069 420.572 394.866C420.272 386.884 423.402 380.882 427.488 374.301L429.4 371.569C439.694 358.789 451.775 349.381 465.46 340.536C470.969 336.977 476.372 333.498 482.443 330.957Z"/>
<path fill="#000002" d="M420.572 394.866C427.645 381.328 437.553 369.912 448.813 359.682C448.693 361.043 448.385 361.8 447.847 363.047C447.837 363.071 447.84 363.1 447.836 363.128C445.618 365.499 443.261 367.782 441.189 370.282C439.359 372.555 437.408 374.794 435.694 377.152C430.767 382.496 427.912 388.763 423.467 394.3C422.299 394.754 421.829 395.069 420.572 394.866Z"/>
<path fill="#78797C" d="M437.856 237.489C440.404 236.927 443.36 237.039 445.983 236.929C446.338 242.682 447.033 249.071 445.444 254.683C444.291 254.818 443.081 255.035 441.925 255.08L437.394 255.291C431.819 256.308 426.183 257.187 420.708 258.665C420.79 255.57 421.083 252.141 420.375 249.106C419.718 246.286 418.005 246.005 415.861 244.615C415.985 244.403 416.082 244.173 416.234 243.98C418.63 240.921 431.616 238.558 435.748 237.649L437.856 237.489Z"/>
<path fill="#B3B2B2" d="M437.856 237.489C440.404 236.927 443.36 237.039 445.983 236.929C446.338 242.682 447.032 249.071 445.444 254.683C444.291 254.818 443.081 255.035 441.925 255.08L437.394 255.291C437.196 255.225 436.971 255.211 436.8 255.091C434.924 253.767 435.714 240.595 435.748 237.649L437.856 237.489Z"/>
<path fill="#8E9BA2" d="M437.856 237.489C440.404 236.927 443.36 237.039 445.983 236.929C446.338 242.682 447.032 249.071 445.444 254.683C444.291 254.818 443.081 255.035 441.925 255.08C442.837 250.093 443.523 243.135 441.545 238.36C440.437 237.402 439.293 237.606 437.856 237.489Z"/>
<path fill="#57627A" d="M433.701 487.406C435.337 496.876 430.624 513.297 433.722 522.408L433.026 523.579C428.598 528.03 422.951 534.529 420.583 540.37C419.546 541.943 418.606 543.593 417.629 545.205C417.655 538.706 418.151 532.192 418.682 525.717C420.15 507.806 422.905 501.887 433.701 487.406Z"/>
<path fill="#C2A080" d="M436.846 83.857C440.856 81.1238 444.019 69.9848 445.636 65.3892L446.089 65.3525L446.48 67.2415L447.361 67.9391C447.107 70.243 447.305 74.5664 446.451 76.5662L445.955 76.0279C444.941 77.422 444.391 80.2365 444.612 81.9708L443.411 82.8349C442.973 85.3097 442.381 87.7627 442.454 90.2865L441.66 89.6352C439.96 91.1233 435.425 102.898 434.126 105.686C429.356 115.921 423.772 125.901 416.772 134.792C414.606 138.312 412.281 141.764 410.18 145.32L409.078 147.346C407.86 146.2 406.478 145.182 405.179 144.128C411.391 133.752 417.235 123.174 422.711 112.392C427.446 102.895 431.577 93.079 436.846 83.857Z"/>
<path fill="#98947F" d="M446.479 67.2415L447.361 67.939C447.107 70.243 447.305 74.5663 446.45 76.5662L445.955 76.0279C444.941 77.4219 444.391 80.2365 444.612 81.9707L443.411 82.8349C443.309 82.6069 443.183 82.388 443.104 82.1509C442.162 79.3251 445.274 70.0229 446.479 67.2415Z"/>
<path fill="#D3AE83" d="M410.18 145.32L409.134 145.612C408.653 145.29 408.341 145.269 408.236 144.644C407.918 142.769 409.523 140.515 410.611 139.066C411.741 137.561 414.194 134.231 416.115 133.951L416.772 134.792C414.606 138.312 412.281 141.764 410.18 145.32Z"/>
<path fill="#4C6484" d="M447.815 467.985C448.043 472.454 447.672 476.967 447.624 481.442C447.57 490.506 447.605 499.569 447.728 508.633C446.032 510.303 444.07 511.961 442.67 513.885L441.03 514.943L438.108 517.627C436.62 519.198 435.117 520.752 433.722 522.408C430.624 513.297 435.337 496.877 433.701 487.406C435.409 484.131 437.593 481.247 439.95 478.419C441.317 476.607 442.568 474.763 443.795 472.854L447.815 467.985Z"/>
<path fill="#8E9BA2" d="M439.95 478.419C441.733 481.826 439.189 491.464 439.284 495.804C439.424 502.221 440.878 508.58 441.03 514.943L438.108 517.627C436.62 519.198 435.117 520.752 433.722 522.408C430.624 513.297 435.337 496.877 433.701 487.406C435.409 484.131 437.593 481.247 439.95 478.419Z"/>
<path fill="#DAA960" d="M445.444 254.683L446.638 254.77C450.776 255.688 455.211 254.992 459.419 255.626C460.931 255.839 462.445 256.033 463.961 256.21C471.564 257.851 479.519 258.256 486.856 261.055L485.781 262.531L488.408 263.732C484.59 267.598 468.984 261.421 463.309 262.807C461.932 263.936 460.801 264.796 459.135 265.45L456.578 265.213C440.712 265.427 428.239 266.736 412.903 271.544C412.663 271.15 412.515 270.932 412.322 270.538C411.695 269.251 411.112 267.291 411.719 265.925C413.134 262.741 418.633 261.555 421.683 260.546L420.708 258.665C426.183 257.188 431.819 256.309 437.394 255.292L441.925 255.08C443.081 255.035 444.291 254.818 445.444 254.683Z"/>
<path fill="#D3AE83" d="M456.578 265.213C456.892 264.779 456.995 264.604 457.327 264.244C458.659 262.8 461.476 262.945 463.309 262.807C461.932 263.936 460.801 264.796 459.135 265.45L456.578 265.213Z"/>
<path fill="#000002" d="M445.444 254.683L446.638 254.77C450.776 255.688 455.211 254.992 459.419 255.626C460.931 255.839 462.445 256.033 463.961 256.21C471.564 257.851 479.519 258.256 486.856 261.055L485.781 262.531C465.029 255.104 442.878 256.033 421.683 260.546L420.708 258.665C426.183 257.188 431.82 256.309 437.394 255.292L441.925 255.08C443.081 255.035 444.291 254.818 445.444 254.683Z"/>
<path fill="#FBFAF9" d="M463.012 434.774C465.205 434.049 466.592 432.858 468.24 431.271L468.43 437.616C467.203 439.762 464.935 441.925 464.462 444.341C459.089 451.236 453.106 457.481 447.865 464.526C448.508 465.746 447.831 466.734 447.815 467.985L443.795 472.854L443.009 470.852C432.155 481.325 425.319 496.965 416.799 509.378C419.661 489.979 426.591 476.071 438.253 460.417C437.847 459.59 437.574 459.404 436.866 458.851C437.923 457.167 439.414 455.751 440.765 454.299L442.985 452.14L443.391 451.457L445.939 448.82C447.373 447.247 448.673 445.812 449.14 443.687C450.863 443.54 452.555 443.209 454.256 442.909C457.361 440.523 459.912 437.26 463.012 434.774Z"/>
<path fill="#0D0C27" d="M445.939 448.82L447.731 449.804L444.049 453.869L442.985 452.14L443.391 451.457L445.939 448.82Z"/>
<path fill="#0D0C27" d="M447.865 464.526C448.508 465.746 447.831 466.734 447.815 467.985L443.795 472.854L443.009 470.852C444.614 468.718 446.153 466.581 447.865 464.526Z"/>
<path fill="#090A32" d="M449.14 443.687C450.863 443.54 452.555 443.208 454.256 442.909C452.133 445.263 450.038 447.627 447.731 449.804L445.939 448.82C447.373 447.247 448.673 445.812 449.14 443.687Z"/>
<path fill="#090A32" d="M442.985 452.14L444.05 453.869C442.202 456.159 440.316 458.317 438.253 460.417C437.848 459.59 437.574 459.404 436.866 458.851C437.923 457.167 439.414 455.75 440.765 454.299L442.985 452.14Z"/>
<path fill="#ECE3D8" d="M418.519 697.391C418.298 703.684 402.499 738.629 399.712 748.684L379.129 749.157C379.103 749.036 379.064 748.918 379.054 748.795C378.679 744.235 406.097 705.136 410.017 699.345C412.844 698.664 415.678 698.013 418.519 697.391Z"/>
<path fill="#133059" d="M445.983 236.929L451.589 237.036C454.636 237.12 457.678 237.277 460.716 237.508C462.349 237.591 463.974 237.632 465.582 237.942C475.223 239.755 484.212 241.792 493.178 245.928C490.158 248.363 487.284 250.912 486.962 255.047C486.822 256.858 487.222 258.643 487.596 260.404L486.856 261.055C479.519 258.256 471.564 257.851 463.961 256.21C462.445 256.033 460.931 255.838 459.419 255.626C455.211 254.992 450.776 255.688 446.638 254.77L445.444 254.683C447.033 249.071 446.338 242.682 445.983 236.929Z"/>
<path fill="#1A427D" d="M460.716 237.508C462.349 237.591 463.974 237.632 465.582 237.943C465.552 243.713 465.682 249.856 464.679 255.542L463.961 256.21C462.445 256.033 460.931 255.839 459.419 255.626C461.582 249.771 460.946 243.616 460.716 237.508Z"/>
<path fill="#164766" d="M445.983 236.929L451.589 237.036C454.636 237.12 457.678 237.277 460.716 237.508C460.946 243.616 461.582 249.771 459.419 255.626C455.211 254.992 450.776 255.688 446.638 254.77L445.444 254.683C447.033 249.071 446.338 242.682 445.983 236.929Z"/>
<path fill="#78797C" d="M445.983 236.929L451.589 237.036C452.023 242.379 452.548 249.038 450.734 254.167C449.669 255.026 448.006 254.747 446.638 254.77L445.444 254.683C447.033 249.071 446.338 242.682 445.983 236.929Z"/>
<path fill="#FBFAF9" d="M447.728 508.633C449.985 506.724 452.439 504.118 455.061 502.798L456.103 503.488L456.501 503.407C457.291 504.175 457.6 504.944 457.63 506.041C457.683 507.954 457.343 510.007 457.17 511.917C456.464 513.054 455.774 513.964 454.838 514.922L456.124 516.078C453.314 518.351 448.991 522.696 447.77 526.144L443.058 531.906C439.723 535.839 436.299 539.68 433.765 544.202C429.718 548.599 426.183 553.899 423.194 559.066C421.769 562.028 420.25 564.983 419.538 568.214L418.059 569.238C417.989 569.818 417.94 570.384 417.897 570.966C417.846 571.687 417.867 571.42 417.508 572.254L414.614 570.601L414.243 570.671L413.896 570.261C415.116 560.242 417.824 551.207 421.931 542.017L420.583 540.37C422.951 534.529 428.598 528.03 433.026 523.579L433.721 522.408C435.117 520.752 436.619 519.198 438.108 517.627L441.03 514.943L442.67 513.884C444.07 511.961 446.032 510.303 447.728 508.633Z"/>
<path fill="#0D0C27" d="M441.03 514.943L442.67 513.885L443.859 515.257C442.066 516.834 440.257 518.39 438.557 520.069L438.108 517.627L441.03 514.943Z"/>
<path fill="#050C44" d="M438.109 517.627L438.557 520.069L434.585 524.465L433.026 523.578L433.722 522.408C435.117 520.752 436.62 519.198 438.109 517.627Z"/>
<path fill="#090A32" d="M420.974 559.491C421.996 559.801 422.238 559.46 423.194 559.066C421.769 562.028 420.25 564.983 419.537 568.214L418.059 569.238C417.989 569.818 417.939 570.384 417.897 570.966C417.845 571.687 417.866 571.42 417.508 572.254L414.614 570.601C416.767 566.996 418.098 562.637 420.974 559.491Z"/>
<path fill="#0D0C27" d="M433.026 523.579L434.584 524.465C429.877 529.963 425.659 535.814 421.931 542.017L420.583 540.37C422.95 534.529 428.598 528.03 433.026 523.579Z"/>
<path fill="#000002" d="M454.838 514.922L456.124 516.078C453.313 518.351 448.991 522.696 447.77 526.144L443.058 531.906C439.723 535.839 436.298 539.68 433.764 544.202C429.718 548.599 426.183 553.899 423.194 559.066C422.238 559.46 421.996 559.801 420.974 559.491C427.507 546.4 441.309 530.526 450.801 519.307L454.838 514.922Z"/>
<path fill="#FBFAF9" d="M447.728 508.633C449.985 506.724 452.439 504.118 455.061 502.798L456.103 503.488L456.501 503.407C457.291 504.175 457.601 504.944 457.63 506.041C457.683 507.954 457.343 510.007 457.17 511.917C456.464 513.054 455.774 513.964 454.838 514.922L450.802 519.307C449.729 516.968 449.666 513.151 447.975 511.446L443.86 515.257L442.67 513.884C444.07 511.961 446.032 510.303 447.728 508.633Z"/>
<path fill="#000002" d="M447.728 508.633C449.985 506.724 452.439 504.118 455.061 502.798L456.103 503.488C453.463 505.932 450.092 508.571 447.975 511.446L443.86 515.257L442.67 513.884C444.07 511.961 446.032 510.303 447.728 508.633Z"/>
<path fill="#46536A" d="M437.579 281.558C440.923 281.452 444.248 281.333 447.58 281.034C448.474 294.503 448.632 307.939 448.993 321.427C449.23 330.305 449.849 339.403 449.589 348.267C445.393 351.701 440.965 355.001 437.207 358.918C435.975 345.262 437.018 331.528 437.307 317.848C437.562 305.753 437.27 293.649 437.579 281.558Z"/>
<path fill="#A5753C" d="M485.679 598.357C495.824 598.391 506.548 604.104 515.337 608.622C515.089 614.698 515.454 633.842 510.709 637.856C510.116 638.357 509.587 638.68 508.891 639L506.378 635.759C501.308 629.018 494.694 628.136 487.139 625.802C486.135 624.146 483.558 622.986 482.051 621.616C483.424 614.669 488.205 605.952 488.864 600.258C488.109 599.033 486.962 598.805 485.679 598.357Z"/>
<path fill="#D5B99D" d="M451.098 637.998C461.714 638.622 471.489 639.533 481.507 643.436C481.416 648.38 481.335 653.315 481.028 658.251C473.971 661.103 468.328 665.228 465.125 672.408C464.866 672.99 464.666 673.578 464.464 674.182C459.781 674.366 454.746 673.711 450.077 673.308C450.029 671 449.889 668.701 450.287 666.419C451.712 664.284 451.064 641.834 451.098 637.998Z"/>
<path fill="#F2CD7D" d="M402.936 233.663C409.349 231.361 415.868 228.755 422.536 227.327C445.069 222.502 477.937 224.312 498.751 234.204C501.354 235.442 504.701 237.108 505.733 240.013C506.251 241.472 505.782 242.452 505.094 243.711C505.025 243.839 504.951 243.965 504.88 244.092C503.972 244.448 503.251 244.909 502.265 244.768C499.501 244.371 496.445 241.737 493.897 240.482C491.248 239.163 488.523 238.026 485.721 237.072C478.605 234.67 471.216 233.525 463.828 232.332C455.381 231.602 447.446 232.032 439.044 233.217C431.177 234.927 422.615 236.264 415.109 239.167C409.655 241.277 404.067 245.71 398.156 245.451L399.828 243.898L399.793 237.818L398.612 236.629C399.968 235.459 401.407 234.582 402.936 233.663Z"/>
<path fill="#F5DBA8" d="M398.612 236.629C399.968 235.459 401.407 234.582 402.936 233.663C402.993 233.803 403.048 233.943 403.105 234.082C403.587 235.241 403.89 235.911 404.932 236.689L405.245 237.752C405.023 237.879 404.798 238.003 404.578 238.134C403.191 238.964 402.421 240.368 401.076 241.221C400.175 240.375 400.063 238.98 399.793 237.818L398.612 236.629Z"/>
<path fill="#D3AE83" d="M449.731 228.967L448.716 230.157L450.458 230.607C448.041 230.778 442.602 230.634 440.654 231.718C440.135 232.007 439.499 232.793 439.044 233.217C431.177 234.927 422.615 236.264 415.109 239.167C409.655 241.277 404.067 245.71 398.156 245.451L399.828 243.898C403.857 241.852 407.192 238.669 411.35 236.707C422.908 231.254 437.278 231.267 449.731 228.967Z"/>
<path fill="#C2843E" d="M449.731 228.967C449.835 228.923 449.934 228.865 450.042 228.836C452.122 228.265 457.604 226.984 459.464 227.821C461.441 227.667 462.954 227.652 464.839 228.291C466.269 228.314 467.685 228.281 469.089 228.588C481.121 230.66 497.143 233.651 504.88 244.092C503.972 244.448 503.251 244.909 502.265 244.768C499.501 244.371 496.445 241.737 493.897 240.482C491.248 239.163 488.523 238.026 485.721 237.072C478.605 234.67 471.216 233.525 463.828 232.332C455.381 231.602 447.446 232.032 439.044 233.217C439.499 232.794 440.135 232.007 440.654 231.719C442.602 230.634 448.041 230.778 450.458 230.608L448.716 230.158L449.731 228.967Z"/>
<path fill="#CE9B52" d="M449.731 228.967C449.835 228.923 449.934 228.865 450.042 228.836C452.122 228.265 457.604 226.984 459.464 227.821C461.441 227.667 462.954 227.652 464.839 228.291C466.269 228.314 467.685 228.281 469.089 228.588C466.444 229.195 463.391 230.644 460.724 230.252C459.414 230.059 456.904 230.39 455.794 231.022C459.08 231.684 462.624 231.4 466.008 231.911C465.248 232.199 464.636 232.282 463.828 232.332C455.381 231.602 447.446 232.032 439.044 233.217C439.499 232.794 440.135 232.007 440.654 231.719C442.602 230.634 448.041 230.778 450.458 230.608L448.716 230.158L449.731 228.967Z"/>
<path fill="#D3AE83" d="M459.464 227.821C461.441 227.666 462.954 227.651 464.838 228.29C462.631 229.511 459.185 229.54 456.682 229.757L455.929 229.117L456.187 228.662C457.387 228.584 458.531 228.683 459.464 227.821Z"/>
<path fill="#ECC082" d="M449.731 228.967C449.835 228.923 449.934 228.865 450.042 228.836C452.122 228.265 457.604 226.984 459.464 227.821C458.531 228.683 457.388 228.584 456.187 228.662L455.929 229.117L456.682 229.757C454.635 229.974 452.448 230.076 450.458 230.608L448.716 230.158L449.731 228.967Z"/>
<path fill="#041E47" d="M425.193 283.802C429.296 282.76 433.38 282.065 437.579 281.559C437.27 293.65 437.562 305.753 437.307 317.849C437.018 331.528 435.975 345.262 437.208 358.918C434.957 361.631 432.056 366.16 429.535 368.324C429.543 368.163 429.555 368.002 429.561 367.841C429.569 367.573 429.571 367.304 429.578 367.036C429.634 365.075 429.425 363.424 428.896 361.546C428.165 358.957 426.852 356.024 424.422 354.671C423.895 346.309 424.344 337.638 424.423 329.251C424.496 314.099 424.752 298.949 425.193 283.802Z"/>
<path fill="#E8D1BA" d="M419.363 642.017C429.816 640.179 439.673 638.423 450.348 638.227C450.193 647.609 450.655 657.053 450.286 666.419C449.889 668.701 450.029 671 450.076 673.308C445.563 674.02 440.712 673.751 436.141 673.885C430.408 674.054 424.717 674.484 419.005 674.973C418.961 663.994 419.737 652.99 419.363 642.017Z"/>
<path fill="#768396" d="M443.058 531.906C443.69 533.296 443.917 534.466 444.018 535.991C444.338 540.82 443.706 545.802 443.627 550.651C443.511 557.811 444.593 584.923 442.44 589.669C442.272 590.038 442.133 590.102 441.822 590.396C439.031 590.544 436.248 590.784 433.473 591.115C428.895 592.001 424.258 592.549 419.637 593.159C418.376 584.846 419.668 576.562 419.537 568.214C420.25 564.983 421.769 562.028 423.194 559.066C426.183 553.9 429.718 548.599 433.764 544.202C436.299 539.68 439.723 535.839 443.058 531.906Z"/>
<path fill="#4E5B77" d="M423.194 559.066C426.183 553.899 429.718 548.599 433.764 544.202C434.044 551.16 432.043 587.975 433.473 591.115C428.895 592.001 424.258 592.548 419.637 593.159C418.376 584.846 419.668 576.562 419.537 568.214C420.25 564.983 421.769 562.028 423.194 559.066Z"/>
<path fill="#41516D" d="M423.466 394.3C427.911 388.763 430.766 382.495 435.694 377.151C435.854 391.794 435.729 406.434 435.32 421.071C435.047 431.771 434.36 442.526 434.516 453.227C434.551 455.589 434.349 458.937 435.321 461.101C430.424 465.699 423.502 478.864 420.34 484.902C420.56 477.02 423.977 395.682 423.466 394.3Z"/>
<path fill="#6E798A" d="M447.836 363.128C448.805 372.62 448.724 382.046 448.794 391.572C448.92 402.149 448.98 412.726 448.973 423.304C448.978 428.892 448.09 438.572 449.14 443.687C448.672 445.812 447.372 447.247 445.939 448.82L443.391 451.457L442.985 452.14L440.764 454.299C439.413 455.751 437.923 457.167 436.865 458.852L435.321 461.102C434.349 458.938 434.551 455.59 434.516 453.227C434.36 442.527 435.047 431.771 435.32 421.071C435.729 406.434 435.854 391.794 435.694 377.152C437.408 374.794 439.359 372.555 441.189 370.282C443.261 367.782 445.617 365.499 447.836 363.128Z"/>
<path fill="#78797C" d="M443.75 418.758L444.274 417.297C444.944 419.737 444.785 437.773 444.143 440.188C444.148 443.986 443.449 447.692 443.391 451.457L442.985 452.14L440.765 454.299C441.162 450.533 441.838 446.393 443.155 442.848C443.551 434.962 442.661 426.526 443.75 418.758Z"/>
<path fill="#485B76" d="M447.836 363.128C448.805 372.62 448.724 382.046 448.794 391.572C448.92 402.149 448.98 412.726 448.973 423.304C448.978 428.892 448.09 438.572 449.14 443.687C448.672 445.812 447.372 447.247 445.939 448.82L443.391 451.457C443.449 447.692 444.148 443.986 444.143 440.188C444.785 437.773 444.944 419.737 444.274 417.297L443.749 418.758C443.829 418.041 443.854 417.426 443.778 416.704C442.837 407.914 443.293 398.91 443.215 390.075C443.161 384.128 442.603 378.144 442.925 372.206L442.965 371.512C442.409 370.498 442.318 370.621 441.189 370.282C443.261 367.782 445.617 365.499 447.836 363.128Z"/>
<path fill="#937D6C" d="M454.173 53.8423C459.464 66.2224 463.651 79.0095 469.128 91.3685C477.167 109.509 486.642 126.837 495.532 144.554C490.992 149.02 486.686 153.55 482.776 158.595C480.726 154.579 478.297 150.417 476.821 146.159C472.953 139.108 465.813 124.807 464.809 117.085C463.81 113.446 462.296 109.91 461.234 106.264C459.261 99.4919 458.095 92.5164 457.223 85.5269C456.47 81.8316 456.183 77.9633 455.725 74.2172C455.12 67.3335 454.156 60.8005 454.173 53.8423Z"/>
<path fill="#FBFAF9" d="M455.726 74.2172L456.15 72.7075C457.868 74.6957 458.295 80.4472 458.258 83.0958L457.223 85.527C456.47 81.8316 456.184 77.9634 455.726 74.2172Z"/>
<path fill="#CFBDAF" d="M467.311 113.048C468.854 117.429 478.147 142.763 477.149 145.515C477.066 145.741 476.931 145.945 476.822 146.159C472.953 139.108 465.813 124.807 464.81 117.085C466.466 115.885 466.663 114.906 467.311 113.048Z"/>
<path fill="#ECE3D8" d="M458.258 83.0959C461.709 89.5431 464.541 104.188 466.518 111.822L466.723 111.698C466.977 112.162 467.219 112.523 467.311 113.048C466.663 114.907 466.465 115.885 464.809 117.086C463.81 113.447 462.296 109.911 461.234 106.265C459.261 99.4921 458.095 92.5166 457.223 85.5272L458.258 83.0959Z"/>
<path fill="#D50303" d="M422.044 162.149C425.38 152.206 430.539 143.21 434.636 133.606C443.817 112.082 448.044 90.8376 450.039 67.6082C451.856 78.67 452.896 89.5051 456.066 100.315C458.039 109.117 460.577 117.513 463.411 126.072C467.916 138.821 474.003 150.944 478.32 163.772C474.182 172.481 470.25 180.78 467.452 190.041C466.084 191.988 464.754 193.477 462.315 193.946C461.103 194.178 460.12 194.165 459.025 193.569C464.44 183.259 469.497 171.255 473.43 160.308C467.465 147.198 458.868 135.29 450.705 123.492C445.78 130.146 441.386 137.162 436.792 144.042C434.405 147.616 431.509 151.162 429.604 155.014C425.108 164.103 431.25 169.808 433.991 178.164C434.038 178.305 434.081 178.449 434.126 178.59C434.01 181.246 436.307 185.225 437.996 187.266C438.696 188.113 439.056 188.551 439.226 189.684C438.856 190.805 438.937 190.754 437.89 191.285C432.894 190.313 433.168 179.142 429.338 175.98C429.139 175.816 428.929 175.665 428.724 175.507C425.793 171.296 423.976 166.864 422.044 162.149Z"/>
<path fill="#B61111" d="M456.619 100.302C458.593 109.103 461.13 117.499 463.965 126.058C462.864 125.085 462.004 123.868 461.217 122.635C457.13 116.228 454.968 107.798 456.619 100.302Z"/>
<path fill="#D0AB87" d="M395.366 158.918C397.853 159.814 400.489 161.167 403.039 161.775L404.544 163.137C404.842 162.143 405.319 161.233 405.76 160.296C409.083 163.471 412.582 166.58 415.189 170.396C414.239 172.937 419.989 183.192 419.946 189.292C422.584 199.421 426.236 210.315 426.533 220.847C427.131 221.667 427.142 222.251 427.309 223.225C427.318 223.275 427.342 223.321 427.359 223.368C424.528 224.059 421.685 224.695 418.83 225.276C416.89 225.822 414.084 227.117 412.155 226.655C410.757 222.39 409.451 218.094 408.723 213.659C403.429 200.249 395.577 184.413 384.203 175.334C386.526 171.183 388.863 166.205 391.998 162.661L392.341 162.843C393.613 162.038 394.521 160.178 395.366 158.918Z"/>
<path fill="#98947F" d="M408.723 213.659C408.807 213.754 408.891 213.848 408.974 213.944C410.068 215.225 410.749 216.578 411.476 218.087L412.143 218.231C412.487 217.419 412.622 217.443 412.409 216.545C412.194 215.634 412.246 216.006 412.221 215.135C413.883 216.878 414.185 218.936 416.176 220.581L416.745 220.721C414.454 222.824 413.069 223.491 412.155 226.655C410.757 222.39 409.451 218.094 408.723 213.659Z"/>
<path fill="#98947F" d="M405.76 160.296C409.083 163.471 412.582 166.58 415.189 170.396C414.239 172.938 419.989 183.193 419.946 189.292C418.794 187.639 417.675 186.195 416.203 184.815C412.739 177.372 409.384 169.801 404.544 163.137C404.842 162.143 405.318 161.233 405.76 160.296Z"/>
<path fill="#928F93" d="M416.204 184.815C417.675 186.195 418.794 187.639 419.946 189.292C422.584 199.421 426.236 210.315 426.533 220.847C427.131 221.667 427.143 222.251 427.31 223.225C427.318 223.275 427.342 223.321 427.359 223.368C424.528 224.059 421.686 224.695 418.83 225.276C416.89 225.822 414.084 227.117 412.155 226.655C413.069 223.491 414.454 222.824 416.745 220.721L416.177 220.581C416.294 220.501 416.418 220.431 416.528 220.34C418.773 218.512 417.631 214.112 418.136 211.412C419.046 210.933 419.641 210.542 420.333 209.778C421.928 203.547 417.528 191.417 416.204 184.815Z"/>
<path fill="#7B786A" d="M421.721 208.144C422.79 211.378 424.107 218.772 426.533 220.848C427.131 221.667 427.142 222.251 427.309 223.225C427.318 223.275 427.342 223.321 427.359 223.368C424.528 224.059 421.686 224.695 418.83 225.276C422.509 220.061 421.754 214.201 421.721 208.144Z"/>
<path fill="#E0C7AC" d="M382.369 749.761C387.562 748.564 395.943 749 401.099 750.076C403.873 759.376 409.249 767.886 413.452 776.605L437.672 827.004C440.53 832.875 446.391 842.973 447.735 849.1L447.354 849.322L445.97 848.037C439.511 841.232 434.477 833.151 428.705 825.785C416.462 810.16 403.928 795.12 392.969 778.5C389.922 773.879 376.97 755.663 378.051 750.379C379.041 749.573 381.099 749.791 382.369 749.761Z"/>
<path fill="#FBFAF9" d="M417.701 704.677C423.615 704.721 429.569 704.873 435.481 704.658C440.135 704.489 444.744 703.889 449.409 703.803L449.302 728.069C449.278 732.226 448.987 736.563 449.295 740.701C448.922 743.274 449.044 746.087 448.98 748.695L400.818 748.648C405.596 733.624 412.807 719.594 417.701 704.677Z"/>
<path fill="#09163E" d="M465.609 443.402C466.826 443.98 467.256 444.455 468.628 443.914C473.417 442.028 480.951 432.898 485.316 429.17C485.544 442.751 485.742 459.428 487.72 472.774C483.018 477.001 478.436 481.392 473.674 485.547C469.07 489.564 460.156 495.746 457.036 500.421C457.651 500.778 458.136 501.023 458.813 501.263L456.501 503.407L456.103 503.488L455.061 502.798C452.439 504.118 449.985 506.724 447.728 508.633C447.605 499.569 447.57 490.506 447.624 481.442C447.672 476.967 448.043 472.454 447.815 467.985C447.831 466.734 448.508 465.746 447.865 464.526C453.106 457.481 459.089 451.236 464.462 444.341L465.609 443.402Z"/>
<path fill="#E80505" d="M451.259 123.478C459.421 135.276 468.019 147.184 473.983 160.294C470.051 171.241 464.993 183.245 459.579 193.555C456.772 197.659 454.206 201.832 450.887 205.552C449.333 203.437 447.816 201.26 446.174 199.214L443.762 194.943C440.588 189.725 438.455 183.277 434.679 178.576C434.635 178.435 434.592 178.291 434.545 178.15C431.803 169.794 425.662 164.089 430.157 155C432.063 151.148 434.959 147.602 437.345 144.028C441.94 137.148 446.334 130.132 451.259 123.478Z"/>
<path fill="#B61111" d="M463.462 165.31C465.153 164.822 467.239 165.072 468.998 165.095C464.015 178.049 457.981 190.151 451.093 202.195C449.908 200.001 448.664 197.826 447.666 195.54C455.22 188.343 460.767 175.181 463.462 165.31Z"/>
<path fill="#B61111" d="M448.558 132.761C449.225 131.573 449.721 130.262 451.028 129.684C455.654 131.907 467.655 154.792 470.534 160.191L468.998 165.095C467.239 165.072 465.153 164.822 463.462 165.31L463.444 165.08C463.854 156.191 456.349 149.843 453.395 142.074C452.227 139.001 453.072 135.35 451.865 132.264C450.56 131.732 449.858 132.302 448.558 132.761Z"/>
<path fill="#E91F1F" d="M432.777 165.006C442.961 164.996 453.275 164.667 463.444 165.08L463.462 165.31C460.767 175.181 455.22 188.343 447.666 195.54C442.142 185.559 436.981 175.618 432.777 165.006Z"/>
<path fill="#B61111" d="M449 132.787C450.3 132.328 451.003 131.757 452.308 132.29C453.515 135.376 452.67 139.026 453.838 142.099C456.791 149.868 464.297 156.216 463.887 165.106C453.718 164.693 443.404 165.022 433.22 165.031C432.566 163.15 431.972 161.242 431.352 159.348C436.759 150.188 442.931 141.513 449 132.787Z"/>
<path fill="#E9D8C3" d="M451.022 699.3C451.084 697.914 450.896 696.921 451.701 695.767C458.523 693.925 472.265 695.064 479.398 695.76L480.649 699.699C482.47 704.824 484.18 710.038 486.234 715.073C488 719.601 498.644 745.121 497.271 748.372L496.742 748.684C481.77 748.543 466.531 749.336 451.597 748.548C450.623 747.844 450.849 747.519 450.646 746.384L450.017 746.301C449.167 745.24 449.391 742.134 449.295 740.701C448.986 736.563 449.278 732.226 449.302 728.069L449.408 703.803C449.411 701.895 449.58 700.331 450.117 698.497L451.022 699.3Z"/>
<path fill="#000002" d="M450.117 698.498L451.022 699.3C451.051 700.799 451.151 702.335 450.983 703.825C449.925 717.959 451.399 732.255 450.646 746.384L450.017 746.301C449.167 745.24 449.391 742.134 449.295 740.701C448.986 736.563 449.278 732.226 449.302 728.07L449.408 703.803C449.411 701.895 449.58 700.331 450.117 698.498Z"/>
<path fill="#C4A589" d="M451.022 699.3C451.084 697.914 450.896 696.921 451.701 695.767C458.523 693.925 472.265 695.064 479.398 695.76L480.649 699.699C482.47 704.824 484.18 710.038 486.233 715.073C480.781 714.276 475.399 713.617 469.911 713.094L466.917 715.895C466.091 712.727 465.354 707.448 463.011 705.114C460.371 702.484 454.452 703.744 450.982 703.825C451.151 702.335 451.051 700.799 451.022 699.3Z"/>
<path fill="#E0C7AC" d="M401.96 749.958C407.862 749.015 414.115 749.458 420.084 749.499C428.798 749.557 437.511 749.544 446.225 749.46C447.256 749.732 448.514 749.713 448.967 750.805C449.087 751.092 449.231 751.751 449.306 752.07C450.778 754.941 450.696 759.911 451.071 763.163C451.191 775.681 451.233 788.2 451.198 800.718C451.254 809.069 451.675 817.444 451.518 825.792L450.916 822.855C450.808 824.097 450.989 825.574 450.008 826.492C449.817 826.669 449.582 826.793 449.371 826.944C449.42 833.414 449.392 839.884 449.288 846.353C440.115 829.52 432.403 812.125 424.023 794.91C416.706 779.878 408.755 765.246 401.96 749.958Z"/>
<path fill="#302F41" d="M449.307 752.07C450.778 754.941 450.696 759.911 451.071 763.163C451.191 775.681 451.233 788.2 451.198 800.718C451.254 809.069 451.675 817.444 451.518 825.792L450.916 822.855C450.808 824.097 450.989 825.574 450.008 826.492C449.817 826.669 449.583 826.793 449.371 826.944L448.914 779.438C448.829 772.283 447.512 758.581 449.307 752.07Z"/>
<path fill="#D3AE83" d="M378.139 611.998C380.717 610.585 383.328 609.236 385.972 607.95C410.465 596.045 438.847 592.92 465.737 595.094C472.365 595.63 479.364 596.169 485.679 598.357C486.961 598.805 488.108 599.034 488.864 600.258C488.205 605.952 483.424 614.67 482.051 621.616C480.799 621.569 479.583 621.23 478.362 620.966C477.309 621.756 476.911 622.179 475.53 622.159C474.981 622.152 474.17 621.855 473.664 621.714L467.473 620.189C461.144 619.044 454.713 617.617 448.304 617.047C432.576 615.65 415.715 619.039 401.181 625.159C394.227 628.087 387.58 631.771 380.635 634.786C378.877 627.292 378.217 619.681 378.139 611.998Z"/>
<path fill="#CE9B52" d="M467.473 620.189C471.685 619.051 474.261 619.698 478.362 620.966C477.309 621.756 476.911 622.179 475.53 622.159C474.981 622.152 474.17 621.855 473.665 621.714L467.473 620.189Z"/>
<path fill="#F5DBA8" d="M404.455 605.554C413.474 605.408 421.631 607.668 430.417 609.209C437.364 610.428 444.354 611.088 451.047 613.426C441.064 612.872 431.698 612.252 421.659 612.936C409.222 614.568 397.611 619.264 386.043 623.862C387.924 619.201 389.64 613.712 393.068 609.952C396.359 606.342 399.859 605.799 404.455 605.554Z"/>
<path fill="#78797C" d="M498.494 151.873L499.254 151.384C501.731 153.076 512.907 173.82 515.991 178.196C502.763 191.768 494.996 208.912 490.741 227.238C471.771 219.773 447.179 217.877 427.359 223.368C427.342 223.321 427.318 223.275 427.31 223.225C427.143 222.251 427.131 221.667 426.533 220.847C426.236 210.315 422.584 199.421 419.947 189.292C419.99 183.192 414.239 172.938 415.19 170.396C417.345 173.149 428.033 191.532 429.115 191.868L429.325 191.723C432.698 197.497 434.558 205.194 436.507 211.623C446.727 211.156 456.933 211.63 467.144 212.055C468.719 204.037 470.664 196.585 473.784 189.017C478.375 174.896 487.497 161.771 498.494 151.873Z"/>
<path fill="#B3B2B2" d="M498.494 151.873C499.179 153.374 498.973 154.636 498.385 156.122C496.531 160.807 478.673 187.055 475.256 188.667C474.576 188.988 474.602 188.913 473.784 189.017C478.375 174.896 487.496 161.771 498.494 151.873Z"/>
<path fill="#0339D6" d="M488.909 488.321C491.153 508.14 491.495 527.931 492.367 547.831C493.054 563.497 494.336 579.268 494.11 594.955C478.937 591.787 464.15 589.895 448.623 590.02C446.376 590.081 444.038 590.004 441.822 590.396C442.133 590.103 442.272 590.038 442.44 589.669C444.593 584.923 443.511 557.811 443.627 550.651C443.705 545.802 444.338 540.82 444.017 535.991C443.916 534.466 443.69 533.296 443.058 531.906L447.77 526.144C448.991 522.696 453.313 518.352 456.123 516.079L454.838 514.922C455.774 513.965 456.464 513.054 457.169 511.918L458.658 511.776L459.019 513.506C469.541 506.003 478.632 496.252 488.909 488.321Z"/>
<path fill="#302F41" d="M458.659 511.776L459.019 513.506L456.124 516.078L454.838 514.922C455.774 513.964 456.464 513.054 457.17 511.917L458.659 511.776Z"/>
<path fill="#0D0C27" d="M457.472 545.627C458.095 544.932 458.759 544.349 459.471 543.747C460.72 543.867 460.683 544.192 461.514 545.065L458.668 548.01L457.472 545.627Z"/>
<path fill="#040215" d="M457.472 545.627L458.668 548.01C458.183 549.633 457.932 550.711 458.881 552.27C459.603 553.454 461.442 554.493 462.607 555.219C463.032 555.435 462.799 555.259 463.131 555.921C463.002 556.007 462.881 556.108 462.744 556.179C461.79 556.666 460.678 556.652 459.703 556.241C457.952 555.503 456.502 554.249 455.929 552.398C455.18 549.979 456.379 547.704 457.472 545.627Z"/>
<path fill="#FBFAF9" d="M461.513 545.065C463.341 546.311 464.842 547.547 466.421 549.096C465.18 551.139 464.002 553.282 462.607 555.219C461.442 554.493 459.602 553.454 458.881 552.27C457.932 550.711 458.183 549.633 458.667 548.01L461.513 545.065Z"/>
<path fill="#4C6484" d="M447.77 526.145C449.664 535.31 448.139 547.738 448.062 557.267C447.975 568.177 448.37 579.113 448.623 590.02C446.376 590.081 444.038 590.004 441.822 590.396C442.133 590.103 442.272 590.038 442.44 589.669C444.593 584.923 443.511 557.811 443.627 550.651C443.705 545.802 444.338 540.82 444.017 535.991C443.916 534.466 443.69 533.296 443.058 531.906L447.77 526.145Z"/>
<path fill="#745B53" d="M481.679 698.126L481.45 696.623C483.07 695.454 486.397 696.188 488.317 696.502C491.449 697.015 494.56 697.718 497.67 698.356C502.005 707.777 506.553 717.095 511.311 726.311C515.283 733.963 519.627 741.521 523.023 749.451L524.036 749.98C524.02 755.079 474.679 820.759 467.396 830.334C463.045 836.056 458.179 841.476 454.029 847.329C456.395 842.338 458.725 837.33 461.018 832.305L459.784 831.216C457.281 835.989 454.877 840.811 452.572 845.681C452.058 839.273 451.006 832.168 451.518 825.792C451.675 817.444 451.254 809.069 451.198 800.718C451.233 788.2 451.191 775.681 451.07 763.163C450.696 759.911 450.778 754.941 449.306 752.07C449.231 751.751 449.087 751.092 448.967 750.805C448.514 749.713 447.256 749.732 446.225 749.46C455.329 749.564 464.96 748.889 474.006 749.61C481.378 749.594 489.095 750.018 496.419 749.263L496.741 748.684L497.271 748.372C498.644 745.12 488 719.601 486.233 715.073C484.18 710.038 482.47 704.824 480.649 699.699L481.679 698.126Z"/>
<path fill="#040215" d="M481.679 698.126C485.443 709.589 489.961 720.85 494.117 732.178C496.093 737.564 498.404 743.068 499.758 748.646C506.922 748.691 514.549 748.398 521.638 749.532C514.55 750.71 506.654 749.863 499.496 749.611C493.645 763.164 487.062 776.446 480.863 789.846C474.312 804.006 468.08 818.396 461.018 832.305L459.784 831.216C469.047 811.588 478.176 791.897 487.171 772.144C489.32 767.52 497.218 753.624 497.574 749.805L496.419 749.263L496.742 748.684L497.271 748.372C498.644 745.121 488 719.601 486.234 715.073C484.18 710.038 482.47 704.824 480.65 699.699L481.679 698.126Z"/>
<path fill="#876D5E" d="M481.679 698.126L481.45 696.623C483.07 695.454 486.397 696.188 488.317 696.502C491.449 697.015 494.56 697.718 497.67 698.356C502.005 707.777 506.553 717.095 511.311 726.311C515.283 733.963 519.627 741.521 523.023 749.451L521.638 749.532C514.549 748.398 506.922 748.691 499.758 748.646C498.404 743.068 496.093 737.564 494.117 732.178C489.961 720.85 485.442 709.589 481.679 698.126Z"/>
<path fill="#E0C7AC" d="M446.225 749.46C455.329 749.564 464.96 748.889 474.006 749.61C481.378 749.594 489.095 750.018 496.419 749.263L497.574 749.805C497.218 753.623 489.32 767.52 487.171 772.144C478.176 791.897 469.047 811.588 459.784 831.216C457.281 835.989 454.877 840.811 452.572 845.681C452.058 839.273 451.006 832.168 451.518 825.792C451.675 817.444 451.254 809.069 451.198 800.718C451.233 788.199 451.191 775.681 451.07 763.163C450.696 759.911 450.778 754.941 449.306 752.069C449.231 751.75 449.087 751.092 448.967 750.805C448.514 749.713 447.256 749.731 446.225 749.46Z"/>
<path fill="#133059" d="M446.225 749.46C455.329 749.564 464.96 748.889 474.006 749.61C466.52 750.328 458.775 749.99 451.256 749.962C451.229 754.363 451.167 758.763 451.07 763.163C450.696 759.911 450.778 754.941 449.306 752.07C449.231 751.751 449.087 751.092 448.967 750.805C448.514 749.713 447.256 749.732 446.225 749.46Z"/>
</svg>