<svg width="1256" height="1256" viewBox="0 0 1256 1256" fill="none" xmlns="http://www.w3.org/2000/svg">
<path d="M368.807 339.361C367.169 337.504 365.875 335.564 365.799 333.008C365.791 332.679 365.801 332.35 365.828 332.022C365.855 331.694 365.899 331.368 365.96 331.045C366.022 330.721 366.1 330.402 366.196 330.086C366.29 329.771 366.402 329.462 366.53 329.158C366.658 328.855 366.801 328.559 366.961 328.271C367.119 327.982 367.293 327.703 367.482 327.433C367.671 327.164 367.873 326.904 368.088 326.656C368.305 326.407 368.533 326.171 368.774 325.946C370.496 324.324 372.812 323.296 375.203 323.436C377.642 323.579 379.426 324.736 381.046 326.475L379.762 326.353C376.987 324.719 374.944 324.374 371.807 325.242C371.578 325.305 371.352 325.375 371.123 325.442C369.526 326.433 368.404 328.283 367.937 330.093C367.464 331.927 367.458 334.317 368.463 335.971C368.802 336.525 369.185 337.051 369.568 337.575L368.807 339.361Z" fill="#0D0C27"/>
<path d="M678.833 562.519L679.748 564.429L676.413 564.458L676.7 562.506L678.833 562.519Z" fill="#040215"/>
<path d="M450.547 689.675C451.811 690.348 453.025 691.336 454.212 692.15L452.363 691.905C452.611 692.392 452.838 692.906 453.135 693.363C452.154 692.799 451.047 692.277 450.166 691.569C450.831 690.796 450.598 690.649 450.547 689.675Z" fill="#0D0C27"/>
<path d="M924.392 408.713C925.677 407.527 928.288 406.341 930.011 406.357L929.861 407.073C927.723 408.284 925.596 409.598 923.409 410.712L924.392 408.713Z" fill="#E9D8C3"/>
<path d="M748.416 502.928L748.89 504.28C746.561 503.554 741.746 506.114 740.595 503.605C740.49 503.375 740.464 503.117 740.399 502.874L741.151 503.332C742.855 503.493 743.562 502.486 745.036 501.986C746.594 501.458 747.131 502.16 748.416 502.928Z" fill="#A5753C"/>
<path d="M771.755 461.031L771.473 462.683L766.542 466.241L764.307 465.781C764.698 464.321 765.091 462.795 766.349 461.812C767.93 460.575 769.901 460.879 771.755 461.031Z" fill="#ECE3D8"/>
<path d="M509.306 780.466L508.126 784.393C505.433 782.897 502.881 781.169 500.308 779.478C503.625 779.051 506.347 778.657 509.306 780.466Z" fill="#8D5A34"/>
<path d="M505.089 749.066C505.584 750.214 506.014 751.4 506.702 752.447C506.461 754.47 507.013 757.241 506.247 759.02C503.886 754.964 502.335 750.208 500.184 745.989L501.754 745.675C501.932 746.168 502.161 747.001 502.474 747.452C503.26 748.588 503.835 748.667 505.089 749.066Z" fill="#CE9B52"/>
<path d="M770.913 522.11C771.934 523.613 772.903 525.113 773.79 526.7C775.094 528.767 776.471 530.784 777.919 532.753C777.799 532.635 777.679 532.519 777.56 532.401C775.485 530.313 773.807 527.923 772.045 525.576L771.628 525.973L772.746 527.675L772.438 527.976C768.803 523.591 765.269 518.956 761.343 514.835C766.427 515.658 766.887 521.097 770.913 522.11Z" fill="#C2843E"/>
<path d="M789.145 556.022C789.612 559.492 788.455 562.871 789.058 566.285C786.969 565.45 784.78 564.816 782.641 564.121C784.4 561.837 786.157 559.609 787.581 557.094L789.145 556.022Z" fill="#A5753C"/>
<path d="M918.349 403.485C922.998 401.833 928.085 400.992 932.89 399.834C938.349 398.519 943.809 396.869 949.352 395.969C945.351 398.21 941.372 400.49 937.414 402.807L937.471 401.684L938.782 400.27L938.489 399.922C933.808 401.273 922.902 405.163 918.349 403.485Z" fill="#B19075"/>
<path d="M396.266 708.861L395.324 711.2L392.883 709.926L393.751 708.425L396.266 708.861Z" fill="#6DCAB6"/>
<path d="M441.769 706.642C445.783 707.966 449.149 709.988 452.282 712.803C449.154 714.965 446.056 717.265 442.727 719.104C442.821 718.872 442.912 718.638 443.009 718.406C443.428 717.413 444.077 716.681 444.782 715.883C444.667 714.698 443.973 713.729 443.078 712.976C441.166 711.367 439.074 710.432 436.587 710.779C435.903 710.875 435.983 710.878 435.358 711.084C437.288 709.326 439.566 708.027 441.769 706.642Z" fill="#E0C7AC"/>
<path d="M690.618 550.567C690.928 553.331 689.301 556.103 687.617 558.201C686.395 559.722 685.172 560.851 683.543 561.943C683.321 562.093 683.101 562.247 682.877 562.396C682.743 562.486 682.604 562.569 682.469 562.656C681.256 562.529 680.048 562.328 678.834 562.518L676.7 562.505C675.938 562.385 675.186 562.209 674.432 562.049L674.537 561.527C679.301 557.299 685.245 553.972 690.618 550.567Z" fill="#4C6484"/>
<path d="M777.918 532.753C783.113 539.787 787.785 547.212 789.145 556.022L787.581 557.094C787.375 557.046 787.165 557.016 786.964 556.948C784.643 556.173 784.481 552.982 783.906 550.89C781.619 542.57 776.554 535.449 772.437 527.977L772.746 527.675L771.628 525.974L772.044 525.576C773.807 527.923 775.485 530.314 777.56 532.401C777.678 532.52 777.799 532.636 777.918 532.753Z" fill="#A5753C"/>
<path d="M509.431 671.238C510.319 671.046 510.089 671.184 510.706 670.807C511.204 670.504 511.694 670.215 512.207 669.936L513.899 670.545C507.178 675.498 499.681 679.253 493.644 685.106C492.3 683.616 490.829 682.27 489.367 680.898C494.818 677.03 502.53 671.68 509.431 671.238Z" fill="#164766"/>
<path d="M452.088 700.07C455.347 702.089 458.342 704.453 461.255 706.935C458.3 708.946 455.309 710.902 452.282 712.803C449.149 709.988 445.783 707.967 441.769 706.643C445.139 704.302 448.537 702.125 452.088 700.07Z" fill="#7B786A"/>
<path d="M453.651 781.806L454.625 781.455C458.21 785.66 460.431 792.165 463.271 797.033C461.408 799.743 459.605 802.539 457.626 805.163C455.199 800.594 449.054 791.233 447.797 787.171C448.339 786.184 448.996 785.65 449.832 784.919L453.651 781.806Z" fill="#C4A589"/>
<path d="M476.277 772.88C471.447 776.229 466.381 779.088 461.453 782.265C459.05 777.618 456.462 773.076 453.689 768.64C454.298 768.453 454.893 768.274 455.518 768.148C463.224 766.588 469.858 768.789 476.277 772.88Z" fill="#C2A080"/>
<path d="M647.792 628.488C656.57 628.85 667.908 632.405 676.475 634.958L669.416 640.032C660.422 638.926 651.025 638.062 642.274 635.611L640.844 635.222C643.085 634.204 646.163 634.796 648.623 634.549L653.679 630.712C651.431 630.291 649.656 629.853 647.792 628.488Z" fill="#BEE3D6"/>
<path d="M498.344 759.805C500.02 764.05 501.712 768.363 502.538 772.872C497.137 776.576 491.481 781.208 485.675 784.204C486.803 780.644 488.503 777.419 489.102 773.66C489.513 771.083 489.617 768.844 488.055 766.677C491.517 764.433 494.989 762.209 498.344 759.805Z" fill="#745B53"/>
<path d="M843.791 412.571C841.571 429.94 837.045 445.876 826.15 459.973L825.91 459.886C825.555 458.81 834.321 439.436 835.311 436.083C836.905 431.745 837.405 427.091 838.061 422.542C837.042 422.727 836.025 422.867 835.042 423.201L835.278 421.186C834.292 418.756 833.865 415.824 833.15 413.279C831.634 413.323 829.592 413.663 828.198 413.095L828.147 412.709C833.273 412.083 838.634 412.416 843.791 412.571Z" fill="#E9DCCE"/>
<path d="M835.277 421.186C835.825 419.756 836.118 418.539 837.488 417.732L838.183 418.19C838.674 419.762 838.372 420.952 838.061 422.542C837.042 422.727 836.025 422.867 835.042 423.202L835.277 421.186Z" fill="#D5B99D"/>
<path d="M771.569 515.2C782.164 525.894 790.913 545.714 794.977 560.157C795.302 561.556 795.643 563.214 794.886 564.551C794.291 565.603 793.147 566.179 792.011 566.411C791.084 566.601 789.987 566.408 789.058 566.285C788.455 562.871 789.612 559.492 789.145 556.022C787.785 547.211 783.113 539.787 777.918 532.753C776.47 530.785 775.094 528.767 773.789 526.701L774.103 526.25L773.537 524.913L773.82 524.703L775.321 524.967L776.259 524.157C776.777 521.18 773.23 517.613 771.569 515.2Z" fill="#F2CD7D"/>
<path d="M441.554 760.313C443.848 763.784 453.228 776.57 453.508 779.697L452.208 781.135L453.651 781.806L449.832 784.919C449.174 784.832 448.623 784.764 447.995 784.543L446.972 785.133C444.624 783.876 435.542 769.715 433.007 766.476L441.554 760.313Z" fill="#D5B99D"/>
<path d="M452.208 781.135L453.65 781.806L449.832 784.919C449.174 784.832 448.623 784.764 447.994 784.543L452.208 781.135Z" fill="#040215"/>
<path d="M453.135 693.363L453.493 694.3C451.047 697.581 440.12 702.164 436.292 703.755C433.932 696.665 431.892 690.437 433.387 682.876C439.624 685.023 444.724 687.878 450.166 691.569C451.047 692.277 452.154 692.799 453.135 693.363Z" fill="#8D5A34"/>
<path d="M591.214 663.664C602.921 667.738 615.168 669.929 627.076 673.298L620.966 677.766C608.641 674.823 595.3 669.73 582.564 669.64L581.584 668.51C583.241 667.542 585.11 666.627 586.637 665.474C587.513 664.813 587.959 664.115 588.126 663.025L591.214 663.664Z" fill="#4C6484"/>
<path d="M435.358 711.084C435.982 710.879 435.902 710.875 436.586 710.779C439.073 710.432 441.166 711.367 443.078 712.976C443.973 713.729 444.667 714.698 444.782 715.883C444.077 716.681 443.428 717.413 443.009 718.406C442.911 718.638 442.82 718.872 442.727 719.104C437.111 723.151 431.472 727.165 425.811 731.148C423.392 728.265 420.785 725.675 417.844 723.321C423.588 719.153 429.313 714.812 435.358 711.084Z" fill="#ECE3D8"/>
<path d="M409.438 745.751C413.096 749.9 426.894 764.037 427.331 769.119C426.793 770.24 426.603 770.369 425.562 771.071C423.757 771.698 422.386 772.469 420.83 773.574C418.052 769.826 414.889 766.42 412.05 762.73C408.443 758.04 405.11 753.104 401.713 748.262L409.438 745.751Z" fill="#E9D8C3"/>
<path d="M482.625 732.176C487.775 740.837 492.539 749.789 497.766 758.384C494.703 760.459 491.653 762.554 488.618 764.67C485.981 754.247 481.049 745.759 475.395 736.752C477.843 735.275 480.268 733.796 482.625 732.176Z" fill="#745B53"/>
<path d="M922.992 408.237L924.393 408.713L923.409 410.712C901.685 422.205 885.311 425.944 861.426 429.179C857.922 429.653 852.497 431.075 849.128 430.605C848.921 430.577 848.742 430.446 848.548 430.366C848.664 429.159 848.797 428.002 849.064 426.816C854.069 426.19 859.066 424.784 864.103 424.058C876.147 422.323 889.192 421.564 900.839 417.993C906.089 416.384 911.295 413.901 916.369 411.783C918.382 410.259 920.722 409.317 922.992 408.237Z" fill="#ECE3D8"/>
<path d="M462.062 707.652C469.229 713.548 477.026 723.522 482.26 731.253C479.953 733.08 477.457 735.056 474.773 736.274C468.417 727.695 461.266 720.689 453.702 713.244C455.686 710.956 459.449 709.222 462.062 707.652Z" fill="#7B786A"/>
<path d="M749.903 494.998C757.953 500.988 765.513 507.131 771.569 515.201C773.231 517.613 776.777 521.18 776.259 524.157L775.321 524.967L773.82 524.703L773.537 524.913L774.103 526.251L773.789 526.701C772.903 525.114 771.934 523.614 770.913 522.11C766.887 521.097 766.426 515.659 761.342 514.836C757.504 510.792 753.531 507.38 748.89 504.28L748.415 502.928C747.131 502.16 746.594 501.458 745.036 501.986C743.562 502.486 742.854 503.493 741.151 503.333L740.398 502.874L739.931 501.943C739.846 499.931 739.713 497.464 740.637 495.622C741.206 494.488 742.199 493.38 743.474 493.078C745.843 492.515 747.983 493.785 749.903 494.998Z" fill="#FAECB6"/>
<path d="M739.932 501.942C741.187 501.207 742.499 500.358 743.939 500.047C747.389 499.303 750.339 501.95 752.994 503.751C751.244 503.858 750.048 503.54 748.416 502.928C747.131 502.16 746.594 501.458 745.036 501.986C743.562 502.485 742.855 503.493 741.151 503.332L740.399 502.873L739.932 501.942Z" fill="#CE9B52"/>
<path d="M752.993 503.752C759.463 508.58 766.58 515.29 770.913 522.11C766.887 521.097 766.426 515.659 761.343 514.835C757.504 510.792 753.531 507.38 748.891 504.28L748.416 502.928C750.048 503.54 751.244 503.858 752.993 503.752Z" fill="#BD8A4F"/>
<path d="M839.338 450.514C839.328 450.772 839.327 451.031 839.309 451.289C838.958 456.243 829.702 462.504 831.811 467.136C832.851 467.681 832.763 467.645 833.89 467.294C834.714 466.499 834.862 465.952 835.145 464.89C835.827 462.329 837.733 458.15 839.963 456.702C838.328 462.506 834.315 467.985 831.908 473.599L829.83 478.042C829.118 480.567 828.226 483.065 827.405 485.559C832.361 486.101 837.248 485.769 842.219 485.673C842.37 486.91 842.93 487.718 843.823 488.57C845.62 490.284 847.604 490.503 849.984 490.486C844.833 493.106 838.972 494.956 833.57 497.056C829.005 490.529 824.114 484.217 819.327 477.852C826.298 468.916 832.703 459.686 839.338 450.514Z" fill="#B01B1B"/>
<path d="M831.908 473.598L829.83 478.041C829.112 477.41 828.841 477.126 828.625 476.186C829.213 474.834 830.681 474.287 831.908 473.598Z" fill="#A51111"/>
<path d="M787.995 528.908C792.417 532.724 796.446 549.018 801.81 549.883C802.195 551.16 802.769 552.555 802.204 553.861C801.629 555.195 800.41 555.767 799.103 556.156C798.459 556.348 797.781 556.546 797.115 556.642C796.377 557.79 795.571 558.926 794.977 560.157C790.913 545.714 782.164 525.894 771.569 515.2C765.514 507.131 757.953 500.988 749.903 494.998L751.621 492.935C764.438 502.632 772.744 512.028 782.128 524.824L783.419 527.043C784.919 528.02 786.275 528.442 787.995 528.908Z" fill="#000002"/>
<path d="M787.994 528.908C792.417 532.724 796.446 549.018 801.81 549.883C802.194 551.16 802.768 552.556 802.204 553.861C801.628 555.195 800.41 555.768 799.103 556.157C798.459 556.348 797.781 556.546 797.115 556.642C793.506 546.083 789.225 536.592 783.419 527.043C784.918 528.02 786.275 528.442 787.994 528.908Z" fill="#CE9B52"/>
<path d="M865.221 416.705C876.524 417.244 887.893 415.998 898.995 413.941C902.019 413.38 914.24 410.238 916.439 410.759L916.369 411.783C911.295 413.901 906.089 416.384 900.839 417.993C889.192 421.564 876.147 422.323 864.104 424.058C859.066 424.784 854.069 426.19 849.064 426.816C849.755 423.882 850.053 420.711 850.533 417.727L852.822 417.449C856.937 417.095 861.097 416.984 865.221 416.705Z" fill="#F5DBA8"/>
<path d="M488.055 766.677C489.617 768.844 489.513 771.083 489.102 773.66C488.503 777.419 486.803 780.644 485.675 784.204C479.772 788.085 474.464 792.297 467.91 795.101L461.974 783.272C470.911 778.122 479.604 772.591 488.055 766.677Z" fill="#876D5E"/>
<path d="M437.109 677.51C443.596 681.416 450.453 684.69 456.874 688.653C470.294 696.935 482.842 708.698 490.833 722.315C494.089 727.865 496.66 733.93 499.402 739.748L501.754 745.675L500.184 745.989C488.952 726.449 473.481 704.395 454.212 692.15C453.025 691.336 451.811 690.348 450.547 689.675C445.299 686.287 440.114 682.998 433.965 681.495C434.996 680.18 435.988 678.744 437.109 677.51Z" fill="#BD8A4F"/>
<path d="M413.262 727.426C424.158 737.245 432.815 748.618 441.554 760.313L433.007 766.476C429.353 761.659 425.604 756.918 421.759 752.252C417.504 747.162 409.305 739.535 406.772 733.872C407.608 730.952 410.925 729.115 413.262 727.426Z" fill="#FBFAF9"/>
<path d="M743.608 584.048C729.087 581.433 715.704 573.807 700.696 573.337C699.518 574.029 698.724 574.218 697.396 574.504C697.369 574.51 697.348 574.53 697.323 574.542C694.104 574.112 690.878 573.518 687.639 573.283C684.727 573.111 681.77 572.822 678.856 572.795C671.644 571.885 664.883 573.198 657.794 572.793C656.747 572.105 656.217 571.906 655.653 570.765C661.979 565.887 668.683 564.952 676.413 564.459L679.748 564.43C696.13 565.394 710.803 569.77 725.949 575.779C732.045 578.198 738.015 580.579 743.608 584.048Z" fill="#FBFAF9"/>
<path d="M655.653 570.765C670.783 568.666 685.83 570.107 700.696 573.337C699.519 574.029 698.724 574.218 697.396 574.504C697.37 574.51 697.348 574.53 697.323 574.542C694.105 574.112 690.878 573.518 687.639 573.283C684.727 573.111 681.77 572.822 678.856 572.795C671.644 571.885 664.884 573.198 657.794 572.793C656.747 572.105 656.218 571.906 655.653 570.765Z" fill="#000002"/>
<path d="M793.836 493.486C795.772 495.235 797.397 497.706 799.009 499.778C794.531 503.407 789.731 507.681 784.239 509.646C783.46 508.785 782.581 507.925 781.874 507.01L779.071 503.443C775.007 499.494 771.019 495.415 766.639 491.815C769.206 490.085 772.168 488.333 774.229 485.995C776.144 483.822 775.378 482.265 775.266 479.712C775.51 479.69 775.753 479.636 775.999 479.647C779.88 479.822 789.343 489.025 792.482 491.862L793.836 493.486Z" fill="#78797C"/>
<path d="M793.836 493.486C795.772 495.235 797.397 497.707 799.009 499.779C794.531 503.407 789.731 507.681 784.239 509.646C783.46 508.785 782.581 507.925 781.874 507.01L779.071 503.443C779.011 503.244 778.891 503.053 778.89 502.844C778.878 500.547 790.063 493.545 792.482 491.862L793.836 493.486Z" fill="#B3B2B2"/>
<path d="M793.836 493.486C795.772 495.235 797.397 497.706 799.009 499.778C794.531 503.407 789.731 507.681 784.239 509.645C783.46 508.784 782.581 507.925 781.874 507.01C786.463 504.858 792.527 501.378 795.268 496.995C795.404 495.537 794.575 494.724 793.836 493.486Z" fill="#8E9BA2"/>
<path d="M587.921 635.172C581.159 642.001 565.052 647.695 559.431 655.506L558.074 655.619C551.879 654.597 543.309 653.771 537.178 655.234C535.296 655.303 533.406 655.495 531.526 655.636C536.833 651.884 542.426 648.506 548.006 645.18C563.443 635.979 569.863 634.786 587.921 635.172Z" fill="#57627A"/>
<path d="M918.349 403.485C922.902 405.163 933.808 401.272 938.489 399.922L938.782 400.27L937.47 401.684L937.414 402.807C935.391 403.937 931.985 406.608 929.861 407.073L930.011 406.357C928.288 406.341 925.677 407.527 924.392 408.713L922.992 408.237C920.722 409.316 918.381 410.259 916.369 411.783L916.438 410.759C914.24 410.238 902.019 413.38 898.995 413.94C887.892 415.998 876.523 417.244 865.221 416.705C861.097 416.984 856.937 417.095 852.821 417.448L850.533 417.726C850.759 416.07 850.785 414.354 850.89 412.684C862.944 411.719 874.95 410.337 886.908 408.538C897.39 406.882 907.781 404.547 918.349 403.485Z" fill="#C2A080"/>
<path d="M937.47 401.684L937.414 402.807C935.391 403.938 931.985 406.608 929.861 407.073L930.011 406.357C928.288 406.341 925.677 407.527 924.392 408.713L922.992 408.237C923.118 408.022 923.224 407.793 923.371 407.59C925.125 405.183 934.506 402.318 937.47 401.684Z" fill="#98947F"/>
<path d="M852.822 417.449L851.977 416.766C851.96 416.188 851.797 415.921 852.244 415.473C853.586 414.125 856.353 414.125 858.165 414.169C860.046 414.216 864.181 414.28 865.525 415.682L865.221 416.705C861.097 416.984 856.937 417.095 852.822 417.449Z" fill="#D3AE83"/>
<path d="M611.928 635.391C608.421 638.171 604.531 640.488 600.859 643.047C593.447 648.264 586.087 653.554 578.779 658.915C576.434 658.504 573.945 657.868 571.566 657.845L569.753 657.124L565.871 656.303C563.727 656.002 561.59 655.681 559.431 655.506C565.052 647.695 581.159 642.001 587.921 635.172C591.579 634.661 595.195 634.765 598.866 635.043C601.135 635.104 603.363 635.053 605.629 634.944L611.928 635.391Z" fill="#4C6484"/>
<path d="M598.866 635.044C597.127 638.473 587.802 641.996 584.323 644.593C579.18 648.432 574.845 653.307 569.752 657.124L565.871 656.303C563.727 656.003 561.59 655.681 559.431 655.506C565.052 647.696 581.159 642.001 587.921 635.172C591.579 634.662 595.195 634.765 598.866 635.044Z" fill="#8E9BA2"/>
<path d="M784.239 509.645L784.861 510.668C786.516 514.57 789.658 517.778 791.583 521.572C792.288 522.926 793.008 524.272 793.744 525.609C796.821 532.753 801.109 539.466 803.089 547.065L801.264 547.046L801.81 549.883C796.446 549.018 792.417 532.724 787.995 528.908C786.275 528.442 784.919 528.02 783.419 527.043L782.128 524.824C772.744 512.028 764.438 502.632 751.621 492.935C751.802 492.511 751.894 492.263 752.103 491.878C752.786 490.62 754.044 489.008 755.509 488.709C758.923 488.013 763.081 491.803 765.673 493.7L766.639 491.815C771.019 495.415 775.007 499.494 779.071 503.443L781.874 507.01C782.581 507.925 783.46 508.784 784.239 509.645Z" fill="#DAA960"/>
<path d="M782.128 524.824C782.663 524.828 782.866 524.81 783.352 524.871C785.301 525.117 786.818 527.495 787.995 528.908C786.275 528.442 784.919 528.02 783.419 527.043L782.128 524.824Z" fill="#D3AE83"/>
<path d="M784.239 509.645L784.861 510.668C786.516 514.57 789.658 517.778 791.583 521.572C792.288 522.926 793.008 524.272 793.744 525.609C796.821 532.753 801.109 539.466 803.089 547.065L801.264 547.046C795.265 525.837 781.65 508.339 765.673 493.7L766.639 491.815C771.019 495.415 775.007 499.494 779.071 503.443L781.874 507.01C782.581 507.925 783.46 508.784 784.239 509.645Z" fill="#000002"/>
<path d="M647.792 628.488C649.656 629.853 651.431 630.291 653.679 630.712L648.623 634.549C646.163 634.796 643.085 634.204 640.844 635.221C632.11 634.849 623.552 633.602 614.773 633.424C614.153 634.655 612.955 634.678 611.928 635.391L605.629 634.944L606.803 633.141C591.975 630.383 575.271 633.895 560.218 634.162C577.675 625.232 593.023 622.803 612.539 623.211C612.978 622.401 612.97 622.071 613.009 621.173C614.994 621.057 617.013 621.448 618.979 621.706L622.026 622.26L622.818 622.194L626.445 622.739C628.557 622.993 630.48 623.219 632.483 622.366C633.602 623.683 634.854 624.869 636.085 626.08C639.83 627.223 643.969 627.406 647.792 628.488Z" fill="#FBFAF9"/>
<path d="M626.445 622.739L626.684 624.77L621.237 624.131L622.027 622.261L622.818 622.195L626.445 622.739Z" fill="#0D0C27"/>
<path d="M614.773 633.424C614.153 634.656 612.955 634.678 611.928 635.391L605.629 634.944L606.803 633.142C609.472 633.21 612.106 633.223 614.773 633.424Z" fill="#0D0C27"/>
<path d="M632.483 622.366C633.602 623.683 634.854 624.869 636.085 626.08C632.937 625.718 629.795 625.385 626.683 624.77L626.445 622.739C628.557 622.993 630.481 623.219 632.483 622.366Z" fill="#090A32"/>
<path d="M622.027 622.26L621.237 624.131C618.299 623.956 615.447 623.672 612.54 623.211C612.978 622.401 612.97 622.071 613.009 621.173C614.994 621.057 617.013 621.448 618.979 621.706L622.027 622.26Z" fill="#090A32"/>
<path d="M408.121 744.699C402.869 748.173 365.242 755.592 355.438 759.159L343.105 742.673C343.188 742.582 343.261 742.481 343.355 742.402C346.851 739.449 394.604 739.08 401.595 738.91C403.79 740.817 405.965 742.747 408.121 744.699Z" fill="#ECE3D8"/>
<path d="M799.009 499.779L802.176 504.406C803.876 506.935 805.514 509.504 807.09 512.112C807.97 513.489 808.88 514.836 809.561 516.326C813.681 525.228 817.24 533.731 819.077 543.432C815.341 542.387 811.596 541.526 808.043 543.664C806.487 544.601 805.265 545.963 804.049 547.29L803.089 547.065C801.109 539.466 796.821 532.753 793.744 525.609C793.008 524.272 792.288 522.927 791.583 521.572C789.658 517.778 786.516 514.57 784.861 510.668L784.239 509.646C789.731 507.681 794.531 503.407 799.009 499.779Z" fill="#133059"/>
<path d="M807.09 512.112C807.97 513.489 808.879 514.836 809.56 516.326C804.844 519.651 799.917 523.322 794.705 525.806L793.744 525.609C793.008 524.272 792.288 522.926 791.583 521.572C797.607 519.935 802.249 515.844 807.09 512.112Z" fill="#1A427D"/>
<path d="M799.009 499.779L802.176 504.406C803.876 506.935 805.514 509.504 807.09 512.112C802.249 515.844 797.607 519.935 791.583 521.572C789.658 517.778 786.516 514.57 784.861 510.668L784.239 509.646C789.731 507.681 794.531 503.407 799.009 499.779Z" fill="#164766"/>
<path d="M799.009 499.779L802.176 504.406C798.077 507.86 792.959 512.154 787.73 513.653C786.412 513.284 785.674 511.769 784.861 510.668L784.239 509.646C789.731 507.681 794.531 503.407 799.009 499.779Z" fill="#78797C"/>
<path d="M578.778 658.915C581.643 659.645 585.189 660.131 587.786 661.499L587.829 662.748L588.126 663.025C587.959 664.115 587.513 664.813 586.637 665.474C585.11 666.627 583.241 667.542 581.584 668.51C580.249 668.595 579.107 668.562 577.784 668.355L577.589 670.073C574.107 669.105 568.06 668.107 564.543 669.114L557.117 668.622C551.978 668.189 546.862 667.631 541.71 668.192C535.78 667.449 529.412 667.648 523.47 668.213C520.231 668.772 516.943 669.25 513.898 670.545L512.206 669.936C511.693 670.215 511.204 670.504 510.705 670.807C510.088 671.183 510.318 671.046 509.431 671.238L509.098 667.922L508.824 667.66L508.956 667.139C517.823 662.317 526.752 659.278 536.62 657.287L537.178 655.234C543.309 653.771 551.879 654.597 558.074 655.619L559.431 655.506C561.59 655.681 563.727 656.002 565.87 656.303L569.752 657.124L571.566 657.845C573.944 657.868 576.434 658.504 578.778 658.915Z" fill="#FBFAF9"/>
<path d="M569.753 657.124L571.566 657.845L571.139 659.611C568.814 659.066 566.497 658.495 564.143 658.086L565.871 656.303L569.753 657.124Z" fill="#0D0C27"/>
<path d="M565.87 656.303L564.142 658.085L558.257 657.403L558.074 655.619L559.431 655.506C561.59 655.681 563.727 656.002 565.87 656.303Z" fill="#050C44"/>
<path d="M521.835 666.652C522.177 667.664 522.595 667.663 523.47 668.213C520.231 668.772 516.943 669.251 513.899 670.546L512.207 669.936C511.693 670.216 511.204 670.504 510.706 670.808C510.089 671.184 510.319 671.046 509.431 671.238L509.098 667.922C513.282 667.583 517.605 666.137 521.835 666.652Z" fill="#090A32"/>
<path d="M558.075 655.619L558.257 657.403C551.048 656.761 543.836 656.723 536.62 657.287L537.178 655.234C543.31 653.771 551.88 654.597 558.075 655.619Z" fill="#0D0C27"/>
<path d="M577.784 668.355L577.589 670.074C574.107 669.105 568.06 668.107 564.543 669.114L557.117 668.622C551.978 668.19 546.862 667.631 541.71 668.192C535.78 667.449 529.413 667.648 523.47 668.213C522.595 667.663 522.177 667.664 521.835 666.652C536.288 664.373 557.225 666.396 571.871 667.614L577.784 668.355Z" fill="#000002"/>
<path d="M578.779 658.915C581.643 659.645 585.189 660.131 587.786 661.5L587.829 662.748L588.126 663.026C587.959 664.115 587.513 664.813 586.637 665.474C585.11 666.628 583.241 667.542 581.585 668.51C580.249 668.595 579.107 668.562 577.785 668.355L571.871 667.614C573.153 665.383 576.225 663.116 576.631 660.75L571.139 659.611L571.566 657.845C573.945 657.869 576.434 658.504 578.779 658.915Z" fill="#FBFAF9"/>
<path d="M578.779 658.915C581.643 659.645 585.189 660.131 587.786 661.5L587.829 662.748C584.307 662.017 580.201 660.805 576.631 660.75L571.139 659.611L571.566 657.845C573.945 657.869 576.434 658.504 578.779 658.915Z" fill="#000002"/>
<path d="M757.79 518.841C759.817 521.502 761.845 524.14 764.022 526.68C753.574 535.227 742.725 543.155 731.951 551.277C724.859 556.624 717.81 562.409 710.442 567.343C705.21 565.92 699.953 564.229 694.582 563.444C704.986 554.513 716.775 547.39 728.082 539.685C738.079 532.871 747.765 525.608 757.79 518.841Z" fill="#46536A"/>
<path d="M527.747 741.9C533.608 750.181 535.181 762.229 536.604 772.009C531.513 775.334 516.135 786.744 510.113 785.209C509.361 785.018 508.79 784.775 508.126 784.394L509.306 780.466C511.853 772.424 508.731 766.527 506.247 759.02C507.013 757.241 506.461 754.47 506.702 752.447C513.155 749.533 523.029 748.366 528.048 745.597C528.606 744.271 528.127 743.205 527.747 741.9Z" fill="#A5753C"/>
<path d="M475.394 736.752C481.049 745.759 485.981 754.247 488.618 764.67C484.54 767.466 480.474 770.265 476.277 772.88C469.857 768.789 463.224 766.588 455.518 768.148C454.893 768.275 454.298 768.453 453.689 768.64C450.821 764.933 448.432 760.453 446.049 756.417C447.901 755.038 449.692 753.59 451.781 752.589C454.347 752.511 472.251 738.951 475.394 736.752Z" fill="#D5B99D"/>
<path d="M776.681 462.831C782.278 466.716 788.183 470.512 793.217 475.112C810.225 490.66 827.831 518.475 831.858 541.165C832.361 544.003 832.947 547.695 831.18 550.222C830.293 551.491 829.223 551.677 827.799 551.849C827.654 551.867 827.509 551.88 827.364 551.895C826.547 551.362 825.753 551.043 825.296 550.158C824.014 547.677 824.386 543.66 823.929 540.857C823.465 537.934 822.808 535.055 821.959 532.22C819.784 525.031 816.428 518.35 813.11 511.641C808.802 504.339 803.846 498.128 798.004 491.974C792.045 486.56 785.986 480.364 779.265 475.938C774.381 472.722 767.528 470.744 764.307 465.781L766.542 466.241L771.473 462.683L771.755 461.031C773.495 461.457 775.045 462.119 776.681 462.831Z" fill="#F2CD7D"/>
<path d="M771.755 461.031C773.495 461.456 775.045 462.119 776.681 462.83C776.6 462.957 776.518 463.084 776.438 463.211C775.774 464.276 775.404 464.912 775.376 466.213L774.692 467.084C774.459 466.977 774.228 466.866 773.993 466.763C772.513 466.115 770.922 466.303 769.447 465.703C769.613 464.478 770.684 463.577 771.473 462.683L771.755 461.031Z" fill="#F5DBA8"/>
<path d="M807.667 498.209L806.109 498.073L806.754 499.753C805.212 497.883 802.172 493.371 800.158 492.414C799.622 492.159 798.612 492.098 798.004 491.974C792.045 486.56 785.986 480.364 779.265 475.937C774.381 472.721 767.528 470.744 764.307 465.78L766.542 466.24C770.547 468.333 775.074 469.201 779.086 471.449C790.235 477.695 798.566 489.403 807.667 498.209Z" fill="#D3AE83"/>
<path d="M807.668 498.209C807.764 498.268 807.869 498.315 807.956 498.386C809.627 499.748 813.853 503.469 814.251 505.469C815.525 506.989 816.415 508.212 816.989 510.118C817.799 511.296 818.648 512.43 819.214 513.752C824.51 524.752 831.375 539.535 827.365 551.895C826.548 551.362 825.754 551.043 825.296 550.158C824.015 547.677 824.386 543.66 823.929 540.857C823.465 537.934 822.809 535.055 821.959 532.22C819.785 525.031 816.428 518.35 813.111 511.641C808.802 504.339 803.846 498.128 798.004 491.974C798.613 492.098 799.623 492.16 800.159 492.415C802.172 493.371 805.212 497.884 806.754 499.753L806.109 498.073L807.668 498.209Z" fill="#C2843E"/>
<path d="M807.668 498.209C807.764 498.268 807.869 498.315 807.956 498.386C809.627 499.748 813.853 503.469 814.251 505.469C815.525 506.989 816.415 508.212 816.989 510.118C817.799 511.296 818.648 512.43 819.214 513.752C817.184 511.951 814.232 510.305 813.003 507.906C812.4 506.728 810.673 504.876 809.514 504.339C810.883 507.399 813.171 510.119 814.719 513.171C814.044 512.72 813.621 512.27 813.111 511.641C808.802 504.339 803.846 498.128 798.004 491.974C798.613 492.098 799.623 492.16 800.159 492.415C802.172 493.371 805.212 497.884 806.754 499.753L806.109 498.073L807.668 498.209Z" fill="#CE9B52"/>
<path d="M814.251 505.469C815.524 506.989 816.415 508.212 816.988 510.118C814.713 509.029 812.689 506.24 811.06 504.327L811.144 503.343L811.663 503.289C812.424 504.221 813.007 505.21 814.251 505.469Z" fill="#D3AE83"/>
<path d="M807.668 498.209C807.764 498.268 807.869 498.315 807.956 498.386C809.627 499.748 813.852 503.468 814.251 505.469C813.007 505.21 812.424 504.221 811.664 503.289L811.144 503.343L811.06 504.327C809.695 502.786 808.342 501.064 806.754 499.753L806.109 498.073L807.668 498.209Z" fill="#ECC082"/>
<path d="M748.773 510.057C752.003 512.794 754.94 515.716 757.79 518.841C747.765 525.608 738.079 532.871 728.082 539.685C716.775 547.39 704.987 554.513 694.582 563.444C691.066 563.185 685.694 563.452 682.469 562.656C682.605 562.569 682.743 562.486 682.877 562.396C683.101 562.248 683.321 562.093 683.543 561.943C685.172 560.851 686.395 559.722 687.617 558.201C689.301 556.103 690.928 553.331 690.618 550.567C697.121 545.284 704.443 540.616 711.318 535.813C723.699 527.076 736.184 518.491 748.773 510.057Z" fill="#041E47"/>
<path d="M453.702 713.244C461.266 720.689 468.417 727.695 474.773 736.274C467.044 741.594 459.622 747.453 451.781 752.589C449.692 753.59 447.902 755.038 446.05 756.417C442.85 753.155 440.253 749.048 437.49 745.405C434.025 740.835 430.372 736.45 426.658 732.082C435.572 725.674 444.983 719.918 453.702 713.244Z" fill="#E8D1BA"/>
<path d="M557.117 668.622C556.352 669.943 555.531 670.807 554.348 671.774C550.602 674.839 546.178 677.215 542.184 679.966C536.286 684.028 514.838 700.647 509.723 701.648C509.325 701.726 509.192 701.65 508.772 701.567C507.031 699.38 505.221 697.253 503.34 695.186C499.962 691.973 496.824 688.514 493.644 685.106C499.681 679.254 507.178 675.498 513.899 670.545C516.944 669.25 520.232 668.772 523.471 668.213C529.413 667.648 535.78 667.449 541.71 668.192C546.863 667.631 551.978 668.189 557.117 668.622Z" fill="#768396"/>
<path d="M523.471 668.213C529.413 667.648 535.78 667.449 541.71 668.192C536.207 672.458 505.067 692.2 503.34 695.186C499.962 691.973 496.824 688.514 493.644 685.107C499.681 679.254 507.178 675.498 513.899 670.546C516.944 669.251 520.232 668.772 523.471 668.213Z" fill="#4E5B77"/>
<path d="M657.794 572.793C664.884 573.198 671.644 571.885 678.856 572.795C667.026 581.425 655.032 589.822 642.876 597.985C634.004 603.974 624.848 609.658 616.225 615.996C614.322 617.396 611.478 619.175 610.28 621.222C603.694 619.904 588.957 621.909 582.204 622.839C588.75 618.444 656.966 574.011 657.794 572.793Z" fill="#41516D"/>
<path d="M697.323 574.542C690.157 580.841 682.434 586.247 674.718 591.833C666.178 598.075 657.6 604.264 648.983 610.399C644.436 613.646 636.038 618.542 632.482 622.366C630.48 623.219 628.557 622.994 626.444 622.739L622.818 622.195L622.026 622.261L618.979 621.706C617.013 621.449 614.994 621.057 613.009 621.174L610.28 621.222C611.478 619.175 614.322 617.396 616.225 615.996C624.848 609.658 634.004 603.974 642.876 597.985C655.032 589.822 667.025 581.425 678.856 572.795C681.77 572.823 684.726 573.111 687.639 573.283C690.878 573.518 694.104 574.112 697.323 574.542Z" fill="#6E798A"/>
<path d="M649.652 603.506L651.147 603.085C649.549 605.047 634.77 615.387 632.431 616.266C629.341 618.474 625.917 620.057 622.818 622.195L622.027 622.26L618.979 621.706C622.277 619.843 626.04 617.991 629.691 617.005C636.343 612.75 642.696 607.129 649.652 603.506Z" fill="#78797C"/>
<path d="M697.324 574.542C690.157 580.841 682.435 586.247 674.718 591.833C666.179 598.075 657.6 604.264 648.983 610.399C644.436 613.646 636.038 618.542 632.483 622.366C630.481 623.219 628.558 622.994 626.445 622.739L622.819 622.195C625.918 620.057 629.342 618.474 632.431 616.266C634.77 615.387 649.549 605.047 651.147 603.085L649.653 603.506C650.283 603.155 650.798 602.818 651.342 602.337C657.954 596.468 665.55 591.614 672.699 586.421C677.51 582.926 682.059 578.997 687.081 575.812L687.669 575.443C688.172 574.401 688.019 574.398 687.639 573.283C690.878 573.518 694.105 574.112 697.324 574.542Z" fill="#485B76"/>
<path d="M952.847 400.171C945.838 411.666 937.856 422.498 930.971 434.131C920.866 451.208 912.257 468.981 902.99 486.504C896.718 485.4 890.53 484.523 884.152 484.268C886.233 480.267 888.211 475.874 890.822 472.2C894.318 464.957 901.819 450.842 907.524 445.543C909.907 442.617 911.907 439.331 914.26 436.35C918.629 430.813 923.632 425.814 928.818 421.047C931.389 418.288 934.373 415.809 937.157 413.262C942.411 408.773 947.172 404.196 952.847 400.171Z" fill="#937D6C"/>
<path d="M937.157 413.262L938.633 412.731C938.011 415.284 933.576 418.97 931.398 420.478L928.817 421.047C931.389 418.288 934.373 415.81 937.157 413.262Z" fill="#FBFAF9"/>
<path d="M912.263 445.237C909.591 449.036 894.357 471.308 891.537 472.093C891.305 472.157 891.06 472.165 890.822 472.201C894.318 464.958 901.819 450.843 907.524 445.543C909.463 446.195 910.374 445.788 912.263 445.237Z" fill="#CFBDAF"/>
<path d="M931.397 420.478C928.151 427.03 917.87 437.838 912.801 443.879L913.021 443.974C912.79 444.45 912.637 444.856 912.263 445.237C910.374 445.788 909.462 446.195 907.523 445.543C909.906 442.617 911.907 439.331 914.259 436.35C918.629 430.813 923.632 425.814 928.817 421.047L931.397 420.478Z" fill="#ECE3D8"/>
<path d="M846.005 436.878C856.038 433.823 866.358 432.801 876.556 430.563C899.412 425.545 919.165 416.655 939.238 404.795C931.286 412.696 923.067 419.833 916.104 428.689C910.082 435.405 904.718 442.344 899.395 449.621C891.628 460.689 885.29 472.683 877.351 483.644C867.856 485.33 858.817 486.946 849.651 490.043C847.272 490.06 845.287 489.841 843.49 488.127C842.597 487.275 842.038 486.467 841.887 485.23C853.425 483.654 866.135 480.804 877.332 477.651C884.545 465.185 889.251 451.272 894.12 437.777C885.843 437.629 877.579 438.123 869.31 438.376C865.014 438.508 860.446 438.207 856.203 438.892C846.193 440.507 845.112 448.82 839.9 455.902C839.811 456.022 839.72 456.141 839.631 456.259C837.4 457.707 835.494 461.886 834.812 464.447C834.53 465.509 834.381 466.056 833.558 466.851C832.43 467.202 832.519 467.238 831.478 466.693C829.37 462.061 838.625 455.8 838.976 450.846C838.994 450.588 838.996 450.329 839.006 450.071C840.734 445.24 843.288 441.188 846.005 436.878Z" fill="#D50303"/>
<path d="M916.436 429.131C910.414 435.847 905.051 442.787 899.727 450.063C899.881 448.602 900.372 447.195 900.919 445.839C903.764 438.791 909.373 432.138 916.436 429.131Z" fill="#B61111"/>
<path d="M833.15 413.279C833.865 415.824 834.292 418.756 835.277 421.186L835.042 423.201C836.025 422.867 837.042 422.727 838.061 422.542C837.405 427.091 836.905 431.745 835.311 436.083C832.69 436.785 827.677 447.42 822.686 450.925C815.969 458.953 809.218 468.25 800.814 474.606C800.494 475.568 800.024 475.917 799.328 476.618C799.293 476.654 799.269 476.7 799.24 476.741C797.035 474.838 794.867 472.892 792.737 470.904C791.165 469.641 788.482 468.108 787.739 466.269C790.4 462.655 793.141 459.098 796.329 455.93C804.175 443.835 812.512 428.25 813.304 413.718C818.032 413.2 823.442 412.213 828.147 412.709L828.198 413.094C829.592 413.663 831.633 413.323 833.15 413.279Z" fill="#D0AB87"/>
<path d="M796.329 455.931C796.3 456.054 796.273 456.178 796.243 456.301C795.835 457.935 795.128 459.275 794.322 460.743L794.591 461.369C795.453 461.178 795.511 461.302 796.119 460.607C796.735 459.904 796.463 460.162 797.158 459.636C796.703 462.001 795.203 463.442 795.019 466.018L795.235 466.562C792.192 465.917 790.846 465.177 787.739 466.269C790.4 462.655 793.141 459.098 796.329 455.931Z" fill="#98947F"/>
<path d="M838.061 422.543C837.405 427.092 836.905 431.746 835.311 436.083C832.69 436.785 827.677 447.42 822.686 450.925C823.362 449.028 823.889 447.278 824.158 445.279C828.208 438.138 832.426 431.011 835.042 423.202C836.025 422.867 837.042 422.727 838.061 422.543Z" fill="#98947F"/>
<path d="M824.158 445.279C823.889 447.278 823.362 449.028 822.685 450.925C815.969 458.953 809.218 468.25 800.814 474.606C800.494 475.568 800.024 475.917 799.328 476.618C799.292 476.654 799.269 476.7 799.24 476.741C797.035 474.838 794.867 472.892 792.736 470.904C791.165 469.642 788.482 468.108 787.739 466.269C790.845 465.177 792.192 465.917 795.235 466.562L795.019 466.018C795.152 466.067 795.281 466.128 795.419 466.164C798.211 466.931 801.131 463.447 803.622 462.291C804.54 462.755 805.204 463.012 806.228 463.132C812.228 460.814 819.551 450.19 824.158 445.279Z" fill="#928F93"/>
<path d="M808.365 463.313C806.351 466.061 801.095 471.426 800.814 474.606C800.494 475.568 800.024 475.917 799.328 476.618C799.292 476.655 799.269 476.7 799.24 476.742C797.035 474.838 794.867 472.892 792.736 470.904C799.118 470.872 803.451 466.856 808.365 463.313Z" fill="#7B786A"/>
<path d="M344.492 745.663C348.482 749.196 352.992 756.274 355.109 761.097C349.146 768.754 345.338 778.072 340.677 786.555L313.697 835.532C310.576 841.267 305.755 851.901 301.546 856.552L301.144 856.371L301.387 854.498C303.179 845.289 306.838 836.499 309.485 827.523C315.102 808.484 320.073 789.547 327.244 770.976C329.238 765.813 336.553 744.692 341.483 742.506C342.714 742.844 343.731 744.646 344.492 745.663Z" fill="#E0C7AC"/>
<path d="M401.714 748.262C405.11 753.104 408.444 758.04 412.05 762.73C414.889 766.42 418.053 769.826 420.831 773.574L401.009 787.573C397.611 789.967 393.91 792.247 390.719 794.9C388.408 796.09 386.188 797.821 384.027 799.284L356.109 760.039C371.117 755.209 386.726 752.936 401.714 748.262Z" fill="#FBFAF9"/>
<path d="M642.274 635.61C642.51 636.937 642.373 637.563 643.609 638.366C647.925 641.171 659.733 642.006 665.302 643.396C654.376 651.465 640.911 661.308 631.191 670.665C625.02 669.29 618.786 668.108 612.638 666.642C606.695 665.224 596.486 661.554 590.868 661.728C590.934 662.436 591.017 662.972 591.214 663.664L588.126 663.025L587.829 662.748L587.786 661.5C585.189 660.131 581.643 659.645 578.778 658.915C586.087 653.554 593.447 648.264 600.859 643.047C604.531 640.488 608.42 638.171 611.928 635.391C612.955 634.678 614.153 634.655 614.773 633.424C623.552 633.603 632.11 634.849 640.844 635.221L642.274 635.61Z" fill="#09163E"/>
<path d="M894.452 438.219C889.584 451.714 884.878 465.627 877.665 478.094C866.468 481.247 853.758 484.096 842.219 485.672C837.248 485.769 832.361 486.101 827.405 485.558C828.226 483.065 829.118 480.567 829.83 478.041L831.908 473.598C834.315 467.985 838.328 462.505 839.963 456.702C840.053 456.583 840.144 456.465 840.232 456.345C845.445 449.263 846.526 440.95 856.536 439.335C860.779 438.65 865.347 438.95 869.642 438.819C877.912 438.566 886.176 438.071 894.452 438.219Z" fill="#E80505"/>
<path d="M867.473 472.438C868.852 473.532 869.859 475.376 870.862 476.821C857.421 480.283 844.064 482.395 830.259 483.777C831.357 481.539 832.406 479.263 833.688 477.124C843.933 479.097 857.871 475.974 867.473 472.438Z" fill="#B61111"/>
<path d="M885.326 441.408C886.681 441.262 888.036 440.905 889.266 441.634C890.141 446.691 878.472 469.747 875.747 475.226L870.862 476.821C869.86 475.376 868.852 473.533 867.473 472.439L867.649 472.29C875.127 467.464 875.939 457.668 880.551 450.753C882.375 448.018 885.838 446.587 887.65 443.813C887.326 442.441 886.454 442.201 885.326 441.408Z" fill="#B61111"/>
<path d="M849.909 447.276C855.828 455.563 862.083 463.77 867.649 472.29L867.473 472.439C857.871 475.974 843.933 479.097 833.688 477.124C838.609 466.832 843.708 456.86 849.909 447.276Z" fill="#E91F1F"/>
<path d="M885.562 441.784C886.69 442.576 887.562 442.817 887.886 444.189C886.074 446.963 882.611 448.394 880.787 451.129C876.175 458.044 875.363 467.84 867.886 472.666C862.319 464.146 856.065 455.939 850.146 447.652C851.298 446.027 852.507 444.436 853.689 442.831C864.286 441.917 874.933 441.907 885.562 441.784Z" fill="#B61111"/>
<path d="M425.434 772.274C426.598 771.519 427.298 770.79 428.705 770.775C434.165 775.262 441.214 787.113 444.788 793.325L442.307 796.631C439.19 801.088 435.937 805.507 433.029 810.102C430.367 814.169 415.766 837.649 412.321 838.418L411.76 838.168C403.184 825.896 393.692 813.947 385.665 801.329C385.673 800.128 386.069 800.123 386.876 799.298L386.578 798.739C386.949 797.431 389.608 795.809 390.719 794.9C393.91 792.246 397.61 789.967 401.009 787.573L420.83 773.574C422.386 772.468 423.757 771.698 425.562 771.071L425.434 772.274Z" fill="#E9D8C3"/>
<path d="M425.562 771.071L425.434 772.274C424.23 773.168 423.037 774.141 421.726 774.869C409.603 782.212 398.818 791.711 386.876 799.299L386.578 798.739C386.949 797.431 389.608 795.81 390.719 794.9C393.909 792.247 397.61 789.967 401.009 787.573L420.83 773.574C422.386 772.469 423.757 771.698 425.562 771.071Z" fill="#000002"/>
<path d="M425.434 772.274C426.598 771.52 427.298 770.791 428.705 770.776C434.165 775.262 441.214 787.113 444.788 793.325L442.307 796.631C439.19 801.088 435.937 805.507 433.029 810.102C430.514 805.199 427.926 800.435 425.167 795.662L421.148 794.85C423.248 792.338 427.118 788.674 427.659 785.412C428.268 781.735 423.806 777.646 421.726 774.868C423.038 774.141 424.231 773.168 425.434 772.274Z" fill="#C4A589"/>
<path d="M355.705 761.729C359.899 765.988 363.168 771.337 366.599 776.221C371.61 783.35 376.679 790.438 381.805 797.484C382.182 798.482 382.928 799.496 382.302 800.498C382.137 800.762 381.684 801.262 381.469 801.508C379.984 804.373 375.89 807.192 373.459 809.384C363.336 816.749 353.167 824.05 342.953 831.288C336.186 836.181 329.611 841.385 322.721 846.103L324.764 843.908C323.69 844.54 322.592 845.546 321.275 845.279C321.02 845.227 320.783 845.108 320.537 845.023C315.297 848.819 310.013 852.552 304.685 856.222C313.067 838.982 322.755 822.605 331.908 805.788C339.901 791.104 347.2 776.137 355.705 761.729Z" fill="#E0C7AC"/>
<path d="M381.469 801.508C379.985 804.373 375.89 807.192 373.46 809.384C363.336 816.749 353.167 824.05 342.953 831.287C336.186 836.181 329.611 841.385 322.722 846.103L324.764 843.907C323.69 844.54 322.592 845.545 321.275 845.279C321.02 845.227 320.783 845.108 320.538 845.023L358.955 817.075C364.732 812.853 375.125 803.827 381.469 801.508Z" fill="#302F41"/>
<path d="M454.216 662.25C456.863 663.53 459.477 664.873 462.059 666.279C485.97 679.313 504.99 700.61 518.829 723.768C522.239 729.476 525.864 735.488 527.747 741.9C528.127 743.204 528.607 744.271 528.048 745.597C523.029 748.366 513.155 749.532 506.702 752.447C506.014 751.4 505.584 750.214 505.089 749.066C503.835 748.666 503.26 748.588 502.474 747.452C502.161 747.001 501.932 746.168 501.754 745.675L499.402 739.748C496.66 733.93 494.09 727.865 490.833 722.315C482.842 708.697 470.294 696.935 456.874 688.653C450.454 684.69 443.596 681.416 437.109 677.51C442.191 671.728 448.005 666.774 454.216 662.25Z" fill="#D3AE83"/>
<path d="M499.402 739.748C502.773 742.518 503.742 744.991 505.089 749.066C503.835 748.667 503.26 748.589 502.474 747.452C502.161 747.002 501.932 746.169 501.754 745.675L499.402 739.748Z" fill="#CE9B52"/>
<path d="M474.739 679.938C480.093 687.198 482.988 695.152 486.832 703.201C489.872 709.565 493.393 715.639 495.374 722.447C490.03 713.996 485.098 706.01 478.714 698.232C470.166 689.053 459.602 682.324 449.143 675.574C454.03 674.4 459.496 672.61 464.547 673.219C469.397 673.803 471.871 676.338 474.739 679.938Z" fill="#F5DBA8"/>
<path d="M898.749 493.165L899.589 493.499C899.649 496.498 889.244 517.64 887.472 522.692C868.742 519.798 850.273 523.426 832.881 530.599C827.947 510.819 815.216 489.693 799.24 476.742C799.269 476.7 799.292 476.654 799.328 476.618C800.024 475.917 800.494 475.568 800.814 474.606C809.218 468.25 815.969 458.953 822.685 450.925C827.677 447.42 832.689 436.785 835.311 436.083C834.32 439.436 825.555 458.811 825.91 459.886L826.15 459.973C823.406 466.071 818.218 472.054 814.115 477.373C820.427 485.424 825.965 494.009 831.547 502.571C838.989 499.199 846.186 496.457 854.16 494.605C868.324 490.146 884.306 489.956 898.749 493.165Z" fill="#78797C"/>
<path d="M898.749 493.165C897.924 494.594 896.778 495.159 895.226 495.543C890.335 496.753 858.596 497.448 855.299 495.601C854.643 495.233 854.72 495.211 854.16 494.605C868.324 490.146 884.306 489.955 898.749 493.165Z" fill="#B3B2B2"/>
<path d="M619.223 680.658C604.387 693.989 588.47 705.756 572.772 718.017C560.414 727.671 548.317 737.868 535.411 746.791C529.184 732.597 522.141 719.458 513.026 706.887C511.672 705.093 510.378 703.144 508.772 701.567C509.192 701.65 509.325 701.726 509.723 701.648C514.838 700.647 536.286 684.028 542.184 679.966C546.178 677.215 550.602 674.839 554.348 671.774C555.531 670.807 556.352 669.943 557.117 668.622L564.544 669.114C568.06 668.107 574.107 669.105 577.589 670.074L577.785 668.355C579.107 668.562 580.249 668.595 581.585 668.51L582.564 669.64L581.365 670.938C593.582 675.151 606.799 676.893 619.223 680.658Z" fill="#0339D6"/>
<path d="M582.564 669.64L581.365 670.938L577.589 670.073L577.785 668.355C579.107 668.561 580.249 668.595 581.585 668.51L582.564 669.64Z" fill="#302F41"/>
<path d="M554.311 688.323C555.239 688.428 556.099 688.629 557.003 688.86C557.629 689.946 557.343 690.105 557.115 691.288L553.064 690.68L554.311 688.323Z" fill="#0D0C27"/>
<path d="M554.311 688.323L553.064 690.68C551.462 691.228 550.438 691.649 549.72 693.327C549.174 694.602 549.396 696.703 549.481 698.073C549.551 698.544 549.559 698.252 549.213 698.907C549.068 698.852 548.916 698.812 548.779 698.741C547.829 698.247 547.194 697.334 546.963 696.301C546.548 694.447 546.727 692.538 547.901 690.997C549.436 688.983 551.985 688.639 554.311 688.323Z" fill="#040215"/>
<path d="M557.115 691.289C557.16 693.5 557.026 695.44 556.681 697.625C554.298 697.8 551.868 698.084 549.481 698.073C549.396 696.703 549.174 694.602 549.72 693.327C550.438 691.649 551.462 691.228 553.064 690.681L557.115 691.289Z" fill="#FBFAF9"/>
<path d="M564.543 669.114C558.179 675.977 547.174 681.949 539.371 687.418C530.436 693.68 521.761 700.35 513.026 706.887C511.672 705.093 510.377 703.144 508.772 701.567C509.192 701.65 509.324 701.726 509.723 701.648C514.837 700.647 536.286 684.028 542.184 679.966C546.178 677.215 550.602 674.839 554.348 671.774C555.531 670.807 556.352 669.943 557.117 668.622L564.543 669.114Z" fill="#4C6484"/>
<path d="M444.185 796.555L445.276 795.497C447.168 796.138 448.501 799.273 449.36 801.018C450.761 803.867 451.994 806.808 453.28 809.71C448.125 818.71 443.177 827.821 438.436 837.045C434.51 844.722 430.877 852.646 426.391 860.014L426.548 861.146C422.387 864.093 340.264 862.04 328.24 861.668C321.055 861.446 313.816 860.631 306.642 860.649C312.08 859.678 317.51 858.668 322.932 857.619L323.103 855.982C317.764 856.715 312.442 857.556 307.138 858.506C312.058 854.368 317.232 849.387 322.721 846.103C329.611 841.385 336.186 836.18 342.953 831.287C353.167 824.049 363.336 816.748 373.459 809.384C375.89 807.191 379.984 804.373 381.468 801.508C381.684 801.261 382.137 800.762 382.301 800.498C382.928 799.495 382.182 798.481 381.805 797.484C387.005 804.958 393.145 812.408 397.809 820.193C402.101 826.187 406.235 832.717 411.101 838.242L411.76 838.168L412.321 838.418C415.766 837.649 430.367 814.169 433.029 810.102C435.937 805.507 439.19 801.088 442.307 796.631L444.185 796.555Z" fill="#745B53"/>
<path d="M444.185 796.556C437.035 806.275 430.489 816.491 423.677 826.45C420.438 831.186 417.298 836.262 413.542 840.603C417.664 846.462 422.329 852.503 425.521 858.934C420.448 853.846 416.554 846.924 412.604 840.95C398.172 844.052 383.535 846.402 369.025 849.132C353.692 852.018 338.357 855.296 322.932 857.619L323.102 855.982C344.463 852.131 365.795 848.135 387.101 843.994C392.114 843.06 408.014 841.424 411.33 839.498L411.101 838.242L411.76 838.169L412.321 838.418C415.766 837.649 430.367 814.169 433.029 810.102C435.937 805.508 439.19 801.088 442.306 796.631L444.185 796.556Z" fill="#040215"/>
<path d="M444.186 796.556L445.276 795.497C447.168 796.138 448.502 799.273 449.361 801.018C450.762 803.867 451.995 806.808 453.28 809.71C448.125 818.71 443.177 827.821 438.436 837.045C434.51 844.722 430.877 852.646 426.391 860.014L425.522 858.934C422.33 852.503 417.664 846.462 413.542 840.603C417.298 836.262 420.439 831.186 423.678 826.45C430.49 816.49 437.036 806.275 444.186 796.556Z" fill="#876D5E"/>
<path d="M381.805 797.484C387.005 804.958 393.145 812.408 397.809 820.193C402.101 826.187 406.236 832.717 411.102 838.242L411.33 839.497C408.015 841.424 392.115 843.059 387.102 843.994C365.796 848.135 344.463 852.131 323.103 855.982C317.764 856.715 312.443 857.556 307.138 858.506C312.058 854.368 317.233 849.387 322.722 846.103C329.611 841.385 336.186 836.181 342.953 831.287C353.167 824.049 363.336 816.748 373.46 809.384C375.89 807.191 379.985 804.373 381.469 801.508C381.685 801.261 382.137 800.762 382.302 800.498C382.928 799.495 382.182 798.481 381.805 797.484Z" fill="#E0C7AC"/>
<path d="M381.805 797.484C387.005 804.958 393.145 812.408 397.809 820.193C392.879 814.514 388.659 808.011 384.317 801.872C380.718 804.405 377.099 806.909 373.459 809.384C375.89 807.191 379.984 804.373 381.469 801.508C381.685 801.261 382.137 800.762 382.302 800.498C382.928 799.495 382.182 798.481 381.805 797.484Z" fill="#133059"/>
</svg>
