<svg width="145" height="150" viewBox="0 0 145 150" fill="none" xmlns="http://www.w3.org/2000/svg">
<path d="M78 21L89.6416 22.2232C94.835 26.3648 98.8276 32.0302 103 37.1305L97.8088 44C91.1112 37.9981 80.3236 29.5774 78 21Z" fill="#B1715F" fill-opacity="0.984314"/>
<path d="M14.0334 25.3382C16.5636 21.4373 19.1433 17.6348 22.648 14.5184C39.877 -0.796494 62.0696 -0.719511 83.7565 0.473188C82.5301 7.15273 82.728 11.1327 86.6717 16.9701C87.713 18.5133 88.849 19.9796 90 21.4416L78.4445 20.2061C73.154 18.5261 69.419 16.4784 63.9844 19.2891C52.0803 25.445 45.9614 37.2844 32.506 41.2451C30.9139 42.036 29.2079 42.9294 27.4824 43.3762C22.5749 44.6501 21.0193 43.9126 16.7852 41.7132C13.5579 36.4807 14.0119 31.2354 14.0334 25.3382Z" fill="#F38C4C" fill-opacity="0.984314"/>
<path d="M17.2068 107.59C38.469 111.326 55.016 124.653 78.3886 121.952C101.535 119.275 117.491 97.2284 131 80C127.76 97.3539 120.522 111.91 105.965 122.126C91.5452 132.247 72.2233 136.164 55.0892 132.846C38.9144 129.713 27.8831 121.954 16 110.788L17.2068 107.59Z" fill="#5B3534" fill-opacity="0.972549"/>
<path d="M32.8034 41.4807C46.3352 37.4972 52.4889 25.5897 64.4607 19.3985C69.9262 16.5716 73.6824 18.6311 79.003 20.3208L90.6242 21.5633C95.8085 25.7704 99.7941 31.5252 103.959 36.7061L98.7771 43.6841C102.31 49.4153 106.214 56.3611 105.991 63.2983C105.697 72.4347 99.688 82.8846 93.2207 89.1295C86.1822 95.9227 76.9301 100.209 67.0139 99.9921C47.1575 99.5579 34.3894 81.9709 22 68.8124C25.886 59.8501 30.1723 50.9008 32.8034 41.4807ZM79.003 20.3208C81.3225 29.0336 92.0912 37.5874 98.7771 43.6841L103.959 36.7061C99.7941 31.5252 95.8085 25.7704 90.6242 21.5633L79.003 20.3208Z" fill="#D4825D" fill-opacity="0.980392"/>
<path d="M83.8207 9.85165e-09C101.722 6.60628 113.72 14.8247 124.331 30.9628L114.839 50.708L103.292 36.4698C99.1572 31.2549 95.2006 25.4622 90.0541 21.2275C88.9049 19.7474 87.7708 18.2631 86.7312 16.7007C82.794 10.7912 82.5964 6.76207 83.8207 9.85165e-09Z" fill="#D4825D" fill-opacity="0.980392"/>
<path d="M32.6541 41.2758C46.0875 37.2662 52.1964 25.2805 64.0811 19.0485C69.5068 16.203 73.2357 18.2761 78.5176 19.9769L90.0541 21.2275C95.2006 25.4622 99.1572 31.2549 103.292 36.4698L114.839 50.708L124.331 30.9628L131.224 45.8178C136.813 47.8778 139.816 50.8032 142.157 56.4942C148.539 71.9983 143.13 96.4565 136.218 111.004C129.899 124.301 120.86 134.292 109.609 143.598L95.4306 148.236C77.7872 151.092 61.4304 150.062 43.7999 148.095L35.4014 144.241C29.6363 137.557 22.8701 130.557 18.2112 123.061C15.3071 118.385 14.3406 115.73 15.6637 110.454L16.8687 107.313C16.3317 106.936 15.7797 106.583 15.2577 106.185C6.55846 99.566 1.49363 83.5922 0.408909 73.1235C-1.45767 55.1244 3.05298 39.2309 14.2117 25.1723C14.1902 31.1424 13.7369 36.4525 16.9589 41.7497C21.1861 43.9763 22.7392 44.7229 27.6387 43.4332C29.3613 42.981 31.0646 42.0764 32.6541 41.2758ZM32.6541 41.2758C30.0422 50.7579 25.7871 59.766 21.9293 68.7872C34.2286 82.0322 46.9038 99.7347 66.6156 100.172C76.4598 100.39 85.6445 96.0756 92.6318 89.2378C99.0521 82.9518 105.017 72.4333 105.309 63.2368C105.53 56.2541 101.655 49.2626 98.1478 43.4937L103.292 36.4698C99.1572 31.2549 95.2006 25.4622 90.0541 21.2275L78.5176 19.9769C73.2357 18.2761 69.5068 16.203 64.0811 19.0485C52.1964 25.2805 46.0875 37.2662 32.6541 41.2758ZM131.224 45.8178C132.081 56.8859 134.017 69.4969 130.492 80.2145C117.003 97.1359 101.071 118.79 77.9591 121.419C54.6214 124.072 38.0992 110.983 16.8687 107.313L15.6637 110.454C14.3406 115.73 15.3071 118.385 18.2112 123.061C22.8701 130.557 29.6363 137.557 35.4014 144.241L43.7999 148.095C61.4304 150.062 77.7872 151.092 95.4306 148.236L109.609 143.598C120.86 134.292 129.899 124.301 136.218 111.004C143.13 96.4565 148.539 71.9983 142.157 56.4942C139.816 50.8032 136.813 47.8778 131.224 45.8178Z" fill="#8B4C2C" fill-opacity="0.972549"/>
<path d="M131.224 45.8178C136.813 47.8778 139.816 50.8032 142.157 56.4942C148.539 71.9983 143.13 96.4565 136.218 111.004C129.899 124.301 120.86 134.292 109.609 143.598L95.4306 148.236C77.7872 151.092 61.4304 150.062 43.7999 148.095L35.4014 144.241C29.6363 137.557 22.8701 130.557 18.2112 123.061C15.3071 118.385 14.3406 115.73 15.6637 110.454L16.8687 107.313C38.0992 110.983 54.6214 124.072 77.9591 121.419C101.071 118.79 117.003 97.1359 130.492 80.2145C134.017 69.4969 132.081 56.8859 131.224 45.8178ZM16.8687 107.313L15.6637 110.454C27.5291 121.421 38.5439 129.042 54.6945 132.119C71.803 135.378 91.096 131.53 105.494 121.59C120.029 111.556 127.257 97.2593 130.492 80.2145C117.003 97.1359 101.071 118.79 77.9591 121.419C54.6214 124.072 38.0992 110.983 16.8687 107.313Z" fill="#0F1328" fill-opacity="0.984314"/>
<path d="M42.7988 41.0188C45.3643 38.0651 48.2149 36.2191 51.3504 35.4807C53.5087 34.9474 55.5448 35.0294 57.4587 35.7268C58.9654 34.1269 60.9201 33.5526 63.3227 34.0038C65.5217 34.4141 67.3949 35.6653 68.9423 37.7575C69.0237 38.0446 69.1866 38.4754 69.431 39.0497C69.716 39.624 69.9807 40.2599 70.225 40.9573C72.0168 45.1417 72.1593 50.6388 70.6526 57.4487C68.7794 65.8994 65.4606 73.058 60.6961 78.9243C59.2301 80.7294 57.5809 82.2267 55.7484 83.4164C52.8164 85.6727 49.3144 86.6777 45.2422 86.4316C42.7174 86.3085 40.5999 85.6727 38.8895 84.524C32.089 81.1191 29.8696 74.0221 32.2315 63.2329C34.1862 54.3719 37.7086 46.9672 42.7988 41.0188ZM43.5318 73.6939L43.4708 74.0631L43.5929 74.74C43.8373 76.0117 44.2445 76.9962 44.8146 77.6936C45.3847 78.35 45.853 78.7602 46.2195 78.9243C46.6267 78.5962 47.0339 78.2885 47.4411 78.0013C47.8484 77.7141 48.2149 77.3655 48.5406 76.9552C51.3097 73.5093 53.468 68.9967 55.0154 63.4175C56.5628 57.8384 57.1329 52.6694 56.7257 47.9107C55.1376 49.9619 53.468 52.3207 51.7169 54.9872C49.9659 57.6538 48.5814 59.9306 47.5633 61.8176C45.2422 66.2071 43.8983 70.1659 43.5318 73.6939Z" fill="white"/>
<path d="M76.4354 38.0651C77.2092 36.1781 78.3086 35.5012 79.7339 36.0345C80.1411 35.132 80.4873 34.5577 80.7723 34.3115C81.0981 34.0654 81.4239 33.8808 81.7496 33.7577C82.0754 33.5936 82.4216 33.4295 82.788 33.2654C83.1545 33.1013 83.7247 32.9577 84.4984 32.8347C85.2721 32.7116 86.1272 32.6501 87.0638 32.6501C88.0004 32.609 88.9371 32.6501 89.8737 32.7731C90.851 32.8962 91.6654 33.1629 92.317 33.5731C93.9051 34.5166 94.2513 36.0345 93.3554 38.1267C93.4368 38.0857 93.4165 38.1267 93.2943 38.2498L92.7445 39.2958L92.317 39.8497C92.1134 40.0548 91.4822 41.306 90.4234 43.6033C89.5682 45.2442 88.6927 46.8646 87.7968 48.4646C86.3308 51.2131 85.435 52.9771 85.1092 53.7565C86.5345 52.9771 88.1837 51.849 90.0569 50.3721C93.5997 47.6236 95.8598 45.9826 96.8371 45.4493C97.8144 44.916 98.4863 44.5878 98.8528 44.4648C99.26 44.3417 99.6469 44.3212 100.013 44.4032C100.38 44.4443 100.767 44.5468 101.174 44.7109L102.701 45.3263C103.678 45.6545 104.208 46.8441 104.289 48.8953C104.33 50.9054 103.923 52.4233 103.068 53.4489C99.3619 58.2896 95.1879 61.5305 90.5456 63.1714C89.1203 63.7047 87.6543 64.156 86.1476 64.5252C88.3059 64.7713 90.3623 66.2071 92.317 68.8326C93.9051 70.9658 95.0453 73.1606 95.7376 75.4168C96.4706 77.6731 97.0407 79.3551 97.4479 80.4627C97.8551 81.5293 98.018 82.3498 97.9366 82.9241C97.8959 83.5395 97.5497 83.9907 96.8982 84.2779C96.2873 84.6061 95.2286 84.9137 93.7219 85.2009C93.0296 85.324 91.6043 84.5035 89.4461 82.7395C88.5095 81.9601 87.5118 81.1191 86.453 80.2166C85.3942 79.273 84.3355 78.391 83.2767 77.5706C80.8334 75.6425 79.1231 74.6374 78.1458 74.5554C78.0643 74.5554 77.9014 74.5143 77.6571 74.4323L76.5576 77.2014C75.9875 78.5551 75.397 79.9909 74.7862 81.5088C74.2161 82.9856 73.5238 84.3189 72.7094 85.5086C71.447 86.3701 69.981 86.7188 68.3114 86.5547C66.3975 86.3495 65.1351 85.5701 64.5243 84.2163C64.1171 82.9446 64.789 79.2115 66.54 73.017C67.7209 68.6685 68.739 64.8533 69.5942 61.5715C70.4493 58.2896 71.1823 55.5821 71.7931 53.4489C72.404 51.2746 72.8519 49.5927 73.137 48.403C73.422 47.1723 73.7071 45.9826 73.9921 44.834C74.6844 42.1675 75.4988 39.9112 76.4354 38.0651Z" fill="white"/>
</svg>
