<svg width="372" height="205" viewBox="0 0 372 205" fill="none" xmlns="http://www.w3.org/2000/svg">
<path d="M0 0H180.83H210.431H371.278C371.616 0.538271 371.732 0.987742 371.762 1.61631C371.961 5.7687 371.805 9.99787 371.807 14.1567V37.8119C371.806 41.2732 372.314 50.5191 371.686 53.4811C371.632 53.7329 371.541 53.9705 371.434 54.2035L371.42 55.0732C371.666 55.6696 371.755 56.1791 371.773 56.8206C372.128 69.6297 371.976 203.485 371.548 204.526C371.478 204.698 371.386 204.849 371.278 205H0V0ZM180.83 0C180.801 0.886347 180.76 1.53037 181.14 2.35442C181.185 2.45533 181.224 2.55994 181.267 2.66247C181.382 2.93783 181.322 2.96139 181.217 3.25175C180.21 3.30737 179.142 3.29484 178.154 3.50027C171.2 3.44875 164.441 4.40624 157.543 5.04525C149.644 5.77699 141.711 5.88871 133.805 6.77309C127.75 7.45052 121.774 8.88267 115.717 9.62844C104.537 11.005 81.9939 11.7815 72.8792 16.9156L71.9949 17.411C75.2741 21.6703 80.5622 48.2175 80.6645 55.0794L80.98 55.5611C80.4857 57.0884 78.9957 64.0335 79.4732 65.3038C80.4466 66.0949 82.3547 66.2505 82.4852 67.6664C82.6083 69.0024 80.5102 75.0504 80.0511 76.805C76.9802 88.5426 74.3477 100.789 78.2796 112.702C79.1312 115.282 80.3767 118.211 82.4188 120.091C83.265 120.871 84.3363 121.525 85.281 122.185C87.646 124.177 90.036 126.505 92.6194 128.199C99.3235 132.597 106.949 134.214 114.572 136.204C117.755 137.034 120.895 138.032 124.078 138.858C123.327 137.794 120.656 134.685 120.72 133.56C126.115 139.303 132.084 143.965 138.272 148.811C141.711 151.504 145.167 154.464 149.024 156.543C155.565 158.278 161.704 160.899 168.393 162.283C173.737 163.403 179.12 164.292 184.541 164.951C189.116 165.52 193.808 165.893 198.33 166.771C201.049 166.213 203.814 165.695 206.389 164.633C210.234 162.633 213.906 160.795 218.272 160.291C228.561 158.725 242.444 146.299 248.968 138.69C252.76 134.267 265.888 115.758 265.482 110.481L266.333 110.233L266.726 110.54C267.078 111.884 266.617 113.434 266.333 114.761C264.875 121.586 261.972 127.444 258.481 133.435C252.472 143.743 242.805 152.321 232.678 158.431C228.51 160.945 224.105 163.089 219.83 165.411C216.776 167.07 213.189 169.974 209.869 170.851C222.811 170.671 237.909 169.972 250.377 166.489C264.093 162.657 278.253 148.147 285.091 135.954C287.689 131.321 290.204 126.618 292.233 121.704C296.238 111.997 302.763 90.5861 303.958 80.4317C304.321 77.3571 304.375 74.0798 303.518 71.078C301.531 64.1024 296.137 64.8091 290.918 61.8592C288.059 60.2434 287.566 57.8384 286.751 54.8931C286.891 54.8273 287.025 54.7574 287.155 54.6727C291.549 51.7996 299.143 31.4333 300.251 25.8193C301.236 26.3129 301.588 26.8746 301.93 27.9112C302.535 29.7395 302.629 32.4051 301.777 34.1624C302.303 36.1395 301.47 38.284 300.486 39.9868C298.72 43.0463 296.206 45.459 295.185 48.9227C304.783 51.5116 333.935 59.3264 338.955 68.0758C339.253 68.5952 339.372 68.8977 339.323 69.4904C340.229 69.8825 341.254 70.3496 342.246 69.9975C342.965 69.7426 343.415 69.2647 343.747 68.5994C351.442 65.1999 355.752 60.8004 361.423 54.8896C363.662 54.7634 365.879 54.5809 367.685 56.1922C368.521 56.9379 368.973 57.9475 369.388 58.9655C369.433 58.9377 369.479 58.9112 369.522 58.882C370.741 58.0672 371.168 56.4344 371.42 55.0732L371.434 54.2035C371.541 53.9705 371.632 53.7329 371.686 53.4811C372.314 50.5191 371.806 41.2732 371.807 37.8119V14.1567C371.805 9.99787 371.961 5.7687 371.762 1.61631C371.732 0.987742 371.616 0.538271 371.278 0H210.431H180.83ZM0 0V205H371.278C371.386 204.849 371.478 204.698 371.548 204.526C371.976 203.485 372.128 69.6297 371.773 56.8206C371.755 56.1791 371.666 55.6696 371.42 55.0732C371.168 56.4344 370.741 58.0672 369.522 58.882C369.479 58.9112 369.433 58.9377 369.388 58.9655C368.973 57.9475 368.521 56.9379 367.685 56.1922C365.879 54.5809 363.662 54.7634 361.423 54.8896C355.752 60.8004 351.442 65.1999 343.747 68.5994C343.415 69.2647 342.965 69.7426 342.246 69.9975C341.254 70.3496 340.229 69.8825 339.323 69.4904C342.349 76.3184 338.416 121.147 337.151 131.194C336.75 134.222 336.233 137.23 335.601 140.218C335.322 141.562 334.658 143.251 334.647 144.583C331.631 145.457 328.475 148.477 326.5 150.794C327.586 151.603 328.974 152.681 329.183 154.111C329.188 154.152 329.187 154.193 329.19 154.235C329.034 155.127 328.798 155.672 328.019 156.224C327.904 156.305 327.787 156.381 327.666 156.453C328.306 158.146 327.652 160.193 326.945 161.777C324.554 167.134 317.753 173.159 317.017 178.764C316.997 178.914 317.011 178.851 316.963 178.992C315.942 180.029 312.895 180.953 311.471 181.522C302.486 185.107 292.873 187.337 283.577 189.963C264.408 195.378 245.261 198.775 225.49 201.051C216.615 202.072 207.523 203.26 198.608 203.688C195.246 203.84 191.883 203.946 188.519 204.004C185.155 204.064 181.79 204.077 178.425 204.043C175.06 204.01 171.697 203.931 168.334 203.804C164.971 203.678 161.611 203.505 158.253 203.286C154.896 203.067 151.542 202.801 148.191 202.489C144.84 202.178 141.495 201.821 138.154 201.416C134.813 201.012 131.479 200.562 128.151 200.066C124.823 199.57 121.502 199.029 118.189 198.441C114.875 197.853 111.57 197.219 108.275 196.541C104.979 195.862 101.693 195.138 98.4167 194.368C95.1407 193.599 91.8759 192.784 88.6224 191.925C85.3688 191.065 82.1277 190.16 78.899 189.211C75.6703 188.262 72.4553 187.268 69.254 186.231C66.0526 185.192 62.8662 184.11 59.6946 182.985C56.5231 181.859 53.3676 180.69 50.2283 179.476C47.0889 178.264 43.9668 177.008 40.862 175.709C39.5382 172.416 39.0224 168.775 38.6927 165.258C36.7417 166.593 35.1976 168.55 33.4812 170.17C32.4902 171.104 30.5676 173.101 29.1221 173.059C28.3766 172.128 28.295 167.643 28.1358 166.314C24.438 166.052 19.9962 165.459 16.791 163.466C14.7725 162.212 14.0269 160.896 13.4978 158.613C13.0989 155.199 12.5764 151.695 11.7658 148.353C11.0372 145.347 10.0487 142.367 9.47032 139.332C6.0043 130.819 3.40606 102.556 3.54428 92.4169C2.95687 89.1593 3.05123 85.5069 2.77305 82.1872C2.48466 78.7457 1.89599 75.3386 1.5948 71.9008C1.3371 68.9593 1.34695 65.9602 1.28229 63.0076C1.20894 61.8068 1.14383 60.6056 1.08697 59.4039C1.00748 57.5885 0.712299 55.5588 2.03169 54.1155C6.84894 48.637 40.8947 33.5962 49.3842 29.9957C54.243 27.9351 62.8331 24.9388 66.9014 22.1002C68.7234 20.6646 70.1087 18.7809 71.9949 17.411L72.8792 16.9156C81.9939 11.7815 104.537 11.005 115.717 9.62844C121.774 8.88267 127.75 7.45052 133.805 6.77309C141.711 5.88871 149.644 5.77699 157.543 5.04525C164.441 4.40624 171.2 3.44875 178.154 3.50027C179.142 3.29484 180.21 3.30737 181.217 3.25175C181.322 2.96139 181.382 2.93783 181.267 2.66247C181.224 2.55994 181.185 2.45533 181.14 2.35442C180.76 1.53037 180.801 0.886347 180.83 0H0Z" fill="url(#paint0_linear_270_5518)"/>
<path d="M206.389 164.633C210.234 162.633 213.906 160.795 218.272 160.291C217.775 161.407 214.854 162.561 213.737 162.99C211.341 163.913 208.958 164.485 206.389 164.633Z" fill="#644A49"/>
<path d="M149.024 156.543C155.565 158.278 161.704 160.899 168.393 162.283C173.737 163.403 179.12 164.292 184.541 164.951C189.116 165.52 193.808 165.893 198.33 166.771C195.6 167.513 193.013 167.944 190.187 168.106C177.433 168.834 158.711 165.186 149.024 156.543Z" fill="#644A49"/>
<path d="M28.7539 71.6041C29.778 71.6517 32.3537 71.3388 32.9665 71.9665C33.1132 72.9554 33.1107 74.0621 33.4849 74.9904C33.6549 78.8432 33.1179 82.8617 33.0254 86.734C32.8911 92.3597 33.1783 97.9868 33.4903 103.602C34.2353 117.01 36.4796 130.266 37.2712 143.651C29.5789 147.4 23.1092 152.997 15.71 157.189C15.7093 157.148 15.7072 157.107 15.7079 157.065C15.7953 151.335 29.098 142.603 33.0634 138.686L31.0189 97.4466C30.5802 89.024 30.4824 79.8461 28.7539 71.6041Z" fill="#7A6D7F"/>
<path d="M45.3994 149.282C50.3183 151.582 55.2111 154.29 60.2649 156.249C66.5864 158.699 73.254 160.486 79.7572 162.394C91.4958 165.957 103.378 168.948 115.403 171.367C127.429 173.786 139.543 175.623 151.744 176.877C160.082 177.653 168.405 177.689 176.756 178.107C176.053 180.465 175.399 182.452 173.077 183.702C170.52 185.076 167.327 185.055 164.569 185.948C158.611 185.807 152.54 184.796 146.606 184.171C109.645 180.277 75.8022 170.562 41.7675 155.753C42.861 153.54 44.1652 151.42 45.3994 149.282Z" fill="#B6908F"/>
<path d="M176.756 178.107C180.717 177.881 184.775 178.032 188.751 177.973C195.205 177.873 201.654 177.619 208.097 177.21C239.011 175.275 273.945 169.303 303.271 159.281C309.609 157.115 315.493 153.934 321.726 151.563C323.184 151.008 325.016 150.127 326.5 150.794C327.586 151.603 328.974 152.681 329.183 154.111C329.188 154.152 329.187 154.193 329.19 154.235C329.034 155.127 328.798 155.672 328.019 156.224C327.904 156.305 327.787 156.381 327.666 156.453C325.491 159.702 315.61 162.684 311.785 164.055C292.826 170.853 274.405 176.36 254.629 180.268C248.698 181.449 242.742 182.477 236.759 183.354C230.777 184.231 224.776 184.955 218.757 185.526C212.737 186.097 206.707 186.515 200.666 186.78C194.625 187.044 188.582 187.154 182.536 187.11C176.605 187.017 170.418 186.949 164.569 185.948C167.327 185.055 170.52 185.076 173.077 183.702C175.399 182.452 176.053 180.465 176.756 178.107Z" fill="url(#paint1_linear_270_5518)"/>
<path d="M2.03169 54.1155C6.84894 48.637 40.8947 33.5962 49.3842 29.9957C54.243 27.9351 62.8331 24.9388 66.9014 22.1002C65.7726 24.2232 64.6031 25.8993 62.9908 27.683C65.7254 31.7874 75.4167 46.2864 74.6044 50.6136C74.5081 51.1266 74.0111 51.5908 73.5925 51.8643C73.2874 52.0635 72.9672 52.2434 72.6493 52.4213C63.5148 54.9612 55.296 58.6864 47.0425 63.3476C42.6816 65.8103 38.4847 68.5778 33.9488 70.709L33.8749 70.743C33.7806 72.1559 33.7309 73.5951 33.4849 74.9904C33.1107 74.0621 33.1132 72.9554 32.9665 71.9665C32.3537 71.3388 29.778 71.6517 28.7539 71.6041C22.5623 69.7489 4.19724 56.8686 1.7689 57.3313C0.744714 58.8262 2.27238 61.5781 1.34336 62.929C1.32456 62.9563 1.30264 62.9814 1.28229 63.0076C1.20894 61.8068 1.14383 60.6056 1.08697 59.4039C1.00748 57.5885 0.712299 55.5588 2.03169 54.1155Z" fill="#92797B"/>
<path d="M2.03169 54.1155C6.84894 48.637 40.8947 33.5962 49.3842 29.9957C54.243 27.9351 62.8331 24.9388 66.9014 22.1002C65.7726 24.2232 64.6031 25.8993 62.9908 27.683C65.7254 31.7874 75.4167 46.2864 74.6044 50.6136C74.5081 51.1266 74.0111 51.5908 73.5925 51.8643C73.2874 52.0635 72.9672 52.2434 72.6493 52.4213C70.8297 50.8004 69.1679 47.1426 67.4918 45.0886C64.2315 41.0927 60.3917 37.6999 56.6562 34.172C47.4874 36.8906 38.4062 39.859 29.636 43.7034C22.4191 46.867 15.6229 50.7401 8.13184 53.3086C6.33784 53.9238 3.8836 54.8526 2.03169 54.1155Z" fill="#EBDED3"/>
<path d="M1.28229 63.0076C1.30264 62.9814 1.32456 62.9563 1.34336 62.929C2.27238 61.5781 0.744714 58.8262 1.7689 57.3313C4.19724 56.8686 22.5623 69.7489 28.7539 71.6041C30.4824 79.8461 30.5802 89.024 31.0189 97.4466L33.0634 138.686C29.098 142.603 15.7953 151.335 15.7079 157.065C15.7072 157.107 15.7093 157.148 15.71 157.189C15.0818 157.889 14.3297 158.218 13.4978 158.613C13.0989 155.199 12.5764 151.695 11.7658 148.353C11.0372 145.347 10.0487 142.367 9.47032 139.332C6.0043 130.819 3.40606 102.556 3.54428 92.4169C2.95687 89.1593 3.05123 85.5069 2.77305 82.1872C2.48466 78.7457 1.89599 75.3386 1.5948 71.9008C1.3371 68.9593 1.34695 65.9602 1.28229 63.0076Z" fill="#284966"/>
<path d="M3.54428 92.4169C4.29987 93.0724 4.43282 93.5436 4.61688 94.5268C5.79514 100.821 6.04026 107.475 6.86403 113.849C7.84766 121.46 9.42406 129.099 10.0193 136.749C10.092 137.683 10.0936 138.423 9.54055 139.224C9.51627 139.26 9.49373 139.296 9.47032 139.332C6.0043 130.819 3.40606 102.556 3.54428 92.4169Z" fill="#B6908F"/>
<path d="M334.647 144.583C339.466 145.284 347.87 148.5 350.847 152.299C351.447 152.769 352.981 153.704 353.168 154.383C353.599 155.414 353.846 156.204 353.416 157.284C351.705 161.592 341.571 167.324 337.293 169.098C336.454 169.447 335.525 169.603 334.63 169.726C334.934 168.139 334.041 165.845 333.171 164.528C332.998 164.266 332.773 164.078 332.516 163.905C331.991 163.956 331.915 163.946 331.573 164.356C330.631 165.487 330.006 167.444 329.364 168.789C326.895 173.961 323.162 178.271 317.111 178.977C317.062 178.983 317.012 178.987 316.963 178.992C317.011 178.851 316.997 178.914 317.017 178.764C317.753 173.159 324.554 167.134 326.945 161.777C327.652 160.193 328.306 158.146 327.666 156.453C327.787 156.381 327.904 156.305 328.019 156.224C328.798 155.672 329.034 155.127 329.19 154.235C329.187 154.193 329.188 154.152 329.183 154.111C328.974 152.681 327.586 151.603 326.5 150.794C328.475 148.477 331.631 145.457 334.647 144.583Z" fill="#1C1618"/>
<path d="M361.423 54.8896C363.662 54.7634 365.879 54.5809 367.685 56.1922C368.521 56.9379 368.973 57.9475 369.388 58.9655C370.347 62.7253 369.388 71.0531 368.335 74.8585C367.658 77.2994 366.558 79.779 366.188 82.279C365.572 86.4249 365.448 90.6658 364.895 94.8299C363.596 104.615 356.959 147.669 353.234 154.272C353.213 154.31 353.189 154.346 353.168 154.383C352.981 153.704 351.447 152.769 350.847 152.299C347.87 148.5 339.466 145.284 334.647 144.583C334.658 143.251 335.322 141.562 335.601 140.218C336.233 137.23 336.75 134.222 337.151 131.194C338.416 121.147 342.349 76.3184 339.323 69.4904C340.229 69.8825 341.254 70.3496 342.246 69.9975C342.965 69.7426 343.415 69.2647 343.747 68.5994C351.442 65.1999 355.752 60.8004 361.423 54.8896Z" fill="#644A49"/>
<path d="M339.323 69.4904C340.229 69.8825 341.254 70.3496 342.246 69.9975C342.965 69.7426 343.415 69.2647 343.747 68.5994C346.264 74.403 343.823 134.909 341.706 140.125C341.636 140.294 341.564 140.456 341.472 140.616C345.168 142.217 349.845 146.527 351.369 150.317C351.585 150.853 351.61 151.297 351.515 151.86L350.847 152.299C347.87 148.5 339.466 145.284 334.647 144.583C334.658 143.251 335.322 141.562 335.601 140.218C336.233 137.23 336.75 134.222 337.151 131.194C338.416 121.147 342.349 76.3184 339.323 69.4904Z" fill="#92797B"/>
<path d="M180.83 0H210.431H371.278C371.616 0.538271 371.732 0.987742 371.762 1.61631C371.961 5.7687 371.805 9.99787 371.807 14.1567V37.8119C371.806 41.2732 372.314 50.5191 371.686 53.4811C371.632 53.7329 371.541 53.9705 371.434 54.2035L371.42 55.0732C371.168 56.4344 370.741 58.0672 369.522 58.882C369.479 58.9112 369.433 58.9377 369.388 58.9655C368.973 57.9475 368.521 56.9379 367.685 56.1922C365.879 54.5809 363.662 54.7634 361.423 54.8896C355.752 60.8004 351.442 65.1999 343.747 68.5994C343.415 69.2647 342.965 69.7426 342.246 69.9975C341.254 70.3496 340.229 69.8825 339.323 69.4904C339.372 68.8977 339.253 68.5952 338.955 68.0758C333.935 59.3264 304.783 51.5116 295.185 48.9227C296.206 45.459 298.72 43.0463 300.486 39.9868C301.47 38.284 302.303 36.1395 301.777 34.1624C302.629 32.4051 302.535 29.7395 301.93 27.9112C301.588 26.8746 301.236 26.3129 300.251 25.8193C299.143 31.4333 291.549 51.7996 287.155 54.6727C287.025 54.7574 286.891 54.8273 286.751 54.8931C287.566 57.8384 288.059 60.2434 290.918 61.8592C296.137 64.8091 301.531 64.1024 303.518 71.078C304.375 74.0798 304.321 77.3571 303.958 80.4317C302.763 90.5861 296.238 111.997 292.233 121.704C290.204 126.618 287.689 131.321 285.091 135.954C278.253 148.147 264.093 162.657 250.377 166.489C237.909 169.972 222.811 170.671 209.869 170.851C213.189 169.974 216.776 167.07 219.83 165.411C224.105 163.089 228.51 160.945 232.678 158.431C242.805 152.321 252.472 143.743 258.481 133.435C261.972 127.444 264.875 121.586 266.333 114.761C266.617 113.434 267.078 111.884 266.726 110.54L266.333 110.233L265.482 110.481C265.888 115.758 252.76 134.267 248.968 138.69C242.444 146.299 228.561 158.725 218.272 160.291C213.906 160.795 210.234 162.633 206.389 164.633C203.814 165.695 201.049 166.213 198.33 166.771C193.808 165.893 189.116 165.52 184.541 164.951C179.12 164.292 173.737 163.403 168.393 162.283C161.704 160.899 155.565 158.278 149.024 156.543C145.167 154.464 141.711 151.504 138.272 148.811C132.084 143.965 126.115 139.303 120.72 133.56C120.656 134.685 123.327 137.794 124.078 138.858C120.895 138.032 117.755 137.034 114.572 136.204C106.949 134.214 99.3235 132.597 92.6194 128.199C90.036 126.505 87.646 124.177 85.281 122.185C84.3363 121.525 83.265 120.871 82.4188 120.091C80.3767 118.211 79.1312 115.282 78.2796 112.702C74.3477 100.789 76.9802 88.5426 80.0511 76.805C80.5102 75.0504 82.6083 69.0024 82.4852 67.6664C82.3547 66.2505 80.4466 66.0949 79.4732 65.3038C78.9957 64.0335 80.4857 57.0884 80.98 55.5611L80.6645 55.0794C80.5622 48.2175 75.2741 21.6703 71.9949 17.411L72.8792 16.9156C81.9939 11.7815 104.537 11.005 115.717 9.62844C121.774 8.88267 127.75 7.45052 133.805 6.77309C141.711 5.88871 149.644 5.77699 157.543 5.04525C164.441 4.40624 171.2 3.44875 178.154 3.50027C179.142 3.29484 180.21 3.30737 181.217 3.25175C181.322 2.96139 181.382 2.93783 181.267 2.66247C181.224 2.55994 181.185 2.45533 181.14 2.35442C180.76 1.53037 180.801 0.886347 180.83 0ZM210.431 0C210.885 0.463109 211.209 1.01777 211.634 1.47137C212.356 2.24209 215.089 2.59876 216.119 2.60819C217.228 2.61836 220.623 2.25902 221.381 2.9246C225.645 3.08371 249.615 5.84731 251.965 7.42646C261.006 8.49132 294.798 15.8417 299.967 22.3258C300.309 22.7536 300.809 23.5283 300.856 24.0855L300.251 25.8193C301.236 26.3129 301.588 26.8746 301.93 27.9112C302.535 29.7395 302.629 32.4051 301.777 34.1624C302.303 36.1395 301.47 38.284 300.486 39.9868C298.72 43.0463 296.206 45.459 295.185 48.9227C304.783 51.5116 333.935 59.3264 338.955 68.0758C339.253 68.5952 339.372 68.8977 339.323 69.4904C340.229 69.8825 341.254 70.3496 342.246 69.9975C342.965 69.7426 343.415 69.2647 343.747 68.5994C351.442 65.1999 355.752 60.8004 361.423 54.8896C363.662 54.7634 365.879 54.5809 367.685 56.1922C368.521 56.9379 368.973 57.9475 369.388 58.9655C369.433 58.9377 369.479 58.9112 369.522 58.882C370.741 58.0672 371.168 56.4344 371.42 55.0732L371.434 54.2035C371.541 53.9705 371.632 53.7329 371.686 53.4811C372.314 50.5191 371.806 41.2732 371.807 37.8119V14.1567C371.805 9.99787 371.961 5.7687 371.762 1.61631C371.732 0.987742 371.616 0.538271 371.278 0H210.431ZM180.83 0C180.801 0.886347 180.76 1.53037 181.14 2.35442C181.185 2.45533 181.224 2.55994 181.267 2.66247C181.382 2.93783 181.322 2.96139 181.217 3.25175C180.21 3.30737 179.142 3.29484 178.154 3.50027C171.2 3.44875 164.441 4.40624 157.543 5.04525C149.644 5.77699 141.711 5.88871 133.805 6.77309C127.75 7.45052 121.774 8.88267 115.717 9.62844C104.537 11.005 81.9939 11.7815 72.8792 16.9156L71.9949 17.411C75.2741 21.6703 80.5622 48.2175 80.6645 55.0794C85.0391 51.813 86.5422 42.8207 89.0511 38.0055C116.044 20.8249 173.203 19.5767 204.791 21.6081C215.928 22.4331 227.001 23.7859 238.009 25.6666C242.901 26.4653 247.879 27.1617 252.714 28.2396C261.276 30.1475 279.34 34.7625 284.4 42.7134C287.114 46.9746 285.2 51.4354 286.751 54.8931C286.891 54.8273 287.025 54.7574 287.155 54.6727C291.549 51.7996 299.143 31.4333 300.251 25.8193L300.856 24.0855C300.809 23.5283 300.309 22.7536 299.967 22.3258C294.798 15.8417 261.006 8.49132 251.965 7.42646C249.615 5.84731 225.645 3.08371 221.381 2.9246C220.623 2.25902 217.228 2.61836 216.119 2.60819C215.089 2.59876 212.356 2.24209 211.634 1.47137C211.209 1.01777 210.885 0.463109 210.431 0H180.83Z" fill="url(#paint2_linear_270_5518)"/>
<path d="M80.98 55.5611L81.3615 55.4731C81.3011 57.2399 79.582 64.0724 80.003 64.9725C80.8499 65.3921 82.2915 65.8531 82.6861 66.759C83.1291 69.8677 81.4504 74.0518 80.6215 77.0483C76.8596 90.6478 74.4623 104.514 81.0313 117.73C81.032 116.547 80.9943 115.515 81.491 114.412L81.8759 114.302C83.7879 116.291 83.5761 119.883 85.281 122.185C84.3363 121.525 83.265 120.871 82.4188 120.091C80.3767 118.211 79.1312 115.282 78.2796 112.702C74.3477 100.789 76.9802 88.5426 80.0511 76.805C80.5102 75.0504 82.6083 69.0024 82.4852 67.6664C82.3547 66.2505 80.4466 66.0949 79.4732 65.3038C78.9957 64.0335 80.4857 57.0884 80.98 55.5611Z" fill="#644A49"/>
<path d="M180.83 0H210.431C210.885 0.463109 211.209 1.01777 211.634 1.47137C212.356 2.24209 215.089 2.59876 216.119 2.60819C217.228 2.61836 220.623 2.25902 221.381 2.9246C225.645 3.08371 249.615 5.84731 251.965 7.42646C261.006 8.49132 294.798 15.8417 299.967 22.3258C300.309 22.7536 300.809 23.5283 300.856 24.0855L300.251 25.8193C299.143 31.4333 291.549 51.7996 287.155 54.6727C287.025 54.7574 286.891 54.8273 286.751 54.8931C285.2 51.4354 287.114 46.9746 284.4 42.7134C279.34 34.7625 261.276 30.1475 252.714 28.2396C247.879 27.1617 242.901 26.4653 238.009 25.6666C227.001 23.7859 215.928 22.4331 204.791 21.6081C173.203 19.5767 116.044 20.8249 89.0511 38.0055C86.5422 42.8207 85.0391 51.813 80.6645 55.0794C80.5622 48.2175 75.2741 21.6703 71.9949 17.411L72.8792 16.9156C81.9939 11.7815 104.537 11.005 115.717 9.62844C121.774 8.88267 127.75 7.45052 133.805 6.77309C141.711 5.88871 149.644 5.77699 157.543 5.04525C164.441 4.40624 171.2 3.44875 178.154 3.50027C179.142 3.29484 180.21 3.30737 181.217 3.25175C181.322 2.96139 181.382 2.93783 181.267 2.66247C181.224 2.55994 181.185 2.45533 181.14 2.35442C180.76 1.53037 180.801 0.886347 180.83 0ZM180.83 0C180.801 0.886347 180.76 1.53037 181.14 2.35442C181.185 2.45533 181.224 2.55994 181.267 2.66247C181.382 2.93783 181.322 2.96139 181.217 3.25175C180.21 3.30737 179.142 3.29484 178.154 3.50027C171.2 3.44875 164.441 4.40624 157.543 5.04525C149.644 5.77699 141.711 5.88871 133.805 6.77309C127.75 7.45052 121.774 8.88267 115.717 9.62844C104.537 11.005 81.9939 11.7815 72.8792 16.9156C73.0224 17.0501 73.1718 17.166 73.3412 17.2665C78.2656 20.1854 104.66 15.0985 110.871 14.1779C131.342 11.1435 151.588 9.01767 172.285 8.6744C180.266 8.54926 188.245 8.62382 196.222 8.89808C203.95 9.19014 225.012 10.9666 231.762 9.13104C232.272 8.99242 232.369 9.01242 232.621 8.56071C232.596 8.5245 232.574 8.48713 232.548 8.45211C231.442 6.97178 228.14 6.44033 226.409 6.15137C232.82 6.25919 244.021 9.91395 249.637 8.67281C250.477 8.48716 251.263 7.90648 251.965 7.42646C249.615 5.84731 225.645 3.08371 221.381 2.9246C220.623 2.25902 217.228 2.61836 216.119 2.60819C215.089 2.59876 212.356 2.24209 211.634 1.47137C211.209 1.01777 210.885 0.463109 210.431 0H180.83Z" fill="url(#paint3_linear_270_5518)"/>
<path d="M278.14 33.2822C279.647 32.7533 284.389 35.0669 286.192 35.471C287.563 35.778 289.358 36.019 290.584 35.1821C291.396 34.6285 291.73 33.6989 291.907 32.7771C291.959 33.1702 292 33.5728 291.963 33.9693C291.828 35.4732 291.091 37.1665 289.938 38.1426C289.943 38.1811 289.951 38.2194 289.953 38.2582C289.976 39.6134 288.337 41.6047 287.463 42.5969C287.517 41.9041 287.224 41.153 286.916 40.541C285.403 37.5414 281.259 34.3571 278.14 33.2822Z" fill="#92797B"/>
<path d="M103.98 22.8463C110.217 22.4109 116.559 22.6058 122.807 22.6731C112.267 25.2024 98.3176 28.1334 88.8515 32.9904C85.177 35.2209 84.7871 37.6359 82.778 41.1325C82.2194 35.5098 80.7081 29.7446 79.5846 24.1966C87.7046 23.956 95.8375 23.1086 103.98 22.8463Z" fill="#92797B"/>
<path d="M180.83 0H210.431C210.885 0.463109 211.209 1.01777 211.634 1.47137C212.356 2.24209 215.089 2.59876 216.119 2.60819C217.228 2.61836 220.623 2.25902 221.381 2.9246C225.645 3.08371 249.615 5.84731 251.965 7.42646C251.263 7.90648 250.477 8.48716 249.637 8.67281C244.021 9.91395 232.82 6.25919 226.409 6.15137C228.14 6.44033 231.442 6.97178 232.548 8.45211C232.574 8.48713 232.596 8.5245 232.621 8.56071C232.369 9.01242 232.272 8.99242 231.762 9.13104C225.012 10.9666 203.95 9.19014 196.222 8.89808C188.245 8.62382 180.266 8.54926 172.285 8.6744C151.588 9.01767 131.342 11.1435 110.871 14.1779C104.66 15.0985 78.2656 20.1854 73.3412 17.2665C73.1718 17.166 73.0224 17.0501 72.8792 16.9156C81.9939 11.7815 104.537 11.005 115.717 9.62844C121.774 8.88267 127.75 7.45052 133.805 6.77309C141.711 5.88871 149.644 5.77699 157.543 5.04525C164.441 4.40624 171.2 3.44875 178.154 3.50027C179.142 3.29484 180.21 3.30737 181.217 3.25175C181.322 2.96139 181.382 2.93783 181.267 2.66247C181.224 2.55994 181.185 2.45533 181.14 2.35442C180.76 1.53037 180.801 0.886347 180.83 0ZM180.83 0C180.801 0.886347 180.76 1.53037 181.14 2.35442C181.185 2.45533 181.224 2.55994 181.267 2.66247C181.382 2.93783 181.322 2.96139 181.217 3.25175C180.21 3.30737 179.142 3.29484 178.154 3.50027C181.21 3.74958 184.273 3.48222 187.334 3.58109C191.126 3.70357 209.855 5.35521 211.97 4.1753C214.806 4.22567 217.519 2.84402 221.381 2.9246C220.623 2.25902 217.228 2.61836 216.119 2.60819C215.089 2.59876 212.356 2.24209 211.634 1.47137C211.209 1.01777 210.885 0.463109 210.431 0H180.83Z" fill="#EBDED3"/>
<path d="M180.83 0H210.431C210.885 0.463109 211.209 1.01777 211.634 1.47137C212.356 2.24209 215.089 2.59876 216.119 2.60819C217.228 2.61836 220.623 2.25902 221.381 2.9246C217.519 2.84402 214.806 4.22567 211.97 4.1753C209.855 5.35521 191.126 3.70357 187.334 3.58109C184.273 3.48222 181.21 3.74958 178.154 3.50027C179.142 3.29484 180.21 3.30737 181.217 3.25175C181.322 2.96139 181.382 2.93783 181.267 2.66247C181.224 2.55994 181.185 2.45533 181.14 2.35442C180.76 1.53037 180.801 0.886347 180.83 0ZM180.83 0C180.801 0.886347 180.76 1.53037 181.14 2.35442C181.185 2.45533 181.224 2.55994 181.267 2.66247C181.382 2.93783 181.322 2.96139 181.217 3.25175C187.546 4.26929 192.906 -0.970106 200.578 0.228831C202.169 0.47756 203.681 1.23173 205.22 1.69992C206.744 2.16334 208.653 2.19553 210.021 2.97307L209.894 3.37284L208.517 3.95072L211.97 4.1753C214.806 4.22567 217.519 2.84402 221.381 2.9246C220.623 2.25902 217.228 2.61836 216.119 2.60819C215.089 2.59876 212.356 2.24209 211.634 1.47137C211.209 1.01777 210.885 0.463109 210.431 0H180.83Z" fill="url(#paint4_linear_270_5518)"/>
<path d="M180.83 0H210.431C210.885 0.463109 211.209 1.01777 211.634 1.47137C212.356 2.24209 215.089 2.59876 216.119 2.60819C217.228 2.61836 220.623 2.25902 221.381 2.9246C217.519 2.84402 214.806 4.22567 211.97 4.1753L208.517 3.95072L209.894 3.37284L210.021 2.97307C208.653 2.19553 206.744 2.16334 205.22 1.69992C203.681 1.23173 202.169 0.47756 200.578 0.228831C192.906 -0.970106 187.546 4.26929 181.217 3.25175C181.322 2.96139 181.382 2.93783 181.267 2.66247C181.224 2.55994 181.185 2.45533 181.14 2.35442C180.76 1.53037 180.801 0.886347 180.83 0Z" fill="#FEFDFE" fill-opacity="0.588235"/>
<path d="M300.856 24.0855C301.692 24.5319 306.089 26.1473 306.441 26.5381C321.736 29.5637 336.885 35.8816 350.887 42.6513C355.19 44.7321 359.345 47.3366 363.692 49.2701C365.956 49.5397 369.34 50.7446 370.813 52.6057C371.142 53.0212 371.405 53.6718 371.434 54.2035L371.42 55.0732C371.168 56.4344 370.741 58.0672 369.522 58.882C369.479 58.9112 369.433 58.9377 369.388 58.9655C368.973 57.9475 368.521 56.9379 367.685 56.1922C365.879 54.5809 363.662 54.7634 361.423 54.8896C355.752 60.8004 351.442 65.1999 343.747 68.5994C343.415 69.2647 342.965 69.7426 342.246 69.9975C341.254 70.3496 340.229 69.8825 339.323 69.4904C339.372 68.8977 339.253 68.5952 338.955 68.0758C333.935 59.3264 304.783 51.5116 295.185 48.9227C296.206 45.459 298.72 43.0463 300.486 39.9868C301.47 38.284 302.303 36.1395 301.777 34.1624C302.629 32.4051 302.535 29.7395 301.93 27.9112C301.588 26.8746 301.236 26.3129 300.251 25.8193L300.856 24.0855Z" fill="#92797B"/>
<path d="M299.433 45.3856C303.437 50.0417 330.652 54.5937 339.861 63.3978C340.459 63.9688 341.709 64.9347 341.92 65.7344C345.919 64.4224 354.492 56.7521 356.279 53.0686C356.525 52.5628 356.541 52.0791 356.454 51.5317C358.567 52.0884 360.099 53.1338 361.423 54.8896C355.752 60.8004 351.442 65.1999 343.747 68.5994C343.415 69.2647 342.965 69.7426 342.246 69.9975C341.254 70.3496 340.229 69.8825 339.323 69.4904C339.372 68.8977 339.253 68.5952 338.955 68.0758C333.935 59.3264 304.783 51.5116 295.185 48.9227L296.428 48.786C297.837 47.8954 298.617 46.8 299.433 45.3856Z" fill="#B6908F"/>
<path d="M300.856 24.0855C301.692 24.5319 306.089 26.1473 306.441 26.5381C321.736 29.5637 336.885 35.8816 350.887 42.6513C355.19 44.7321 359.345 47.3366 363.692 49.2701C365.956 49.5397 369.34 50.7446 370.813 52.6057C371.142 53.0212 371.405 53.6718 371.434 54.2035L371.42 55.0732C371.168 56.4344 370.741 58.0672 369.522 58.882C369.479 58.9112 369.433 58.9377 369.388 58.9655C368.973 57.9475 368.521 56.9379 367.685 56.1922C365.879 54.5809 363.662 54.7634 361.423 54.8896C360.099 53.1338 358.567 52.0884 356.454 51.5317C356.24 50.6515 355.598 50.1518 354.993 49.4932C351.247 46.0849 342.805 43.5215 337.956 41.4098C332.762 39.1472 327.75 36.5818 322.377 34.7368C318.775 33.499 315.17 32.6001 311.421 31.9331C311.454 32.1116 311.468 32.2863 311.441 32.4673C310.859 36.4901 302.796 42.9711 299.433 45.3856C298.617 46.8 297.837 47.8954 296.428 48.786L295.185 48.9227C296.206 45.459 298.72 43.0463 300.486 39.9868C301.47 38.284 302.303 36.1395 301.777 34.1624C302.629 32.4051 302.535 29.7395 301.93 27.9112C301.588 26.8746 301.236 26.3129 300.251 25.8193L300.856 24.0855Z" fill="#EBDED3"/>
<path d="M300.856 24.0855C301.692 24.5319 306.089 26.1473 306.441 26.5381C306.753 27.7619 306.135 28.5162 305.505 29.5768C304.445 31.3628 303.489 32.9388 301.777 34.1624C302.629 32.4051 302.535 29.7395 301.93 27.9112C301.588 26.8746 301.236 26.3129 300.251 25.8193L300.856 24.0855Z" fill="#70ACBC"/>
<path d="M363.692 49.2701C365.956 49.5397 369.34 50.7446 370.813 52.6057C371.142 53.0212 371.405 53.6718 371.434 54.2035L371.42 55.0732C371.168 56.4344 370.741 58.0672 369.522 58.882C369.479 58.9112 369.433 58.9377 369.388 58.9655C368.973 57.9475 368.521 56.9379 367.685 56.1922C365.879 54.5809 363.662 54.7634 361.423 54.8896C360.099 53.1338 358.567 52.0884 356.454 51.5317C356.24 50.6515 355.598 50.1518 354.993 49.4932C357.168 49.668 359.721 51.4316 361.846 52.1141C362.552 52.3409 363.323 52.5501 364.019 52.1968C364.465 51.1222 364.1 50.3171 363.692 49.2701Z" fill="#70ACBC"/>
<path d="M130.491 41.9446C134.442 40.4854 139.234 40.2494 143.396 39.4724C169.292 34.637 208.502 31.6749 232.969 42.5624C246.349 48.5158 259.457 63.9507 264.652 77.4753C265.315 79.2015 265.965 80.985 266.305 82.8063C267.478 89.1034 267.999 104.824 265.482 110.481C265.888 115.758 252.76 134.267 248.968 138.69C242.444 146.299 228.561 158.725 218.272 160.291C213.906 160.795 210.234 162.633 206.389 164.633C203.814 165.695 201.049 166.213 198.33 166.771C193.808 165.893 189.116 165.52 184.541 164.951C179.12 164.292 173.737 163.403 168.393 162.283C161.704 160.899 155.565 158.278 149.024 156.543C145.167 154.464 141.711 151.504 138.272 148.811C132.084 143.965 126.115 139.303 120.72 133.56C120.202 132.388 117.073 129.506 116.023 128.164C110.889 121.599 107.801 113.253 106.376 105.086C103.464 88.3965 108.831 70.2104 118.64 56.6522C122.333 51.5474 126.855 47.1375 130.491 41.9446Z" fill="url(#paint5_linear_270_5518)"/>
<path d="M194.274 37.2481C199.835 36.414 210.568 38.4108 216.068 40.1661C227.457 43.8015 235.964 50.3571 244.636 58.3881C247.762 61.2826 251.147 64.2516 253.123 68.1069C254.431 70.6595 254.779 73.9447 255.51 76.7156C257.475 84.1681 261.599 95.0656 259.116 102.739C258.803 102.162 259.261 98.9986 259.273 98.0695C259.315 94.9148 258.516 84.7363 256.452 82.6133C256.854 81.4378 255.968 79.0078 255.628 77.7911C254.475 73.6713 251.946 70.77 249.587 67.3417C248.294 65.4616 247.745 63.1262 246.419 61.2611C242.277 55.4332 233.015 48.6478 226.777 45.1531C214.301 38.164 198.724 35.9153 184.74 38.7841C181.587 39.4309 178.568 40.7714 175.474 41.6456C176.997 40.6455 182.11 38.8374 183.846 38.5346C184.865 38.3567 185.927 38.4503 186.951 38.2352C187.612 38.0964 188.182 37.588 188.848 37.5257C190.587 37.3627 192.419 37.5842 194.145 37.2731C194.189 37.2655 194.231 37.2565 194.274 37.2481Z" fill="#AD6945"/>
<path d="M186.899 51.0283C189.937 48.1669 193.926 46.954 198.044 47.09C211.337 47.5294 224.002 55.7513 232.795 65.2394C239.657 72.6435 244.867 82.7173 244.419 93.0947C244.393 93.6931 244.269 94.2918 244.023 94.8395L243.838 94.978C241.111 95.4228 224.562 90.7676 221.365 89.5039C221.306 89.317 221.244 89.1352 221.163 88.9561C219.961 86.2924 205.525 76.7178 202.265 75.4602C202.216 75.4646 202.168 75.4707 202.12 75.4738C200.343 75.5873 195.864 71.2216 194.479 70.0729C194.106 69.5448 193.71 68.9698 193.432 68.3867C192.865 67.1989 193.593 65.708 193.974 64.5606C193.779 62.9925 193.631 61.3968 193.264 59.8585C190.713 57.1042 188.486 54.4776 186.899 51.0283Z" fill="#EBDED3"/>
<path d="M193.974 64.5606C194.296 67.8311 196.885 71.0465 199.34 73.0608C200.31 73.8568 201.355 74.5922 202.265 75.4602C202.216 75.4646 202.168 75.4707 202.12 75.4738C200.343 75.5873 195.864 71.2216 194.479 70.0729C194.106 69.5448 193.71 68.9698 193.432 68.3867C192.865 67.1989 193.593 65.708 193.974 64.5606Z" fill="#FEA64D"/>
<path d="M194.479 70.0729C195.864 71.2216 200.343 75.5873 202.12 75.4738C202.168 75.4707 202.216 75.4646 202.265 75.4602C205.525 76.7178 219.961 86.2924 221.163 88.9561C221.244 89.1352 221.306 89.317 221.365 89.5039C224.562 90.7676 241.111 95.4228 243.838 94.978L244.023 94.8395C244.193 95.0008 244.341 95.1809 244.466 95.3798C244.59 95.5786 244.688 95.7899 244.759 96.0136C246.614 101.845 243.368 111.707 240.691 117.058C237.952 122.531 229.324 132.571 224.329 136.012C221.117 138.223 216.975 139.943 213.275 141.17C210.518 142.084 207.58 142.956 204.704 143.366C202.12 143.734 189.912 143.882 187.898 142.864C188.663 142.467 191.691 143.157 192.744 143.207C197.598 143.433 202.5 143.574 207.287 142.576C209.215 142.175 218.511 139.327 219.368 138.023C219.165 137.529 218.871 137.365 218.441 137.091C216.674 135.959 214.689 134.572 212.683 133.95C211.287 133.516 209.762 133.509 208.319 133.311C206.214 133.023 203.633 130.023 202.194 128.48C199.506 125.593 200.945 123.472 199.903 122.425C198.555 123.085 196.949 124.39 195.855 125.427C195.203 126.044 195.088 126.512 195.055 127.366C196.708 128.702 199.67 128.544 201.391 129.903C202.801 131.016 202.637 133.631 204.213 134.507C205.623 135.292 207.509 134.706 208.996 135.375L208.609 135.592C200.195 135.715 204.3 132.702 200.261 130.176C198.464 129.052 196.084 129 194.238 127.794C193.109 125.673 199.675 121.229 201.076 119.7C202.299 118.366 203.238 116.863 203.781 115.131C204.763 112 205.347 105.142 204.712 101.94C204.398 100.362 203.772 98.8178 203.262 97.2938C202.039 93.6273 202.166 90.8168 202.597 87.052L202.957 86.9405C203.311 87.6862 203.054 88.5322 202.96 89.3464C203.773 89.5039 205.877 90.1404 206.549 89.8449C206.566 89.3477 206.624 88.9655 206.3 88.5375C205.585 87.5918 204.173 86.7134 203.271 85.9054C201.838 84.6205 200.527 83.1987 199.088 81.9185C195.655 78.8641 191.173 76.0539 189.953 71.3473C191.916 70.7695 194.821 74.2625 197.155 74.0032C196.804 72.5528 195.15 71.6314 194.479 70.0729Z" fill="#F88E61"/>
<mask id="path-2-outside-1_270_5518" maskUnits="userSpaceOnUse" x="88" y="57" width="203" height="87" fill="black">
<rect fill="white" x="88" y="57" width="203" height="87"/>
<path d="M107.94 139.22C104.88 139.34 102.06 138.95 99.48 138.05C96.96 137.21 94.89 136.04 93.27 134.54C91.71 133.04 90.72 131.3 90.3 129.32C89.88 127.28 90.24 125.21 91.38 123.11C92.94 120.59 96.06 119.84 100.74 120.86C104.28 121.58 106.71 121.97 108.03 122.03C109.41 122.09 110.58 121.91 111.54 121.49C115.92 120.05 118.38 118.49 118.92 116.81C119.28 115.55 118.5 114.08 116.58 112.4C115.8 111.68 114.93 110.96 113.97 110.24C113.01 109.52 112.2 108.8 111.54 108.08C108.54 105.86 106.17 103.31 104.43 100.43C102.75 97.49 102.06 94.31 102.36 90.89C102.66 87.47 103.23 84.65 104.07 82.43C104.91 80.15 105.96 78.14 107.22 76.4C109.44 73.34 112.32 70.85 115.86 68.93C119.94 66.83 123.21 65.48 125.67 64.88C130.53 63.8 135.45 63.71 140.43 64.61C142.11 64.91 143.55 65.48 144.75 66.32C145.95 67.16 147.15 68.03 148.35 68.93C150.45 71.03 150.96 73.16 149.88 75.32C149.46 76.28 148.8 77.06 147.9 77.66C147 78.26 146.04 78.59 145.02 78.65C145.14 80.27 144.84 81.47 144.12 82.25C142.74 83.63 140.34 84.53 136.92 84.95C132 84.59 128.67 84.86 126.93 85.76C124.89 86.84 124.14 89.18 124.68 92.78C124.8 93.56 125.28 94.37 126.12 95.21C127.02 96.05 128.04 96.95 129.18 97.91C130.38 98.87 131.61 99.95 132.87 101.15C134.19 102.35 135.33 103.73 136.29 105.29C139.65 110.81 139.38 117.26 135.48 124.64C132.6 130.16 127.68 134.3 120.72 137.06C117.12 138.5 112.86 139.22 107.94 139.22ZM161.198 66.68L161.288 66.32L162.098 65.51C162.758 63.95 163.478 63.02 164.258 62.72C164.678 62.6 165.218 62.45 165.878 62.27C166.538 62.09 167.408 61.64 168.488 60.92C168.908 60.08 169.778 59.72 171.098 59.84C172.418 59.9 173.708 60.32 174.968 61.1C176.288 61.82 177.338 62.84 178.118 64.16C178.958 65.48 179.168 66.86 178.748 68.3C178.328 69.68 177.968 70.73 177.668 71.45C177.428 72.11 177.158 72.74 176.858 73.34C176.618 73.94 176.288 74.63 175.868 75.41C175.508 76.13 175.028 77.12 174.428 78.38L171.458 84.59C171.158 85.37 170.888 85.82 170.648 85.94C170.468 86.06 170.288 86.27 170.108 86.57C170.648 86.45 171.098 86.36 171.458 86.3C171.818 86.24 172.178 86.18 172.538 86.12C173.378 86 174.338 85.88 175.418 85.76C176.078 85.88 176.648 85.94 177.128 85.94H178.388C179.108 85.94 179.978 86.15 180.998 86.57C182.018 86.93 182.678 87.59 182.978 88.55C183.278 89.51 183.308 90.5 183.068 91.52C182.828 92.48 182.348 93.38 181.628 94.22C180.908 95.06 179.978 95.51 178.838 95.57C173.618 97.01 169.898 97.79 167.678 97.91L167.138 98.54V98.63C166.538 100.07 165.878 101.9 165.158 104.12C164.498 106.28 163.748 108.65 162.908 111.23C162.128 113.75 161.318 116.39 160.478 119.15C159.638 121.85 158.768 124.46 157.868 126.98C154.988 135.44 152.888 140.03 151.568 140.75C151.088 140.99 150.578 141.14 150.038 141.2C149.558 141.32 149.288 141.41 149.228 141.47C147.128 141.35 145.388 140.93 144.008 140.21C142.628 139.49 141.698 138.8 141.218 138.14C140.738 137.48 140.618 136.73 140.858 135.89C141.998 125.45 144.278 114.02 147.698 101.6C146.498 101.6 145.658 101.72 145.178 101.96C144.278 102.44 143.198 102.71 141.938 102.77H141.848C140.888 102.71 140.018 102.26 139.238 101.42C138.458 100.58 137.978 99.62 137.798 98.54C137.618 97.46 137.798 96.35 138.338 95.21C138.878 94.07 139.958 93.17 141.578 92.51C143.498 91.97 144.908 91.52 145.808 91.16C147.548 90.44 148.988 89.93 150.128 89.63C151.328 89.33 151.988 89.15 152.108 89.09C152.288 88.97 152.408 88.88 152.468 88.82C152.648 88.7 153.098 88.64 153.818 88.64C154.178 86.9 154.538 85.13 154.898 83.33C155.258 81.53 155.708 79.7 156.248 77.84C157.448 73.52 159.098 69.8 161.198 66.68ZM211.377 95.39L211.737 95.48C211.857 95.48 211.917 95.51 211.917 95.57C213.477 94.97 214.767 95.42 215.787 96.92C216.447 97.94 216.957 99.5 217.317 101.6C217.437 104.48 217.137 108.47 216.417 113.57C215.037 123.89 214.287 130.04 214.167 132.02C214.287 134.12 212.997 135.56 210.297 136.34C207.957 137.06 205.617 137.03 203.277 136.25C200.817 135.41 199.797 134.12 200.217 132.38C199.737 133.28 199.257 133.91 198.777 134.27C198.297 134.69 197.337 135.23 195.897 135.89C194.517 136.61 192.537 137.18 189.957 137.6C187.377 138.08 184.797 138.2 182.217 137.96C179.637 137.78 177.267 137.15 175.107 136.07C173.007 135.05 171.597 133.43 170.877 131.21C169.497 126.89 169.677 121.4 171.417 114.74C172.617 110.36 174.777 106.49 177.897 103.13C181.497 99.29 185.577 96.11 190.137 93.59C193.557 91.73 196.857 90.62 200.037 90.26C201.117 90.14 202.047 90.17 202.827 90.35C203.667 90.53 204.537 90.71 205.437 90.89C206.397 91.07 207.297 91.34 208.137 91.7C210.297 92.6 211.377 93.83 211.377 95.39ZM194.727 119.24C195.147 118.4 195.477 117.35 195.717 116.09C196.017 114.83 196.407 113.45 196.887 111.95C192.027 113.93 188.307 116.36 185.727 119.24C182.907 122.42 183.087 124.61 186.267 125.81C189.027 126.53 191.037 126.08 192.297 124.46C192.837 123.74 193.317 122.84 193.737 121.76C194.157 120.68 194.667 119.57 195.267 118.43C195.087 118.73 194.907 119 194.727 119.24ZM221.919 96.74C222.759 94.58 223.929 92.96 225.429 91.88C226.989 90.74 228.459 90.05 229.839 89.81C231.279 89.51 232.449 89.66 233.349 90.26C234.309 90.86 234.639 91.79 234.339 93.05C235.479 91.91 237.129 90.86 239.289 89.9C241.449 88.94 243.159 88.28 244.419 87.92C245.679 87.56 246.759 87.38 247.659 87.38C249.639 87.5 250.209 88.58 249.369 90.62C250.389 90.8 251.139 91.46 251.619 92.6C252.099 93.74 252.159 95 251.799 96.38C251.439 97.76 250.629 99.11 249.369 100.43C248.109 101.75 246.399 102.65 244.239 103.13C242.139 103.61 240.369 104.72 238.929 106.46C237.549 108.14 236.319 110.24 235.239 112.76C233.439 117.02 231.819 123.05 230.379 130.85C229.899 133.67 227.949 136.04 224.529 137.96C221.289 139.82 218.319 140.36 215.619 139.58C212.559 138.74 211.209 136.49 211.569 132.83C211.689 130.25 212.469 126.83 213.909 122.57C215.349 118.25 216.459 115.01 217.239 112.85C218.019 110.63 218.559 108.95 218.859 107.81L221.919 96.74ZM266.871 66.68L266.961 66.32L267.771 65.51C268.431 63.95 269.151 63.02 269.931 62.72C270.351 62.6 270.891 62.45 271.551 62.27C272.211 62.09 273.081 61.64 274.161 60.92C274.581 60.08 275.451 59.72 276.771 59.84C278.091 59.9 279.381 60.32 280.641 61.1C281.961 61.82 283.011 62.84 283.791 64.16C284.631 65.48 284.841 66.86 284.421 68.3C284.001 69.68 283.641 70.73 283.341 71.45C283.101 72.11 282.831 72.74 282.531 73.34C282.291 73.94 281.961 74.63 281.541 75.41C281.181 76.13 280.701 77.12 280.101 78.38L277.131 84.59C276.831 85.37 276.561 85.82 276.321 85.94C276.141 86.06 275.961 86.27 275.781 86.57C276.321 86.45 276.771 86.36 277.131 86.3C277.491 86.24 277.851 86.18 278.211 86.12C279.051 86 280.011 85.88 281.091 85.76C281.751 85.88 282.321 85.94 282.801 85.94H284.061C284.781 85.94 285.651 86.15 286.671 86.57C287.691 86.93 288.351 87.59 288.651 88.55C288.951 89.51 288.981 90.5 288.741 91.52C288.501 92.48 288.021 93.38 287.301 94.22C286.581 95.06 285.651 95.51 284.511 95.57C279.291 97.01 275.571 97.79 273.351 97.91L272.811 98.54V98.63C272.211 100.07 271.551 101.9 270.831 104.12C270.171 106.28 269.421 108.65 268.581 111.23C267.801 113.75 266.991 116.39 266.151 119.15C265.311 121.85 264.441 124.46 263.541 126.98C260.661 135.44 258.561 140.03 257.241 140.75C256.761 140.99 256.251 141.14 255.711 141.2C255.231 141.32 254.961 141.41 254.901 141.47C252.801 141.35 251.061 140.93 249.681 140.21C248.301 139.49 247.371 138.8 246.891 138.14C246.411 137.48 246.291 136.73 246.531 135.89C247.671 125.45 249.951 114.02 253.371 101.6C252.171 101.6 251.331 101.72 250.851 101.96C249.951 102.44 248.871 102.71 247.611 102.77H247.521C246.561 102.71 245.691 102.26 244.911 101.42C244.131 100.58 243.651 99.62 243.471 98.54C243.291 97.46 243.471 96.35 244.011 95.21C244.551 94.07 245.631 93.17 247.251 92.51C249.171 91.97 250.581 91.52 251.481 91.16C253.221 90.44 254.661 89.93 255.801 89.63C257.001 89.33 257.661 89.15 257.781 89.09C257.961 88.97 258.081 88.88 258.141 88.82C258.321 88.7 258.771 88.64 259.491 88.64C259.851 86.9 260.211 85.13 260.571 83.33C260.931 81.53 261.381 79.7 261.921 77.84C263.121 73.52 264.771 69.8 266.871 66.68Z"/>
</mask>
<path d="M107.94 139.22C104.88 139.34 102.06 138.95 99.48 138.05C96.96 137.21 94.89 136.04 93.27 134.54C91.71 133.04 90.72 131.3 90.3 129.32C89.88 127.28 90.24 125.21 91.38 123.11C92.94 120.59 96.06 119.84 100.74 120.86C104.28 121.58 106.71 121.97 108.03 122.03C109.41 122.09 110.58 121.91 111.54 121.49C115.92 120.05 118.38 118.49 118.92 116.81C119.28 115.55 118.5 114.08 116.58 112.4C115.8 111.68 114.93 110.96 113.97 110.24C113.01 109.52 112.2 108.8 111.54 108.08C108.54 105.86 106.17 103.31 104.43 100.43C102.75 97.49 102.06 94.31 102.36 90.89C102.66 87.47 103.23 84.65 104.07 82.43C104.91 80.15 105.96 78.14 107.22 76.4C109.44 73.34 112.32 70.85 115.86 68.93C119.94 66.83 123.21 65.48 125.67 64.88C130.53 63.8 135.45 63.71 140.43 64.61C142.11 64.91 143.55 65.48 144.75 66.32C145.95 67.16 147.15 68.03 148.35 68.93C150.45 71.03 150.96 73.16 149.88 75.32C149.46 76.28 148.8 77.06 147.9 77.66C147 78.26 146.04 78.59 145.02 78.65C145.14 80.27 144.84 81.47 144.12 82.25C142.74 83.63 140.34 84.53 136.92 84.95C132 84.59 128.67 84.86 126.93 85.76C124.89 86.84 124.14 89.18 124.68 92.78C124.8 93.56 125.28 94.37 126.12 95.21C127.02 96.05 128.04 96.95 129.18 97.91C130.38 98.87 131.61 99.95 132.87 101.15C134.19 102.35 135.33 103.73 136.29 105.29C139.65 110.81 139.38 117.26 135.48 124.64C132.6 130.16 127.68 134.3 120.72 137.06C117.12 138.5 112.86 139.22 107.94 139.22ZM161.198 66.68L161.288 66.32L162.098 65.51C162.758 63.95 163.478 63.02 164.258 62.72C164.678 62.6 165.218 62.45 165.878 62.27C166.538 62.09 167.408 61.64 168.488 60.92C168.908 60.08 169.778 59.72 171.098 59.84C172.418 59.9 173.708 60.32 174.968 61.1C176.288 61.82 177.338 62.84 178.118 64.16C178.958 65.48 179.168 66.86 178.748 68.3C178.328 69.68 177.968 70.73 177.668 71.45C177.428 72.11 177.158 72.74 176.858 73.34C176.618 73.94 176.288 74.63 175.868 75.41C175.508 76.13 175.028 77.12 174.428 78.38L171.458 84.59C171.158 85.37 170.888 85.82 170.648 85.94C170.468 86.06 170.288 86.27 170.108 86.57C170.648 86.45 171.098 86.36 171.458 86.3C171.818 86.24 172.178 86.18 172.538 86.12C173.378 86 174.338 85.88 175.418 85.76C176.078 85.88 176.648 85.94 177.128 85.94H178.388C179.108 85.94 179.978 86.15 180.998 86.57C182.018 86.93 182.678 87.59 182.978 88.55C183.278 89.51 183.308 90.5 183.068 91.52C182.828 92.48 182.348 93.38 181.628 94.22C180.908 95.06 179.978 95.51 178.838 95.57C173.618 97.01 169.898 97.79 167.678 97.91L167.138 98.54V98.63C166.538 100.07 165.878 101.9 165.158 104.12C164.498 106.28 163.748 108.65 162.908 111.23C162.128 113.75 161.318 116.39 160.478 119.15C159.638 121.85 158.768 124.46 157.868 126.98C154.988 135.44 152.888 140.03 151.568 140.75C151.088 140.99 150.578 141.14 150.038 141.2C149.558 141.32 149.288 141.41 149.228 141.47C147.128 141.35 145.388 140.93 144.008 140.21C142.628 139.49 141.698 138.8 141.218 138.14C140.738 137.48 140.618 136.73 140.858 135.89C141.998 125.45 144.278 114.02 147.698 101.6C146.498 101.6 145.658 101.72 145.178 101.96C144.278 102.44 143.198 102.71 141.938 102.77H141.848C140.888 102.71 140.018 102.26 139.238 101.42C138.458 100.58 137.978 99.62 137.798 98.54C137.618 97.46 137.798 96.35 138.338 95.21C138.878 94.07 139.958 93.17 141.578 92.51C143.498 91.97 144.908 91.52 145.808 91.16C147.548 90.44 148.988 89.93 150.128 89.63C151.328 89.33 151.988 89.15 152.108 89.09C152.288 88.97 152.408 88.88 152.468 88.82C152.648 88.7 153.098 88.64 153.818 88.64C154.178 86.9 154.538 85.13 154.898 83.33C155.258 81.53 155.708 79.7 156.248 77.84C157.448 73.52 159.098 69.8 161.198 66.68ZM211.377 95.39L211.737 95.48C211.857 95.48 211.917 95.51 211.917 95.57C213.477 94.97 214.767 95.42 215.787 96.92C216.447 97.94 216.957 99.5 217.317 101.6C217.437 104.48 217.137 108.47 216.417 113.57C215.037 123.89 214.287 130.04 214.167 132.02C214.287 134.12 212.997 135.56 210.297 136.34C207.957 137.06 205.617 137.03 203.277 136.25C200.817 135.41 199.797 134.12 200.217 132.38C199.737 133.28 199.257 133.91 198.777 134.27C198.297 134.69 197.337 135.23 195.897 135.89C194.517 136.61 192.537 137.18 189.957 137.6C187.377 138.08 184.797 138.2 182.217 137.96C179.637 137.78 177.267 137.15 175.107 136.07C173.007 135.05 171.597 133.43 170.877 131.21C169.497 126.89 169.677 121.4 171.417 114.74C172.617 110.36 174.777 106.49 177.897 103.13C181.497 99.29 185.577 96.11 190.137 93.59C193.557 91.73 196.857 90.62 200.037 90.26C201.117 90.14 202.047 90.17 202.827 90.35C203.667 90.53 204.537 90.71 205.437 90.89C206.397 91.07 207.297 91.34 208.137 91.7C210.297 92.6 211.377 93.83 211.377 95.39ZM194.727 119.24C195.147 118.4 195.477 117.35 195.717 116.09C196.017 114.83 196.407 113.45 196.887 111.95C192.027 113.93 188.307 116.36 185.727 119.24C182.907 122.42 183.087 124.61 186.267 125.81C189.027 126.53 191.037 126.08 192.297 124.46C192.837 123.74 193.317 122.84 193.737 121.76C194.157 120.68 194.667 119.57 195.267 118.43C195.087 118.73 194.907 119 194.727 119.24ZM221.919 96.74C222.759 94.58 223.929 92.96 225.429 91.88C226.989 90.74 228.459 90.05 229.839 89.81C231.279 89.51 232.449 89.66 233.349 90.26C234.309 90.86 234.639 91.79 234.339 93.05C235.479 91.91 237.129 90.86 239.289 89.9C241.449 88.94 243.159 88.28 244.419 87.92C245.679 87.56 246.759 87.38 247.659 87.38C249.639 87.5 250.209 88.58 249.369 90.62C250.389 90.8 251.139 91.46 251.619 92.6C252.099 93.74 252.159 95 251.799 96.38C251.439 97.76 250.629 99.11 249.369 100.43C248.109 101.75 246.399 102.65 244.239 103.13C242.139 103.61 240.369 104.72 238.929 106.46C237.549 108.14 236.319 110.24 235.239 112.76C233.439 117.02 231.819 123.05 230.379 130.85C229.899 133.67 227.949 136.04 224.529 137.96C221.289 139.82 218.319 140.36 215.619 139.58C212.559 138.74 211.209 136.49 211.569 132.83C211.689 130.25 212.469 126.83 213.909 122.57C215.349 118.25 216.459 115.01 217.239 112.85C218.019 110.63 218.559 108.95 218.859 107.81L221.919 96.74ZM266.871 66.68L266.961 66.32L267.771 65.51C268.431 63.95 269.151 63.02 269.931 62.72C270.351 62.6 270.891 62.45 271.551 62.27C272.211 62.09 273.081 61.64 274.161 60.92C274.581 60.08 275.451 59.72 276.771 59.84C278.091 59.9 279.381 60.32 280.641 61.1C281.961 61.82 283.011 62.84 283.791 64.16C284.631 65.48 284.841 66.86 284.421 68.3C284.001 69.68 283.641 70.73 283.341 71.45C283.101 72.11 282.831 72.74 282.531 73.34C282.291 73.94 281.961 74.63 281.541 75.41C281.181 76.13 280.701 77.12 280.101 78.38L277.131 84.59C276.831 85.37 276.561 85.82 276.321 85.94C276.141 86.06 275.961 86.27 275.781 86.57C276.321 86.45 276.771 86.36 277.131 86.3C277.491 86.24 277.851 86.18 278.211 86.12C279.051 86 280.011 85.88 281.091 85.76C281.751 85.88 282.321 85.94 282.801 85.94H284.061C284.781 85.94 285.651 86.15 286.671 86.57C287.691 86.93 288.351 87.59 288.651 88.55C288.951 89.51 288.981 90.5 288.741 91.52C288.501 92.48 288.021 93.38 287.301 94.22C286.581 95.06 285.651 95.51 284.511 95.57C279.291 97.01 275.571 97.79 273.351 97.91L272.811 98.54V98.63C272.211 100.07 271.551 101.9 270.831 104.12C270.171 106.28 269.421 108.65 268.581 111.23C267.801 113.75 266.991 116.39 266.151 119.15C265.311 121.85 264.441 124.46 263.541 126.98C260.661 135.44 258.561 140.03 257.241 140.75C256.761 140.99 256.251 141.14 255.711 141.2C255.231 141.32 254.961 141.41 254.901 141.47C252.801 141.35 251.061 140.93 249.681 140.21C248.301 139.49 247.371 138.8 246.891 138.14C246.411 137.48 246.291 136.73 246.531 135.89C247.671 125.45 249.951 114.02 253.371 101.6C252.171 101.6 251.331 101.72 250.851 101.96C249.951 102.44 248.871 102.71 247.611 102.77H247.521C246.561 102.71 245.691 102.26 244.911 101.42C244.131 100.58 243.651 99.62 243.471 98.54C243.291 97.46 243.471 96.35 244.011 95.21C244.551 94.07 245.631 93.17 247.251 92.51C249.171 91.97 250.581 91.52 251.481 91.16C253.221 90.44 254.661 89.93 255.801 89.63C257.001 89.33 257.661 89.15 257.781 89.09C257.961 88.97 258.081 88.88 258.141 88.82C258.321 88.7 258.771 88.64 259.491 88.64C259.851 86.9 260.211 85.13 260.571 83.33C260.931 81.53 261.381 79.7 261.921 77.84C263.121 73.52 264.771 69.8 266.871 66.68Z" fill="white"/>
<path d="M107.94 139.22V137.22H107.901L107.862 137.222L107.94 139.22ZM99.48 138.05L100.139 136.162L100.126 136.157L100.112 136.153L99.48 138.05ZM93.27 134.54L91.8838 135.982L91.8974 135.995L91.9112 136.008L93.27 134.54ZM90.3 129.32L88.3411 129.723L88.3435 129.735L90.3 129.32ZM91.38 123.11L89.6795 122.057L89.6495 122.106L89.6223 122.156L91.38 123.11ZM100.74 120.86L100.314 122.814L100.328 122.817L100.341 122.82L100.74 120.86ZM108.03 122.03L107.939 124.028L107.943 124.028L108.03 122.03ZM111.54 121.49L110.915 119.59L110.825 119.62L110.738 119.658L111.54 121.49ZM118.92 116.81L120.824 117.422L120.834 117.391L120.843 117.359L118.92 116.81ZM116.58 112.4L115.223 113.87L115.243 113.888L115.263 113.905L116.58 112.4ZM113.97 110.24L112.77 111.84L112.77 111.84L113.97 110.24ZM111.54 108.08L113.014 106.729L112.884 106.587L112.73 106.472L111.54 108.08ZM104.43 100.43L102.694 101.422L102.706 101.443L102.718 101.464L104.43 100.43ZM102.36 90.89L100.368 90.7152H100.368L102.36 90.89ZM104.07 82.43L105.941 83.1378L105.944 83.1296L105.947 83.1214L104.07 82.43ZM107.22 76.4L105.601 75.2255L105.6 75.227L107.22 76.4ZM115.86 68.93L114.945 67.1517L114.925 67.1616L114.906 67.1719L115.86 68.93ZM125.67 64.88L125.236 62.9276L125.216 62.9321L125.196 62.937L125.67 64.88ZM140.43 64.61L140.074 66.5781L140.078 66.5789L140.43 64.61ZM144.75 66.32L145.897 64.6815H145.897L144.75 66.32ZM148.35 68.93L149.764 67.5158L149.664 67.4153L149.55 67.33L148.35 68.93ZM149.88 75.32L148.091 74.4256L148.068 74.4714L148.048 74.5184L149.88 75.32ZM145.02 78.65L144.903 76.6535L142.875 76.7727L143.025 78.7977L145.02 78.65ZM144.12 82.25L145.534 83.6642L145.562 83.6359L145.59 83.6066L144.12 82.25ZM136.92 84.95L136.774 86.9447L136.969 86.959L137.164 86.9351L136.92 84.95ZM126.93 85.76L126.011 83.9836L126.003 83.988L125.994 83.9924L126.93 85.76ZM124.68 92.78L122.702 93.0767L122.703 93.0841L124.68 92.78ZM126.12 95.21L124.706 96.6242L124.73 96.6486L124.755 96.6721L126.12 95.21ZM129.18 97.91L127.892 99.4398L127.911 99.456L127.931 99.4717L129.18 97.91ZM132.87 101.15L131.491 102.598L131.507 102.614L131.525 102.63L132.87 101.15ZM136.29 105.29L137.998 104.25L137.993 104.242L136.29 105.29ZM135.48 124.64L133.712 123.706L133.707 123.715L135.48 124.64ZM120.72 137.06L119.983 135.201L119.977 135.203L120.72 137.06ZM107.862 137.222C105.022 137.333 102.455 136.97 100.139 136.162L98.8213 139.938C101.665 140.93 104.738 141.347 108.018 141.218L107.862 137.222ZM100.112 136.153C97.8085 135.385 96.002 134.344 94.6288 133.072L91.9112 136.008C93.778 137.736 96.1115 139.035 98.8475 139.947L100.112 136.153ZM94.6562 133.098C93.3638 131.856 92.5876 130.466 92.2565 128.905L88.3435 129.735C88.8524 132.134 90.0562 134.224 91.8838 135.982L94.6562 133.098ZM92.2589 128.917C91.9479 127.406 92.1877 125.814 93.1377 124.064L89.6223 122.156C88.2923 124.606 87.8121 127.154 88.3411 129.723L92.2589 128.917ZM93.0805 124.163C93.945 122.766 95.8767 121.847 100.314 122.814L101.166 118.906C96.2433 117.833 91.935 118.414 89.6795 122.057L93.0805 124.163ZM100.341 122.82C103.866 123.537 106.442 123.96 107.939 124.028L108.121 120.032C106.978 119.98 104.694 119.623 101.139 118.9L100.341 122.82ZM107.943 124.028C109.535 124.097 111.028 123.897 112.342 123.322L110.738 119.658C110.132 119.923 109.285 120.083 108.117 120.032L107.943 124.028ZM112.165 123.39C114.432 122.645 116.315 121.833 117.741 120.929C119.128 120.049 120.343 118.917 120.824 117.422L117.016 116.198C116.957 116.383 116.672 116.871 115.599 117.551C114.565 118.207 113.028 118.895 110.915 119.59L112.165 123.39ZM120.843 117.359C121.201 116.108 120.936 114.888 120.372 113.825C119.824 112.792 118.953 111.819 117.897 110.895L115.263 113.905C116.127 114.661 116.606 115.263 116.838 115.7C117.054 116.107 116.999 116.252 116.997 116.261L120.843 117.359ZM117.937 110.93C117.101 110.159 116.177 109.396 115.17 108.64L112.77 111.84C113.683 112.524 114.499 113.201 115.223 113.87L117.937 110.93ZM115.17 108.64C114.287 107.978 113.574 107.34 113.014 106.729L110.066 109.431C110.826 110.26 111.733 111.062 112.77 111.84L115.17 108.64ZM112.73 106.472C109.917 104.391 107.733 102.029 106.142 99.3958L102.718 101.464C104.607 104.591 107.163 107.329 110.35 109.688L112.73 106.472ZM106.166 99.4377C104.692 96.8568 104.087 94.0848 104.352 91.0648L100.368 90.7152C100.033 94.5352 100.808 98.1232 102.694 101.422L106.166 99.4377ZM104.352 91.0648C104.643 87.7535 105.187 85.1289 105.941 83.1378L102.199 81.7222C101.273 84.1711 100.677 87.1865 100.368 90.7152L104.352 91.0648ZM105.947 83.1214C106.732 80.9909 107.7 79.1471 108.84 77.573L105.6 75.227C104.22 77.1329 103.088 79.3091 102.193 81.7386L105.947 83.1214ZM108.839 77.5745C110.872 74.7718 113.519 72.4751 116.814 70.6881L114.906 67.1719C111.121 69.2249 108.008 71.9081 105.601 75.2255L108.839 77.5745ZM116.775 70.7083C120.809 68.6322 123.913 67.3671 126.144 66.823L125.196 62.937C122.507 63.5929 119.071 65.0278 114.945 67.1517L116.775 70.7083ZM126.104 66.8324C130.7 65.811 135.352 65.7246 140.074 66.5781L140.786 62.6419C135.549 61.6954 130.36 61.789 125.236 62.9276L126.104 66.8324ZM140.078 66.5789C141.519 66.8362 142.677 67.3104 143.603 67.9585L145.897 64.6815C144.423 63.6496 142.701 62.9838 140.782 62.6411L140.078 66.5789ZM143.603 67.9585C144.785 68.7856 145.967 69.6428 147.15 70.53L149.55 67.33C148.333 66.4172 147.115 65.5344 145.897 64.6815L143.603 67.9585ZM146.936 70.3442C147.815 71.2229 148.219 71.9685 148.362 72.5682C148.496 73.1277 148.444 73.7202 148.091 74.4256L151.669 76.2144C152.396 74.7598 152.629 73.2073 152.253 71.6368C151.886 70.1065 150.986 68.7371 149.764 67.5158L146.936 70.3442ZM148.048 74.5184C147.786 75.1158 147.383 75.601 146.791 75.9959L149.009 79.3241C150.217 78.519 151.134 77.4441 151.712 76.1216L148.048 74.5184ZM146.791 75.9959C146.168 76.411 145.547 76.6155 144.903 76.6535L145.137 80.6465C146.533 80.5645 147.832 80.109 149.009 79.3241L146.791 75.9959ZM143.025 78.7977C143.126 80.1555 142.835 80.6939 142.65 80.8934L145.59 83.6066C146.845 82.2461 147.154 80.3845 147.015 78.5023L143.025 78.7977ZM142.706 80.8358C141.804 81.7372 139.956 82.5622 136.676 82.9649L137.164 86.9351C140.724 86.4978 143.676 85.5228 145.534 83.6642L142.706 80.8358ZM137.066 82.9553C134.547 82.771 132.374 82.7428 130.571 82.889C128.802 83.0325 127.227 83.3549 126.011 83.9836L127.849 87.5364C128.373 87.2651 129.333 87.0025 130.894 86.876C132.421 86.7522 134.373 86.769 136.774 86.9447L137.066 82.9553ZM125.994 83.9924C122.802 85.6825 122.121 89.1999 122.702 93.0767L126.658 92.4833C126.159 89.1601 126.978 87.9974 127.866 87.5276L125.994 83.9924ZM122.703 93.0841C122.913 94.4489 123.709 95.6273 124.706 96.6242L127.534 93.7958C126.851 93.1127 126.687 92.6711 126.657 92.4759L122.703 93.0841ZM124.755 96.6721C125.685 97.5395 126.731 98.4623 127.892 99.4398L130.468 96.3802C129.349 95.4377 128.355 94.5605 127.485 93.7479L124.755 96.6721ZM127.931 99.4717C129.08 100.391 130.267 101.433 131.491 102.598L134.249 99.7017C132.953 98.4671 131.68 97.3485 130.429 96.3483L127.931 99.4717ZM131.525 102.63C132.702 103.7 133.722 104.934 134.587 106.338L137.993 104.242C136.938 102.526 135.678 101 134.215 99.6701L131.525 102.63ZM134.582 106.33C137.468 111.071 137.392 116.74 133.712 123.706L137.248 125.574C141.368 117.78 141.832 110.549 137.998 104.25L134.582 106.33ZM133.707 123.715C131.092 128.727 126.591 132.58 119.983 135.201L121.457 138.919C128.769 136.02 134.108 131.593 137.253 125.565L133.707 123.715ZM119.977 135.203C116.668 136.527 112.671 137.22 107.94 137.22V141.22C113.049 141.22 117.572 140.473 121.463 138.917L119.977 135.203ZM161.198 66.68L162.857 67.7967L163.053 67.5056L163.138 67.1651L161.198 66.68ZM161.288 66.32L159.874 64.9058L159.482 65.2975L159.348 65.8349L161.288 66.32ZM162.098 65.51L163.512 66.9242L163.788 66.6484L163.94 66.2893L162.098 65.51ZM164.258 62.72L163.709 60.7969L163.623 60.8214L163.54 60.8533L164.258 62.72ZM165.878 62.27L165.352 60.3405L165.352 60.3405L165.878 62.27ZM168.488 60.92L169.598 62.5841L170.04 62.2895L170.277 61.8144L168.488 60.92ZM171.098 59.84L170.917 61.8318L170.962 61.8359L171.007 61.8379L171.098 59.84ZM174.968 61.1L173.915 62.8005L173.962 62.8295L174.01 62.8558L174.968 61.1ZM178.118 64.16L176.396 65.1775L176.413 65.2059L176.431 65.2337L178.118 64.16ZM178.748 68.3L180.662 68.8823L180.665 68.8712L180.668 68.86L178.748 68.3ZM177.668 71.45L175.822 70.6808L175.804 70.7233L175.789 70.7665L177.668 71.45ZM176.858 73.34L175.069 72.4456L175.032 72.52L175.001 72.5972L176.858 73.34ZM175.868 75.41L174.107 74.4618L174.093 74.4885L174.079 74.5156L175.868 75.41ZM174.428 78.38L176.232 79.2429L176.234 79.2399L174.428 78.38ZM171.458 84.59L169.654 83.7271L169.62 83.7983L169.592 83.872L171.458 84.59ZM170.648 85.94L169.754 84.1511L169.642 84.2068L169.539 84.2759L170.648 85.94ZM170.108 86.57L168.393 85.541L165.999 89.5321L170.542 88.5224L170.108 86.57ZM172.538 86.12L172.255 84.1401L172.232 84.1434L172.209 84.1472L172.538 86.12ZM175.418 85.76L175.776 83.7923L175.488 83.7399L175.197 83.7722L175.418 85.76ZM180.998 86.57L180.237 88.4194L180.284 88.4389L180.333 88.456L180.998 86.57ZM182.978 88.55L181.069 89.1465L182.978 88.55ZM183.068 91.52L185.008 92.0051L185.012 91.9916L185.015 91.9781L183.068 91.52ZM181.628 94.22L180.11 92.9184V92.9184L181.628 94.22ZM178.838 95.57L178.733 93.5728L178.516 93.5842L178.306 93.642L178.838 95.57ZM167.678 97.91L167.57 95.9129L166.716 95.9591L166.16 96.6084L167.678 97.91ZM167.138 98.54L165.62 97.2384L165.138 97.8001V98.54H167.138ZM167.138 98.63L168.984 99.3992L169.138 99.03V98.63H167.138ZM165.158 104.12L163.256 103.503L163.25 103.519L163.246 103.536L165.158 104.12ZM162.908 111.23L161.006 110.611L161.002 110.625L160.998 110.639L162.908 111.23ZM160.478 119.15L162.388 119.744L162.392 119.732L160.478 119.15ZM157.868 126.98L155.985 126.307L155.98 126.321L155.975 126.335L157.868 126.98ZM151.568 140.75L152.463 142.539L152.495 142.523L152.526 142.506L151.568 140.75ZM150.038 141.2L149.817 139.212L149.684 139.227L149.553 139.26L150.038 141.2ZM149.228 141.47L149.114 143.467L150.009 143.518L150.642 142.884L149.228 141.47ZM144.008 140.21L143.083 141.983L144.008 140.21ZM141.218 138.14L139.601 139.316L141.218 138.14ZM140.858 135.89L142.781 136.439L142.828 136.276L142.846 136.107L140.858 135.89ZM147.698 101.6L149.626 102.131L150.323 99.6H147.698V101.6ZM145.178 101.96L144.284 100.171L144.26 100.183L144.237 100.195L145.178 101.96ZM141.938 102.77V104.77H141.986L142.033 104.768L141.938 102.77ZM141.848 102.77L141.723 104.766L141.786 104.77H141.848V102.77ZM139.238 101.42L137.773 102.781L139.238 101.42ZM137.798 98.54L139.771 98.2112L137.798 98.54ZM138.338 95.21L140.146 96.0662L138.338 95.21ZM141.578 92.51L141.037 90.5847L140.928 90.6152L140.824 90.6578L141.578 92.51ZM145.808 91.16L146.551 93.017L146.562 93.0126L146.573 93.008L145.808 91.16ZM150.128 89.63L149.643 87.6897L149.631 87.6927L149.619 87.6958L150.128 89.63ZM152.108 89.09L153.003 90.8789L153.114 90.8232L153.218 90.7541L152.108 89.09ZM152.468 88.82L151.359 87.1559L151.194 87.2657L151.054 87.4058L152.468 88.82ZM153.818 88.64V90.64H155.447L155.777 89.0452L153.818 88.64ZM154.898 83.33L152.937 82.9378L154.898 83.33ZM156.248 77.84L158.169 78.3976L158.172 78.3865L158.175 78.3753L156.248 77.84ZM163.138 67.1651L163.228 66.8051L159.348 65.8349L159.258 66.1949L163.138 67.1651ZM162.702 67.7342L163.512 66.9242L160.684 64.0958L159.874 64.9058L162.702 67.7342ZM163.94 66.2893C164.23 65.6049 164.495 65.15 164.715 64.8668C164.938 64.5787 165.039 64.5625 164.976 64.5867L163.54 60.8533C161.933 61.4715 160.94 63.1155 160.256 64.7307L163.94 66.2893ZM164.808 64.643C165.217 64.5261 165.748 64.3784 166.404 64.1995L165.352 60.3405C164.688 60.5215 164.14 60.6739 163.709 60.7969L164.808 64.643ZM166.404 64.1995C167.382 63.9328 168.469 63.3365 169.598 62.5841L167.379 59.2559C166.347 59.9435 165.694 60.2472 165.352 60.3405L166.404 64.1995ZM170.277 61.8144C170.282 61.8041 170.275 61.8209 170.25 61.8444C170.225 61.8678 170.208 61.8731 170.22 61.868C170.26 61.8518 170.456 61.7898 170.917 61.8318L171.279 57.8482C170.421 57.7702 169.522 57.8282 168.691 58.172C167.812 58.5356 167.125 59.1735 166.699 60.0256L170.277 61.8144ZM171.007 61.8379C171.947 61.8806 172.91 62.1779 173.915 62.8005L176.021 59.3995C174.507 58.4621 172.89 57.9194 171.189 57.8421L171.007 61.8379ZM174.01 62.8558C175.007 63.3995 175.796 64.1615 176.396 65.1775L179.84 63.1425C178.88 61.5185 177.569 60.2405 175.926 59.3442L174.01 62.8558ZM176.431 65.2337C176.977 66.0919 177.079 66.8792 176.828 67.74L180.668 68.86C181.257 66.8408 180.939 64.8681 179.806 63.0862L176.431 65.2337ZM176.835 67.7177C176.421 69.0778 176.084 70.053 175.822 70.6808L179.514 72.2192C179.853 71.407 180.236 70.2822 180.662 68.8823L176.835 67.7177ZM175.789 70.7665C175.574 71.3579 175.334 71.9172 175.069 72.4456L178.647 74.2344C178.983 73.5628 179.283 72.8621 179.548 72.1335L175.789 70.7665ZM175.001 72.5972C174.797 73.1067 174.504 73.7259 174.107 74.4618L177.629 76.3582C178.073 75.5341 178.439 74.7733 178.715 74.0828L175.001 72.5972ZM174.079 74.5156C173.711 75.2524 173.225 76.2556 172.622 77.5201L176.234 79.2399C176.832 77.9844 177.305 77.0076 177.657 76.3044L174.079 74.5156ZM172.624 77.5171L169.654 83.7271L173.262 85.4529L176.232 79.2429L172.624 77.5171ZM169.592 83.872C169.529 84.0346 169.473 84.1668 169.424 84.2722C169.375 84.379 169.338 84.4464 169.316 84.4835C169.291 84.5245 169.298 84.5049 169.343 84.4545C169.368 84.4275 169.41 84.3831 169.473 84.3316C169.536 84.2804 169.629 84.2136 169.754 84.1511L171.543 87.7289C172.198 87.4011 172.571 86.8334 172.746 86.5415C172.964 86.1771 173.155 85.7506 173.325 85.308L169.592 83.872ZM169.539 84.2759C169.006 84.631 168.642 85.1258 168.393 85.541L171.823 87.599C171.846 87.5615 171.864 87.5341 171.877 87.5152C171.891 87.4963 171.897 87.4884 171.897 87.4891C171.896 87.4896 171.886 87.5017 171.865 87.5212C171.843 87.5406 171.808 87.5704 171.758 87.6041L169.539 84.2759ZM170.542 88.5224C171.063 88.4066 171.475 88.3248 171.787 88.2728L171.129 84.3272C170.721 84.3952 170.233 84.4934 169.674 84.6176L170.542 88.5224ZM171.787 88.2728C172.147 88.2128 172.507 88.1528 172.867 88.0928L172.209 84.1472C171.849 84.2072 171.489 84.2672 171.129 84.3272L171.787 88.2728ZM172.821 88.0999C173.636 87.9835 174.574 87.8661 175.639 87.7478L175.197 83.7722C174.102 83.8939 173.121 84.0165 172.255 84.1401L172.821 88.0999ZM175.06 87.7277C175.796 87.8614 176.492 87.94 177.128 87.94V83.94C176.805 83.94 176.361 83.8985 175.776 83.7923L175.06 87.7277ZM177.128 87.94H178.388V83.94H177.128V87.94ZM178.388 87.94C178.746 87.94 179.343 88.0513 180.237 88.4194L181.76 84.7206C180.614 84.2487 179.47 83.94 178.388 83.94V87.94ZM180.333 88.456C180.81 88.6245 180.973 88.8392 181.069 89.1465L184.887 87.9535C184.383 86.3408 183.226 85.2354 181.664 84.684L180.333 88.456ZM181.069 89.1465C181.258 89.7501 181.283 90.3753 181.121 91.0619L185.015 91.9781C185.333 90.6247 185.299 89.2699 184.887 87.9534L181.069 89.1465ZM181.128 91.0349C180.972 91.6597 180.652 92.286 180.11 92.9184L183.147 95.5216C184.045 94.474 184.685 93.3003 185.008 92.0051L181.128 91.0349ZM180.11 92.9184C179.758 93.3283 179.346 93.5405 178.733 93.5728L178.943 97.5672C180.61 97.4795 182.058 96.7917 183.147 95.5216L180.11 92.9184ZM178.306 93.642C173.084 95.0827 169.551 95.8058 167.57 95.9129L167.786 99.9071C170.245 99.7742 174.153 98.9373 179.37 97.498L178.306 93.642ZM166.16 96.6084L165.62 97.2384L168.657 99.8416L169.197 99.2116L166.16 96.6084ZM165.138 98.54V98.63H169.138V98.54H165.138ZM165.292 97.8608C164.664 99.3686 163.985 101.254 163.256 103.503L167.061 104.737C167.771 102.546 168.413 100.771 168.984 99.3992L165.292 97.8608ZM163.246 103.536C162.59 105.682 161.843 108.04 161.006 110.611L164.81 111.849C165.653 109.26 166.407 106.878 167.071 104.704L163.246 103.536ZM160.998 110.639C160.217 113.162 159.406 115.805 158.565 118.568L162.392 119.732C163.231 116.975 164.04 114.338 164.819 111.821L160.998 110.639ZM158.568 118.556C157.736 121.231 156.875 123.815 155.985 126.307L159.752 127.653C160.661 125.105 161.54 122.469 162.388 119.744L158.568 118.556ZM155.975 126.335C154.543 130.542 153.323 133.731 152.315 135.935C151.809 137.041 151.378 137.851 151.023 138.401C150.619 139.029 150.468 139.072 150.611 138.994L152.526 142.506C153.329 142.068 153.935 141.267 154.386 140.567C154.886 139.791 155.408 138.789 155.952 137.6C157.043 135.214 158.314 131.878 159.762 127.625L155.975 126.335ZM150.674 138.961C150.407 139.094 150.126 139.178 149.817 139.212L150.259 143.188C151.031 143.102 151.769 142.886 152.463 142.539L150.674 138.961ZM149.553 139.26C149.294 139.325 149.049 139.391 148.843 139.46C148.742 139.494 148.615 139.54 148.485 139.599C148.416 139.63 148.101 139.768 147.814 140.056L150.642 142.884C150.56 142.966 150.485 143.026 150.431 143.067C150.375 143.108 150.326 143.139 150.29 143.161C150.219 143.203 150.165 143.229 150.14 143.24C150.093 143.262 150.074 143.266 150.108 143.255C150.136 143.246 150.184 143.231 150.257 143.21C150.329 143.19 150.417 143.167 150.523 143.14L149.553 139.26ZM149.342 139.473C147.431 139.364 145.99 138.988 144.933 138.437L143.083 141.983C144.786 142.872 146.825 143.336 149.114 143.467L149.342 139.473ZM144.933 138.437C143.622 137.753 143.035 137.237 142.836 136.964L139.601 139.316C140.362 140.363 141.634 141.227 143.083 141.983L144.933 138.437ZM142.836 136.964C142.746 136.84 142.697 136.736 142.781 136.439L138.935 135.341C138.54 136.724 138.73 138.12 139.601 139.316L142.836 136.964ZM142.846 136.107C143.973 125.794 146.229 114.47 149.626 102.131L145.77 101.069C142.328 113.57 140.024 125.106 138.87 135.673L142.846 136.107ZM147.698 99.6C146.481 99.6 145.22 99.7032 144.284 100.171L146.073 103.749C146.042 103.764 146.135 103.715 146.451 103.67C146.748 103.627 147.157 103.6 147.698 103.6V99.6ZM144.237 100.195C143.653 100.507 142.876 100.723 141.843 100.772L142.033 104.768C143.521 104.697 144.904 104.373 146.119 103.725L144.237 100.195ZM141.938 100.77H141.848V104.77H141.938V100.77ZM141.973 100.774C141.621 100.752 141.206 100.6 140.704 100.059L137.773 102.781C138.83 103.92 140.156 104.668 141.723 104.766L141.973 100.774ZM140.704 100.059C140.177 99.4919 139.883 98.8862 139.771 98.2112L135.825 98.8688C136.073 100.354 136.739 101.668 137.773 102.781L140.704 100.059ZM139.771 98.2112C139.668 97.5927 139.753 96.8952 140.146 96.0662L136.531 94.3538C135.843 95.8048 135.569 97.3273 135.825 98.8688L139.771 98.2112ZM140.146 96.0662C140.401 95.5275 140.996 94.9069 142.333 94.3622L140.824 90.6578C138.921 91.4331 137.356 92.6125 136.531 94.3538L140.146 96.0662ZM142.12 94.4353C144.052 93.8917 145.547 93.4184 146.551 93.017L145.065 89.303C144.269 89.6216 142.944 90.0483 141.037 90.5847L142.12 94.4353ZM146.573 93.008C148.273 92.3047 149.62 91.8319 150.637 91.5641L149.619 87.6958C148.357 88.0281 146.824 88.5753 145.043 89.312L146.573 93.008ZM150.613 91.5703C151.218 91.4191 151.699 91.2951 152.049 91.1995C152.223 91.1521 152.378 91.1082 152.505 91.0691C152.574 91.0478 152.799 90.9805 153.003 90.8789L151.214 87.3011C151.274 87.2711 151.32 87.2524 151.337 87.2457C151.357 87.2374 151.37 87.2328 151.372 87.2321C151.375 87.231 151.363 87.2354 151.329 87.2459C151.261 87.2668 151.153 87.2979 150.997 87.3405C150.687 87.4249 150.238 87.5409 149.643 87.6897L150.613 91.5703ZM153.218 90.7541C153.39 90.6392 153.665 90.4513 153.882 90.2342L151.054 87.4058C151.075 87.3844 151.093 87.3681 151.105 87.3573C151.117 87.3463 151.126 87.3385 151.132 87.3342C151.141 87.326 151.143 87.3251 151.133 87.3325C151.124 87.3394 151.108 87.3508 151.085 87.3672C151.062 87.3833 151.033 87.4029 150.999 87.4259L153.218 90.7541ZM153.578 90.4841C153.475 90.5525 153.387 90.5946 153.329 90.619C153.271 90.6439 153.226 90.6577 153.203 90.6643C153.161 90.6765 153.155 90.6741 153.205 90.6675C153.251 90.6613 153.325 90.6541 153.431 90.6486C153.537 90.6432 153.665 90.64 153.818 90.64V86.64C153.415 86.64 153.024 86.6562 152.676 86.7025C152.411 86.738 151.856 86.8244 151.359 87.1559L153.578 90.4841ZM155.777 89.0452C156.138 87.3007 156.499 85.5264 156.859 83.7222L152.937 82.9378C152.578 84.7336 152.219 86.4992 151.86 88.2348L155.777 89.0452ZM156.859 83.7222C157.208 81.9809 157.644 80.2061 158.169 78.3976L154.328 77.2824C153.773 79.1939 153.309 81.0791 152.937 82.9378L156.859 83.7222ZM158.175 78.3753C159.328 74.2236 160.898 70.7081 162.857 67.7967L159.539 65.5632C157.299 68.8919 155.568 72.8164 154.321 77.3047L158.175 78.3753ZM211.377 95.39H209.377V96.9516L210.892 97.3303L211.377 95.39ZM211.737 95.48L211.252 97.4203L211.491 97.48H211.737V95.48ZM211.917 95.57H209.917V98.4821L212.635 97.4367L211.917 95.57ZM215.787 96.92L217.467 95.8335L217.454 95.8143L217.441 95.7954L215.787 96.92ZM217.317 101.6L219.316 101.517L219.31 101.389L219.289 101.262L217.317 101.6ZM216.417 113.57L214.437 113.29L214.436 113.298L214.435 113.305L216.417 113.57ZM214.167 132.02L212.171 131.899L212.164 132.017L212.171 132.134L214.167 132.02ZM210.297 136.34L209.742 134.419L209.726 134.423L209.709 134.428L210.297 136.34ZM203.277 136.25L202.631 138.143L202.638 138.145L202.645 138.147L203.277 136.25ZM200.217 132.38L202.162 132.849L198.453 131.439L200.217 132.38ZM198.777 134.27L197.577 132.67L197.517 132.715L197.46 132.765L198.777 134.27ZM195.897 135.89L195.064 134.072L195.018 134.093L194.972 134.117L195.897 135.89ZM189.957 137.6L189.636 135.626L189.614 135.63L189.592 135.634L189.957 137.6ZM182.217 137.96L182.403 135.969L182.38 135.966L182.357 135.965L182.217 137.96ZM175.107 136.07L176.002 134.281L175.992 134.276L175.981 134.271L175.107 136.07ZM170.877 131.21L168.972 131.819L168.975 131.827L170.877 131.21ZM171.417 114.74L169.489 114.212L169.485 114.223L169.482 114.234L171.417 114.74ZM177.897 103.13L176.438 101.762L176.432 101.769L177.897 103.13ZM190.137 93.59L189.182 91.833L189.17 91.8395L190.137 93.59ZM200.037 90.26L199.817 88.2722L199.812 88.2727L200.037 90.26ZM202.827 90.35L202.378 92.2988L202.393 92.3023L202.408 92.3056L202.827 90.35ZM205.437 90.89L205.045 92.8512L205.057 92.8535L205.069 92.8557L205.437 90.89ZM208.137 91.7L207.35 93.5383L207.359 93.5423L207.368 93.5462L208.137 91.7ZM194.727 119.24L192.939 118.346L196.327 120.44L194.727 119.24ZM195.717 116.09L193.772 115.627L193.761 115.671L193.753 115.716L195.717 116.09ZM196.887 111.95L198.792 112.56L200.097 108.483L196.133 110.098L196.887 111.95ZM185.727 119.24L184.238 117.905L184.231 117.913L185.727 119.24ZM186.267 125.81L185.561 127.681L185.66 127.719L185.763 127.745L186.267 125.81ZM192.297 124.46L193.876 125.688L193.887 125.674L193.897 125.66L192.297 124.46ZM193.737 121.76L195.601 122.485L193.737 121.76ZM195.267 118.43L197.037 119.361L193.552 117.401L195.267 118.43ZM210.892 97.3303L211.252 97.4203L212.222 93.5397L211.862 93.4497L210.892 97.3303ZM211.737 97.48C211.695 97.48 211.366 97.4853 210.978 97.2913C210.756 97.1802 210.469 96.9802 210.242 96.64C210.007 96.2873 209.917 95.905 209.917 95.57H213.917C213.917 95.205 213.82 94.7965 213.57 94.4212C213.328 94.0585 213.019 93.8398 212.767 93.7136C212.319 93.4897 211.9 93.48 211.737 93.48V97.48ZM212.635 97.4367C213.076 97.2672 213.292 97.3095 213.396 97.3459C213.522 97.3897 213.786 97.5339 214.134 98.0446L217.441 95.7954C216.769 94.8061 215.878 93.9753 214.714 93.5691C213.528 93.1555 212.319 93.2728 211.199 93.7033L212.635 97.4367ZM214.108 98.0065C214.55 98.6887 215.003 99.9337 215.346 101.938L219.289 101.262C218.912 99.0663 218.345 97.1913 217.467 95.8335L214.108 98.0065ZM215.319 101.683C215.432 104.383 215.151 108.233 214.437 113.29L218.398 113.85C219.124 108.707 219.443 104.577 219.316 101.517L215.319 101.683ZM214.435 113.305C213.06 123.586 212.297 129.828 212.171 131.899L216.164 132.141C216.278 130.252 217.015 124.194 218.4 113.835L214.435 113.305ZM212.171 132.134C212.203 132.705 212.057 133.054 211.8 133.34C211.495 133.682 210.886 134.088 209.742 134.419L210.853 138.261C212.409 137.812 213.795 137.108 214.78 136.009C215.813 134.856 216.252 133.435 216.164 131.906L212.171 132.134ZM209.709 134.428C207.771 135.025 205.858 135.002 203.91 134.353L202.645 138.147C205.377 139.058 208.144 139.095 210.886 138.252L209.709 134.428ZM203.924 134.357C202.864 133.995 202.407 133.628 202.236 133.412C202.165 133.322 202.144 133.26 202.134 133.212C202.124 133.159 202.114 133.048 202.162 132.849L198.273 131.911C197.934 133.317 198.17 134.719 199.099 135.893C199.948 136.967 201.231 137.665 202.631 138.143L203.924 134.357ZM198.453 131.439C198.027 132.237 197.714 132.568 197.577 132.67L199.977 135.87C200.801 135.252 201.448 134.323 201.982 133.321L198.453 131.439ZM197.46 132.765C197.224 132.971 196.512 133.408 195.064 134.072L196.731 137.708C198.162 137.052 199.37 136.409 200.094 135.775L197.46 132.765ZM194.972 134.117C193.867 134.694 192.128 135.22 189.636 135.626L190.279 139.574C192.947 139.14 195.168 138.526 196.823 137.663L194.972 134.117ZM189.592 135.634C187.191 136.08 184.796 136.191 182.403 135.969L182.032 139.951C184.799 140.209 187.564 140.08 190.323 139.566L189.592 135.634ZM182.357 135.965C180.021 135.802 177.91 135.235 176.002 134.281L174.213 137.859C176.625 139.065 179.254 139.758 182.078 139.955L182.357 135.965ZM175.981 134.271C174.37 133.489 173.332 132.295 172.78 130.593L168.975 131.827C169.863 134.565 171.644 136.611 174.234 137.869L175.981 134.271ZM172.783 130.601C171.563 126.784 171.662 121.715 173.352 115.246L169.482 114.234C167.693 121.085 167.432 126.996 168.972 131.819L172.783 130.601ZM173.346 115.268C174.46 111.202 176.46 107.617 179.363 104.491L176.432 101.769C173.095 105.363 170.774 109.518 169.489 114.212L173.346 115.268ZM179.356 104.498C182.815 100.809 186.73 97.7584 191.105 95.3405L189.17 91.8395C184.425 94.4616 180.18 97.7713 176.438 101.762L179.356 104.498ZM191.093 95.347C194.334 93.5842 197.387 92.5728 200.262 92.2473L199.812 88.2727C196.327 88.6672 192.781 89.8758 189.182 91.833L191.093 95.347ZM200.258 92.2478C201.189 92.1444 201.88 92.184 202.378 92.2988L203.277 88.4012C202.215 88.156 201.046 88.1356 199.817 88.2722L200.258 92.2478ZM202.408 92.3056C203.258 92.4876 204.137 92.6695 205.045 92.8512L205.83 88.9288C204.938 88.7505 204.077 88.5724 203.246 88.3944L202.408 92.3056ZM205.069 92.8557C205.895 93.0106 206.653 93.2398 207.35 93.5383L208.925 89.8617C207.942 89.4402 206.9 89.1294 205.806 88.9243L205.069 92.8557ZM207.368 93.5462C209.213 94.3147 209.377 95.0188 209.377 95.39H213.377C213.377 92.6412 211.382 90.8853 208.907 89.8538L207.368 93.5462ZM196.516 120.134C197.042 119.082 197.419 117.844 197.682 116.464L193.753 115.716C193.536 116.856 193.253 117.718 192.939 118.346L196.516 120.134ZM197.663 116.553C197.949 115.352 198.325 114.021 198.792 112.56L194.983 111.34C194.49 112.879 194.086 114.308 193.772 115.627L197.663 116.553ZM196.133 110.098C191.087 112.154 187.079 114.734 184.238 117.906L187.217 120.574C189.536 117.986 192.968 115.706 197.642 113.802L196.133 110.098ZM184.231 117.913C182.759 119.573 181.592 121.465 181.754 123.431C181.938 125.674 183.688 126.974 185.561 127.681L186.974 123.939C186.341 123.7 186.017 123.469 185.865 123.316C185.746 123.196 185.744 123.14 185.741 123.104C185.722 122.88 185.875 122.087 187.224 120.567L184.231 117.913ZM185.763 127.745C188.939 128.574 191.933 128.186 193.876 125.688L190.719 123.232C190.142 123.974 189.116 124.486 186.772 123.875L185.763 127.745ZM193.897 125.66C194.573 124.76 195.133 123.689 195.601 122.485L191.873 121.035C191.502 121.991 191.102 122.72 190.697 123.26L193.897 125.66ZM195.601 122.485C195.991 121.483 196.469 120.442 197.037 119.361L193.498 117.499C192.866 118.698 192.324 119.877 191.873 121.035L195.601 122.485ZM193.552 117.401C193.402 117.651 193.26 117.863 193.127 118.04L196.327 120.44C196.555 120.137 196.773 119.809 196.982 119.459L193.552 117.401ZM221.919 96.74L220.055 96.0151L220.019 96.1095L219.992 96.2071L221.919 96.74ZM225.429 91.88L226.598 93.5031L226.609 93.4948L225.429 91.88ZM229.839 89.81L230.182 91.7804L230.215 91.7747L230.247 91.768L229.839 89.81ZM233.349 90.26L232.24 91.9241L232.264 91.9404L232.289 91.956L233.349 90.26ZM234.339 93.05L232.394 92.5868L230.757 99.4607L235.754 94.4642L234.339 93.05ZM239.289 89.9L240.102 91.7276L239.289 89.9ZM244.419 87.92L243.87 85.9969L244.419 87.92ZM247.659 87.38L247.78 85.3837L247.72 85.38H247.659V87.38ZM249.369 90.62L247.52 89.8585L246.573 92.1575L249.022 92.5896L249.369 90.62ZM251.619 92.6L249.776 93.3761L251.619 92.6ZM249.369 100.43L247.923 99.049L249.369 100.43ZM244.239 103.13L243.806 101.178L243.794 101.18L244.239 103.13ZM238.929 106.46L237.389 105.185L237.384 105.191L238.929 106.46ZM235.239 112.76L233.401 111.972L233.397 111.982L235.239 112.76ZM230.379 130.85L228.413 130.487L228.41 130.501L228.408 130.514L230.379 130.85ZM224.529 137.96L223.55 136.216L223.542 136.221L223.534 136.225L224.529 137.96ZM215.619 139.58L216.174 137.659L216.162 137.655L216.149 137.651L215.619 139.58ZM211.569 132.83L213.56 133.026L213.565 132.974L213.567 132.923L211.569 132.83ZM213.909 122.57L215.804 123.21L215.807 123.202L213.909 122.57ZM217.239 112.85L219.12 113.529L219.123 113.521L219.126 113.513L217.239 112.85ZM218.859 107.81L216.932 107.277L216.928 107.289L216.925 107.301L218.859 107.81ZM223.783 97.4649C224.519 95.5739 225.483 94.306 226.598 93.5031L224.261 90.2569C222.376 91.6139 221 93.5861 220.055 96.0151L223.783 97.4649ZM226.609 93.4948C228.01 92.4712 229.197 91.9517 230.182 91.7804L229.497 87.8396C227.722 88.1483 225.969 89.0088 224.249 90.2652L226.609 93.4948ZM230.247 91.768C231.357 91.5368 231.928 91.7159 232.24 91.9241L234.459 88.5959C232.971 87.6041 231.202 87.4832 229.431 87.852L230.247 91.768ZM232.289 91.956C232.376 92.0099 232.411 92.0484 232.422 92.0611C232.431 92.0712 232.431 92.0735 232.432 92.0763C232.433 92.0802 232.482 92.2168 232.394 92.5868L236.285 93.5132C236.497 92.6232 236.53 91.6648 236.202 90.7387C235.864 89.7865 235.213 89.0664 234.409 88.564L232.289 91.956ZM235.754 94.4642C236.659 93.5587 238.071 92.6302 240.102 91.7276L238.477 88.0724C236.188 89.0898 234.3 90.2613 232.925 91.6358L235.754 94.4642ZM240.102 91.7276C242.232 90.7806 243.843 90.1648 244.969 89.843L243.87 85.9969C242.476 86.3952 240.666 87.0994 238.477 88.0724L240.102 91.7276ZM244.969 89.843C246.124 89.5131 247.009 89.38 247.659 89.38V85.38C246.51 85.38 245.235 85.6069 243.87 85.9969L244.969 89.843ZM247.538 89.3763C247.876 89.3968 248.012 89.452 248.028 89.4596C248.03 89.4605 247.995 89.4443 247.945 89.3988C247.893 89.3513 247.842 89.2878 247.803 89.2135C247.722 89.0602 247.752 88.9832 247.742 89.0976C247.732 89.2211 247.682 89.466 247.52 89.8585L251.219 91.3815C251.694 90.2278 252.06 88.7093 251.341 87.3465C250.563 85.8725 249.015 85.4585 247.78 85.3837L247.538 89.3763ZM249.022 92.5896C249.235 92.6272 249.5 92.7213 249.776 93.3761L253.463 91.8239C252.778 90.1987 251.543 88.9728 249.717 88.6504L249.022 92.5896ZM249.776 93.3761C250.06 94.0506 250.131 94.8527 249.864 95.8752L253.735 96.8848C254.188 95.1473 254.139 93.4294 253.463 91.8239L249.776 93.3761ZM249.864 95.8752C249.611 96.8469 249.012 97.9077 247.923 99.049L250.816 101.811C252.247 100.312 253.268 98.6731 253.735 96.8848L249.864 95.8752ZM247.923 99.049C246.99 100.026 245.662 100.765 243.806 101.178L244.673 105.082C247.137 104.535 249.229 103.474 250.816 101.811L247.923 99.049ZM243.794 101.18C241.243 101.763 239.095 103.123 237.389 105.185L240.47 107.735C241.644 106.317 243.036 105.457 244.685 105.08L243.794 101.18ZM237.384 105.191C235.858 107.049 234.537 109.322 233.401 111.972L237.078 113.548C238.102 111.158 239.241 109.231 240.475 107.729L237.384 105.191ZM233.397 111.982C231.515 116.437 229.863 122.63 228.413 130.487L232.346 131.213C233.776 123.47 235.364 117.603 237.082 113.538L233.397 111.982ZM228.408 130.514C228.063 132.539 226.651 134.475 223.55 136.216L225.508 139.704C229.248 137.605 231.736 134.801 232.351 131.186L228.408 130.514ZM223.534 136.225C220.603 137.908 218.199 138.243 216.174 137.659L215.064 141.501C218.44 142.477 221.976 141.732 225.525 139.695L223.534 136.225ZM216.149 137.651C215.005 137.337 214.384 136.828 214.027 136.234C213.646 135.598 213.405 134.596 213.56 133.026L209.579 132.634C209.373 134.724 209.628 136.677 210.597 138.291C211.59 139.947 213.174 140.983 215.09 141.509L216.149 137.651ZM213.567 132.923C213.674 130.618 214.387 127.404 215.804 123.21L212.015 121.93C210.552 126.256 209.704 129.882 209.572 132.737L213.567 132.923ZM215.807 123.202C217.246 118.886 218.349 115.665 219.12 113.529L215.358 112.171C214.57 114.355 213.453 117.614 212.012 121.938L215.807 123.202ZM219.126 113.513C219.91 111.282 220.472 109.54 220.794 108.319L216.925 107.301C216.646 108.36 216.128 109.978 215.352 112.187L219.126 113.513ZM220.787 108.343L223.847 97.2729L219.992 96.2071L216.932 107.277L220.787 108.343ZM266.871 66.68L268.53 67.7967L268.726 67.5056L268.811 67.1651L266.871 66.68ZM266.961 66.32L265.547 64.9058L265.155 65.2975L265.021 65.8349L266.961 66.32ZM267.771 65.51L269.185 66.9242L269.461 66.6484L269.613 66.2893L267.771 65.51ZM269.931 62.72L269.381 60.7969L269.296 60.8214L269.213 60.8533L269.931 62.72ZM271.551 62.27L271.025 60.3405L271.025 60.3405L271.551 62.27ZM274.161 60.92L275.27 62.5841L275.712 62.2895L275.95 61.8144L274.161 60.92ZM276.771 59.84L276.59 61.8318L276.635 61.8359L276.68 61.8379L276.771 59.84ZM280.641 61.1L279.588 62.8005L279.635 62.8295L279.683 62.8558L280.641 61.1ZM283.791 64.16L282.069 65.1775L282.086 65.2059L282.104 65.2337L283.791 64.16ZM284.421 68.3L286.334 68.8823L286.338 68.8712L286.341 68.86L284.421 68.3ZM283.341 71.45L281.495 70.6808L281.477 70.7233L281.461 70.7665L283.341 71.45ZM282.531 73.34L280.742 72.4456L280.705 72.52L280.674 72.5972L282.531 73.34ZM281.541 75.41L279.78 74.4618L279.766 74.4885L279.752 74.5156L281.541 75.41ZM280.101 78.38L281.905 79.2429L281.907 79.2399L280.101 78.38ZM277.131 84.59L275.327 83.7271L275.293 83.7983L275.264 83.872L277.131 84.59ZM276.321 85.94L275.426 84.1511L275.315 84.2068L275.211 84.2759L276.321 85.94ZM275.781 86.57L274.066 85.541L271.671 89.5321L276.215 88.5224L275.781 86.57ZM278.211 86.12L277.928 84.1401L277.905 84.1434L277.882 84.1472L278.211 86.12ZM281.091 85.76L281.449 83.7923L281.161 83.7399L280.87 83.7722L281.091 85.76ZM286.671 86.57L285.909 88.4194L285.957 88.4389L286.005 88.456L286.671 86.57ZM288.651 88.55L286.742 89.1465L288.651 88.55ZM288.741 91.52L290.681 92.0051L290.685 91.9916L290.688 91.9781L288.741 91.52ZM287.301 94.22L285.782 92.9184V92.9184L287.301 94.22ZM284.511 95.57L284.406 93.5728L284.189 93.5842L283.979 93.642L284.511 95.57ZM273.351 97.91L273.243 95.9129L272.389 95.9591L271.832 96.6084L273.351 97.91ZM272.811 98.54L271.292 97.2384L270.811 97.8001V98.54H272.811ZM272.811 98.63L274.657 99.3992L274.811 99.03V98.63H272.811ZM270.831 104.12L268.928 103.503L268.923 103.519L268.918 103.536L270.831 104.12ZM268.581 111.23L266.679 110.611L266.675 110.625L266.67 110.639L268.581 111.23ZM266.151 119.15L268.061 119.744L268.064 119.732L266.151 119.15ZM263.541 126.98L261.657 126.307L261.652 126.321L261.648 126.335L263.541 126.98ZM257.241 140.75L258.135 142.539L258.167 142.523L258.199 142.506L257.241 140.75ZM255.711 141.2L255.49 139.212L255.356 139.227L255.226 139.26L255.711 141.2ZM254.901 141.47L254.787 143.467L255.681 143.518L256.315 142.884L254.901 141.47ZM249.681 140.21L248.756 141.983L249.681 140.21ZM246.891 138.14L245.273 139.316L246.891 138.14ZM246.531 135.89L248.454 136.439L248.501 136.276L248.519 136.107L246.531 135.89ZM253.371 101.6L255.299 102.131L255.996 99.6H253.371V101.6ZM250.851 101.96L249.956 100.171L249.933 100.183L249.91 100.195L250.851 101.96ZM247.611 102.77V104.77H247.658L247.706 104.768L247.611 102.77ZM247.521 102.77L247.396 104.766L247.458 104.77H247.521V102.77ZM244.911 101.42L243.445 102.781L244.911 101.42ZM243.471 98.54L245.444 98.2112L243.471 98.54ZM244.011 95.21L245.818 96.0662L244.011 95.21ZM247.251 92.51L246.709 90.5847L246.601 90.6152L246.496 90.6578L247.251 92.51ZM251.481 91.16L252.224 93.017L252.235 93.0126L252.246 93.008L251.481 91.16ZM255.801 89.63L255.316 87.6897L255.304 87.6927L255.292 87.6958L255.801 89.63ZM257.781 89.09L258.675 90.8789L258.787 90.8232L258.89 90.7541L257.781 89.09ZM258.141 88.82L257.031 87.1559L256.867 87.2657L256.727 87.4058L258.141 88.82ZM259.491 88.64V90.64H261.119L261.449 89.0452L259.491 88.64ZM260.571 83.33L258.61 82.9378L260.571 83.33ZM261.921 77.84L263.842 78.3976L263.845 78.3865L263.848 78.3753L261.921 77.84ZM268.811 67.1651L268.901 66.8051L265.021 65.8349L264.931 66.1949L268.811 67.1651ZM268.375 67.7342L269.185 66.9242L266.357 64.0958L265.547 64.9058L268.375 67.7342ZM269.613 66.2893C269.902 65.6049 270.168 65.15 270.387 64.8668C270.61 64.5787 270.712 64.5625 270.649 64.5867L269.213 60.8533C267.606 61.4715 266.612 63.1155 265.929 64.7307L269.613 66.2893ZM270.48 64.643C270.89 64.5261 271.421 64.3784 272.077 64.1995L271.025 60.3405C270.361 60.5215 269.812 60.6739 269.381 60.7969L270.48 64.643ZM272.077 64.1995C273.055 63.9328 274.142 63.3365 275.27 62.5841L273.051 59.2559C272.02 59.9435 271.367 60.2472 271.025 60.3405L272.077 64.1995ZM275.95 61.8144C275.955 61.8041 275.948 61.8209 275.922 61.8444C275.897 61.8678 275.881 61.8731 275.893 61.868C275.932 61.8518 276.128 61.7898 276.59 61.8318L276.952 57.8482C276.093 57.7702 275.194 57.8282 274.364 58.172C273.485 58.5356 272.798 59.1735 272.372 60.0256L275.95 61.8144ZM276.68 61.8379C277.619 61.8806 278.582 62.1779 279.588 62.8005L281.694 59.3995C280.179 58.4621 278.562 57.9194 276.862 57.8421L276.68 61.8379ZM279.683 62.8558C280.68 63.3995 281.469 64.1615 282.069 65.1775L285.513 63.1425C284.553 61.5185 283.242 60.2405 281.599 59.3442L279.683 62.8558ZM282.104 65.2337C282.65 66.0919 282.752 66.8792 282.501 67.74L286.341 68.86C286.93 66.8408 286.612 64.8681 285.478 63.0862L282.104 65.2337ZM282.508 67.7177C282.094 69.0778 281.756 70.053 281.495 70.6808L285.187 72.2192C285.525 71.407 285.908 70.2822 286.334 68.8823L282.508 67.7177ZM281.461 70.7665C281.246 71.3579 281.006 71.9172 280.742 72.4456L284.32 74.2344C284.656 73.5628 284.955 72.8621 285.22 72.1335L281.461 70.7665ZM280.674 72.5972C280.47 73.1067 280.176 73.7259 279.78 74.4618L283.302 76.3582C283.746 75.5341 284.112 74.7733 284.388 74.0828L280.674 72.5972ZM279.752 74.5156C279.384 75.2524 278.897 76.2556 278.295 77.5201L281.907 79.2399C282.504 77.9844 282.978 77.0076 283.33 76.3044L279.752 74.5156ZM278.297 77.5171L275.327 83.7271L278.935 85.4529L281.905 79.2429L278.297 77.5171ZM275.264 83.872C275.202 84.0346 275.146 84.1668 275.097 84.2722C275.047 84.379 275.011 84.4464 274.988 84.4835C274.964 84.5245 274.971 84.5049 275.016 84.4545C275.04 84.4275 275.083 84.3831 275.146 84.3316C275.208 84.2804 275.301 84.2136 275.426 84.1511L277.215 87.7289C277.871 87.4011 278.243 86.8334 278.418 86.5415C278.637 86.1771 278.827 85.7506 278.998 85.308L275.264 83.872ZM275.211 84.2759C274.679 84.631 274.315 85.1258 274.066 85.541L277.496 87.599C277.518 87.5615 277.537 87.5341 277.55 87.5152C277.563 87.4963 277.57 87.4884 277.569 87.4891C277.569 87.4896 277.559 87.5017 277.537 87.5212C277.516 87.5406 277.481 87.5704 277.43 87.6041L275.211 84.2759ZM276.215 88.5224C276.736 88.4066 277.148 88.3248 277.46 88.2728L276.802 84.3272C276.394 84.3952 275.906 84.4934 275.347 84.6176L276.215 88.5224ZM277.46 88.2728C277.82 88.2128 278.18 88.1528 278.54 88.0928L277.882 84.1472C277.522 84.2072 277.162 84.2672 276.802 84.3272L277.46 88.2728ZM278.494 88.0999C279.308 87.9835 280.247 87.8661 281.312 87.7478L280.87 83.7722C279.775 83.8939 278.793 84.0165 277.928 84.1401L278.494 88.0999ZM280.733 87.7277C281.469 87.8614 282.164 87.94 282.801 87.94V83.94C282.478 83.94 282.033 83.8985 281.449 83.7923L280.733 87.7277ZM282.801 87.94H284.061V83.94H282.801V87.94ZM284.061 87.94C284.419 87.94 285.016 88.0513 285.909 88.4194L287.432 84.7206C286.286 84.2487 285.143 83.94 284.061 83.94V87.94ZM286.005 88.456C286.483 88.6245 286.646 88.8392 286.742 89.1465L290.56 87.9535C290.056 86.3408 288.899 85.2354 287.337 84.684L286.005 88.456ZM286.742 89.1465C286.931 89.7501 286.956 90.3753 286.794 91.0619L290.688 91.9781C291.006 90.6247 290.971 89.2699 290.56 87.9534L286.742 89.1465ZM286.801 91.0349C286.644 91.6597 286.324 92.286 285.782 92.9184L288.819 95.5216C289.717 94.474 290.357 93.3003 290.681 92.0051L286.801 91.0349ZM285.782 92.9184C285.431 93.3283 285.019 93.5405 284.406 93.5728L284.616 97.5672C286.283 97.4795 287.731 96.7917 288.819 95.5216L285.782 92.9184ZM283.979 93.642C278.757 95.0827 275.224 95.8058 273.243 95.9129L273.459 99.9071C275.918 99.7742 279.825 98.9373 285.043 97.498L283.979 93.642ZM271.832 96.6084L271.292 97.2384L274.329 99.8416L274.869 99.2116L271.832 96.6084ZM270.811 98.54V98.63H274.811V98.54H270.811ZM270.965 97.8608C270.336 99.3686 269.658 101.254 268.928 103.503L272.733 104.737C273.444 102.546 274.085 100.771 274.657 99.3992L270.965 97.8608ZM268.918 103.536C268.262 105.682 267.516 108.04 266.679 110.611L270.483 111.849C271.326 109.26 272.079 106.878 272.744 104.704L268.918 103.536ZM266.67 110.639C265.889 113.162 265.078 115.805 264.238 118.568L268.064 119.732C268.903 116.975 269.712 114.338 270.491 111.821L266.67 110.639ZM264.241 118.556C263.409 121.231 262.548 123.815 261.657 126.307L265.424 127.653C266.334 125.105 267.213 122.469 268.061 119.744L264.241 118.556ZM261.648 126.335C260.215 130.542 258.996 133.731 257.987 135.935C257.481 137.041 257.05 137.851 256.696 138.401C256.291 139.029 256.14 139.072 256.283 138.994L258.199 142.506C259.001 142.068 259.608 141.267 260.059 140.567C260.559 139.791 261.08 138.789 261.625 137.6C262.716 135.214 263.986 131.878 265.434 127.625L261.648 126.335ZM256.346 138.961C256.08 139.094 255.798 139.178 255.49 139.212L255.932 143.188C256.703 143.102 257.442 142.886 258.135 142.539L256.346 138.961ZM255.226 139.26C254.967 139.325 254.722 139.391 254.516 139.46C254.415 139.494 254.288 139.54 254.158 139.599C254.089 139.63 253.774 139.768 253.487 140.056L256.315 142.884C256.233 142.966 256.158 143.026 256.103 143.067C256.047 143.108 255.999 143.139 255.962 143.161C255.892 143.203 255.837 143.229 255.813 143.24C255.765 143.262 255.747 143.266 255.781 143.255C255.809 143.246 255.857 143.231 255.93 143.21C256.001 143.19 256.089 143.167 256.196 143.14L255.226 139.26ZM255.015 139.473C253.104 139.364 251.663 138.988 250.606 138.437L248.756 141.983C250.459 142.872 252.498 143.336 254.787 143.467L255.015 139.473ZM250.606 138.437C249.295 137.753 248.707 137.237 248.508 136.964L245.273 139.316C246.034 140.363 247.307 141.227 248.756 141.983L250.606 138.437ZM248.508 136.964C248.419 136.84 248.369 136.736 248.454 136.439L244.608 135.341C244.213 136.724 244.403 138.12 245.273 139.316L248.508 136.964ZM248.519 136.107C249.645 125.794 251.901 114.47 255.299 102.131L251.443 101.069C248 113.57 245.697 125.106 244.543 135.673L248.519 136.107ZM253.371 99.6C252.153 99.6 250.892 99.7032 249.956 100.171L251.745 103.749C251.715 103.764 251.808 103.715 252.124 103.67C252.421 103.627 252.83 103.6 253.371 103.6V99.6ZM249.91 100.195C249.325 100.507 248.548 100.723 247.516 100.772L247.706 104.768C249.193 104.697 250.576 104.373 251.792 103.725L249.91 100.195ZM247.611 100.77H247.521V104.77H247.611V100.77ZM247.646 100.774C247.293 100.752 246.879 100.6 246.376 100.059L243.445 102.781C244.503 103.92 245.829 104.668 247.396 104.766L247.646 100.774ZM246.376 100.059C245.85 99.4919 245.556 98.8862 245.444 98.2112L241.498 98.8688C241.746 100.354 242.412 101.668 243.445 102.781L246.376 100.059ZM245.444 98.2112C245.341 97.5927 245.426 96.8952 245.818 96.0662L242.203 94.3538C241.516 95.8048 241.241 97.3273 241.498 98.8688L245.444 98.2112ZM245.818 96.0662C246.073 95.5275 246.669 94.9069 248.005 94.3622L246.496 90.6578C244.593 91.4331 243.028 92.6125 242.203 94.3538L245.818 96.0662ZM247.792 94.4353C249.725 93.8917 251.22 93.4184 252.224 93.017L250.738 89.303C249.942 89.6216 248.617 90.0483 246.709 90.5847L247.792 94.4353ZM252.246 93.008C253.945 92.3047 255.292 91.8319 256.31 91.5641L255.292 87.6958C254.029 88.0281 252.497 88.5753 250.716 89.312L252.246 93.008ZM256.286 91.5703C256.891 91.4191 257.372 91.2951 257.722 91.1995C257.896 91.1521 258.051 91.1082 258.178 91.0691C258.247 91.0478 258.472 90.9805 258.675 90.8789L256.886 87.3011C256.947 87.2711 256.992 87.2524 257.009 87.2457C257.03 87.2374 257.043 87.2328 257.045 87.2321C257.048 87.231 257.036 87.2354 257.001 87.2459C256.934 87.2668 256.826 87.2979 256.67 87.3405C256.36 87.4249 255.911 87.5409 255.316 87.6897L256.286 91.5703ZM258.89 90.7541C259.063 90.6392 259.338 90.4513 259.555 90.2342L256.727 87.4058C256.748 87.3844 256.766 87.3681 256.778 87.3573C256.79 87.3463 256.799 87.3385 256.804 87.3342C256.814 87.326 256.816 87.3251 256.806 87.3325C256.797 87.3394 256.781 87.3508 256.758 87.3672C256.735 87.3833 256.706 87.4029 256.671 87.4259L258.89 90.7541ZM259.25 90.4841C259.148 90.5525 259.06 90.5946 259.002 90.619C258.943 90.6439 258.899 90.6577 258.876 90.6643C258.833 90.6765 258.828 90.6741 258.878 90.6675C258.924 90.6613 258.997 90.6541 259.104 90.6486C259.209 90.6432 259.338 90.64 259.491 90.64V86.64C259.087 86.64 258.697 86.6562 258.349 86.7025C258.083 86.738 257.529 86.8244 257.031 87.1559L259.25 90.4841ZM261.449 89.0452C261.81 87.3007 262.171 85.5264 262.532 83.7222L258.61 82.9378C258.251 84.7336 257.891 86.4992 257.532 88.2348L261.449 89.0452ZM262.532 83.7222C262.88 81.9809 263.317 80.2061 263.842 78.3976L260 77.2824C259.445 79.1939 258.981 81.0791 258.61 82.9378L262.532 83.7222ZM263.848 78.3753C265.001 74.2236 266.57 70.7081 268.53 67.7967L265.212 65.5632C262.971 68.8919 261.241 72.8164 259.994 77.3047L263.848 78.3753Z" fill="black" mask="url(#path-2-outside-1_270_5518)"/>
<defs>
<linearGradient id="paint0_linear_270_5518" x1="164.883" y1="8.53214" x2="187.037" y2="204.742" gradientUnits="userSpaceOnUse">
<stop stop-color="#482828"/>
<stop offset="1" stop-color="#3F333B"/>
</linearGradient>
<linearGradient id="paint1_linear_270_5518" x1="280.71" y1="294.066" x2="3.62929" y2="202.383" gradientUnits="userSpaceOnUse">
<stop stop-color="#7A5054"/>
<stop offset="1" stop-color="#A27270"/>
</linearGradient>
<linearGradient id="paint2_linear_270_5518" x1="245.71" y1="30.3885" x2="49.5845" y2="188.564" gradientUnits="userSpaceOnUse">
<stop stop-color="#5B4544"/>
<stop offset="1" stop-color="#895E61"/>
</linearGradient>
<linearGradient id="paint3_linear_270_5518" x1="263.778" y1="352.447" x2="-55.8594" y2="173.052" gradientUnits="userSpaceOnUse">
<stop stop-color="#C29E9B"/>
<stop offset="1" stop-color="#C4B4AE"/>
</linearGradient>
<linearGradient id="paint4_linear_270_5518" x1="182.668" y1="53.93" x2="152.421" y2="154.453" gradientUnits="userSpaceOnUse">
<stop stop-color="#FBFBFC" stop-opacity="0.792157"/>
<stop offset="1" stop-color="#F9F9FB" stop-opacity="0.85098"/>
</linearGradient>
<linearGradient id="paint5_linear_270_5518" x1="86.9362" y1="182.26" x2="197.237" y2="-38.0572" gradientUnits="userSpaceOnUse">
<stop stop-color="#F08B4C"/>
<stop offset="1" stop-color="#894B2C"/>
</linearGradient>
</defs>
</svg>
