<svg width="612" height="144" viewBox="0 0 612 144" fill="none" xmlns="http://www.w3.org/2000/svg">
<path d="M536.101 12.9516C544.131 6.64193 558.469 6.37777 568.242 7.53836C576.681 8.54089 585.314 11.3601 590.911 18.1115C592.031 19.4561 591.794 19.2677 592.59 21.0498C599.501 31.3306 600.383 37.4974 599.436 49.7378C605.12 65.4534 607.832 87.5394 600.771 103.21C596.508 112.665 588.199 119.367 578.597 122.836C569.297 126.19 558.06 125.988 548.308 125.185C537.824 124.321 526.069 126.138 515.456 126.292C493.332 126.61 471.335 125.917 449.241 124.893C422.869 130.536 333.529 126.759 300.693 126.805L142.009 127.091C102.252 127.268 60.1626 130.408 20.9605 123.148C16.6721 122.535 12.0544 119.536 8.16218 117.611C-2.55866 98.6647 0.186145 69.9832 0.666215 48.9648C0.018228 40.9099 1.52085 32.8895 2.66828 24.9364C7.60676 21.643 12.6248 18.1613 17.8518 15.3464C34.2495 6.51638 50.4385 8.30054 67.6951 13.3522C142.347 18.2392 224.032 14.0386 299.81 14.5647L446.035 16.0177C475.597 16.0588 506.781 16.8989 536.101 12.9516Z" fill="url(#paint0_linear_92_33409)"/>
<path d="M21 122.724C43.8519 119.074 68.257 119.976 91.3691 119.458C157.384 117.972 223.403 120.532 289.42 121.059C324.898 121.344 422.57 115.695 449 124.621C422.646 130.757 333.364 126.651 300.549 126.7L141.969 127.011C102.238 127.204 60.1764 130.618 21 122.724Z" fill="#5B3534"/>
<path d="M536.616 12.6589C544.654 6.32593 559.005 6.06078 568.788 7.22567C577.235 8.2319 585.876 11.0615 591.478 17.8378C592.599 19.1874 592.362 18.9984 593.159 20.787C600.076 31.1057 600.96 37.2953 600.012 49.5809C605.7 65.3547 608.415 87.5222 601.348 103.25C597.081 112.741 588.763 119.467 579.153 122.949C569.844 126.315 558.595 126.113 548.834 125.307C552.282 122.786 554.824 120.619 557.238 117.033C544.567 105.293 459.537 112.943 438.299 110.531C445.815 108.034 456.311 108.488 464.295 107.858C494.696 108.137 525.087 107.894 555.471 107.127C560.255 105.08 564.909 103.029 568.809 99.4578C580.165 89.0325 586.156 71.4855 586.608 56.3159C586.975 44.8105 584.238 33.0639 576.136 24.5685C564.564 12.4306 552.045 12.9545 536.616 12.6589Z" fill="url(#paint1_linear_92_33409)"/>
<path d="M2.67085 24.688L3.56941 22.6777C5.71563 17.7595 7.46762 13.4717 12.0165 10.2292C21.4353 3.5137 35.8167 2.13574 47.0629 1.57938C80.3747 -0.0744936 114.464 2.08363 147.813 2.60739C197.833 2.99134 247.852 3.0862 297.872 2.89205C363.274 2.51825 428.701 -0.207098 494.099 0.131935C519.356 0.264506 548.059 -1.21542 572.882 3.26373C579.821 4.51989 588.979 6.69748 593.073 13.0739C594.883 15.9253 593.805 17.6183 593.159 20.787C592.362 18.9984 592.599 19.1874 591.478 17.8378C585.876 11.0615 577.235 8.2319 568.788 7.22567C559.005 6.06078 544.654 6.32593 536.616 12.6589C507.267 16.6208 476.054 15.7776 446.464 15.7363L300.098 14.2779C224.247 13.7498 142.484 17.966 67.7602 13.0609C50.4869 7.99063 34.2824 6.19988 17.8689 15.0626C12.637 17.8878 7.61407 21.3824 2.67085 24.688Z" fill="#D4825D"/>
<path d="M600.012 49.5809C602.899 49.7026 603.783 49.005 605.851 51.2978C614.492 60.882 611.95 88.774 610.484 101.414C608.997 114.041 607.877 127.126 597.167 135.5C589.884 141.194 582.859 142.287 573.938 142.854C540.861 144.951 507.289 142.574 474.154 142.467L276.851 142.374C234.782 142.385 192.666 142.009 150.603 142.617C112.868 143.165 75.1104 146.299 37.5945 140.792C28.1843 139.41 16.6774 136.647 10.883 128.252C8.6894 125.074 7.92866 121.523 8.17001 117.705C12.066 119.637 16.6881 122.647 20.9806 123.262C60.2204 130.549 102.35 127.398 142.145 127.22L300.981 126.933C333.849 126.887 423.275 130.677 449.672 125.014C471.788 126.042 493.806 126.737 515.951 126.418C526.575 126.263 538.34 124.44 548.834 125.307C558.595 126.113 569.844 126.315 579.153 122.949C588.763 119.467 597.081 112.741 601.348 103.25C608.415 87.5222 605.7 65.3547 600.012 49.5809Z" fill="#0F1328"/>
<path d="M2.67085 24.688C7.61407 21.3824 12.637 17.8878 17.8689 15.0626C34.2824 6.19988 50.4869 7.99063 67.7602 13.0609C53.1632 14.2975 31.7549 12.4569 21.5344 24.8664C12.2708 36.1132 10.4541 52.3238 11.8806 66.3893C13.1822 79.2334 17.6837 93.8856 28.4364 101.886C48.5476 116.849 100.462 109.803 125.458 108.936L129.091 110.142C127.848 110.981 127.568 111.274 125.928 111.763C113.081 115.597 49.862 114.715 34.9052 112.715C29.2142 111.954 23.3681 110.442 18.6814 106.943C4.00253 95.9851 3.30224 65.9633 0.666861 48.8052C0.0182521 40.7206 1.52232 32.6704 2.67085 24.688Z" fill="#908685"/>
<path d="M0.666861 48.8052C3.30224 65.9633 4.00253 95.9851 18.6814 106.943C23.3681 110.442 29.2142 111.954 34.9052 112.715C49.862 114.715 113.081 115.597 125.928 111.763C127.568 111.274 127.848 110.981 129.091 110.142L125.458 108.936C140.669 105.53 160.095 107.634 175.746 107.651L309.614 108.931C360.341 109.105 413.947 105.804 464.295 107.858C456.311 108.488 445.815 108.034 438.299 110.531C459.537 112.943 544.567 105.293 557.238 117.033C554.824 120.619 552.282 122.786 548.834 125.307C538.34 124.44 526.575 126.263 515.951 126.418C493.806 126.737 471.788 126.042 449.672 125.014C423.275 130.677 333.849 126.887 300.981 126.933L142.145 127.22C102.35 127.398 60.2204 130.549 20.9806 123.262C16.6881 122.647 12.066 119.637 8.17001 117.705C-2.56113 98.6886 0.18633 69.9013 0.666861 48.8052Z" fill="#804D4F"/>
<path d="M260.811 93.5621C218.431 93.3448 175.726 92.155 133.377 93.8009C108.556 94.5985 82.482 97.0434 57.7444 95.0006C48.6402 94.2464 36.8187 93.7248 30.1279 86.6898C21.6766 77.8054 22.7712 62.8098 23.6418 51.5C24.1697 44.6672 25.398 37.1736 30.7248 32.362C36.7368 26.9288 50.3145 26.8745 58.2357 26.4898C91.2178 24.8838 124.678 26.0878 157.716 26.2008L344.507 26.6723C412.93 26.5463 483.762 20.0547 551.937 25.9009C558.574 26.4725 566.31 27.8329 570.9 33.1878C577.17 40.5531 577.558 52.5128 576.481 61.6863C575.403 70.9075 571.675 81.7652 564.069 87.5636C556.247 93.551 541.766 94.3616 532.177 95.0766C497.01 97.6997 460.99 93.9443 425.741 93.4857C400.93 93.1619 374.149 95.8156 349.646 93.3923C349.646 93.3923 348.899 93.5621 341.239 93.5621C333.579 93.5621 332.744 93.9545 325.919 93.5621L322.089 93.3923C318.935 94.0856 315.775 93.9685 312.514 93.5621C309.254 93.1557 306.77 93.5621 306.77 93.5621H278.045C278.045 93.5621 266.456 92.8949 260.811 93.5621Z" fill="url(#paint2_linear_92_33409)"/>
<defs>
<linearGradient id="paint0_linear_92_33409" x1="295.703" y1="137.968" x2="308.432" y2="-10.2108" gradientUnits="userSpaceOnUse">
<stop stop-color="#3B2837"/>
<stop offset="1" stop-color="#60413E"/>
</linearGradient>
<linearGradient id="paint1_linear_92_33409" x1="541.105" y1="131.616" x2="523.825" y2="-8.02432" gradientUnits="userSpaceOnUse">
<stop stop-color="#7B605F"/>
<stop offset="1" stop-color="#AC9391"/>
</linearGradient>
<linearGradient id="paint2_linear_92_33409" x1="299.393" y1="92.0956" x2="298.861" y2="26.3439" gradientUnits="userSpaceOnUse">
<stop stop-color="#6E5051"/>
<stop offset="1" stop-color="#917371"/>
</linearGradient>
</defs>
</svg>
