<svg width="149" height="155" viewBox="0 0 149 155" fill="none" xmlns="http://www.w3.org/2000/svg">
<path d="M16.8418 22.6039C23.2145 14.4869 31.7005 9.06601 41.2552 5.38305C58.3698 -1.2119 78.5983 -2.32864 95.4495 5.3126C109.503 9.94273 119.2 20.7691 126.98 32.9964L131.658 41.7742C138.053 44.3514 141.825 49.6182 144.652 56.0259C151.746 72.1168 149.46 95.393 142.821 111.242C136.12 127.238 126.789 137.855 112.957 148.027C106.85 149.968 100.751 152.018 94.5871 153.767C94.2074 153.825 93.8257 153.875 93.4461 153.937C79.1118 156.256 65.629 154.087 51.2904 153.888C46.1137 152.408 41.2157 150.161 36.265 148.06C27.6254 140.117 17.2828 129.971 12.7798 118.955C10.9036 114.365 10.3045 112.794 12.2137 108.061C5.72683 95.5956 1.11186 84.223 0.150684 70.0286C-1.06505 52.061 5.12776 36.0119 16.8418 22.6039Z" fill="url(#paint0_linear_149_50782)"/>
<path d="M95.4495 5.3126C109.503 9.94273 119.2 20.7691 126.98 32.9964C124.278 40.239 120.508 46.7676 116.726 53.4815C110.187 42.1881 100.283 35.6637 93.0132 25.5268L91.7251 18.3372C88.045 15.0925 85.1066 12.3787 82.8112 7.99091L84.266 6.44239C88.2314 7.18912 90.5884 7.10768 94.4111 5.71115C94.7601 5.5856 95.1028 5.44477 95.4495 5.3126Z" fill="#DE7850"/>
<path d="M16.8418 22.6039C23.2145 14.4869 31.7005 9.06601 41.2552 5.38305C58.3698 -1.2119 78.5983 -2.32864 95.4495 5.3126C95.1028 5.44477 94.7601 5.5856 94.4111 5.71115C90.5884 7.10768 88.2314 7.18912 84.266 6.44239L82.8112 7.99091C85.1066 12.3787 88.045 15.0925 91.7251 18.3372L93.0132 25.5268L82.6096 21.17L80.2068 22.1788L80.378 26.0512L68.6683 17.5928C58.8788 27.1879 28.5404 51.6536 28.5404 65.925C28.5404 70.249 29.8681 75.1104 30.8139 79.3308L28.3517 80.2559C16.1395 60.416 37.4368 53.5258 35.3323 39.6949C29.9208 41.1047 27.3642 48.5037 22.2138 51.4817C21.7946 47.0014 20.7369 45.2238 17.9609 41.7303L12.8499 42.0672L10.4602 38.8865C13.5302 33.8313 15.6567 29.9391 16.6376 24.0005C16.7144 23.5358 16.7738 23.0687 16.8418 22.6039Z" fill="#F29051"/>
<path d="M131.658 41.7742C138.053 44.3514 141.825 49.6182 144.652 56.0259C151.746 72.1168 149.46 95.393 142.821 111.242C136.12 127.238 126.789 137.855 112.957 148.027C106.85 149.968 100.751 152.018 94.5871 153.767C94.2074 153.825 93.8257 153.875 93.4461 153.937C79.1118 156.256 65.629 154.087 51.2904 153.888C46.1137 152.408 41.2157 150.161 36.265 148.06C27.6254 140.117 17.2828 129.971 12.7798 118.955C10.9036 114.365 10.3045 112.794 12.2137 108.061L14.0173 109.627C20.7851 111.989 26.7562 116.89 33.1969 120.112C50.7504 128.897 72.5414 132.02 91.315 125.392C114.006 117.383 124.989 99.7504 134.585 79.1307C137.004 65.6875 135.024 54.7857 131.658 41.7742Z" fill="#0B0E22"/>
<path d="M14.0173 109.627C20.7851 111.989 26.7562 116.89 33.1969 120.112C50.7504 128.897 72.5414 132.02 91.315 125.392C114.006 117.383 124.989 99.7504 134.585 79.1307C132.689 96.4419 125.154 110.408 111.627 121.51C110.744 122.248 109.843 122.965 108.926 123.66C108.007 124.354 107.072 125.025 106.121 125.673C105.17 126.322 104.204 126.947 103.222 127.547C102.241 128.148 101.245 128.724 100.236 129.274C99.2264 129.826 98.2038 130.353 97.168 130.854C96.1337 131.356 95.0868 131.832 94.0276 132.281C92.9699 132.73 91.9012 133.154 90.8215 133.552C89.7419 133.949 88.6535 134.318 87.5562 134.662C86.459 135.006 85.3538 135.322 84.2404 135.612C83.1286 135.901 82.0093 136.162 80.8828 136.396C79.7578 136.629 78.6277 136.835 77.4924 137.015C76.3557 137.192 75.2161 137.343 74.0735 137.466C72.9309 137.588 71.7861 137.682 70.6392 137.748C69.4907 137.814 68.3415 137.852 67.1916 137.861C66.0431 137.869 64.8948 137.85 63.7464 137.803C62.598 137.756 61.4509 137.681 60.3054 137.576C44.4987 135.988 28.6723 128.316 18.4286 115.919C16.7937 113.939 15.3757 111.804 14.0173 109.627Z" fill="#563228"/>
<path d="M68.6683 17.5928L80.378 26.0512C91.708 37.0252 109.265 52.4221 109.399 69.6165C109.454 76.5617 106.318 82.1786 101.403 86.7978C100.406 87.7339 99.3839 88.6239 98.3503 89.5182L100.356 86.1612L98.8966 87.4674C92.265 93.3223 85.2339 96.1792 77.6477 100.378C71.5976 103.726 60.1052 104.552 53.5086 102.602C50.7129 101.774 48.7664 99.7146 46.787 97.6836L51.3625 95.7079C51.0597 95.6264 50.7524 95.5602 50.4517 95.4655C42.4771 92.9544 37.2875 84.2715 30.8139 79.3308C29.8681 75.1104 28.5404 70.249 28.5404 65.925C28.5404 51.6536 58.8788 27.1879 68.6683 17.5928Z" fill="url(#paint1_linear_149_50782)"/>
<path d="M26.976 79.088C25.752 79.136 24.624 78.98 23.592 78.62C22.584 78.284 21.756 77.816 21.108 77.216C20.484 76.616 20.088 75.92 19.92 75.128C19.752 74.312 19.896 73.484 20.352 72.644C20.976 71.636 22.224 71.336 24.096 71.744C25.512 72.032 26.484 72.188 27.012 72.212C27.564 72.236 28.032 72.164 28.416 71.996C30.168 71.42 31.152 70.796 31.368 70.124C31.512 69.62 31.2 69.032 30.432 68.36C30.12 68.072 29.772 67.784 29.388 67.496C29.004 67.208 28.68 66.92 28.416 66.632C27.216 65.744 26.268 64.724 25.572 63.572C24.9 62.396 24.624 61.124 24.744 59.756C24.864 58.388 25.092 57.26 25.428 56.372C25.764 55.46 26.184 54.656 26.688 53.96C27.576 52.736 28.728 51.74 30.144 50.972C31.776 50.132 33.084 49.592 34.068 49.352C36.012 48.92 37.98 48.884 39.972 49.244C40.644 49.364 41.22 49.592 41.7 49.928C42.18 50.264 42.66 50.612 43.14 50.972C43.98 51.812 44.184 52.664 43.752 53.528C43.584 53.912 43.32 54.224 42.96 54.464C42.6 54.704 42.216 54.836 41.808 54.86C41.856 55.508 41.736 55.988 41.448 56.3C40.896 56.852 39.936 57.212 38.568 57.38C36.6 57.236 35.268 57.344 34.572 57.704C33.756 58.136 33.456 59.072 33.672 60.512C33.72 60.824 33.912 61.148 34.248 61.484C34.608 61.82 35.016 62.18 35.472 62.564C35.952 62.948 36.444 63.38 36.948 63.86C37.476 64.34 37.932 64.892 38.316 65.516C39.66 67.724 39.552 70.304 37.992 73.256C36.84 75.464 34.872 77.12 32.088 78.224C30.648 78.8 28.944 79.088 26.976 79.088Z" fill="white"/>
<path d="M51.9513 67.784C51.3033 69.656 50.6433 71.456 49.9713 73.184C49.2993 74.912 48.7353 76.22 48.2793 77.108C47.8473 78.02 47.4633 78.644 47.1273 78.98C46.7913 79.316 46.4433 79.544 46.0833 79.664C45.7473 79.784 45.3993 79.832 45.0393 79.808C44.7033 79.784 44.3553 79.76 43.9953 79.736C41.9793 79.424 41.3553 77.972 42.1233 75.38C42.6273 73.316 43.0353 71.636 43.3473 70.34C43.6593 69.02 43.9113 67.94 44.1033 67.1C44.3193 66.236 44.4993 65.528 44.6433 64.976C44.7873 64.4 44.9433 63.836 45.1113 63.284C45.2793 62.732 45.4833 62.108 45.7233 61.412C45.9873 60.716 46.3233 59.792 46.7313 58.64C45.8193 58.76 45.0033 58.664 44.2833 58.352C43.2273 57.896 42.7953 56.912 42.9873 55.4C43.0833 54.704 43.4553 54.056 44.1033 53.456C44.4393 53.144 44.8353 52.808 45.2913 52.448C46.2273 51.704 48.0873 50.912 50.8713 50.072C53.7513 49.208 56.2233 48.8 58.2873 48.848C58.8393 48.752 59.4033 48.824 59.9793 49.064C60.5793 49.28 61.0593 49.58 61.4193 49.964C61.7793 50.348 61.9593 50.768 61.9593 51.224C61.9833 51.68 61.6953 52.088 61.0953 52.448C60.8073 52.64 60.6033 52.964 60.4833 53.42C60.3633 53.852 60.2313 54.32 60.0873 54.824C59.9433 55.304 59.7273 55.748 59.4393 56.156C59.1753 56.564 58.7433 56.804 58.1433 56.876C57.8313 57.044 57.3873 57.164 56.8113 57.236C56.2593 57.308 55.8873 57.368 55.6953 57.416C55.5273 57.44 55.4313 57.5 55.4073 57.596C54.9753 58.868 54.4593 60.416 53.8593 62.24C53.2593 64.04 52.6233 65.888 51.9513 67.784ZM47.0913 58.244C47.0433 58.244 47.0193 58.256 47.0193 58.28C47.0193 58.28 47.0433 58.28 47.0913 58.28V58.244Z" fill="white"/>
<path d="M75.9616 52.592C76.7776 53.024 77.2936 53.66 77.5096 54.5C77.0296 57.188 76.5976 59.864 76.2136 62.528C75.8296 65.168 75.4576 67.388 75.0976 69.188C74.7376 70.964 74.4856 72.296 74.3416 73.184C74.2216 74.072 74.0776 74.96 73.9096 75.848L73.6936 76.604C73.6456 76.868 73.5976 77.108 73.5496 77.324C73.5016 77.564 73.4536 77.816 73.4056 78.08C72.7336 78.848 71.8216 79.232 70.6696 79.232C69.4456 79.232 68.4736 78.92 67.7536 78.296C67.3216 77.96 67.2496 77.252 67.5376 76.172C67.6576 75.74 67.7296 75.188 67.7536 74.516C67.8016 73.82 67.8496 73.244 67.8976 72.788V72.716C67.1776 72.98 66.5296 73.328 65.9536 73.76C65.3776 74.168 65.0176 74.432 64.8736 74.552C64.7296 74.648 64.5376 74.732 64.2976 74.804C64.0576 74.852 63.8416 74.888 63.6496 74.912C63.1936 74.936 62.8816 75.008 62.7136 75.128C61.3216 77.624 60.0736 79.016 58.9696 79.304C58.2736 79.52 57.5776 79.568 56.8816 79.448C56.1856 79.352 55.6336 78.944 55.2256 78.224C54.4576 77.504 54.6496 75.536 55.8016 72.32C56.4256 70.616 57.3136 68.576 58.4656 66.2C59.6416 63.8 60.7696 61.712 61.8496 59.936C64.1776 56.12 66.7336 52.904 69.5176 50.288C69.9736 50.096 70.4656 49.88 70.9936 49.64C71.5216 49.376 72.0376 49.232 72.5416 49.208C73.0696 49.184 73.6096 49.244 74.1616 49.388C74.7136 49.532 75.1816 49.748 75.5656 50.036C76.4536 50.708 76.5856 51.56 75.9616 52.592ZM68.2576 62.06C67.7536 63.5 67.2496 64.832 66.7456 66.056C66.2416 67.256 65.8096 68.312 65.4496 69.224L68.2936 69.116C68.4856 67.58 68.7016 66.056 68.9416 64.544C69.1816 63.032 69.4096 61.52 69.6256 60.008L68.2576 62.06ZM67.2856 69.26C67.6216 69.26 67.9576 69.236 68.2936 69.188V69.152C67.9816 69.176 67.6936 69.2 67.4296 69.224C67.1656 69.248 67.1176 69.26 67.2856 69.26Z" fill="white"/>
<path d="M81.2339 77.108C81.0179 78.068 80.2739 78.656 79.0019 78.872C77.8259 79.088 76.7099 78.956 75.6539 78.476C74.4779 77.972 73.9619 77.264 74.1059 76.352C73.9619 74.96 74.6939 71.936 76.3019 67.28C78.7019 60.296 81.1019 55.304 83.5019 52.304C84.1259 51.536 84.6539 51.044 85.0859 50.828C85.5419 50.588 86.0579 50.372 86.6339 50.18C87.2099 49.988 87.8099 49.808 88.4339 49.64C89.6819 49.304 90.8579 49.076 91.9619 48.956C93.0899 48.812 94.0979 48.944 94.9859 49.352C95.8739 49.736 96.5579 50.312 97.0379 51.08C97.5419 51.848 97.8539 52.76 97.9739 53.816C98.0939 54.848 98.0579 55.94 97.8659 57.092C97.6739 58.22 97.3259 59.372 96.8219 60.548C96.3179 61.7 95.6819 62.78 94.9139 63.788C93.2339 65.996 91.2659 67.424 89.0099 68.072L89.3699 68.684C89.6819 69.164 90.0539 69.692 90.4859 70.268C90.9419 70.844 91.3859 71.432 91.8179 72.032C92.2739 72.632 92.6819 73.232 93.0419 73.832C93.4019 74.432 93.6659 74.996 93.8339 75.524C94.2179 76.7 93.9179 77.552 92.9339 78.08C92.1419 78.56 91.5179 78.68 91.0619 78.44C90.8699 78.32 90.6779 78.164 90.4859 77.972C90.2939 77.804 90.0299 77.66 89.6939 77.54C88.2779 77.948 87.1979 77.588 86.4539 76.46C85.9979 75.74 85.6499 75.08 85.4099 74.48C85.1699 73.88 84.9659 73.376 84.7979 72.968C84.3659 72.08 83.8739 71.312 83.3219 70.664C83.0579 71.312 82.7579 72.14 82.4219 73.148C82.0139 74.42 81.5579 75.74 81.0539 77.108H81.2339ZM88.5059 56.156C88.0499 57.188 87.7379 57.908 87.5699 58.316C87.2339 59.132 86.8619 60.032 86.4539 61.016C86.3819 61.544 86.3219 61.916 86.2739 62.132L86.7779 61.628L87.3899 61.34C87.8219 61.1 88.2179 60.884 88.5779 60.692C88.9379 60.5 89.2619 60.26 89.5499 59.972C90.1019 59.42 90.5819 58.52 90.9899 57.272C90.9899 57.032 91.0259 56.792 91.0979 56.552C91.1939 56.312 91.2539 56.072 91.2779 55.832C91.3739 55.304 91.1579 54.932 90.6299 54.716C90.1499 54.668 89.5499 55.064 88.8299 55.904C88.6859 56.072 88.5779 56.156 88.5059 56.156Z" fill="white"/>
<path d="M106.975 67.784C106.327 69.656 105.667 71.456 104.995 73.184C104.323 74.912 103.759 76.22 103.303 77.108C102.871 78.02 102.487 78.644 102.151 78.98C101.815 79.316 101.467 79.544 101.107 79.664C100.771 79.784 100.423 79.832 100.063 79.808C99.727 79.784 99.379 79.76 99.019 79.736C97.003 79.424 96.379 77.972 97.147 75.38C97.651 73.316 98.059 71.636 98.371 70.34C98.683 69.02 98.935 67.94 99.127 67.1C99.343 66.236 99.523 65.528 99.667 64.976C99.811 64.4 99.967 63.836 100.135 63.284C100.303 62.732 100.507 62.108 100.747 61.412C101.011 60.716 101.347 59.792 101.755 58.64C100.843 58.76 100.027 58.664 99.307 58.352C98.251 57.896 97.819 56.912 98.011 55.4C98.107 54.704 98.479 54.056 99.127 53.456C99.463 53.144 99.859 52.808 100.315 52.448C101.251 51.704 103.111 50.912 105.895 50.072C108.775 49.208 111.247 48.8 113.311 48.848C113.863 48.752 114.427 48.824 115.003 49.064C115.603 49.28 116.083 49.58 116.443 49.964C116.803 50.348 116.983 50.768 116.983 51.224C117.007 51.68 116.719 52.088 116.119 52.448C115.831 52.64 115.627 52.964 115.507 53.42C115.387 53.852 115.255 54.32 115.111 54.824C114.967 55.304 114.751 55.748 114.463 56.156C114.199 56.564 113.767 56.804 113.167 56.876C112.855 57.044 112.411 57.164 111.835 57.236C111.283 57.308 110.911 57.368 110.719 57.416C110.551 57.44 110.455 57.5 110.431 57.596C109.999 58.868 109.483 60.416 108.883 62.24C108.283 64.04 107.647 65.888 106.975 67.784ZM102.115 58.244C102.067 58.244 102.043 58.256 102.043 58.28C102.043 58.28 102.067 58.28 102.115 58.28V58.244Z" fill="white"/>
<defs>
<linearGradient id="paint0_linear_149_50782" x1="83.6015" y1="121.866" x2="56.8196" y2="33.9779" gradientUnits="userSpaceOnUse">
<stop stop-color="#6F371A"/>
<stop offset="1" stop-color="#AE5C2E"/>
</linearGradient>
<linearGradient id="paint1_linear_149_50782" x1="74.5754" y1="93.6918" x2="61.858" y2="54.1566" gradientUnits="userSpaceOnUse">
<stop stop-color="#DB6638"/>
<stop offset="1" stop-color="#F18643"/>
</linearGradient>
</defs>
</svg>
