<svg width="360" height="155" viewBox="0 0 360 155" fill="none" xmlns="http://www.w3.org/2000/svg">
    <mask id="path-1-outside-1_347_7024" maskUnits="userSpaceOnUse" x="77" y="38" width="207" height="106" fill="black">
        <rect fill="white" x="77" y="38" width="207" height="106"/>
        <path d="M97.75 113.27C97.21 115.67 95.35 117.14 92.17 117.68C89.23 118.22 86.44 117.89 83.8 116.69C80.86 115.43 79.57 113.66 79.93 111.38C79.57 107.9 81.4 100.34 85.42 88.7C91.42 71.24 97.42 58.76 103.42 51.26C104.98 49.34 106.3 48.11 107.38 47.57C108.52 46.97 109.81 46.43 111.25 45.95C112.69 45.47 114.19 45.02 115.75 44.6C118.87 43.76 121.81 43.19 124.57 42.89C127.39 42.53 129.91 42.86 132.13 43.88C134.35 44.84 136.06 46.28 137.26 48.2C138.52 50.12 139.3 52.4 139.6 55.04C139.9 57.62 139.81 60.35 139.33 63.23C138.85 66.05 137.98 68.93 136.72 71.87C135.46 74.75 133.87 77.45 131.95 79.97C127.75 85.49 122.83 89.06 117.19 90.68L118.09 92.21C118.87 93.41 119.8 94.73 120.88 96.17C122.02 97.61 123.13 99.08 124.21 100.58C125.35 102.08 126.37 103.58 127.27 105.08C128.17 106.58 128.83 107.99 129.25 109.31C130.21 112.25 129.46 114.38 127 115.7C125.02 116.9 123.46 117.2 122.32 116.6C121.84 116.3 121.36 115.91 120.88 115.43C120.4 115.01 119.74 114.65 118.9 114.35C115.36 115.37 112.66 114.47 110.8 111.65C109.66 109.85 108.79 108.2 108.19 106.7C107.59 105.2 107.08 103.94 106.66 102.92C105.58 100.7 104.35 98.78 102.97 97.16C102.31 98.78 101.56 100.85 100.72 103.37C99.7 106.55 98.56 109.85 97.3 113.27H97.75ZM115.93 60.89C114.79 63.47 114.01 65.27 113.59 66.29C112.75 68.33 111.82 70.58 110.8 73.04C110.62 74.36 110.47 75.29 110.35 75.83L111.61 74.57L113.14 73.85C114.22 73.25 115.21 72.71 116.11 72.23C117.01 71.75 117.82 71.15 118.54 70.43C119.92 69.05 121.12 66.8 122.14 63.68C122.14 63.08 122.23 62.48 122.41 61.88C122.65 61.28 122.8 60.68 122.86 60.08C123.1 58.76 122.56 57.83 121.24 57.29C120.04 57.17 118.54 58.16 116.74 60.26C116.38 60.68 116.11 60.89 115.93 60.89ZM142.483 73.49C144.163 71.87 146.023 70.94 148.063 70.7C150.163 70.4 151.993 70.61 153.553 71.33C155.173 72.05 156.343 73.22 157.063 74.84C157.843 76.4 157.753 78.2 156.793 80.24C154.753 83.24 153.133 86.48 151.933 89.96C150.733 93.44 149.623 96.95 148.603 100.49C154.123 97.01 158.743 91.82 162.463 84.92C163.543 82.88 164.713 80.81 165.973 78.71L167.323 76.19L170.023 71.87C170.383 70.73 171.013 70.01 171.913 69.71C172.813 69.35 173.773 69.17 174.793 69.17C175.873 69.17 176.953 69.2 178.033 69.26C179.113 69.26 180.103 68.96 181.003 68.36C181.903 67.76 182.953 67.55 184.153 67.73C185.413 67.85 186.523 68.24 187.483 68.9C188.503 69.56 189.253 70.37 189.733 71.33C190.273 72.23 190.333 73.13 189.913 74.03C187.393 79.43 183.943 89.48 179.563 104.18C178.543 107.48 177.583 110.24 176.683 112.46C175.183 114.32 173.293 115.58 171.013 116.24C168.733 116.9 166.573 117.08 164.533 116.78C162.553 116.54 160.963 115.85 159.763 114.71C158.563 113.63 158.293 112.25 158.953 110.57C157.273 111.95 155.533 113.21 153.733 114.35C151.933 115.49 149.743 116.24 147.163 116.6C144.643 116.96 142.213 116.84 139.873 116.24C137.533 115.7 135.523 114.62 133.843 113C132.223 111.38 131.353 109.22 131.233 106.52C130.873 97.04 134.623 86.03 142.483 73.49ZM198.953 113.27L196.703 115.34C195.503 116.18 194.333 116.69 193.193 116.87L193.283 116.96L192.833 117.32C188.573 117.68 185.423 116.75 183.383 114.53C181.283 112.19 180.833 109.13 182.033 105.35C184.673 90.41 188.363 76.55 193.103 63.77C196.283 55.13 199.343 49.34 202.283 46.4C203.843 44.9 205.283 44.45 206.603 45.05C206.963 43.61 207.593 42.5 208.493 41.72C209.393 40.88 210.383 40.4 211.463 40.28C212.543 40.1 213.593 40.28 214.613 40.82C215.633 41.3 216.413 42.2 216.953 43.52C217.553 44.84 217.793 46.13 217.673 47.39C217.613 48.59 217.343 49.79 216.863 50.99C216.443 52.13 215.903 53.27 215.243 54.41C214.643 55.55 214.073 56.69 213.533 57.83C209.693 67.07 206.963 73.91 205.343 78.35L206.153 77.81C210.113 75.17 214.343 74 218.843 74.3C220.823 74.48 222.593 75.02 224.153 75.92C225.773 76.76 226.943 78.05 227.663 79.79C228.443 81.53 228.743 83.78 228.563 86.54C228.443 89.24 227.933 92.06 227.033 95C226.133 97.88 224.903 100.7 223.343 103.46C221.843 106.22 220.163 108.62 218.303 110.66C214.103 115.28 210.053 117.02 206.153 115.88C204.473 116.12 202.523 115.34 200.303 113.54C199.823 113.12 199.373 112.79 198.953 112.55V113.27ZM201.383 106.79C202.283 105.77 203.813 103.85 205.973 101.03C208.193 98.21 209.663 96.02 210.383 94.46C211.163 92.84 210.983 91.34 209.843 89.96C208.703 88.52 207.263 89.6 205.523 93.2C202.763 98.96 201.383 103.49 201.383 106.79ZM229.127 85.46C229.187 83 229.007 80.99 228.587 79.43C228.167 77.87 228.167 76.58 228.587 75.56C229.067 74.48 229.787 73.73 230.747 73.31C231.767 72.89 232.937 72.77 234.257 72.95C235.637 73.07 236.987 73.46 238.307 74.12C241.487 75.56 243.707 77.6 244.967 80.24C245.267 81.56 245.147 83.21 244.607 85.19C244.127 87.11 243.557 89.12 242.897 91.22C242.237 93.26 241.607 95.27 241.007 97.25C240.407 99.17 240.167 100.79 240.287 102.11C241.847 101.15 243.197 99.71 244.337 97.79C245.537 95.87 246.617 93.83 247.577 91.67C248.597 89.45 249.527 87.26 250.367 85.1C251.267 82.94 252.107 81.23 252.887 79.97C253.727 78.71 254.387 77.72 254.867 77C255.347 76.22 255.827 75.53 256.307 74.93C257.087 73.91 258.107 72.92 259.367 71.96C259.727 71.66 260.807 71.72 262.607 72.14C264.467 72.5 265.817 72.77 266.657 72.95C267.557 73.07 268.157 73.01 268.457 72.77L269.717 71.87C271.398 71.03 273.378 71.06 275.657 71.96C277.877 72.92 279.047 74.39 279.167 76.37C279.107 76.43 279.077 76.55 279.077 76.73L279.348 76.82L278.717 77.36C278.297 78.14 277.968 78.68 277.728 78.98C277.547 79.22 277.127 79.61 276.468 80.15C272.387 84.53 267.707 92.66 262.427 104.54C261.107 107.48 259.907 110.12 258.827 112.46C260.447 113.48 261.677 114.8 262.517 116.42C263.357 118.04 263.357 119.81 262.517 121.73C257.537 125.69 254.747 129.41 254.147 132.89C253.847 135.05 253.457 136.58 252.977 137.48C252.557 138.38 251.867 139.25 250.907 140.09C247.667 142.49 243.857 141.89 239.477 138.29C236.357 135.17 236.207 131.27 239.027 126.59C239.747 125.33 240.437 124.01 241.097 122.63C242.057 120.59 243.587 117.56 245.687 113.54C240.527 116.54 235.787 116.48 231.467 113.36C228.407 111.02 227.327 105.71 228.227 97.43C228.827 91.91 229.127 87.92 229.127 85.46Z"/>
    </mask>
    <path d="M97.75 113.27C97.21 115.67 95.35 117.14 92.17 117.68C89.23 118.22 86.44 117.89 83.8 116.69C80.86 115.43 79.57 113.66 79.93 111.38C79.57 107.9 81.4 100.34 85.42 88.7C91.42 71.24 97.42 58.76 103.42 51.26C104.98 49.34 106.3 48.11 107.38 47.57C108.52 46.97 109.81 46.43 111.25 45.95C112.69 45.47 114.19 45.02 115.75 44.6C118.87 43.76 121.81 43.19 124.57 42.89C127.39 42.53 129.91 42.86 132.13 43.88C134.35 44.84 136.06 46.28 137.26 48.2C138.52 50.12 139.3 52.4 139.6 55.04C139.9 57.62 139.81 60.35 139.33 63.23C138.85 66.05 137.98 68.93 136.72 71.87C135.46 74.75 133.87 77.45 131.95 79.97C127.75 85.49 122.83 89.06 117.19 90.68L118.09 92.21C118.87 93.41 119.8 94.73 120.88 96.17C122.02 97.61 123.13 99.08 124.21 100.58C125.35 102.08 126.37 103.58 127.27 105.08C128.17 106.58 128.83 107.99 129.25 109.31C130.21 112.25 129.46 114.38 127 115.7C125.02 116.9 123.46 117.2 122.32 116.6C121.84 116.3 121.36 115.91 120.88 115.43C120.4 115.01 119.74 114.65 118.9 114.35C115.36 115.37 112.66 114.47 110.8 111.65C109.66 109.85 108.79 108.2 108.19 106.7C107.59 105.2 107.08 103.94 106.66 102.92C105.58 100.7 104.35 98.78 102.97 97.16C102.31 98.78 101.56 100.85 100.72 103.37C99.7 106.55 98.56 109.85 97.3 113.27H97.75ZM115.93 60.89C114.79 63.47 114.01 65.27 113.59 66.29C112.75 68.33 111.82 70.58 110.8 73.04C110.62 74.36 110.47 75.29 110.35 75.83L111.61 74.57L113.14 73.85C114.22 73.25 115.21 72.71 116.11 72.23C117.01 71.75 117.82 71.15 118.54 70.43C119.92 69.05 121.12 66.8 122.14 63.68C122.14 63.08 122.23 62.48 122.41 61.88C122.65 61.28 122.8 60.68 122.86 60.08C123.1 58.76 122.56 57.83 121.24 57.29C120.04 57.17 118.54 58.16 116.74 60.26C116.38 60.68 116.11 60.89 115.93 60.89ZM142.483 73.49C144.163 71.87 146.023 70.94 148.063 70.7C150.163 70.4 151.993 70.61 153.553 71.33C155.173 72.05 156.343 73.22 157.063 74.84C157.843 76.4 157.753 78.2 156.793 80.24C154.753 83.24 153.133 86.48 151.933 89.96C150.733 93.44 149.623 96.95 148.603 100.49C154.123 97.01 158.743 91.82 162.463 84.92C163.543 82.88 164.713 80.81 165.973 78.71L167.323 76.19L170.023 71.87C170.383 70.73 171.013 70.01 171.913 69.71C172.813 69.35 173.773 69.17 174.793 69.17C175.873 69.17 176.953 69.2 178.033 69.26C179.113 69.26 180.103 68.96 181.003 68.36C181.903 67.76 182.953 67.55 184.153 67.73C185.413 67.85 186.523 68.24 187.483 68.9C188.503 69.56 189.253 70.37 189.733 71.33C190.273 72.23 190.333 73.13 189.913 74.03C187.393 79.43 183.943 89.48 179.563 104.18C178.543 107.48 177.583 110.24 176.683 112.46C175.183 114.32 173.293 115.58 171.013 116.24C168.733 116.9 166.573 117.08 164.533 116.78C162.553 116.54 160.963 115.85 159.763 114.71C158.563 113.63 158.293 112.25 158.953 110.57C157.273 111.95 155.533 113.21 153.733 114.35C151.933 115.49 149.743 116.24 147.163 116.6C144.643 116.96 142.213 116.84 139.873 116.24C137.533 115.7 135.523 114.62 133.843 113C132.223 111.38 131.353 109.22 131.233 106.52C130.873 97.04 134.623 86.03 142.483 73.49ZM198.953 113.27L196.703 115.34C195.503 116.18 194.333 116.69 193.193 116.87L193.283 116.96L192.833 117.32C188.573 117.68 185.423 116.75 183.383 114.53C181.283 112.19 180.833 109.13 182.033 105.35C184.673 90.41 188.363 76.55 193.103 63.77C196.283 55.13 199.343 49.34 202.283 46.4C203.843 44.9 205.283 44.45 206.603 45.05C206.963 43.61 207.593 42.5 208.493 41.72C209.393 40.88 210.383 40.4 211.463 40.28C212.543 40.1 213.593 40.28 214.613 40.82C215.633 41.3 216.413 42.2 216.953 43.52C217.553 44.84 217.793 46.13 217.673 47.39C217.613 48.59 217.343 49.79 216.863 50.99C216.443 52.13 215.903 53.27 215.243 54.41C214.643 55.55 214.073 56.69 213.533 57.83C209.693 67.07 206.963 73.91 205.343 78.35L206.153 77.81C210.113 75.17 214.343 74 218.843 74.3C220.823 74.48 222.593 75.02 224.153 75.92C225.773 76.76 226.943 78.05 227.663 79.79C228.443 81.53 228.743 83.78 228.563 86.54C228.443 89.24 227.933 92.06 227.033 95C226.133 97.88 224.903 100.7 223.343 103.46C221.843 106.22 220.163 108.62 218.303 110.66C214.103 115.28 210.053 117.02 206.153 115.88C204.473 116.12 202.523 115.34 200.303 113.54C199.823 113.12 199.373 112.79 198.953 112.55V113.27ZM201.383 106.79C202.283 105.77 203.813 103.85 205.973 101.03C208.193 98.21 209.663 96.02 210.383 94.46C211.163 92.84 210.983 91.34 209.843 89.96C208.703 88.52 207.263 89.6 205.523 93.2C202.763 98.96 201.383 103.49 201.383 106.79ZM229.127 85.46C229.187 83 229.007 80.99 228.587 79.43C228.167 77.87 228.167 76.58 228.587 75.56C229.067 74.48 229.787 73.73 230.747 73.31C231.767 72.89 232.937 72.77 234.257 72.95C235.637 73.07 236.987 73.46 238.307 74.12C241.487 75.56 243.707 77.6 244.967 80.24C245.267 81.56 245.147 83.21 244.607 85.19C244.127 87.11 243.557 89.12 242.897 91.22C242.237 93.26 241.607 95.27 241.007 97.25C240.407 99.17 240.167 100.79 240.287 102.11C241.847 101.15 243.197 99.71 244.337 97.79C245.537 95.87 246.617 93.83 247.577 91.67C248.597 89.45 249.527 87.26 250.367 85.1C251.267 82.94 252.107 81.23 252.887 79.97C253.727 78.71 254.387 77.72 254.867 77C255.347 76.22 255.827 75.53 256.307 74.93C257.087 73.91 258.107 72.92 259.367 71.96C259.727 71.66 260.807 71.72 262.607 72.14C264.467 72.5 265.817 72.77 266.657 72.95C267.557 73.07 268.157 73.01 268.457 72.77L269.717 71.87C271.398 71.03 273.378 71.06 275.657 71.96C277.877 72.92 279.047 74.39 279.167 76.37C279.107 76.43 279.077 76.55 279.077 76.73L279.348 76.82L278.717 77.36C278.297 78.14 277.968 78.68 277.728 78.98C277.547 79.22 277.127 79.61 276.468 80.15C272.387 84.53 267.707 92.66 262.427 104.54C261.107 107.48 259.907 110.12 258.827 112.46C260.447 113.48 261.677 114.8 262.517 116.42C263.357 118.04 263.357 119.81 262.517 121.73C257.537 125.69 254.747 129.41 254.147 132.89C253.847 135.05 253.457 136.58 252.977 137.48C252.557 138.38 251.867 139.25 250.907 140.09C247.667 142.49 243.857 141.89 239.477 138.29C236.357 135.17 236.207 131.27 239.027 126.59C239.747 125.33 240.437 124.01 241.097 122.63C242.057 120.59 243.587 117.56 245.687 113.54C240.527 116.54 235.787 116.48 231.467 113.36C228.407 111.02 227.327 105.71 228.227 97.43C228.827 91.91 229.127 87.92 229.127 85.46Z" fill="white"/>
    <path d="M97.75 113.27L99.7012 113.709L100.25 111.27H97.75V113.27ZM92.17 117.68L91.8352 115.708L91.8219 115.71L91.8087 115.713L92.17 117.68ZM83.8 116.69L84.6276 114.869L84.6078 114.86L84.5878 114.852L83.8 116.69ZM79.93 111.38L81.9055 111.692L81.9463 111.434L81.9194 111.174L79.93 111.38ZM85.42 88.7L87.3104 89.3529L87.3114 89.35L85.42 88.7ZM103.42 51.26L101.868 49.9988L101.863 50.0047L101.858 50.0106L103.42 51.26ZM107.38 47.57L108.274 49.3588L108.293 49.3495L108.311 49.3398L107.38 47.57ZM111.25 45.95L110.618 44.0526H110.618L111.25 45.95ZM115.75 44.6L115.23 42.6688L115.23 42.6688L115.75 44.6ZM124.57 42.89L124.786 44.8783L124.805 44.8763L124.823 44.8739L124.57 42.89ZM132.13 43.88L131.295 45.6974L131.315 45.7068L131.336 45.7157L132.13 43.88ZM137.26 48.2L135.564 49.26L135.576 49.2788L135.588 49.2973L137.26 48.2ZM139.6 55.04L137.613 55.2658L137.613 55.271L139.6 55.04ZM139.33 63.23L141.302 63.5656L141.303 63.5588L139.33 63.23ZM136.72 71.87L138.552 72.6716L138.555 72.6647L138.558 72.6578L136.72 71.87ZM131.95 79.97L130.359 78.7579L130.358 78.759L131.95 79.97ZM117.19 90.68L116.638 88.7577L114.158 89.4701L115.466 91.694L117.19 90.68ZM118.09 92.21L116.366 93.224L116.389 93.2625L116.413 93.3L118.09 92.21ZM120.88 96.17L119.28 97.37L119.296 97.3909L119.312 97.4114L120.88 96.17ZM124.21 100.58L122.587 101.749L122.602 101.77L122.618 101.79L124.21 100.58ZM127.27 105.08L128.985 104.051L127.27 105.08ZM129.25 109.31L127.344 109.916L127.346 109.924L127.349 109.931L129.25 109.31ZM127 115.7L126.054 113.938L126.008 113.962L125.963 113.99L127 115.7ZM122.32 116.6L121.26 118.296L121.323 118.335L121.389 118.37L122.32 116.6ZM120.88 115.43L122.294 114.016L122.247 113.969L122.197 113.925L120.88 115.43ZM118.9 114.35L119.573 112.467L118.966 112.25L118.346 112.428L118.9 114.35ZM110.8 111.65L109.11 112.72L109.12 112.736L109.13 112.751L110.8 111.65ZM108.19 106.7L106.333 107.443L108.19 106.7ZM106.66 102.92L108.509 102.159L108.486 102.101L108.458 102.045L106.66 102.92ZM102.97 97.16L104.492 95.8631L102.359 93.3586L101.118 96.4054L102.97 97.16ZM100.72 103.37L98.8226 102.738L98.819 102.748L98.8156 102.759L100.72 103.37ZM97.3 113.27L95.4233 112.579L94.4317 115.27H97.3V113.27ZM115.93 60.89V58.89H114.627L114.101 60.0817L115.93 60.89ZM113.59 66.29L111.741 65.5285L113.59 66.29ZM110.8 73.04L108.953 72.274L108.853 72.5132L108.818 72.7698L110.8 73.04ZM110.35 75.83L108.398 75.3961L106.908 82.1007L111.764 77.2442L110.35 75.83ZM111.61 74.57L110.758 72.7604L110.443 72.909L110.196 73.1558L111.61 74.57ZM113.14 73.85L113.992 75.6596L114.052 75.631L114.111 75.5983L113.14 73.85ZM116.11 72.23L117.051 73.9947L116.11 72.23ZM122.14 63.68L124.041 64.3015L124.14 63.9986V63.68H122.14ZM122.41 61.88L120.553 61.1372L120.52 61.22L120.494 61.3053L122.41 61.88ZM122.86 60.08L120.892 59.7222L120.878 59.8012L120.87 59.881L122.86 60.08ZM121.24 57.29L121.997 55.4389L121.728 55.3288L121.439 55.2999L121.24 57.29ZM116.74 60.26L118.259 61.5616L116.74 60.26ZM95.7988 112.831C95.6253 113.602 95.266 114.164 94.7099 114.603C94.1209 115.069 93.2084 115.475 91.8352 115.708L92.5048 119.652C94.3116 119.345 95.9191 118.746 97.1901 117.742C98.494 116.711 99.3347 115.338 99.7012 113.709L95.7988 112.831ZM91.8087 115.713C89.2575 116.181 86.8836 115.895 84.6276 114.869L82.9724 118.511C85.9964 119.885 89.2025 120.258 92.5313 119.647L91.8087 115.713ZM84.5878 114.852C83.3057 114.302 82.6012 113.73 82.2438 113.24C81.9299 112.809 81.8034 112.339 81.9055 111.692L77.9545 111.068C77.6966 112.701 78.0351 114.256 79.0112 115.595C79.9438 116.875 81.3543 117.818 83.0122 118.528L84.5878 114.852ZM81.9194 111.174C81.7775 109.803 82.0656 107.333 82.9764 103.571C83.8705 99.8768 85.3107 95.1431 87.3104 89.3529L83.5296 88.0471C81.5093 93.8969 80.0245 98.7632 79.0886 102.629C78.1694 106.427 77.7225 109.477 77.9406 111.586L81.9194 111.174ZM87.3114 89.35C93.2925 71.9451 99.2031 59.7326 104.982 52.5094L101.858 50.0106C95.6369 57.7874 89.5475 70.5348 83.5286 88.05L87.3114 89.35ZM104.972 52.5212C106.502 50.6383 107.598 49.6969 108.274 49.3588L106.486 45.7811C105.002 46.523 103.458 48.0417 101.868 49.9988L104.972 52.5212ZM108.311 49.3398C109.34 48.7984 110.528 48.2989 111.882 47.8474L110.618 44.0526C109.092 44.5611 107.7 45.1416 106.449 45.8002L108.311 49.3398ZM111.882 47.8474C113.283 47.3805 114.745 46.9417 116.27 46.5312L115.23 42.6688C113.635 43.0983 112.097 43.5595 110.618 44.0526L111.882 47.8474ZM116.27 46.5312C119.306 45.7138 122.144 45.1655 124.786 44.8783L124.354 40.9017C121.476 41.2145 118.434 41.8062 115.23 42.6688L116.27 46.5312ZM124.823 44.8739C127.334 44.5534 129.468 44.8577 131.295 45.6974L132.965 42.0626C130.352 40.8623 127.446 40.5066 124.317 40.9061L124.823 44.8739ZM131.336 45.7157C133.211 46.5262 134.594 47.708 135.564 49.26L138.956 47.14C137.526 44.8519 135.489 43.1538 132.924 42.0443L131.336 45.7157ZM135.588 49.2973C136.651 50.9172 137.343 52.8881 137.613 55.2658L141.587 54.8142C141.257 51.9119 140.389 49.3228 138.932 47.1027L135.588 49.2973ZM137.613 55.271C137.889 57.6432 137.81 60.1836 137.357 62.9012L141.303 63.5588C141.81 60.5164 141.911 57.5968 141.587 54.809L137.613 55.271ZM137.358 62.8944C136.908 65.5419 136.087 68.2703 134.882 71.0822L138.558 72.6578C139.873 69.5897 140.792 66.5581 141.302 63.5656L137.358 62.8944ZM134.888 71.0684C133.692 73.8013 132.183 76.3636 130.359 78.7579L133.541 81.1821C135.557 78.5364 137.228 75.6987 138.552 72.6716L134.888 71.0684ZM130.358 78.759C126.37 84.0005 121.792 87.2772 116.638 88.7577L117.742 92.6023C123.868 90.8428 129.13 86.9795 133.542 81.181L130.358 78.759ZM115.466 91.694L116.366 93.224L119.814 91.196L118.914 89.666L115.466 91.694ZM116.413 93.3C117.223 94.5456 118.18 95.9028 119.28 97.37L122.48 94.97C121.42 93.5572 120.517 92.2744 119.767 91.12L116.413 93.3ZM119.312 97.4114C120.433 98.8274 121.525 100.273 122.587 101.749L125.833 99.4114C124.735 97.8869 123.607 96.3926 122.448 94.9286L119.312 97.4114ZM122.618 101.79C123.717 103.236 124.695 104.676 125.555 106.109L128.985 104.051C128.045 102.484 126.983 100.924 125.802 99.3698L122.618 101.79ZM125.555 106.109C126.395 107.509 126.982 108.777 127.344 109.916L131.156 108.704C130.678 107.203 129.945 105.651 128.985 104.051L125.555 106.109ZM127.349 109.931C127.742 111.135 127.704 111.928 127.521 112.448C127.349 112.938 126.953 113.455 126.054 113.938L127.946 117.462C129.507 116.625 130.716 115.417 131.294 113.777C131.861 112.167 131.718 110.425 131.151 108.689L127.349 109.931ZM125.963 113.99C124.108 115.114 123.4 114.908 123.251 114.83L121.389 118.37C123.52 119.492 125.932 118.686 128.037 117.41L125.963 113.99ZM123.38 114.904C123.051 114.698 122.688 114.409 122.294 114.016L119.466 116.844C120.032 117.411 120.629 117.902 121.26 118.296L123.38 114.904ZM122.197 113.925C121.469 113.288 120.562 112.82 119.573 112.467L118.227 116.233C118.918 116.48 119.331 116.732 119.563 116.935L122.197 113.925ZM118.346 112.428C116.851 112.859 115.72 112.832 114.852 112.543C114.003 112.26 113.201 111.657 112.47 110.549L109.13 112.751C110.259 114.463 111.737 115.72 113.588 116.337C115.42 116.948 117.409 116.861 119.454 116.272L118.346 112.428ZM112.49 110.58C111.396 108.853 110.59 107.314 110.047 105.957L106.333 107.443C106.99 109.086 107.924 110.847 109.11 112.72L112.49 110.58ZM110.047 105.957C109.445 104.454 108.933 103.187 108.509 102.159L104.811 103.681C105.227 104.693 105.735 105.946 106.333 107.443L110.047 105.957ZM108.458 102.045C107.316 99.6969 105.998 97.6301 104.492 95.8631L101.448 98.4569C102.702 99.9299 103.844 101.703 104.862 103.795L108.458 102.045ZM101.118 96.4054C100.435 98.0805 99.6701 100.195 98.8226 102.738L102.617 104.002C103.45 101.505 104.185 99.4795 104.822 97.9146L101.118 96.4054ZM98.8156 102.759C97.805 105.91 96.6744 109.183 95.4233 112.579L99.1767 113.961C100.446 110.517 101.595 107.19 102.624 103.981L98.8156 102.759ZM97.3 115.27H97.75V111.27H97.3V115.27ZM114.101 60.0817C112.961 62.6606 112.172 64.4821 111.741 65.5285L115.439 67.0515C115.848 66.0579 116.619 64.2794 117.759 61.6983L114.101 60.0817ZM111.741 65.5285C110.901 67.5667 109.972 69.8152 108.953 72.274L112.647 73.806C113.668 71.3448 114.599 69.0933 115.439 67.0515L111.741 65.5285ZM108.818 72.7698C108.638 74.0897 108.498 74.9458 108.398 75.3961L112.302 76.2639C112.442 75.6342 112.602 74.6303 112.782 73.3102L108.818 72.7698ZM111.764 77.2442L113.024 75.9842L110.196 73.1558L108.936 74.4158L111.764 77.2442ZM112.462 76.3796L113.992 75.6596L112.288 72.0404L110.758 72.7604L112.462 76.3796ZM114.111 75.5983C115.183 75.0028 116.163 74.4683 117.051 73.9947L115.169 70.4653C114.257 70.9516 113.257 71.4972 112.169 72.1017L114.111 75.5983ZM117.051 73.9947C118.125 73.422 119.094 72.704 119.954 71.8442L117.126 69.0158C116.546 69.596 115.895 70.078 115.169 70.4653L117.051 73.9947ZM119.954 71.8442C121.659 70.1392 122.982 67.5421 124.041 64.3015L120.239 63.0585C119.258 66.0579 118.181 67.9608 117.126 69.0158L119.954 71.8442ZM124.14 63.68C124.14 63.2831 124.199 62.8765 124.326 62.4547L120.494 61.3053C120.261 62.0835 120.14 62.8769 120.14 63.68H124.14ZM124.267 62.6228C124.572 61.8611 124.77 61.0785 124.85 60.279L120.87 59.881C120.83 60.2815 120.728 60.6989 120.553 61.1372L124.267 62.6228ZM124.828 60.4378C125.011 59.4295 124.928 58.3586 124.365 57.3882C123.81 56.4333 122.933 55.8217 121.997 55.4389L120.483 59.1411C120.867 59.2983 120.92 59.4217 120.905 59.3968C120.882 59.3564 120.949 59.4105 120.892 59.7222L124.828 60.4378ZM121.439 55.2999C120.204 55.1764 119.066 55.6445 118.113 56.2733C117.148 56.9103 116.185 57.8344 115.221 58.9584L118.259 61.5616C119.095 60.5856 119.782 59.9647 120.317 59.6117C120.864 59.2505 121.076 59.2836 121.041 59.2801L121.439 55.2999ZM115.221 58.9584C115.082 59.1206 115.024 59.1657 115.04 59.1538C115.049 59.1462 115.117 59.094 115.236 59.0382C115.35 58.985 115.594 58.89 115.93 58.89V62.89C116.717 62.89 117.281 62.4776 117.495 62.3112C117.781 62.0893 118.038 61.8194 118.259 61.5616L115.221 58.9584ZM142.483 73.49L141.095 72.0503L140.918 72.2203L140.788 72.4278L142.483 73.49ZM148.063 70.7L148.296 72.6863L148.321 72.6834L148.346 72.6799L148.063 70.7ZM153.553 71.33L152.715 73.1459L152.728 73.1519L152.741 73.1576L153.553 71.33ZM157.063 74.84L155.235 75.6523L155.254 75.6938L155.274 75.7344L157.063 74.84ZM156.793 80.24L158.447 81.3646L158.535 81.2342L158.602 81.0916L156.793 80.24ZM148.603 100.49L146.681 99.9363L145.227 104.983L149.669 102.182L148.603 100.49ZM162.463 84.92L164.223 85.8691L164.227 85.8625L164.23 85.8558L162.463 84.92ZM165.973 78.71L167.688 79.739L167.713 79.6973L167.736 79.6544L165.973 78.71ZM167.323 76.19L165.627 75.13L165.591 75.1867L165.56 75.2456L167.323 76.19ZM170.023 71.87L171.719 72.93L171.853 72.7145L171.93 72.4723L170.023 71.87ZM171.913 69.71L172.545 71.6074L172.601 71.5888L172.656 71.567L171.913 69.71ZM178.033 69.26L177.922 71.2569L177.977 71.26H178.033V69.26ZM181.003 68.36L182.112 70.0241L181.003 68.36ZM184.153 67.73L183.856 69.7079L183.909 69.7159L183.963 69.721L184.153 67.73ZM187.483 68.9L186.35 70.5481L186.373 70.5639L186.396 70.5791L187.483 68.9ZM189.733 71.33L187.944 72.2244L187.978 72.2931L188.018 72.359L189.733 71.33ZM189.913 74.03L188.1 73.1842V73.1842L189.913 74.03ZM179.563 104.18L181.474 104.771L181.477 104.761L181.48 104.751L179.563 104.18ZM176.683 112.46L178.24 113.716L178.425 113.485L178.536 113.211L176.683 112.46ZM171.013 116.24L171.569 118.161L171.013 116.24ZM164.533 116.78L164.824 114.801L164.799 114.798L164.773 114.795L164.533 116.78ZM159.763 114.71L161.14 113.26L161.121 113.241L161.101 113.223L159.763 114.71ZM158.953 110.57L160.814 111.301L163.627 104.142L157.683 109.025L158.953 110.57ZM153.733 114.35L154.803 116.04L153.733 114.35ZM147.163 116.6L146.886 114.619L146.88 114.62L147.163 116.6ZM139.873 116.24L140.37 114.303L140.346 114.297L140.323 114.291L139.873 116.24ZM133.843 113L132.429 114.414L132.441 114.427L132.455 114.44L133.843 113ZM131.233 106.52L129.234 106.596L129.235 106.609L131.233 106.52ZM143.871 74.9297C145.281 73.5699 146.749 72.8684 148.296 72.6863L147.829 68.7137C145.297 69.0116 143.044 70.1701 141.095 72.0503L143.871 74.9297ZM148.346 72.6799C150.154 72.4216 151.579 72.6217 152.715 73.1459L154.391 69.5141C152.407 68.5983 150.172 68.3784 147.78 68.7201L148.346 72.6799ZM152.741 73.1576C153.908 73.6765 154.716 74.4847 155.235 75.6523L158.89 74.0277C157.969 71.9553 156.438 70.4235 154.365 69.5024L152.741 73.1576ZM155.274 75.7344C155.703 76.5929 155.765 77.7265 154.983 79.3884L158.602 81.0916C159.74 78.6735 159.982 76.2071 158.852 73.9456L155.274 75.7344ZM155.139 79.1154C152.998 82.2639 151.299 85.6632 150.042 89.308L153.824 90.612C154.967 87.2968 156.508 84.2161 158.447 81.3646L155.139 79.1154ZM150.042 89.308C148.831 92.8205 147.711 96.3633 146.681 99.9363L150.525 101.044C151.535 97.5367 152.635 94.0595 153.824 90.612L150.042 89.308ZM149.669 102.182C155.534 98.4845 160.373 93.0114 164.223 85.8691L160.702 83.9709C157.113 90.6286 152.711 95.5355 147.536 98.7981L149.669 102.182ZM164.23 85.8558C165.293 83.8492 166.445 81.8102 167.688 79.739L164.258 77.681C162.981 79.8098 161.793 81.9109 160.695 83.9842L164.23 85.8558ZM167.736 79.6544L169.086 77.1344L165.56 75.2456L164.21 77.7656L167.736 79.6544ZM169.019 77.25L171.719 72.93L168.327 70.81L165.627 75.13L169.019 77.25ZM171.93 72.4723C172.153 71.7663 172.41 71.6525 172.545 71.6074L171.28 67.8126C169.616 68.3675 168.613 69.6937 168.116 71.2677L171.93 72.4723ZM172.656 71.567C173.307 71.3063 174.014 71.17 174.793 71.17V67.17C173.532 67.17 172.318 67.3937 171.17 67.853L172.656 71.567ZM174.793 71.17C175.836 71.17 176.879 71.199 177.922 71.2569L178.144 67.2631C177.027 67.201 175.91 67.17 174.793 67.17V71.17ZM178.033 71.26C179.508 71.26 180.884 70.8428 182.112 70.0241L179.893 66.6959C179.321 67.0772 178.717 67.26 178.033 67.26V71.26ZM182.112 70.0241C182.548 69.7339 183.083 69.5919 183.856 69.7079L184.45 65.7521C182.823 65.5081 181.258 65.7861 179.893 66.6959L182.112 70.0241ZM183.963 69.721C184.915 69.8116 185.694 70.0971 186.35 70.5481L188.616 67.2519C187.352 66.3829 185.911 65.8884 184.342 65.739L183.963 69.721ZM186.396 70.5791C187.157 71.0711 187.644 71.6245 187.944 72.2244L191.522 70.4356C190.862 69.1155 189.849 68.0488 188.569 67.2209L186.396 70.5791ZM188.018 72.359C188.239 72.7276 188.221 72.9261 188.1 73.1842L191.725 74.8758C192.445 73.3339 192.307 71.7324 191.448 70.301L188.018 72.359ZM188.1 73.1842C185.51 78.7344 182.024 88.9163 177.646 103.609L181.48 104.751C185.862 90.0437 189.275 80.1256 191.725 74.8758L188.1 73.1842ZM177.652 103.589C176.642 106.856 175.701 109.559 174.829 111.709L178.536 113.211C179.465 110.921 180.443 108.104 181.474 104.771L177.652 103.589ZM175.126 111.204C173.882 112.748 172.34 113.774 170.457 114.319L171.569 118.161C174.246 117.386 176.484 115.892 178.24 113.716L175.126 111.204ZM170.457 114.319C168.41 114.911 166.541 115.054 164.824 114.801L164.242 118.759C166.605 119.106 169.055 118.889 171.569 118.161L170.457 114.319ZM164.773 114.795C163.13 114.595 161.969 114.047 161.14 113.26L158.385 116.16C159.957 117.653 161.975 118.485 164.292 118.765L164.773 114.795ZM161.101 113.223C160.773 112.929 160.663 112.684 160.623 112.481C160.579 112.257 160.585 111.886 160.814 111.301L157.091 109.839C156.661 110.934 156.471 112.093 156.698 113.249C156.928 114.426 157.552 115.411 158.425 116.197L161.101 113.223ZM157.683 109.025C156.065 110.354 154.392 111.565 152.663 112.66L154.803 116.04C156.674 114.855 158.48 113.547 160.222 112.115L157.683 109.025ZM152.663 112.66C151.151 113.618 149.246 114.29 146.886 114.619L147.439 118.581C150.24 118.19 152.715 117.362 154.803 116.04L152.663 112.66ZM146.88 114.62C144.606 114.945 142.441 114.834 140.37 114.303L139.376 118.177C141.984 118.846 144.68 118.975 147.446 118.58L146.88 114.62ZM140.323 114.291C138.325 113.83 136.642 112.921 135.231 111.56L132.455 114.44C134.403 116.319 136.741 117.57 139.423 118.189L140.323 114.291ZM135.257 111.586C134.052 110.381 133.333 108.727 133.231 106.431L129.235 106.609C129.373 109.713 130.393 112.379 132.429 114.414L135.257 111.586ZM133.231 106.444C132.893 97.5324 136.42 86.9283 144.177 74.5522L140.788 72.4278C132.825 85.1317 128.853 96.5476 129.234 106.596L133.231 106.444ZM198.953 113.27L200.307 114.742L200.953 114.148V113.27H198.953ZM196.703 115.34L197.85 116.978L197.959 116.902L198.057 116.812L196.703 115.34ZM193.193 116.87L192.881 114.894L189.001 115.507L191.779 118.284L193.193 116.87ZM193.283 116.96L194.532 118.522L196.277 117.126L194.697 115.546L193.283 116.96ZM192.833 117.32L193.001 119.313L193.607 119.262L194.082 118.882L192.833 117.32ZM183.383 114.53L181.894 115.866L181.902 115.875L181.91 115.883L183.383 114.53ZM182.033 105.35L183.939 105.955L183.979 105.829L184.002 105.698L182.033 105.35ZM193.103 63.77L194.978 64.4655L194.98 64.4608L193.103 63.77ZM202.283 46.4L200.897 44.9583L200.883 44.9719L200.869 44.9858L202.283 46.4ZM206.603 45.05L205.775 46.8707L207.961 47.8642L208.543 45.5351L206.603 45.05ZM208.493 41.72L209.803 43.2314L209.831 43.2072L209.858 43.1821L208.493 41.72ZM211.463 40.28L211.684 42.2678L211.738 42.2617L211.792 42.2528L211.463 40.28ZM214.613 40.82L213.677 42.5876L213.719 42.6096L213.761 42.6296L214.613 40.82ZM216.953 43.52L215.102 44.2773L215.116 44.3127L215.132 44.3476L216.953 43.52ZM217.673 47.39L215.682 47.2004L215.678 47.2452L215.675 47.2901L217.673 47.39ZM216.863 50.99L215.006 50.2472L214.996 50.2728L214.986 50.2986L216.863 50.99ZM215.243 54.41L213.512 53.4079L213.492 53.4428L213.473 53.4785L215.243 54.41ZM213.533 57.83L211.725 56.9738L211.705 57.0177L211.686 57.0625L213.533 57.83ZM205.343 78.35L203.464 77.6645L201.371 83.4018L206.452 80.0141L205.343 78.35ZM206.153 77.81L205.043 76.1459L206.153 77.81ZM218.843 74.3L219.024 72.3082L219 72.306L218.976 72.3044L218.843 74.3ZM224.153 75.92L223.153 77.6524L223.192 77.6748L223.232 77.6955L224.153 75.92ZM227.663 79.79L225.815 80.5547L225.826 80.5816L225.838 80.6081L227.663 79.79ZM228.563 86.54L226.567 86.4098L226.566 86.4305L226.565 86.4512L228.563 86.54ZM227.033 95L228.942 95.5966L228.945 95.5854L227.033 95ZM223.343 103.46L221.602 102.476L221.594 102.49L221.586 102.505L223.343 103.46ZM218.303 110.66L216.825 109.312L216.823 109.315L218.303 110.66ZM206.153 115.88L206.714 113.96L206.299 113.839L205.87 113.9L206.153 115.88ZM200.303 113.54L198.986 115.045L199.014 115.07L199.043 115.094L200.303 113.54ZM198.953 112.55L199.945 110.814L196.953 109.104V112.55H198.953ZM201.383 106.79H199.383V112.08L202.883 108.113L201.383 106.79ZM205.973 101.03L204.401 99.7929L204.393 99.8033L204.385 99.8138L205.973 101.03ZM210.383 94.46L208.581 93.5924L208.574 93.6071L208.567 93.6219L210.383 94.46ZM209.843 89.96L208.275 91.2014L208.288 91.2177L208.301 91.2338L209.843 89.96ZM205.523 93.2L203.722 92.3297L203.719 92.3358L205.523 93.2ZM197.599 111.798L195.349 113.868L198.057 116.812L200.307 114.742L197.599 111.798ZM195.556 113.702C194.54 114.413 193.651 114.773 192.881 114.894L193.505 118.846C195.015 118.607 196.466 117.947 197.85 116.978L195.556 113.702ZM191.779 118.284L191.869 118.374L194.697 115.546L194.607 115.456L191.779 118.284ZM192.034 115.398L191.584 115.758L194.082 118.882L194.532 118.522L192.034 115.398ZM192.664 115.327C188.749 115.658 186.322 114.772 184.856 113.177L181.91 115.883C184.524 118.728 188.396 119.702 193.001 119.313L192.664 115.327ZM184.871 113.194C183.372 111.524 182.889 109.264 183.939 105.955L180.127 104.745C178.777 108.996 179.194 112.856 181.894 115.866L184.871 113.194ZM184.002 105.698C186.624 90.8634 190.284 77.1209 194.978 64.4655L191.228 63.0745C186.442 75.9791 182.722 89.9566 180.063 105.002L184.002 105.698ZM194.98 64.4608C198.153 55.8406 201.092 50.4198 203.697 47.8142L200.869 44.9858C197.594 48.2602 194.413 54.4194 191.226 63.0792L194.98 64.4608ZM203.669 47.8417C204.978 46.5835 205.553 46.7696 205.775 46.8707L207.431 43.2293C205.013 42.1304 202.708 43.2165 200.897 44.9583L203.669 47.8417ZM208.543 45.5351C208.828 44.3948 209.282 43.6823 209.803 43.2314L207.183 40.2086C205.903 41.3177 205.098 42.8252 204.663 44.5649L208.543 45.5351ZM209.858 43.1821C210.487 42.595 211.088 42.334 211.684 42.2678L211.242 38.2922C209.678 38.466 208.299 39.165 207.128 40.2579L209.858 43.1821ZM211.792 42.2528C212.415 42.149 213.022 42.2409 213.677 42.5876L215.549 39.0524C214.163 38.3191 212.671 38.051 211.134 38.3072L211.792 42.2528ZM213.761 42.6296C214.217 42.8441 214.699 43.2932 215.102 44.2773L218.804 42.7627C218.127 41.1068 217.049 39.7559 215.464 39.0104L213.761 42.6296ZM215.132 44.3476C215.609 45.3963 215.764 46.3366 215.682 47.2004L219.664 47.5796C219.822 45.9234 219.497 44.2837 218.774 42.6924L215.132 44.3476ZM215.675 47.2901C215.627 48.2534 215.41 49.2367 215.006 50.2472L218.72 51.7328C219.276 50.3433 219.599 48.9266 219.67 47.4899L215.675 47.2901ZM214.986 50.2986C214.609 51.3225 214.119 52.3589 213.512 53.4079L216.974 55.4121C217.686 54.1811 218.277 52.9375 218.74 51.6814L214.986 50.2986ZM213.473 53.4785C212.86 54.6428 212.278 55.8079 211.725 56.9738L215.34 58.6862C215.868 57.5721 216.426 56.4572 217.013 55.3415L213.473 53.4785ZM211.686 57.0625C207.844 66.3067 205.1 73.1807 203.464 77.6645L207.222 79.0355C208.826 74.6393 211.542 67.8333 215.38 58.5975L211.686 57.0625ZM206.452 80.0141L207.262 79.4741L205.043 76.1459L204.233 76.6859L206.452 80.0141ZM207.262 79.4741C210.878 77.0639 214.675 76.0265 218.71 76.2956L218.976 72.3044C214.011 71.9734 209.348 73.2761 205.043 76.1459L207.262 79.4741ZM218.662 76.2918C220.384 76.4483 221.869 76.9115 223.153 77.6524L225.152 74.1876C223.317 73.1285 221.262 72.5117 219.024 72.3082L218.662 76.2918ZM223.232 77.6955C224.419 78.311 225.269 79.2353 225.815 80.5547L229.511 79.0253C228.617 76.8647 227.126 75.209 225.074 74.1445L223.232 77.6955ZM225.838 80.6081C226.438 81.9469 226.735 83.8387 226.567 86.4098L230.559 86.6702C230.751 83.7213 230.448 81.1131 229.488 78.9719L225.838 80.6081ZM226.565 86.4512C226.453 88.9615 225.978 91.6141 225.12 94.4146L228.945 95.5854C229.888 92.5059 230.432 89.5185 230.561 86.6288L226.565 86.4512ZM225.124 94.4035C224.268 97.1421 223.096 99.8326 221.602 102.476L225.084 104.444C226.71 101.567 227.998 98.6179 228.942 95.5965L225.124 94.4035ZM221.586 102.505C220.152 105.142 218.563 107.407 216.825 109.312L219.781 112.008C221.763 109.833 223.534 107.298 225.1 104.415L221.586 102.505ZM216.823 109.315C212.831 113.706 209.526 114.782 206.714 113.96L205.592 117.8C210.58 119.258 215.375 116.854 219.783 112.005L216.823 109.315ZM205.87 113.9C205.019 114.022 203.632 113.664 201.562 111.986L199.043 115.094C201.414 117.016 203.927 118.218 206.436 117.86L205.87 113.9ZM201.62 112.035C201.069 111.553 200.511 111.137 199.945 110.814L197.961 114.286C198.235 114.443 198.576 114.687 198.986 115.045L201.62 112.035ZM196.953 112.55V113.27H200.953V112.55H196.953ZM202.883 108.113C203.834 107.035 205.403 105.063 207.561 102.246L204.385 99.8138C202.223 102.637 200.731 104.505 199.883 105.467L202.883 108.113ZM207.544 102.267C209.78 99.4271 211.375 97.0835 212.199 95.2981L208.567 93.6219C207.951 94.9565 206.606 96.9929 204.401 99.7929L207.544 102.267ZM212.185 95.3276C212.708 94.2402 212.962 93.0772 212.819 91.8817C212.675 90.6856 212.153 89.6163 211.385 88.6862L208.301 91.2338C208.673 91.6837 208.811 92.0544 208.847 92.3583C208.884 92.6628 208.837 93.0598 208.581 93.5924L212.185 95.3276ZM211.411 88.7186C210.938 88.1214 210.217 87.5125 209.208 87.3717C208.189 87.2295 207.326 87.6264 206.708 88.09C205.569 88.9443 204.601 90.5117 203.722 92.3297L207.324 94.0703C207.732 93.2255 208.101 92.5752 208.426 92.0965C208.762 91.6021 208.996 91.3741 209.108 91.29C209.21 91.2136 209.029 91.3855 208.655 91.3333C208.291 91.2825 208.178 91.0786 208.275 91.2014L211.411 88.7186ZM203.719 92.3358C200.929 98.1591 199.383 103.025 199.383 106.79H203.383C203.383 103.955 204.597 99.7609 207.327 94.0642L203.719 92.3358ZM229.128 85.46L227.128 85.4112L227.128 85.4356V85.46H229.128ZM228.587 79.43L230.519 78.91L228.587 79.43ZM228.587 75.56L226.76 74.7477L226.749 74.773L226.738 74.7985L228.587 75.56ZM230.747 73.31L229.986 71.4606L229.966 71.4689L229.946 71.4777L230.747 73.31ZM234.257 72.95L233.987 74.9317L234.036 74.9383L234.084 74.9425L234.257 72.95ZM238.307 74.12L237.413 75.9089L237.447 75.926L237.482 75.9419L238.307 74.12ZM244.967 80.24L246.918 79.7968L246.868 79.5796L246.772 79.3785L244.967 80.24ZM244.607 85.19L242.678 84.6638L242.672 84.6843L242.667 84.7049L244.607 85.19ZM242.897 91.22L244.8 91.8356L244.803 91.8277L244.805 91.8196L242.897 91.22ZM241.007 97.25L242.916 97.8465L242.919 97.8383L242.922 97.83L241.007 97.25ZM240.287 102.11L238.296 102.291L238.588 105.504L241.336 103.813L240.287 102.11ZM244.337 97.79L242.641 96.73L242.629 96.7493L242.618 96.7689L244.337 97.79ZM247.577 91.67L245.76 90.835L245.755 90.8463L245.75 90.8577L247.577 91.67ZM250.367 85.1L248.521 84.3308L248.512 84.3528L248.503 84.3751L250.367 85.1ZM252.887 79.97L251.223 78.8606L251.205 78.8886L251.187 78.9173L252.887 79.97ZM254.867 77L256.532 78.1094L256.552 78.0792L256.571 78.0482L254.867 77ZM256.307 74.93L257.869 76.1794L257.883 76.1623L257.896 76.1449L256.307 74.93ZM259.367 71.96L260.58 73.5509L260.614 73.5244L260.648 73.4964L259.367 71.96ZM262.607 72.14L262.153 74.0877L262.19 74.0963L262.227 74.1036L262.607 72.14ZM266.658 72.95L266.238 74.9056L266.315 74.9221L266.393 74.9325L266.658 72.95ZM268.458 72.77L267.295 71.1425L267.251 71.1742L267.208 71.2083L268.458 72.77ZM269.717 71.87L268.823 70.0811L268.683 70.1513L268.555 70.2425L269.717 71.87ZM275.658 71.96L276.451 70.1243L276.422 70.1115L276.392 70.0997L275.658 71.96ZM279.167 76.37L280.582 77.7842L281.218 77.1476L281.164 76.249L279.167 76.37ZM279.077 76.73H277.077V78.1715L278.445 78.6274L279.077 76.73ZM279.348 76.82L280.649 78.3385L283.331 76.0397L279.98 74.9226L279.348 76.82ZM278.717 77.36L277.416 75.8415L277.133 76.0839L276.957 76.4118L278.717 77.36ZM277.727 78.98L276.166 77.7306L276.146 77.755L276.128 77.78L277.727 78.98ZM276.467 80.15L275.201 78.6021L275.096 78.6878L275.004 78.7868L276.467 80.15ZM262.428 104.54L264.252 105.359L264.255 105.352L262.428 104.54ZM258.827 112.46L257.012 111.622L256.276 113.217L257.762 114.152L258.827 112.46ZM262.518 116.42L260.742 117.341L262.518 116.42ZM262.518 121.73L263.762 123.295L264.151 122.986L264.35 122.532L262.518 121.73ZM254.147 132.89L252.177 132.55L252.171 132.582L252.167 132.615L254.147 132.89ZM252.977 137.48L251.213 136.539L251.188 136.586L251.165 136.634L252.977 137.48ZM250.908 140.09L252.098 141.697L252.163 141.649L252.225 141.595L250.908 140.09ZM239.477 138.29L238.063 139.704L238.132 139.773L238.208 139.835L239.477 138.29ZM239.027 126.59L240.741 127.622L240.753 127.602L240.764 127.582L239.027 126.59ZM241.098 122.63L242.902 123.493L242.907 123.482L241.098 122.63ZM245.688 113.54L247.46 114.466L250.664 108.333L244.682 111.811L245.688 113.54ZM231.467 113.36L230.253 114.949L230.274 114.965L230.297 114.981L231.467 113.36ZM228.227 97.43L226.239 97.2139L228.227 97.43ZM231.127 85.5088C231.189 82.946 231.007 80.7253 230.519 78.91L226.656 79.9499C227.008 81.2547 227.186 83.0539 227.128 85.4112L231.127 85.5088ZM230.519 78.91C230.162 77.5849 230.246 76.7846 230.437 76.3215L226.738 74.7985C226.089 76.3754 226.173 78.1551 226.656 79.9499L230.519 78.91ZM230.415 76.3723C230.72 75.6856 231.106 75.3363 231.549 75.1423L229.946 71.4777C228.469 72.1237 227.415 73.2743 226.76 74.7477L230.415 76.3723ZM231.509 75.1594C232.141 74.8991 232.944 74.7894 233.987 74.9317L234.528 70.9683C232.931 70.7506 231.394 70.8809 229.986 71.4606L231.509 75.1594ZM234.084 74.9425C235.197 75.0392 236.304 75.3541 237.413 75.9089L239.202 72.3311C237.671 71.5659 236.078 71.1007 234.431 70.9575L234.084 74.9425ZM237.482 75.9419C240.32 77.2267 242.143 78.966 243.163 81.1015L246.772 79.3785C245.272 76.234 242.655 73.8933 239.133 72.2981L237.482 75.9419ZM243.017 80.6832C243.217 81.5601 243.172 82.8507 242.678 84.6638L246.537 85.7162C247.123 83.5693 247.318 81.5599 246.918 79.7968L243.017 80.6832ZM242.667 84.7049C242.198 86.5824 241.639 88.5541 240.99 90.6203L244.805 91.8196C245.476 89.6859 246.057 87.6376 246.548 85.6751L242.667 84.7049ZM240.995 90.6044C240.331 92.6558 239.697 94.6777 239.093 96.67L242.922 97.83C243.518 95.8623 244.144 93.8642 244.8 91.8356L240.995 90.6044ZM239.099 96.6535C238.457 98.7075 238.143 100.609 238.296 102.291L242.279 101.929C242.192 100.971 242.358 99.6325 242.916 97.8465L239.099 96.6535ZM241.336 103.813C243.226 102.65 244.788 100.949 246.057 98.8111L242.618 96.7689C241.607 98.4708 240.469 99.6497 239.239 100.407L241.336 103.813ZM246.033 98.85C247.285 96.8472 248.409 94.7241 249.405 92.4823L245.75 90.8577C244.826 92.9359 243.79 94.8928 242.641 96.73L246.033 98.85ZM249.395 92.505C250.431 90.2507 251.376 88.024 252.232 85.8249L248.503 84.3751C247.679 86.496 246.764 88.6493 245.76 90.835L249.395 92.505ZM252.214 85.8692C253.093 83.7582 253.886 82.156 254.588 81.0227L251.187 78.9173C250.329 80.304 249.442 82.1218 248.521 84.3308L252.214 85.8692ZM254.552 81.0794C255.392 79.8194 256.052 78.8294 256.532 78.1094L253.203 75.8906C252.723 76.6106 252.063 77.6006 251.223 78.8606L254.552 81.0794ZM256.571 78.0482C257.016 77.3253 257.449 76.7045 257.869 76.1794L254.746 73.6806C254.206 74.3555 253.679 75.1147 253.164 75.9518L256.571 78.0482ZM257.896 76.1449C258.546 75.2949 259.43 74.427 260.58 73.5509L258.155 70.3691C256.785 71.413 255.629 72.5251 254.719 73.7151L257.896 76.1449ZM260.648 73.4964C260.493 73.6257 260.35 73.694 260.261 73.7284C260.173 73.7628 260.114 73.7732 260.101 73.7753C260.085 73.7781 260.15 73.7666 260.337 73.7769C260.708 73.7976 261.299 73.8883 262.153 74.0877L263.062 70.1923C262.116 69.9716 261.267 69.8224 260.558 69.7831C260.205 69.7634 259.82 69.7669 259.444 69.8297C259.092 69.8884 258.562 70.0282 258.087 70.4236L260.648 73.4964ZM262.227 74.1036C264.086 74.4633 265.419 74.7301 266.238 74.9056L267.077 70.9944C266.216 70.8099 264.849 70.5367 262.988 70.1764L262.227 74.1036ZM266.393 74.9325C266.928 75.0037 267.471 75.0361 267.982 74.9851C268.465 74.9368 269.129 74.7939 269.707 74.3317L267.208 71.2083C267.355 71.0908 267.483 71.0391 267.544 71.0189C267.604 70.9989 267.624 71.0009 267.583 71.0049C267.545 71.0087 267.472 71.0125 267.356 71.0078C267.242 71.0033 267.098 70.991 266.922 70.9675L266.393 74.9325ZM269.62 74.3975L270.88 73.4975L268.555 70.2425L267.295 71.1425L269.62 74.3975ZM270.612 73.6589C271.64 73.1448 273.001 73.0615 274.923 73.8203L276.392 70.0997C273.754 69.0585 271.155 68.9152 268.823 70.0811L270.612 73.6589ZM274.864 73.7957C276.574 74.5355 277.108 75.4436 277.171 76.491L281.164 76.249C280.987 73.3364 279.181 71.3045 276.451 70.1243L274.864 73.7957ZM277.753 74.9558C277.376 75.3335 277.225 75.7594 277.16 76.0199C277.092 76.2925 277.077 76.5435 277.077 76.73H281.077C281.077 76.7365 281.078 76.8375 281.04 76.9901C281.005 77.1306 280.899 77.4665 280.582 77.7842L277.753 74.9558ZM278.445 78.6274L278.715 78.7174L279.98 74.9226L279.71 74.8326L278.445 78.6274ZM278.046 75.3015L277.416 75.8415L280.019 78.8785L280.649 78.3385L278.046 75.3015ZM276.957 76.4118C276.539 77.1866 276.282 77.5848 276.166 77.7306L279.289 80.2294C279.653 79.7752 280.056 79.0934 280.478 78.3082L276.957 76.4118ZM276.128 77.78C276.147 77.7538 276.103 77.814 275.917 77.9869C275.748 78.1434 275.513 78.3471 275.201 78.6021L277.734 81.6979C278.369 81.1783 278.98 80.6439 279.327 80.18L276.128 77.78ZM275.004 78.7868C270.68 83.4286 265.89 91.8258 260.6 103.728L264.255 105.352C269.525 93.4942 274.095 85.6314 277.931 81.5132L275.004 78.7868ZM260.603 103.721C259.285 106.656 258.088 109.29 257.012 111.622L260.643 113.298C261.727 110.95 262.93 108.304 264.252 105.359L260.603 103.721ZM257.762 114.152C259.096 114.993 260.074 116.052 260.742 117.341L264.293 115.499C263.281 113.548 261.799 111.967 259.893 110.768L257.762 114.152ZM260.742 117.341C261.261 118.341 261.324 119.469 260.685 120.928L264.35 122.532C265.391 120.151 265.454 117.739 264.293 115.499L260.742 117.341ZM261.273 120.165C256.185 124.21 252.905 128.325 252.177 132.55L256.118 133.23C256.59 130.495 258.89 127.17 263.762 123.295L261.273 120.165ZM252.167 132.615C251.871 134.746 251.515 135.972 251.213 136.539L254.742 138.421C255.4 137.188 255.824 135.354 256.128 133.165L252.167 132.615ZM251.165 136.634C250.891 137.222 250.398 137.878 249.59 138.585L252.225 141.595C253.337 140.622 254.224 139.538 254.79 138.326L251.165 136.634ZM249.717 138.483C248.506 139.38 247.28 139.677 245.931 139.464C244.506 139.24 242.783 138.418 240.747 136.745L238.208 139.835C240.552 141.762 242.924 143.04 245.309 143.416C247.77 143.803 250.069 143.2 252.098 141.697L249.717 138.483ZM240.892 136.876C239.638 135.622 239.077 134.328 239.024 132.948C238.968 131.515 239.454 129.757 240.741 127.622L237.314 125.558C235.781 128.103 234.932 130.635 235.026 133.102C235.123 135.622 236.197 137.838 238.063 139.704L240.892 136.876ZM240.764 127.582C241.509 126.278 242.222 124.914 242.902 123.493L239.293 121.767C238.653 123.106 237.986 124.382 237.291 125.598L240.764 127.582ZM242.907 123.482C243.849 121.481 245.363 118.481 247.46 114.466L243.915 112.614C241.812 116.639 240.266 119.699 239.288 121.778L242.907 123.482ZM244.682 111.811C242.335 113.176 240.214 113.77 238.288 113.745C236.38 113.721 234.508 113.089 232.638 111.739L230.297 114.981C232.747 116.751 235.405 117.709 238.237 117.745C241.051 117.78 243.88 116.904 246.693 115.269L244.682 111.811ZM232.682 111.771C231.667 110.995 230.805 109.596 230.322 107.224C229.839 104.849 229.777 101.679 230.216 97.6461L226.239 97.2139C225.778 101.461 225.806 105.086 226.403 108.021C227 110.959 228.208 113.385 230.253 114.949L232.682 111.771ZM230.216 97.6461C230.816 92.1206 231.128 88.0373 231.128 85.46H227.128C227.128 87.8027 226.839 91.6994 226.239 97.2139L230.216 97.6461Z" fill="black" mask="url(#path-1-outside-1_347_7024)"/>
</svg>
