<svg width="400" height="400" viewBox="0 0 400 400" fill="none" xmlns="http://www.w3.org/2000/svg">
<path d="M0 0H288.784H294.707H400V287.765V290.373V400H0V263.033V262.753V0ZM288.784 0C284.996 0.84293 280.531 0.629559 276.635 0.848504L251.2 2.31707C243.248 2.80941 235.299 3.34868 227.353 3.93488C223.271 4.25121 219.058 4.93523 214.974 4.89992C213.702 5.59891 212.692 7.02754 211.772 8.13078C206.818 14.1731 201.915 20.2559 197.061 26.3792L173.117 55.6953L153.831 78.9492C152.635 80.3898 147.724 85.8133 147.166 87.107C147.136 87.2098 147.107 87.3129 147.075 87.4152C146.893 87.998 145.673 89.4672 145.908 89.968C146.23 90.6559 148.491 92.5906 149.168 93.2715C156.536 93.416 163.86 93.9004 171.221 94.182C175.052 94.3285 178.934 94.4992 182.765 94.5437C184.182 94.5605 185.649 94.4008 187.043 94.4379C187.997 94.4633 188.968 94.9012 189.947 94.9754C193.532 95.2473 200.7 95.3434 204.189 94.4414C205.552 94.0894 207.108 92.6523 208.379 91.9605C208.52 91.8836 208.655 91.7953 208.791 91.7094L208.78 92.0656C210.021 91.8289 213.238 88.3883 214.197 87.3801L214.118 86.882C214.764 87.5168 214.336 88.1043 214.762 88.727C216.105 88.5262 217.505 87.7926 218.844 87.832C221.346 87.9062 222.582 89.5141 225.384 88.6988C223.424 91.8473 221.107 94.8383 218.948 97.8555C214.894 103.533 210.809 109.189 206.695 114.823L175.726 157.621C169.884 165.637 163.765 173.446 158.16 181.634C163.272 184.996 168.319 188.453 173.302 192.004C176.554 194.305 179.803 196.812 183.222 198.848C186.345 200.964 189.893 202.979 192.516 205.704C190.297 208.742 186.302 213.379 184.704 216.481C181.561 220.481 178.83 224.738 175.823 228.835C172.604 233.221 169.116 237.453 166.099 241.981L186 240.293C189.22 240.019 193.028 239.322 196.229 239.606C197.525 241.002 212.903 251.097 214.661 251.616C216.509 253.593 222.161 256.954 224.61 258.614C234.343 265.207 244.123 271.814 254.073 278.073C256.81 279.795 261.18 281.847 263.486 283.767L263.679 283.935C265.289 284.645 266.895 285.965 268.37 286.942C271.806 289.217 275.232 291.523 278.709 293.738L313.386 315.923L326.39 324.3C328.852 325.896 331.275 327.645 333.832 329.079C337.662 332.206 342.413 334.968 346.553 337.726L346.439 325.23C346.426 322.754 346.318 320.221 346.521 317.755C346.728 314.934 346.488 312.063 346.68 309.225C351.801 309.114 358.586 309.25 363.539 308.088C366.771 307.329 372.778 303.572 376.053 301.906C383.462 298.099 390.947 294.447 398.508 290.952C399.004 290.816 399.52 290.562 400 290.373V287.765V0H294.707H288.784ZM0 0V262.753C1.99295 260.893 3.71995 258.686 5.49121 256.613C8.65171 252.939 11.7604 249.221 14.8173 245.461L35.3798 220.784L114.354 126.385C121.616 117.764 128.832 109.105 136.003 100.409C139.675 95.9902 143.231 91.2867 147.166 87.107C147.724 85.8133 152.635 80.3898 153.831 78.9492L173.117 55.6953L197.061 26.3792C201.915 20.2559 206.818 14.1731 211.772 8.13078C212.692 7.02754 213.702 5.59891 214.974 4.89992C219.058 4.93523 223.271 4.25121 227.353 3.93488C235.299 3.34868 243.248 2.80941 251.2 2.31707L276.635 0.848504C280.531 0.629559 284.996 0.84293 288.784 0H0ZM0 263.033V400H400V290.373C399.52 290.562 399.004 290.816 398.508 290.952C390.947 294.447 383.462 298.099 376.053 301.906C372.778 303.572 366.771 307.329 363.539 308.088C358.586 309.25 351.801 309.114 346.68 309.225C346.488 312.063 346.728 314.934 346.521 317.755C346.953 324.146 346.665 330.736 346.675 337.148L346.707 367.348C346.705 373.429 346.597 379.526 346.759 385.605C346.797 386.266 346.916 386.507 346.522 387.057C345.992 387.332 345.518 387.483 344.927 387.579C343.586 387.798 342.173 387.691 340.819 387.846L316.106 390.68L251.076 397.621C247.053 398.047 243.052 398.637 239.036 399.117C235.504 397.609 232.111 395.781 228.655 394.105C221.08 390.464 213.538 386.757 206.027 382.986C202.55 381.254 199.053 379.564 195.535 377.917C192.996 376.717 190.353 375.601 187.957 374.131C187.881 356.124 188.288 338.128 189.18 320.143C186.096 320.025 182.899 320.477 179.823 320.739L163.859 322.12C144.34 323.835 124.831 325.66 105.332 327.596C99.9587 328.126 94.5815 328.61 89.2 329.047C86.9742 329.242 84.3445 329.746 82.1316 329.588C81.3434 329.532 80.3906 329.03 79.6562 328.73C79.6574 328.225 79.8527 327.627 79.8098 327.151C79.75 326.491 79.0672 325.337 78.8012 324.649C78.082 322.79 77.466 320.886 76.691 319.049C74.7918 314.546 72.6336 310.137 70.6641 305.662C68.3984 300.515 66.3188 295.254 63.9086 290.176C63.1117 288.497 60.45 284.587 60.1406 283.301C58.1215 282.361 55.6895 281.794 53.5621 281.095L39.9969 276.566L15.0021 268.033C11.3665 266.774 7.7702 265.395 4.11172 264.206C2.84738 263.795 1.49312 263.245 0.160361 263.208L0 263.033Z" fill="#644A49"/>
<path d="M263.679 283.935C265.289 284.645 266.895 285.965 268.37 286.942C271.806 289.217 275.232 291.523 278.709 293.738L313.386 315.923L326.39 324.3C328.852 325.896 331.275 327.645 333.832 329.079C337.662 332.206 342.413 334.968 346.553 337.726L346.439 325.23C346.426 322.754 346.318 320.221 346.521 317.755C346.953 324.146 346.665 330.736 346.675 337.148L346.707 367.348C346.705 373.429 346.597 379.526 346.759 385.605L346.655 385.968C346.213 385.894 346.004 385.459 345.745 385.104C342.481 380.651 339.49 376.33 335.786 372.196C314.321 374.939 292.759 377.085 271.271 379.689L256.362 381.491C254.842 381.671 252.78 381.602 251.342 382.027C250.958 382.141 250.586 382.516 250.288 382.772L250.1 382.936L249.975 382.894C250.012 382.75 250.046 382.605 250.084 382.461C251.076 378.756 250.573 371.314 250.564 367.138C250.543 357.304 250.242 347.441 250.798 337.614L251.047 337.676L251.11 333.925C251.266 334.225 251.442 334.482 251.644 334.754L252.022 334.759C252.261 334.473 252.483 334.239 252.605 333.881C252.736 333.496 252.849 333.1 252.976 332.712C253.824 332.404 254.543 332.021 255.31 331.548C256.01 331.585 256.706 331.488 257.408 331.529C259.437 331.649 261.28 332.433 263.155 333.144C263.214 333.903 263.035 334.926 263.353 335.621C263.395 335.714 263.445 335.803 263.491 335.894C264.084 333.195 263.703 323.197 263.713 319.805C263.748 307.882 264.148 295.843 263.679 283.935Z" fill="#A96E5C"/>
<path d="M255.31 331.548C256.01 331.585 256.706 331.488 257.408 331.529C259.437 331.649 261.28 332.433 263.155 333.144C263.214 333.903 263.035 334.926 263.353 335.621C263.395 335.714 263.445 335.803 263.491 335.894C263.529 336.227 263.498 336.471 263.433 336.792C262.992 338.982 263.002 341.552 263 343.793C263 345.323 263.701 355.195 263.366 355.783C262.371 354.141 262.516 352.522 261.873 350.823C261.48 349.784 260.322 349.14 260.013 348.085C259.581 346.611 260.182 344.99 259.556 343.532C259.195 342.689 258.432 342.226 257.913 341.498C257.424 340.814 256.995 340.071 256.552 339.356C255.581 339.264 254.777 340.079 254.078 340.657C253.35 341.26 252.615 342.051 251.707 342.345C251.413 342.243 251.333 342.296 251.198 341.977C250.72 340.858 251.065 338.92 251.047 337.676L251.11 333.925C251.266 334.225 251.442 334.482 251.644 334.754L252.022 334.759C252.261 334.473 252.483 334.239 252.605 333.881C252.736 333.496 252.849 333.1 252.976 332.712C253.824 332.404 254.543 332.021 255.31 331.548Z" fill="#B87A63"/>
<path d="M214.118 86.882C214.764 87.5168 214.336 88.1043 214.762 88.727C216.105 88.5262 217.505 87.7926 218.844 87.832C221.346 87.9062 222.582 89.5141 225.384 88.6988C223.424 91.8473 221.107 94.8383 218.948 97.8555C214.894 103.533 210.809 109.189 206.695 114.823L175.726 157.621C169.884 165.637 163.765 173.446 158.16 181.634L112.784 243.822C107.053 251.65 101.554 259.697 95.6937 267.423C99.0371 277.12 102.434 286.748 105.446 296.557C114.842 294.995 125.207 294.747 134.74 294.064L240.354 285.855C245.654 285.457 250.951 285.015 256.245 284.531C258.629 284.306 261.104 283.815 263.486 283.767L263.679 283.935C264.148 295.843 263.748 307.882 263.713 319.805C263.703 323.197 264.084 333.195 263.491 335.894C263.445 335.803 263.395 335.714 263.353 335.621C263.035 334.926 263.214 333.903 263.155 333.144C261.28 332.433 259.437 331.649 257.408 331.529C256.706 331.488 256.01 331.585 255.31 331.548C254.543 332.021 253.824 332.404 252.976 332.712C252.849 333.1 252.736 333.496 252.605 333.881C252.483 334.239 252.261 334.473 252.022 334.759L251.644 334.754C251.442 334.482 251.266 334.225 251.11 333.925L251.047 337.676L250.798 337.614C250.547 332.963 250.62 328.298 250.618 323.638C250.649 315.616 250.632 307.593 250.567 299.57C244.397 299.757 238.213 300.678 232.061 301.205L193.13 304.474C179.105 305.641 165.037 306.54 151.024 307.804C140.411 308.762 129.812 310.085 119.21 311.182C109.961 312.139 100.627 312.871 91.4164 314.121C88.8371 307.065 85.7301 300.184 82.7606 293.284C79.2923 285.158 75.7784 277.051 72.2188 268.964L72.2676 268.667C73.6965 267.233 75.2023 265.548 76.3398 263.876C77.5578 262.086 78.9992 260.436 80.2883 258.693C85.2172 252.028 90.3508 245.522 95.2817 238.859C98.8688 234.576 101.992 229.738 105.366 225.27L128.97 194.144C145.669 172.181 163.042 150.707 179.949 128.901L198.284 105.254C201.703 100.852 205.016 96.1734 208.78 92.0656C210.021 91.8289 213.238 88.3883 214.197 87.3801L214.118 86.882Z" fill="url(#paint0_linear_281_28119)"/>
<path d="M158.16 181.634C163.272 184.996 168.319 188.453 173.302 192.004C176.554 194.305 179.803 196.812 183.222 198.848C186.345 200.964 189.893 202.979 192.516 205.704C190.297 208.742 186.302 213.379 184.704 216.481C181.561 220.481 178.83 224.738 175.823 228.835C172.604 233.221 169.116 237.453 166.099 241.981L186 240.293C189.22 240.019 193.028 239.322 196.229 239.606C197.525 241.002 212.903 251.097 214.661 251.616C216.509 253.593 222.161 256.954 224.61 258.614C234.343 265.207 244.123 271.814 254.073 278.073C256.81 279.795 261.18 281.847 263.486 283.767C261.104 283.815 258.629 284.306 256.245 284.531C250.951 285.015 245.654 285.457 240.354 285.855L134.74 294.064C125.207 294.747 114.842 294.995 105.446 296.557C102.434 286.748 99.0371 277.12 95.6937 267.423C101.554 259.697 107.053 251.65 112.784 243.822L158.16 181.634Z" fill="#A96E5C"/>
<path d="M0 262.753C1.99295 260.893 3.71995 258.686 5.49121 256.613C8.65171 252.939 11.7604 249.221 14.8173 245.461L35.3798 220.784L114.354 126.385C121.616 117.764 128.832 109.105 136.003 100.409C139.675 95.9902 143.231 91.2867 147.166 87.107C147.136 87.2098 147.107 87.3129 147.075 87.4152C146.893 87.998 145.673 89.4672 145.908 89.968C146.23 90.6559 148.491 92.5906 149.168 93.2715C156.536 93.416 163.86 93.9004 171.221 94.182C175.052 94.3285 178.934 94.4992 182.765 94.5437C184.182 94.5605 185.649 94.4008 187.043 94.4379C187.997 94.4633 188.968 94.9012 189.947 94.9754C193.532 95.2473 200.7 95.3434 204.189 94.4414C205.552 94.0894 207.108 92.6523 208.379 91.9605C208.52 91.8836 208.655 91.7953 208.791 91.7094L208.78 92.0656C205.016 96.1734 201.703 100.852 198.284 105.254L179.949 128.901C163.042 150.707 145.669 172.181 128.97 194.144L105.366 225.27C101.992 229.738 98.8688 234.576 95.2817 238.859C90.3508 245.522 85.2172 252.028 80.2883 258.693C78.9992 260.436 77.5578 262.086 76.3398 263.876C75.2023 265.548 73.6965 267.233 72.2676 268.667L72.2188 268.964C69.1047 271.839 67.0152 275.79 64.1371 278.353C62.8551 279.968 61.5859 281.846 60.1406 283.301C58.1215 282.361 55.6895 281.794 53.5621 281.095L39.9969 276.566L15.0021 268.033C11.3665 266.774 7.7702 265.395 4.11172 264.206C2.84738 263.795 1.49312 263.245 0.160361 263.208L0 263.033V262.753Z" fill="url(#paint1_linear_281_28119)"/>
<path d="M64.1371 278.353C64.2988 277.65 64.6062 277.174 65.018 276.596C71.2828 267.803 78.3566 259.553 85.0445 251.083C86.7695 248.898 93.3285 240.055 94.9277 238.85L94.9484 239.13L95.1605 238.81L95.2817 238.859C90.3508 245.522 85.2172 252.028 80.2883 258.693C78.9992 260.436 77.5578 262.086 76.3398 263.876C75.2023 265.548 73.6965 267.233 72.2676 268.667L72.2188 268.964C69.1047 271.839 67.0152 275.79 64.1371 278.353Z" fill="#A96E5C"/>
<path d="M29.0155 305.52C29.875 305.75 29.73 306.334 30.493 306.62C31.3495 306.941 32.2904 307.012 33.143 307.361C37.37 309.091 40.8414 312.257 44.8277 314.369C46.4984 315.254 48.4742 315.516 50.0832 316.511C50.7316 316.911 51.4672 317.484 51.866 318.148C51.9262 318.248 51.9668 318.358 52.0172 318.462C51.943 318.443 51.8684 318.426 51.7945 318.405C48.3301 317.441 35.4656 313.249 33.2263 311.504C31.5686 310.211 30.044 307.369 29.0155 305.52Z" fill="#B87A63"/>
<path d="M0.160361 263.208C1.49312 263.245 2.84738 263.795 4.11172 264.206C7.7702 265.395 11.3665 266.774 15.0021 268.033L39.9969 276.566L53.5621 281.095C55.6895 281.794 58.1215 282.361 60.1406 283.301C60.45 284.587 63.1117 288.497 63.9086 290.176C66.3188 295.254 68.3984 300.515 70.6641 305.662C72.6336 310.137 74.7918 314.546 76.691 319.049C77.466 320.886 78.082 322.79 78.8012 324.649C79.0672 325.337 79.75 326.491 79.8098 327.151C79.8527 327.627 79.6574 328.225 79.6562 328.73C70.6652 324.814 61.0856 322.181 52.0172 318.462C51.9668 318.358 51.9262 318.248 51.866 318.148C51.4672 317.484 50.7316 316.911 50.0832 316.511C48.4742 315.516 46.4984 315.254 44.8277 314.369C40.8414 312.257 37.37 309.091 33.143 307.361C32.2904 307.012 31.3495 306.941 30.493 306.62C29.73 306.334 29.875 305.75 29.0155 305.52C28.1185 304.496 27.3698 303.161 26.5941 302.032L21.6593 294.864C14.4081 284.378 7.51258 273.616 0.160361 263.208Z" fill="url(#paint2_linear_281_28119)"/>
<path d="M288.784 0H294.707H400V287.765V290.373C399.52 290.562 399.004 290.816 398.508 290.952C390.947 294.447 383.462 298.099 376.053 301.906C372.778 303.572 366.771 307.329 363.539 308.088C358.586 309.25 351.801 309.114 346.68 309.225C346.488 312.063 346.728 314.934 346.521 317.755C346.318 320.221 346.426 322.754 346.439 325.23L346.553 337.726C342.413 334.968 337.662 332.206 333.832 329.079C331.275 327.645 328.852 325.896 326.39 324.3L313.386 315.923L278.709 293.738C275.232 291.523 271.806 289.217 268.37 286.942C266.895 285.965 265.289 284.645 263.679 283.935L263.486 283.767C261.18 281.847 256.81 279.795 254.073 278.073C244.123 271.814 234.343 265.207 224.61 258.614C222.161 256.954 216.509 253.593 214.661 251.616C212.903 251.097 197.525 241.002 196.229 239.606C193.028 239.322 189.22 240.019 186 240.293L166.099 241.981C169.116 237.453 172.604 233.221 175.823 228.835C178.83 224.738 181.561 220.481 184.704 216.481C186.302 213.379 190.297 208.742 192.516 205.704C189.893 202.979 186.345 200.964 183.222 198.848C179.803 196.812 176.554 194.305 173.302 192.004C168.319 188.453 163.272 184.996 158.16 181.634C163.765 173.446 169.884 165.637 175.726 157.621L206.695 114.823C210.809 109.189 214.894 103.533 218.948 97.8555C221.107 94.8383 223.424 91.8473 225.384 88.6988C222.582 89.5141 221.346 87.9062 218.844 87.832C217.505 87.7926 216.105 88.5262 214.762 88.727C214.336 88.1043 214.764 87.5168 214.118 86.882L214.197 87.3801C213.238 88.3883 210.021 91.8289 208.78 92.0656L208.791 91.7094C208.655 91.7953 208.52 91.8836 208.379 91.9605C207.108 92.6523 205.552 94.0894 204.189 94.4414C200.7 95.3434 193.532 95.2473 189.947 94.9754C188.968 94.9012 187.997 94.4633 187.043 94.4379C185.649 94.4008 184.182 94.5605 182.765 94.5437C178.934 94.4992 175.052 94.3285 171.221 94.182C163.86 93.9004 156.536 93.416 149.168 93.2715C148.491 92.5906 146.23 90.6559 145.908 89.968C145.673 89.4672 146.893 87.998 147.075 87.4152C147.107 87.3129 147.136 87.2098 147.166 87.107C147.724 85.8133 152.635 80.3898 153.831 78.9492L173.117 55.6953L197.061 26.3792C201.915 20.2559 206.818 14.1731 211.772 8.13078C212.692 7.02754 213.702 5.59891 214.974 4.89992C219.058 4.93523 223.271 4.25121 227.353 3.93488C235.299 3.34868 243.248 2.80941 251.2 2.31707L276.635 0.848504C280.531 0.629559 284.996 0.84293 288.784 0ZM294.707 0C297.83 2.24824 307.871 4.60535 312.035 5.97394L339.366 15.1236C339.803 15.3748 340.248 15.5039 340.403 16.0316C340.907 17.7456 340.82 25.4599 340.888 27.7714C341.148 36.6472 341.735 45.6367 341.58 54.5109L343.888 191.657C343.966 196.486 343.67 201.456 344.216 206.257C350.177 208.677 356.056 211.318 361.967 213.858C371.044 217.709 380.093 221.628 389.112 225.613C389.602 226.017 389.704 226.477 389.837 227.072C390.836 231.528 391.191 236.21 391.941 240.724C393.798 251.322 395.572 261.934 397.262 272.56C397.969 276.916 398.676 283.783 400 287.765V0H294.707ZM253.101 121.631C249.991 126.468 246.518 131.124 243.238 135.85C234.711 148.122 226.05 160.298 217.256 172.379C212.3 179.256 207.282 186.087 202.2 192.872C200.743 194.796 198.902 197.724 197.382 199.396C195.605 201.376 194.05 203.532 192.516 205.704C190.297 208.742 186.302 213.379 184.704 216.481C181.561 220.481 178.83 224.738 175.823 228.835C172.604 233.221 169.116 237.453 166.099 241.981L186 240.293C189.22 240.019 193.028 239.322 196.229 239.606C201.538 239.016 206.879 238.79 212.205 238.423L236 236.69C240.858 236.345 245.793 236.2 250.617 235.538C250.983 211.703 251.481 187.871 252.11 164.041C252.484 149.928 253.224 135.744 253.101 121.631Z" fill="#B87A63"/>
<path d="M288.784 0H294.707C297.83 2.24824 307.871 4.60535 312.035 5.97394L339.366 15.1236C339.803 15.3748 340.248 15.5039 340.403 16.0316C340.907 17.7456 340.82 25.4599 340.888 27.7714C341.148 36.6472 341.735 45.6367 341.58 54.5109C340.678 52.5195 341.205 49.1859 341.113 46.9813C341.035 45.0922 340.832 43.1832 340.302 41.3637C338.898 40.3836 337.188 39.6559 335.605 39.0074C334.094 39.7652 332.791 40.5738 331.55 41.732L331.03 43.8348C330.491 40.6074 330.836 36.8732 330.856 33.6017C313.369 35.7685 295.707 36.9524 278.16 38.5895C271.838 39.1793 265.406 39.577 259.122 40.4684C251.06 52.5256 242.784 64.434 234.293 76.1934C231.564 79.9254 229.096 83.9906 226.12 87.5195L225.384 88.6988C222.582 89.5141 221.346 87.9062 218.844 87.832C217.505 87.7926 216.105 88.5262 214.762 88.727C214.336 88.1043 214.764 87.5168 214.118 86.882L214.197 87.3801C213.238 88.3883 210.021 91.8289 208.78 92.0656L208.791 91.7094C210.714 89.8578 211.767 87.0453 213.876 85.3191C216.676 81.5754 219.69 78.0434 222.537 74.3449L246.936 42.9691C249.912 39.207 252.866 35.4279 255.798 31.6318C258.3 28.3401 260.65 24.969 263.471 21.9337C260.323 21.7507 253.128 18.7602 249.835 17.5721L230.888 10.7394C227.924 9.67104 224.953 8.62605 221.973 7.60441C219.656 6.80605 217.12 6.09262 214.974 4.89992C219.058 4.93523 223.271 4.25121 227.353 3.93488C235.299 3.34868 243.248 2.80941 251.2 2.31707L276.635 0.848504C280.531 0.629559 284.996 0.84293 288.784 0Z" fill="#F3A07A"/>
<path d="M215.022 85.407C215.481 85.2141 215.915 85.0527 216.396 84.9215C219.524 84.0668 225.877 76.3293 227.727 73.6121C229.009 71.7273 229.874 69.5043 231.335 67.7492C232.524 66.3211 234.245 65.4551 235.585 64.1859C237.315 62.548 238.935 60.5184 240.412 58.6492C241.062 57.8266 241.695 56.802 242.445 56.0828C242.787 55.7535 242.936 55.7344 243.386 55.657C243.536 56.9445 242.353 57.8551 241.691 58.8566C240.279 60.9902 240.771 63.8266 239.107 66.0285C236.827 69.0437 234.385 70.8609 233.272 74.6414C233.134 75.1098 232.861 76.7504 232.474 76.9C230.858 77.5269 228.546 79.968 227.836 81.5336C227.612 82.0277 227.708 83.0117 227.707 83.5582C226.804 84.9672 226.156 85.7965 226.12 87.5195L225.384 88.6988C222.582 89.5141 221.346 87.9062 218.844 87.832C217.505 87.7926 216.105 88.5262 214.762 88.727C214.336 88.1043 214.764 87.5168 214.118 86.882C214.096 86.7562 214.058 86.6324 214.054 86.5051C214.038 85.9711 214.649 85.6945 215.022 85.407Z" fill="#F9CAA5"/>
<path d="M288.784 0H294.707C297.83 2.24824 307.871 4.60535 312.035 5.97394L339.366 15.1236C338.415 15.7069 337.37 15.7948 336.285 15.9309C329.159 16.8252 321.898 17.0486 314.734 17.6076C301.053 18.6545 287.379 19.7963 273.713 21.033C270.748 21.2961 266.228 21.3893 263.471 21.9337C260.323 21.7507 253.128 18.7602 249.835 17.5721L230.888 10.7394C227.924 9.67104 224.953 8.62605 221.973 7.60441C219.656 6.80605 217.12 6.09262 214.974 4.89992C219.058 4.93523 223.271 4.25121 227.353 3.93488C235.299 3.34868 243.248 2.80941 251.2 2.31707L276.635 0.848504C280.531 0.629559 284.996 0.84293 288.784 0Z" fill="url(#paint3_linear_281_28119)"/>
<path d="M268.325 82.6449C268.394 87.3672 268.058 92.1062 267.876 96.8254C267.612 103.797 267.387 110.77 267.204 117.744L264.662 203.855L264.053 227.719C263.861 234.29 263.559 240.83 263.66 247.409C256.538 247.854 249.424 248.415 242.32 249.091C236.051 249.785 229.773 250.383 223.485 250.887C220.559 251.139 217.591 251.521 214.661 251.616C212.903 251.097 197.525 241.002 196.229 239.606C201.538 239.016 206.879 238.79 212.205 238.423L236 236.69C240.858 236.345 245.793 236.2 250.617 235.538C250.983 211.703 251.481 187.871 252.11 164.041C252.484 149.928 253.224 135.744 253.101 121.631C249.991 126.468 246.518 131.124 243.238 135.85C234.711 148.122 226.05 160.298 217.256 172.379C212.3 179.256 207.282 186.087 202.2 192.872C200.743 194.796 198.902 197.724 197.382 199.396C195.605 201.376 194.05 203.532 192.516 205.704C189.893 202.979 186.345 200.964 183.222 198.848C188.006 191.693 193.589 185.139 198.675 178.2L231.489 133.11L255.638 100.151C259.84 94.3617 263.743 88.1266 268.325 82.6449Z" fill="url(#paint4_linear_281_28119)"/>
<path d="M253.101 121.631C253.224 135.744 252.484 149.928 252.11 164.041C251.481 187.871 250.983 211.703 250.617 235.538C245.793 236.2 240.858 236.345 236 236.69L212.205 238.423C206.879 238.79 201.538 239.016 196.229 239.606C193.028 239.322 189.22 240.019 186 240.293L166.099 241.981C169.116 237.453 172.604 233.221 175.823 228.835C178.83 224.738 181.561 220.481 184.704 216.481C186.302 213.379 190.297 208.742 192.516 205.704C194.05 203.532 195.605 201.376 197.382 199.396C198.902 197.724 200.743 194.796 202.2 192.872C207.282 186.087 212.3 179.256 217.256 172.379C226.05 160.298 234.711 148.122 243.238 135.85C246.518 131.124 249.991 126.468 253.101 121.631ZM197.382 199.396C195.605 201.376 194.05 203.532 192.516 205.704C190.297 208.742 186.302 213.379 184.704 216.481C188.972 215.868 193.225 215.16 197.462 214.358C197.494 209.474 197.902 204.241 197.382 199.396Z" fill="#644A49"/>
<path d="M147.166 87.107C147.724 85.8133 152.635 80.3898 153.831 78.9492L173.117 55.6953L197.061 26.3792C201.915 20.2559 206.818 14.1731 211.772 8.13078C212.692 7.02754 213.702 5.59891 214.974 4.89992C217.12 6.09262 219.656 6.80605 221.973 7.60441C224.953 8.62605 227.924 9.67104 230.888 10.7394L249.835 17.5721C253.128 18.7602 260.323 21.7507 263.471 21.9337C260.65 24.969 258.3 28.3401 255.798 31.6318C252.866 35.4279 249.912 39.207 246.936 42.9691L222.537 74.3449C219.69 78.0434 216.676 81.5754 213.876 85.3191C211.767 87.0453 210.714 89.8578 208.791 91.7094C208.655 91.7953 208.52 91.8836 208.379 91.9605C207.108 92.6523 205.552 94.0894 204.189 94.4414C200.7 95.3434 193.532 95.2473 189.947 94.9754C188.968 94.9012 187.997 94.4633 187.043 94.4379C185.649 94.4008 184.182 94.5605 182.765 94.5437C178.934 94.4992 175.052 94.3285 171.221 94.182C163.86 93.9004 156.536 93.416 149.168 93.2715C148.491 92.5906 146.23 90.6559 145.908 89.968C145.673 89.4672 146.893 87.998 147.075 87.4152C147.107 87.3129 147.136 87.2098 147.166 87.107Z" fill="#644A49"/>
<path d="M335.605 39.0074C337.188 39.6559 338.898 40.3836 340.302 41.3637C340.832 43.1832 341.035 45.0922 341.113 46.9813C341.205 49.1859 340.678 52.5195 341.58 54.5109L343.888 191.657C343.966 196.486 343.67 201.456 344.216 206.257C350.177 208.677 356.056 211.318 361.967 213.858C371.044 217.709 380.093 221.628 389.112 225.613C389.602 226.017 389.704 226.477 389.837 227.072C390.836 231.528 391.191 236.21 391.941 240.724C393.798 251.322 395.572 261.934 397.262 272.56C397.969 276.916 398.676 283.783 400 287.765V290.373C399.52 290.562 399.004 290.816 398.508 290.952C390.947 294.447 383.462 298.099 376.053 301.906C372.778 303.572 366.771 307.329 363.539 308.088C358.586 309.25 351.801 309.114 346.68 309.225C346.488 312.063 346.728 314.934 346.521 317.755C346.318 320.221 346.426 322.754 346.439 325.23L346.553 337.726C342.413 334.968 337.662 332.206 333.832 329.079C334.252 326.93 334.07 324.455 334.081 322.258C334.099 317.454 334.082 312.649 334.029 307.845C334.012 299.349 334.482 290.76 334.053 282.279C340.119 282.173 346.27 281.102 352.325 280.61C363.449 279.708 374.877 279.272 385.894 277.484C384.729 272.83 384.075 268.037 383.239 263.314C381.837 255.621 380.496 247.917 379.214 240.202C372.535 241.179 365.516 241.2 358.772 241.645C350.514 242.19 342.282 243.073 334.01 243.415L330.915 88.0859C330.754 73.3293 331.108 58.5895 331.03 43.8348L331.55 41.732C332.791 40.5738 334.094 39.7652 335.605 39.0074Z" fill="url(#paint5_linear_281_28119)"/>
<path d="M346.679 294.946C353.47 294.673 360.273 293.818 367.043 293.218C373.689 292.628 380.351 292.27 387.002 291.757C390.252 291.507 395.508 290.457 398.508 290.952C390.947 294.447 383.462 298.099 376.053 301.906C372.778 303.572 366.771 307.329 363.539 308.088C358.586 309.25 351.801 309.114 346.68 309.225C346.468 304.449 346.572 299.723 346.679 294.946Z" fill="#644A49"/>
<path d="M344.216 206.257C350.177 208.677 356.056 211.318 361.967 213.858C371.044 217.709 380.093 221.628 389.112 225.613C383.765 226.625 378.072 226.611 372.649 227.052L344.141 229.545L344.122 215.75C344.105 212.575 343.991 209.428 344.216 206.257Z" fill="#A96E5C"/>
<defs>
<linearGradient id="paint0_linear_281_28119" x1="205.044" y1="401.08" x2="192.7" y2="4.82646" gradientUnits="userSpaceOnUse">
<stop stop-color="#B16142"/>
<stop offset="1" stop-color="#F6C6A1"/>
</linearGradient>
<linearGradient id="paint1_linear_281_28119" x1="207.667" y1="0.919021" x2="187.738" y2="402.262" gradientUnits="userSpaceOnUse">
<stop stop-color="#6E504A"/>
<stop offset="1" stop-color="#D28F6C"/>
</linearGradient>
<linearGradient id="paint2_linear_281_28119" x1="256.462" y1="92.5514" x2="135.836" y2="247.186" gradientUnits="userSpaceOnUse">
<stop stop-color="#594541"/>
<stop offset="1" stop-color="#B98467"/>
</linearGradient>
<linearGradient id="paint3_linear_281_28119" x1="186.513" y1="450.619" x2="431.375" y2="310.855" gradientUnits="userSpaceOnUse">
<stop stop-color="#A46040"/>
<stop offset="1" stop-color="#E0895F"/>
</linearGradient>
<linearGradient id="paint4_linear_281_28119" x1="-11.7876" y1="221.508" x2="425.524" y2="109.966" gradientUnits="userSpaceOnUse">
<stop stop-color="#C37750"/>
<stop offset="1" stop-color="#C9937A"/>
</linearGradient>
<linearGradient id="paint5_linear_281_28119" x1="-261.804" y1="350.889" x2="-209.167" y2="-32.6738" gradientUnits="userSpaceOnUse">
<stop stop-color="#D07C58"/>
<stop offset="1" stop-color="#FFC79E"/>
</linearGradient>
</defs>
</svg>
