<svg width="400" height="400" viewBox="0 0 400 400" fill="none" xmlns="http://www.w3.org/2000/svg">
<path d="M197.725 0H206.813C209.899 0.682391 213.447 0.500062 216.603 0.727281C221.272 1.10254 225.923 1.63496 230.556 2.32453C249.181 5.05863 267.533 9.28574 285.811 13.7407C293.943 15.7228 303.853 17.7933 311.576 20.7511C307.669 20.6392 303.713 19.2094 299.895 18.3935C294.837 17.3361 289.753 16.4274 284.643 15.6675C281.002 15.148 277.35 14.7273 273.687 14.4055C270.024 14.0838 266.354 13.8614 262.679 13.7383C259.003 13.6152 255.327 13.5917 251.65 13.6677C247.974 13.7437 244.302 13.9191 240.634 14.194C235.312 14.5859 230.049 15.3366 224.744 15.8722L224.568 15.6359C224.265 15.7159 223.993 15.7857 223.679 15.8012C222.813 15.8441 221.949 16.0762 221.083 15.9609L220.826 15.4069C215.874 14.4706 212.08 13.089 207.351 11.7761C206.788 11.6197 206.181 11.6233 205.631 11.4509L191.975 7.31684C189.842 6.68316 185.844 5.0566 183.924 4.78359C182.198 4.53812 180.491 2.69923 179.179 2.62034C179.09 2.61496 179 2.61603 178.91 2.61387L178.837 2.33445C180.31 0.281018 185.151 2.16101 186.938 0.976656C187.029 0.91568 187.115 0.845574 187.204 0.780031C190.626 0.132941 194.267 0.601805 197.725 0Z" fill="#664B4B"/>
<path d="M51.9325 305.422C56.0485 307.453 60.0165 309.871 64.0107 312.135L84.6376 323.916L108.142 337.449C110.723 338.923 113.418 340.209 115.964 341.737C114.55 345.226 114.482 350.456 113.848 354.254C112.1 364.722 110.341 375.164 108.374 385.594C107.923 387.984 107.771 391.75 106.778 393.883C100.258 389.695 93.5829 385.732 87.0153 381.616L45.3224 355.487C45.8857 349.175 47.0462 342.896 47.8997 336.616C49.2997 326.225 50.644 315.827 51.9325 305.422Z" fill="url(#paint0_linear_323_7006)"/>
<path d="M46.6982 53.2477C50.6669 49.5598 54.6118 45.7621 58.8048 42.3312C87.6997 18.6902 117.356 8.51336 153.974 3.69642C164.365 2.32961 176.772 0.922074 187.204 0.780031C187.115 0.845574 187.029 0.91568 186.938 0.976656C185.151 2.16101 180.31 0.281018 178.837 2.33445L178.91 2.61387C179 2.61603 179.09 2.61496 179.179 2.62034C180.491 2.69923 182.198 4.53812 183.924 4.78359C185.844 5.0566 189.842 6.68316 191.975 7.31684L205.631 11.4509C206.181 11.6233 206.788 11.6197 207.351 11.7761C212.08 13.089 215.874 14.4706 220.826 15.4069L221.083 15.9609C221.949 16.0762 222.813 15.8441 223.679 15.8012C223.993 15.7857 224.265 15.7159 224.568 15.6359L224.744 15.8722C224.668 15.8965 224.592 15.9237 224.515 15.9452C221.742 16.7194 218.557 16.9337 215.692 17.4788C209.816 18.5905 203.998 19.9531 198.239 21.5668C195.377 22.3926 192.534 23.2784 189.709 24.2243C186.885 25.1701 184.082 26.1752 181.3 27.2395C178.518 28.3038 175.759 29.4264 173.025 30.6072C170.29 31.7881 167.582 33.0261 164.899 34.3214C162.217 35.6166 159.563 36.9679 156.938 38.3753C154.313 39.7827 151.718 41.2448 149.155 42.7617C146.592 44.2789 144.061 45.8493 141.564 47.473C139.067 49.097 136.605 50.7729 134.179 52.5008C131.403 54.457 128.495 56.3508 125.847 58.4746C124.19 59.8043 122.647 61.3469 121.074 62.7801C117.231 66.2805 113.486 69.857 109.686 73.3984C102.454 70.7773 94.9087 68.7918 87.5079 66.6937L69.2997 61.3727C65.1562 60.1872 61.0304 58.9434 56.9224 57.641C54.0091 56.7297 50.8759 55.8559 48.1048 54.5664C47.5489 54.3078 47.0927 54.05 46.8001 53.4855C46.7607 53.409 46.7321 53.327 46.6982 53.2477Z" fill="url(#paint1_linear_323_7006)"/>
<path d="M118.325 243.062C118.431 243.725 118.213 244.457 117.836 245.015C117.493 245.521 116.982 245.885 116.499 246.248C117.636 247.609 118.782 249.189 120.218 250.239C121.467 251.15 122.962 251.71 124.272 252.535C130.553 256.491 167.876 280.24 171.304 280.748C171.536 280.782 171.759 280.753 171.992 280.758C172.143 280.761 172.295 280.782 172.446 280.795L172.774 280.822L172.986 281.169C172.772 281.598 172.529 281.843 172.193 282.177L172.204 282.414C167.791 286.207 163.07 290.008 159.157 294.31C160.821 297.732 161.259 300.887 161.8 304.618C162.764 303.66 164.401 301.632 165.774 301.575C161.322 305.741 156.776 309.788 152.475 314.117C147.859 318.81 143.425 323.67 139.174 328.696C134.922 333.723 130.864 338.901 127.001 344.232C123.379 343.594 119.501 342.74 115.964 341.737C113.418 340.209 110.723 338.923 108.142 337.449L84.6376 323.916L64.0107 312.135C60.0165 309.871 56.0485 307.453 51.9325 305.422C53.0501 303.8 54.4954 302.276 55.7833 300.782C60.1056 295.767 64.754 291.139 69.4482 286.48C81.2224 274.796 92.9864 263.905 105.742 253.29C109.875 249.851 113.911 246.13 118.325 243.062Z" fill="url(#paint2_linear_323_7006)"/>
<path d="M212.656 165.265C212.593 166.53 211.009 168.019 210.252 169.016C212.904 170.551 216.615 171.512 219.516 172.714C232.659 178.16 246.318 182.319 259.748 187.007C264.994 188.839 270.582 190.491 275.615 192.833C270.094 199.536 264.387 205.968 257.956 211.824C251.849 217.387 245.368 222.517 238.999 227.771C229.741 235.488 220.397 243.099 210.967 250.606C202.285 257.5 193.443 264.254 185.265 271.748C184.281 272.65 172.609 282.292 172.204 282.414L172.193 282.177C172.529 281.843 172.772 281.598 172.986 281.169L172.774 280.822L172.446 280.795C172.295 280.782 172.143 280.761 171.992 280.758C171.759 280.753 171.536 280.782 171.304 280.748C167.876 280.24 130.553 256.491 124.272 252.535C122.962 251.71 121.467 251.15 120.218 250.239C118.782 249.189 117.636 247.609 116.499 246.248C116.982 245.885 117.493 245.521 117.836 245.015C118.213 244.457 118.431 243.725 118.325 243.062C120.622 240.793 123.662 238.86 126.269 236.928C131.534 233.024 136.823 229.153 142.136 225.315C148.851 220.53 155.51 215.668 162.111 210.727C167.308 206.717 172.454 202.644 177.55 198.507C190.327 188.324 202.689 178.366 212.656 165.265Z" fill="url(#paint3_linear_323_7006)"/>
<path d="M224.744 15.8722C230.049 15.3366 235.312 14.5859 240.634 14.194C244.302 13.9191 247.974 13.7437 251.65 13.6677C255.327 13.5917 259.003 13.6152 262.679 13.7383C266.354 13.8614 270.024 14.0838 273.687 14.4055C277.35 14.7273 281.002 15.148 284.643 15.6675C289.753 16.4274 294.837 17.3361 299.895 18.3935C303.713 19.2094 307.669 20.6392 311.576 20.7511C316.338 21.8902 320.808 23.9134 325.365 25.6598C347.365 34.0909 365.769 45.2844 378.336 65.8172C382.3 72.2934 388.522 84.7387 388.882 92.2398C388.849 92.191 388.814 92.1426 388.781 92.093C387.304 89.8191 386.752 86.3059 385.788 83.7211C384.469 80.1844 382.702 76.7211 380.746 73.4937C365.18 47.8137 338.203 33.0218 309.621 26.4468C295.016 23.0872 280.391 21.8387 265.432 21.8536C227.134 21.8917 189.177 30.9066 156.498 51.3641C143.766 59.3348 130.991 69.3457 120.777 80.3937C118.691 82.6247 116.68 84.9213 114.743 87.2836C113.627 88.6621 110.156 93.6254 109.134 94.3973C105.126 100.146 101.194 105.953 97.9122 112.158C95.6724 116.49 93.3321 120.722 91.3165 125.17C84.6778 139.821 80.286 155.316 77.1189 171.051C76.0157 176.532 75.4985 182.12 74.4025 187.586C70.7177 186.423 67.0634 184.475 63.6915 182.602C59.1794 180.031 54.147 178.021 49.4759 175.724L18.9117 160.696C12.7578 157.707 6.55436 155.038 0.511719 151.799C1.60418 146.711 2.06083 141.02 3.12657 135.738C7.24889 115.309 13.6133 98.1988 24.4256 80.3875C30.353 70.2668 38.2723 61.341 46.6982 53.2477C46.7321 53.327 46.7607 53.409 46.8001 53.4855C47.0927 54.05 47.5489 54.3078 48.1048 54.5664C50.8759 55.8559 54.0091 56.7297 56.9224 57.641C61.0304 58.9434 65.1562 60.1872 69.2997 61.3727L87.5079 66.6937C94.9087 68.7918 102.454 70.7773 109.686 73.3984C113.486 69.857 117.231 66.2805 121.074 62.7801C122.647 61.3469 124.19 59.8043 125.847 58.4746C128.495 56.3508 131.403 54.457 134.179 52.5008C136.605 50.7729 139.067 49.097 141.564 47.473C144.061 45.8493 146.592 44.2789 149.155 42.7617C151.718 41.2448 154.313 39.7827 156.938 38.3753C159.563 36.9679 162.217 35.6166 164.899 34.3214C167.582 33.0261 170.29 31.7881 173.025 30.6072C175.759 29.4264 178.518 28.3038 181.3 27.2395C184.082 26.1752 186.885 25.1701 189.709 24.2243C192.534 23.2784 195.377 22.3926 198.239 21.5668C203.998 19.9531 209.816 18.5905 215.692 17.4788C218.557 16.9337 221.742 16.7194 224.515 15.9452C224.592 15.9237 224.668 15.8965 224.744 15.8722Z" fill="#E89674"/>
<path d="M97.9122 112.158C97.7591 109.735 97.2868 106.026 98.2314 103.816C100.219 99.1645 104.214 100.493 105.371 99.2437C106.556 97.9629 107.439 95.0551 109.134 94.3973C105.126 100.146 101.194 105.953 97.9122 112.158Z" fill="#F8CDAA"/>
<path d="M0.511719 151.799C1.60418 146.711 2.06083 141.02 3.12657 135.738C7.24889 115.309 13.6133 98.1988 24.4256 80.3875C27.8826 81.7133 31.433 82.7848 34.9078 84.0688C49.2519 89.4336 63.7 94.502 78.2521 99.2738C81.4267 100.297 84.3782 101.929 87.5739 102.852C85.4048 105.629 83.7755 109.186 82.136 112.317C80.4571 115.522 78.7282 118.795 77.27 122.105C71.2462 135.783 67.8099 150.956 65.786 165.727C65.2775 169.438 65.147 179.95 63.6915 182.602C59.1794 180.031 54.147 178.021 49.4759 175.724L18.9117 160.696C12.7578 157.707 6.55436 155.038 0.511719 151.799Z" fill="url(#paint4_linear_323_7006)"/>
<path d="M109.134 94.3973C110.156 93.6254 113.627 88.6621 114.743 87.2836C116.68 84.9213 118.691 82.6247 120.777 80.3937C130.991 69.3457 143.766 59.3348 156.498 51.3641C189.177 30.9066 227.134 21.8917 265.432 21.8536C280.391 21.8387 295.016 23.0872 309.621 26.4468C338.203 33.0218 365.18 47.8137 380.746 73.4937C382.702 76.7211 384.469 80.1844 385.788 83.7211C386.752 86.3059 387.304 89.8191 388.781 92.093C388.814 92.1426 388.849 92.191 388.882 92.2398C389.531 95.6164 390.315 99.016 390.756 102.425C390.855 103.206 390.947 103.987 391.033 104.77C391.117 105.552 391.193 106.335 391.264 107.12C391.334 107.904 391.395 108.688 391.447 109.473C391.502 110.259 391.549 111.044 391.588 111.83C391.624 112.616 391.654 113.403 391.678 114.189C391.701 114.976 391.717 115.763 391.725 116.55C391.732 117.337 391.732 118.124 391.725 118.911C391.717 119.698 391.701 120.485 391.678 121.272C391.654 122.059 391.623 122.845 391.584 123.631C391.545 124.417 391.498 125.203 391.443 125.988C391.389 126.773 391.326 127.558 391.256 128.342C391.186 129.126 391.109 129.909 391.025 130.691C390.94 131.474 390.847 132.255 390.748 133.036C390.646 133.816 390.537 134.596 390.422 135.375C390.306 136.153 390.182 136.93 390.051 137.706C389.92 138.482 389.782 139.257 389.635 140.03C389.489 140.804 389.335 141.576 389.173 142.346C389.012 143.116 388.843 143.885 388.666 144.652C388.49 145.419 388.306 146.184 388.114 146.947C387.922 147.711 387.723 148.472 387.517 149.232C387.31 149.991 387.096 150.749 386.875 151.504C386.653 152.259 386.424 153.012 386.188 153.763C385.952 154.514 385.708 155.262 385.457 156.008C385.206 156.754 384.948 157.497 384.682 158.238C384.417 158.979 384.144 159.717 383.864 160.453C383.584 161.188 383.297 161.921 383.002 162.651C382.707 163.381 382.406 164.108 382.097 164.832C381.788 165.556 381.473 166.277 381.15 166.995C380.827 167.712 380.497 168.427 380.16 169.138C379.823 169.849 379.479 170.557 379.128 171.262C378.777 171.966 378.419 172.667 378.055 173.364C377.69 174.062 377.319 174.756 376.94 175.446C374.552 179.837 371.767 184.067 368.965 188.202C359.725 201.844 349.024 212.705 336.922 223.745C334.88 225.607 332.964 227.678 330.873 229.47C349.389 237.678 368.113 245.488 386.536 253.89C388.856 254.87 398.432 258.562 399.611 259.824L399.529 260.429L387.484 307.028C385.316 315.413 383.543 324.039 380.916 332.285C372.68 334.773 364.167 336.67 355.824 338.784L183.247 382.76C160.749 388.427 138.055 393.359 115.702 399.582C112.852 397.484 109.745 395.805 106.778 393.883C107.771 391.75 107.923 387.984 108.374 385.594C110.341 375.164 112.1 364.722 113.848 354.254C114.482 350.456 114.55 345.226 115.964 341.737C119.501 342.74 123.379 343.594 127.001 344.232C130.864 338.901 134.922 333.723 139.174 328.696C143.425 323.67 147.859 318.81 152.475 314.117C156.776 309.788 161.322 305.741 165.774 301.575C164.401 301.632 162.764 303.66 161.8 304.618C161.259 300.887 160.821 297.732 159.157 294.31C163.07 290.008 167.791 286.207 172.204 282.414C172.609 282.292 184.281 272.65 185.265 271.748C193.443 264.254 202.285 257.5 210.967 250.606C220.397 243.099 229.741 235.488 238.999 227.771C245.368 222.517 251.849 217.387 257.956 211.824C264.387 205.968 270.094 199.536 275.615 192.833C270.582 190.491 264.994 188.839 259.748 187.007C246.318 182.319 232.659 178.16 219.516 172.714C216.615 171.512 212.904 170.551 210.252 169.016C211.009 168.019 212.593 166.53 212.656 165.265C215.264 161.103 217.816 156.848 219.827 152.359C225.505 139.689 229.275 122.091 226.077 108.381C224.78 102.819 222.209 98.1277 218.51 93.8144C214.383 95.4992 210.45 97.8855 206.743 100.35C194.584 108.435 184.508 118.962 178.806 132.557C173.973 144.081 171.4 156.338 169.873 168.7C169.764 169.582 169.623 171.54 168.66 171.878C168.523 171.927 168.268 171.97 168.118 171.998C164.317 172.518 160.548 173.319 156.771 173.994C151.136 174.992 145.493 175.945 139.843 176.855L74.4025 187.586C75.4985 182.12 76.0157 176.532 77.1189 171.051C80.286 155.316 84.6778 139.821 91.3165 125.17C93.3321 120.722 95.6724 116.49 97.9122 112.158C101.194 105.953 105.126 100.146 109.134 94.3973Z" fill="url(#paint5_linear_323_7006)"/>
<path d="M261.922 282.713C260.597 282.846 255.963 282.898 255 282.222C256.719 281.445 259.723 281.502 261.577 281.737C261.008 281.823 260.366 281.836 259.9 282.202C260.357 282.572 261.332 282.65 261.922 282.713Z" fill="#664B4B"/>
<path d="M304.591 135.182C306.236 132.412 308.058 128.508 308.64 125.365C309.103 122.869 308.386 119.647 309.651 117.353C310.874 121.089 311.17 125.053 311.365 128.959C312.196 145.6 308.116 162.195 300.595 177.003C298.898 180.416 297.041 183.74 295.025 186.975C293.008 190.21 290.842 193.34 288.525 196.367C286.522 198.981 284.236 201.413 282.041 203.866C279.348 206.877 276.689 209.943 273.801 212.77C268.613 217.85 262.922 222.53 257.319 227.142C250.617 232.739 243.804 238.198 236.881 243.52C222.919 254.414 208.815 265.179 195.098 276.381C188.681 281.621 182.245 286.97 176.044 292.462C174.125 294.161 167.461 300.648 165.774 301.575C164.401 301.632 162.764 303.66 161.8 304.618C161.259 300.887 160.821 297.732 159.157 294.31C163.07 290.008 167.791 286.207 172.204 282.414C172.609 282.292 184.281 272.65 185.265 271.748C193.443 264.254 202.285 257.5 210.967 250.606C220.397 243.099 229.741 235.488 238.999 227.771C245.368 222.517 251.849 217.387 257.956 211.824C264.387 205.968 270.094 199.536 275.615 192.833C280.243 188.727 288.834 171.354 291.259 164.955C292.045 162.899 292.79 160.829 293.496 158.744C293.862 157.652 294.17 156.064 294.733 155.086C294.979 154.657 295.367 154.423 295.769 154.158C297.213 152.797 297.914 150.777 299.074 149.179C301.177 144.6 302.951 139.946 304.591 135.182Z" fill="#E89674"/>
<path d="M295.769 154.158C297.213 152.797 297.914 150.777 299.074 149.179C298.537 152.154 296.904 156.722 295.064 159.104C295.361 158.12 296.163 157.113 296.11 156.089C295.788 155.871 295.702 155.853 295.333 155.799C295.173 155.312 295.711 154.729 295.769 154.158Z" fill="#A96F5D"/>
<path d="M156.05 158.949C157.073 154.854 157.367 150.605 158.472 146.486C162.781 130.417 171.701 115.22 183.204 103.242C183.745 102.676 184.293 102.116 184.847 101.563C185.402 101.01 185.963 100.464 186.531 99.9242C187.099 99.3849 187.673 98.8527 188.254 98.3277C188.835 97.8025 189.422 97.2845 190.016 96.7738C190.61 96.2632 191.21 95.7598 191.816 95.2637C192.422 94.7676 193.034 94.2792 193.652 93.7984C194.27 93.3174 194.894 92.844 195.524 92.3781C196.153 91.9125 196.789 91.4547 197.429 91.0047C198.071 90.5547 198.717 90.1126 199.368 89.6785C200.02 89.2444 200.677 88.8182 201.34 88.4C202.002 87.982 202.669 87.5723 203.342 87.1707C204.014 86.7689 204.691 86.3755 205.373 85.9906C206.055 85.6057 206.742 85.2292 207.433 84.8609C208.124 84.4927 208.82 84.1331 209.52 83.782C210.22 83.431 210.924 83.0885 211.633 82.7547C212.341 82.4211 213.054 82.0961 213.77 81.7797C214.486 81.4635 215.207 81.1561 215.931 80.8574C216.655 80.559 217.382 80.2694 218.113 79.9887C218.845 79.7079 219.579 79.4362 220.317 79.1734C221.055 78.9109 221.796 78.6574 222.54 78.4129C223.284 78.1684 224.03 77.9331 224.78 77.707C225.53 77.4807 226.282 77.2638 227.038 77.0563C227.793 76.8487 228.55 76.6504 229.31 76.4613C230.07 76.2723 230.832 76.0926 231.597 75.9223C232.361 75.7519 233.128 75.591 233.896 75.4395C234.664 75.2879 235.434 75.1458 236.206 75.0133C236.978 74.8807 237.752 74.7577 238.527 74.6441C239.301 74.5306 240.077 74.4266 240.855 74.332C241.632 74.2375 242.411 74.1525 243.19 74.077C243.97 74.0017 244.75 73.9359 245.531 73.8797C246.312 73.8234 247.094 73.7768 247.876 73.7398C248.659 73.7026 249.441 73.6751 250.224 73.6574C265.407 73.3828 283.301 77.2766 294.479 88.1816C300.434 93.9914 306.477 102.131 308.298 110.298C308.776 112.438 308.821 114.546 308.854 116.726L309.175 116.579C309.387 116.837 309.528 117.041 309.651 117.353C308.386 119.647 309.103 122.869 308.64 125.365C308.058 128.508 306.236 132.412 304.591 135.182C302.951 139.946 301.177 144.6 299.074 149.179C297.914 150.777 297.213 152.797 295.769 154.158C295.367 154.423 294.979 154.657 294.733 155.086C294.17 156.064 293.862 157.652 293.496 158.744C292.79 160.829 292.045 162.899 291.259 164.955C288.834 171.354 280.243 188.727 275.615 192.833C270.582 190.491 264.994 188.839 259.748 187.007C246.318 182.319 232.659 178.16 219.516 172.714C216.615 171.512 212.904 170.551 210.252 169.016C211.009 168.019 212.593 166.53 212.656 165.265C215.264 161.103 217.816 156.848 219.827 152.359C225.505 139.689 229.275 122.091 226.077 108.381C224.78 102.819 222.209 98.1277 218.51 93.8144C214.383 95.4992 210.45 97.8855 206.743 100.35C194.584 108.435 184.508 118.962 178.806 132.557C173.973 144.081 171.4 156.338 169.873 168.7C169.764 169.582 169.623 171.54 168.66 171.878C168.523 171.927 168.268 171.97 168.118 171.998C166.266 168.545 162.364 165.448 159.596 162.705C158.371 161.491 157.238 160.198 156.05 158.949Z" fill="url(#paint6_linear_323_7006)"/>
<path d="M308.854 116.726L309.175 116.579C309.387 116.837 309.528 117.041 309.651 117.353C308.386 119.647 309.103 122.869 308.64 125.365C308.058 128.508 306.236 132.412 304.591 135.182C305.472 128.925 308.076 122.991 308.854 116.726Z" fill="#A96F5D"/>
<path d="M262.618 281.48C262.754 281.321 263.072 281.163 263.261 281.059C266.413 279.32 269.262 276.703 272.255 274.655C286.234 264.927 299.871 254.741 313.167 244.099C316.836 241.139 320.513 238.161 324.062 235.059C325.989 233.374 327.863 231.338 329.886 229.8C330.295 229.489 330.379 229.464 330.873 229.47C349.389 237.678 368.113 245.488 386.536 253.89C388.856 254.87 398.432 258.562 399.611 259.824L399.529 260.429L387.484 307.028C385.316 315.413 383.543 324.039 380.916 332.285C372.68 334.773 364.167 336.67 355.824 338.784L183.247 382.76C160.749 388.427 138.055 393.359 115.702 399.582C112.852 397.484 109.745 395.805 106.778 393.883C107.771 391.75 107.923 387.984 108.374 385.594C110.341 375.164 112.1 364.722 113.848 354.254C114.482 350.456 114.55 345.226 115.964 341.737C119.501 342.74 123.379 343.594 127.001 344.232L126.859 344.748C128.252 347.098 130.7 361.355 131.418 364.845C132.422 369.729 133.463 374.654 134.915 379.425C137.155 378.788 139.467 378.344 141.724 377.753C148.737 375.874 155.767 374.058 162.814 372.307L365.859 321.35C367.016 317.95 367.756 314.284 368.652 310.801C370.966 301.799 373.07 292.732 376.111 283.941C371.066 284.589 366.156 286.136 361.186 287.209C353.882 288.786 346.495 290.07 339.159 291.505C320.671 295.072 302.229 298.866 283.834 302.889C277.436 304.254 270.897 305.139 264.561 306.731C263.769 305.844 261.034 302.804 260.725 301.865C260.689 301.755 260.69 301.637 260.673 301.523L260.477 301.473L260.519 301.386C262.143 302.904 263.423 304.769 264.765 306.533C267.513 304.264 282.391 288.901 283.703 286.555C276.397 285.638 269.163 284.044 261.922 282.713C261.332 282.65 260.357 282.572 259.9 282.202C260.366 281.836 261.008 281.823 261.577 281.737C261.947 281.73 262.269 281.594 262.618 281.48Z" fill="#664B4B"/>
<path d="M115.964 341.737C119.501 342.74 123.379 343.594 127.001 344.232L126.859 344.748C125.674 349.228 124.843 353.819 123.931 358.361L119.547 380.233L116.985 392.43C116.504 394.727 115.788 397.238 115.702 399.582C112.852 397.484 109.745 395.805 106.778 393.883C107.771 391.75 107.923 387.984 108.374 385.594C110.341 375.164 112.1 364.722 113.848 354.254C114.482 350.456 114.55 345.226 115.964 341.737Z" fill="#E89674"/>
<path d="M262.618 281.48C262.754 281.321 263.072 281.163 263.261 281.059C266.413 279.32 269.262 276.703 272.255 274.655C286.234 264.927 299.871 254.741 313.167 244.099C316.836 241.139 320.513 238.161 324.062 235.059C325.989 233.374 327.863 231.338 329.886 229.8C330.295 229.489 330.379 229.464 330.873 229.47C349.389 237.678 368.113 245.488 386.536 253.89C388.856 254.87 398.432 258.562 399.611 259.824L399.529 260.429C396.963 260.816 394.322 261.79 391.76 262.345C383.583 264.068 375.429 265.89 367.296 267.81L312.579 280.147L295.895 284.07C291.877 285.024 287.827 286.204 283.703 286.555C276.397 285.638 269.163 284.044 261.922 282.713C261.332 282.65 260.357 282.572 259.9 282.202C260.366 281.836 261.008 281.823 261.577 281.737C261.947 281.73 262.269 281.594 262.618 281.48Z" fill="#664B4B"/>
<path d="M386.536 253.89C388.856 254.87 398.432 258.562 399.611 259.824L399.529 260.429C396.963 260.816 394.322 261.79 391.76 262.345C383.583 264.068 375.429 265.89 367.296 267.81L312.579 280.147L295.895 284.07C291.877 285.024 287.827 286.204 283.703 286.555C276.397 285.638 269.163 284.044 261.922 282.713C261.332 282.65 260.357 282.572 259.9 282.202C260.366 281.836 261.008 281.823 261.577 281.737C261.947 281.73 262.269 281.594 262.618 281.48C264.808 281.148 267.01 280.914 269.187 280.496C275.945 279.197 282.633 277.398 289.345 275.871L326.246 267.593L366.276 258.728C370.268 257.845 383.711 255.517 386.536 253.89Z" fill="#A96F5D"/>
<defs>
<linearGradient id="paint0_linear_323_7006" x1="124.345" y1="297.232" x2="220.351" y2="82.6748" gradientUnits="userSpaceOnUse">
<stop stop-color="#9A7662"/>
<stop offset="1" stop-color="#B78D77"/>
</linearGradient>
<linearGradient id="paint1_linear_323_7006" x1="226.201" y1="-49.2902" x2="-19.6002" y2="278.777" gradientUnits="userSpaceOnUse">
<stop stop-color="#875F5D"/>
<stop offset="1" stop-color="#FF9861"/>
</linearGradient>
<linearGradient id="paint2_linear_323_7006" x1="274.681" y1="39.3838" x2="96.5858" y2="313.61" gradientUnits="userSpaceOnUse">
<stop stop-color="#D18E72"/>
<stop offset="1" stop-color="#FEAB82"/>
</linearGradient>
<linearGradient id="paint3_linear_323_7006" x1="284.925" y1="-1.99503" x2="26.1725" y2="303.514" gradientUnits="userSpaceOnUse">
<stop stop-color="#83504B"/>
<stop offset="1" stop-color="#D18C71"/>
</linearGradient>
<linearGradient id="paint4_linear_323_7006" x1="126.573" y1="339.133" x2="236.092" y2="30.9621" gradientUnits="userSpaceOnUse">
<stop stop-color="#9D6E58"/>
<stop offset="1" stop-color="#C6A596"/>
</linearGradient>
<linearGradient id="paint5_linear_323_7006" x1="360.725" y1="313.518" x2="83.141" y2="36.2579" gradientUnits="userSpaceOnUse">
<stop stop-color="#6C5454"/>
<stop offset="1" stop-color="#A26A5D"/>
</linearGradient>
<linearGradient id="paint6_linear_323_7006" x1="202.862" y1="-1.14734" x2="190.947" y2="393.823" gradientUnits="userSpaceOnUse">
<stop stop-color="#4B3D44"/>
<stop offset="1" stop-color="#8B6350"/>
</linearGradient>
</defs>
</svg>
