<svg width="1996" height="599" viewBox="0 0 1996 599" fill="none" xmlns="http://www.w3.org/2000/svg">
<path d="M1477.78 78.3736C1500.12 78.9527 1537.44 76.5909 1554.05 93.9569L1555.64 99.2175L1553.85 104.094C1540.66 106.222 1515.95 96.5563 1502.01 94.0675C1501.75 93.7487 1501.49 93.368 1501.16 93.1143C1494.91 88.5109 1487.19 90.4173 1479.93 90.8468C1478.56 84.2719 1477.91 84.1645 1473.12 79.919L1477.78 78.3736Z" fill="#BC736D"/>
<path d="M1502.01 94.0675C1515.95 96.5563 1540.66 106.222 1553.85 104.094L1555.64 99.2175C1561.96 103.509 1563.85 103.909 1565.32 111.87C1566.55 118.659 1564.11 127.482 1561.05 133.51L1560.37 136.432C1548.32 137.72 1536.17 139.955 1524.02 139.893C1512.43 139.838 1511.23 139.783 1502.99 131.373C1507.42 117.719 1508.42 107.299 1502.01 94.0675Z" fill="#D8836A"/>
<path d="M1589.35 85.0429C1643.08 67.3743 1808.09 115.555 1858.41 141.035C1899.99 162.09 1965.58 215.207 1977.76 261.361C1978.97 265.893 1978.51 268.561 1977.21 272.982L1978.58 282.54C1973.46 281.411 1969.75 278.76 1965.45 275.978C1965.45 269.026 1963.17 263.053 1960.08 256.924C1928.26 194.047 1851.93 149.66 1787.06 128.809C1760.29 120.204 1666.86 91.7186 1641.1 104.937C1640.8 104.67 1640.54 104.328 1640.19 104.133C1633.38 100.359 1625.53 103.704 1618.43 105.203C1618.14 104.361 1617.88 103.505 1617.55 102.679C1613.29 91.8357 1599.28 88.6053 1589.35 85.0429Z" fill="#BC736D"/>
<path d="M1225.99 11.1348C1277.96 42.6201 1333.42 71.0701 1382.17 107.422C1399.46 120.322 1419.39 152.454 1437.82 159.65C1439.74 153.85 1438.47 151.852 1436.88 146.081C1463.39 132.092 1456.87 99.8518 1473.12 79.919C1477.91 84.1645 1478.56 84.2719 1479.93 90.8468C1487.19 90.4173 1494.91 88.5109 1501.16 93.1143C1501.49 93.368 1501.75 93.7487 1502.01 94.0675C1508.42 107.299 1507.42 117.719 1502.99 131.373C1509.21 148.479 1506.01 195.02 1497.55 211.368C1496.38 213.622 1495.04 215.679 1493.51 217.696C1496.38 222.348 1499.31 227.133 1499.86 232.687C1500.61 240.423 1499.21 247.255 1494.29 253.068C1466.09 252.766 1435.28 176.441 1398.78 156.781C1397.6 148.323 1375.75 129.72 1369.11 122.807C1361.75 103.408 1246.5 37.2912 1222.54 24.6815L1225.99 11.1348Z" fill="#634849"/>
<path d="M1479.93 90.8468C1487.19 90.4173 1494.91 88.5109 1501.16 93.1143C1501.49 93.368 1501.75 93.7487 1502.01 94.0675C1508.42 107.299 1507.42 117.719 1502.99 131.373C1509.21 148.479 1506.01 195.02 1497.55 211.368C1496.38 213.622 1495.04 215.679 1493.51 217.696L1484.55 209.419C1487.22 197.955 1488.85 186.793 1489.54 175.055C1490.68 154.65 1493.8 106.417 1479.93 90.8468Z" fill="#E7967D"/>
<path d="M1369.11 122.807C1418.54 135.586 1442.64 194.968 1478.2 226.018C1479.02 226.74 1483.74 230.243 1484.65 230.172C1486.18 230.048 1487.45 228.884 1488.85 228.239C1490.12 220.848 1487.45 215.952 1484.55 209.419L1493.51 217.696C1496.38 222.348 1499.31 227.133 1499.86 232.687C1500.61 240.423 1499.21 247.255 1494.29 253.068C1466.09 252.766 1435.28 176.441 1398.78 156.781C1397.6 148.323 1375.75 129.72 1369.11 122.807Z" fill="#D8836A"/>
<path d="M1985.87 408.231C1986.16 409.236 1986.55 410.222 1986.81 411.243C1989.32 421.302 1979.94 437.357 1974.77 445.539C1947.67 488.32 1906.34 533.498 1854.92 544.231C1825.19 550.442 1635.89 508.552 1611.98 491.459C1606.48 487.526 1605.01 483.515 1603.94 476.969C1594.63 420.424 1597.95 350.27 1594.1 291.779C1590.16 231.893 1577.89 167.816 1580.1 108.128C1580.49 97.1517 1583 93.7162 1589.35 85.0429C1599.28 88.6053 1613.29 91.8357 1617.55 102.679C1617.88 103.505 1618.14 104.361 1618.43 105.203C1638 127.173 1639.14 172.976 1637.45 201.338C1637.09 207.314 1636.24 212.894 1634.13 218.529C1637.71 233.838 1640.71 248.8 1641.46 264.54C1642.95 295.02 1633.51 406.113 1651.49 425.681C1713.17 453.409 1781.29 459.177 1846.91 472.717C1879.28 480.486 1914.55 480.444 1943.99 463.143C1963.66 451.574 1980.27 430.503 1985.87 408.231Z" fill="#634849"/>
<path d="M1502.99 131.373C1511.23 139.783 1512.43 139.838 1524.02 139.893C1536.17 139.955 1548.32 137.72 1560.37 136.432L1561.05 133.51C1573.62 147.698 1572.58 254.653 1571.02 277.689C1570.46 285.907 1569.97 294.021 1566.16 301.484C1577.33 312.132 1576.58 333.405 1576.88 347.928C1577.17 362.584 1578.08 383.519 1572.97 397.189L1569.39 396.252L1565.02 403.461C1561.57 405.602 1558.18 407.264 1554.05 407.557C1505.36 411.002 1419.45 317.796 1386.01 287.339C1355.16 259.434 1324.14 231.719 1292.94 204.195L1273.92 190.954L1274.11 185.553C1307.66 176.945 1373.18 170.503 1398.78 156.781C1435.28 176.441 1466.09 252.766 1494.29 253.068C1499.21 247.255 1500.61 240.423 1499.86 232.687C1499.31 227.133 1496.38 222.348 1493.51 217.696C1495.04 215.679 1496.38 213.622 1497.55 211.368C1506.01 195.02 1509.21 148.479 1502.99 131.373Z" fill="url(#paint0_linear_275_19007)"/>
<path d="M1292.94 204.195C1300.79 202.369 1303.13 203.586 1310.03 208.024C1361.55 241.197 1495.85 402.108 1548.35 392.885C1554.05 391.886 1558.71 388.086 1561.57 383.268C1570.66 367.942 1570.36 319.442 1566.16 301.484C1577.33 312.132 1576.58 333.405 1576.88 347.928C1577.17 362.584 1578.08 383.519 1572.97 397.189L1569.39 396.252L1565.02 403.461C1561.57 405.602 1558.18 407.264 1554.05 407.557C1505.36 411.002 1419.45 317.796 1386.01 287.339C1355.16 259.434 1324.14 231.719 1292.94 204.195Z" fill="#D8836A"/>
<path d="M1191.13 0.555175C1204.44 -2.02143 1214.83 4.85924 1225.99 11.1348L1222.54 24.6815C1246.5 37.2912 1361.75 103.408 1369.11 122.807C1375.75 129.72 1397.6 148.323 1398.78 156.781C1373.18 170.503 1307.66 176.945 1274.11 185.553L1273.92 190.954L1292.94 204.195C1324.14 231.719 1355.16 259.434 1386.01 287.339C1419.45 317.796 1505.36 411.002 1554.05 407.557C1558.18 407.264 1561.57 405.602 1565.02 403.461L1569.39 396.252L1572.97 397.189C1575.35 400.52 1576.75 404.07 1577.66 408.048C1581.44 424.861 1576.75 455.436 1566.07 469.461C1560.33 477.008 1552.39 480.75 1543.11 481.81C1519.95 484.455 1491.26 469.903 1472.86 457.264C1444.27 437.637 1420.01 409.47 1395.1 385.396C1357.73 349.332 1319.42 314.29 1280.17 280.269C1280.46 316.651 1289.29 433.333 1270.89 459.024C1265.78 463.188 1261.51 464.89 1254.9 465.075C1237.22 465.576 1209.07 459.838 1196.67 446.606C1188.05 437.413 1184.46 425.61 1182.93 413.351C1179.26 383.964 1185.29 350.189 1185.33 320.203C1185.44 213.294 1186.02 107.39 1191.13 0.555175Z" fill="#634849"/>
<path d="M1210.93 202.744C1213.11 208.746 1214.72 214.312 1215.67 220.63L1215.96 219.339L1219.45 217.448C1226.87 250.814 1216.78 290.849 1217.6 325.304C1217.38 339.417 1218.32 354.672 1214.37 368.303C1199.42 326.801 1208.59 248.299 1210.93 202.744Z" fill="#D8836A"/>
<path d="M1262.52 244.148C1267.24 242.691 1267.89 241.305 1271.09 237.632C1270.86 283.353 1265.19 332.562 1272.19 377.747C1251.19 379.032 1231.7 382.803 1214.37 368.303C1218.32 354.672 1217.38 339.417 1217.6 325.304C1218.59 339.879 1221.13 354.441 1232.7 364.776C1238.9 370.307 1241.71 370.19 1249.46 369.887C1251.64 368.573 1256.92 366.273 1258.38 364.497C1266.88 354.242 1255.91 267.78 1262.06 245.589C1262.2 245.104 1262.36 244.626 1262.52 244.148Z" fill="#BC736D"/>
<path d="M1191.13 0.555175C1204.44 -2.02143 1214.83 4.85924 1225.99 11.1348L1222.54 24.6815C1214.08 46.0491 1226.19 86.0645 1225.53 110.672C1224.57 146.803 1212.79 182.833 1215.96 219.339L1215.67 220.63C1214.72 214.312 1213.11 208.746 1210.93 202.744C1205.26 133.849 1215.17 67.5338 1191.13 0.555175Z" fill="#E7967D"/>
<path d="M1219.45 217.448L1221.28 207.757C1230.23 204.214 1243.63 204.676 1252.39 208.586C1254.93 209.722 1257.51 212.809 1258.58 215.412C1261.71 223.077 1261.67 235.751 1262.52 244.148C1262.36 244.626 1262.2 245.104 1262.06 245.589C1255.91 267.78 1266.88 354.242 1258.38 364.497C1256.92 366.273 1251.64 368.573 1249.46 369.887C1241.71 370.19 1238.9 370.307 1232.7 364.776C1221.13 354.441 1218.59 339.879 1217.6 325.304C1216.78 290.849 1226.87 250.814 1219.45 217.448Z" fill="url(#paint1_linear_275_19007)"/>
<path d="M1222.54 24.6815C1246.5 37.2912 1361.75 103.408 1369.11 122.807C1375.75 129.72 1397.6 148.323 1398.78 156.781C1373.18 170.503 1307.66 176.945 1274.11 185.553L1273.92 190.954C1271.28 206.491 1271.28 221.928 1271.09 237.632C1267.89 241.305 1267.24 242.691 1262.52 244.148C1261.67 235.751 1261.71 223.077 1258.58 215.412C1257.51 212.809 1254.93 209.722 1252.39 208.586C1243.63 204.676 1230.23 204.214 1221.28 207.757L1219.45 217.448L1215.96 219.339C1212.79 182.833 1224.57 146.803 1225.53 110.672C1226.19 86.0645 1214.08 46.0491 1222.54 24.6815Z" fill="url(#paint2_linear_275_19007)"/>
<path d="M1641.1 104.937C1666.86 91.7186 1760.29 120.204 1787.06 128.809C1851.93 149.66 1928.26 194.047 1960.08 256.924C1963.17 263.053 1965.45 269.026 1965.45 275.978C1969.75 278.76 1973.46 281.411 1978.58 282.54L1977.21 272.982C1990.3 284.414 1993.1 305.583 1994.27 322.064C1994.83 329.312 1994.47 335.699 1992.19 342.661C1997.33 358.683 1997.85 386.408 1990.1 401.653C1989.06 403.686 1987.95 405.413 1986.59 407.232L1985.87 408.231C1980.27 430.503 1963.66 451.574 1943.99 463.143C1914.55 480.444 1879.28 480.486 1846.91 472.717C1781.29 459.177 1713.17 453.409 1651.49 425.681C1633.51 406.113 1642.95 295.02 1641.46 264.54C1640.71 248.8 1637.71 233.838 1634.13 218.529C1636.24 212.894 1637.09 207.314 1637.45 201.338C1639.14 172.976 1638 127.173 1618.43 105.203C1625.53 103.704 1633.38 100.359 1640.19 104.133C1640.54 104.328 1640.8 104.67 1641.1 104.937ZM1745.5 151.686C1747.29 162.25 1750.65 173.601 1743.97 183.107L1744.4 188.084C1751.04 194.74 1753.51 201.289 1753.42 210.555C1753.35 218.655 1752.28 227.846 1749.7 235.543C1761.59 252.268 1762.89 329.501 1759.34 352.388C1758.4 358.342 1756.58 362.837 1753.16 367.789C1760.52 378.349 1767.39 385.643 1777.58 393.474C1777.78 393.633 1777.97 393.806 1778.17 393.971C1794.61 399.268 1814.05 404.759 1830.69 396.665C1831.61 396.219 1832.52 395.715 1833.43 395.24C1837.57 400.293 1837.83 401.347 1844.41 403.097C1847.5 402.502 1850.63 401.818 1853.59 400.647C1868.63 394.664 1879.51 377.116 1885.57 362.899C1894.17 342.716 1898.66 313.326 1890 292.606C1890.55 290.036 1890.91 287.449 1890.97 284.821C1891.33 269.367 1887.16 243.263 1876.12 231.776C1872.54 232.944 1869.12 234.17 1865.44 234.827C1865.51 234.063 1865.64 233.305 1865.67 232.54C1866.03 222.396 1854.6 212.415 1848.02 205.88C1846.75 202.099 1845.19 198.547 1842.74 195.342C1823.63 170.214 1775.66 156.983 1745.5 151.686Z" fill="url(#paint3_linear_275_19007)"/>
<path d="M1745.6 368.03L1753.16 367.789C1760.52 378.349 1767.39 385.643 1777.58 393.474C1777.78 393.633 1777.97 393.806 1778.17 393.971C1794.61 399.268 1814.05 404.759 1830.69 396.665C1831.61 396.219 1832.52 395.715 1833.43 395.24C1837.57 400.293 1837.83 401.347 1844.41 403.097C1843.13 408.302 1838.12 410.999 1833.56 413.654C1825.16 418.56 1807.61 415.17 1798.59 412.411C1772.53 404.421 1757.88 391.805 1745.6 368.03Z" fill="#BC736D"/>
<path d="M1651.49 425.681C1654.71 423.326 1658.45 421.745 1662 419.968C1705.51 434 1749.05 441.134 1793.67 450.237C1824.05 456.438 1853.23 464.249 1884.33 467.057C1872.05 470.147 1859.32 470.382 1846.91 472.717C1781.29 459.177 1713.17 453.409 1651.49 425.681Z" fill="#D8836A"/>
<path d="M1733.13 145.264C1737.2 147.132 1742.21 148.781 1745.5 151.686C1747.29 162.25 1750.65 173.601 1743.97 183.107L1744.4 188.084C1751.04 194.74 1753.51 201.289 1753.42 210.555C1753.35 218.655 1752.28 227.846 1749.7 235.543C1761.59 252.268 1762.89 329.501 1759.34 352.388C1758.4 358.342 1756.58 362.837 1753.16 367.789L1745.6 368.03C1757.94 329.927 1747.59 235.335 1734.63 197.229L1730.49 198.111C1734.85 184.323 1732.28 165.936 1732.02 151.498L1733.13 145.264Z" fill="#D8836A"/>
<path d="M1733.13 145.264C1737.2 147.132 1742.21 148.781 1745.5 151.686C1747.29 162.25 1750.65 173.601 1743.97 183.107C1736.22 174.02 1740.06 161.694 1732.02 151.498L1733.13 145.264Z" fill="#E7967D"/>
<path d="M1884.33 467.057C1897.55 467.096 1911.17 463.257 1922.79 457.049C1968.55 432.643 1975.29 386.473 1988.7 342.095L1992.19 342.661C1997.33 358.683 1997.85 386.408 1990.1 401.653C1989.06 403.686 1987.95 405.413 1986.59 407.232L1985.87 408.231C1980.27 430.503 1963.66 451.574 1943.99 463.143C1914.55 480.444 1879.28 480.486 1846.91 472.717C1859.32 470.382 1872.05 470.147 1884.33 467.057Z" fill="#BC736D"/>
<path d="M1641.1 104.937C1666.86 91.7186 1760.29 120.204 1787.06 128.809C1851.93 149.66 1928.26 194.047 1960.08 256.924C1963.17 263.053 1965.45 269.026 1965.45 275.978L1965.29 283.103C1944.45 295.612 1902.63 265.616 1890 292.606C1890.55 290.036 1890.91 287.449 1890.97 284.821C1891.33 269.367 1887.16 243.263 1876.12 231.776C1872.54 232.944 1869.12 234.17 1865.44 234.827C1865.51 234.063 1865.64 233.305 1865.67 232.54C1866.03 222.396 1854.6 212.415 1848.02 205.88C1846.75 202.099 1845.19 198.547 1842.74 195.342C1823.63 170.214 1775.66 156.983 1745.5 151.686C1742.21 148.781 1737.2 147.132 1733.13 145.264L1732.02 151.498C1732.28 165.936 1734.85 184.323 1730.49 198.111L1727.2 202.2C1701.9 200.613 1676.72 197.389 1651.45 195.707C1671.97 227.081 1654.09 407.466 1662 419.968C1658.45 421.745 1654.71 423.326 1651.49 425.681C1633.51 406.113 1642.95 295.02 1641.46 264.54C1640.71 248.8 1637.71 233.838 1634.13 218.529C1636.24 212.894 1637.09 207.314 1637.45 201.338C1639.14 172.976 1638 127.173 1618.43 105.203C1625.53 103.704 1633.38 100.359 1640.19 104.133C1640.54 104.328 1640.8 104.67 1641.1 104.937Z" fill="url(#paint4_linear_275_19007)"/>
<path d="M1852.81 197.558C1861.79 201.439 1871.14 207.347 1874.92 216.892C1877.49 223.389 1877.43 225.253 1876.12 231.776C1872.54 232.944 1869.12 234.17 1865.44 234.827C1865.51 234.063 1865.64 233.305 1865.67 232.54C1866.03 222.396 1854.6 212.415 1848.02 205.88C1851.6 202.503 1851.89 202.35 1852.81 197.558Z" fill="#E7967D"/>
<path d="M1618.43 105.203C1625.53 103.704 1633.38 100.359 1640.19 104.133C1640.54 104.328 1640.8 104.67 1641.1 104.937C1643.05 129.688 1652.82 193.986 1641.1 214.039L1634.13 218.529C1636.24 212.894 1637.09 207.314 1637.45 201.338C1639.14 172.976 1638 127.173 1618.43 105.203Z" fill="#D8836A"/>
<path d="M1733.13 145.264C1735.21 141.513 1735.64 138.618 1740 137.437C1760.65 131.854 1812.72 157.129 1830.76 168.379C1839.81 174.02 1849.49 181.298 1853.49 191.455L1852.81 197.558C1851.89 202.35 1851.6 202.503 1848.02 205.88C1846.75 202.099 1845.19 198.547 1842.74 195.342C1823.63 170.214 1775.66 156.983 1745.5 151.686C1742.21 148.781 1737.2 147.132 1733.13 145.264Z" fill="#F4A17A"/>
<path d="M1745.5 151.686C1775.66 156.983 1823.63 170.214 1842.74 195.342C1845.19 198.547 1846.75 202.099 1848.02 205.88C1854.6 212.415 1866.03 222.396 1865.67 232.54C1865.64 233.305 1865.51 234.063 1865.44 234.827C1869.12 234.17 1872.54 232.944 1876.12 231.776C1887.16 243.263 1891.33 269.367 1890.97 284.821C1890.91 287.449 1890.55 290.036 1890 292.606C1898.66 313.326 1894.17 342.716 1885.57 362.899C1879.51 377.116 1868.63 394.664 1853.59 400.647C1850.63 401.818 1847.5 402.502 1844.41 403.097C1837.83 401.347 1837.57 400.293 1833.43 395.24C1832.52 395.715 1831.61 396.219 1830.69 396.665C1814.05 404.759 1794.61 399.268 1778.17 393.971C1777.97 393.806 1777.78 393.633 1777.58 393.474C1767.39 385.643 1760.52 378.349 1753.16 367.789C1756.58 362.837 1758.4 358.342 1759.34 352.388C1762.89 329.501 1761.59 252.268 1749.7 235.543C1752.28 227.846 1753.35 218.655 1753.42 210.555C1753.51 201.289 1751.04 194.74 1744.4 188.084L1743.97 183.107C1750.65 173.601 1747.29 162.25 1745.5 151.686ZM1749.7 235.543C1761.59 252.268 1762.89 329.501 1759.34 352.388C1758.4 358.342 1756.58 362.837 1753.16 367.789C1760.52 378.349 1767.39 385.643 1777.58 393.474C1777.78 393.633 1777.97 393.806 1778.17 393.971C1791.78 394.469 1812.78 397.495 1823.79 388.399C1828.61 384.404 1830.76 376.02 1831.31 369.992C1834.64 334.261 1817.83 289.167 1795.07 262.282C1782.92 247.961 1768.82 237.105 1749.7 235.543Z" fill="#3F2B32"/>
<path d="M1876.12 231.776C1887.16 243.263 1891.33 269.367 1890.97 284.821C1890.91 287.449 1890.55 290.036 1890 292.606C1898.66 313.326 1894.17 342.716 1885.57 362.899C1879.51 377.116 1868.63 394.664 1853.59 400.647C1850.63 401.818 1847.5 402.502 1844.41 403.097C1837.83 401.347 1837.57 400.293 1833.43 395.24C1836.82 394.3 1839.88 393.256 1843.04 391.626C1860.69 382.429 1870.88 363.02 1875.96 344.522C1885.08 311.338 1883.22 265.314 1865.44 234.827C1869.12 234.17 1872.54 232.944 1876.12 231.776Z" fill="#D8836A"/>
<path d="M1025.41 25.9178C1057.16 17.9537 1094.22 23.7543 1126.98 20.3286C1135.67 21.3469 1144.33 21.4901 1151.09 27.7103C1156.36 36.2665 1156.2 45.1024 1156.7 54.8557C1167.44 147.356 1185.23 314.23 1123.9 391.135C1097.04 424.816 1055.41 438.314 1013.95 442.611C957.725 448.441 881.723 447.94 835.985 410.046C805.259 384.589 792.34 346.275 783.733 308.723C758.104 374.423 722.249 419.708 657.043 448.497C651.767 450.811 646.437 452.994 641.053 455.045L618.084 462.125C573.069 475.714 531.844 474.438 486.362 464.636C382.393 432.936 389.392 377.673 347.577 301.142C342.438 313.528 338.403 325.962 334.603 338.815L317.46 370.307C341.999 406.773 387.379 455.599 379.967 501.837C378.29 507.079 376.502 512.141 375.88 517.635L339.084 522.698L331.91 524.988L323.957 526.139C294.283 533.01 264.196 539.179 235.245 548.704C230.399 549.94 224.957 551.853 219.92 551.291C216.025 550.858 212.394 544.521 209.886 541.362C208.694 523.849 195.31 512.131 192.086 495.887C190.796 489.384 193.408 482.48 194.974 476.221C200.895 452.567 189.197 433.427 179.571 412.437C171.579 460.641 170.495 510.566 169.052 559.391C136.382 570.553 103.276 581.071 71.293 594.084C65.2846 596.31 59.413 597.695 53.1441 599C33.4125 594.728 25.4014 566.366 12.9287 551.909L11.0692 549.784C9.95224 548.633 8.82542 547.488 7.76378 546.284C-8.15109 528.254 7.64335 481.791 9.21953 458.471C9.5148 457.335 9.79041 456.193 10.0466 455.045C23.3269 396.623 38.8706 266.407 28.1923 209.364C23.5191 184.388 13.5083 163.145 0 141.933C24.1442 131.968 49.9103 125.556 75.0087 118.405C131.041 103.294 185.397 95.717 243.533 98.3879C278.167 102.412 303.031 109.908 325.602 138.501C338.456 154.784 348.063 174.287 358.741 192.063C371.764 154.611 397.1 118.139 431.737 97.9292C431.493 98.9475 431.268 99.969 431.007 100.981C429.871 105.36 427.481 108.519 424.807 112.074C426.552 114.225 428.034 116.343 430.248 118.031C448.052 103.372 472.665 107.172 494.39 109.309C505.782 110.432 517.085 111.792 528.226 114.508C529.704 113.818 531.194 113.152 532.694 112.51C542.222 108.48 550.732 105.298 560.88 109.377C570.008 110.5 577.485 110.149 586.515 108.909C595.386 105.727 599.388 105.516 608.324 109.813C611.538 111.392 614.715 113.04 617.856 114.755C636.396 105.405 705.279 116.18 731.54 111.082L735.806 104.758C741.544 112.933 747.82 121.001 752.34 129.922C766.278 151.81 773.169 179.33 781.112 203.924C784.453 154.963 785.988 105.944 785.716 56.8695C785.511 52.6337 786.364 48.912 787.127 44.7673C800.283 30.6578 826.232 31.1002 844.377 28.9271C870.762 26.5131 897.133 23.8682 923.622 22.8629C934.337 25.9828 940.788 28.143 948.532 36.6048L952.463 47.461L953.537 47.8579C958.601 54.602 956.331 71.6329 956.358 80.5144C970.914 65.211 997.065 38.0753 1018.59 34.5032L1025.41 25.9178ZM1025.41 25.9178L1018.59 34.5032C997.065 38.0753 970.914 65.211 956.358 80.5144C956.331 71.6329 958.601 54.602 953.537 47.8579L952.463 47.461L948.532 36.6048C940.788 28.143 934.337 25.9828 923.622 22.8629C897.133 23.8682 870.762 26.5131 844.377 28.9271C826.232 31.1002 800.283 30.6578 787.127 44.7673C786.364 48.912 785.511 52.6337 785.716 56.8695L790.096 66.9319C792.9 129.789 776.513 211.482 794.828 271.638C795.714 286.86 800.231 301.032 804.448 315.58L817.165 315.678C817.735 316.098 818.298 316.53 818.878 316.944C867.994 352.05 964.01 351.959 1021.38 342.732C1078.29 333.581 1119.51 309.188 1138.93 253.287C1144.11 238.409 1147.93 220.054 1157.48 207.396C1157.88 206.865 1158.32 206.358 1158.73 205.841C1160.69 180.387 1158.23 154.501 1155.54 129.2C1156.32 119.668 1153.65 108.574 1152.27 99.0809C1155.59 85.1341 1155.51 69.193 1156.7 54.8557C1156.2 45.1024 1156.36 36.2665 1151.09 27.7103C1144.33 21.4901 1135.67 21.3469 1126.98 20.3286C1094.22 23.7543 1057.16 17.9537 1025.41 25.9178ZM431.737 97.9292C397.1 118.139 371.764 154.611 358.741 192.063C352.325 236.561 343.764 279.83 372.695 318.691C380.055 328.574 387.874 337.869 397.211 345.937L405.811 339.577C437.807 364.191 483.647 377.49 523.364 378.411C599.958 380.187 661.465 354.334 716.911 301.539L725.235 304.503C731.931 295.326 738.9 285.878 744.465 275.955C771.534 227.673 764.383 183.012 750.415 132.456L752.34 129.922C747.82 121.001 741.544 112.933 735.806 104.758L731.54 111.082C705.279 116.18 636.396 105.405 617.856 114.755C614.715 113.04 611.538 111.392 608.324 109.813C599.388 105.516 595.386 105.727 586.515 108.909C577.485 110.149 570.008 110.5 560.88 109.377C550.732 105.298 542.222 108.48 532.694 112.51C531.194 113.152 529.704 113.818 528.226 114.508C517.085 111.792 505.782 110.432 494.39 109.309C472.665 107.172 448.052 103.372 430.248 118.031C428.034 116.343 426.552 114.225 424.807 112.074C427.481 108.519 429.871 105.36 431.007 100.981C431.268 99.969 431.493 98.9475 431.737 97.9292Z" fill="#634849"/>
<path d="M26.9026 390.868C28.4885 356.536 32.0024 322.132 34.7119 287.866C36.7733 291.197 38.7174 295.052 41.2119 298.052C43.8562 325.103 36.7243 352.112 35.4217 379.062L26.9026 390.868Z" fill="#F4A17A"/>
<path d="M105.484 469.854C106.822 447.638 114.368 356.269 122.659 340.823C123.538 339.186 127.195 336.597 128.69 335.207C138.277 332.299 146.575 333.877 156.273 335.308L154.576 339.837C146.575 340.38 141.834 339.876 135.897 346.064C105.783 377.451 149.779 478.163 94.3558 497.273L94.3234 489.81C102.569 483.6 103.38 479.585 105.484 469.854Z" fill="#BC736D"/>
<path d="M13.2999 148.446C48.1257 129.463 93.6493 123.474 132.24 114.983L135.806 119.079C127.208 128.588 45.9243 145.027 28.5049 149.536C32.8752 158.359 37.2975 170.738 43.5794 178.116C47.4482 214.774 49.7408 262.061 41.2119 298.052C38.7174 295.052 36.7733 291.197 34.7119 287.866C37.6656 227.602 45.2045 202.158 13.2999 148.446Z" fill="#F6BE90"/>
<path d="M26.9026 390.868L35.4217 379.062C33.4514 412.668 26.9448 445.65 25.3198 479.237C25.6552 479.273 26.0199 479.204 26.3325 479.338C28.0682 480.066 30.1787 481.4 31.8884 482.324C36.2913 484.706 39.2841 485.177 44.3122 485.213C67.105 485.382 88.7905 486.231 105.484 469.854C103.38 479.585 102.569 483.6 94.3234 489.81L94.3558 497.273L6.74755 531.052C11.7258 505.047 15.9485 478.92 19.4157 452.671C21.8158 433.528 20.0573 408.702 26.9026 390.868Z" fill="#D8836A"/>
<path d="M25.3198 479.237C25.6552 479.273 26.0199 479.204 26.3325 479.338C28.0682 480.066 30.1787 481.4 31.8884 482.324C36.2913 484.706 39.2841 485.177 44.3122 485.213C67.105 485.382 88.7905 486.231 105.484 469.854C103.38 479.585 102.569 483.6 94.3234 489.81C69.1241 494.778 44.589 504.463 20.6272 513.468L25.3198 479.237Z" fill="#634849"/>
<path d="M716.911 301.539L725.235 304.503C672.342 360.961 613.157 386.879 535.582 389.238C483.207 390.832 439.543 376.026 397.211 345.937L405.811 339.577C437.807 364.191 483.647 377.49 523.364 378.411C599.958 380.187 661.465 354.334 716.911 301.539Z" fill="#D8836A"/>
<path d="M817.165 315.678C817.735 316.098 818.298 316.53 818.878 316.944C867.994 352.05 964.01 351.959 1021.38 342.732C1078.29 333.581 1119.51 309.188 1138.93 253.287C1144.11 238.409 1147.93 220.054 1157.48 207.396C1157.88 206.865 1158.32 206.358 1158.73 205.841C1155.89 248.605 1144.83 286.21 1111.12 315.249C1061.78 357.756 986.057 362.441 923.971 357.196C887.025 354.076 833.328 350.003 808.04 319.963C806.82 318.52 805.623 317.06 804.448 315.58L817.165 315.678Z" fill="#BC736D"/>
<path d="M231.178 303.592C270.869 281.453 272.845 278.821 298.129 239.678L307.954 249.269C292.056 273.649 277.786 289.382 252 303.634C295.378 333.854 315.389 393.327 343.682 437.006C301.552 452.534 257.699 461.907 214.807 474.962C204.161 421.045 190.288 382.37 154.576 339.837L156.273 335.308C199.856 356.461 204.005 418.14 223.925 457.404C260.177 451.821 297.191 440.422 332.9 431.537C297.351 384.872 281.671 338.464 231.178 303.592Z" fill="#D8836A"/>
<path d="M132.24 114.983C177.027 105.627 249.522 91.1624 290.089 117.969C294.423 120.832 299.937 124.339 302.783 128.663C317.949 142.216 326.305 158.811 327.465 179.252C328.826 203.222 320.463 228.997 307.954 249.269L298.129 239.678C272.845 278.821 270.869 281.453 231.178 303.592C281.671 338.464 297.351 384.872 332.9 431.537C297.191 440.422 260.177 451.821 223.925 457.404C204.005 418.14 199.856 356.461 156.273 335.308C146.575 333.877 138.277 332.299 128.69 335.207C127.195 336.597 123.538 339.186 122.659 340.823C114.368 356.269 106.822 447.638 105.484 469.854C88.7905 486.231 67.105 485.382 44.3122 485.213C39.2841 485.177 36.2913 484.706 31.8884 482.324C30.1787 481.4 28.0682 480.066 26.3325 479.338C26.0199 479.204 25.6552 479.273 25.3198 479.237C26.9448 445.65 33.4514 412.668 35.4217 379.062C36.7243 352.112 43.8562 325.103 41.2119 298.052C49.7408 262.061 47.4482 214.774 43.5794 178.116C37.2975 170.738 32.8752 158.359 28.5049 149.536C45.9243 145.027 127.208 128.588 135.806 119.079L132.24 114.983Z" fill="url(#paint5_linear_275_19007)"/>
<path d="M132.24 114.983C177.027 105.627 249.522 91.1624 290.089 117.969C294.423 120.832 299.937 124.339 302.783 128.663C304.955 133.823 306.929 139.054 309.912 143.81L308.013 147.187C273.151 149.617 239.348 152.009 205.48 160.997C219.75 173.334 230.784 187.3 232.448 206.83C233.727 221.892 224.811 237.186 214.865 247.805C191.008 273.265 158.742 278.734 126.296 286.499C124.473 246.998 119.653 209.422 129.384 170.503C103.341 169.059 68.1926 168.613 43.5794 178.116C37.2975 170.738 32.8752 158.359 28.5049 149.536C45.9243 145.027 127.208 128.588 135.806 119.079L132.24 114.983Z" fill="#F4A17A"/>
<path d="M163.868 168.926C171.257 168.496 178.89 167.953 186.234 169.134C196.186 170.734 205.522 176.288 211.326 184.603C218.36 194.685 219.848 206.716 217.608 218.6C213.364 241.116 200.045 255.661 181.867 268.405C166.554 272.162 151.011 275.09 135.561 278.259C138.502 248.546 130.738 209.413 144.996 182.319C149.438 173.877 155.394 171.795 163.868 168.926Z" fill="#3F2B32"/>
<path d="M431.737 97.9292C431.493 98.9475 431.268 99.969 431.007 100.981C429.871 105.36 427.481 108.519 424.807 112.074C426.552 114.225 428.034 116.343 430.248 118.031C448.052 103.372 472.665 107.172 494.39 109.309C505.782 110.432 517.085 111.792 528.226 114.508C529.704 113.818 531.194 113.152 532.694 112.51C542.222 108.48 550.732 105.298 560.88 109.377C570.008 110.5 577.485 110.149 586.515 108.909C595.386 105.727 599.388 105.516 608.324 109.813C611.538 111.392 614.715 113.04 617.856 114.755C636.396 105.405 705.279 116.18 731.54 111.082L735.806 104.758C741.544 112.933 747.82 121.001 752.34 129.922L750.415 132.456C764.383 183.012 771.534 227.673 744.465 275.955C738.9 285.878 731.931 295.326 725.235 304.503L716.911 301.539C661.465 354.334 599.958 380.187 523.364 378.411C483.647 377.49 437.807 364.191 405.811 339.577L397.211 345.937C387.874 337.869 380.055 328.574 372.695 318.691C343.764 279.83 352.325 236.561 358.741 192.063C371.764 154.611 397.1 118.139 431.737 97.9292ZM560.88 109.377C526.591 124.779 499.662 144.204 485.659 180.751C472.323 215.552 471.451 257.223 486.05 291.63C494.074 298.51 501.538 305.742 511.656 309.347C523.071 312.883 536.103 313.791 547.98 312.906C581.259 310.424 600.841 289.33 621.439 265.711L622.474 263.593C626.933 257.077 630.805 250.814 632.892 243.133C644.43 200.739 638.119 160.347 616.14 122.817L586.515 108.909C577.485 110.149 570.008 110.5 560.88 109.377Z" fill="url(#paint6_linear_275_19007)"/>
<path d="M716.911 301.539C750.321 250.843 752.291 220.77 742.485 162.162C741.043 153.534 738.385 144.942 740.896 136.38L750.415 132.456C764.383 183.012 771.534 227.673 744.465 275.955C738.9 285.878 731.931 295.326 725.235 304.503L716.911 301.539Z" fill="#E7967D"/>
<path d="M621.439 265.711C625.851 267.22 631.072 268.505 635.191 270.613C617.182 297.804 592.722 319.204 560.059 326.043C539.777 330.288 516.001 327.696 498.637 315.753C492.28 311.38 486.323 306.253 480.768 300.911L486.05 291.63C494.074 298.51 501.538 305.742 511.656 309.347C523.071 312.883 536.103 313.791 547.98 312.906C581.259 310.424 600.841 289.33 621.439 265.711Z" fill="#E7967D"/>
<path d="M586.515 108.909C595.386 105.727 599.388 105.516 608.324 109.813C611.538 111.392 614.715 113.04 617.856 114.755C641.535 137.466 652.9 162.117 653.604 195.193C654.187 222.55 647.312 246.396 635.191 270.613C631.072 268.505 625.851 267.22 621.439 265.711L622.474 263.593C626.933 257.077 630.805 250.814 632.892 243.133C644.43 200.739 638.119 160.347 616.14 122.817L586.515 108.909Z" fill="#E7967D"/>
<path d="M528.226 114.508C529.704 113.818 531.194 113.152 532.694 112.51C542.222 108.48 550.732 105.298 560.88 109.377C526.591 124.779 499.662 144.204 485.659 180.751C472.323 215.552 471.451 257.223 486.05 291.63L480.768 300.911C480.559 300.606 480.338 300.31 480.142 299.997C460.342 268.642 457.574 229.339 466.677 193.895C475.938 157.835 496.888 133.481 528.226 114.508Z" fill="#E7967D"/>
<path d="M431.737 97.9292C431.493 98.9475 431.268 99.969 431.007 100.981C429.871 105.36 427.481 108.519 424.807 112.074C426.552 114.225 428.034 116.343 430.248 118.031C429.639 118.845 429.044 119.668 428.425 120.471C416.079 136.494 398.64 142.766 388.076 162.029C368.442 197.838 358.249 243.679 369.93 283.695C376.685 306.829 388.428 323.255 405.811 339.577L397.211 345.937C387.874 337.869 380.055 328.574 372.695 318.691C343.764 279.83 352.325 236.561 358.741 192.063C371.764 154.611 397.1 118.139 431.737 97.9292Z" fill="#E7967D"/>
<path d="M560.88 109.377C570.008 110.5 577.485 110.149 586.515 108.909L616.14 122.817C638.119 160.347 644.43 200.739 632.892 243.133C630.805 250.814 626.933 257.077 622.474 263.593L621.439 265.711C600.841 289.33 581.259 310.424 547.98 312.906C536.103 313.791 523.071 312.883 511.656 309.347C501.538 305.742 494.074 298.51 486.05 291.63C471.451 257.223 472.323 215.552 485.659 180.751C499.662 144.204 526.591 124.779 560.88 109.377ZM511.656 309.347C523.071 312.883 536.103 313.791 547.98 312.906C581.259 310.424 600.841 289.33 621.439 265.711L622.474 263.593C626.011 248.66 629.069 231.151 620.953 217.029C615.847 208.15 608.087 202.535 598.148 200.229C579.256 195.843 558.73 203.521 543.118 213.886C524.227 226.427 508.556 245.602 504.173 268.235C501.222 283.477 504.183 295.856 511.656 309.347Z" fill="#634849"/>
<path d="M1025.41 25.9178C1057.16 17.9537 1094.22 23.7543 1126.98 20.3286C1135.67 21.3469 1144.33 21.4901 1151.09 27.7103C1156.36 36.2665 1156.2 45.1024 1156.7 54.8557C1155.51 69.193 1155.59 85.1341 1152.27 99.0809C1153.65 108.574 1156.32 119.668 1155.54 129.2C1158.23 154.501 1160.69 180.387 1158.73 205.841C1158.32 206.358 1157.88 206.865 1157.48 207.396C1147.93 220.054 1144.11 238.409 1138.93 253.287C1119.51 309.188 1078.29 333.581 1021.38 342.732C964.01 351.959 867.994 352.05 818.878 316.944C818.298 316.53 817.735 316.098 817.165 315.678L804.448 315.58C800.231 301.032 795.714 286.86 794.828 271.638C776.513 211.482 792.9 129.789 790.096 66.9319L785.716 56.8695C785.511 52.6337 786.364 48.912 787.127 44.7673C800.283 30.6578 826.232 31.1002 844.377 28.9271C870.762 26.5131 897.133 23.8682 923.622 22.8629C934.337 25.9828 940.788 28.143 948.532 36.6048L952.463 47.461L953.537 47.8579C958.601 54.602 956.331 71.6329 956.358 80.5144C970.914 65.211 997.065 38.0753 1018.59 34.5032L1025.41 25.9178ZM956.358 80.5144C956.331 71.6329 958.601 54.602 953.537 47.8579L952.463 47.461L948.532 36.6048C942.016 50.5126 938.085 63.6071 934.714 78.5494C929.865 134.047 920.89 189.021 917.751 244.665C917.718 254.074 916.65 263.56 922.691 271.433C930.709 277.686 940.683 278.314 950.427 279.846C969.976 279.641 983.797 276.622 1001.44 267.969C1014.5 260.024 1021.95 245.989 1029.56 233.263C1046.6 170.367 1054.34 101.843 1026.85 40.8146L1019.35 36.3738L1018.59 34.5032C997.065 38.0753 970.914 65.211 956.358 80.5144Z" fill="url(#paint7_linear_275_19007)"/>
<path d="M802.644 252.271C806.122 274.283 809.594 294.639 817.165 315.678L804.448 315.58C800.231 301.032 795.714 286.86 794.828 271.638L797.499 271.092C799.055 264.767 800.817 258.524 802.644 252.271Z" fill="#E7967D"/>
<path d="M1029.56 233.263L1034.07 239.252L1040.38 239.249C1032.79 260.34 1022.66 271.824 1002.05 281.343C978.271 292.332 945.015 295.765 920.157 286.385C915.654 284.684 911.804 281.99 908.082 278.991C908.639 278.265 909.173 277.523 909.746 276.814C918.067 266.54 911.195 255.281 917.751 244.665C917.718 254.074 916.65 263.56 922.691 271.433C930.709 277.686 940.683 278.314 950.427 279.846C969.976 279.641 983.797 276.622 1001.44 267.969C1014.5 260.024 1021.95 245.989 1029.56 233.263Z" fill="#D8836A"/>
<path d="M1025.41 25.9178C1057.16 17.9537 1094.22 23.7543 1126.98 20.3286C1135.67 21.3469 1144.33 21.4901 1151.09 27.7103C1156.36 36.2665 1156.2 45.1024 1156.7 54.8557C1155.51 69.193 1155.59 85.1341 1152.27 99.0809C1153.65 108.574 1156.32 119.668 1155.54 129.2C1153.96 135.469 1152.73 141.126 1152.14 147.581C1151.62 153.235 1150.54 155.275 1146.9 159.546C1132.52 163.828 1100.3 154.286 1084.16 152.409L1082.23 150.45C1091.55 149.695 1102.13 149.891 1110.97 146.771L1104.98 144.451C1089.23 145.733 1073.53 146.81 1057.99 149.816C1054.83 180.387 1050.66 210.158 1040.38 239.249L1034.07 239.252L1029.56 233.263C1046.6 170.367 1054.34 101.843 1026.85 40.8146L1019.35 36.3738L1018.59 34.5032L1025.41 25.9178Z" fill="#F4A17A"/>
<path d="M1126.98 20.3286C1135.67 21.3469 1144.33 21.4901 1151.09 27.7103C1156.36 36.2665 1156.2 45.1024 1156.7 54.8557C1155.51 69.193 1155.59 85.1341 1152.27 99.0809C1147.93 83.9824 1147.26 69.3654 1141.25 54.2214L1141.24 56.6581C1115.89 30.3097 1079.24 39.5425 1045.6 38.2379C1065.76 34.2332 1110.9 43.248 1126.06 32.8928C1125.47 29.1906 1124.9 26.4578 1126.1 22.8239C1126.37 21.9878 1126.68 21.1614 1126.98 20.3286Z" fill="#E7967D"/>
<path d="M1025.41 25.9178C1057.16 17.9537 1094.22 23.7543 1126.98 20.3286C1126.68 21.1614 1126.37 21.9878 1126.1 22.8239C1124.9 26.4578 1125.47 29.1906 1126.06 32.8928C1110.9 43.248 1065.76 34.2332 1045.6 38.2379C1039.47 38.547 1032.46 38.1534 1026.85 40.8146L1019.35 36.3738L1018.59 34.5032L1025.41 25.9178Z" fill="#BC736D"/>
<path d="M1141.24 56.6581L1141.25 54.2214C1147.26 69.3654 1147.93 83.9824 1152.27 99.0809C1153.65 108.574 1156.32 119.668 1155.54 129.2C1153.96 135.469 1152.73 141.126 1152.14 147.581C1151.62 153.235 1150.54 155.275 1146.9 159.546C1132.52 163.828 1100.3 154.286 1084.16 152.409L1082.23 150.45C1091.55 149.695 1102.13 149.891 1110.97 146.771L1104.98 144.451C1116.68 138.924 1130.76 142.733 1140.81 132.391C1139.55 109.176 1146.22 77.4693 1141.24 56.6581Z" fill="#D8836A"/>
<path d="M844.377 28.9271C870.762 26.5131 897.133 23.8682 923.622 22.8629C934.337 25.9828 940.788 28.143 948.532 36.6048C942.016 50.5126 938.085 63.6071 934.714 78.5494C929.865 134.047 920.89 189.021 917.751 244.665C911.195 255.281 918.067 266.54 909.746 276.814C909.173 277.523 908.639 278.265 908.082 278.991C898.303 239.73 909.873 192.57 910.449 152.08L908.502 128.809C907.587 132.788 906.613 136.656 905.411 140.56C878.737 150.883 837.209 133.881 806.747 138.921C805.64 153.974 805.015 169.231 803.341 184.219C803.159 206.699 804.194 229.889 802.644 252.271C800.817 258.524 799.055 264.767 797.499 271.092L794.828 271.638C776.513 211.482 792.9 129.789 790.096 66.9319L785.716 56.8695C785.511 52.6337 786.364 48.912 787.127 44.7673C800.283 30.6578 826.232 31.1002 844.377 28.9271Z" fill="#E7967D"/>
<path d="M844.377 28.9271C870.762 26.5131 897.133 23.8682 923.622 22.8629C934.337 25.9828 940.788 28.143 948.532 36.6048C942.016 50.5126 938.085 63.6071 934.714 78.5494C928.484 74.2128 925.218 73.1945 922.71 65.5525L913.504 37.4962C887.68 39.8255 808.476 40.3656 791.878 59.5274C790.288 61.3623 790.448 64.5701 790.096 66.9319L785.716 56.8695C785.511 52.6337 786.364 48.912 787.127 44.7673C800.283 30.6578 826.232 31.1002 844.377 28.9271Z" fill="#BC736D"/>
<path d="M923.622 22.8629C934.337 25.9828 940.788 28.143 948.532 36.6048C942.016 50.5126 938.085 63.6071 934.714 78.5494C928.484 74.2128 925.218 73.1945 922.71 65.5525C925.684 61.346 927.325 56.5962 928.595 51.6349C931.467 40.4176 929.282 32.6879 923.622 22.8629Z" fill="#D8836A"/>
<path d="M803.748 87.561C839.069 93.573 876.956 91.4487 912.833 94.4417C912.886 113.851 912.455 132.759 910.449 152.08L908.502 128.809C907.587 132.788 906.613 136.656 905.411 140.56C878.737 150.883 837.209 133.881 806.747 138.921C805.64 153.974 805.015 169.231 803.341 184.219C800.85 152.506 803.266 119.407 803.748 87.561Z" fill="#D8836A"/>
<path d="M948.532 36.6048L952.463 47.461C948.874 70.5854 950.469 96.2571 950.398 119.681C950.228 173.002 951.886 226.564 950.427 279.846C940.683 278.314 930.709 277.686 922.691 271.433C916.65 263.56 917.718 254.074 917.751 244.665C920.89 189.021 929.865 134.047 934.714 78.5494C938.085 63.6071 942.016 50.5126 948.532 36.6048Z" fill="#634849"/>
<path d="M1001.44 267.969C1009.46 191.643 1007.98 111.499 1019.35 36.3738L1026.85 40.8146C1054.34 101.843 1046.6 170.367 1029.56 233.263C1021.95 245.989 1014.5 260.024 1001.44 267.969Z" fill="#634849"/>
<path d="M431.737 97.9292C482.986 58.0179 567.093 40.0403 631.342 48.1963C675.566 53.8147 708.298 69.245 735.806 104.758L731.54 111.082C705.279 116.18 636.396 105.405 617.856 114.755C614.715 113.04 611.538 111.392 608.324 109.813C599.388 105.516 595.386 105.727 586.515 108.909C577.485 110.149 570.008 110.5 560.88 109.377C550.732 105.298 542.222 108.48 532.694 112.51C531.194 113.152 529.704 113.818 528.226 114.508C517.085 111.792 505.782 110.432 494.39 109.309C472.665 107.172 448.052 103.372 430.248 118.031C428.034 116.343 426.552 114.225 424.807 112.074C427.481 108.519 429.871 105.36 431.007 100.981C431.268 99.969 431.493 98.9475 431.737 97.9292Z" fill="#D8836A"/>
<defs>
<linearGradient id="paint0_linear_275_19007" x1="1194.35" y1="591.352" x2="1164.06" y2="36.3004" gradientUnits="userSpaceOnUse">
<stop stop-color="#8C5245"/>
<stop offset="1" stop-color="#D28F71"/>
</linearGradient>
<linearGradient id="paint1_linear_275_19007" x1="996.554" y1="562.034" x2="995.721" y2="12.8194" gradientUnits="userSpaceOnUse">
<stop stop-color="#925E55"/>
<stop offset="1" stop-color="#BD7D6A"/>
</linearGradient>
<linearGradient id="paint2_linear_275_19007" x1="1111.67" y1="540.138" x2="1086.44" y2="-21.7251" gradientUnits="userSpaceOnUse">
<stop stop-color="#C48268"/>
<stop offset="1" stop-color="#FDB28C"/>
</linearGradient>
<linearGradient id="paint3_linear_275_19007" x1="1094.01" y1="573.391" x2="1092.52" y2="154.561" gradientUnits="userSpaceOnUse">
<stop stop-color="#8B5444"/>
<stop offset="1" stop-color="#C47E64"/>
</linearGradient>
<linearGradient id="paint4_linear_275_19007" x1="1317.56" y1="520.555" x2="1091.58" y2="-259.653" gradientUnits="userSpaceOnUse">
<stop stop-color="#BC745A"/>
<stop offset="1" stop-color="#E79778"/>
</linearGradient>
<linearGradient id="paint5_linear_275_19007" x1="1078.85" y1="565.276" x2="1065.66" y2="87.7444" gradientUnits="userSpaceOnUse">
<stop stop-color="#80483F"/>
<stop offset="1" stop-color="#E39268"/>
</linearGradient>
<linearGradient id="paint6_linear_275_19007" x1="975.03" y1="585.636" x2="979.785" y2="24.7743" gradientUnits="userSpaceOnUse">
<stop stop-color="#8C5A4B"/>
<stop offset="1" stop-color="#CC8B6E"/>
</linearGradient>
<linearGradient id="paint7_linear_275_19007" x1="975.726" y1="590.468" x2="984.618" y2="225.9" gradientUnits="userSpaceOnUse">
<stop stop-color="#895850"/>
<stop offset="1" stop-color="#CA8968"/>
</linearGradient>
</defs>
</svg>
