<svg width="400" height="400" viewBox="0 0 400 400" fill="none" xmlns="http://www.w3.org/2000/svg">
<path d="M0 0H159.807H179.063H215.844H250.167H400V263.956V273.83V274.571V400H189.396H161.81H0V259.912V257.871V256.938V0ZM0 0V256.938V257.871C2.54186 257.731 5.07254 258.15 7.61258 258.214L88.0156 260.913C88.3805 260.803 88.8148 260.79 89.1953 260.741C96.1234 259.928 171.551 242.166 174.097 240.357L174.007 240.11L174.41 240.213C174.976 241.829 174.779 244.081 174.996 245.807C175.308 248.294 175.886 250.821 176.478 253.258C180.67 270.513 190.99 287.407 207.455 295.271C209.049 296.041 210.684 296.71 212.36 297.28C214.036 297.849 215.74 298.314 217.473 298.675C220.496 295.332 222.427 288.247 223.248 283.889C225.69 270.928 222.915 256.246 215.382 245.327C212.964 241.821 209.845 238.888 206.437 236.359C195.761 228.437 183.587 225.922 170.832 223.577C158.24 222.138 146.34 223.778 134.048 226.521L133.647 170.798C134.169 170.536 134.693 170.343 135.245 170.154C138.262 168.752 141.724 167.788 144.857 166.626C151.586 164.155 158.247 161.514 164.841 158.704C168.569 157.089 172.217 155.311 175.786 153.37C178.137 152.096 180.343 150.17 182.947 149.473C186.287 148.579 190.055 148.6 193.5 148.316C198.796 147.879 204.104 147.3 209.42 147.178C209.534 147.128 209.657 147.095 209.763 147.029C211.839 145.757 215.045 135.03 215.593 132.665C216.159 130.205 216.546 127.717 216.755 125.202C217.491 116.743 216.317 107.861 211.74 100.559C210.109 97.9578 208.085 95.6348 206.114 93.291C201.663 88.2324 195.759 82.8422 189.577 80.1336C186.428 76.8762 174.357 74.4953 169.664 73.7418C169.731 73.7188 169.8 73.7016 169.864 73.6719C170.359 73.4453 170.882 72.6398 171.386 72.5883C172.203 72.5039 173.257 72.6977 174.092 72.7375C175.712 72.8148 177.332 72.8275 178.954 72.7754C180.973 72.7109 182.896 71.9941 184.894 71.8531C188.79 71.5785 192.83 72.0273 196.734 72.1145L196.941 72.916C198.148 73.3219 201.53 71.5855 202.34 71.7492C202.611 71.8039 202.727 72.0953 202.835 72.307C208.897 71.8121 214.855 72.5348 220.903 72.5312C225.56 72.4914 230.218 72.504 234.875 72.5691C237.165 72.6238 239.446 72.8773 241.736 72.9148L279.011 73.307C280.652 73.3242 282.33 73.2906 283.964 73.427C285.349 73.5422 287.151 74.0129 288.5 73.8688C288.973 73.8184 289.417 73.6469 289.861 73.4852C290.321 73.6426 290.632 73.8285 291.024 74.1164C291.172 74.05 291.344 73.9355 291.482 73.8781C291.524 73.8605 291.875 73.7742 291.923 73.7621C292.455 74.4461 292.705 74.5207 293.498 74.7543C292.26 72.4836 290.73 70.3465 289.283 68.2043C289.866 68.6758 290.619 69.0527 291.246 69.4836C294.398 68.3852 297.599 67.3824 300.903 66.8684C301.522 66.7723 302.109 66.7703 302.66 66.4586L302.627 65.6383L303.597 67.2856C305.012 70.777 307.166 74.0281 308.746 77.4676C309.011 77.7477 309.301 78.0031 309.585 78.2652C310.67 78.5723 313.846 77.009 315.065 76.6852C318.07 75.8871 321.254 75.4328 324.308 74.8387L348.731 69.9969C353.191 69.0676 357.589 67.8832 362.087 67.132C363.798 66.8461 365.899 66.3359 367.611 66.3918C368.759 66.4297 370.545 67.1313 371.575 66.575L371.405 65.5969C371.015 63.9266 369.621 61.9859 368.738 60.4883C368.243 59.5063 367.684 58.5555 367.127 57.6074C361.727 48.4109 354.523 40.643 346.4 33.7834C327.718 18.0082 305.789 8.26957 281.791 3.97051C274.847 2.76683 267.874 1.76194 260.873 0.955832C257.634 0.60823 253.381 0.885805 250.343 0.0520121C250.284 0.0358314 250.225 0.0173374 250.167 0H215.844H179.063H159.807H0ZM0 259.912V400H161.81H189.396H400V274.571V273.83C399.141 274.706 399.301 275.216 399.309 276.429L399.117 276.411L399.082 276.234C398.996 275.837 398.988 275.646 398.723 275.321C398.371 275.68 398.27 276.281 397.973 276.575C397.746 276.8 395.949 276.948 395.516 277.083C393.535 277.7 391.637 278.693 389.778 279.611L350.271 299.361C346.819 301.083 343.286 302.717 339.886 304.537C338.647 305.2 336.505 307.079 335.152 307.193C334.752 307.227 334.359 307.08 333.996 306.932L333.673 307.174C333.611 305.839 334.688 303.673 335.016 302.3C335.514 300.221 335.965 298.132 336.369 296.033C336.649 294.502 336.762 292.772 337.269 291.312C337.519 290.591 337.539 289.552 337.522 288.792L337.212 288.763L337.184 288.288L337.502 288.584L337.428 288.439C337.44 288.702 337.48 288.782 337.359 289.014C336.877 289.94 336.337 295.06 336.017 296.622C334.719 302.964 331.857 313.355 328.652 318.893C328.584 318.972 328.514 319.051 328.448 319.132C327.404 320.394 326.654 322.357 325.865 323.817C324.809 325.763 323.69 327.672 322.509 329.545C318.488 336.032 313.778 341.729 308.72 347.423C308.041 348.188 306.013 350.89 305.105 351.055C304.258 351.209 302.775 350.393 301.92 350.124C299.666 349.417 297.254 349.455 295.258 347.897C294.806 347.544 294.663 347.305 294.527 346.758C294.831 346.021 296.068 345.44 296.116 344.71C296.05 344.745 295.98 344.775 295.918 344.814C295.034 345.374 294.226 346.511 293.482 347.268C293.216 347.027 293.341 347.185 293.169 346.751C289.175 347.068 284.812 346.621 280.796 346.336C279.936 346.275 279.04 346.053 278.183 346.067C277.452 346.079 275.718 346.624 275.142 346.305C275.068 346.264 274.821 346.008 274.754 345.941C274.157 346.063 273.447 346.35 272.854 346.383C271.501 346.461 270.354 345.925 268.977 346.183C268.405 346.29 267.925 346.576 267.43 346.233C267.314 346.152 267.204 346.062 267.092 345.974C266.539 346.029 264.895 346.559 264.611 346.344C264.39 346.177 264.336 346.13 264.033 346.066C262.755 345.798 260.377 346.064 258.972 346.009C257.339 345.944 255.631 345.651 254.019 345.655C252.416 345.659 250.835 345.948 249.221 345.933C247.984 345.921 246.502 345.558 245.305 345.754C245.001 345.804 244.704 345.935 244.43 346.073L243.887 345.575C243.66 345.712 243.461 345.916 243.204 345.989C242.543 346.177 232.18 345.335 230.336 345.325C227.685 345.311 225.116 345.798 222.469 345.4C221.159 345.203 219.362 345.985 218.251 345.472C217.321 345.043 215.538 345.298 214.496 345.304C212.257 345.317 210.076 344.978 207.862 344.898C206.395 344.844 204.755 345.57 203.427 344.897C203.11 344.736 202.779 344.598 202.458 344.443L202.255 344.911L202.479 344.438C202.221 344.596 201.752 344.98 201.481 345.049C200.767 345.228 197.766 344.754 197.401 345.163C197.263 345.317 197.116 345.464 196.968 345.609L196.43 345.068C192.082 345.106 187.813 344.712 183.475 344.544C180.852 344.442 177.943 344.792 175.209 344.725C171.9 344.643 168.582 344.336 165.273 344.657C164.896 344.359 164.92 344.251 164.418 344.282C162.38 344.405 160.391 344.132 158.362 344.155C156.59 344.175 154.822 344.342 153.046 344.353C149.755 344.374 146.468 344.204 143.179 344.114C140.864 344.052 138.125 343.493 135.905 343.942C135.099 344.105 134.507 343.667 133.73 343.688C131.784 343.739 129.857 344.052 127.889 344.023C126.533 344.004 125.226 343.711 123.836 343.722C121.285 343.742 118.483 344.043 115.986 343.539C112.917 342.918 109.438 343.593 106.318 343.557C100.227 343.487 94.1645 343.12 88.0875 342.937C86.3227 342.884 84.4832 343.554 82.8281 342.988C81.7051 342.604 79.302 343.114 78.0324 343.112C73.5 343.108 68.9805 342.742 64.4547 342.624C62.4082 342.571 60.1437 342.937 58.1469 342.646C57.398 342.537 56.6176 342.735 55.8859 342.567C54.7793 342.312 53.7578 343.174 52.5551 342.676C51.8906 342.4 47.4594 342.434 46.832 342.597C46.7602 342.615 46.6867 342.63 46.6145 342.647L46.2719 342.43L46.1242 342.705L45.7359 342.427C44.927 343.018 44.1473 343.804 43.1621 343.886C43.0301 343.897 42.9062 343.957 42.7781 343.992C42.834 344.36 42.9004 344.59 43.0891 344.911C42.6336 345.366 42.4836 344.969 42.2191 345.692C42.7383 347.873 48.2418 350.72 48.7461 352.903C45.9832 350.468 43.407 347.759 40.8668 345.096C39.8103 343.986 38.7708 342.859 37.7485 341.718C36.7261 340.576 35.7214 339.419 34.7342 338.246C33.747 337.074 32.7779 335.887 31.8268 334.685C30.8757 333.483 29.9431 332.267 29.029 331.037C28.1148 329.806 27.2196 328.563 26.3433 327.305C25.4669 326.048 24.6099 324.777 23.7722 323.494C22.9345 322.21 22.1164 320.915 21.3181 319.606C20.5197 318.298 19.7414 316.978 18.9832 315.646C18.225 314.314 17.4872 312.97 16.7698 311.616C16.0524 310.262 15.3557 308.897 14.6798 307.521C14.0039 306.146 13.349 304.76 12.7152 303.364C12.0814 301.969 11.4689 300.564 10.8778 299.15C10.2867 297.736 9.71715 296.313 9.16926 294.882C8.62137 293.45 8.09535 292.011 7.59121 290.564C7.08707 289.116 6.60504 287.662 6.14512 286.2C5.68519 284.737 5.24758 283.269 4.83227 281.793C3.60984 277.529 2.37919 273.208 1.52342 268.852C0.956125 265.964 0.709137 263.004 0.053152 260.137L0 259.912ZM250.167 0C250.225 0.0173374 250.284 0.0358314 250.343 0.0520121C253.381 0.885805 257.634 0.60823 260.873 0.955832C267.874 1.76194 274.847 2.76683 281.791 3.97051C305.789 8.26957 327.718 18.0082 346.4 33.7834C354.523 40.643 361.727 48.4109 367.127 57.6074C367.684 58.5555 368.243 59.5063 368.738 60.4883C369.621 61.9859 371.015 63.9266 371.405 65.5969L371.575 66.575C370.545 67.1313 368.759 66.4297 367.611 66.3918C365.899 66.3359 363.798 66.8461 362.087 67.132C357.589 67.8832 353.191 69.0676 348.731 69.9969L324.308 74.8387C321.254 75.4328 318.07 75.8871 315.065 76.6852C313.846 77.009 310.67 78.5723 309.585 78.2652C309.301 78.0031 309.011 77.7477 308.746 77.4676C310.321 81.3371 311.873 85.2145 313.036 89.232C316.756 102.091 317.472 116.465 315.211 129.655C313.069 142.366 308.943 154.789 301.552 165.463C299.385 168.593 296.896 171.509 294.431 174.405C292.084 177.161 289.27 179.69 286.616 182.151C284.843 183.795 282.092 185.779 280.917 187.916C280.648 188.406 280.67 188.599 280.932 189.039L281.403 189.188C288.968 188.27 296.409 186.857 303.94 185.741C317.182 183.911 330.403 181.935 343.602 179.813C345.201 180.545 346.729 181.74 348.402 182.254C370.748 195.24 386.36 213.18 394.77 237.698C396.547 243.495 397.859 249.206 398.82 255.195C399.277 258.038 399.16 261.216 400 263.956V0H250.167Z" fill="url(#paint0_linear_323_7007)"/>
<path d="M170.832 223.577C170.914 223.532 170.994 223.482 171.079 223.441C173.745 222.155 193.306 228.217 196.713 229.679C207.219 234.186 216.806 242.971 221.072 253.72C225.804 265.643 226.625 281.885 221.454 293.727C215.081 308.322 200.724 320.078 186.034 325.765C168.158 332.685 148.68 331.163 131.346 323.411C113.703 315.519 100.329 302.224 93.4625 284.087C90.7059 276.805 88.7887 268.658 88.0156 260.913C88.3805 260.803 88.8148 260.79 89.1953 260.741C89.8242 264.518 90.3231 268.278 91.1734 272.017C94.1641 285.158 100.079 297.76 109.791 307.283C113.056 310.485 116.76 313.274 120.478 315.925C122.293 317.219 124.495 318.558 126.547 319.438C142.125 328.281 162.604 331.754 179.937 326.8C181.018 326.491 182.153 326.064 183.076 325.417C183.3 325.404 183.521 325.368 183.742 325.332C186.239 324.915 188.656 323.465 190.886 322.312C202.712 316.196 209.755 309.392 217.473 298.675C220.496 295.332 222.427 288.247 223.248 283.889C225.69 270.928 222.915 256.246 215.382 245.327C212.964 241.821 209.845 238.888 206.437 236.359C195.761 228.437 183.587 225.922 170.832 223.577Z" fill="#BB8A74"/>
<path d="M135.245 170.154C138.262 168.752 141.724 167.788 144.857 166.626C151.586 164.155 158.247 161.514 164.841 158.704C168.569 157.089 172.217 155.311 175.786 153.37C178.137 152.096 180.343 150.17 182.947 149.473C186.287 148.579 190.055 148.6 193.5 148.316C198.796 147.879 204.104 147.3 209.42 147.178C209.072 147.395 209.06 147.345 208.879 147.739C208.236 149.147 206.873 150.613 205.852 151.779C199.682 158.821 191.549 163.638 182.743 166.655C170.372 170.893 157.129 171.093 144.192 170.979C142.013 170.96 137.463 171.236 135.499 170.297C135.411 170.255 135.33 170.201 135.245 170.154Z" fill="#BB8A74"/>
<path d="M291.246 69.4836C294.398 68.3852 297.599 67.3824 300.903 66.8684C301.522 66.7723 302.109 66.7703 302.66 66.4586L302.627 65.6383L303.597 67.2856C305.012 70.777 307.166 74.0281 308.746 77.4676C310.321 81.3371 311.873 85.2145 313.036 89.232C316.756 102.091 317.472 116.465 315.211 129.655C313.069 142.366 308.943 154.789 301.552 165.463C299.385 168.593 296.896 171.509 294.431 174.405C292.084 177.161 289.27 179.69 286.616 182.151C284.843 183.795 282.092 185.779 280.917 187.916C280.648 188.406 280.67 188.599 280.932 189.039L281.403 189.188C279.922 189.514 278.12 189.378 276.599 189.417L265.874 189.703C263.848 189.758 261.615 189.655 259.623 190.006C259.465 190.019 259.323 190.034 259.161 190.027C258.669 190.007 258.53 190.061 258.193 189.697C258.554 188.772 259.846 188.157 260.649 187.646C264.197 185.386 267.526 182.718 270.84 180.135C275.705 176.343 280.567 172.352 284.624 167.679C293.179 157.827 298.715 144.185 301.497 131.533C305.614 112.814 303.993 91.193 293.498 74.7543C292.26 72.4836 290.73 70.3465 289.283 68.2043C289.866 68.6758 290.619 69.0527 291.246 69.4836Z" fill="url(#paint1_linear_323_7007)"/>
<path d="M174.007 240.11L174.41 240.213C174.976 241.829 174.779 244.081 174.996 245.807C175.308 248.294 175.886 250.821 176.478 253.258C180.67 270.513 190.99 287.407 207.455 295.271C209.049 296.041 210.684 296.71 212.36 297.28C214.036 297.849 215.74 298.314 217.473 298.675C209.755 309.392 202.712 316.196 190.886 322.312C188.656 323.465 186.239 324.915 183.742 325.332C183.521 325.368 183.3 325.404 183.076 325.417C182.153 326.064 181.018 326.491 179.937 326.8C162.604 331.754 142.125 328.281 126.547 319.438C124.495 318.558 122.293 317.219 120.478 315.925C116.76 313.274 113.056 310.485 109.791 307.283C100.079 297.76 94.1641 285.158 91.1734 272.017C90.3231 268.278 89.8242 264.518 89.1953 260.741C96.1234 259.928 171.551 242.166 174.097 240.357L174.007 240.11Z" fill="url(#paint2_linear_323_7007)"/>
<path d="M125.939 300.67C126.018 300.723 126.098 300.776 126.176 300.83C127.964 302.077 129.389 303.865 130.932 305.394C132.436 306.884 134.106 308.161 135.818 309.4C136.453 309.862 137.095 310.315 137.743 310.758C138.391 311.202 139.046 311.636 139.707 312.06C140.368 312.485 141.035 312.899 141.708 313.305C142.381 313.71 143.06 314.105 143.744 314.491C144.429 314.876 145.118 315.251 145.814 315.617C146.509 315.982 147.21 316.337 147.915 316.682C148.621 317.027 149.332 317.362 150.047 317.687C150.762 318.011 151.482 318.326 152.207 318.629C152.931 318.933 153.66 319.226 154.393 319.508C155.126 319.791 155.863 320.062 156.604 320.323C157.344 320.585 158.089 320.835 158.837 321.074C159.585 321.314 160.336 321.542 161.091 321.76C161.846 321.978 162.604 322.185 163.364 322.38C164.125 322.576 164.889 322.761 165.655 322.934C166.421 323.108 167.189 323.27 167.96 323.421C168.731 323.573 169.504 323.713 170.279 323.842C174.515 324.52 178.866 324.63 183.076 325.417C182.153 326.064 181.018 326.491 179.937 326.8C162.604 331.754 142.125 328.281 126.547 319.438C127.23 319.477 127.928 319.64 128.54 319.323C130.872 315.764 130.075 309.873 130.691 305.803C129.214 303.988 127.372 302.513 125.939 300.67Z" fill="url(#paint3_linear_323_7007)"/>
<path d="M343.602 179.813C345.201 180.545 346.729 181.74 348.402 182.254C370.748 195.24 386.36 213.18 394.77 237.698C396.547 243.495 397.859 249.206 398.82 255.195C399.277 258.038 399.16 261.216 400 263.956V273.83C399.141 274.706 399.301 275.216 399.309 276.429L399.117 276.411L399.082 276.234C398.996 275.837 398.988 275.646 398.723 275.321C398.371 275.68 398.27 276.281 397.973 276.575C397.746 276.8 395.949 276.948 395.516 277.083C393.535 277.7 391.637 278.693 389.778 279.611L350.271 299.361C346.819 301.083 343.286 302.717 339.886 304.537C338.647 305.2 336.505 307.079 335.152 307.193C334.752 307.227 334.359 307.08 333.996 306.932L333.673 307.174C333.611 305.839 334.688 303.673 335.016 302.3C335.514 300.221 335.965 298.132 336.369 296.033C336.649 294.502 336.762 292.772 337.269 291.312C337.519 290.591 337.539 289.552 337.522 288.792L337.212 288.763L337.184 288.288L337.502 288.584L337.428 288.439C337.44 288.702 337.48 288.782 337.359 289.014C336.877 289.94 336.337 295.06 336.017 296.622C334.719 302.964 331.857 313.355 328.652 318.893C328.584 318.972 328.514 319.051 328.448 319.132C327.404 320.394 326.654 322.357 325.865 323.817C324.809 325.763 323.69 327.672 322.509 329.545C318.488 336.032 313.778 341.729 308.72 347.423C308.041 348.188 306.013 350.89 305.105 351.055C304.258 351.209 302.775 350.393 301.92 350.124C299.666 349.417 297.254 349.455 295.258 347.897C294.806 347.544 294.663 347.305 294.527 346.758C294.831 346.021 296.068 345.44 296.116 344.71C296.898 344.056 297.628 343.31 298.321 342.562C303.908 336.539 309.011 329.931 313.095 322.791C314.214 320.835 315.059 318.708 316.015 316.668C318.4 311.581 320.62 306.362 322.271 300.984C324.485 293.776 326.039 282.568 325.752 275.043C324.937 253.666 316.504 236.225 302.307 220.485C296.265 213.786 289.816 207.979 282.23 203.077C279.34 201.209 276.424 199.18 273.414 197.522C270.695 196.023 261.643 191.955 259.907 190.346L259.966 190.063L259.623 190.006C261.615 189.655 263.848 189.758 265.874 189.703L276.599 189.417C278.12 189.378 279.922 189.514 281.403 189.188C288.968 188.27 296.409 186.857 303.94 185.741C317.182 183.911 330.403 181.935 343.602 179.813Z" fill="#8B6156"/>
<path d="M343.602 179.813C345.201 180.545 346.729 181.74 348.402 182.254C370.748 195.24 386.36 213.18 394.77 237.698C394.703 237.713 394.637 237.73 394.57 237.745C394.457 237.769 394.344 237.79 394.234 237.813C391.469 238.391 388.574 238.143 385.768 238.603L354.313 243.874C347.107 245.077 339.781 246.021 332.717 247.908C331.334 244.228 329.607 240.78 327.783 237.306C321.802 225.917 314.613 216.538 305.434 207.513C300.524 202.686 294.536 197.727 288.73 194.077C287.07 193.032 285.291 192.28 283.602 191.306C282.885 190.892 281.908 189.73 281.174 189.551C279.932 189.249 277.794 189.602 276.477 189.635C270.974 189.776 265.47 190.019 259.966 190.063L259.623 190.006C261.615 189.655 263.848 189.758 265.874 189.703L276.599 189.417C278.12 189.378 279.922 189.514 281.403 189.188C288.968 188.27 296.409 186.857 303.94 185.741C317.182 183.911 330.403 181.935 343.602 179.813Z" fill="#BB8A74"/>
<path d="M371.405 65.5969C372.774 67.907 373.828 70.4938 374.815 72.9887C375.421 74.5525 375.988 76.1302 376.515 77.7219C377.043 79.3138 377.53 80.9177 377.978 82.5336C378.426 84.1497 378.834 85.7759 379.201 87.4121C379.568 89.0486 379.894 90.693 380.179 92.3453C380.465 93.9979 380.709 95.6565 380.912 97.3211C381.115 98.9857 381.277 100.654 381.397 102.327C381.517 104 381.596 105.674 381.633 107.351C381.67 109.027 381.665 110.704 381.619 112.38C381.559 114.475 381.601 116.795 381.239 118.852C379.803 140.113 370.02 164.011 353.753 178.2C352.054 179.682 350.296 181.03 348.402 182.254C346.729 181.74 345.201 180.545 343.602 179.813C330.403 181.935 317.182 183.911 303.94 185.741C296.409 186.857 288.968 188.27 281.403 189.188L280.932 189.039C280.67 188.599 280.648 188.406 280.917 187.916C282.092 185.779 284.843 183.795 286.616 182.151C289.27 179.69 292.084 177.161 294.431 174.405C296.896 171.509 299.385 168.593 301.552 165.463C308.943 154.789 313.069 142.366 315.211 129.655C317.472 116.465 316.756 102.091 313.036 89.232C311.873 85.2145 310.321 81.3371 308.746 77.4676C309.011 77.7477 309.301 78.0031 309.585 78.2652C310.67 78.5723 313.846 77.009 315.065 76.6852C318.07 75.8871 321.254 75.4328 324.308 74.8387L348.731 69.9969C353.191 69.0676 357.589 67.8832 362.087 67.132C363.798 66.8461 365.899 66.3359 367.611 66.3918C368.759 66.4297 370.545 67.1313 371.575 66.575L371.405 65.5969Z" fill="url(#paint4_linear_323_7007)"/>
<path d="M371.405 65.5969C372.774 67.907 373.828 70.4938 374.815 72.9887C375.421 74.5525 375.988 76.1302 376.515 77.7219C377.043 79.3138 377.53 80.9177 377.978 82.5336C378.426 84.1497 378.834 85.7759 379.201 87.4121C379.568 89.0486 379.894 90.693 380.179 92.3453C380.465 93.9979 380.709 95.6565 380.912 97.3211C381.115 98.9857 381.277 100.654 381.397 102.327C381.517 104 381.596 105.674 381.633 107.351C381.67 109.027 381.665 110.704 381.619 112.38C381.559 114.475 381.601 116.795 381.239 118.852L381.052 118.613C380.875 118.384 380.769 118.196 380.63 117.935C380.291 117.302 379.717 116.58 378.992 116.39C377.799 116.076 374.148 116.968 372.812 117.21C361.639 119.236 350.497 121.712 339.368 123.981L324.139 127.08C322.175 127.479 320.146 127.748 318.202 128.212C317.288 128.43 316.12 128.901 315.377 129.497C315.318 129.545 315.266 129.602 315.211 129.655C317.472 116.465 316.756 102.091 313.036 89.232C311.873 85.2145 310.321 81.3371 308.746 77.4676C309.011 77.7477 309.301 78.0031 309.585 78.2652C310.67 78.5723 313.846 77.009 315.065 76.6852C318.07 75.8871 321.254 75.4328 324.308 74.8387L348.731 69.9969C353.191 69.0676 357.589 67.8832 362.087 67.132C363.798 66.8461 365.899 66.3359 367.611 66.3918C368.759 66.4297 370.545 67.1313 371.575 66.575L371.405 65.5969Z" fill="url(#paint5_linear_323_7007)"/>
<path d="M0 259.912L0.053152 260.137C0.709137 263.004 0.956125 265.964 1.52342 268.852C2.37919 273.208 3.60984 277.529 4.83227 281.793C5.24758 283.269 5.68519 284.737 6.14512 286.2C6.60504 287.662 7.08707 289.116 7.59121 290.564C8.09535 292.011 8.62137 293.45 9.16926 294.882C9.71715 296.313 10.2867 297.736 10.8778 299.15C11.4689 300.564 12.0814 301.969 12.7152 303.364C13.349 304.76 14.0039 306.146 14.6798 307.521C15.3557 308.897 16.0524 310.262 16.7698 311.616C17.4872 312.97 18.225 314.314 18.9832 315.646C19.7414 316.978 20.5197 318.298 21.3181 319.606C22.1164 320.915 22.9345 322.21 23.7722 323.494C24.6099 324.777 25.4669 326.048 26.3433 327.305C27.2196 328.563 28.1148 329.806 29.029 331.037C29.9431 332.267 30.8757 333.483 31.8268 334.685C32.7779 335.887 33.747 337.074 34.7342 338.246C35.7214 339.419 36.7261 340.576 37.7485 341.718C38.7708 342.859 39.8103 343.986 40.8668 345.096C43.407 347.759 45.9832 350.468 48.7461 352.903C48.2418 350.72 42.7383 347.873 42.2191 345.692C42.4836 344.969 42.6336 345.366 43.0891 344.911C42.9004 344.59 42.834 344.36 42.7781 343.992C42.9062 343.957 43.0301 343.897 43.1621 343.886C44.1473 343.804 44.927 343.018 45.7359 342.427L46.1242 342.705L46.2719 342.43L46.6145 342.647C46.6867 342.63 46.7602 342.615 46.832 342.597C47.4594 342.434 51.8906 342.4 52.5551 342.676C53.7578 343.174 54.7793 342.312 55.8859 342.567C56.6176 342.735 57.398 342.537 58.1469 342.646C60.1437 342.937 62.4082 342.571 64.4547 342.624C68.9805 342.742 73.5 343.108 78.0324 343.112C79.302 343.114 81.7051 342.604 82.8281 342.988C84.4832 343.554 86.3227 342.884 88.0875 342.937C94.1645 343.12 100.227 343.487 106.318 343.557C109.438 343.593 112.917 342.918 115.986 343.539C118.483 344.043 121.285 343.742 123.836 343.722C125.226 343.711 126.533 344.004 127.889 344.023C129.857 344.052 131.784 343.739 133.73 343.688C134.507 343.667 135.099 344.105 135.905 343.942C138.125 343.493 140.864 344.052 143.179 344.114C146.468 344.204 149.755 344.374 153.046 344.353C154.822 344.342 156.59 344.175 158.362 344.155C160.391 344.132 162.38 344.405 164.418 344.282C164.92 344.251 164.896 344.359 165.273 344.657C168.582 344.336 171.9 344.643 175.209 344.725C177.943 344.792 180.852 344.442 183.475 344.544C187.813 344.712 192.082 345.106 196.43 345.068L196.968 345.609C197.116 345.464 197.263 345.317 197.401 345.163C197.766 344.754 200.767 345.228 201.481 345.049C201.752 344.98 202.221 344.596 202.479 344.438L202.255 344.911L202.458 344.443C202.779 344.598 203.11 344.736 203.427 344.897C204.755 345.57 206.395 344.844 207.862 344.898C210.076 344.978 212.257 345.317 214.496 345.304C215.538 345.298 217.321 345.043 218.251 345.472C219.362 345.985 221.159 345.203 222.469 345.4C225.116 345.798 227.685 345.311 230.336 345.325C232.18 345.335 242.543 346.177 243.204 345.989C243.461 345.916 243.66 345.712 243.887 345.575L244.43 346.073C244.704 345.935 245.001 345.804 245.305 345.754C246.502 345.558 247.984 345.921 249.221 345.933C250.835 345.948 252.416 345.659 254.019 345.655C255.631 345.651 257.339 345.944 258.972 346.009C260.377 346.064 262.755 345.798 264.033 346.066C264.336 346.13 264.39 346.177 264.611 346.344C264.895 346.559 266.539 346.029 267.092 345.974C267.204 346.062 267.314 346.152 267.43 346.233C267.925 346.576 268.405 346.29 268.977 346.183C270.354 345.925 271.501 346.461 272.854 346.383C273.447 346.35 274.157 346.063 274.754 345.941C274.821 346.008 275.068 346.264 275.142 346.305C275.718 346.624 277.452 346.079 278.183 346.067C279.04 346.053 279.936 346.275 280.796 346.336C284.812 346.621 289.175 347.068 293.169 346.751C293.341 347.185 293.216 347.027 293.482 347.268C294.226 346.511 295.034 345.374 295.918 344.814C295.98 344.775 296.05 344.745 296.116 344.71C296.068 345.44 294.831 346.021 294.527 346.758C294.663 347.305 294.806 347.544 295.258 347.897C297.254 349.455 299.666 349.417 301.92 350.124C302.775 350.393 304.258 351.209 305.105 351.055C306.013 350.89 308.041 348.188 308.72 347.423C313.778 341.729 318.488 336.032 322.509 329.545C323.69 327.672 324.809 325.763 325.865 323.817C326.654 322.357 327.404 320.394 328.448 319.132C328.514 319.051 328.584 318.972 328.652 318.893C331.857 313.355 334.719 302.964 336.017 296.622C336.337 295.06 336.877 289.94 337.359 289.014C337.48 288.782 337.44 288.702 337.428 288.439L337.502 288.584L337.184 288.288L337.212 288.763L337.522 288.792C337.539 289.552 337.519 290.591 337.269 291.312C336.762 292.772 336.649 294.502 336.369 296.033C335.965 298.132 335.514 300.221 335.016 302.3C334.688 303.673 333.611 305.839 333.673 307.174L333.996 306.932C334.359 307.08 334.752 307.227 335.152 307.193C336.505 307.079 338.647 305.2 339.886 304.537C343.286 302.717 346.819 301.083 350.271 299.361L389.778 279.611C391.637 278.693 393.535 277.7 395.516 277.083C395.949 276.948 397.746 276.8 397.973 276.575C398.27 276.281 398.371 275.68 398.723 275.321C398.988 275.646 398.996 275.837 399.082 276.234L399.117 276.411L399.309 276.429C399.301 275.216 399.141 274.706 400 273.83V274.571V400H189.396H161.81H0V259.912ZM328.652 318.893C327.534 322.513 325.008 326.29 323.007 329.498C310.425 349.675 290.063 367.762 269.082 378.831C262.861 382.174 256.459 385.126 249.878 387.688C246.694 388.921 241.253 390.151 238.59 391.762L238.573 391.965C240.038 391.801 240.85 390.466 242.43 391.117C242.723 391.508 242.645 391.953 242.635 392.418C240.401 392.57 238.098 392.633 235.887 392.992C231.486 393.707 227.153 395 222.773 395.867C214.223 397.562 205.46 398.934 196.754 399.438C194.641 399.559 191.323 399.398 189.396 400H400V274.571V273.83C399.141 274.706 399.301 275.216 399.309 276.429L399.117 276.411L399.082 276.234C398.996 275.837 398.988 275.646 398.723 275.321C398.371 275.68 398.27 276.281 397.973 276.575C397.746 276.8 395.949 276.948 395.516 277.083C393.535 277.7 391.637 278.693 389.778 279.611L350.271 299.361C346.819 301.083 343.286 302.717 339.886 304.537C338.647 305.2 336.505 307.079 335.152 307.193C334.752 307.227 334.359 307.08 333.996 306.932L333.673 307.174C333.611 305.839 334.688 303.673 335.016 302.3C335.514 300.221 335.965 298.132 336.369 296.033C336.649 294.502 336.762 292.772 337.269 291.312C337.519 290.591 337.539 289.552 337.522 288.792L337.212 288.763L337.184 288.288L337.502 288.584L337.428 288.439C337.44 288.702 337.48 288.782 337.359 289.014C336.877 289.94 336.337 295.06 336.017 296.622C334.719 302.964 331.857 313.355 328.652 318.893ZM0 259.912V400H161.81C159.019 399.336 155.95 399.48 153.098 399.156C146.807 398.474 140.555 397.531 134.343 396.328C106.835 390.879 79.9922 378.988 58.241 361.152C55.0648 358.548 51.4938 355.968 48.7461 352.903C45.9832 350.468 43.407 347.759 40.8668 345.096C39.8103 343.986 38.7708 342.859 37.7485 341.718C36.7261 340.576 35.7214 339.419 34.7342 338.246C33.747 337.074 32.7779 335.887 31.8268 334.685C30.8757 333.483 29.9431 332.267 29.029 331.037C28.1148 329.806 27.2196 328.563 26.3433 327.305C25.4669 326.048 24.6099 324.777 23.7722 323.494C22.9345 322.21 22.1164 320.915 21.3181 319.606C20.5197 318.298 19.7414 316.978 18.9832 315.646C18.225 314.314 17.4872 312.97 16.7698 311.616C16.0524 310.262 15.3557 308.897 14.6798 307.521C14.0039 306.146 13.349 304.76 12.7152 303.364C12.0814 301.969 11.4689 300.564 10.8778 299.15C10.2867 297.736 9.71715 296.313 9.16926 294.882C8.62137 293.45 8.09535 292.011 7.59121 290.564C7.08707 289.116 6.60504 287.662 6.14512 286.2C5.68519 284.737 5.24758 283.269 4.83227 281.793C3.60984 277.529 2.37919 273.208 1.52342 268.852C0.956125 265.964 0.709137 263.004 0.053152 260.137L0 259.912Z" fill="#724E4B"/>
<path d="M328.652 318.893C331.857 313.355 334.719 302.964 336.017 296.622C336.337 295.06 336.877 289.94 337.359 289.014C337.48 288.782 337.44 288.702 337.428 288.439L337.502 288.584L337.184 288.288L337.212 288.763L337.522 288.792C337.539 289.552 337.519 290.591 337.269 291.312C336.762 292.772 336.649 294.502 336.369 296.033C335.965 298.132 335.514 300.221 335.016 302.3C334.688 303.673 333.611 305.839 333.673 307.174L333.996 306.932C334.359 307.08 334.752 307.227 335.152 307.193C336.505 307.079 338.647 305.2 339.886 304.537C343.286 302.717 346.819 301.083 350.271 299.361L389.778 279.611C391.637 278.693 393.535 277.7 395.516 277.083C395.949 276.948 397.746 276.8 397.973 276.575C398.27 276.281 398.371 275.68 398.723 275.321C398.988 275.646 398.996 275.837 399.082 276.234L399.117 276.411L399.309 276.429C399.301 275.216 399.141 274.706 400 273.83V274.571V400H189.396C191.323 399.398 194.641 399.559 196.754 399.438C205.46 398.934 214.223 397.562 222.773 395.867C227.153 395 231.486 393.707 235.887 392.992C238.098 392.633 240.401 392.57 242.635 392.418C242.645 391.953 242.723 391.508 242.43 391.117C240.85 390.466 240.038 391.801 238.573 391.965L238.59 391.762C241.253 390.151 246.694 388.921 249.878 387.688C256.459 385.126 262.861 382.174 269.082 378.831C290.063 367.762 310.425 349.675 323.007 329.498C325.008 326.29 327.534 322.513 328.652 318.893ZM400 274.571L399.969 274.736C399.434 277.566 399.363 280.536 399.047 283.4C398.56 287.522 397.875 291.61 396.992 295.666C391.074 323.036 376.299 347.504 353.099 363.519C338.066 373.896 317.478 383.119 299.437 386.2C295.434 386.884 291.357 387.181 287.32 387.587C282.68 388.053 278.046 388.607 273.414 389.146C266.146 390.023 258.868 390.813 251.58 391.516C248.627 391.809 245.59 392.305 242.635 392.418C240.401 392.57 238.098 392.633 235.887 392.992C231.486 393.707 227.153 395 222.773 395.867C214.223 397.562 205.46 398.934 196.754 399.438C194.641 399.559 191.323 399.398 189.396 400H400V274.571Z" fill="url(#paint6_linear_323_7007)"/>
<path d="M0 256.938C7.3782 255.36 14.8847 254.196 22.3187 252.895L63.7887 245.597L88.2168 241.045C92.4801 240.228 96.8863 238.949 101.214 238.659C104.383 238.446 107.557 238.664 110.725 238.761L125.583 239.175L174.007 240.11L174.097 240.357C171.551 242.166 96.1234 259.928 89.1953 260.741C88.8148 260.79 88.3805 260.803 88.0156 260.913L7.61258 258.214C5.07254 258.15 2.54186 257.731 0 257.871V256.938Z" fill="#BB8A74"/>
<path d="M91.0176 143.077C91.0569 141.17 91.1747 139.268 91.3711 137.371C93.5074 117.731 103.085 98.7098 118.585 86.3008C133.327 74.4984 151.324 71.6488 169.664 73.7418C174.357 74.4953 186.428 76.8762 189.577 80.1336C195.759 82.8422 201.663 88.2324 206.114 93.291C200.418 95.6039 195.361 99.7426 191.745 104.69C190.533 106.765 189.274 108.824 188.207 110.977C185.364 117.121 183.548 123.541 182.309 130.188C181.886 132.452 181.902 134.92 181.293 137.118C181.081 137.88 180.857 138.271 180.152 138.667C177.566 138.599 174.875 139.023 172.306 139.311L159.449 140.745C143.007 142.304 126.591 144.099 110.201 146.131C105.327 146.015 97.2148 144.139 92.1113 143.231L91.0176 143.077Z" fill="#724E4B"/>
<path d="M187.284 111.02C187.848 109.455 188.617 107.82 189.589 106.466C190.153 105.68 190.736 104.85 191.745 104.69C190.533 106.765 189.274 108.824 188.207 110.977L187.284 111.02Z" fill="#8B6156"/>
<path d="M187.284 111.02L188.207 110.977C185.364 117.121 183.548 123.541 182.309 130.188C181.886 132.452 181.902 134.92 181.293 137.118C181.081 137.88 180.857 138.271 180.152 138.667C180.231 137.043 180.667 135.286 180.934 133.678C182.214 125.972 183.879 118.102 187.284 111.02Z" fill="#BB8A74"/>
<path d="M91.0176 143.077C91.0569 141.17 91.1747 139.268 91.3711 137.371C93.5074 117.731 103.085 98.7098 118.585 86.3008C133.327 74.4984 151.324 71.6488 169.664 73.7418C174.357 74.4953 186.428 76.8762 189.577 80.1336C188.871 79.984 188.204 79.7504 187.523 79.518C186.317 79.7336 185.209 80.0875 183.973 80.2445C182.203 80.4695 180.421 80.4152 178.643 80.4934C176.066 80.6062 173.481 80.782 170.902 80.9102C157.811 81.5617 145.869 82.193 134.567 89.7605C129.451 93.1863 125.202 97.5426 121.68 102.579C114.016 113.533 110.99 124.668 110.171 137.853C110.046 139.851 109.516 143.197 109.882 145.112C109.949 145.463 110.077 145.798 110.201 146.131C105.327 146.015 97.2148 144.139 92.1113 143.231L91.0176 143.077Z" fill="url(#paint7_linear_323_7007)"/>
<path d="M91.0176 143.077C91.0569 141.17 91.1747 139.268 91.3711 137.371C93.5074 117.731 103.085 98.7098 118.585 86.3008C133.327 74.4984 151.324 71.6488 169.664 73.7418C174.357 74.4953 186.428 76.8762 189.577 80.1336C188.871 79.984 188.204 79.7504 187.523 79.518C170.699 72.7027 150.021 71.8418 133.121 78.9898C116.325 86.0938 104.584 100.397 97.9125 117.037C95.05 124.177 92.1617 135.649 92.1113 143.231L91.0176 143.077Z" fill="#BB8A74"/>
<path d="M159.807 0H179.063H215.844H250.167C250.225 0.0173374 250.284 0.0358314 250.343 0.0520121C253.381 0.885805 257.634 0.60823 260.873 0.955832C267.874 1.76194 274.847 2.76683 281.791 3.97051C305.789 8.26957 327.718 18.0082 346.4 33.7834C354.523 40.643 361.727 48.4109 367.127 57.6074C367.684 58.5555 368.243 59.5063 368.738 60.4883C369.621 61.9859 371.015 63.9266 371.405 65.5969L371.575 66.575C370.545 67.1313 368.759 66.4297 367.611 66.3918C365.899 66.3359 363.798 66.8461 362.087 67.132C357.589 67.8832 353.191 69.0676 348.731 69.9969L324.308 74.8387C321.254 75.4328 318.07 75.8871 315.065 76.6852C313.846 77.009 310.67 78.5723 309.585 78.2652C309.301 78.0031 309.011 77.7477 308.746 77.4676C307.166 74.0281 305.012 70.777 303.597 67.2856L302.627 65.6383L302.66 66.4586C302.109 66.7703 301.522 66.7723 300.903 66.8684C297.599 67.3824 294.398 68.3852 291.246 69.4836C290.619 69.0527 289.866 68.6758 289.283 68.2043C290.73 70.3465 292.26 72.4836 293.498 74.7543C292.705 74.5207 292.455 74.4461 291.923 73.7621C291.875 73.7742 291.524 73.8605 291.482 73.8781C291.344 73.9355 291.172 74.05 291.024 74.1164C290.632 73.8285 290.321 73.6426 289.861 73.4852C289.417 73.6469 288.973 73.8184 288.5 73.8688C287.151 74.0129 285.349 73.5422 283.964 73.427C282.33 73.2906 280.652 73.3242 279.011 73.307L241.736 72.9148C239.446 72.8773 237.165 72.6238 234.875 72.5691C230.218 72.504 225.56 72.4914 220.903 72.5312C214.855 72.5348 208.897 71.8121 202.835 72.307C202.727 72.0953 202.611 71.8039 202.34 71.7492C201.53 71.5855 198.148 73.3219 196.941 72.916L196.734 72.1145C192.83 72.0273 188.79 71.5785 184.894 71.8531C182.896 71.9941 180.973 72.7109 178.954 72.7754C177.332 72.8275 175.712 72.8148 174.092 72.7375C173.257 72.6977 172.203 72.5039 171.386 72.5883C170.882 72.6398 170.359 73.4453 169.864 73.6719C169.8 73.7016 169.731 73.7188 169.664 73.7418C151.324 71.6488 133.327 74.4984 118.585 86.3008C103.085 98.7098 93.5074 117.731 91.3711 137.371C91.1747 139.268 91.0569 141.17 91.0176 143.077C84.8223 141.771 78.5367 140.742 72.3117 139.569L24.909 130.865C20.995 129.994 17.048 129.129 13.0741 128.584C13.1592 124.116 13.7647 119.548 14.4584 115.139C17.2686 97.2758 23.428 79.7305 33.4594 64.6023C54.7559 32.4862 90.9215 11.9267 128.123 4.2652C134.946 2.87808 141.819 1.80763 148.742 1.05383C152.265 0.676023 156.164 0.767227 159.61 0.0439652C159.676 0.0301119 159.741 0.014655 159.807 0ZM179.063 0C182.098 0.741207 185.334 0.350627 188.423 0.611066C192.875 1.5613 197.362 2.18076 201.833 3.01114C206.99 3.97796 212.1 5.15079 217.162 6.52965C251.026 15.7563 282.78 34.8886 302.114 64.7898C302.291 65.0641 302.495 65.3406 302.627 65.6383L303.597 67.2856C305.012 70.777 307.166 74.0281 308.746 77.4676C309.011 77.7477 309.301 78.0031 309.585 78.2652C310.67 78.5723 313.846 77.009 315.065 76.6852C318.07 75.8871 321.254 75.4328 324.308 74.8387L348.731 69.9969C353.191 69.0676 357.589 67.8832 362.087 67.132C363.798 66.8461 365.899 66.3359 367.611 66.3918C368.759 66.4297 370.545 67.1313 371.575 66.575L371.405 65.5969C371.015 63.9266 369.621 61.9859 368.738 60.4883C368.243 59.5063 367.684 58.5555 367.127 57.6074C361.727 48.4109 354.523 40.643 346.4 33.7834C327.718 18.0082 305.789 8.26957 281.791 3.97051C274.847 2.76683 267.874 1.76194 260.873 0.955832C257.634 0.60823 253.381 0.885805 250.343 0.0520121C250.284 0.0358314 250.225 0.0173374 250.167 0H215.844H179.063Z" fill="url(#paint8_linear_323_7007)"/>
<path d="M179.063 0H215.844H250.167C250.225 0.0173374 250.284 0.0358314 250.343 0.0520121C253.381 0.885805 257.634 0.60823 260.873 0.955832C267.874 1.76194 274.847 2.76683 281.791 3.97051C305.789 8.26957 327.718 18.0082 346.4 33.7834C354.523 40.643 361.727 48.4109 367.127 57.6074C367.684 58.5555 368.243 59.5063 368.738 60.4883C369.621 61.9859 371.015 63.9266 371.405 65.5969L371.575 66.575C370.545 67.1313 368.759 66.4297 367.611 66.3918C365.899 66.3359 363.798 66.8461 362.087 67.132C357.589 67.8832 353.191 69.0676 348.731 69.9969L324.308 74.8387C321.254 75.4328 318.07 75.8871 315.065 76.6852C313.846 77.009 310.67 78.5723 309.585 78.2652C309.301 78.0031 309.011 77.7477 308.746 77.4676C307.166 74.0281 305.012 70.777 303.597 67.2856L302.627 65.6383C302.495 65.3406 302.291 65.0641 302.114 64.7898C282.78 34.8886 251.026 15.7563 217.162 6.52965C212.1 5.15079 206.99 3.97796 201.833 3.01114C197.362 2.18076 192.875 1.5613 188.423 0.611066C185.334 0.350627 182.098 0.741207 179.063 0ZM179.063 0C182.098 0.741207 185.334 0.350627 188.423 0.611066C194.398 0.333066 200.459 0.466602 206.448 0.425773C209.453 0.405285 212.902 0.676391 215.844 0H179.063Z" fill="url(#paint9_linear_323_7007)"/>
<path d="M368.738 60.4883C369.621 61.9859 371.015 63.9266 371.405 65.5969L371.575 66.575C370.545 67.1313 368.759 66.4297 367.611 66.3918C365.899 66.3359 363.798 66.8461 362.087 67.132C357.589 67.8832 353.191 69.0676 348.731 69.9969L324.308 74.8387C321.254 75.4328 318.07 75.8871 315.065 76.6852C313.846 77.009 310.67 78.5723 309.585 78.2652C309.301 78.0031 309.011 77.7477 308.746 77.4676C307.166 74.0281 305.012 70.777 303.597 67.2856L345.069 62.9793C352.953 62.1645 360.875 61.4719 368.738 60.4883Z" fill="url(#paint10_linear_323_7007)"/>
<path d="M162.932 44.4156C166.904 43.5273 169.295 44.8086 173.079 44.7363C175 44.6996 177.081 44.4488 178.97 44.1031C179.849 43.9422 181.182 43.4086 182.02 43.432C182.308 43.4402 182.795 43.9344 183.096 44.0055C183.575 44.1184 184.916 43.8035 185.483 43.7652C186.93 43.668 188.395 43.777 189.842 43.8527C190.02 43.6981 190.281 43.4426 190.511 43.391C191.156 43.2461 193.438 43.5781 194.121 43.7539C194.877 43.9477 195.036 44.5844 195.899 44.6246C196.216 44.4105 196.496 44.184 196.874 44.0945C197.159 44.027 198.067 44.7164 198.348 44.893C198.478 44.975 198.593 45.0566 198.731 45.1242C200.342 45.9176 203.999 45.0957 205.826 45.0684C207.272 45.0465 208.634 45.8453 210.08 45.8734C213.391 45.9379 216.614 44.4832 220.01 44.634C222.516 44.7453 226.639 46.2613 228.642 46.0496C229.404 45.9691 230.194 45.6426 230.915 45.3871C231.884 45.0438 238.078 44.4004 239.218 44.5797C240.423 44.7691 241.607 45.3281 242.827 45.3777C244.757 45.457 246.707 45.3305 248.648 45.4055C250.173 45.4645 251.535 44.5582 253.01 44.7273C256.001 45.0707 267.917 48.9531 269.375 48.4285L269.46 48.1273C268.96 47.1492 267.844 46.4008 267.106 45.5711C272.974 49.0406 280.986 57.6832 285.359 63.0316C286.657 64.6184 287.735 66.4164 289.069 67.9594L289.283 68.2043C290.73 70.3465 292.26 72.4836 293.498 74.7543C292.705 74.5207 292.455 74.4461 291.923 73.7621C291.875 73.7742 291.524 73.8605 291.482 73.8781C291.344 73.9355 291.172 74.05 291.024 74.1164C290.632 73.8285 290.321 73.6426 289.861 73.4852C289.417 73.6469 288.973 73.8184 288.5 73.8688C287.151 74.0129 285.349 73.5422 283.964 73.427C282.33 73.2906 280.652 73.3242 279.011 73.307L241.736 72.9148C239.446 72.8773 237.165 72.6238 234.875 72.5691C230.218 72.504 225.56 72.4914 220.903 72.5312C214.855 72.5348 208.897 71.8121 202.835 72.307C202.727 72.0953 202.611 71.8039 202.34 71.7492C201.53 71.5855 198.148 73.3219 196.941 72.916L196.734 72.1145C192.83 72.0273 188.79 71.5785 184.894 71.8531C182.896 71.9941 180.973 72.7109 178.954 72.7754C177.332 72.8275 175.712 72.8148 174.092 72.7375C173.257 72.6977 172.203 72.5039 171.386 72.5883C170.882 72.6398 170.359 73.4453 169.864 73.6719C169.8 73.7016 169.731 73.7188 169.664 73.7418C151.324 71.6488 133.327 74.4984 118.585 86.3008C103.085 98.7098 93.5074 117.731 91.3711 137.371C91.1747 139.268 91.0569 141.17 91.0176 143.077C84.8223 141.771 78.5367 140.742 72.3117 139.569L24.909 130.865C25.6888 128.211 25.7319 125.145 26.0484 122.396C26.4797 118.484 27.1114 114.605 27.9436 110.758C33.4765 85.5676 46.1664 64.9156 65.3629 47.85C65.7039 48.0734 66.0516 48.2879 66.3902 48.5148C66.5 48.5883 66.6051 48.6688 66.7164 48.7406C67.9305 49.5242 71.8398 49.2606 73.2394 48.9406C74.943 48.5512 76.5316 47.7559 78.2582 47.4023C78.3668 47.3801 78.4762 47.3613 78.5852 47.3398C79.0418 47.25 79.3457 47.1957 79.8031 47.3273C82.0715 47.9785 87.5879 47.191 89.9215 46.4938C92.6867 45.6676 94.9164 44.5965 97.8996 44.5863C99.3887 44.5809 100.802 45.2344 102.264 45.1586C103.432 45.098 104.618 44.7695 105.769 44.5672C108.22 44.1367 110.736 43.8086 113.228 43.8977C114.861 43.9555 119.882 45.2855 120.988 44.8188C121.089 44.5559 121.184 44.3512 121.328 44.1055C123.818 44.0098 126.382 44.5469 128.893 44.566C132.792 44.5961 136.698 44.3047 140.596 44.2348C143.055 44.191 145.514 44.3367 147.972 44.3328C152.232 44.3258 156.596 43.552 160.847 43.7301C161.646 43.7637 162.239 44.0367 162.932 44.4156Z" fill="url(#paint11_linear_323_7007)"/>
<defs>
<linearGradient id="paint0_linear_323_7007" x1="161.431" y1="347.416" x2="165.838" y2="71.0975" gradientUnits="userSpaceOnUse">
<stop stop-color="#815651"/>
<stop offset="1" stop-color="#F3AF87"/>
</linearGradient>
<linearGradient id="paint1_linear_323_7007" x1="266.972" y1="382.405" x2="222.735" y2="9.50184" gradientUnits="userSpaceOnUse">
<stop stop-color="#77584A"/>
<stop offset="1" stop-color="#B48268"/>
</linearGradient>
<linearGradient id="paint2_linear_323_7007" x1="153.162" y1="13.708" x2="335.723" y2="360.249" gradientUnits="userSpaceOnUse">
<stop stop-color="#554038"/>
<stop offset="1" stop-color="#8D604E"/>
</linearGradient>
<linearGradient id="paint3_linear_323_7007" x1="21.4948" y1="189.689" x2="404.502" y2="232.225" gradientUnits="userSpaceOnUse">
<stop stop-color="#996E5C"/>
<stop offset="1" stop-color="#B98B77"/>
</linearGradient>
<linearGradient id="paint4_linear_323_7007" x1="222.419" y1="382.845" x2="192.045" y2="194.227" gradientUnits="userSpaceOnUse">
<stop stop-color="#423130"/>
<stop offset="1" stop-color="#7E615C"/>
</linearGradient>
<linearGradient id="paint5_linear_323_7007" x1="228.733" y1="367.308" x2="154.477" y2="39.8243" gradientUnits="userSpaceOnUse">
<stop stop-color="#7B5E5A"/>
<stop offset="1" stop-color="#B38A83"/>
</linearGradient>
<linearGradient id="paint6_linear_323_7007" x1="285.293" y1="308.738" x2="180.665" y2="183.34" gradientUnits="userSpaceOnUse">
<stop stop-color="#342D2E"/>
<stop offset="1" stop-color="#6E504C"/>
</linearGradient>
<linearGradient id="paint7_linear_323_7007" x1="174.634" y1="23.0189" x2="246.685" y2="361.135" gradientUnits="userSpaceOnUse">
<stop stop-color="#5B453B"/>
<stop offset="1" stop-color="#885D4D"/>
</linearGradient>
<linearGradient id="paint8_linear_323_7007" x1="162.99" y1="287.339" x2="44.3218" y2="55.5823" gradientUnits="userSpaceOnUse">
<stop stop-color="#BF836C"/>
<stop offset="1" stop-color="#EFA282"/>
</linearGradient>
<linearGradient id="paint9_linear_323_7007" x1="202.689" y1="-32.448" x2="278.824" y2="337.466" gradientUnits="userSpaceOnUse">
<stop stop-color="#CEBEB9"/>
<stop offset="1" stop-color="#FADACD"/>
</linearGradient>
<linearGradient id="paint10_linear_323_7007" x1="197.149" y1="52.6456" x2="306.361" y2="257.808" gradientUnits="userSpaceOnUse">
<stop stop-color="#BF8C72"/>
<stop offset="1" stop-color="#AF8C8C"/>
</linearGradient>
<linearGradient id="paint11_linear_323_7007" x1="158.305" y1="143.836" x2="160.176" y2="43.1522" gradientUnits="userSpaceOnUse">
<stop stop-color="#D59879"/>
<stop offset="1" stop-color="#FFB88C"/>
</linearGradient>
</defs>
</svg>
