<svg width="939" height="1141" viewBox="0 0 939 1141" fill="none" xmlns="http://www.w3.org/2000/svg">
<g filter="url(#filter0_dd_1_4920)">
<path d="M661.536 973.473C661.469 973.656 661.414 973.842 661.336 974.021C655.045 988.457 610 1009.55 595.797 1015.79C509.581 1053.71 422.148 1034.57 337.697 1001.56C291.192 978.688 254.369 949.986 224.189 907.527C218.351 899.315 210.962 889.531 206.916 880.363C206.382 879.109 206.352 878.697 206.16 877.5C203.136 873.997 201.86 873.307 201.393 868.592C188.527 857.963 173.341 828.649 169.462 812.397C164.317 805.29 159.952 795.497 158.67 786.809C171.408 803.006 178.355 826.595 189.582 844.424C233.828 914.757 301.915 980.122 381.815 1007.43C405.214 1022.4 473.298 1025.62 501.261 1026.74C512.303 1026.94 523.735 1025.71 534.782 1025.11C562.476 1019.65 616.8 1004.52 638.12 986.556L661.536 973.473Z" fill="#FBEFBB"/>
<path d="M638.121 986.557C616.8 1004.52 562.477 1019.65 534.782 1025.11C523.735 1025.71 512.304 1026.94 501.261 1026.74C473.298 1025.62 405.214 1022.4 381.816 1007.43C301.915 980.122 233.828 914.757 189.582 844.425C178.355 826.595 171.409 803.006 158.67 786.809C155.128 782.569 151.09 776.434 151.24 770.589C151.268 769.802 151.507 769.021 151.686 768.268C142.882 755.588 133.055 724.909 134.023 709.283C128.517 694.817 117.82 642.374 122.882 629.539C120.257 623.943 118.283 620.62 120.618 614.268C120.811 613.717 121.046 613.171 121.239 612.624C115.123 603.481 114.626 581.614 116.946 570.665C117.167 569.627 117.629 568.401 117.961 567.431C110.458 551.081 121.55 448.757 128.098 430.135C128.765 428.242 129.545 426.435 130.562 424.703C128.84 413.434 137.057 381.566 143.759 371.832C144.678 370.495 145.691 369.283 146.791 368.111C159.436 362.169 212.159 359.936 229.854 358.031C260.911 350.455 314.312 349.026 347.657 345.798C422.738 338.531 498.168 328.883 573.415 324.293L589.624 323.523L606.789 321.797C655.815 315.752 706.731 315.095 756.123 314.37C764.67 328.948 770.77 345.366 777.439 360.892C788.87 388.733 795.576 418.995 807.876 446.221C810.608 469.537 820.326 493.961 825.649 517.043C839.036 575.073 840.943 630.094 836.299 689.138C831.613 712.552 827.262 736.353 819.848 759.075C813.536 779.121 805.052 798.038 795.95 816.946C791.168 827.901 784.301 838.613 778.445 849.079C755.763 885.806 725.919 919.704 694.506 949.047C683.967 957.705 672.435 965.261 661.536 973.474L638.121 986.557Z" fill="#947468"/>
<path d="M669.614 836.253C669.66 841.478 669.565 846.7 669.328 851.919C669.089 857.139 668.709 862.347 668.186 867.545C667.664 872.744 667 877.925 666.193 883.087C665.387 888.25 664.442 893.386 663.356 898.496C662.27 903.608 661.046 908.685 659.681 913.727C658.318 918.771 656.817 923.774 655.181 928.736C653.544 933.697 651.774 938.61 649.87 943.476C647.964 948.341 645.927 953.15 643.76 957.903C646.379 937.497 647.571 917.008 647.336 896.435C645.71 874.722 639.893 834.285 642.291 814.698C645.941 840.688 647.462 868.986 653.194 894.448C659.75 875.443 664.431 855.674 669.614 836.253Z" fill="#6E5453"/>
<path d="M534.782 1025.11C523.735 1025.71 512.304 1026.94 501.261 1026.74C491.546 993.711 482.203 960.579 473.232 927.344C495.205 959.377 509.411 994.858 534.782 1025.11Z" fill="#663F38"/>
<path d="M720.655 438.91C676.699 400.592 635.488 359.723 589.624 323.522L606.789 321.797C651.152 355.516 692.51 389.87 720.655 438.91Z" fill="#6E5453"/>
<path d="M381.815 1007.43C364.203 979.819 343.236 954.795 324.749 927.841C301.075 893.332 284.594 855.147 271.05 815.741C284.544 835.67 298.853 855.175 311.762 875.493C320.283 888.942 327.774 904.944 337.297 917.419C347.491 940.102 380.032 985.02 381.815 1007.43Z" fill="#663F38"/>
<path d="M255.995 791.752C244.923 781.369 236.413 766.015 228.32 753.227C189.063 691.056 143.38 599.022 139.701 524.79C139.064 521.818 137.984 520.338 139.695 517.666C140.933 515.766 142.217 514.502 143.976 513.076C143.856 513.47 143.694 513.86 143.575 514.26C140.869 523.38 145.576 536.162 148.022 545.145C165.921 610.648 198.786 666.001 227.342 726.739C237.335 747.987 244.193 771.521 255.995 791.752Z" fill="#663F38"/>
<path d="M284.036 780.487C282.834 779.07 282.085 778.079 281.615 776.245C272.167 740.84 270.917 704.125 265.357 668.073C262.428 649.162 257.126 630.19 251.826 611.83C235.891 556.566 194.33 462.437 198.391 408.135C198.621 405.152 199.304 402.3 200.22 399.461C186.135 413.012 143.743 491.662 143.618 510.178C143.62 511.375 143.751 511.734 143.975 513.076C142.216 514.501 140.932 515.766 139.694 517.666C137.983 520.338 139.063 521.817 139.7 524.79C139.488 525.078 139.255 525.359 139.022 525.658C129.881 538.239 118.9 597.788 121.239 612.624C115.122 603.48 114.625 581.614 116.945 570.664C117.167 569.627 117.628 568.4 117.96 567.431C110.457 551.081 121.549 448.756 128.097 430.135C128.765 428.242 129.544 426.434 130.561 424.702C128.839 413.433 137.056 381.565 143.758 371.832C144.677 370.494 145.69 369.283 146.79 368.11C159.435 362.169 212.158 359.936 229.853 358.03C226.067 369.487 209.988 376.501 208.164 388.468C204.309 413.638 250.95 571.502 258.863 609.671C266.177 645.12 269.643 681.755 275.416 717.542C278.527 736.925 285.332 761.197 284.036 780.487Z" fill="#512E2D"/>
<path d="M303.323 143.757C303.403 143.58 303.47 143.398 303.561 143.225C310.874 129.279 357.319 111.482 371.934 106.272C460.653 74.6495 546.483 100.025 628.343 139.022C673.083 165.178 707.748 196.453 734.797 240.972C740.03 249.582 746.697 259.872 750.073 269.308C750.516 270.597 750.516 271.01 750.621 272.217C753.385 275.929 754.609 276.709 754.736 281.446C766.804 292.972 779.843 323.302 782.544 339.791C787.165 347.249 790.815 357.33 791.469 366.088C779.928 349.017 774.695 324.99 764.779 306.4C725.703 233.068 662.491 162.978 584.761 129.994C562.499 113.379 494.823 105.281 467.012 102.152C456.013 101.152 444.523 101.557 433.461 101.369C405.446 104.823 350.175 116.007 327.618 132.391L303.323 143.757Z" fill="#FBEFBB"/>
<path d="M327.618 132.391C350.175 116.008 405.445 104.823 433.46 101.369C444.523 101.557 456.013 101.152 467.012 102.152C494.822 105.281 562.499 113.379 584.761 129.994C662.491 162.978 725.703 233.068 764.778 306.4C774.695 324.99 779.927 349.017 791.468 366.088C794.696 370.572 798.283 376.982 797.714 382.801C797.629 383.584 797.334 384.345 797.102 385.084C804.972 398.363 812.567 429.67 810.478 445.186C814.93 460.01 821.83 513.086 815.859 525.524C818.074 531.295 819.804 534.751 817.019 540.918C816.787 541.454 816.513 541.981 816.281 542.513C821.724 552.073 820.648 573.919 817.547 584.673C817.251 585.692 816.703 586.882 816.302 587.825C822.61 604.673 804.191 705.935 796.321 724.037C795.519 725.877 794.612 727.624 793.473 729.278C794.38 740.642 783.894 771.837 776.509 781.064C775.497 782.332 774.399 783.467 773.218 784.558C760.179 789.575 707.432 788.011 689.645 788.64C658.123 793.963 604.758 791.55 571.268 792.373C495.858 794.223 419.93 798.424 344.548 797.592L328.325 797.196L311.081 797.683C261.747 800.188 210.916 797.183 161.599 794.356C154.122 779.201 149.218 762.387 143.682 746.421C134.282 717.83 129.769 687.165 119.458 659.125C118.41 635.673 110.472 610.614 106.822 587.209C97.6421 528.366 99.6949 473.351 108.571 414.793C114.928 391.776 120.98 368.35 130.008 346.22C137.745 326.68 147.566 308.421 158.004 290.217C163.561 279.634 171.18 269.443 177.774 259.425C203.037 224.424 235.24 192.759 268.682 165.75C279.816 157.872 291.862 151.165 303.322 143.757L327.618 132.391Z" fill="#947468"/>
<path d="M285.401 280.041C285.731 274.827 286.201 269.625 286.813 264.436C287.426 259.248 288.18 254.08 289.075 248.933C289.969 243.785 291.005 238.666 292.18 233.575C293.355 228.483 294.667 223.428 296.118 218.409C297.568 213.389 299.154 208.413 300.877 203.482C302.601 198.549 304.456 193.667 306.445 188.835C308.434 184.005 310.553 179.231 312.802 174.515C315.053 169.8 317.43 165.15 319.934 160.564C315.855 180.729 313.193 201.08 311.948 221.616C312.009 243.39 314.904 284.141 311.104 303.505C309.332 277.319 309.849 248.986 305.962 223.178C298.056 241.662 291.967 261.044 285.401 280.041Z" fill="#6E5453"/>
<path d="M433.46 101.369C444.522 101.557 456.013 101.152 467.011 102.152C474.327 135.792 481.265 169.509 487.823 203.304C468.21 169.774 456.591 133.363 433.46 101.369Z" fill="#663F38"/>
<path d="M329.601 134.617L327.618 132.391L303.322 143.757C291.862 151.164 279.816 157.872 268.682 165.75C235.241 192.759 203.037 224.424 177.774 259.425C171.18 269.443 163.561 279.633 158.004 290.217C147.566 308.421 137.745 326.68 130.008 346.219C120.98 368.35 114.928 391.776 108.571 414.793C99.6949 473.351 97.6421 528.366 106.822 587.209C110.472 610.614 118.41 635.673 119.458 659.124C129.769 687.165 134.282 717.83 143.682 746.421C149.218 762.387 154.122 779.2 161.599 794.356L380.25 1007V969.499L323.567 911.374C283.076 877.492 240.09 852.502 209.625 808.249C154.375 829.879 148.9 635.521 143.682 620.749C126.712 572.726 170.809 467.192 180.039 417.289C189.127 494.627 266.11 653.894 323.567 703.882C271.986 627.506 210.017 487.624 192.279 397.441C179.803 334.005 235.042 229.152 277.162 183.33C285.855 173.871 295.168 164.539 304.892 156.148C312.802 149.323 323.74 143.292 329.601 134.617Z" fill="#512E2D"/>
<path d="M584.761 129.994C600.343 158.803 619.456 185.269 635.957 213.482C657.09 249.604 670.783 288.875 681.459 329.153C669.433 308.305 656.563 287.822 645.148 266.628C637.616 252.602 631.295 236.103 622.693 222.975C614.156 199.618 584.928 152.477 584.761 129.994Z" fill="#663F38"/>
<path d="M694.751 354.161C705.047 365.314 712.432 381.239 719.584 394.576C754.271 459.409 793.219 554.489 791.552 628.793C791.974 631.803 792.945 633.356 791.046 635.899C789.675 637.705 788.303 638.874 786.446 640.169C786.594 639.785 786.784 639.408 786.932 639.017C790.286 630.116 786.51 617.028 784.716 607.892C771.572 541.272 742.772 483.7 718.656 421.066C710.216 399.154 705.068 375.188 694.751 354.161Z" fill="#663F38"/>
</g>
<defs>
<filter id="filter0_dd_1_4920" x="0.851135" y="-4" width="937.732" height="1144.68" filterUnits="userSpaceOnUse" color-interpolation-filters="sRGB">
<feFlood flood-opacity="0" result="BackgroundImageFix"/>
<feColorMatrix in="SourceAlpha" type="matrix" values="0 0 0 0 0 0 0 0 0 0 0 0 0 0 0 0 0 0 127 0" result="hardAlpha"/>
<feOffset dy="4"/>
<feGaussianBlur stdDeviation="50"/>
<feComposite in2="hardAlpha" operator="out"/>
<feColorMatrix type="matrix" values="0 0 0 0 1 0 0 0 0 0.923418 0 0 0 0 0.591564 0 0 0 1 0"/>
<feBlend mode="normal" in2="BackgroundImageFix" result="effect1_dropShadow_1_4920"/>
<feColorMatrix in="SourceAlpha" type="matrix" values="0 0 0 0 0 0 0 0 0 0 0 0 0 0 0 0 0 0 127 0" result="hardAlpha"/>
<feOffset dy="4"/>
<feGaussianBlur stdDeviation="2"/>
<feComposite in2="hardAlpha" operator="out"/>
<feColorMatrix type="matrix" values="0 0 0 0 0 0 0 0 0 0 0 0 0 0 0 0 0 0 0.25 0"/>
<feBlend mode="normal" in2="effect1_dropShadow_1_4920" result="effect2_dropShadow_1_4920"/>
<feBlend mode="normal" in="SourceGraphic" in2="effect2_dropShadow_1_4920" result="shape"/>
</filter>
</defs>
</svg>
