<svg width="261" height="144" viewBox="0 0 261 144" fill="none" xmlns="http://www.w3.org/2000/svg">
<path d="M0 0H126.873H147.641H260.493C260.731 0.378103 260.812 0.693828 260.833 1.13536C260.973 4.05216 260.863 7.0229 260.865 9.94419V26.5606C260.864 28.9919 261.22 35.4866 260.78 37.5672C260.742 37.7441 260.678 37.911 260.603 38.0747L260.593 38.6856C260.766 39.1045 260.828 39.4624 260.841 39.913C261.09 48.9106 260.983 142.936 260.683 143.667C260.633 143.788 260.569 143.894 260.493 144H0V0ZM126.873 0C126.852 0.622605 126.823 1.07499 127.09 1.65384C127.122 1.72472 127.149 1.7982 127.179 1.87022C127.26 2.06364 127.218 2.0802 127.144 2.28415C126.438 2.32323 125.688 2.31443 124.995 2.45873C120.116 2.42254 115.374 3.09511 110.534 3.54398C104.992 4.05799 99.4261 4.13646 93.8796 4.75769C89.6308 5.23354 85.4382 6.23954 81.1887 6.76339C73.3446 7.73034 57.5279 8.27575 51.133 11.8822L50.5125 12.2302C52.8132 15.222 56.5235 33.8699 56.5952 38.6899L56.8166 39.0283C56.4698 40.1011 55.4244 44.9796 55.7594 45.8719C56.4423 46.4277 57.7811 46.5369 57.8727 47.5315C57.959 48.47 56.487 52.7183 56.1649 53.9508C54.0103 62.1958 52.1633 70.7983 54.922 79.1661C55.5195 80.9785 56.3933 83.0359 57.8261 84.3567C58.4198 84.9046 59.1714 85.3639 59.8343 85.8273C61.4936 87.2268 63.1704 88.8621 64.9829 90.0521C69.6867 93.1415 75.0367 94.277 80.3854 95.6748C82.6183 96.2582 84.8215 96.9592 87.0545 97.5393C86.5278 96.792 84.6539 94.608 84.6985 93.8177C88.4842 97.8521 92.6719 101.127 97.0132 104.531C99.4261 106.423 101.851 108.502 104.557 109.962C109.146 111.18 113.454 113.022 118.147 113.994C121.896 114.78 125.673 115.405 129.476 115.868C132.686 116.268 135.978 116.53 139.151 117.146C141.059 116.754 142.999 116.391 144.805 115.644C147.503 114.24 150.079 112.949 153.142 112.595C160.361 111.495 170.102 102.766 174.679 97.421C177.34 94.3142 186.551 81.3128 186.266 77.6062L186.863 77.4322L187.138 77.6474C187.385 78.5918 187.062 79.6806 186.863 80.6125C185.84 85.4069 183.803 89.5217 181.353 93.7299C177.138 100.97 170.355 106.996 163.25 111.288C160.326 113.054 157.235 114.56 154.235 116.191C152.093 117.357 149.576 119.397 147.247 120.012C156.327 119.886 166.92 119.395 175.667 116.949C185.291 114.257 195.226 104.064 200.024 95.4993C201.846 92.2452 203.611 88.9415 205.034 85.4897C207.844 78.6709 212.422 63.6312 213.261 56.4984C213.515 54.3386 213.553 52.0366 212.952 49.9279C211.558 45.0281 207.773 45.5244 204.112 43.4523C202.106 42.3173 201.76 40.6279 201.188 38.5591C201.287 38.5128 201.381 38.4637 201.471 38.4042C204.555 36.3861 209.882 22.08 210.66 18.1365C211.351 18.4832 211.598 18.8777 211.838 19.6059C212.262 20.8902 212.328 22.7626 211.731 23.997C212.1 25.3858 211.515 26.8922 210.825 28.0883C209.586 30.2374 207.822 31.9322 207.105 34.3652C213.84 36.1837 234.293 41.6732 237.815 47.8191C238.024 48.184 238.107 48.3964 238.074 48.8128C238.709 49.0882 239.428 49.4163 240.124 49.169C240.629 48.99 240.945 48.6542 241.177 48.1869C246.576 45.799 249.6 42.7086 253.579 38.5566C255.15 38.4679 256.706 38.3398 257.973 39.4716C258.559 39.9954 258.876 40.7046 259.167 41.4197C259.199 41.4002 259.231 41.3815 259.261 41.361C260.117 40.7887 260.416 39.6417 260.593 38.6856L260.603 38.0747C260.678 37.911 260.742 37.7441 260.78 37.5672C261.22 35.4866 260.864 28.9919 260.865 26.5606V9.94419C260.863 7.0229 260.973 4.05216 260.833 1.13536C260.812 0.693828 260.731 0.378103 260.493 0H147.641H126.873ZM0 0V144H260.493C260.569 143.894 260.633 143.788 260.683 143.667C260.983 142.936 261.09 48.9106 260.841 39.913C260.828 39.4624 260.766 39.1045 260.593 38.6856C260.416 39.6417 260.117 40.7887 259.261 41.361C259.231 41.3815 259.199 41.4002 259.167 41.4197C258.876 40.7046 258.559 39.9954 257.973 39.4716C256.706 38.3398 255.15 38.4679 253.579 38.5566C249.6 42.7086 246.576 45.799 241.177 48.1869C240.945 48.6542 240.629 48.99 240.124 49.169C239.428 49.4163 238.709 49.0882 238.074 48.8128C240.197 53.6091 237.437 85.0982 236.55 92.1559C236.268 94.2828 235.905 96.3956 235.462 98.4943C235.266 99.4386 234.801 100.625 234.792 101.561C232.677 102.175 230.463 104.296 229.077 105.924C229.839 106.492 230.813 107.249 230.959 108.253C230.963 108.282 230.962 108.311 230.964 108.341C230.855 108.967 230.689 109.35 230.142 109.738C230.062 109.795 229.979 109.848 229.895 109.898C230.344 111.088 229.885 112.526 229.389 113.638C227.711 117.401 222.94 121.634 222.423 125.57C222.409 125.676 222.419 125.632 222.385 125.731C221.669 126.459 219.532 127.108 218.532 127.508C212.228 130.026 205.483 131.593 198.961 133.438C185.512 137.241 172.078 139.627 158.207 141.226C151.98 141.943 145.601 142.778 139.346 143.078C136.987 143.185 134.628 143.259 132.267 143.301C129.907 143.343 127.546 143.352 125.185 143.328C122.825 143.305 120.465 143.249 118.105 143.16C115.746 143.071 113.388 142.95 111.032 142.796C108.677 142.642 106.324 142.455 103.973 142.236C101.622 142.018 99.2745 141.767 96.9306 141.482C94.5868 141.199 92.2473 140.883 89.9123 140.534C87.5773 140.186 85.2475 139.806 82.9229 139.393C80.598 138.98 78.2793 138.535 75.9668 138.058C73.6544 137.581 71.3489 137.073 69.0505 136.532C66.752 135.991 64.4613 135.419 62.1786 134.815C59.8958 134.211 57.6218 133.576 55.3566 132.91C53.0913 132.242 50.8356 131.545 48.5895 130.816C46.3434 130.086 44.1077 129.326 41.8825 128.536C39.6573 127.745 37.4434 126.924 35.2408 126.071C33.0382 125.219 30.8477 124.337 28.6693 123.425C27.7405 121.111 27.3786 118.554 27.1473 116.084C25.7785 117.022 24.6951 118.396 23.4909 119.534C22.7956 120.19 21.4466 121.593 20.4324 121.563C19.9094 120.91 19.8521 117.759 19.7404 116.825C17.146 116.642 14.0296 116.225 11.7808 114.825C10.3646 113.944 9.84149 113.019 9.47026 111.416C9.19034 109.018 8.82374 106.557 8.25506 104.209C7.74383 102.098 7.05027 100.004 6.6445 97.872C4.2127 91.8927 2.38973 72.0392 2.48671 64.9173C2.07458 62.629 2.14078 60.0634 1.9456 57.7315C1.74327 55.314 1.33025 52.9207 1.11893 50.5059C0.938127 48.4397 0.945037 46.333 0.899668 44.259C0.848205 43.4155 0.802526 42.5717 0.762631 41.7276C0.706861 40.4524 0.499758 39.0266 1.42546 38.0129C4.80531 34.1645 28.6923 23.5993 34.6486 21.0702C38.0576 19.6227 44.0845 17.518 46.9389 15.524C48.2173 14.5156 49.1892 13.1925 50.5125 12.2302L51.133 11.8822C57.5279 8.27575 73.3446 7.73034 81.1887 6.76339C85.4382 6.23954 89.6308 5.23354 93.8796 4.75769C99.4261 4.13646 104.992 4.05799 110.534 3.54398C115.374 3.09511 120.116 2.42254 124.995 2.45873C125.688 2.31443 126.438 2.32323 127.144 2.28415C127.218 2.0802 127.26 2.06364 127.179 1.87022C127.149 1.7982 127.122 1.72472 127.09 1.65384C126.823 1.07499 126.852 0.622605 126.873 0H0Z" fill="url(#paint0_linear_347_7025)"/>
<path d="M144.805 115.644C147.503 114.24 150.079 112.949 153.142 112.595C152.794 113.378 150.744 114.19 149.961 114.491C148.279 115.139 146.608 115.541 144.805 115.644Z" fill="#644A49"/>
<path d="M104.557 109.962C109.146 111.18 113.454 113.022 118.147 113.994C121.896 114.78 125.673 115.405 129.476 115.868C132.686 116.268 135.978 116.53 139.151 117.146C137.235 117.668 135.421 117.971 133.438 118.084C124.49 118.596 111.354 116.033 104.557 109.962Z" fill="#644A49"/>
<path d="M20.1741 50.2975C20.8926 50.331 22.6998 50.1112 23.1297 50.5521C23.2327 51.2467 23.2309 52.0241 23.4934 52.6762C23.6127 55.3826 23.236 58.2053 23.1711 60.9253C23.0768 64.8771 23.2783 68.8298 23.4972 72.7743C24.0199 82.1926 25.5945 91.5037 26.1499 100.906C20.753 103.539 16.2137 107.471 11.0223 110.416C11.0219 110.387 11.0204 110.358 11.0209 110.329C11.0822 106.303 20.4155 100.17 23.1977 97.4185L21.7633 68.4503C21.4555 62.5339 21.3869 56.087 20.1741 50.2975Z" fill="#7A6D7F"/>
<path d="M31.8528 104.862C35.304 106.477 38.7368 108.379 42.2826 109.755C46.7179 111.477 51.396 112.731 55.9587 114.072C64.1947 116.575 72.5313 118.676 80.9686 120.375C89.4059 122.074 97.905 123.364 106.466 124.246C112.315 124.79 118.155 124.816 124.014 125.11C123.521 126.766 123.062 128.162 121.433 129.04C119.639 130.005 117.399 129.99 115.464 130.617C111.283 130.518 107.024 129.808 102.861 129.369C76.9281 126.634 53.1838 119.81 29.3046 109.407C30.0718 107.853 30.9869 106.363 31.8528 104.862Z" fill="#B6908F"/>
<path d="M124.014 125.11C126.794 124.951 129.641 125.057 132.43 125.015C136.959 124.945 141.483 124.766 146.003 124.479C167.693 123.12 192.204 118.925 212.779 111.886C217.226 110.364 221.354 108.129 225.727 106.464C226.75 106.074 228.036 105.455 229.077 105.924C229.839 106.492 230.813 107.249 230.959 108.253C230.963 108.282 230.962 108.311 230.964 108.341C230.855 108.967 230.689 109.35 230.142 109.738C230.062 109.795 229.979 109.848 229.895 109.898C228.368 112.181 221.436 114.276 218.752 115.239C205.45 120.014 192.526 123.882 178.651 126.627C174.49 127.457 170.311 128.179 166.113 128.795C161.916 129.411 157.706 129.92 153.482 130.321C149.259 130.722 145.028 131.015 140.79 131.201C136.552 131.387 132.312 131.464 128.07 131.433C123.908 131.368 119.567 131.321 115.464 130.617C117.399 129.99 119.639 130.005 121.433 129.04C123.062 128.162 123.521 126.766 124.014 125.11Z" fill="url(#paint1_linear_347_7025)"/>
<path d="M1.42546 38.0129C4.80531 34.1645 28.6923 23.5993 34.6486 21.0702C38.0576 19.6227 44.0845 17.518 46.9389 15.524C46.1469 17.0153 45.3264 18.1927 44.1951 19.4456C46.1138 22.3287 52.9133 32.5134 52.3434 35.5529C52.2759 35.9134 51.9272 36.2394 51.6335 36.4315C51.4194 36.5714 51.1947 36.6978 50.9717 36.8228C44.5628 38.6069 38.7964 41.2236 33.0056 44.4978C29.946 46.2277 27.0013 48.1717 23.8189 49.6688L23.7671 49.6927C23.7009 50.6851 23.666 51.6961 23.4934 52.6762C23.2309 52.0241 23.2327 51.2467 23.1297 50.5521C22.6998 50.1112 20.8926 50.331 20.1741 50.2975C15.83 48.9943 2.94483 39.9468 1.24108 40.2718C0.522501 41.3218 1.59433 43.2549 0.942519 44.2038C0.929328 44.223 0.913949 44.2406 0.899668 44.259C0.848205 43.4155 0.802526 42.5717 0.762631 41.7276C0.706861 40.4524 0.499758 39.0266 1.42546 38.0129Z" fill="#92797B"/>
<path d="M1.42546 38.0129C4.80531 34.1645 28.6923 23.5993 34.6486 21.0702C38.0576 19.6227 44.0845 17.518 46.9389 15.524C46.1469 17.0153 45.3264 18.1927 44.1951 19.4456C46.1138 22.3287 52.9133 32.5134 52.3434 35.5529C52.2759 35.9134 51.9272 36.2394 51.6335 36.4315C51.4194 36.5714 51.1947 36.6978 50.9717 36.8228C49.695 35.6842 48.5291 33.1148 47.3531 31.672C45.0656 28.8651 42.3716 26.4818 39.7507 24.0037C33.3177 25.9134 26.9463 27.9985 20.793 30.699C15.7295 32.9212 10.9613 35.6418 5.7054 37.446C4.44671 37.8782 2.72478 38.5306 1.42546 38.0129Z" fill="#EBDED3"/>
<path d="M0.899668 44.259C0.913949 44.2406 0.929328 44.223 0.942519 44.2038C1.59433 43.2549 0.522501 41.3218 1.24108 40.2718C2.94483 39.9468 15.83 48.9943 20.1741 50.2975C21.3869 56.087 21.4555 62.5339 21.7633 68.4503L23.1977 97.4185C20.4155 100.17 11.0822 106.303 11.0209 110.329C11.0204 110.358 11.0219 110.387 11.0223 110.416C10.5816 110.907 10.0539 111.138 9.47026 111.416C9.19034 109.018 8.82374 106.557 8.25506 104.209C7.74383 102.098 7.05027 100.004 6.6445 97.872C4.2127 91.8927 2.38973 72.0392 2.48671 64.9173C2.07458 62.629 2.14078 60.0634 1.9456 57.7315C1.74327 55.314 1.33025 52.9207 1.11893 50.5059C0.938127 48.4397 0.945037 46.333 0.899668 44.259Z" fill="#284966"/>
<path d="M2.48671 64.9173C3.01684 65.3777 3.11012 65.7087 3.23926 66.3993C4.06595 70.8204 4.23792 75.4948 4.81589 79.9721C5.50602 85.3183 6.61204 90.6844 7.02966 96.0579C7.08067 96.7142 7.08178 97.2339 6.69377 97.7967C6.67674 97.8215 6.66092 97.8472 6.6445 97.872C4.2127 91.8927 2.38973 72.0392 2.48671 64.9173Z" fill="#B6908F"/>
<path d="M234.792 101.561C238.174 102.053 244.07 104.312 246.158 106.98C246.579 107.311 247.656 107.968 247.787 108.444C248.089 109.169 248.263 109.724 247.961 110.483C246.761 113.508 239.65 117.535 236.649 118.781C236.06 119.026 235.409 119.136 234.781 119.222C234.994 118.107 234.367 116.496 233.757 115.571C233.636 115.387 233.478 115.255 233.297 115.133C232.929 115.169 232.876 115.162 232.636 115.45C231.975 116.244 231.537 117.619 231.086 118.564C229.354 122.197 226.735 125.225 222.489 125.72C222.455 125.724 222.42 125.728 222.385 125.731C222.419 125.632 222.409 125.676 222.423 125.57C222.94 121.634 227.711 117.401 229.389 113.638C229.885 112.526 230.344 111.088 229.895 109.898C229.979 109.848 230.062 109.795 230.142 109.738C230.689 109.35 230.855 108.967 230.964 108.341C230.962 108.311 230.963 108.282 230.959 108.253C230.813 107.249 229.839 106.492 229.077 105.924C230.463 104.296 232.677 102.175 234.792 101.561Z" fill="#1C1618"/>
<path d="M253.579 38.5566C255.15 38.4679 256.706 38.3398 257.973 39.4716C258.559 39.9954 258.876 40.7046 259.167 41.4197C259.84 44.0607 259.167 49.9105 258.429 52.5835C257.954 54.2981 257.182 56.0399 256.922 57.796C256.49 60.7082 256.403 63.6872 256.015 66.6123C255.103 73.4858 250.447 103.729 247.833 108.367C247.819 108.393 247.802 108.419 247.787 108.444C247.656 107.968 246.579 107.311 246.158 106.98C244.07 104.312 238.174 102.053 234.792 101.561C234.801 100.625 235.266 99.4386 235.462 98.4943C235.905 96.3956 236.268 94.2828 236.55 92.1559C237.437 85.0982 240.197 53.6091 238.074 48.8128C238.709 49.0882 239.428 49.4163 240.124 49.169C240.629 48.99 240.945 48.6542 241.177 48.1869C246.576 45.799 249.6 42.7086 253.579 38.5566Z" fill="#644A49"/>
<path d="M238.074 48.8128C238.709 49.0882 239.428 49.4163 240.124 49.169C240.629 48.99 240.945 48.6542 241.177 48.1869C242.943 52.2636 241.23 94.7652 239.745 98.429C239.697 98.5481 239.645 98.6615 239.581 98.7741C242.175 99.8988 245.456 102.926 246.525 105.588C246.677 105.965 246.694 106.277 246.627 106.673L246.158 106.98C244.07 104.312 238.174 102.053 234.792 101.561C234.801 100.625 235.266 99.4386 235.462 98.4943C235.905 96.3956 236.268 94.2828 236.55 92.1559C237.437 85.0982 240.197 53.6091 238.074 48.8128Z" fill="#92797B"/>
<path d="M126.873 0H147.641H260.493C260.731 0.378103 260.812 0.693828 260.833 1.13536C260.973 4.05216 260.863 7.0229 260.865 9.94419V26.5606C260.864 28.9919 261.22 35.4866 260.78 37.5672C260.742 37.7441 260.678 37.911 260.603 38.0747L260.593 38.6856C260.416 39.6417 260.117 40.7887 259.261 41.361C259.231 41.3815 259.199 41.4002 259.167 41.4197C258.876 40.7046 258.559 39.9954 257.973 39.4716C256.706 38.3398 255.15 38.4679 253.579 38.5566C249.6 42.7086 246.576 45.799 241.177 48.1869C240.945 48.6542 240.629 48.99 240.124 49.169C239.428 49.4163 238.709 49.0882 238.074 48.8128C238.107 48.3964 238.024 48.184 237.815 47.8191C234.293 41.6732 213.84 36.1837 207.105 34.3652C207.822 31.9322 209.586 30.2374 210.825 28.0883C211.515 26.8922 212.1 25.3858 211.731 23.997C212.328 22.7626 212.262 20.8902 211.838 19.6059C211.598 18.8777 211.351 18.4832 210.66 18.1365C209.882 22.08 204.555 36.3861 201.471 38.4042C201.381 38.4637 201.287 38.5128 201.188 38.5591C201.76 40.6279 202.106 42.3173 204.112 43.4523C207.773 45.5244 211.558 45.0281 212.952 49.9279C213.553 52.0366 213.515 54.3386 213.261 56.4984C212.422 63.6312 207.844 78.6709 205.034 85.4897C203.611 88.9415 201.846 92.2452 200.024 95.4993C195.226 104.064 185.291 114.257 175.667 116.949C166.92 119.395 156.327 119.886 147.247 120.012C149.576 119.397 152.093 117.357 154.235 116.191C157.235 114.56 160.326 113.054 163.25 111.288C170.355 106.996 177.138 100.97 181.353 93.7299C183.803 89.5217 185.84 85.4069 186.863 80.6125C187.062 79.6806 187.385 78.5918 187.138 77.6474L186.863 77.4322L186.266 77.6062C186.551 81.3128 177.34 94.3142 174.679 97.421C170.102 102.766 160.361 111.495 153.142 112.595C150.079 112.949 147.503 114.24 144.805 115.644C142.999 116.391 141.059 116.754 139.151 117.146C135.978 116.53 132.686 116.268 129.476 115.868C125.673 115.405 121.896 114.78 118.147 113.994C113.454 113.022 109.146 111.18 104.557 109.962C101.851 108.502 99.4261 106.423 97.0132 104.531C92.6719 101.127 88.4842 97.8521 84.6985 93.8177C84.6539 94.608 86.5278 96.792 87.0545 97.5393C84.8215 96.9592 82.6183 96.2582 80.3854 95.6748C75.0367 94.277 69.6867 93.1415 64.9829 90.0521C63.1704 88.8621 61.4936 87.2268 59.8343 85.8273C59.1714 85.3639 58.4198 84.9046 57.8261 84.3567C56.3933 83.0359 55.5195 80.9785 54.922 79.1661C52.1633 70.7983 54.0103 62.1958 56.1649 53.9508C56.487 52.7183 57.959 48.47 57.8727 47.5315C57.7811 46.5369 56.4423 46.4277 55.7594 45.8719C55.4244 44.9796 56.4698 40.1011 56.8166 39.0283L56.5952 38.6899C56.5235 33.8699 52.8132 15.222 50.5125 12.2302L51.133 11.8822C57.5279 8.27575 73.3446 7.73034 81.1887 6.76339C85.4382 6.23954 89.6308 5.23354 93.8796 4.75769C99.4261 4.13646 104.992 4.05799 110.534 3.54398C115.374 3.09511 120.116 2.42254 124.995 2.45873C125.688 2.31443 126.438 2.32323 127.144 2.28415C127.218 2.0802 127.26 2.06364 127.179 1.87022C127.149 1.7982 127.122 1.72472 127.09 1.65384C126.823 1.07499 126.852 0.622605 126.873 0ZM147.641 0C147.96 0.325306 148.187 0.714921 148.485 1.03355C148.992 1.57493 150.909 1.82547 151.632 1.83209C152.41 1.83924 154.792 1.58682 155.324 2.05435C158.316 2.16612 175.133 4.10738 176.782 5.21663C183.125 5.96464 206.834 11.1278 210.461 15.6825C210.7 15.983 211.051 16.5272 211.084 16.9186L210.66 18.1365C211.351 18.4832 211.598 18.8777 211.838 19.6059C212.262 20.8902 212.328 22.7626 211.731 23.997C212.1 25.3858 211.515 26.8922 210.825 28.0883C209.586 30.2374 207.822 31.9322 207.105 34.3652C213.84 36.1837 234.293 41.6732 237.815 47.8191C238.024 48.184 238.107 48.3964 238.074 48.8128C238.709 49.0882 239.428 49.4163 240.124 49.169C240.629 48.99 240.945 48.6542 241.177 48.1869C246.576 45.799 249.6 42.7086 253.579 38.5566C255.15 38.4679 256.706 38.3398 257.973 39.4716C258.559 39.9954 258.876 40.7046 259.167 41.4197C259.199 41.4002 259.231 41.3815 259.261 41.361C260.117 40.7887 260.416 39.6417 260.593 38.6856L260.603 38.0747C260.678 37.911 260.742 37.7441 260.78 37.5672C261.22 35.4866 260.864 28.9919 260.865 26.5606V9.94419C260.863 7.0229 260.973 4.05216 260.833 1.13536C260.812 0.693828 260.731 0.378103 260.493 0H147.641ZM126.873 0C126.852 0.622605 126.823 1.07499 127.09 1.65384C127.122 1.72472 127.149 1.7982 127.179 1.87022C127.26 2.06364 127.218 2.0802 127.144 2.28415C126.438 2.32323 125.688 2.31443 124.995 2.45873C120.116 2.42254 115.374 3.09511 110.534 3.54398C104.992 4.05799 99.4261 4.13646 93.8796 4.75769C89.6308 5.23354 85.4382 6.23954 81.1887 6.76339C73.3446 7.73034 57.5279 8.27575 51.133 11.8822L50.5125 12.2302C52.8132 15.222 56.5235 33.8699 56.5952 38.6899C59.6646 36.3955 60.7191 30.079 62.4794 26.6965C81.4182 14.6282 121.521 13.7514 143.684 15.1783C151.498 15.7579 159.267 16.7082 166.99 18.0292C170.422 18.5902 173.915 19.0794 177.308 19.8366C183.315 21.1768 195.989 24.4185 199.539 30.0036C201.443 32.9968 200.1 36.1303 201.188 38.5591C201.287 38.5128 201.381 38.4637 201.471 38.4042C204.555 36.3861 209.882 22.08 210.66 18.1365L211.084 16.9186C211.051 16.5272 210.7 15.983 210.461 15.6825C206.834 11.1278 183.125 5.96464 176.782 5.21663C175.133 4.10738 158.316 2.16612 155.324 2.05435C154.792 1.58682 152.41 1.83924 151.632 1.83209C150.909 1.82547 148.992 1.57493 148.485 1.03355C148.187 0.714921 147.96 0.325306 147.641 0H126.873Z" fill="url(#paint2_linear_347_7025)"/>
<path d="M56.8166 39.0283L57.0842 38.9665C57.0419 40.2075 55.8358 45.007 56.1311 45.6392C56.7253 45.9339 57.7368 46.2578 58.0137 46.8941C58.3245 49.0778 57.1467 52.0169 56.5651 54.1217C53.9257 63.6746 52.2437 73.4144 56.8526 82.698C56.8531 81.8668 56.8266 81.1419 57.1751 80.3672L57.4452 80.2905C58.7867 81.6871 58.6381 84.2102 59.8343 85.8273C59.1714 85.3639 58.4198 84.9046 57.8261 84.3567C56.3933 83.0359 55.5195 80.9785 54.922 79.1661C52.1633 70.7983 54.0103 62.1958 56.1649 53.9508C56.487 52.7183 57.959 48.47 57.8727 47.5315C57.7811 46.5369 56.4423 46.4277 55.7594 45.8719C55.4244 44.9796 56.4698 40.1011 56.8166 39.0283Z" fill="#644A49"/>
<path d="M126.873 0H147.641C147.96 0.325306 148.187 0.714921 148.485 1.03355C148.992 1.57493 150.909 1.82547 151.632 1.83209C152.41 1.83924 154.792 1.58682 155.324 2.05435C158.316 2.16612 175.133 4.10738 176.782 5.21663C183.125 5.96464 206.834 11.1278 210.461 15.6825C210.7 15.983 211.051 16.5272 211.084 16.9186L210.66 18.1365C209.882 22.08 204.555 36.3861 201.471 38.4042C201.381 38.4637 201.287 38.5128 201.188 38.5591C200.1 36.1303 201.443 32.9968 199.539 30.0036C195.989 24.4185 183.315 21.1768 177.308 19.8366C173.915 19.0794 170.422 18.5902 166.99 18.0292C159.267 16.7082 151.498 15.7579 143.684 15.1783C121.521 13.7514 81.4182 14.6282 62.4794 26.6965C60.7191 30.079 59.6646 36.3955 56.5952 38.6899C56.5235 33.8699 52.8132 15.222 50.5125 12.2302L51.133 11.8822C57.5279 8.27575 73.3446 7.73034 81.1887 6.76339C85.4382 6.23954 89.6308 5.23354 93.8796 4.75769C99.4261 4.13646 104.992 4.05799 110.534 3.54398C115.374 3.09511 120.116 2.42254 124.995 2.45873C125.688 2.31443 126.438 2.32323 127.144 2.28415C127.218 2.0802 127.26 2.06364 127.179 1.87022C127.149 1.7982 127.122 1.72472 127.09 1.65384C126.823 1.07499 126.852 0.622605 126.873 0ZM126.873 0C126.852 0.622605 126.823 1.07499 127.09 1.65384C127.122 1.72472 127.149 1.7982 127.179 1.87022C127.26 2.06364 127.218 2.0802 127.144 2.28415C126.438 2.32323 125.688 2.31443 124.995 2.45873C120.116 2.42254 115.374 3.09511 110.534 3.54398C104.992 4.05799 99.4261 4.13646 93.8796 4.75769C89.6308 5.23354 85.4382 6.23954 81.1887 6.76339C73.3446 7.73034 57.5279 8.27575 51.133 11.8822C51.2334 11.9767 51.3383 12.0581 51.4571 12.1287C54.9121 14.179 73.4309 10.6058 77.7885 9.95909C92.151 7.82761 106.356 6.33436 120.877 6.09324C126.477 6.00534 132.075 6.05771 137.672 6.25036C143.094 6.45551 157.872 7.70334 162.607 6.414C162.965 6.31663 163.033 6.33068 163.21 6.01337C163.193 5.98794 163.177 5.96169 163.159 5.9371C162.383 4.89725 160.066 4.52394 158.851 4.32096C163.35 4.3967 171.208 6.96395 175.148 6.09212C175.738 5.96172 176.289 5.55382 176.782 5.21663C175.133 4.10738 158.316 2.16612 155.324 2.05435C154.792 1.58682 152.41 1.83924 151.632 1.83209C150.909 1.82547 148.992 1.57493 148.485 1.03355C148.187 0.714921 147.96 0.325306 147.641 0H126.873Z" fill="url(#paint3_linear_347_7025)"/>
<path d="M195.147 23.3787C196.204 23.0072 199.531 24.6324 200.796 24.9162C201.758 25.1319 203.018 25.3011 203.878 24.7133C204.447 24.3244 204.682 23.6714 204.806 23.0239C204.842 23.3 204.871 23.5828 204.845 23.8614C204.75 24.9178 204.234 26.1072 203.425 26.7929C203.428 26.8199 203.434 26.8468 203.434 26.874C203.451 27.826 202.301 29.2248 201.688 29.9217C201.726 29.4351 201.52 28.9075 201.304 28.4776C200.242 26.3705 197.335 24.1337 195.147 23.3787Z" fill="#92797B"/>
<path d="M72.9534 16.0481C77.33 15.7423 81.7793 15.8792 86.1629 15.9265C78.7676 17.7031 68.9809 19.762 62.3394 23.1737C59.7613 24.7405 59.4877 26.4369 58.0781 28.8931C57.6862 24.9434 56.6259 20.8937 55.8376 16.9966C61.5347 16.8276 67.2408 16.2324 72.9534 16.0481Z" fill="#92797B"/>
<path d="M126.873 0H147.641C147.96 0.325306 148.187 0.714921 148.485 1.03355C148.992 1.57493 150.909 1.82547 151.632 1.83209C152.41 1.83924 154.792 1.58682 155.324 2.05435C158.316 2.16612 175.133 4.10738 176.782 5.21663C176.289 5.55382 175.738 5.96172 175.148 6.09212C171.208 6.96395 163.35 4.3967 158.851 4.32096C160.066 4.52394 162.383 4.89725 163.159 5.9371C163.177 5.96169 163.193 5.98794 163.21 6.01337C163.033 6.33068 162.965 6.31663 162.607 6.414C157.872 7.70334 143.094 6.45551 137.672 6.25036C132.075 6.05771 126.477 6.00534 120.877 6.09324C106.356 6.33436 92.151 7.82761 77.7885 9.95909C73.4309 10.6058 54.9121 14.179 51.4571 12.1287C51.3383 12.0581 51.2334 11.9767 51.133 11.8822C57.5279 8.27575 73.3446 7.73034 81.1887 6.76339C85.4382 6.23954 89.6308 5.23354 93.8796 4.75769C99.4261 4.13646 104.992 4.05799 110.534 3.54398C115.374 3.09511 120.116 2.42254 124.995 2.45873C125.688 2.31443 126.438 2.32323 127.144 2.28415C127.218 2.0802 127.26 2.06364 127.179 1.87022C127.149 1.7982 127.122 1.72472 127.09 1.65384C126.823 1.07499 126.852 0.622605 126.873 0ZM126.873 0C126.852 0.622605 126.823 1.07499 127.09 1.65384C127.122 1.72472 127.149 1.7982 127.179 1.87022C127.26 2.06364 127.218 2.0802 127.144 2.28415C126.438 2.32323 125.688 2.31443 124.995 2.45873C127.139 2.63385 129.288 2.44605 131.436 2.5155C134.097 2.60153 147.237 3.76171 148.721 2.93289C150.71 2.96828 152.614 1.99775 155.324 2.05435C154.792 1.58682 152.41 1.83924 151.632 1.83209C150.909 1.82547 148.992 1.57493 148.485 1.03355C148.187 0.714921 147.96 0.325306 147.641 0H126.873Z" fill="#EBDED3"/>
<path d="M126.873 0H147.641C147.96 0.325306 148.187 0.714921 148.485 1.03355C148.992 1.57493 150.909 1.82547 151.632 1.83209C152.41 1.83924 154.792 1.58682 155.324 2.05435C152.614 1.99775 150.71 2.96828 148.721 2.93289C147.237 3.76171 134.097 2.60153 131.436 2.5155C129.288 2.44605 127.139 2.63385 124.995 2.45873C125.688 2.31443 126.438 2.32323 127.144 2.28415C127.218 2.0802 127.26 2.06364 127.179 1.87022C127.149 1.7982 127.122 1.72472 127.09 1.65384C126.823 1.07499 126.852 0.622605 126.873 0ZM126.873 0C126.852 0.622605 126.823 1.07499 127.09 1.65384C127.122 1.72472 127.149 1.7982 127.179 1.87022C127.26 2.06364 127.218 2.0802 127.144 2.28415C131.585 2.99892 135.346 -0.68144 140.728 0.16074C141.845 0.335457 142.905 0.865217 143.985 1.19409C145.054 1.51961 146.394 1.54222 147.353 2.0884L147.264 2.36921L146.298 2.77514L148.721 2.93289C150.71 2.96828 152.614 1.99775 155.324 2.05435C154.792 1.58682 152.41 1.83924 151.632 1.83209C150.909 1.82547 148.992 1.57493 148.485 1.03355C148.187 0.714921 147.96 0.325306 147.641 0H126.873Z" fill="url(#paint4_linear_347_7025)"/>
<path d="M126.873 0H147.641C147.96 0.325306 148.187 0.714921 148.485 1.03355C148.992 1.57493 150.909 1.82547 151.632 1.83209C152.41 1.83924 154.792 1.58682 155.324 2.05435C152.614 1.99775 150.71 2.96828 148.721 2.93289L146.298 2.77514L147.264 2.36921L147.353 2.0884C146.394 1.54222 145.054 1.51961 143.985 1.19409C142.905 0.865217 141.845 0.335457 140.728 0.16074C135.346 -0.68144 131.585 2.99892 127.144 2.28415C127.218 2.0802 127.26 2.06364 127.179 1.87022C127.149 1.7982 127.122 1.72472 127.09 1.65384C126.823 1.07499 126.852 0.622605 126.873 0Z" fill="#FEFDFE" fill-opacity="0.588235"/>
<path d="M211.084 16.9186C211.671 17.2322 214.756 18.3669 215.003 18.6414C225.734 20.7667 236.363 25.2046 246.187 29.9599C249.206 31.4215 252.121 33.2511 255.171 34.6092C256.759 34.7986 259.134 35.645 260.167 36.9523C260.398 37.2442 260.582 37.7012 260.603 38.0747L260.593 38.6856C260.416 39.6417 260.117 40.7887 259.261 41.361C259.231 41.3815 259.199 41.4002 259.167 41.4197C258.876 40.7046 258.559 39.9954 257.973 39.4716C256.706 38.3398 255.15 38.4679 253.579 38.5566C249.6 42.7086 246.576 45.799 241.177 48.1869C240.945 48.6542 240.629 48.99 240.124 49.169C239.428 49.4163 238.709 49.0882 238.074 48.8128C238.107 48.3964 238.024 48.184 237.815 47.8191C234.293 41.6732 213.84 36.1837 207.105 34.3652C207.822 31.9322 209.586 30.2374 210.825 28.0883C211.515 26.8922 212.1 25.3858 211.731 23.997C212.328 22.7626 212.262 20.8902 211.838 19.6059C211.598 18.8777 211.351 18.4832 210.66 18.1365L211.084 16.9186Z" fill="#92797B"/>
<path d="M210.086 31.8806C212.895 35.1512 231.99 38.3488 238.451 44.5331C238.87 44.9342 239.748 45.6127 239.895 46.1744C242.701 45.2528 248.716 39.8649 249.97 37.2775C250.142 36.9222 250.154 36.5824 250.093 36.1979C251.575 36.5889 252.65 37.3232 253.579 38.5566C249.6 42.7086 246.576 45.799 241.177 48.1869C240.945 48.6542 240.629 48.99 240.124 49.169C239.428 49.4163 238.709 49.0882 238.074 48.8128C238.107 48.3964 238.024 48.184 237.815 47.8191C234.293 41.6732 213.84 36.1837 207.105 34.3652L207.978 34.2692C208.966 33.6436 209.513 32.8741 210.086 31.8806Z" fill="#B6908F"/>
<path d="M211.084 16.9186C211.671 17.2322 214.756 18.3669 215.003 18.6414C225.734 20.7667 236.363 25.2046 246.187 29.9599C249.206 31.4215 252.121 33.2511 255.171 34.6092C256.759 34.7986 259.134 35.645 260.167 36.9523C260.398 37.2442 260.582 37.7012 260.603 38.0747L260.593 38.6856C260.416 39.6417 260.117 40.7887 259.261 41.361C259.231 41.3815 259.199 41.4002 259.167 41.4197C258.876 40.7046 258.559 39.9954 257.973 39.4716C256.706 38.3398 255.15 38.4679 253.579 38.5566C252.65 37.3232 251.575 36.5889 250.093 36.1979C249.943 35.5796 249.492 35.2286 249.068 34.766C246.439 32.3719 240.516 30.5712 237.114 29.0878C233.47 27.4985 229.953 25.6965 226.184 24.4005C223.656 23.531 221.127 22.8996 218.497 22.4311C218.52 22.5564 218.53 22.6792 218.511 22.8063C218.103 25.6321 212.445 30.1846 210.086 31.8806C209.513 32.8741 208.966 33.6436 207.978 34.2692L207.105 34.3652C207.822 31.9322 209.586 30.2374 210.825 28.0883C211.515 26.8922 212.1 25.3858 211.731 23.997C212.328 22.7626 212.262 20.8902 211.838 19.6059C211.598 18.8777 211.351 18.4832 210.66 18.1365L211.084 16.9186Z" fill="#EBDED3"/>
<path d="M211.084 16.9186C211.671 17.2322 214.756 18.3669 215.003 18.6414C215.222 19.5011 214.788 20.0309 214.347 20.7759C213.603 22.0304 212.932 23.1375 211.731 23.997C212.328 22.7626 212.262 20.8902 211.838 19.6059C211.598 18.8777 211.351 18.4832 210.66 18.1365L211.084 16.9186Z" fill="#70ACBC"/>
<path d="M255.171 34.6092C256.759 34.7986 259.134 35.645 260.167 36.9523C260.398 37.2442 260.582 37.7012 260.603 38.0747L260.593 38.6856C260.416 39.6417 260.117 40.7887 259.261 41.361C259.231 41.3815 259.199 41.4002 259.167 41.4197C258.876 40.7046 258.559 39.9954 257.973 39.4716C256.706 38.3398 255.15 38.4679 253.579 38.5566C252.65 37.3232 251.575 36.5889 250.093 36.1979C249.943 35.5796 249.492 35.2286 249.068 34.766C250.594 34.8887 252.385 36.1275 253.876 36.607C254.371 36.7663 254.912 36.9132 255.401 36.6651C255.714 35.9102 255.458 35.3447 255.171 34.6092Z" fill="#70ACBC"/>
<path d="M91.5542 29.4636C94.3262 28.4385 97.6884 28.2727 100.608 27.727C118.777 24.3304 146.287 22.2497 163.454 29.8975C172.842 34.0794 182.039 44.9215 185.683 54.4217C186.149 55.6342 186.604 56.887 186.843 58.1664C187.666 62.5897 188.032 73.6327 186.266 77.6062C186.551 81.3128 177.34 94.3142 174.679 97.421C170.102 102.766 160.361 111.495 153.142 112.595C150.079 112.949 147.503 114.24 144.805 115.644C142.999 116.391 141.059 116.754 139.151 117.146C135.978 116.53 132.686 116.268 129.476 115.868C125.673 115.405 121.896 114.78 118.147 113.994C113.454 113.022 109.146 111.18 104.557 109.962C101.851 108.502 99.4261 106.423 97.0132 104.531C92.6719 101.127 88.4842 97.8521 84.6985 93.8177C84.3353 92.9942 82.1398 90.9699 81.4033 90.0273C77.8014 85.416 75.6344 79.5531 74.6347 73.8162C72.5918 62.0931 76.3575 49.3185 83.2391 39.7947C85.8303 36.2089 89.0034 33.1112 91.5542 29.4636Z" fill="url(#paint5_linear_347_7025)"/>
<path d="M136.305 26.1646C140.207 25.5786 147.737 26.9812 151.596 28.2142C159.587 30.7679 165.555 35.3728 171.64 41.0141C173.833 43.0473 176.208 45.1328 177.594 47.8409C178.512 49.634 178.756 51.9416 179.269 53.888C180.648 59.1229 183.541 66.7778 181.799 72.1679C181.58 71.7622 181.901 69.5405 181.909 68.8879C181.939 66.6718 181.378 59.5221 179.93 58.0308C180.212 57.2051 179.59 55.4982 179.352 54.6435C178.543 51.7496 176.769 49.7116 175.114 47.3034C174.206 45.9828 173.821 44.3423 172.891 43.0322C169.985 38.9384 163.487 34.1721 159.11 31.7173C150.356 26.8079 139.428 25.2283 129.616 27.2435C127.404 27.6978 125.285 28.6394 123.115 29.2535C124.183 28.551 127.771 27.2809 128.989 27.0682C129.703 26.9432 130.449 27.009 131.167 26.8579C131.631 26.7604 132.031 26.4033 132.498 26.3595C133.719 26.245 135.004 26.4006 136.215 26.1821C136.245 26.1767 136.275 26.1704 136.305 26.1646Z" fill="#AD6945"/>
<path d="M131.131 35.8442C133.262 33.8343 136.061 32.9823 138.951 33.0779C148.277 33.3865 157.162 39.1619 163.332 45.8267C168.146 51.0276 171.802 58.1038 171.487 65.3934C171.469 65.8137 171.382 66.2342 171.21 66.619L171.08 66.7163C169.167 67.0287 157.555 63.7587 155.313 62.8711C155.271 62.7397 155.228 62.612 155.171 62.4862C154.328 60.6152 144.199 53.8896 141.912 53.0062C141.878 53.0093 141.844 53.0136 141.81 53.0158C140.564 53.0955 137.421 50.0288 136.449 49.2219C136.188 48.851 135.909 48.4471 135.715 48.0375C135.317 47.2031 135.828 46.1559 136.094 45.3499C135.958 44.2484 135.854 43.1275 135.597 42.0469C133.807 40.1122 132.244 38.2672 131.131 35.8442Z" fill="#EBDED3"/>
<path d="M136.094 45.3499C136.321 47.6472 138.137 49.9058 139.859 51.3208C140.54 51.8799 141.273 52.3965 141.912 53.0062C141.878 53.0093 141.844 53.0136 141.81 53.0158C140.564 53.0955 137.421 50.0288 136.449 49.2219C136.188 48.851 135.909 48.4471 135.715 48.0375C135.317 47.2031 135.828 46.1559 136.094 45.3499Z" fill="#FEA64D"/>
<path d="M136.449 49.2219C137.421 50.0288 140.564 53.0955 141.81 53.0158C141.844 53.0136 141.878 53.0093 141.912 53.0062C144.199 53.8896 154.328 60.6152 155.171 62.4862C155.228 62.612 155.271 62.7397 155.313 62.8711C157.555 63.7587 169.167 67.0287 171.08 66.7163L171.21 66.619C171.329 66.7323 171.433 66.8588 171.52 66.9985C171.608 67.1381 171.676 67.2865 171.726 67.4437C173.028 71.5399 170.75 78.4676 168.872 82.2259C166.95 86.0706 160.897 93.1233 157.392 95.5399C155.138 97.0932 152.233 98.3015 149.636 99.163C147.702 99.8052 145.641 100.418 143.623 100.706C141.81 100.965 133.245 101.068 131.831 100.353C132.368 100.074 134.493 100.559 135.232 100.594C138.638 100.753 142.077 100.852 145.436 100.151C146.788 99.869 153.31 97.8687 153.912 96.9526C153.769 96.6058 153.562 96.4908 153.261 96.2979C152.021 95.5026 150.629 94.5286 149.221 94.0916C148.241 93.787 147.172 93.7821 146.16 93.643C144.683 93.4403 142.872 91.3332 141.862 90.2491C139.976 88.2215 140.985 86.7319 140.255 85.9961C139.309 86.4596 138.182 87.3766 137.414 88.1048C136.957 88.5385 136.876 88.867 136.853 89.467C138.013 90.4055 140.091 90.2946 141.298 91.2488C142.288 92.0309 142.172 93.8673 143.279 94.483C144.267 95.0342 145.591 94.6229 146.634 95.093L146.363 95.2452C140.46 95.3313 143.34 93.2152 140.506 91.4408C139.245 90.6513 137.575 90.6149 136.28 89.7675C135.488 88.2778 140.095 85.1561 141.078 84.0819C141.935 83.1451 142.594 82.0892 142.976 80.8723C143.664 78.6734 144.074 73.8559 143.629 71.6069C143.408 70.4984 142.969 69.4135 142.612 68.343C141.753 65.7674 141.842 63.7932 142.144 61.1487L142.397 61.0704C142.645 61.5942 142.465 62.1885 142.399 62.7604C142.97 62.8711 144.446 63.3181 144.917 63.1106C144.93 62.7613 144.97 62.4929 144.743 62.1922C144.241 61.5279 143.25 60.9108 142.617 60.3433C141.612 59.4407 140.692 58.442 139.683 57.5427C137.274 55.3972 134.13 53.4233 133.274 50.1171C134.651 49.7113 136.689 52.1649 138.326 51.9828C138.08 50.9639 136.92 50.3167 136.449 49.2219Z" fill="#F88E61"/>
<mask id="path-2-outside-1_347_7025" maskUnits="userSpaceOnUse" x="57" y="37" width="128" height="56" fill="black">
<rect fill="white" x="57" y="37" width="128" height="56"/>
<path d="M70.296 89.248C68.392 89.3227 66.6373 89.08 65.032 88.52C63.464 87.9973 62.176 87.2693 61.168 86.336C60.1973 85.4027 59.5813 84.32 59.32 83.088C59.0587 81.8187 59.2827 80.5307 59.992 79.224C60.9627 77.656 62.904 77.1893 65.816 77.824C68.0187 78.272 69.5307 78.5147 70.352 78.552C71.2107 78.5893 71.9387 78.4773 72.536 78.216C75.2613 77.32 76.792 76.3493 77.128 75.304C77.352 74.52 76.8667 73.6053 75.672 72.56C75.1867 72.112 74.6453 71.664 74.048 71.216C73.4507 70.768 72.9467 70.32 72.536 69.872C70.6693 68.4907 69.1947 66.904 68.112 65.112C67.0667 63.2827 66.6373 61.304 66.824 59.176C67.0107 57.048 67.3653 55.2933 67.888 53.912C68.4107 52.4933 69.064 51.2427 69.848 50.16C71.2293 48.256 73.0213 46.7067 75.224 45.512C77.7627 44.2053 79.7973 43.3653 81.328 42.992C84.352 42.32 87.4133 42.264 90.512 42.824C91.5573 43.0107 92.4533 43.3653 93.2 43.888C93.9467 44.4107 94.6933 44.952 95.44 45.512C96.7467 46.8187 97.064 48.144 96.392 49.488C96.1307 50.0853 95.72 50.5707 95.16 50.944C94.6 51.3173 94.0027 51.5227 93.368 51.56C93.4427 52.568 93.256 53.3147 92.808 53.8C91.9493 54.6587 90.456 55.2187 88.328 55.48C85.2667 55.256 83.1947 55.424 82.112 55.984C80.8427 56.656 80.376 58.112 80.712 60.352C80.7867 60.8373 81.0853 61.3413 81.608 61.864C82.168 62.3867 82.8027 62.9467 83.512 63.544C84.2587 64.1413 85.024 64.8133 85.808 65.56C86.6293 66.3067 87.3387 67.1653 87.936 68.136C90.0267 71.5707 89.8587 75.584 87.432 80.176C85.64 83.6107 82.5787 86.1867 78.248 87.904C76.008 88.8 73.3573 89.248 70.296 89.248ZM103.434 44.112L103.49 43.888L103.994 43.384C104.405 42.4133 104.853 41.8347 105.338 41.648C105.6 41.5733 105.936 41.48 106.346 41.368C106.757 41.256 107.298 40.976 107.97 40.528C108.232 40.0053 108.773 39.7813 109.594 39.856C110.416 39.8933 111.218 40.1547 112.002 40.64C112.824 41.088 113.477 41.7227 113.962 42.544C114.485 43.3653 114.616 44.224 114.354 45.12C114.093 45.9787 113.869 46.632 113.682 47.08C113.533 47.4907 113.365 47.8827 113.178 48.256C113.029 48.6293 112.824 49.0587 112.562 49.544C112.338 49.992 112.04 50.608 111.666 51.392L109.818 55.256C109.632 55.7413 109.464 56.0213 109.314 56.096C109.202 56.1707 109.09 56.3013 108.978 56.488C109.314 56.4133 109.594 56.3573 109.818 56.32C110.042 56.2827 110.266 56.2453 110.49 56.208C111.013 56.1333 111.61 56.0587 112.282 55.984C112.693 56.0587 113.048 56.096 113.346 56.096H114.13C114.578 56.096 115.12 56.2267 115.754 56.488C116.389 56.712 116.8 57.1227 116.986 57.72C117.173 58.3173 117.192 58.9333 117.042 59.568C116.893 60.1653 116.594 60.7253 116.146 61.248C115.698 61.7707 115.12 62.0507 114.41 62.088C111.162 62.984 108.848 63.4693 107.466 63.544L107.13 63.936V63.992C106.757 64.888 106.346 66.0267 105.898 67.408C105.488 68.752 105.021 70.2267 104.498 71.832C104.013 73.4 103.509 75.0427 102.986 76.76C102.464 78.44 101.922 80.064 101.362 81.632C99.5704 86.896 98.2638 89.752 97.4424 90.2C97.1438 90.3493 96.8264 90.4427 96.4904 90.48C96.1918 90.5547 96.0238 90.6107 95.9864 90.648C94.6798 90.5733 93.5971 90.312 92.7384 89.864C91.8798 89.416 91.3011 88.9867 91.0024 88.576C90.7038 88.1653 90.6291 87.6987 90.7784 87.176C91.4878 80.68 92.9064 73.568 95.0344 65.84C94.2878 65.84 93.7651 65.9147 93.4664 66.064C92.9064 66.3627 92.2344 66.5307 91.4504 66.568H91.3944C90.7971 66.5307 90.2558 66.2507 89.7704 65.728C89.2851 65.2053 88.9864 64.608 88.8744 63.936C88.7624 63.264 88.8744 62.5733 89.2104 61.864C89.5464 61.1547 90.2184 60.5947 91.2264 60.184C92.4211 59.848 93.2984 59.568 93.8584 59.344C94.9411 58.896 95.8371 58.5787 96.5464 58.392C97.2931 58.2053 97.7038 58.0933 97.7784 58.056C97.8904 57.9813 97.9651 57.9253 98.0024 57.888C98.1144 57.8133 98.3944 57.776 98.8424 57.776C99.0664 56.6933 99.2904 55.592 99.5144 54.472C99.7384 53.352 100.018 52.2133 100.354 51.056C101.101 48.368 102.128 46.0533 103.434 44.112ZM134.657 61.976L134.881 62.032C134.956 62.032 134.993 62.0507 134.993 62.088C135.964 61.7147 136.766 61.9947 137.401 62.928C137.812 63.5627 138.129 64.5333 138.353 65.84C138.428 67.632 138.241 70.1147 137.793 73.288C136.934 79.7093 136.468 83.536 136.393 84.768C136.468 86.0747 135.665 86.9707 133.985 87.456C132.529 87.904 131.073 87.8853 129.617 87.4C128.086 86.8773 127.452 86.0747 127.713 84.992C127.414 85.552 127.116 85.944 126.817 86.168C126.518 86.4293 125.921 86.7653 125.025 87.176C124.166 87.624 122.934 87.9787 121.329 88.24C119.724 88.5387 118.118 88.6133 116.513 88.464C114.908 88.352 113.433 87.96 112.089 87.288C110.782 86.6533 109.905 85.6453 109.457 84.264C108.598 81.576 108.71 78.16 109.793 74.016C110.54 71.2907 111.884 68.8827 113.825 66.792C116.065 64.4027 118.604 62.424 121.441 60.856C123.569 59.6987 125.622 59.008 127.601 58.784C128.273 58.7093 128.852 58.728 129.337 58.84C129.86 58.952 130.401 59.064 130.961 59.176C131.558 59.288 132.118 59.456 132.641 59.68C133.985 60.24 134.657 61.0053 134.657 61.976ZM124.297 76.816C124.558 76.2933 124.764 75.64 124.913 74.856C125.1 74.072 125.342 73.2133 125.641 72.28C122.617 73.512 120.302 75.024 118.697 76.816C116.942 78.7947 117.054 80.1573 119.033 80.904C120.75 81.352 122.001 81.072 122.785 80.064C123.121 79.616 123.42 79.056 123.681 78.384C123.942 77.712 124.26 77.0213 124.633 76.312C124.521 76.4987 124.409 76.6667 124.297 76.816ZM141.217 62.816C141.739 61.472 142.467 60.464 143.401 59.792C144.371 59.0827 145.286 58.6533 146.145 58.504C147.041 58.3173 147.769 58.4107 148.329 58.784C148.926 59.1573 149.131 59.736 148.945 60.52C149.654 59.8107 150.681 59.1573 152.025 58.56C153.369 57.9627 154.433 57.552 155.217 57.328C156.001 57.104 156.673 56.992 157.233 56.992C158.465 57.0667 158.819 57.7387 158.297 59.008C158.931 59.12 159.398 59.5307 159.697 60.24C159.995 60.9493 160.033 61.7333 159.809 62.592C159.585 63.4507 159.081 64.2907 158.297 65.112C157.513 65.9333 156.449 66.4933 155.105 66.792C153.798 67.0907 152.697 67.7813 151.801 68.864C150.942 69.9093 150.177 71.216 149.505 72.784C148.385 75.4347 147.377 79.1867 146.481 84.04C146.182 85.7947 144.969 87.2693 142.841 88.464C140.825 89.6213 138.977 89.9573 137.297 89.472C135.393 88.9493 134.553 87.5493 134.777 85.272C134.851 83.6667 135.337 81.5387 136.233 78.888C137.129 76.2 137.819 74.184 138.305 72.84C138.79 71.4587 139.126 70.4133 139.313 69.704L141.217 62.816ZM169.186 44.112L169.242 43.888L169.746 43.384C170.157 42.4133 170.605 41.8347 171.09 41.648C171.352 41.5733 171.688 41.48 172.098 41.368C172.509 41.256 173.05 40.976 173.722 40.528C173.984 40.0053 174.525 39.7813 175.346 39.856C176.168 39.8933 176.97 40.1547 177.754 40.64C178.576 41.088 179.229 41.7227 179.714 42.544C180.237 43.3653 180.368 44.224 180.106 45.12C179.845 45.9787 179.621 46.632 179.434 47.08C179.285 47.4907 179.117 47.8827 178.93 48.256C178.781 48.6293 178.576 49.0587 178.314 49.544C178.09 49.992 177.792 50.608 177.418 51.392L175.57 55.256C175.384 55.7413 175.216 56.0213 175.066 56.096C174.954 56.1707 174.842 56.3013 174.73 56.488C175.066 56.4133 175.346 56.3573 175.57 56.32C175.794 56.2827 176.018 56.2453 176.242 56.208C176.765 56.1333 177.362 56.0587 178.034 55.984C178.445 56.0587 178.8 56.096 179.098 56.096H179.882C180.33 56.096 180.872 56.2267 181.506 56.488C182.141 56.712 182.552 57.1227 182.738 57.72C182.925 58.3173 182.944 58.9333 182.794 59.568C182.645 60.1653 182.346 60.7253 181.898 61.248C181.45 61.7707 180.872 62.0507 180.162 62.088C176.914 62.984 174.6 63.4693 173.218 63.544L172.882 63.936V63.992C172.509 64.888 172.098 66.0267 171.65 67.408C171.24 68.752 170.773 70.2267 170.25 71.832C169.765 73.4 169.261 75.0427 168.738 76.76C168.216 78.44 167.674 80.064 167.114 81.632C165.322 86.896 164.016 89.752 163.194 90.2C162.896 90.3493 162.578 90.4427 162.242 90.48C161.944 90.5547 161.776 90.6107 161.738 90.648C160.432 90.5733 159.349 90.312 158.49 89.864C157.632 89.416 157.053 88.9867 156.754 88.576C156.456 88.1653 156.381 87.6987 156.53 87.176C157.24 80.68 158.658 73.568 160.786 65.84C160.04 65.84 159.517 65.9147 159.218 66.064C158.658 66.3627 157.986 66.5307 157.202 66.568H157.146C156.549 66.5307 156.008 66.2507 155.522 65.728C155.037 65.2053 154.738 64.608 154.626 63.936C154.514 63.264 154.626 62.5733 154.962 61.864C155.298 61.1547 155.97 60.5947 156.978 60.184C158.173 59.848 159.05 59.568 159.61 59.344C160.693 58.896 161.589 58.5787 162.298 58.392C163.045 58.2053 163.456 58.0933 163.53 58.056C163.642 57.9813 163.717 57.9253 163.754 57.888C163.866 57.8133 164.146 57.776 164.594 57.776C164.818 56.6933 165.042 55.592 165.266 54.472C165.49 53.352 165.77 52.2133 166.106 51.056C166.853 48.368 167.88 46.0533 169.186 44.112Z"/>
</mask>
<path d="M70.296 89.248C68.392 89.3227 66.6373 89.08 65.032 88.52C63.464 87.9973 62.176 87.2693 61.168 86.336C60.1973 85.4027 59.5813 84.32 59.32 83.088C59.0587 81.8187 59.2827 80.5307 59.992 79.224C60.9627 77.656 62.904 77.1893 65.816 77.824C68.0187 78.272 69.5307 78.5147 70.352 78.552C71.2107 78.5893 71.9387 78.4773 72.536 78.216C75.2613 77.32 76.792 76.3493 77.128 75.304C77.352 74.52 76.8667 73.6053 75.672 72.56C75.1867 72.112 74.6453 71.664 74.048 71.216C73.4507 70.768 72.9467 70.32 72.536 69.872C70.6693 68.4907 69.1947 66.904 68.112 65.112C67.0667 63.2827 66.6373 61.304 66.824 59.176C67.0107 57.048 67.3653 55.2933 67.888 53.912C68.4107 52.4933 69.064 51.2427 69.848 50.16C71.2293 48.256 73.0213 46.7067 75.224 45.512C77.7627 44.2053 79.7973 43.3653 81.328 42.992C84.352 42.32 87.4133 42.264 90.512 42.824C91.5573 43.0107 92.4533 43.3653 93.2 43.888C93.9467 44.4107 94.6933 44.952 95.44 45.512C96.7467 46.8187 97.064 48.144 96.392 49.488C96.1307 50.0853 95.72 50.5707 95.16 50.944C94.6 51.3173 94.0027 51.5227 93.368 51.56C93.4427 52.568 93.256 53.3147 92.808 53.8C91.9493 54.6587 90.456 55.2187 88.328 55.48C85.2667 55.256 83.1947 55.424 82.112 55.984C80.8427 56.656 80.376 58.112 80.712 60.352C80.7867 60.8373 81.0853 61.3413 81.608 61.864C82.168 62.3867 82.8027 62.9467 83.512 63.544C84.2587 64.1413 85.024 64.8133 85.808 65.56C86.6293 66.3067 87.3387 67.1653 87.936 68.136C90.0267 71.5707 89.8587 75.584 87.432 80.176C85.64 83.6107 82.5787 86.1867 78.248 87.904C76.008 88.8 73.3573 89.248 70.296 89.248ZM103.434 44.112L103.49 43.888L103.994 43.384C104.405 42.4133 104.853 41.8347 105.338 41.648C105.6 41.5733 105.936 41.48 106.346 41.368C106.757 41.256 107.298 40.976 107.97 40.528C108.232 40.0053 108.773 39.7813 109.594 39.856C110.416 39.8933 111.218 40.1547 112.002 40.64C112.824 41.088 113.477 41.7227 113.962 42.544C114.485 43.3653 114.616 44.224 114.354 45.12C114.093 45.9787 113.869 46.632 113.682 47.08C113.533 47.4907 113.365 47.8827 113.178 48.256C113.029 48.6293 112.824 49.0587 112.562 49.544C112.338 49.992 112.04 50.608 111.666 51.392L109.818 55.256C109.632 55.7413 109.464 56.0213 109.314 56.096C109.202 56.1707 109.09 56.3013 108.978 56.488C109.314 56.4133 109.594 56.3573 109.818 56.32C110.042 56.2827 110.266 56.2453 110.49 56.208C111.013 56.1333 111.61 56.0587 112.282 55.984C112.693 56.0587 113.048 56.096 113.346 56.096H114.13C114.578 56.096 115.12 56.2267 115.754 56.488C116.389 56.712 116.8 57.1227 116.986 57.72C117.173 58.3173 117.192 58.9333 117.042 59.568C116.893 60.1653 116.594 60.7253 116.146 61.248C115.698 61.7707 115.12 62.0507 114.41 62.088C111.162 62.984 108.848 63.4693 107.466 63.544L107.13 63.936V63.992C106.757 64.888 106.346 66.0267 105.898 67.408C105.488 68.752 105.021 70.2267 104.498 71.832C104.013 73.4 103.509 75.0427 102.986 76.76C102.464 78.44 101.922 80.064 101.362 81.632C99.5704 86.896 98.2638 89.752 97.4424 90.2C97.1438 90.3493 96.8264 90.4427 96.4904 90.48C96.1918 90.5547 96.0238 90.6107 95.9864 90.648C94.6798 90.5733 93.5971 90.312 92.7384 89.864C91.8798 89.416 91.3011 88.9867 91.0024 88.576C90.7038 88.1653 90.6291 87.6987 90.7784 87.176C91.4878 80.68 92.9064 73.568 95.0344 65.84C94.2878 65.84 93.7651 65.9147 93.4664 66.064C92.9064 66.3627 92.2344 66.5307 91.4504 66.568H91.3944C90.7971 66.5307 90.2558 66.2507 89.7704 65.728C89.2851 65.2053 88.9864 64.608 88.8744 63.936C88.7624 63.264 88.8744 62.5733 89.2104 61.864C89.5464 61.1547 90.2184 60.5947 91.2264 60.184C92.4211 59.848 93.2984 59.568 93.8584 59.344C94.9411 58.896 95.8371 58.5787 96.5464 58.392C97.2931 58.2053 97.7038 58.0933 97.7784 58.056C97.8904 57.9813 97.9651 57.9253 98.0024 57.888C98.1144 57.8133 98.3944 57.776 98.8424 57.776C99.0664 56.6933 99.2904 55.592 99.5144 54.472C99.7384 53.352 100.018 52.2133 100.354 51.056C101.101 48.368 102.128 46.0533 103.434 44.112ZM134.657 61.976L134.881 62.032C134.956 62.032 134.993 62.0507 134.993 62.088C135.964 61.7147 136.766 61.9947 137.401 62.928C137.812 63.5627 138.129 64.5333 138.353 65.84C138.428 67.632 138.241 70.1147 137.793 73.288C136.934 79.7093 136.468 83.536 136.393 84.768C136.468 86.0747 135.665 86.9707 133.985 87.456C132.529 87.904 131.073 87.8853 129.617 87.4C128.086 86.8773 127.452 86.0747 127.713 84.992C127.414 85.552 127.116 85.944 126.817 86.168C126.518 86.4293 125.921 86.7653 125.025 87.176C124.166 87.624 122.934 87.9787 121.329 88.24C119.724 88.5387 118.118 88.6133 116.513 88.464C114.908 88.352 113.433 87.96 112.089 87.288C110.782 86.6533 109.905 85.6453 109.457 84.264C108.598 81.576 108.71 78.16 109.793 74.016C110.54 71.2907 111.884 68.8827 113.825 66.792C116.065 64.4027 118.604 62.424 121.441 60.856C123.569 59.6987 125.622 59.008 127.601 58.784C128.273 58.7093 128.852 58.728 129.337 58.84C129.86 58.952 130.401 59.064 130.961 59.176C131.558 59.288 132.118 59.456 132.641 59.68C133.985 60.24 134.657 61.0053 134.657 61.976ZM124.297 76.816C124.558 76.2933 124.764 75.64 124.913 74.856C125.1 74.072 125.342 73.2133 125.641 72.28C122.617 73.512 120.302 75.024 118.697 76.816C116.942 78.7947 117.054 80.1573 119.033 80.904C120.75 81.352 122.001 81.072 122.785 80.064C123.121 79.616 123.42 79.056 123.681 78.384C123.942 77.712 124.26 77.0213 124.633 76.312C124.521 76.4987 124.409 76.6667 124.297 76.816ZM141.217 62.816C141.739 61.472 142.467 60.464 143.401 59.792C144.371 59.0827 145.286 58.6533 146.145 58.504C147.041 58.3173 147.769 58.4107 148.329 58.784C148.926 59.1573 149.131 59.736 148.945 60.52C149.654 59.8107 150.681 59.1573 152.025 58.56C153.369 57.9627 154.433 57.552 155.217 57.328C156.001 57.104 156.673 56.992 157.233 56.992C158.465 57.0667 158.819 57.7387 158.297 59.008C158.931 59.12 159.398 59.5307 159.697 60.24C159.995 60.9493 160.033 61.7333 159.809 62.592C159.585 63.4507 159.081 64.2907 158.297 65.112C157.513 65.9333 156.449 66.4933 155.105 66.792C153.798 67.0907 152.697 67.7813 151.801 68.864C150.942 69.9093 150.177 71.216 149.505 72.784C148.385 75.4347 147.377 79.1867 146.481 84.04C146.182 85.7947 144.969 87.2693 142.841 88.464C140.825 89.6213 138.977 89.9573 137.297 89.472C135.393 88.9493 134.553 87.5493 134.777 85.272C134.851 83.6667 135.337 81.5387 136.233 78.888C137.129 76.2 137.819 74.184 138.305 72.84C138.79 71.4587 139.126 70.4133 139.313 69.704L141.217 62.816ZM169.186 44.112L169.242 43.888L169.746 43.384C170.157 42.4133 170.605 41.8347 171.09 41.648C171.352 41.5733 171.688 41.48 172.098 41.368C172.509 41.256 173.05 40.976 173.722 40.528C173.984 40.0053 174.525 39.7813 175.346 39.856C176.168 39.8933 176.97 40.1547 177.754 40.64C178.576 41.088 179.229 41.7227 179.714 42.544C180.237 43.3653 180.368 44.224 180.106 45.12C179.845 45.9787 179.621 46.632 179.434 47.08C179.285 47.4907 179.117 47.8827 178.93 48.256C178.781 48.6293 178.576 49.0587 178.314 49.544C178.09 49.992 177.792 50.608 177.418 51.392L175.57 55.256C175.384 55.7413 175.216 56.0213 175.066 56.096C174.954 56.1707 174.842 56.3013 174.73 56.488C175.066 56.4133 175.346 56.3573 175.57 56.32C175.794 56.2827 176.018 56.2453 176.242 56.208C176.765 56.1333 177.362 56.0587 178.034 55.984C178.445 56.0587 178.8 56.096 179.098 56.096H179.882C180.33 56.096 180.872 56.2267 181.506 56.488C182.141 56.712 182.552 57.1227 182.738 57.72C182.925 58.3173 182.944 58.9333 182.794 59.568C182.645 60.1653 182.346 60.7253 181.898 61.248C181.45 61.7707 180.872 62.0507 180.162 62.088C176.914 62.984 174.6 63.4693 173.218 63.544L172.882 63.936V63.992C172.509 64.888 172.098 66.0267 171.65 67.408C171.24 68.752 170.773 70.2267 170.25 71.832C169.765 73.4 169.261 75.0427 168.738 76.76C168.216 78.44 167.674 80.064 167.114 81.632C165.322 86.896 164.016 89.752 163.194 90.2C162.896 90.3493 162.578 90.4427 162.242 90.48C161.944 90.5547 161.776 90.6107 161.738 90.648C160.432 90.5733 159.349 90.312 158.49 89.864C157.632 89.416 157.053 88.9867 156.754 88.576C156.456 88.1653 156.381 87.6987 156.53 87.176C157.24 80.68 158.658 73.568 160.786 65.84C160.04 65.84 159.517 65.9147 159.218 66.064C158.658 66.3627 157.986 66.5307 157.202 66.568H157.146C156.549 66.5307 156.008 66.2507 155.522 65.728C155.037 65.2053 154.738 64.608 154.626 63.936C154.514 63.264 154.626 62.5733 154.962 61.864C155.298 61.1547 155.97 60.5947 156.978 60.184C158.173 59.848 159.05 59.568 159.61 59.344C160.693 58.896 161.589 58.5787 162.298 58.392C163.045 58.2053 163.456 58.0933 163.53 58.056C163.642 57.9813 163.717 57.9253 163.754 57.888C163.866 57.8133 164.146 57.776 164.594 57.776C164.818 56.6933 165.042 55.592 165.266 54.472C165.49 53.352 165.77 52.2133 166.106 51.056C166.853 48.368 167.88 46.0533 169.186 44.112Z" fill="white"/>
<path d="M70.296 89.248V87.248H70.2568L70.2176 87.2495L70.296 89.248ZM65.032 88.52L65.6907 86.6316L65.6776 86.627L65.6645 86.6226L65.032 88.52ZM61.168 86.336L59.7818 87.7777L59.7954 87.7907L59.8092 87.8035L61.168 86.336ZM59.32 83.088L57.3611 83.4913L57.3635 83.503L59.32 83.088ZM59.992 79.224L58.2915 78.1713L58.2615 78.2197L58.2343 78.2698L59.992 79.224ZM65.816 77.824L65.3901 79.7781L65.4037 79.7811L65.4174 79.7839L65.816 77.824ZM70.352 78.552L70.2612 80.5499L70.2651 80.5501L70.352 78.552ZM72.536 78.216L71.9114 76.316L71.8213 76.3457L71.7344 76.3837L72.536 78.216ZM77.128 75.304L79.0321 75.916L79.0421 75.8849L79.051 75.8534L77.128 75.304ZM75.672 72.56L74.3154 74.0296L74.335 74.0476L74.355 74.0652L75.672 72.56ZM74.048 71.216L72.848 72.816L72.848 72.816L74.048 71.216ZM72.536 69.872L74.0103 68.5205L73.8803 68.3787L73.7257 68.2643L72.536 69.872ZM68.112 65.112L66.3755 66.1043L66.3876 66.1254L66.4002 66.1462L68.112 65.112ZM66.824 59.176L64.8317 59.0012L64.8317 59.0012L66.824 59.176ZM67.888 53.912L69.7586 54.6198L69.7617 54.6116L69.7647 54.6034L67.888 53.912ZM69.848 50.16L68.2292 48.9855L68.2281 48.987L69.848 50.16ZM75.224 45.512L74.3087 43.7337L74.2895 43.7436L74.2705 43.7539L75.224 45.512ZM81.328 42.992L80.8941 41.0396L80.8741 41.0441L80.8541 41.049L81.328 42.992ZM90.512 42.824L90.1563 44.7921L90.1604 44.7929L90.512 42.824ZM93.2 43.888L94.3469 42.2495L94.3469 42.2495L93.2 43.888ZM95.44 45.512L96.8542 44.0978L96.7537 43.9973L96.64 43.912L95.44 45.512ZM96.392 49.488L94.6031 48.5936L94.5802 48.6394L94.5597 48.6864L96.392 49.488ZM93.368 51.56L93.2506 49.5635L91.2235 49.6827L91.3735 51.7077L93.368 51.56ZM92.808 53.8L94.2222 55.2142L94.2505 55.1859L94.2776 55.1566L92.808 53.8ZM88.328 55.48L88.1821 57.4747L88.3774 57.489L88.5718 57.4651L88.328 55.48ZM82.112 55.984L81.1932 54.2076L81.1847 54.212L81.1762 54.2164L82.112 55.984ZM80.712 60.352L78.7341 60.6487L78.7353 60.6561L80.712 60.352ZM81.608 61.864L80.1938 63.2782L80.2182 63.3026L80.2434 63.3261L81.608 61.864ZM83.512 63.544L82.2237 65.0738L82.243 65.09L82.2626 65.1057L83.512 63.544ZM85.808 65.56L84.4287 67.0083L84.4455 67.0243L84.4627 67.0399L85.808 65.56ZM87.936 68.136L89.6444 67.0961L89.6393 67.0878L87.936 68.136ZM87.432 80.176L85.6637 79.2415L85.6588 79.2509L87.432 80.176ZM78.248 87.904L77.5107 86.0448L77.5052 86.047L78.248 87.904ZM70.2176 87.2495C68.5339 87.3156 67.0326 87.0997 65.6907 86.6316L64.3733 90.4084C66.2421 91.0603 68.2501 91.3298 70.3744 91.2465L70.2176 87.2495ZM65.6645 86.6226C64.3125 86.172 63.288 85.5733 62.5268 84.8685L59.8092 87.8035C61.064 88.9654 62.6155 89.8227 64.3995 90.4174L65.6645 86.6226ZM62.5542 84.8943C61.8511 84.2182 61.4489 83.4858 61.2765 82.673L57.3635 83.503C57.7138 85.1542 58.5436 86.5871 59.7818 87.7777L62.5542 84.8943ZM61.2789 82.6847C61.1266 81.9447 61.2304 81.1349 61.7497 80.1782L58.2343 78.2698C57.335 79.9265 56.9908 81.6927 57.3611 83.4913L61.2789 82.6847ZM61.6925 80.2767C61.9676 79.8323 62.7207 79.1963 65.3901 79.7781L66.2419 75.8699C63.0873 75.1823 59.9577 75.4797 58.2915 78.1713L61.6925 80.2767ZM65.4174 79.7839C67.605 80.2288 69.2624 80.5045 70.2612 80.5499L70.4428 76.5541C69.799 76.5248 68.4324 76.3152 66.2146 75.8641L65.4174 79.7839ZM70.2651 80.5501C71.3357 80.5967 72.3863 80.4645 73.3376 80.0483L71.7344 76.3837C71.491 76.4902 71.0856 76.582 70.4389 76.5539L70.2651 80.5501ZM73.1606 80.116C74.6006 79.6426 75.8377 79.1147 76.7991 78.505C77.7215 77.9201 78.6535 77.0938 79.0321 75.916L75.2239 74.692C75.2665 74.5596 75.2652 74.7413 74.6569 75.127C74.0876 75.488 73.1968 75.8934 71.9114 76.316L73.1606 80.116ZM79.051 75.8534C79.3407 74.8398 79.1154 73.8779 78.6987 73.0926C78.2979 72.3372 77.6822 71.6614 76.989 71.0548L74.355 74.0652C74.8564 74.5039 75.0808 74.8081 75.1653 74.9674C75.2339 75.0968 75.1393 74.9842 75.205 74.7546L79.051 75.8534ZM77.0286 71.0904C76.4873 70.5908 75.8928 70.0996 75.248 69.616L72.848 72.816C73.3978 73.2284 73.886 73.6332 74.3154 74.0296L77.0286 71.0904ZM75.248 69.616C74.7281 69.2261 74.3211 68.8595 74.0103 68.5205L71.0617 71.2234C71.5723 71.7805 72.1732 72.3099 72.848 72.816L75.248 69.616ZM73.7257 68.2643C72.0459 67.0213 70.7575 65.6232 69.8238 64.0778L66.4002 66.1462C67.6318 68.1848 69.2928 69.9601 71.3463 71.4797L73.7257 68.2643ZM69.8485 64.1197C69.0083 62.6495 68.6648 61.0788 68.8163 59.3508L64.8317 59.0012C64.6099 61.5292 65.125 63.9159 66.3755 66.1043L69.8485 64.1197ZM68.8163 59.3508C68.9935 57.3315 69.3225 55.7723 69.7586 54.6198L66.0174 53.2042C65.4082 54.8144 65.0279 56.7645 64.8317 59.0012L68.8163 59.3508ZM69.7647 54.6034C70.2323 53.3342 70.8041 52.2497 71.4679 51.333L68.2281 48.987C67.3239 50.2356 66.589 51.6525 66.0113 53.2206L69.7647 54.6034ZM71.4668 51.3345C72.6614 49.6878 74.2199 48.3318 76.1775 47.2701L74.2705 43.7539C71.8227 45.0815 69.7972 46.8241 68.2292 48.9855L71.4668 51.3345ZM76.1393 47.2903C78.6314 46.0076 80.5008 45.2524 81.8019 44.935L80.8541 41.049C79.0939 41.4783 76.894 42.4031 74.3087 43.7337L76.1393 47.2903ZM81.7619 44.9444C84.522 44.331 87.3148 44.2786 90.1563 44.7921L90.8677 40.8559C87.5118 40.2494 84.182 40.309 80.8941 41.0396L81.7619 44.9444ZM90.1604 44.7929C90.9667 44.9368 91.5806 45.1957 92.0531 45.5265L94.3469 42.2495C93.3261 41.535 92.148 41.0845 90.8636 40.8551L90.1604 44.7929ZM92.0531 45.5265C92.7814 46.0363 93.5104 46.5648 94.24 47.112L96.64 43.912C95.8763 43.3392 95.1119 42.785 94.3469 42.2495L92.0531 45.5265ZM94.0258 46.9262C94.5078 47.4083 94.6657 47.7543 94.713 47.9517C94.7506 48.1089 94.7518 48.2962 94.6031 48.5936L98.1809 50.3824C98.7042 49.3358 98.8827 48.1885 98.603 47.0203C98.3329 45.8923 97.6788 44.9224 96.8542 44.0978L94.0258 46.9262ZM94.5597 48.6864C94.457 48.9212 94.3029 49.1117 94.0506 49.2799L96.2694 52.6081C97.1371 52.0296 97.8044 51.2495 98.2243 50.2896L94.5597 48.6864ZM94.0506 49.2799C93.7679 49.4684 93.5099 49.5482 93.2506 49.5635L93.4854 53.5565C94.4954 53.4971 95.4321 53.1663 96.2694 52.6081L94.0506 49.2799ZM91.3735 51.7077C91.3997 52.0619 91.3721 52.2775 91.3437 52.3909C91.3182 52.493 91.2999 52.4851 91.3384 52.4434L94.2776 55.1566C95.2614 54.0908 95.4566 52.6825 95.3625 51.4123L91.3735 51.7077ZM91.3938 52.3858C91.0137 52.7658 90.0716 53.2508 88.0842 53.4949L88.5718 57.4651C90.8404 57.1865 92.8849 56.5515 94.2222 55.2142L91.3938 52.3858ZM88.474 53.4853C86.8843 53.369 85.4905 53.3493 84.3164 53.4445C83.1763 53.537 82.0799 53.7489 81.1932 54.2076L83.0308 57.7604C83.2268 57.6591 83.7077 57.507 84.6396 57.4315C85.5375 57.3587 86.7104 57.367 88.1821 57.4747L88.474 53.4853ZM81.1762 54.2164C78.7544 55.4986 78.3566 58.1319 78.7341 60.6487L82.6899 60.0553C82.5473 59.1048 82.6092 58.5191 82.7146 58.1904C82.7998 57.9244 82.9067 57.8263 83.0478 57.7516L81.1762 54.2164ZM78.7353 60.6561C78.8999 61.7262 79.5142 62.5986 80.1938 63.2782L83.0222 60.4498C82.8498 60.2774 82.7579 60.1508 82.7126 60.0744C82.669 60.0008 82.6805 59.9942 82.6887 60.0479L78.7353 60.6561ZM80.2434 63.3261C80.8328 63.8762 81.4936 64.4589 82.2237 65.0738L84.8003 62.0142C84.1118 61.4344 83.5032 60.8971 82.9726 60.4019L80.2434 63.3261ZM82.2626 65.1057C82.959 65.6628 83.681 66.2962 84.4287 67.0083L87.1873 64.1117C86.367 63.3305 85.5584 62.6199 84.7614 61.9823L82.2626 65.1057ZM84.4627 67.0399C85.1413 67.6568 85.7311 68.3692 86.2327 69.1842L89.6393 67.0878C88.9462 65.9615 88.1174 64.9565 87.1533 64.0801L84.4627 67.0399ZM86.2276 69.1759C87.8444 71.8321 87.8712 75.0644 85.6637 79.2415L89.2003 81.1105C91.8462 76.1036 92.2089 71.3093 89.6444 67.0961L86.2276 69.1759ZM85.6588 79.2509C84.1318 82.1777 81.4898 84.4669 77.5108 86.0448L78.9853 89.7632C83.6675 87.9064 87.1482 85.0437 89.2052 81.1011L85.6588 79.2509ZM77.5052 86.047C75.5556 86.8269 73.1685 87.248 70.296 87.248V91.248C73.5461 91.248 76.4604 90.7731 78.9908 89.761L77.5052 86.047ZM103.434 44.112L105.094 45.2288L105.29 44.9376L105.375 44.5971L103.434 44.112ZM103.49 43.888L102.076 42.4738L101.685 42.8655L101.55 43.4029L103.49 43.888ZM103.994 43.384L105.409 44.7982L105.684 44.5224L105.836 44.1633L103.994 43.384ZM105.338 41.648L104.789 39.7249L104.703 39.7494L104.62 39.7813L105.338 41.648ZM106.346 41.368L105.82 39.4385L105.82 39.4385L106.346 41.368ZM107.97 40.528L109.08 42.1921L109.522 41.8975L109.759 41.4224L107.97 40.528ZM109.594 39.856L109.413 41.8478L109.458 41.8519L109.504 41.8539L109.594 39.856ZM112.002 40.64L110.95 42.3405L110.996 42.3695L111.045 42.3958L112.002 40.64ZM113.962 42.544L112.241 43.5615L112.257 43.5899L112.275 43.6177L113.962 42.544ZM114.354 45.12L116.268 45.7023L116.271 45.6912L116.274 45.68L114.354 45.12ZM113.682 47.08L111.836 46.3108L111.819 46.3533L111.803 46.3965L113.682 47.08ZM113.178 48.256L111.39 47.3616L111.352 47.436L111.321 47.5132L113.178 48.256ZM112.562 49.544L110.801 48.5958L110.787 48.6225L110.774 48.6496L112.562 49.544ZM111.666 51.392L113.471 52.2549L113.472 52.2519L111.666 51.392ZM109.818 55.256L108.014 54.3931L107.98 54.4643L107.952 54.538L109.818 55.256ZM109.314 56.096L108.42 54.3071L108.309 54.3628L108.205 54.4319L109.314 56.096ZM108.978 56.488L107.263 55.459L104.869 59.4501L109.412 58.4404L108.978 56.488ZM110.49 56.208L110.208 54.2281L110.185 54.2314L110.162 54.2352L110.49 56.208ZM112.282 55.984L112.64 54.0163L112.352 53.9639L112.062 53.9962L112.282 55.984ZM115.754 56.488L114.993 58.3374L115.04 58.3569L115.089 58.374L115.754 56.488ZM116.986 57.72L115.077 58.3165L115.077 58.3166L116.986 57.72ZM117.042 59.568L118.983 60.0531L118.986 60.0396L118.989 60.0261L117.042 59.568ZM116.146 61.248L114.628 59.9464L114.628 59.9464L116.146 61.248ZM114.41 62.088L114.305 60.0908L114.088 60.1022L113.879 60.16L114.41 62.088ZM107.466 63.544L107.358 61.5469L106.505 61.5931L105.948 62.2424L107.466 63.544ZM107.13 63.936L105.612 62.6344L105.13 63.1961V63.936H107.13ZM107.13 63.992L108.977 64.7612L109.13 64.392V63.992H107.13ZM105.898 67.408L103.996 66.791L103.991 66.8072L103.986 66.8236L105.898 67.408ZM104.498 71.832L102.597 71.2128L102.592 71.2267L102.588 71.2406L104.498 71.832ZM102.986 76.76L104.896 77.3541L104.9 77.3423L102.986 76.76ZM101.362 81.632L99.479 80.9593L99.4739 80.9734L99.4691 80.9875L101.362 81.632ZM97.4424 90.2L98.3369 91.9889L98.3688 91.9729L98.4001 91.9558L97.4424 90.2ZM96.4904 90.48L96.2696 88.4922L96.1359 88.5071L96.0054 88.5397L96.4904 90.48ZM95.9864 90.648L95.8723 92.6447L96.767 92.6959L97.4007 92.0622L95.9864 90.648ZM92.7384 89.864L91.8133 91.6372L91.8133 91.6372L92.7384 89.864ZM91.0024 88.576L89.385 89.7523L89.385 89.7523L91.0024 88.576ZM90.7784 87.176L92.7015 87.7254L92.7482 87.562L92.7666 87.3931L90.7784 87.176ZM95.0344 65.84L96.9627 66.371L97.6596 63.84H95.0344V65.84ZM93.4664 66.064L92.572 64.2751L92.5485 64.2869L92.5253 64.2993L93.4664 66.064ZM91.4504 66.568V68.568H91.498L91.5456 68.5657L91.4504 66.568ZM91.3944 66.568L91.2697 68.5641L91.332 68.568H91.3944V66.568ZM89.7704 65.728L88.3049 67.0889L88.3049 67.0889L89.7704 65.728ZM88.8744 63.936L90.8472 63.6072L90.8472 63.6072L88.8744 63.936ZM89.2104 61.864L91.0179 62.7202L91.0179 62.7202L89.2104 61.864ZM91.2264 60.184L90.6849 58.2587L90.5763 58.2892L90.4718 58.3318L91.2264 60.184ZM93.8584 59.344L94.6012 61.201L94.6122 61.1966L94.6231 61.192L93.8584 59.344ZM96.5464 58.392L96.0614 56.4517L96.0494 56.4547L96.0375 56.4578L96.5464 58.392ZM97.7784 58.056L98.6729 59.8449L98.7842 59.7892L98.8879 59.7201L97.7784 58.056ZM98.0024 57.888L96.893 56.2239L96.7283 56.3337L96.5882 56.4738L98.0024 57.888ZM98.8424 57.776V59.776H100.471L100.801 58.1812L98.8424 57.776ZM99.5144 54.472L97.5533 54.0798L97.5533 54.0798L99.5144 54.472ZM100.354 51.056L102.275 51.6136L102.278 51.6025L102.281 51.5913L100.354 51.056ZM105.375 44.5971L105.431 44.3731L101.55 43.4029L101.494 43.6269L105.375 44.5971ZM104.905 45.3022L105.409 44.7982L102.58 41.9698L102.076 42.4738L104.905 45.3022ZM105.836 44.1633C106.001 43.7736 106.137 43.5538 106.22 43.4463C106.307 43.3339 106.267 43.4339 106.056 43.5147L104.62 39.7813C103.308 40.2862 102.587 41.5789 102.153 42.6047L105.836 44.1633ZM105.888 43.571C106.138 43.4995 106.466 43.4084 106.873 43.2975L105.82 39.4385C105.406 39.5515 105.061 39.6472 104.789 39.7249L105.888 43.571ZM106.873 43.2975C107.601 43.0988 108.359 42.6725 109.08 42.1921L106.861 38.8639C106.238 39.2795 105.913 39.4132 105.82 39.4385L106.873 43.2975ZM109.759 41.4224C109.725 41.4915 109.667 41.5763 109.581 41.6564C109.495 41.7364 109.407 41.7871 109.337 41.816C109.212 41.8678 109.201 41.8285 109.413 41.8478L109.776 37.8642C109.166 37.8088 108.474 37.8442 107.808 38.12C107.093 38.4156 106.528 38.9402 106.182 39.6336L109.759 41.4224ZM109.504 41.8539C109.944 41.874 110.42 42.0125 110.95 42.3405L113.055 38.9395C112.017 38.2968 110.887 37.9127 109.685 37.8581L109.504 41.8539ZM111.045 42.3958C111.543 42.6675 111.935 43.0442 112.241 43.5615L115.684 41.5265C115.019 40.4011 114.105 39.5085 112.96 38.8842L111.045 42.3958ZM112.275 43.6177C112.504 43.9772 112.527 44.2432 112.434 44.56L116.274 45.68C116.705 44.2048 116.466 42.7535 115.65 41.4702L112.275 43.6177ZM112.441 44.5377C112.186 45.3765 111.985 45.955 111.836 46.3108L115.529 47.8492C115.754 47.309 116 46.5809 116.268 45.7023L112.441 44.5377ZM111.803 46.3965C111.678 46.7385 111.54 47.0599 111.39 47.3616L114.967 49.1504C115.19 48.7055 115.388 48.2428 115.562 47.7635L111.803 46.3965ZM111.321 47.5132C111.208 47.796 111.039 48.1545 110.801 48.5958L114.323 50.4922C114.608 49.9628 114.85 49.4626 115.035 48.9988L111.321 47.5132ZM110.774 48.6496C110.541 49.1144 110.236 49.7436 109.861 50.5321L113.472 52.2519C113.843 51.4724 114.136 50.8696 114.351 50.4384L110.774 48.6496ZM109.862 50.5291L108.014 54.3931L111.623 56.1189L113.471 52.2549L109.862 50.5291ZM107.952 54.538C107.918 54.6269 107.889 54.6933 107.867 54.7406C107.845 54.7893 107.834 54.8064 107.837 54.801C107.838 54.7995 107.87 54.7452 107.939 54.6679C108.002 54.5979 108.158 54.4383 108.42 54.3071L110.209 57.8849C110.819 57.5798 111.143 57.0659 111.267 56.859C111.435 56.5796 111.572 56.2693 111.685 55.974L107.952 54.538ZM108.205 54.4319C107.74 54.7417 107.445 55.1572 107.263 55.459L110.693 57.517C110.706 57.4959 110.698 57.5129 110.665 57.5516C110.633 57.5887 110.556 57.6722 110.424 57.7601L108.205 54.4319ZM109.412 58.4404C109.729 58.3699 109.971 58.3221 110.147 58.2928L109.49 54.3472C109.217 54.3926 108.9 54.4567 108.545 54.5356L109.412 58.4404ZM110.147 58.2928C110.371 58.2555 110.595 58.2181 110.819 58.1808L110.162 54.2352C109.938 54.2725 109.714 54.3099 109.49 54.3472L110.147 58.2928ZM110.773 58.1879C111.271 58.1169 111.847 58.0447 112.503 57.9718L112.062 53.9962C111.374 54.0726 110.756 54.1498 110.208 54.2281L110.773 58.1879ZM111.925 57.9517C112.411 58.0401 112.891 58.096 113.346 58.096V54.096C113.204 54.096 112.975 54.0772 112.64 54.0163L111.925 57.9517ZM113.346 58.096H114.13V54.096H113.346V58.096ZM114.13 58.096C114.216 58.096 114.484 58.128 114.993 58.3374L116.516 54.6386C115.755 54.3253 114.941 54.096 114.13 54.096V58.096ZM115.089 58.374C115.13 58.3887 115.149 58.3994 115.15 58.4006C115.152 58.4012 115.141 58.3945 115.124 58.3782C115.108 58.3616 115.094 58.3432 115.084 58.3266C115.074 58.3106 115.074 58.305 115.077 58.3165L118.895 57.1235C118.505 55.8735 117.597 55.0174 116.42 54.602L115.089 58.374ZM115.077 58.3166C115.153 58.5574 115.166 58.8086 115.096 59.1099L118.989 60.0261C119.217 59.0581 119.193 58.0772 118.895 57.1234L115.077 58.3166ZM115.102 59.0829C115.037 59.3451 114.898 59.6314 114.628 59.9464L117.665 62.5496C118.291 61.8193 118.75 60.9856 118.983 60.0531L115.102 59.0829ZM114.628 59.9464C114.549 60.0389 114.488 60.0812 114.305 60.0908L114.516 64.0852C115.752 64.0202 116.848 63.5024 117.665 62.5496L114.628 59.9464ZM113.879 60.16C110.628 61.0567 108.501 61.4852 107.358 61.5469L107.574 65.5411C109.195 65.4535 111.697 64.9113 114.942 64.016L113.879 60.16ZM105.948 62.2424L105.612 62.6344L108.649 65.2376L108.985 64.8456L105.948 62.2424ZM105.13 63.936V63.992H109.13V63.936H105.13ZM105.284 63.2228C104.883 64.1866 104.453 65.3807 103.996 66.791L107.801 68.025C108.239 66.6726 108.632 65.5894 108.977 64.7612L105.284 63.2228ZM103.986 66.8236C103.579 68.1539 103.116 69.6168 102.597 71.2128L106.4 72.4512C106.926 70.8365 107.396 69.3501 107.811 67.9924L103.986 66.8236ZM102.588 71.2406C102.102 72.8119 101.597 74.4576 101.073 76.1777L104.9 77.3423C105.422 75.6277 105.925 73.9881 106.409 72.4234L102.588 71.2406ZM101.077 76.1659C100.562 77.821 100.029 79.4187 99.479 80.9593L103.246 82.3047C103.816 80.7093 104.366 79.059 104.896 77.3541L101.077 76.1659ZM99.4691 80.9875C98.5811 83.5962 97.8316 85.5525 97.2197 86.8899C96.9123 87.5619 96.6612 88.0296 96.468 88.3295C96.2251 88.7067 96.2172 88.5901 96.4847 88.4442L98.4001 91.9558C99.0784 91.5859 99.5418 90.9443 99.8309 90.4955C100.17 89.9694 100.511 89.3101 100.857 88.5541C101.552 87.0355 102.352 84.9318 103.256 82.2765L99.4691 80.9875ZM96.548 88.4111C96.463 88.4536 96.3741 88.4806 96.2696 88.4922L96.7113 92.4678C97.2788 92.4047 97.8245 92.245 98.3369 91.9889L96.548 88.4111ZM96.0054 88.5397C95.8368 88.5819 95.6632 88.6289 95.508 88.6806C95.4324 88.7058 95.3258 88.7437 95.2113 88.7958C95.1583 88.8199 94.854 88.952 94.5722 89.2338L97.4007 92.0622C97.2449 92.2179 97.0997 92.3096 97.0356 92.3481C96.96 92.3934 96.8988 92.4226 96.8665 92.4372C96.8314 92.4532 96.8054 92.4634 96.7929 92.4681C96.7859 92.4708 96.7807 92.4726 96.7776 92.4737C96.776 92.4743 96.7748 92.4747 96.7741 92.475C96.7733 92.4752 96.7729 92.4754 96.7729 92.4754C96.7729 92.4754 96.7732 92.4753 96.7739 92.475C96.7746 92.4748 96.7756 92.4745 96.7769 92.4741C96.7796 92.4732 96.7834 92.4721 96.7883 92.4705C96.7985 92.4675 96.8123 92.4634 96.8302 92.4584C96.8665 92.4483 96.9144 92.4356 96.9755 92.4203L96.0054 88.5397ZM96.1005 88.6513C94.983 88.5874 94.1989 88.3701 93.6636 88.0908L91.8133 91.6372C92.9953 92.2539 94.3766 92.5593 95.8723 92.6447L96.1005 88.6513ZM93.6636 88.0908C93.2979 87.9 93.0341 87.7348 92.8521 87.5998C92.6633 87.4597 92.6115 87.3881 92.6199 87.3997L89.385 89.7523C89.9646 90.5494 90.886 91.1533 91.8133 91.6372L93.6636 88.0908ZM92.6199 87.3997C92.6417 87.4296 92.6812 87.5016 92.6973 87.602C92.7127 87.6978 92.6951 87.7477 92.7015 87.7254L88.8554 86.6266C88.5508 87.6927 88.6959 88.8049 89.385 89.7523L92.6199 87.3997ZM92.7666 87.3931C93.4621 81.0237 94.8569 74.0182 96.9627 66.371L93.1062 65.309C90.956 73.1178 89.5134 80.3363 88.7903 86.9589L92.7666 87.3931ZM95.0344 63.84C94.2702 63.84 93.3265 63.8979 92.572 64.2751L94.3609 67.8529C94.2908 67.8879 94.2503 67.8978 94.2587 67.8955C94.265 67.8938 94.2981 67.8855 94.3653 67.8759C94.5034 67.8562 94.7204 67.84 95.0344 67.84V63.84ZM92.5253 64.2993C92.2809 64.4296 91.9119 64.5438 91.3553 64.5703L91.5456 68.5657C92.557 68.5176 93.532 68.2957 94.4076 67.8287L92.5253 64.2993ZM91.4504 64.568H91.3944V68.568H91.4504V64.568ZM91.5192 64.5719C91.5028 64.5709 91.488 64.5684 91.4593 64.5536C91.425 64.5359 91.3479 64.4876 91.236 64.3671L88.3049 67.0889C89.0679 67.9107 90.0648 68.4888 91.2697 68.5641L91.5192 64.5719ZM91.236 64.3671C91.004 64.1172 90.8917 63.8742 90.8472 63.6072L86.9017 64.2648C87.0811 65.3418 87.5662 66.2935 88.3049 67.0889L91.236 64.3671ZM90.8472 63.6072C90.8121 63.3967 90.8292 63.1185 91.0179 62.7202L87.403 61.0078C86.9197 62.0281 86.7127 63.1313 86.9017 64.2648L90.8472 63.6072ZM91.0179 62.7202C91.0691 62.6122 91.2561 62.3315 91.981 62.0362L90.4718 58.3318C89.1808 58.8578 88.0238 59.6971 87.403 61.0078L91.0179 62.7202ZM91.7679 62.1093C92.9754 61.7697 93.9376 61.4664 94.6012 61.201L93.1157 57.487C92.6592 57.6696 91.8668 57.9263 90.6849 58.2587L91.7679 62.1093ZM94.6231 61.192C95.6654 60.7607 96.4687 60.4805 97.0554 60.3261L96.0375 56.4578C95.2055 56.6768 94.2168 57.0313 93.0937 57.496L94.6231 61.192ZM97.0315 60.3323C97.4095 60.2378 97.7149 60.1591 97.9407 60.0975C98.0523 60.0671 98.1573 60.0373 98.2476 60.0096C98.2798 59.9997 98.4809 59.9408 98.6729 59.8449L96.884 56.2671C96.9469 56.2357 96.9964 56.2154 97.0177 56.2069C97.0428 56.1969 97.0611 56.1903 97.0691 56.1875C97.0842 56.1822 97.0872 56.1815 97.0713 56.1864C97.0402 56.196 96.9819 56.2129 96.8882 56.2385C96.7033 56.2889 96.43 56.3596 96.0614 56.4517L97.0315 60.3323ZM98.8879 59.7201C98.9921 59.6506 99.2222 59.4966 99.4166 59.3022L96.5882 56.4738C96.6125 56.4496 96.6332 56.4303 96.6488 56.4163C96.6645 56.4021 96.6776 56.391 96.6871 56.3831C96.7054 56.3678 96.7169 56.3591 96.7184 56.358C96.7205 56.3565 96.7064 56.367 96.669 56.3919L98.8879 59.7201ZM99.1118 59.5521C99.0008 59.6261 98.9025 59.6736 98.8334 59.7029C98.763 59.7328 98.7054 59.7512 98.6674 59.762C98.595 59.7827 98.5533 59.7874 98.5608 59.7865C98.5778 59.7842 98.6621 59.776 98.8424 59.776V55.776C98.5748 55.776 98.2951 55.7865 98.0321 55.8215C97.8513 55.8456 97.3563 55.9151 96.893 56.2239L99.1118 59.5521ZM100.801 58.1812C101.026 57.0941 101.251 55.9884 101.476 54.8642L97.5533 54.0798C97.3301 55.1956 97.107 56.2926 96.8839 57.3708L100.801 58.1812ZM101.476 54.8642C101.688 53.8029 101.954 52.7194 102.275 51.6136L98.4337 50.4984C98.0828 51.7073 97.789 52.9011 97.5533 54.0798L101.476 54.8642ZM102.281 51.5913C102.981 49.0716 103.927 46.9615 105.094 45.2288L101.775 42.9952C100.328 45.1452 99.2208 47.6644 98.4274 50.5207L102.281 51.5913ZM134.657 61.976H132.657V63.5376L134.172 63.9163L134.657 61.976ZM134.881 62.032L134.396 63.9723L134.635 64.032H134.881V62.032ZM134.993 62.088H132.993V65.0001L135.711 63.9547L134.993 62.088ZM137.401 62.928L139.08 61.8415L139.068 61.8223L139.055 61.8034L137.401 62.928ZM138.353 65.84L140.351 65.7567L140.346 65.6285L140.324 65.5021L138.353 65.84ZM137.793 73.288L135.813 73.0084L135.812 73.0157L135.811 73.0229L137.793 73.288ZM136.393 84.768L134.397 84.647L134.39 84.7645L134.396 84.8821L136.393 84.768ZM133.985 87.456L133.43 85.5346L133.413 85.5394L133.397 85.5444L133.985 87.456ZM129.617 87.4L128.971 89.2927L128.978 89.2951L128.985 89.2974L129.617 87.4ZM127.713 84.992L129.657 85.4613L125.948 84.0508L127.713 84.992ZM126.817 86.168L125.617 84.568L125.557 84.6132L125.5 84.6628L126.817 86.168ZM125.025 87.176L124.192 85.3579L124.145 85.3792L124.1 85.4028L125.025 87.176ZM121.329 88.24L121.008 86.266L120.985 86.2696L120.963 86.2737L121.329 88.24ZM116.513 88.464L116.698 86.4726L116.675 86.4705L116.652 86.4689L116.513 88.464ZM112.089 87.288L112.983 85.4991L112.973 85.494L112.963 85.489L112.089 87.288ZM109.457 84.264L107.552 84.8726L107.555 84.881L109.457 84.264ZM109.793 74.016L107.864 73.4875L107.861 73.499L107.858 73.5104L109.793 74.016ZM113.825 66.792L112.366 65.4241L112.359 65.4311L113.825 66.792ZM121.441 60.856L120.485 59.099L120.474 59.1055L121.441 60.856ZM127.601 58.784L127.38 56.7962L127.376 56.7967L127.601 58.784ZM129.337 58.84L128.887 60.7888L128.903 60.7923L128.918 60.7956L129.337 58.84ZM130.961 59.176L130.569 61.1372L130.581 61.1395L130.592 61.1417L130.961 59.176ZM132.641 59.68L131.853 61.5183L131.863 61.5223L131.872 61.5262L132.641 59.68ZM124.297 76.816L122.508 75.9216L125.897 78.016L124.297 76.816ZM124.913 74.856L122.967 74.3928L122.957 74.437L122.948 74.4818L124.913 74.856ZM125.641 72.28L127.546 72.8896L128.85 68.8129L124.886 70.4278L125.641 72.28ZM118.697 76.816L117.207 75.4815L117.201 75.489L118.697 76.816ZM119.033 80.904L118.327 82.7752L118.426 82.8125L118.528 82.8392L119.033 80.904ZM122.785 80.064L124.364 81.2919L124.375 81.278L124.385 81.264L122.785 80.064ZM123.681 78.384L125.545 79.1089L125.545 79.1089L123.681 78.384ZM124.633 76.312L126.403 77.2435L122.918 75.283L124.633 76.312ZM134.172 63.9163L134.396 63.9723L135.366 60.0917L135.142 60.0357L134.172 63.9163ZM134.881 64.032C134.816 64.032 134.47 64.0345 134.071 63.8348C133.843 63.7209 133.552 63.5174 133.322 63.1729C133.084 62.8159 132.993 62.4286 132.993 62.088H136.993C136.993 61.7287 136.897 61.3251 136.65 60.9541C136.411 60.5956 136.106 60.3804 135.86 60.2571C135.423 60.0388 135.021 60.032 134.881 60.032V64.032ZM135.711 63.9547C135.79 63.9242 135.815 63.9267 135.795 63.9277C135.784 63.9283 135.765 63.9283 135.741 63.9248C135.715 63.9213 135.689 63.9151 135.664 63.9064C135.639 63.8977 135.621 63.8884 135.609 63.8816C135.598 63.8749 135.596 63.8725 135.603 63.8788C135.62 63.8924 135.671 63.9407 135.747 64.0526L139.055 61.8034C138.575 61.0974 137.903 60.4508 136.982 60.1296C136.04 59.801 135.1 59.9041 134.275 60.2213L135.711 63.9547ZM135.722 64.0145C135.914 64.3114 136.174 64.9671 136.382 66.1779L140.324 65.5021C140.084 64.0996 139.709 62.8139 139.08 61.8415L135.722 64.0145ZM136.355 65.9233C136.422 67.5349 136.255 69.8774 135.813 73.0084L139.773 73.5676C140.227 70.352 140.434 67.7291 140.351 65.7567L136.355 65.9233ZM135.811 73.0229C134.957 79.4049 134.477 83.3235 134.397 84.647L138.389 84.889C138.459 83.7485 138.911 80.0138 139.775 73.5531L135.811 73.0229ZM134.396 84.8821C134.402 84.9896 134.388 85.0356 134.386 85.0434C134.384 85.0477 134.381 85.0587 134.357 85.0855C134.295 85.1547 134.064 85.3514 133.43 85.5346L134.54 89.3774C135.586 89.0752 136.596 88.5813 137.337 87.7545C138.126 86.8734 138.455 85.7868 138.39 84.6539L134.396 84.8821ZM133.397 85.5444C132.342 85.8689 131.313 85.8572 130.25 85.5026L128.985 89.2974C130.833 89.9135 132.716 89.9391 134.573 89.3676L133.397 85.5444ZM130.263 85.5073C129.984 85.4119 129.798 85.3211 129.681 85.2497C129.565 85.1785 129.544 85.1429 129.562 85.1655C129.587 85.1971 129.628 85.2675 129.647 85.363C129.665 85.4529 129.649 85.4952 129.657 85.4613L125.769 84.5227C125.509 85.6007 125.689 86.7162 126.424 87.6465C127.081 88.4773 128.035 88.9732 128.971 89.2927L130.263 85.5073ZM125.948 84.0508C125.836 84.2615 125.743 84.4037 125.674 84.4939C125.603 84.5871 125.58 84.5955 125.617 84.568L128.017 87.768C128.659 87.2863 129.125 86.5949 129.478 85.9332L125.948 84.0508ZM125.5 84.6628C125.503 84.6606 125.416 84.7313 125.165 84.8728C124.93 85.005 124.609 85.1665 124.192 85.3579L125.858 88.9941C126.746 88.5873 127.591 88.148 128.134 87.6732L125.5 84.6628ZM124.1 85.4028C123.516 85.7076 122.525 86.019 121.008 86.266L121.65 90.214C123.344 89.9383 124.817 89.5404 125.95 88.9492L124.1 85.4028ZM120.963 86.2737C119.537 86.539 118.117 86.6046 116.698 86.4726L116.328 90.4554C118.119 90.6221 119.91 90.5383 121.695 90.2063L120.963 86.2737ZM116.652 86.4689C115.291 86.3739 114.075 86.0451 112.983 85.4991L111.195 89.0769C112.791 89.8749 114.525 90.3301 116.374 90.4592L116.652 86.4689ZM112.963 85.489C112.145 85.0919 111.64 84.5106 111.36 83.647L107.555 84.881C108.171 86.78 109.419 88.2147 111.215 89.087L112.963 85.489ZM111.362 83.6554C110.664 81.4698 110.695 78.4753 111.728 74.5216L107.858 73.5104C106.726 77.8447 106.533 81.6822 107.552 84.8726L111.362 83.6554ZM111.722 74.5445C112.383 72.133 113.566 70.0098 115.291 68.1529L112.359 65.4311C110.201 67.7555 108.697 70.4483 107.864 73.4875L111.722 74.5445ZM115.284 68.1599C117.383 65.9214 119.756 64.0724 122.408 62.6065L120.474 59.1055C117.452 60.7756 114.747 62.8839 112.366 65.4241L115.284 68.1599ZM122.397 62.613C124.346 61.5528 126.152 60.9608 127.826 60.7713L127.376 56.7967C125.092 57.0552 122.792 57.8445 120.486 59.099L122.397 62.613ZM127.822 60.7718C128.344 60.7137 128.685 60.742 128.887 60.7888L129.787 56.8912C129.019 56.714 128.202 56.705 127.38 56.7962L127.822 60.7718ZM128.918 60.7956C129.45 60.9096 130 61.0235 130.569 61.1372L131.353 57.2148C130.802 57.1045 130.269 56.9944 129.756 56.8844L128.918 60.7956ZM130.592 61.1417C131.056 61.2286 131.474 61.3558 131.853 61.5183L133.429 57.8417C132.763 57.5562 132.061 57.3474 131.33 57.2103L130.592 61.1417ZM131.872 61.5262C132.375 61.7358 132.583 61.9169 132.65 61.9936C132.678 62.0252 132.674 62.0301 132.666 62.0085C132.657 61.9854 132.657 61.9695 132.657 61.976H136.657C136.657 59.8165 135.07 58.5253 133.41 57.8338L131.872 61.5262ZM126.086 77.7104C126.453 76.9757 126.706 76.1339 126.878 75.2302L122.948 74.4818C122.822 75.1461 122.663 75.611 122.508 75.9216L126.086 77.7104ZM126.859 75.3192C127.031 74.5937 127.26 73.7845 127.546 72.8896L123.736 71.6704C123.425 72.6421 123.168 73.5503 122.967 74.3928L126.859 75.3192ZM124.886 70.4278C121.677 71.7355 119.074 73.3976 117.207 75.4815L120.187 78.1505C121.531 76.6504 123.558 75.2885 126.396 74.1322L124.886 70.4278ZM117.201 75.489C116.262 76.5479 115.344 77.9328 115.472 79.4858C115.622 81.3151 117.054 82.295 118.327 82.7752L119.739 79.0328C119.407 78.9076 119.312 78.813 119.32 78.8206C119.329 78.8304 119.364 78.8694 119.398 78.9405C119.434 79.0137 119.453 79.0907 119.458 79.1582C119.469 79.2853 119.425 79.2731 119.526 79.0669C119.627 78.8619 119.828 78.5548 120.193 78.143L117.201 75.489ZM118.528 82.8392C120.662 83.3959 122.897 83.1782 124.364 81.2919L121.206 78.8361C121.106 78.9658 120.839 79.3081 119.538 78.9688L118.528 82.8392ZM124.385 81.264C124.856 80.6356 125.236 79.9046 125.545 79.1089L121.817 77.6591C121.604 78.2074 121.386 78.5964 121.185 78.864L124.385 81.264ZM125.545 79.1089C125.776 78.5148 126.061 77.8931 126.403 77.2435L122.863 75.3805C122.458 76.1496 122.109 76.9092 121.817 77.6591L125.545 79.1089ZM122.918 75.283C122.836 75.4201 122.762 75.5298 122.697 75.616L125.897 78.016C126.056 77.8035 126.206 77.5772 126.348 77.341L122.918 75.283ZM141.217 62.816L139.352 62.0911L139.316 62.1855L139.289 62.2831L141.217 62.816ZM143.401 59.792L144.569 61.4151L144.581 61.4068L143.401 59.792ZM146.145 58.504L146.487 60.4744L146.52 60.4687L146.552 60.462L146.145 58.504ZM148.329 58.784L147.219 60.4481L147.244 60.4644L147.269 60.48L148.329 58.784ZM148.945 60.52L146.999 60.0568L145.362 66.9307L150.359 61.9342L148.945 60.52ZM152.025 58.56L152.837 60.3876L152.837 60.3876L152.025 58.56ZM155.217 57.328L154.667 55.405L154.667 55.405L155.217 57.328ZM157.233 56.992L157.353 54.9957L157.293 54.992H157.233V56.992ZM158.297 59.008L156.447 58.2465L155.501 60.5455L157.949 60.9776L158.297 59.008ZM159.697 60.24L157.853 61.0161L157.853 61.0161L159.697 60.24ZM158.297 65.112L156.85 63.731L156.85 63.731L158.297 65.112ZM155.105 66.792L154.671 64.8396L154.659 64.8423L155.105 66.792ZM151.801 68.864L150.26 67.5889L150.255 67.5945L151.801 68.864ZM149.505 72.784L147.666 71.9962L147.662 72.0056L149.505 72.784ZM146.481 84.04L144.514 83.6769L144.511 83.6906L144.509 83.7044L146.481 84.04ZM142.841 88.464L141.861 86.72L141.853 86.7247L141.845 86.7295L142.841 88.464ZM137.297 89.472L137.852 87.5506L137.839 87.5469L137.826 87.5433L137.297 89.472ZM134.777 85.272L136.767 85.4678L136.772 85.4164L136.774 85.3649L134.777 85.272ZM136.233 78.888L138.127 79.5285L138.13 79.5205L136.233 78.888ZM138.305 72.84L140.186 73.5193L140.189 73.5111L140.191 73.503L138.305 72.84ZM139.313 69.704L137.385 69.1711L137.381 69.1831L137.378 69.195L139.313 69.704ZM143.081 63.5409C143.499 62.4659 144.021 61.81 144.569 61.4151L142.232 58.1689C140.914 59.118 139.98 60.4781 139.352 62.0911L143.081 63.5409ZM144.581 61.4068C145.392 60.8138 146.024 60.555 146.487 60.4744L145.802 56.5336C144.548 56.7516 143.35 57.3515 142.22 58.1772L144.581 61.4068ZM146.552 60.462C146.834 60.4033 147.012 60.4054 147.108 60.4178C147.194 60.4288 147.218 60.4476 147.219 60.4481L149.438 57.1199C148.29 56.3548 146.963 56.2905 145.737 56.546L146.552 60.462ZM147.269 60.48C147.264 60.4773 147.224 60.4513 147.174 60.3917C147.122 60.3296 147.076 60.2519 147.046 60.1668C146.985 59.995 147.03 59.9248 146.999 60.0568L150.89 60.9832C151.045 60.3312 151.082 59.5796 150.815 58.8292C150.54 58.0527 150.011 57.4771 149.389 57.088L147.269 60.48ZM150.359 61.9342C150.834 61.4594 151.622 60.9275 152.837 60.3876L151.212 56.7324C149.739 57.3871 148.474 58.162 147.53 59.1058L150.359 61.9342ZM152.837 60.3876C154.152 59.8033 155.116 59.4368 155.766 59.251L154.667 55.405C153.749 55.6672 152.585 56.1221 151.212 56.7324L152.837 60.3876ZM155.766 59.251C156.445 59.0571 156.922 58.992 157.233 58.992V54.992C156.423 54.992 155.556 55.1509 154.667 55.405L155.766 59.251ZM157.112 58.9883C157.262 58.9974 157.245 59.0187 157.14 58.9696C157.009 58.9078 156.798 58.7586 156.654 58.4855C156.519 58.2302 156.529 58.0285 156.531 57.9956C156.534 57.9717 156.529 58.0467 156.447 58.2465L160.146 59.7695C160.462 59.0012 160.803 57.7773 160.191 56.6185C159.521 55.3485 158.214 55.0478 157.353 54.9957L157.112 58.9883ZM157.949 60.9776C157.941 60.9762 157.917 60.9706 157.884 60.9549C157.85 60.9389 157.821 60.9192 157.801 60.9014C157.761 60.8657 157.794 60.8748 157.853 61.0161L161.54 59.4639C161.037 58.2693 160.085 57.2928 158.644 57.0384L157.949 60.9776ZM157.853 61.0161C157.956 61.2599 158.004 61.586 157.873 62.0872L161.744 63.0968C162.061 61.8806 162.034 60.6388 161.54 59.4639L157.853 61.0161ZM157.873 62.0872C157.756 62.5376 157.463 63.0884 156.85 63.731L159.743 66.493C160.698 65.493 161.413 64.3637 161.744 63.0968L157.873 62.0872ZM156.85 63.731C156.393 64.2098 155.711 64.6084 154.671 64.8396L155.538 68.7444C157.186 68.3782 158.632 67.6569 159.743 66.4929L156.85 63.731ZM154.659 64.8423C152.901 65.2441 151.422 66.1845 150.26 67.5889L153.341 70.1391C153.971 69.3781 154.695 68.9373 155.55 68.7417L154.659 64.8423ZM150.255 67.5945C149.25 68.818 148.394 70.2976 147.666 71.9962L151.343 73.5718C151.959 72.1344 152.634 71.0007 153.346 70.1335L150.255 67.5945ZM147.662 72.0056C146.46 74.8514 145.42 78.7667 144.514 83.6769L148.447 84.4031C149.333 79.6066 150.309 76.018 151.347 73.5624L147.662 72.0056ZM144.509 83.7044C144.346 84.6638 143.67 85.7048 141.861 86.72L143.82 90.208C146.267 88.8339 148.018 86.9255 148.452 84.3756L144.509 83.7044ZM141.845 86.7295C140.138 87.7093 138.856 87.8407 137.852 87.5506L136.741 91.3934C139.097 92.074 141.511 91.5334 143.836 90.1985L141.845 86.7295ZM137.826 87.5433C137.26 87.388 137.055 87.1707 136.953 87.001C136.827 86.7909 136.68 86.3463 136.767 85.4678L132.786 85.0762C132.649 86.475 132.81 87.8691 133.524 89.059C134.262 90.2893 135.429 91.0333 136.767 91.4007L137.826 87.5433ZM136.774 85.3649C136.836 84.0344 137.254 82.1124 138.127 79.5285L134.338 78.2475C133.419 80.965 132.866 83.2989 132.779 85.1791L136.774 85.3649ZM138.13 79.5205C139.025 76.8361 139.709 74.8392 140.186 73.5193L136.423 72.1607C135.929 73.5288 135.232 75.5639 134.335 78.2555L138.13 79.5205ZM140.191 73.503C140.681 72.1103 141.039 71.0031 141.247 70.213L137.378 69.195C137.213 69.8236 136.899 70.807 136.418 72.177L140.191 73.503ZM141.24 70.2369L143.144 63.3489L139.289 62.2831L137.385 69.1711L141.24 70.2369ZM169.186 44.112L170.845 45.2288L171.041 44.9376L171.127 44.5971L169.186 44.112ZM169.242 43.888L167.828 42.4738L167.436 42.8655L167.302 43.4029L169.242 43.888ZM169.746 43.384L171.161 44.7982L171.436 44.5224L171.588 44.1633L169.746 43.384ZM171.09 41.648L170.541 39.7249L170.455 39.7494L170.372 39.7813L171.09 41.648ZM172.098 41.368L171.572 39.4385L171.572 39.4385L172.098 41.368ZM173.722 40.528L174.832 42.1921L175.274 41.8975L175.511 41.4224L173.722 40.528ZM175.346 39.856L175.165 41.8478L175.21 41.8519L175.255 41.8539L175.346 39.856ZM177.754 40.64L176.702 42.3405L176.748 42.3695L176.797 42.3958L177.754 40.64ZM179.714 42.544L177.992 43.5615L178.009 43.5899L178.027 43.6177L179.714 42.544ZM180.106 45.12L182.02 45.7023L182.023 45.6912L182.026 45.68L180.106 45.12ZM179.434 47.08L177.588 46.3108L177.57 46.3533L177.555 46.3965L179.434 47.08ZM178.93 48.256L177.141 47.3616L177.104 47.436L177.073 47.5132L178.93 48.256ZM178.314 49.544L176.553 48.5958L176.539 48.6225L176.525 48.6496L178.314 49.544ZM177.418 51.392L179.223 52.2549L179.224 52.2519L177.418 51.392ZM175.57 55.256L173.766 54.3931L173.732 54.4643L173.704 54.538L175.57 55.256ZM175.066 56.096L174.172 54.3071L174.061 54.3628L173.957 54.4319L175.066 56.096ZM174.73 56.488L173.015 55.459L170.621 59.4501L175.164 58.4404L174.73 56.488ZM176.242 56.208L175.959 54.2281L175.936 54.2314L175.914 54.2352L176.242 56.208ZM178.034 55.984L178.392 54.0163L178.104 53.9639L177.813 53.9962L178.034 55.984ZM181.506 56.488L180.745 58.3374L180.792 58.3569L180.841 58.374L181.506 56.488ZM182.738 57.72L180.829 58.3165L180.829 58.3166L182.738 57.72ZM182.794 59.568L184.735 60.0531L184.738 60.0396L184.741 60.0261L182.794 59.568ZM181.898 61.248L180.38 59.9464L180.38 59.9464L181.898 61.248ZM180.162 62.088L180.057 60.0908L179.84 60.1022L179.63 60.16L180.162 62.088ZM173.218 63.544L173.11 61.5469L172.256 61.5931L171.7 62.2424L173.218 63.544ZM172.882 63.936L171.364 62.6344L170.882 63.1961V63.936H172.882ZM172.882 63.992L174.728 64.7612L174.882 64.392V63.992H172.882ZM171.65 67.408L169.748 66.791L169.743 66.8072L169.738 66.8236L171.65 67.408ZM170.25 71.832L168.349 71.2128L168.344 71.2267L168.34 71.2406L170.25 71.832ZM168.738 76.76L170.648 77.3541L170.652 77.3423L168.738 76.76ZM167.114 81.632L165.231 80.9593L165.226 80.9734L165.221 80.9875L167.114 81.632ZM163.194 90.2L164.089 91.9889L164.121 91.9729L164.152 91.9558L163.194 90.2ZM162.242 90.48L162.021 88.4922L161.888 88.5071L161.757 88.5397L162.242 90.48ZM161.738 90.648L161.624 92.6447L162.519 92.6959L163.153 92.0622L161.738 90.648ZM158.49 89.864L157.565 91.6372L157.565 91.6372L158.49 89.864ZM156.754 88.576L155.137 89.7523L155.137 89.7523L156.754 88.576ZM156.53 87.176L158.453 87.7254L158.5 87.562L158.518 87.3931L156.53 87.176ZM160.786 65.84L162.715 66.371L163.411 63.84H160.786V65.84ZM159.218 66.064L158.324 64.2751L158.3 64.2869L158.277 64.2993L159.218 66.064ZM157.202 66.568V68.568H157.25L157.297 68.5657L157.202 66.568ZM157.146 66.568L157.022 68.5641L157.084 68.568H157.146V66.568ZM155.522 65.728L154.057 67.0889L154.057 67.0889L155.522 65.728ZM154.626 63.936L156.599 63.6072L156.599 63.6072L154.626 63.936ZM154.962 61.864L156.77 62.7202L156.77 62.7202L154.962 61.864ZM156.978 60.184L156.437 58.2587L156.328 58.2892L156.224 58.3318L156.978 60.184ZM159.61 59.344L160.353 61.201L160.364 61.1966L160.375 61.192L159.61 59.344ZM162.298 58.392L161.813 56.4517L161.801 56.4547L161.789 56.4578L162.298 58.392ZM163.53 58.056L164.425 59.8449L164.536 59.7892L164.64 59.7201L163.53 58.056ZM163.754 57.888L162.645 56.2239L162.48 56.3337L162.34 56.4738L163.754 57.888ZM164.594 57.776V59.776H166.223L166.553 58.1812L164.594 57.776ZM165.266 54.472L163.305 54.0798L163.305 54.0798L165.266 54.472ZM166.106 51.056L168.027 51.6136L168.03 51.6025L168.033 51.5913L166.106 51.056ZM171.127 44.5971L171.183 44.3731L167.302 43.4029L167.246 43.6269L171.127 44.5971ZM170.657 45.3022L171.161 44.7982L168.332 41.9698L167.828 42.4738L170.657 45.3022ZM171.588 44.1633C171.753 43.7736 171.889 43.5538 171.972 43.4463C172.059 43.3339 172.018 43.4339 171.808 43.5147L170.372 39.7813C169.06 40.2862 168.338 41.5789 167.904 42.6047L171.588 44.1633ZM171.64 43.571C171.89 43.4995 172.218 43.4084 172.625 43.2975L171.572 39.4385C171.157 39.5515 170.813 39.6472 170.541 39.7249L171.64 43.571ZM172.625 43.2975C173.353 43.0988 174.111 42.6725 174.832 42.1921L172.613 38.8639C171.989 39.2795 171.665 39.4132 171.572 39.4385L172.625 43.2975ZM175.511 41.4224C175.477 41.4915 175.419 41.5763 175.333 41.6564C175.247 41.7364 175.159 41.7871 175.089 41.816C174.964 41.8678 174.953 41.8285 175.165 41.8478L175.527 37.8642C174.918 37.8088 174.226 37.8442 173.56 38.12C172.845 38.4156 172.28 38.9402 171.933 39.6336L175.511 41.4224ZM175.255 41.8539C175.696 41.874 176.172 42.0125 176.702 42.3405L178.807 38.9395C177.769 38.2968 176.639 37.9127 175.437 37.8581L175.255 41.8539ZM176.797 42.3958C177.295 42.6675 177.687 43.0442 177.992 43.5615L181.436 41.5265C180.771 40.4011 179.856 39.5085 178.712 38.8842L176.797 42.3958ZM178.027 43.6177C178.256 43.9772 178.279 44.2432 178.186 44.56L182.026 45.68C182.457 44.2048 182.218 42.7535 181.402 41.4702L178.027 43.6177ZM178.193 44.5377C177.938 45.3765 177.736 45.955 177.588 46.3108L181.28 47.8492C181.506 47.309 181.752 46.5809 182.02 45.7023L178.193 44.5377ZM177.555 46.3965C177.43 46.7385 177.292 47.0599 177.141 47.3616L180.719 49.1504C180.942 48.7055 181.14 48.2428 181.314 47.7635L177.555 46.3965ZM177.073 47.5132C176.96 47.796 176.791 48.1545 176.553 48.5958L180.075 50.4922C180.36 49.9628 180.602 49.4626 180.787 48.9988L177.073 47.5132ZM176.525 48.6496C176.293 49.1144 175.988 49.7436 175.613 50.5321L179.224 52.2519C179.595 51.4724 179.888 50.8696 180.103 50.4384L176.525 48.6496ZM175.614 50.5291L173.766 54.3931L177.375 56.1189L179.223 52.2549L175.614 50.5291ZM173.704 54.538C173.669 54.6269 173.641 54.6933 173.619 54.7406C173.597 54.7893 173.586 54.8064 173.589 54.801C173.59 54.7995 173.622 54.7452 173.691 54.6679C173.754 54.5979 173.91 54.4383 174.172 54.3071L175.961 57.8849C176.571 57.5798 176.895 57.0659 177.019 56.859C177.187 56.5796 177.323 56.2693 177.437 55.974L173.704 54.538ZM173.957 54.4319C173.492 54.7417 173.196 55.1572 173.015 55.459L176.445 57.517C176.458 57.4959 176.45 57.5129 176.417 57.5516C176.385 57.5887 176.307 57.6722 176.176 57.7601L173.957 54.4319ZM175.164 58.4404C175.481 58.3699 175.723 58.3221 175.899 58.2928L175.242 54.3472C174.969 54.3926 174.652 54.4567 174.296 54.5356L175.164 58.4404ZM175.899 58.2928C176.123 58.2555 176.347 58.2181 176.571 58.1808L175.914 54.2352C175.69 54.2725 175.466 54.3099 175.242 54.3472L175.899 58.2928ZM176.525 58.1879C177.022 58.1169 177.598 58.0447 178.255 57.9718L177.813 53.9962C177.126 54.0726 176.508 54.1498 175.959 54.2281L176.525 58.1879ZM177.677 57.9517C178.163 58.0401 178.643 58.096 179.098 58.096V54.096C178.956 54.096 178.727 54.0772 178.392 54.0163L177.677 57.9517ZM179.098 58.096H179.882V54.096H179.098V58.096ZM179.882 58.096C179.968 58.096 180.236 58.128 180.745 58.3374L182.268 54.6386C181.507 54.3253 180.693 54.096 179.882 54.096V58.096ZM180.841 58.374C180.882 58.3887 180.9 58.3994 180.902 58.4006C180.903 58.4012 180.892 58.3945 180.876 58.3782C180.86 58.3616 180.846 58.3432 180.836 58.3266C180.826 58.3106 180.826 58.305 180.829 58.3165L184.647 57.1235C184.257 55.8735 183.349 55.0174 182.172 54.602L180.841 58.374ZM180.829 58.3166C180.905 58.5574 180.918 58.8086 180.847 59.1099L184.741 60.0261C184.969 59.0581 184.945 58.0772 184.647 57.1234L180.829 58.3166ZM180.854 59.0829C180.788 59.3451 180.65 59.6314 180.38 59.9464L183.417 62.5496C184.043 61.8193 184.501 60.9856 184.735 60.0531L180.854 59.0829ZM180.38 59.9464C180.301 60.0389 180.24 60.0812 180.057 60.0908L180.267 64.0852C181.504 64.0202 182.6 63.5024 183.417 62.5496L180.38 59.9464ZM179.63 60.16C176.38 61.0567 174.253 61.4852 173.11 61.5469L173.326 65.5411C174.947 65.4535 177.449 64.9113 180.694 64.016L179.63 60.16ZM171.7 62.2424L171.364 62.6344L174.401 65.2376L174.737 64.8456L171.7 62.2424ZM170.882 63.936V63.992H174.882V63.936H170.882ZM171.036 63.2228C170.635 64.1866 170.205 65.3807 169.748 66.791L173.553 68.025C173.991 66.6726 174.383 65.5894 174.728 64.7612L171.036 63.2228ZM169.738 66.8236C169.331 68.1539 168.868 69.6168 168.349 71.2128L172.152 72.4512C172.678 70.8365 173.148 69.3501 173.563 67.9924L169.738 66.8236ZM168.34 71.2406C167.853 72.8119 167.348 74.4576 166.825 76.1777L170.652 77.3423C171.173 75.6277 171.677 73.9881 172.161 72.4234L168.34 71.2406ZM166.829 76.1659C166.314 77.821 165.781 79.4187 165.231 80.9593L168.998 82.3047C169.568 80.7093 170.118 79.059 170.648 77.3541L166.829 76.1659ZM165.221 80.9875C164.333 83.5962 163.584 85.5525 162.972 86.8899C162.664 87.5619 162.413 88.0296 162.22 88.3295C161.977 88.7067 161.969 88.5901 162.237 88.4442L164.152 91.9558C164.83 91.5859 165.294 90.9443 165.583 90.4955C165.922 89.9694 166.263 89.3101 166.609 88.5541C167.304 87.0355 168.104 84.9318 169.008 82.2765L165.221 80.9875ZM162.3 88.4111C162.215 88.4536 162.126 88.4806 162.021 88.4922L162.463 92.4678C163.031 92.4047 163.576 92.245 164.089 91.9889L162.3 88.4111ZM161.757 88.5397C161.589 88.5819 161.415 88.6289 161.26 88.6806C161.184 88.7058 161.078 88.7437 160.963 88.7958C160.91 88.8199 160.606 88.952 160.324 89.2338L163.153 92.0622C162.997 92.2179 162.852 92.3096 162.787 92.3481C162.712 92.3934 162.651 92.4226 162.618 92.4372C162.583 92.4532 162.557 92.4634 162.545 92.4681C162.538 92.4708 162.533 92.4726 162.53 92.4737C162.528 92.4743 162.527 92.4747 162.526 92.475C162.525 92.4752 162.525 92.4754 162.525 92.4754C162.525 92.4754 162.525 92.4753 162.526 92.475C162.526 92.4748 162.527 92.4745 162.529 92.4741C162.531 92.4732 162.535 92.4721 162.54 92.4705C162.55 92.4675 162.564 92.4634 162.582 92.4584C162.618 92.4483 162.666 92.4356 162.727 92.4203L161.757 88.5397ZM161.852 88.6513C160.735 88.5874 159.951 88.3701 159.415 88.0908L157.565 91.6372C158.747 92.2539 160.128 92.5593 161.624 92.6447L161.852 88.6513ZM159.415 88.0908C159.05 87.9 158.786 87.7348 158.604 87.5998C158.415 87.4597 158.363 87.3881 158.372 87.3997L155.137 89.7523C155.716 90.5494 156.638 91.1533 157.565 91.6372L159.415 88.0908ZM158.372 87.3997C158.394 87.4296 158.433 87.5016 158.449 87.602C158.465 87.6978 158.447 87.7477 158.453 87.7254L154.607 86.6266C154.303 87.6927 154.448 88.8049 155.137 89.7523L158.372 87.3997ZM158.518 87.3931C159.214 81.0237 160.609 74.0182 162.715 66.371L158.858 65.309C156.708 73.1178 155.265 80.3363 154.542 86.9589L158.518 87.3931ZM160.786 63.84C160.022 63.84 159.078 63.8979 158.324 64.2751L160.113 67.8529C160.043 67.8879 160.002 67.8978 160.011 67.8955C160.017 67.8938 160.05 67.8855 160.117 67.8759C160.255 67.8562 160.472 67.84 160.786 67.84V63.84ZM158.277 64.2993C158.033 64.4296 157.664 64.5438 157.107 64.5703L157.297 68.5657C158.309 68.5176 159.284 68.2957 160.159 67.8287L158.277 64.2993ZM157.202 64.568H157.146V68.568H157.202V64.568ZM157.271 64.5719C157.255 64.5709 157.24 64.5684 157.211 64.5536C157.177 64.5359 157.1 64.4876 156.988 64.3671L154.057 67.0889C154.82 67.9107 155.817 68.4888 157.022 68.5641L157.271 64.5719ZM156.988 64.3671C156.756 64.1172 156.644 63.8742 156.599 63.6072L152.654 64.2648C152.833 65.3418 153.318 66.2935 154.057 67.0889L156.988 64.3671ZM156.599 63.6072C156.564 63.3967 156.581 63.1185 156.77 62.7202L153.155 61.0078C152.672 62.0281 152.465 63.1313 152.654 64.2648L156.599 63.6072ZM156.77 62.7202C156.821 62.6122 157.008 62.3315 157.733 62.0362L156.224 58.3318C154.933 58.8578 153.776 59.6971 153.155 61.0078L156.77 62.7202ZM157.52 62.1093C158.727 61.7697 159.69 61.4664 160.353 61.201L158.868 57.487C158.411 57.6696 157.619 57.9263 156.437 58.2587L157.52 62.1093ZM160.375 61.192C161.417 60.7607 162.221 60.4805 162.807 60.3261L161.789 56.4578C160.957 56.6768 159.969 57.0313 158.846 57.496L160.375 61.192ZM162.783 60.3323C163.161 60.2378 163.467 60.1591 163.693 60.0975C163.804 60.0671 163.909 60.0373 163.999 60.0096C164.032 59.9997 164.233 59.9408 164.425 59.8449L162.636 56.2671C162.699 56.2357 162.748 56.2154 162.77 56.2069C162.795 56.1969 162.813 56.1903 162.821 56.1875C162.836 56.1822 162.839 56.1815 162.823 56.1864C162.792 56.196 162.734 56.2129 162.64 56.2385C162.455 56.2889 162.182 56.3596 161.813 56.4517L162.783 60.3323ZM164.64 59.7201C164.744 59.6506 164.974 59.4966 165.169 59.3022L162.34 56.4738C162.364 56.4496 162.385 56.4303 162.401 56.4163C162.416 56.4021 162.429 56.391 162.439 56.3831C162.457 56.3678 162.469 56.3591 162.47 56.358C162.472 56.3565 162.458 56.367 162.421 56.3919L164.64 59.7201ZM164.864 59.5521C164.753 59.6261 164.654 59.6736 164.585 59.7029C164.515 59.7328 164.457 59.7512 164.419 59.762C164.347 59.7827 164.305 59.7874 164.313 59.7865C164.33 59.7842 164.414 59.776 164.594 59.776V55.776C164.327 55.776 164.047 55.7865 163.784 55.8215C163.603 55.8456 163.108 55.9151 162.645 56.2239L164.864 59.5521ZM166.553 58.1812C166.778 57.0941 167.003 55.9884 167.227 54.8642L163.305 54.0798C163.082 55.1956 162.859 56.2926 162.636 57.3708L166.553 58.1812ZM167.227 54.8642C167.44 53.8029 167.706 52.7194 168.027 51.6136L164.186 50.4984C163.835 51.7073 163.541 52.9011 163.305 54.0798L167.227 54.8642ZM168.033 51.5913C168.733 49.0716 169.679 46.9615 170.845 45.2288L167.527 42.9952C166.08 45.1452 164.973 47.6644 164.179 50.5207L168.033 51.5913Z" fill="black" mask="url(#path-2-outside-1_347_7025)"/>
<defs>
<linearGradient id="paint0_linear_347_7025" x1="115.684" y1="5.99331" x2="131.263" y2="143.815" gradientUnits="userSpaceOnUse">
<stop stop-color="#482828"/>
<stop offset="1" stop-color="#3F333B"/>
</linearGradient>
<linearGradient id="paint1_linear_347_7025" x1="196.95" y1="206.563" x2="2.50125" y2="142.298" gradientUnits="userSpaceOnUse">
<stop stop-color="#7A5054"/>
<stop offset="1" stop-color="#A27270"/>
</linearGradient>
<linearGradient id="paint2_linear_347_7025" x1="172.393" y1="21.3461" x2="34.6615" y2="132.296" gradientUnits="userSpaceOnUse">
<stop stop-color="#5B4544"/>
<stop offset="1" stop-color="#895E61"/>
</linearGradient>
<linearGradient id="paint3_linear_347_7025" x1="185.07" y1="247.573" x2="-39.3181" y2="121.784" gradientUnits="userSpaceOnUse">
<stop stop-color="#C29E9B"/>
<stop offset="1" stop-color="#C4B4AE"/>
</linearGradient>
<linearGradient id="paint4_linear_347_7025" x1="128.162" y1="37.8826" x2="106.895" y2="108.48" gradientUnits="userSpaceOnUse">
<stop stop-color="#FBFBFC" stop-opacity="0.792157"/>
<stop offset="1" stop-color="#F9F9FB" stop-opacity="0.85098"/>
</linearGradient>
<linearGradient id="paint5_linear_347_7025" x1="60.9956" y1="128.026" x2="138.529" y2="-26.6598" gradientUnits="userSpaceOnUse">
<stop stop-color="#F08B4C"/>
<stop offset="1" stop-color="#894B2C"/>
</linearGradient>
</defs>
</svg>
