<svg width="261" height="144" viewBox="0 0 261 144" fill="none" xmlns="http://www.w3.org/2000/svg">
<path d="M0 0H126.873H147.641H260.493C260.731 0.378103 260.812 0.693828 260.833 1.13536C260.973 4.05216 260.863 7.0229 260.865 9.94419V26.5606C260.864 28.9919 261.22 35.4866 260.78 37.5672C260.742 37.7441 260.678 37.911 260.603 38.0747L260.593 38.6856C260.766 39.1045 260.828 39.4624 260.841 39.913C261.09 48.9106 260.983 142.936 260.683 143.667C260.633 143.788 260.569 143.894 260.493 144H0V0ZM126.873 0C126.852 0.622605 126.823 1.07499 127.09 1.65384C127.122 1.72472 127.149 1.7982 127.179 1.87022C127.26 2.06364 127.218 2.0802 127.144 2.28415C126.438 2.32323 125.688 2.31443 124.995 2.45873C120.116 2.42254 115.374 3.09511 110.534 3.54398C104.992 4.05799 99.4261 4.13646 93.8796 4.75769C89.6308 5.23354 85.4382 6.23954 81.1887 6.76339C73.3446 7.73034 57.5279 8.27575 51.133 11.8822L50.5125 12.2302C52.8132 15.222 56.5235 33.8699 56.5952 38.6899L56.8166 39.0283C56.4698 40.1011 55.4244 44.9796 55.7594 45.8719C56.4423 46.4277 57.7811 46.5369 57.8727 47.5315C57.959 48.47 56.487 52.7183 56.1649 53.9508C54.0103 62.1958 52.1633 70.7983 54.922 79.1661C55.5195 80.9785 56.3933 83.0359 57.8261 84.3567C58.4198 84.9046 59.1714 85.3639 59.8343 85.8273C61.4936 87.2268 63.1704 88.8621 64.9829 90.0521C69.6867 93.1415 75.0367 94.277 80.3854 95.6748C82.6183 96.2582 84.8215 96.9592 87.0545 97.5393C86.5278 96.792 84.6539 94.608 84.6985 93.8177C88.4842 97.8521 92.6719 101.127 97.0132 104.531C99.4261 106.423 101.851 108.502 104.557 109.962C109.146 111.18 113.454 113.022 118.147 113.994C121.896 114.78 125.673 115.405 129.476 115.868C132.686 116.268 135.978 116.53 139.151 117.146C141.059 116.754 142.999 116.391 144.805 115.644C147.503 114.24 150.079 112.949 153.142 112.595C160.361 111.495 170.102 102.766 174.679 97.421C177.34 94.3142 186.551 81.3128 186.266 77.6062L186.863 77.4322L187.138 77.6474C187.385 78.5918 187.062 79.6806 186.863 80.6125C185.84 85.4069 183.803 89.5217 181.353 93.7299C177.138 100.97 170.355 106.996 163.25 111.288C160.326 113.054 157.235 114.56 154.235 116.191C152.093 117.357 149.576 119.397 147.247 120.012C156.327 119.886 166.92 119.395 175.667 116.949C185.291 114.257 195.226 104.064 200.024 95.4993C201.846 92.2452 203.611 88.9415 205.034 85.4897C207.844 78.6709 212.422 63.6312 213.261 56.4984C213.515 54.3386 213.553 52.0366 212.952 49.9279C211.558 45.0281 207.773 45.5244 204.112 43.4523C202.106 42.3173 201.76 40.6279 201.188 38.5591C201.287 38.5128 201.381 38.4637 201.471 38.4042C204.555 36.3861 209.882 22.08 210.66 18.1365C211.351 18.4832 211.598 18.8777 211.838 19.6059C212.262 20.8902 212.328 22.7626 211.731 23.997C212.1 25.3858 211.515 26.8922 210.825 28.0883C209.586 30.2374 207.822 31.9322 207.105 34.3652C213.84 36.1837 234.293 41.6732 237.815 47.8191C238.024 48.184 238.107 48.3964 238.074 48.8128C238.709 49.0882 239.428 49.4163 240.124 49.169C240.629 48.99 240.945 48.6542 241.177 48.1869C246.576 45.799 249.6 42.7086 253.579 38.5566C255.15 38.4679 256.706 38.3398 257.973 39.4716C258.559 39.9954 258.876 40.7046 259.167 41.4197C259.199 41.4002 259.231 41.3815 259.261 41.361C260.117 40.7887 260.416 39.6417 260.593 38.6856L260.603 38.0747C260.678 37.911 260.742 37.7441 260.78 37.5672C261.22 35.4866 260.864 28.9919 260.865 26.5606V9.94419C260.863 7.0229 260.973 4.05216 260.833 1.13536C260.812 0.693828 260.731 0.378103 260.493 0H147.641H126.873ZM0 0V144H260.493C260.569 143.894 260.633 143.788 260.683 143.667C260.983 142.936 261.09 48.9106 260.841 39.913C260.828 39.4624 260.766 39.1045 260.593 38.6856C260.416 39.6417 260.117 40.7887 259.261 41.361C259.231 41.3815 259.199 41.4002 259.167 41.4197C258.876 40.7046 258.559 39.9954 257.973 39.4716C256.706 38.3398 255.15 38.4679 253.579 38.5566C249.6 42.7086 246.576 45.799 241.177 48.1869C240.945 48.6542 240.629 48.99 240.124 49.169C239.428 49.4163 238.709 49.0882 238.074 48.8128C240.197 53.6091 237.437 85.0982 236.55 92.1559C236.268 94.2828 235.905 96.3956 235.462 98.4943C235.266 99.4386 234.801 100.625 234.792 101.561C232.677 102.175 230.463 104.296 229.077 105.924C229.839 106.492 230.813 107.249 230.959 108.253C230.963 108.282 230.962 108.311 230.964 108.341C230.855 108.967 230.689 109.35 230.142 109.738C230.062 109.795 229.979 109.848 229.895 109.898C230.344 111.088 229.885 112.526 229.389 113.638C227.711 117.401 222.94 121.634 222.423 125.57C222.409 125.676 222.419 125.632 222.385 125.731C221.669 126.459 219.532 127.108 218.532 127.508C212.228 130.026 205.483 131.593 198.961 133.438C185.512 137.241 172.078 139.627 158.207 141.226C151.98 141.943 145.601 142.778 139.346 143.078C136.987 143.185 134.628 143.259 132.267 143.301C129.907 143.343 127.546 143.352 125.185 143.328C122.825 143.305 120.465 143.249 118.105 143.16C115.746 143.071 113.388 142.95 111.032 142.796C108.677 142.642 106.324 142.455 103.973 142.236C101.622 142.018 99.2745 141.767 96.9306 141.482C94.5868 141.199 92.2473 140.883 89.9123 140.534C87.5773 140.186 85.2475 139.806 82.9229 139.393C80.598 138.98 78.2793 138.535 75.9668 138.058C73.6544 137.581 71.3489 137.073 69.0505 136.532C66.752 135.991 64.4613 135.419 62.1786 134.815C59.8958 134.211 57.6218 133.576 55.3566 132.91C53.0913 132.242 50.8356 131.545 48.5895 130.816C46.3434 130.086 44.1077 129.326 41.8825 128.536C39.6573 127.745 37.4434 126.924 35.2408 126.071C33.0382 125.219 30.8477 124.337 28.6693 123.425C27.7405 121.111 27.3786 118.554 27.1473 116.084C25.7785 117.022 24.6951 118.396 23.4909 119.534C22.7956 120.19 21.4466 121.593 20.4324 121.563C19.9094 120.91 19.8521 117.759 19.7404 116.825C17.146 116.642 14.0296 116.225 11.7808 114.825C10.3646 113.944 9.84149 113.019 9.47026 111.416C9.19034 109.018 8.82374 106.557 8.25506 104.209C7.74383 102.098 7.05027 100.004 6.6445 97.872C4.2127 91.8927 2.38973 72.0392 2.48671 64.9173C2.07458 62.629 2.14078 60.0634 1.9456 57.7315C1.74327 55.314 1.33025 52.9207 1.11893 50.5059C0.938127 48.4397 0.945037 46.333 0.899668 44.259C0.848205 43.4155 0.802526 42.5717 0.762631 41.7276C0.706861 40.4524 0.499758 39.0266 1.42546 38.0129C4.80531 34.1645 28.6923 23.5993 34.6486 21.0702C38.0576 19.6227 44.0845 17.518 46.9389 15.524C48.2173 14.5156 49.1892 13.1925 50.5125 12.2302L51.133 11.8822C57.5279 8.27575 73.3446 7.73034 81.1887 6.76339C85.4382 6.23954 89.6308 5.23354 93.8796 4.75769C99.4261 4.13646 104.992 4.05799 110.534 3.54398C115.374 3.09511 120.116 2.42254 124.995 2.45873C125.688 2.31443 126.438 2.32323 127.144 2.28415C127.218 2.0802 127.26 2.06364 127.179 1.87022C127.149 1.7982 127.122 1.72472 127.09 1.65384C126.823 1.07499 126.852 0.622605 126.873 0H0Z" fill="url(#paint0_linear_273_16348)"/>
<path d="M144.805 115.644C147.503 114.24 150.079 112.949 153.142 112.595C152.794 113.378 150.744 114.19 149.961 114.491C148.279 115.139 146.608 115.541 144.805 115.644Z" fill="#644A49"/>
<path d="M104.557 109.962C109.146 111.18 113.454 113.022 118.147 113.994C121.896 114.78 125.673 115.405 129.476 115.868C132.686 116.268 135.978 116.53 139.151 117.146C137.235 117.668 135.421 117.971 133.438 118.084C124.49 118.596 111.354 116.033 104.557 109.962Z" fill="#644A49"/>
<path d="M20.1741 50.2975C20.8926 50.331 22.6998 50.1112 23.1297 50.5521C23.2327 51.2467 23.2309 52.0241 23.4934 52.6762C23.6127 55.3826 23.236 58.2053 23.1711 60.9253C23.0768 64.8771 23.2783 68.8298 23.4972 72.7743C24.0199 82.1926 25.5945 91.5037 26.1499 100.906C20.753 103.539 16.2137 107.471 11.0223 110.416C11.0219 110.387 11.0204 110.358 11.0209 110.329C11.0822 106.303 20.4155 100.17 23.1977 97.4185L21.7633 68.4503C21.4555 62.5339 21.3869 56.087 20.1741 50.2975Z" fill="#7A6D7F"/>
<path d="M31.8528 104.862C35.304 106.477 38.7368 108.379 42.2826 109.755C46.7179 111.477 51.396 112.731 55.9587 114.072C64.1947 116.575 72.5313 118.676 80.9686 120.375C89.4059 122.074 97.905 123.364 106.466 124.246C112.315 124.79 118.155 124.816 124.014 125.11C123.521 126.766 123.062 128.162 121.433 129.04C119.639 130.005 117.399 129.99 115.464 130.617C111.283 130.518 107.024 129.808 102.861 129.369C76.9281 126.634 53.1838 119.81 29.3046 109.407C30.0718 107.853 30.9869 106.363 31.8528 104.862Z" fill="#B6908F"/>
<path d="M124.014 125.11C126.794 124.951 129.641 125.057 132.43 125.015C136.959 124.945 141.483 124.766 146.003 124.479C167.693 123.12 192.204 118.925 212.779 111.886C217.226 110.364 221.354 108.129 225.727 106.464C226.75 106.074 228.036 105.455 229.077 105.924C229.839 106.492 230.813 107.249 230.959 108.253C230.963 108.282 230.962 108.311 230.964 108.341C230.855 108.967 230.689 109.35 230.142 109.738C230.062 109.795 229.979 109.848 229.895 109.898C228.368 112.181 221.436 114.276 218.752 115.239C205.45 120.014 192.526 123.882 178.651 126.627C174.49 127.457 170.311 128.179 166.113 128.795C161.916 129.411 157.706 129.92 153.482 130.321C149.259 130.722 145.028 131.015 140.79 131.201C136.552 131.387 132.312 131.464 128.07 131.433C123.908 131.368 119.567 131.321 115.464 130.617C117.399 129.99 119.639 130.005 121.433 129.04C123.062 128.162 123.521 126.766 124.014 125.11Z" fill="url(#paint1_linear_273_16348)"/>
<path d="M1.42546 38.0129C4.80531 34.1645 28.6923 23.5993 34.6486 21.0702C38.0576 19.6227 44.0845 17.518 46.9389 15.524C46.1469 17.0153 45.3264 18.1927 44.1951 19.4456C46.1138 22.3287 52.9133 32.5134 52.3434 35.5529C52.2759 35.9134 51.9272 36.2394 51.6335 36.4315C51.4194 36.5714 51.1947 36.6978 50.9717 36.8228C44.5628 38.6069 38.7964 41.2236 33.0056 44.4978C29.946 46.2277 27.0013 48.1717 23.8189 49.6688L23.7671 49.6927C23.7009 50.6851 23.666 51.6961 23.4934 52.6762C23.2309 52.0241 23.2327 51.2467 23.1297 50.5521C22.6998 50.1112 20.8926 50.331 20.1741 50.2975C15.83 48.9943 2.94483 39.9468 1.24108 40.2718C0.522501 41.3218 1.59433 43.2549 0.942519 44.2038C0.929328 44.223 0.913949 44.2406 0.899668 44.259C0.848205 43.4155 0.802526 42.5717 0.762631 41.7276C0.706861 40.4524 0.499758 39.0266 1.42546 38.0129Z" fill="#92797B"/>
<path d="M1.42546 38.0129C4.80531 34.1645 28.6923 23.5993 34.6486 21.0702C38.0576 19.6227 44.0845 17.518 46.9389 15.524C46.1469 17.0153 45.3264 18.1927 44.1951 19.4456C46.1138 22.3287 52.9133 32.5134 52.3434 35.5529C52.2759 35.9134 51.9272 36.2394 51.6335 36.4315C51.4194 36.5714 51.1947 36.6978 50.9717 36.8228C49.695 35.6842 48.5291 33.1148 47.3531 31.672C45.0656 28.8651 42.3716 26.4818 39.7507 24.0037C33.3177 25.9134 26.9463 27.9985 20.793 30.699C15.7295 32.9212 10.9613 35.6418 5.7054 37.446C4.44671 37.8782 2.72478 38.5306 1.42546 38.0129Z" fill="#EBDED3"/>
<path d="M0.899668 44.259C0.913949 44.2406 0.929328 44.223 0.942519 44.2038C1.59433 43.2549 0.522501 41.3218 1.24108 40.2718C2.94483 39.9468 15.83 48.9943 20.1741 50.2975C21.3869 56.087 21.4555 62.5339 21.7633 68.4503L23.1977 97.4185C20.4155 100.17 11.0822 106.303 11.0209 110.329C11.0204 110.358 11.0219 110.387 11.0223 110.416C10.5816 110.907 10.0539 111.138 9.47026 111.416C9.19034 109.018 8.82374 106.557 8.25506 104.209C7.74383 102.098 7.05027 100.004 6.6445 97.872C4.2127 91.8927 2.38973 72.0392 2.48671 64.9173C2.07458 62.629 2.14078 60.0634 1.9456 57.7315C1.74327 55.314 1.33025 52.9207 1.11893 50.5059C0.938127 48.4397 0.945037 46.333 0.899668 44.259Z" fill="#284966"/>
<path d="M2.48671 64.9173C3.01684 65.3777 3.11012 65.7087 3.23926 66.3993C4.06595 70.8204 4.23792 75.4948 4.81589 79.9721C5.50602 85.3183 6.61204 90.6844 7.02966 96.0579C7.08067 96.7142 7.08178 97.2339 6.69377 97.7967C6.67674 97.8215 6.66092 97.8472 6.6445 97.872C4.2127 91.8927 2.38973 72.0392 2.48671 64.9173Z" fill="#B6908F"/>
<path d="M234.792 101.561C238.174 102.053 244.07 104.312 246.158 106.98C246.579 107.311 247.656 107.968 247.787 108.444C248.089 109.169 248.263 109.724 247.961 110.483C246.761 113.508 239.65 117.535 236.649 118.781C236.06 119.026 235.409 119.136 234.781 119.222C234.994 118.107 234.367 116.496 233.757 115.571C233.636 115.387 233.478 115.255 233.297 115.133C232.929 115.169 232.876 115.162 232.636 115.45C231.975 116.244 231.537 117.619 231.086 118.564C229.354 122.197 226.735 125.225 222.489 125.72C222.455 125.724 222.42 125.728 222.385 125.731C222.419 125.632 222.409 125.676 222.423 125.57C222.94 121.634 227.711 117.401 229.389 113.638C229.885 112.526 230.344 111.088 229.895 109.898C229.979 109.848 230.062 109.795 230.142 109.738C230.689 109.35 230.855 108.967 230.964 108.341C230.962 108.311 230.963 108.282 230.959 108.253C230.813 107.249 229.839 106.492 229.077 105.924C230.463 104.296 232.677 102.175 234.792 101.561Z" fill="#1C1618"/>
<path d="M253.579 38.5566C255.15 38.4679 256.706 38.3398 257.973 39.4716C258.559 39.9954 258.876 40.7046 259.167 41.4197C259.84 44.0607 259.167 49.9105 258.429 52.5835C257.954 54.2981 257.182 56.0399 256.922 57.796C256.49 60.7082 256.403 63.6872 256.015 66.6123C255.103 73.4858 250.447 103.729 247.833 108.367C247.819 108.393 247.802 108.419 247.787 108.444C247.656 107.968 246.579 107.311 246.158 106.98C244.07 104.312 238.174 102.053 234.792 101.561C234.801 100.625 235.266 99.4386 235.462 98.4943C235.905 96.3956 236.268 94.2828 236.55 92.1559C237.437 85.0982 240.197 53.6091 238.074 48.8128C238.709 49.0882 239.428 49.4163 240.124 49.169C240.629 48.99 240.945 48.6542 241.177 48.1869C246.576 45.799 249.6 42.7086 253.579 38.5566Z" fill="#644A49"/>
<path d="M238.074 48.8128C238.709 49.0882 239.428 49.4163 240.124 49.169C240.629 48.99 240.945 48.6542 241.177 48.1869C242.943 52.2636 241.23 94.7652 239.745 98.429C239.697 98.5481 239.645 98.6615 239.581 98.7741C242.175 99.8988 245.456 102.926 246.525 105.588C246.677 105.965 246.694 106.277 246.627 106.673L246.158 106.98C244.07 104.312 238.174 102.053 234.792 101.561C234.801 100.625 235.266 99.4386 235.462 98.4943C235.905 96.3956 236.268 94.2828 236.55 92.1559C237.437 85.0982 240.197 53.6091 238.074 48.8128Z" fill="#92797B"/>
<path d="M126.873 0H147.641H260.493C260.731 0.378103 260.812 0.693828 260.833 1.13536C260.973 4.05216 260.863 7.0229 260.865 9.94419V26.5606C260.864 28.9919 261.22 35.4866 260.78 37.5672C260.742 37.7441 260.678 37.911 260.603 38.0747L260.593 38.6856C260.416 39.6417 260.117 40.7887 259.261 41.361C259.231 41.3815 259.199 41.4002 259.167 41.4197C258.876 40.7046 258.559 39.9954 257.973 39.4716C256.706 38.3398 255.15 38.4679 253.579 38.5566C249.6 42.7086 246.576 45.799 241.177 48.1869C240.945 48.6542 240.629 48.99 240.124 49.169C239.428 49.4163 238.709 49.0882 238.074 48.8128C238.107 48.3964 238.024 48.184 237.815 47.8191C234.293 41.6732 213.84 36.1837 207.105 34.3652C207.822 31.9322 209.586 30.2374 210.825 28.0883C211.515 26.8922 212.1 25.3858 211.731 23.997C212.328 22.7626 212.262 20.8902 211.838 19.6059C211.598 18.8777 211.351 18.4832 210.66 18.1365C209.882 22.08 204.555 36.3861 201.471 38.4042C201.381 38.4637 201.287 38.5128 201.188 38.5591C201.76 40.6279 202.106 42.3173 204.112 43.4523C207.773 45.5244 211.558 45.0281 212.952 49.9279C213.553 52.0366 213.515 54.3386 213.261 56.4984C212.422 63.6312 207.844 78.6709 205.034 85.4897C203.611 88.9415 201.846 92.2452 200.024 95.4993C195.226 104.064 185.291 114.257 175.667 116.949C166.92 119.395 156.327 119.886 147.247 120.012C149.576 119.397 152.093 117.357 154.235 116.191C157.235 114.56 160.326 113.054 163.25 111.288C170.355 106.996 177.138 100.97 181.353 93.7299C183.803 89.5217 185.84 85.4069 186.863 80.6125C187.062 79.6806 187.385 78.5918 187.138 77.6474L186.863 77.4322L186.266 77.6062C186.551 81.3128 177.34 94.3142 174.679 97.421C170.102 102.766 160.361 111.495 153.142 112.595C150.079 112.949 147.503 114.24 144.805 115.644C142.999 116.391 141.059 116.754 139.151 117.146C135.978 116.53 132.686 116.268 129.476 115.868C125.673 115.405 121.896 114.78 118.147 113.994C113.454 113.022 109.146 111.18 104.557 109.962C101.851 108.502 99.4261 106.423 97.0132 104.531C92.6719 101.127 88.4842 97.8521 84.6985 93.8177C84.6539 94.608 86.5278 96.792 87.0545 97.5393C84.8215 96.9592 82.6183 96.2582 80.3854 95.6748C75.0367 94.277 69.6867 93.1415 64.9829 90.0521C63.1704 88.8621 61.4936 87.2268 59.8343 85.8273C59.1714 85.3639 58.4198 84.9046 57.8261 84.3567C56.3933 83.0359 55.5195 80.9785 54.922 79.1661C52.1633 70.7983 54.0103 62.1958 56.1649 53.9508C56.487 52.7183 57.959 48.47 57.8727 47.5315C57.7811 46.5369 56.4423 46.4277 55.7594 45.8719C55.4244 44.9796 56.4698 40.1011 56.8166 39.0283L56.5952 38.6899C56.5235 33.8699 52.8132 15.222 50.5125 12.2302L51.133 11.8822C57.5279 8.27575 73.3446 7.73034 81.1887 6.76339C85.4382 6.23954 89.6308 5.23354 93.8796 4.75769C99.4261 4.13646 104.992 4.05799 110.534 3.54398C115.374 3.09511 120.116 2.42254 124.995 2.45873C125.688 2.31443 126.438 2.32323 127.144 2.28415C127.218 2.0802 127.26 2.06364 127.179 1.87022C127.149 1.7982 127.122 1.72472 127.09 1.65384C126.823 1.07499 126.852 0.622605 126.873 0ZM147.641 0C147.96 0.325306 148.187 0.714921 148.485 1.03355C148.992 1.57493 150.909 1.82547 151.632 1.83209C152.41 1.83924 154.792 1.58682 155.324 2.05435C158.316 2.16612 175.133 4.10738 176.782 5.21663C183.125 5.96464 206.834 11.1278 210.461 15.6825C210.7 15.983 211.051 16.5272 211.084 16.9186L210.66 18.1365C211.351 18.4832 211.598 18.8777 211.838 19.6059C212.262 20.8902 212.328 22.7626 211.731 23.997C212.1 25.3858 211.515 26.8922 210.825 28.0883C209.586 30.2374 207.822 31.9322 207.105 34.3652C213.84 36.1837 234.293 41.6732 237.815 47.8191C238.024 48.184 238.107 48.3964 238.074 48.8128C238.709 49.0882 239.428 49.4163 240.124 49.169C240.629 48.99 240.945 48.6542 241.177 48.1869C246.576 45.799 249.6 42.7086 253.579 38.5566C255.15 38.4679 256.706 38.3398 257.973 39.4716C258.559 39.9954 258.876 40.7046 259.167 41.4197C259.199 41.4002 259.231 41.3815 259.261 41.361C260.117 40.7887 260.416 39.6417 260.593 38.6856L260.603 38.0747C260.678 37.911 260.742 37.7441 260.78 37.5672C261.22 35.4866 260.864 28.9919 260.865 26.5606V9.94419C260.863 7.0229 260.973 4.05216 260.833 1.13536C260.812 0.693828 260.731 0.378103 260.493 0H147.641ZM126.873 0C126.852 0.622605 126.823 1.07499 127.09 1.65384C127.122 1.72472 127.149 1.7982 127.179 1.87022C127.26 2.06364 127.218 2.0802 127.144 2.28415C126.438 2.32323 125.688 2.31443 124.995 2.45873C120.116 2.42254 115.374 3.09511 110.534 3.54398C104.992 4.05799 99.4261 4.13646 93.8796 4.75769C89.6308 5.23354 85.4382 6.23954 81.1887 6.76339C73.3446 7.73034 57.5279 8.27575 51.133 11.8822L50.5125 12.2302C52.8132 15.222 56.5235 33.8699 56.5952 38.6899C59.6646 36.3955 60.7191 30.079 62.4794 26.6965C81.4182 14.6282 121.521 13.7514 143.684 15.1783C151.498 15.7579 159.267 16.7082 166.99 18.0292C170.422 18.5902 173.915 19.0794 177.308 19.8366C183.315 21.1768 195.989 24.4185 199.539 30.0036C201.443 32.9968 200.1 36.1303 201.188 38.5591C201.287 38.5128 201.381 38.4637 201.471 38.4042C204.555 36.3861 209.882 22.08 210.66 18.1365L211.084 16.9186C211.051 16.5272 210.7 15.983 210.461 15.6825C206.834 11.1278 183.125 5.96464 176.782 5.21663C175.133 4.10738 158.316 2.16612 155.324 2.05435C154.792 1.58682 152.41 1.83924 151.632 1.83209C150.909 1.82547 148.992 1.57493 148.485 1.03355C148.187 0.714921 147.96 0.325306 147.641 0H126.873Z" fill="url(#paint2_linear_273_16348)"/>
<path d="M56.8166 39.0283L57.0842 38.9665C57.0419 40.2075 55.8358 45.007 56.1311 45.6392C56.7253 45.9339 57.7368 46.2578 58.0137 46.8941C58.3245 49.0778 57.1467 52.0169 56.5651 54.1217C53.9257 63.6746 52.2437 73.4144 56.8526 82.698C56.8531 81.8668 56.8266 81.1419 57.1751 80.3672L57.4452 80.2905C58.7867 81.6871 58.6381 84.2102 59.8343 85.8273C59.1714 85.3639 58.4198 84.9046 57.8261 84.3567C56.3933 83.0359 55.5195 80.9785 54.922 79.1661C52.1633 70.7983 54.0103 62.1958 56.1649 53.9508C56.487 52.7183 57.959 48.47 57.8727 47.5315C57.7811 46.5369 56.4423 46.4277 55.7594 45.8719C55.4244 44.9796 56.4698 40.1011 56.8166 39.0283Z" fill="#644A49"/>
<path d="M126.873 0H147.641C147.96 0.325306 148.187 0.714921 148.485 1.03355C148.992 1.57493 150.909 1.82547 151.632 1.83209C152.41 1.83924 154.792 1.58682 155.324 2.05435C158.316 2.16612 175.133 4.10738 176.782 5.21663C183.125 5.96464 206.834 11.1278 210.461 15.6825C210.7 15.983 211.051 16.5272 211.084 16.9186L210.66 18.1365C209.882 22.08 204.555 36.3861 201.471 38.4042C201.381 38.4637 201.287 38.5128 201.188 38.5591C200.1 36.1303 201.443 32.9968 199.539 30.0036C195.989 24.4185 183.315 21.1768 177.308 19.8366C173.915 19.0794 170.422 18.5902 166.99 18.0292C159.267 16.7082 151.498 15.7579 143.684 15.1783C121.521 13.7514 81.4182 14.6282 62.4794 26.6965C60.7191 30.079 59.6646 36.3955 56.5952 38.6899C56.5235 33.8699 52.8132 15.222 50.5125 12.2302L51.133 11.8822C57.5279 8.27575 73.3446 7.73034 81.1887 6.76339C85.4382 6.23954 89.6308 5.23354 93.8796 4.75769C99.4261 4.13646 104.992 4.05799 110.534 3.54398C115.374 3.09511 120.116 2.42254 124.995 2.45873C125.688 2.31443 126.438 2.32323 127.144 2.28415C127.218 2.0802 127.26 2.06364 127.179 1.87022C127.149 1.7982 127.122 1.72472 127.09 1.65384C126.823 1.07499 126.852 0.622605 126.873 0ZM126.873 0C126.852 0.622605 126.823 1.07499 127.09 1.65384C127.122 1.72472 127.149 1.7982 127.179 1.87022C127.26 2.06364 127.218 2.0802 127.144 2.28415C126.438 2.32323 125.688 2.31443 124.995 2.45873C120.116 2.42254 115.374 3.09511 110.534 3.54398C104.992 4.05799 99.4261 4.13646 93.8796 4.75769C89.6308 5.23354 85.4382 6.23954 81.1887 6.76339C73.3446 7.73034 57.5279 8.27575 51.133 11.8822C51.2334 11.9767 51.3383 12.0581 51.4571 12.1287C54.9121 14.179 73.4309 10.6058 77.7885 9.95909C92.151 7.82761 106.356 6.33436 120.877 6.09324C126.477 6.00534 132.075 6.05771 137.672 6.25036C143.094 6.45551 157.872 7.70334 162.607 6.414C162.965 6.31663 163.033 6.33068 163.21 6.01337C163.193 5.98794 163.177 5.96169 163.159 5.9371C162.383 4.89725 160.066 4.52394 158.851 4.32096C163.35 4.3967 171.208 6.96395 175.148 6.09212C175.738 5.96172 176.289 5.55382 176.782 5.21663C175.133 4.10738 158.316 2.16612 155.324 2.05435C154.792 1.58682 152.41 1.83924 151.632 1.83209C150.909 1.82547 148.992 1.57493 148.485 1.03355C148.187 0.714921 147.96 0.325306 147.641 0H126.873Z" fill="url(#paint3_linear_273_16348)"/>
<path d="M195.147 23.3787C196.204 23.0072 199.531 24.6324 200.796 24.9162C201.758 25.1319 203.018 25.3011 203.878 24.7133C204.447 24.3244 204.682 23.6714 204.806 23.0239C204.842 23.3 204.871 23.5828 204.845 23.8614C204.75 24.9178 204.234 26.1072 203.425 26.7929C203.428 26.8199 203.434 26.8468 203.434 26.874C203.451 27.826 202.301 29.2248 201.688 29.9217C201.726 29.4351 201.52 28.9075 201.304 28.4776C200.242 26.3705 197.335 24.1337 195.147 23.3787Z" fill="#92797B"/>
<path d="M72.9534 16.0481C77.33 15.7423 81.7793 15.8792 86.1629 15.9265C78.7676 17.7031 68.9809 19.762 62.3394 23.1737C59.7613 24.7405 59.4877 26.4369 58.0781 28.8931C57.6862 24.9434 56.6259 20.8937 55.8376 16.9966C61.5347 16.8276 67.2408 16.2324 72.9534 16.0481Z" fill="#92797B"/>
<path d="M126.873 0H147.641C147.96 0.325306 148.187 0.714921 148.485 1.03355C148.992 1.57493 150.909 1.82547 151.632 1.83209C152.41 1.83924 154.792 1.58682 155.324 2.05435C158.316 2.16612 175.133 4.10738 176.782 5.21663C176.289 5.55382 175.738 5.96172 175.148 6.09212C171.208 6.96395 163.35 4.3967 158.851 4.32096C160.066 4.52394 162.383 4.89725 163.159 5.9371C163.177 5.96169 163.193 5.98794 163.21 6.01337C163.033 6.33068 162.965 6.31663 162.607 6.414C157.872 7.70334 143.094 6.45551 137.672 6.25036C132.075 6.05771 126.477 6.00534 120.877 6.09324C106.356 6.33436 92.151 7.82761 77.7885 9.95909C73.4309 10.6058 54.9121 14.179 51.4571 12.1287C51.3383 12.0581 51.2334 11.9767 51.133 11.8822C57.5279 8.27575 73.3446 7.73034 81.1887 6.76339C85.4382 6.23954 89.6308 5.23354 93.8796 4.75769C99.4261 4.13646 104.992 4.05799 110.534 3.54398C115.374 3.09511 120.116 2.42254 124.995 2.45873C125.688 2.31443 126.438 2.32323 127.144 2.28415C127.218 2.0802 127.26 2.06364 127.179 1.87022C127.149 1.7982 127.122 1.72472 127.09 1.65384C126.823 1.07499 126.852 0.622605 126.873 0ZM126.873 0C126.852 0.622605 126.823 1.07499 127.09 1.65384C127.122 1.72472 127.149 1.7982 127.179 1.87022C127.26 2.06364 127.218 2.0802 127.144 2.28415C126.438 2.32323 125.688 2.31443 124.995 2.45873C127.139 2.63385 129.288 2.44605 131.436 2.5155C134.097 2.60153 147.237 3.76171 148.721 2.93289C150.71 2.96828 152.614 1.99775 155.324 2.05435C154.792 1.58682 152.41 1.83924 151.632 1.83209C150.909 1.82547 148.992 1.57493 148.485 1.03355C148.187 0.714921 147.96 0.325306 147.641 0H126.873Z" fill="#EBDED3"/>
<path d="M126.873 0H147.641C147.96 0.325306 148.187 0.714921 148.485 1.03355C148.992 1.57493 150.909 1.82547 151.632 1.83209C152.41 1.83924 154.792 1.58682 155.324 2.05435C152.614 1.99775 150.71 2.96828 148.721 2.93289C147.237 3.76171 134.097 2.60153 131.436 2.5155C129.288 2.44605 127.139 2.63385 124.995 2.45873C125.688 2.31443 126.438 2.32323 127.144 2.28415C127.218 2.0802 127.26 2.06364 127.179 1.87022C127.149 1.7982 127.122 1.72472 127.09 1.65384C126.823 1.07499 126.852 0.622605 126.873 0ZM126.873 0C126.852 0.622605 126.823 1.07499 127.09 1.65384C127.122 1.72472 127.149 1.7982 127.179 1.87022C127.26 2.06364 127.218 2.0802 127.144 2.28415C131.585 2.99892 135.346 -0.68144 140.728 0.16074C141.845 0.335457 142.905 0.865217 143.985 1.19409C145.054 1.51961 146.394 1.54222 147.353 2.0884L147.264 2.36921L146.298 2.77514L148.721 2.93289C150.71 2.96828 152.614 1.99775 155.324 2.05435C154.792 1.58682 152.41 1.83924 151.632 1.83209C150.909 1.82547 148.992 1.57493 148.485 1.03355C148.187 0.714921 147.96 0.325306 147.641 0H126.873Z" fill="url(#paint4_linear_273_16348)"/>
<path d="M126.873 0H147.641C147.96 0.325306 148.187 0.714921 148.485 1.03355C148.992 1.57493 150.909 1.82547 151.632 1.83209C152.41 1.83924 154.792 1.58682 155.324 2.05435C152.614 1.99775 150.71 2.96828 148.721 2.93289L146.298 2.77514L147.264 2.36921L147.353 2.0884C146.394 1.54222 145.054 1.51961 143.985 1.19409C142.905 0.865217 141.845 0.335457 140.728 0.16074C135.346 -0.68144 131.585 2.99892 127.144 2.28415C127.218 2.0802 127.26 2.06364 127.179 1.87022C127.149 1.7982 127.122 1.72472 127.09 1.65384C126.823 1.07499 126.852 0.622605 126.873 0Z" fill="#FEFDFE" fill-opacity="0.588235"/>
<path d="M211.084 16.9186C211.671 17.2322 214.756 18.3669 215.003 18.6414C225.734 20.7667 236.363 25.2046 246.187 29.9599C249.206 31.4215 252.121 33.2511 255.171 34.6092C256.759 34.7986 259.134 35.645 260.167 36.9523C260.398 37.2442 260.582 37.7012 260.603 38.0747L260.593 38.6856C260.416 39.6417 260.117 40.7887 259.261 41.361C259.231 41.3815 259.199 41.4002 259.167 41.4197C258.876 40.7046 258.559 39.9954 257.973 39.4716C256.706 38.3398 255.15 38.4679 253.579 38.5566C249.6 42.7086 246.576 45.799 241.177 48.1869C240.945 48.6542 240.629 48.99 240.124 49.169C239.428 49.4163 238.709 49.0882 238.074 48.8128C238.107 48.3964 238.024 48.184 237.815 47.8191C234.293 41.6732 213.84 36.1837 207.105 34.3652C207.822 31.9322 209.586 30.2374 210.825 28.0883C211.515 26.8922 212.1 25.3858 211.731 23.997C212.328 22.7626 212.262 20.8902 211.838 19.6059C211.598 18.8777 211.351 18.4832 210.66 18.1365L211.084 16.9186Z" fill="#92797B"/>
<path d="M210.086 31.8806C212.895 35.1512 231.99 38.3488 238.451 44.5331C238.87 44.9342 239.748 45.6127 239.895 46.1744C242.701 45.2528 248.716 39.8649 249.97 37.2775C250.142 36.9222 250.154 36.5824 250.093 36.1979C251.575 36.5889 252.65 37.3232 253.579 38.5566C249.6 42.7086 246.576 45.799 241.177 48.1869C240.945 48.6542 240.629 48.99 240.124 49.169C239.428 49.4163 238.709 49.0882 238.074 48.8128C238.107 48.3964 238.024 48.184 237.815 47.8191C234.293 41.6732 213.84 36.1837 207.105 34.3652L207.978 34.2692C208.966 33.6436 209.513 32.8741 210.086 31.8806Z" fill="#B6908F"/>
<path d="M211.084 16.9186C211.671 17.2322 214.756 18.3669 215.003 18.6414C225.734 20.7667 236.363 25.2046 246.187 29.9599C249.206 31.4215 252.121 33.2511 255.171 34.6092C256.759 34.7986 259.134 35.645 260.167 36.9523C260.398 37.2442 260.582 37.7012 260.603 38.0747L260.593 38.6856C260.416 39.6417 260.117 40.7887 259.261 41.361C259.231 41.3815 259.199 41.4002 259.167 41.4197C258.876 40.7046 258.559 39.9954 257.973 39.4716C256.706 38.3398 255.15 38.4679 253.579 38.5566C252.65 37.3232 251.575 36.5889 250.093 36.1979C249.943 35.5796 249.492 35.2286 249.068 34.766C246.439 32.3719 240.516 30.5712 237.114 29.0878C233.47 27.4985 229.953 25.6965 226.184 24.4005C223.656 23.531 221.127 22.8996 218.497 22.4311C218.52 22.5564 218.53 22.6792 218.511 22.8063C218.103 25.6321 212.445 30.1846 210.086 31.8806C209.513 32.8741 208.966 33.6436 207.978 34.2692L207.105 34.3652C207.822 31.9322 209.586 30.2374 210.825 28.0883C211.515 26.8922 212.1 25.3858 211.731 23.997C212.328 22.7626 212.262 20.8902 211.838 19.6059C211.598 18.8777 211.351 18.4832 210.66 18.1365L211.084 16.9186Z" fill="#EBDED3"/>
<path d="M211.084 16.9186C211.671 17.2322 214.756 18.3669 215.003 18.6414C215.222 19.5011 214.788 20.0309 214.347 20.7759C213.603 22.0304 212.932 23.1375 211.731 23.997C212.328 22.7626 212.262 20.8902 211.838 19.6059C211.598 18.8777 211.351 18.4832 210.66 18.1365L211.084 16.9186Z" fill="#70ACBC"/>
<path d="M255.171 34.6092C256.759 34.7986 259.134 35.645 260.167 36.9523C260.398 37.2442 260.582 37.7012 260.603 38.0747L260.593 38.6856C260.416 39.6417 260.117 40.7887 259.261 41.361C259.231 41.3815 259.199 41.4002 259.167 41.4197C258.876 40.7046 258.559 39.9954 257.973 39.4716C256.706 38.3398 255.15 38.4679 253.579 38.5566C252.65 37.3232 251.575 36.5889 250.093 36.1979C249.943 35.5796 249.492 35.2286 249.068 34.766C250.594 34.8887 252.385 36.1275 253.876 36.607C254.371 36.7663 254.912 36.9132 255.401 36.6651C255.714 35.9102 255.458 35.3447 255.171 34.6092Z" fill="#70ACBC"/>
<path d="M91.5542 29.4636C94.3262 28.4385 97.6884 28.2727 100.608 27.727C118.777 24.3304 146.287 22.2497 163.454 29.8975C172.842 34.0794 182.039 44.9215 185.683 54.4217C186.149 55.6342 186.604 56.887 186.843 58.1664C187.666 62.5897 188.032 73.6327 186.266 77.6062C186.551 81.3128 177.34 94.3142 174.679 97.421C170.102 102.766 160.361 111.495 153.142 112.595C150.079 112.949 147.503 114.24 144.805 115.644C142.999 116.391 141.059 116.754 139.151 117.146C135.978 116.53 132.686 116.268 129.476 115.868C125.673 115.405 121.896 114.78 118.147 113.994C113.454 113.022 109.146 111.18 104.557 109.962C101.851 108.502 99.4261 106.423 97.0132 104.531C92.6719 101.127 88.4842 97.8521 84.6985 93.8177C84.3353 92.9942 82.1398 90.9699 81.4033 90.0273C77.8014 85.416 75.6344 79.5531 74.6347 73.8162C72.5918 62.0931 76.3575 49.3185 83.2391 39.7947C85.8303 36.2089 89.0034 33.1112 91.5542 29.4636Z" fill="url(#paint5_linear_273_16348)"/>
<path d="M136.305 26.1646C140.207 25.5786 147.737 26.9812 151.596 28.2142C159.587 30.7679 165.555 35.3728 171.64 41.0141C173.833 43.0473 176.208 45.1328 177.594 47.8409C178.512 49.634 178.756 51.9416 179.269 53.888C180.648 59.1229 183.541 66.7778 181.799 72.1679C181.58 71.7622 181.901 69.5405 181.909 68.8879C181.939 66.6718 181.378 59.5221 179.93 58.0308C180.212 57.2051 179.59 55.4982 179.352 54.6435C178.543 51.7496 176.769 49.7116 175.114 47.3034C174.206 45.9828 173.821 44.3423 172.891 43.0322C169.985 38.9384 163.487 34.1721 159.11 31.7173C150.356 26.8079 139.428 25.2283 129.616 27.2435C127.404 27.6978 125.285 28.6394 123.115 29.2535C124.183 28.551 127.771 27.2809 128.989 27.0682C129.703 26.9432 130.449 27.009 131.167 26.8579C131.631 26.7604 132.031 26.4033 132.498 26.3595C133.719 26.245 135.004 26.4006 136.215 26.1821C136.245 26.1767 136.275 26.1704 136.305 26.1646Z" fill="#AD6945"/>
<path d="M131.131 35.8442C133.262 33.8343 136.061 32.9823 138.951 33.0779C148.277 33.3865 157.162 39.1619 163.332 45.8267C168.146 51.0276 171.802 58.1038 171.487 65.3934C171.469 65.8137 171.382 66.2342 171.21 66.619L171.08 66.7163C169.167 67.0287 157.555 63.7587 155.313 62.8711C155.271 62.7397 155.228 62.612 155.171 62.4862C154.328 60.6152 144.199 53.8896 141.912 53.0062C141.878 53.0093 141.844 53.0136 141.81 53.0158C140.564 53.0955 137.421 50.0288 136.449 49.2219C136.188 48.851 135.909 48.4471 135.715 48.0375C135.317 47.2031 135.828 46.1559 136.094 45.3499C135.958 44.2484 135.854 43.1275 135.597 42.0469C133.807 40.1122 132.244 38.2672 131.131 35.8442Z" fill="#EBDED3"/>
<path d="M136.094 45.3499C136.321 47.6472 138.137 49.9058 139.859 51.3208C140.54 51.8799 141.273 52.3965 141.912 53.0062C141.878 53.0093 141.844 53.0136 141.81 53.0158C140.564 53.0955 137.421 50.0288 136.449 49.2219C136.188 48.851 135.909 48.4471 135.715 48.0375C135.317 47.2031 135.828 46.1559 136.094 45.3499Z" fill="#FEA64D"/>
<path d="M136.449 49.2219C137.421 50.0288 140.564 53.0955 141.81 53.0158C141.844 53.0136 141.878 53.0093 141.912 53.0062C144.199 53.8896 154.328 60.6152 155.171 62.4862C155.228 62.612 155.271 62.7397 155.313 62.8711C157.555 63.7587 169.167 67.0287 171.08 66.7163L171.21 66.619C171.329 66.7323 171.433 66.8588 171.52 66.9985C171.608 67.1381 171.676 67.2865 171.726 67.4437C173.028 71.5399 170.75 78.4676 168.872 82.2259C166.95 86.0706 160.897 93.1233 157.392 95.5399C155.138 97.0932 152.233 98.3015 149.636 99.163C147.702 99.8052 145.641 100.418 143.623 100.706C141.81 100.965 133.245 101.068 131.831 100.353C132.368 100.074 134.493 100.559 135.232 100.594C138.638 100.753 142.077 100.852 145.436 100.151C146.788 99.869 153.31 97.8687 153.912 96.9526C153.769 96.6058 153.562 96.4908 153.261 96.2979C152.021 95.5026 150.629 94.5286 149.221 94.0916C148.241 93.787 147.172 93.7821 146.16 93.643C144.683 93.4403 142.872 91.3332 141.862 90.2491C139.976 88.2215 140.985 86.7319 140.255 85.9961C139.309 86.4596 138.182 87.3766 137.414 88.1048C136.957 88.5385 136.876 88.867 136.853 89.467C138.013 90.4055 140.091 90.2946 141.298 91.2488C142.288 92.0309 142.172 93.8673 143.279 94.483C144.267 95.0342 145.591 94.6229 146.634 95.093L146.363 95.2452C140.46 95.3313 143.34 93.2152 140.506 91.4408C139.245 90.6513 137.575 90.6149 136.28 89.7675C135.488 88.2778 140.095 85.1561 141.078 84.0819C141.935 83.1451 142.594 82.0892 142.976 80.8723C143.664 78.6734 144.074 73.8559 143.629 71.6069C143.408 70.4984 142.969 69.4135 142.612 68.343C141.753 65.7674 141.842 63.7932 142.144 61.1487L142.397 61.0704C142.645 61.5942 142.465 62.1885 142.399 62.7604C142.97 62.8711 144.446 63.3181 144.917 63.1106C144.93 62.7613 144.97 62.4929 144.743 62.1922C144.241 61.5279 143.25 60.9108 142.617 60.3433C141.612 59.4407 140.692 58.442 139.683 57.5427C137.274 55.3972 134.13 53.4233 133.274 50.1171C134.651 49.7113 136.689 52.1649 138.326 51.9828C138.08 50.9639 136.92 50.3167 136.449 49.2219Z" fill="#F88E61"/>
<mask id="path-2-outside-1_273_16348" maskUnits="userSpaceOnUse" x="77" y="37" width="113" height="56" fill="black">
<rect fill="white" x="77" y="37" width="113" height="56"/>
<path d="M84.808 64.272C85.5547 61.7707 86.152 59.848 86.6 58.504C87.0853 57.1227 87.552 55.8907 88 54.808C88.448 53.7253 88.952 52.68 89.512 51.672C90.1093 50.664 90.744 49.7493 91.416 48.928C92.1253 48.0693 92.872 47.3973 93.656 46.912C94.44 46.4267 95.2613 46.184 96.12 46.184C96.9787 46.184 97.8747 46.52 98.808 47.192C100.301 50.9253 101.216 53.4267 101.552 54.696C102 56.5627 102.411 59.1947 102.784 62.592C103.12 61.7333 103.493 60.8373 103.904 59.904C104.352 58.9333 104.781 57.9627 105.192 56.992C106.349 54.528 107.077 52.6613 107.376 51.392C108.197 48.7787 109.896 46.8187 112.472 45.512C114.712 44.392 116.803 44.0373 118.744 44.448C119.528 44.5973 120.069 44.9147 120.368 45.4C120.704 45.8853 120.704 46.3893 120.368 46.912C120.069 47.4347 119.957 47.9387 120.032 48.424C120.144 48.872 120.237 49.4133 120.312 50.048C120.424 51.7653 120.125 53.296 119.416 54.64C118.707 55.9467 117.979 57.5893 117.232 59.568C116.485 61.5093 115.72 63.5813 114.936 65.784C114.189 67.9867 113.424 70.2267 112.64 72.504C111.856 74.7813 111.091 76.8533 110.344 78.72C108.701 83.0133 107.357 85.384 106.312 85.832C104.893 86.6907 103.848 87.1947 103.176 87.344C102.317 87.4933 101.104 87.4933 99.536 87.344C98.5653 87.2693 97.7253 86.0187 97.016 83.592C96.6053 82.2853 96.232 80.4747 95.896 78.16C95.2987 74.128 94.888 71.9067 94.664 71.496C93.1707 76.3493 92.1067 79.4107 91.472 80.68C90.8747 81.9493 90.408 82.7893 90.072 83.2C89.7733 83.6107 89.4 84.152 88.952 84.824C88.4667 86.168 87.3093 87.1573 85.48 87.792C83.912 88.3893 82.4933 88.4827 81.224 88.072C79.8427 87.624 79.432 86.7653 79.992 85.496C80.4027 81.016 82.008 73.9413 84.808 64.272ZM132.177 77.712C131.468 78.048 130.777 78.3093 130.105 78.496C129.433 78.6827 128.649 78.8693 127.753 79.056C125.401 79.5413 123.703 79.8213 122.657 79.896C122.769 80.2693 123.329 80.7173 124.337 81.24C125.009 81.352 125.737 81.2587 126.521 80.96C127.343 80.624 128.183 80.3253 129.041 80.064C129.937 79.7653 130.796 79.5973 131.617 79.56C132.476 79.5227 133.279 79.84 134.025 80.512C134.324 81.184 134.567 81.576 134.753 81.688C134.94 81.8 135.108 81.856 135.257 81.856C135.407 81.856 135.575 81.912 135.761 82.024C135.948 82.136 136.209 82.5653 136.545 83.312C136.919 84.0587 136.825 84.768 136.265 85.44C135.743 86.112 134.921 86.6907 133.801 87.176C132.681 87.6613 131.375 88.0533 129.881 88.352C128.388 88.6507 126.895 88.856 125.401 88.968C122.041 89.2293 119.484 88.968 117.729 88.184C115.191 87.3253 113.548 85.6267 112.801 83.088C111.831 79.728 112.372 75.808 114.425 71.328C115.359 69.2373 116.833 66.9973 118.849 64.608C120.604 62.5173 122.564 61.0053 124.729 60.072C127.231 58.9893 129.844 58.4853 132.569 58.56C135.481 58.6347 137.497 59.904 138.617 62.368C139.177 63.6747 139.289 65.504 138.953 67.856C138.356 70.9173 137.572 73.0827 136.601 74.352C135.631 75.584 134.156 76.704 132.177 77.712ZM128.929 68.864C126.951 68.4533 125.401 69.5733 124.281 72.224C123.945 72.9333 123.684 73.68 123.497 74.464C124.767 74.6133 126.111 73.904 127.529 72.336C128.052 71.7013 128.444 71.0667 128.705 70.432C128.967 69.76 129.041 69.2373 128.929 68.864ZM156.113 61.024C157.084 60.2773 157.756 59.7173 158.129 59.344C158.502 58.9707 158.894 58.616 159.305 58.28C159.716 57.944 160.108 57.7387 160.481 57.664C160.854 57.5893 161.265 57.6267 161.713 57.776C162.198 57.888 162.628 58 163.001 58.112C163.412 58.224 163.654 58.2987 163.729 58.336C164.14 58.7467 164.476 59.288 164.737 59.96C164.998 60.632 165.129 61.1547 165.129 61.528C165.129 61.9013 165.017 62.2373 164.793 62.536C164.046 64.4773 162.068 67.2213 158.857 70.768C158.073 71.664 157.382 72.392 156.785 72.952C157.121 74.072 157.364 75.5467 157.513 77.376C157.886 81.1467 158.129 83.312 158.241 83.872C158.353 84.432 158.428 84.8427 158.465 85.104C158.502 85.3653 158.614 85.6267 158.801 85.888C158.95 86.5227 158.745 87.0267 158.185 87.4C157.662 87.7733 156.99 88.0533 156.169 88.24C154.452 88.6507 152.996 88.7067 151.801 88.408C151.204 87.96 150.774 87.4 150.513 86.728C150.14 85.944 149.561 84.32 148.777 81.856C148.366 82.304 147.974 82.752 147.601 83.2C147.228 83.648 146.854 84.096 146.481 84.544L145.697 85.608C145.473 85.9067 145.249 86.2053 145.025 86.504C144.838 86.8027 144.614 87.12 144.353 87.456C143.83 88.0533 143.046 88.6693 142.001 89.304C140.993 89.7147 140.06 89.9013 139.201 89.864C137.596 89.752 136.718 89.3227 136.569 88.576C135.71 88.2773 135.206 87.8107 135.057 87.176C134.908 86.5787 135.001 85.608 135.337 84.264C138.697 78.1413 141.665 73.96 144.241 71.72C143.905 71.1973 143.644 70.3947 143.457 69.312C143.046 67.296 142.673 65.9893 142.337 65.392C141.404 65.1307 140.732 64.6453 140.321 63.936C139.91 63.2267 140.022 62.2373 140.657 60.968L141.329 60.184C142.785 58.8773 144.278 58.0933 145.809 57.832C147.377 57.5707 148.814 57.944 150.121 58.952C151.092 59.3253 152.156 60.3707 153.313 62.088C153.612 62.536 153.798 62.9093 153.873 63.208C154.433 62.4613 155.18 61.7333 156.113 61.024ZM173.686 44.112L173.742 43.888L174.246 43.384C174.656 42.4133 175.104 41.8347 175.59 41.648C175.851 41.5733 176.187 41.48 176.598 41.368C177.008 41.256 177.55 40.976 178.222 40.528C178.483 40.0053 179.024 39.7813 179.846 39.856C180.667 39.8933 181.47 40.1547 182.254 40.64C183.075 41.088 183.728 41.7227 184.214 42.544C184.736 43.3653 184.867 44.224 184.606 45.12C184.344 45.9787 184.12 46.632 183.934 47.08C183.784 47.4907 183.616 47.8827 183.43 48.256C183.28 48.6293 183.075 49.0587 182.814 49.544C182.59 49.992 182.291 50.608 181.918 51.392L180.07 55.256C179.883 55.7413 179.715 56.0213 179.566 56.096C179.454 56.1707 179.342 56.3013 179.23 56.488C179.566 56.4133 179.846 56.3573 180.07 56.32C180.294 56.2827 180.518 56.2453 180.742 56.208C181.264 56.1333 181.862 56.0587 182.534 55.984C182.944 56.0587 183.299 56.096 183.598 56.096H184.382C184.83 56.096 185.371 56.2267 186.006 56.488C186.64 56.712 187.051 57.1227 187.238 57.72C187.424 58.3173 187.443 58.9333 187.294 59.568C187.144 60.1653 186.846 60.7253 186.398 61.248C185.95 61.7707 185.371 62.0507 184.662 62.088C181.414 62.984 179.099 63.4693 177.718 63.544L177.382 63.936V63.992C177.008 64.888 176.598 66.0267 176.15 67.408C175.739 68.752 175.272 70.2267 174.75 71.832C174.264 73.4 173.76 75.0427 173.238 76.76C172.715 78.44 172.174 80.064 171.614 81.632C169.822 86.896 168.515 89.752 167.694 90.2C167.395 90.3493 167.078 90.4427 166.742 90.48C166.443 90.5547 166.275 90.6107 166.238 90.648C164.931 90.5733 163.848 90.312 162.99 89.864C162.131 89.416 161.552 88.9867 161.254 88.576C160.955 88.1653 160.88 87.6987 161.03 87.176C161.739 80.68 163.158 73.568 165.286 65.84C164.539 65.84 164.016 65.9147 163.718 66.064C163.158 66.3627 162.486 66.5307 161.702 66.568H161.646C161.048 66.5307 160.507 66.2507 160.022 65.728C159.536 65.2053 159.238 64.608 159.126 63.936C159.014 63.264 159.126 62.5733 159.462 61.864C159.798 61.1547 160.47 60.5947 161.478 60.184C162.672 59.848 163.55 59.568 164.11 59.344C165.192 58.896 166.088 58.5787 166.798 58.392C167.544 58.2053 167.955 58.0933 168.03 58.056C168.142 57.9813 168.216 57.9253 168.254 57.888C168.366 57.8133 168.646 57.776 169.094 57.776C169.318 56.6933 169.542 55.592 169.766 54.472C169.99 53.352 170.27 52.2133 170.606 51.056C171.352 48.368 172.379 46.0533 173.686 44.112Z"/>
</mask>
<path d="M84.808 64.272C85.5547 61.7707 86.152 59.848 86.6 58.504C87.0853 57.1227 87.552 55.8907 88 54.808C88.448 53.7253 88.952 52.68 89.512 51.672C90.1093 50.664 90.744 49.7493 91.416 48.928C92.1253 48.0693 92.872 47.3973 93.656 46.912C94.44 46.4267 95.2613 46.184 96.12 46.184C96.9787 46.184 97.8747 46.52 98.808 47.192C100.301 50.9253 101.216 53.4267 101.552 54.696C102 56.5627 102.411 59.1947 102.784 62.592C103.12 61.7333 103.493 60.8373 103.904 59.904C104.352 58.9333 104.781 57.9627 105.192 56.992C106.349 54.528 107.077 52.6613 107.376 51.392C108.197 48.7787 109.896 46.8187 112.472 45.512C114.712 44.392 116.803 44.0373 118.744 44.448C119.528 44.5973 120.069 44.9147 120.368 45.4C120.704 45.8853 120.704 46.3893 120.368 46.912C120.069 47.4347 119.957 47.9387 120.032 48.424C120.144 48.872 120.237 49.4133 120.312 50.048C120.424 51.7653 120.125 53.296 119.416 54.64C118.707 55.9467 117.979 57.5893 117.232 59.568C116.485 61.5093 115.72 63.5813 114.936 65.784C114.189 67.9867 113.424 70.2267 112.64 72.504C111.856 74.7813 111.091 76.8533 110.344 78.72C108.701 83.0133 107.357 85.384 106.312 85.832C104.893 86.6907 103.848 87.1947 103.176 87.344C102.317 87.4933 101.104 87.4933 99.536 87.344C98.5653 87.2693 97.7253 86.0187 97.016 83.592C96.6053 82.2853 96.232 80.4747 95.896 78.16C95.2987 74.128 94.888 71.9067 94.664 71.496C93.1707 76.3493 92.1067 79.4107 91.472 80.68C90.8747 81.9493 90.408 82.7893 90.072 83.2C89.7733 83.6107 89.4 84.152 88.952 84.824C88.4667 86.168 87.3093 87.1573 85.48 87.792C83.912 88.3893 82.4933 88.4827 81.224 88.072C79.8427 87.624 79.432 86.7653 79.992 85.496C80.4027 81.016 82.008 73.9413 84.808 64.272ZM132.177 77.712C131.468 78.048 130.777 78.3093 130.105 78.496C129.433 78.6827 128.649 78.8693 127.753 79.056C125.401 79.5413 123.703 79.8213 122.657 79.896C122.769 80.2693 123.329 80.7173 124.337 81.24C125.009 81.352 125.737 81.2587 126.521 80.96C127.343 80.624 128.183 80.3253 129.041 80.064C129.937 79.7653 130.796 79.5973 131.617 79.56C132.476 79.5227 133.279 79.84 134.025 80.512C134.324 81.184 134.567 81.576 134.753 81.688C134.94 81.8 135.108 81.856 135.257 81.856C135.407 81.856 135.575 81.912 135.761 82.024C135.948 82.136 136.209 82.5653 136.545 83.312C136.919 84.0587 136.825 84.768 136.265 85.44C135.743 86.112 134.921 86.6907 133.801 87.176C132.681 87.6613 131.375 88.0533 129.881 88.352C128.388 88.6507 126.895 88.856 125.401 88.968C122.041 89.2293 119.484 88.968 117.729 88.184C115.191 87.3253 113.548 85.6267 112.801 83.088C111.831 79.728 112.372 75.808 114.425 71.328C115.359 69.2373 116.833 66.9973 118.849 64.608C120.604 62.5173 122.564 61.0053 124.729 60.072C127.231 58.9893 129.844 58.4853 132.569 58.56C135.481 58.6347 137.497 59.904 138.617 62.368C139.177 63.6747 139.289 65.504 138.953 67.856C138.356 70.9173 137.572 73.0827 136.601 74.352C135.631 75.584 134.156 76.704 132.177 77.712ZM128.929 68.864C126.951 68.4533 125.401 69.5733 124.281 72.224C123.945 72.9333 123.684 73.68 123.497 74.464C124.767 74.6133 126.111 73.904 127.529 72.336C128.052 71.7013 128.444 71.0667 128.705 70.432C128.967 69.76 129.041 69.2373 128.929 68.864ZM156.113 61.024C157.084 60.2773 157.756 59.7173 158.129 59.344C158.502 58.9707 158.894 58.616 159.305 58.28C159.716 57.944 160.108 57.7387 160.481 57.664C160.854 57.5893 161.265 57.6267 161.713 57.776C162.198 57.888 162.628 58 163.001 58.112C163.412 58.224 163.654 58.2987 163.729 58.336C164.14 58.7467 164.476 59.288 164.737 59.96C164.998 60.632 165.129 61.1547 165.129 61.528C165.129 61.9013 165.017 62.2373 164.793 62.536C164.046 64.4773 162.068 67.2213 158.857 70.768C158.073 71.664 157.382 72.392 156.785 72.952C157.121 74.072 157.364 75.5467 157.513 77.376C157.886 81.1467 158.129 83.312 158.241 83.872C158.353 84.432 158.428 84.8427 158.465 85.104C158.502 85.3653 158.614 85.6267 158.801 85.888C158.95 86.5227 158.745 87.0267 158.185 87.4C157.662 87.7733 156.99 88.0533 156.169 88.24C154.452 88.6507 152.996 88.7067 151.801 88.408C151.204 87.96 150.774 87.4 150.513 86.728C150.14 85.944 149.561 84.32 148.777 81.856C148.366 82.304 147.974 82.752 147.601 83.2C147.228 83.648 146.854 84.096 146.481 84.544L145.697 85.608C145.473 85.9067 145.249 86.2053 145.025 86.504C144.838 86.8027 144.614 87.12 144.353 87.456C143.83 88.0533 143.046 88.6693 142.001 89.304C140.993 89.7147 140.06 89.9013 139.201 89.864C137.596 89.752 136.718 89.3227 136.569 88.576C135.71 88.2773 135.206 87.8107 135.057 87.176C134.908 86.5787 135.001 85.608 135.337 84.264C138.697 78.1413 141.665 73.96 144.241 71.72C143.905 71.1973 143.644 70.3947 143.457 69.312C143.046 67.296 142.673 65.9893 142.337 65.392C141.404 65.1307 140.732 64.6453 140.321 63.936C139.91 63.2267 140.022 62.2373 140.657 60.968L141.329 60.184C142.785 58.8773 144.278 58.0933 145.809 57.832C147.377 57.5707 148.814 57.944 150.121 58.952C151.092 59.3253 152.156 60.3707 153.313 62.088C153.612 62.536 153.798 62.9093 153.873 63.208C154.433 62.4613 155.18 61.7333 156.113 61.024ZM173.686 44.112L173.742 43.888L174.246 43.384C174.656 42.4133 175.104 41.8347 175.59 41.648C175.851 41.5733 176.187 41.48 176.598 41.368C177.008 41.256 177.55 40.976 178.222 40.528C178.483 40.0053 179.024 39.7813 179.846 39.856C180.667 39.8933 181.47 40.1547 182.254 40.64C183.075 41.088 183.728 41.7227 184.214 42.544C184.736 43.3653 184.867 44.224 184.606 45.12C184.344 45.9787 184.12 46.632 183.934 47.08C183.784 47.4907 183.616 47.8827 183.43 48.256C183.28 48.6293 183.075 49.0587 182.814 49.544C182.59 49.992 182.291 50.608 181.918 51.392L180.07 55.256C179.883 55.7413 179.715 56.0213 179.566 56.096C179.454 56.1707 179.342 56.3013 179.23 56.488C179.566 56.4133 179.846 56.3573 180.07 56.32C180.294 56.2827 180.518 56.2453 180.742 56.208C181.264 56.1333 181.862 56.0587 182.534 55.984C182.944 56.0587 183.299 56.096 183.598 56.096H184.382C184.83 56.096 185.371 56.2267 186.006 56.488C186.64 56.712 187.051 57.1227 187.238 57.72C187.424 58.3173 187.443 58.9333 187.294 59.568C187.144 60.1653 186.846 60.7253 186.398 61.248C185.95 61.7707 185.371 62.0507 184.662 62.088C181.414 62.984 179.099 63.4693 177.718 63.544L177.382 63.936V63.992C177.008 64.888 176.598 66.0267 176.15 67.408C175.739 68.752 175.272 70.2267 174.75 71.832C174.264 73.4 173.76 75.0427 173.238 76.76C172.715 78.44 172.174 80.064 171.614 81.632C169.822 86.896 168.515 89.752 167.694 90.2C167.395 90.3493 167.078 90.4427 166.742 90.48C166.443 90.5547 166.275 90.6107 166.238 90.648C164.931 90.5733 163.848 90.312 162.99 89.864C162.131 89.416 161.552 88.9867 161.254 88.576C160.955 88.1653 160.88 87.6987 161.03 87.176C161.739 80.68 163.158 73.568 165.286 65.84C164.539 65.84 164.016 65.9147 163.718 66.064C163.158 66.3627 162.486 66.5307 161.702 66.568H161.646C161.048 66.5307 160.507 66.2507 160.022 65.728C159.536 65.2053 159.238 64.608 159.126 63.936C159.014 63.264 159.126 62.5733 159.462 61.864C159.798 61.1547 160.47 60.5947 161.478 60.184C162.672 59.848 163.55 59.568 164.11 59.344C165.192 58.896 166.088 58.5787 166.798 58.392C167.544 58.2053 167.955 58.0933 168.03 58.056C168.142 57.9813 168.216 57.9253 168.254 57.888C168.366 57.8133 168.646 57.776 169.094 57.776C169.318 56.6933 169.542 55.592 169.766 54.472C169.99 53.352 170.27 52.2133 170.606 51.056C171.352 48.368 172.379 46.0533 173.686 44.112Z" fill="white"/>
<path d="M84.808 64.272L82.8916 63.6999L82.8892 63.7078L82.8869 63.7157L84.808 64.272ZM86.6 58.504L84.7131 57.841L84.7077 57.8562L84.7026 57.8715L86.6 58.504ZM88 54.808L86.152 54.0433L86.152 54.0433L88 54.808ZM89.512 51.672L87.7914 50.6524L87.7772 50.6764L87.7637 50.7007L89.512 51.672ZM91.416 48.928L89.8741 47.6542L89.8681 47.6615L91.416 48.928ZM93.656 46.912L94.7087 48.6125L94.7087 48.6125L93.656 46.912ZM98.808 47.192L100.665 46.4492L100.449 45.9089L99.9766 45.5689L98.808 47.192ZM101.552 54.696L103.497 54.2293L103.491 54.2067L103.485 54.1842L101.552 54.696ZM102.784 62.592L100.796 62.8105L104.646 63.3208L102.784 62.592ZM103.904 59.904L102.088 59.0659L102.081 59.0821L102.073 59.0985L103.904 59.904ZM105.192 56.992L103.382 56.1417L103.365 56.1769L103.35 56.2127L105.192 56.992ZM107.376 51.392L105.468 50.7923L105.446 50.8624L105.429 50.9339L107.376 51.392ZM112.472 45.512L111.578 43.7231L111.567 43.7283L112.472 45.512ZM118.744 44.448L118.33 46.4047L118.35 46.4089L118.37 46.4127L118.744 44.448ZM120.368 45.4L118.665 46.4482L118.693 46.4941L118.724 46.5384L120.368 45.4ZM120.368 46.912L118.686 45.8305L118.657 45.8744L118.632 45.9197L120.368 46.912ZM120.032 48.424L118.055 48.7281L118.069 48.8194L118.092 48.9091L120.032 48.424ZM120.312 50.048L122.308 49.9178L122.304 49.866L122.298 49.8143L120.312 50.048ZM119.416 54.64L121.174 55.5942L121.179 55.5839L121.185 55.5735L119.416 54.64ZM117.232 59.568L119.099 60.286L119.103 60.2741L117.232 59.568ZM114.936 65.784L113.052 65.1133L113.047 65.1276L113.042 65.1419L114.936 65.784ZM112.64 72.504L110.749 71.853L112.64 72.504ZM110.344 78.72L108.487 77.9772L108.481 77.9912L108.476 78.0053L110.344 78.72ZM106.312 85.832L105.524 83.9937L105.396 84.0487L105.276 84.121L106.312 85.832ZM103.176 87.344L103.519 89.3144L103.564 89.3065L103.61 89.2964L103.176 87.344ZM99.536 87.344L99.7256 85.353L99.7075 85.3513L99.6894 85.3499L99.536 87.344ZM97.016 83.592L98.9357 83.0309L98.93 83.0115L98.924 82.9923L97.016 83.592ZM95.896 78.16L97.8753 77.8727L97.8744 77.8669L95.896 78.16ZM94.664 71.496L96.4198 70.5383L94.1478 66.373L92.7524 70.9078L94.664 71.496ZM91.472 80.68L89.6831 79.7856L89.6725 79.8069L89.6624 79.8284L91.472 80.68ZM90.072 83.2L88.5241 81.9335L88.488 81.9776L88.4545 82.0237L90.072 83.2ZM88.952 84.824L87.2879 83.7146L87.1533 83.9165L87.0709 84.1447L88.952 84.824ZM85.48 87.792L84.8245 85.9025L84.7961 85.9123L84.768 85.923L85.48 87.792ZM81.224 88.072L80.607 89.9744L80.6084 89.9749L81.224 88.072ZM79.992 85.496L81.8218 86.3033L81.9538 86.0042L81.9836 85.6786L79.992 85.496ZM86.7244 64.8441C87.4692 62.3492 88.0594 60.4503 88.4974 59.1365L84.7026 57.8715C84.2446 59.2457 83.6402 61.1921 82.8916 63.6999L86.7244 64.8441ZM88.4869 59.167C88.963 57.8119 89.4168 56.6148 89.848 55.5727L86.152 54.0433C85.6872 55.1665 85.2076 56.4335 84.7131 57.841L88.4869 59.167ZM89.848 55.5727C90.2672 54.5596 90.7381 53.5833 91.2603 52.6433L87.7637 50.7007C87.1659 51.7767 86.6288 52.8911 86.152 54.0433L89.848 55.5727ZM91.2326 52.6916C91.7839 51.7613 92.3618 50.9304 92.9639 50.1945L89.8681 47.6615C89.1262 48.5682 88.4348 49.5667 87.7914 50.6524L91.2326 52.6916ZM92.9579 50.2018C93.5564 49.4773 94.1438 48.9622 94.7087 48.6125L92.6033 45.2115C91.6002 45.8325 90.6942 46.6614 89.8741 47.6542L92.9579 50.2018ZM94.7087 48.6125C95.2008 48.3079 95.6608 48.184 96.12 48.184V44.184C94.8618 44.184 93.6792 44.5454 92.6033 45.2115L94.7087 48.6125ZM96.12 48.184C96.4378 48.184 96.9324 48.3061 97.6394 48.8151L99.9766 45.5689C98.8169 44.7339 97.5196 44.184 96.12 44.184V48.184ZM96.951 47.9348C98.4527 51.6889 99.3191 54.0765 99.6186 55.2078L103.485 54.1842C103.113 52.7768 102.15 50.1618 100.665 46.4492L96.951 47.9348ZM99.6072 55.1627C100.026 56.9081 100.426 59.4431 100.796 62.8105L104.772 62.3735C104.395 58.9463 103.974 56.2173 103.497 54.2293L99.6072 55.1627ZM104.646 63.3208C104.971 62.4904 105.334 61.6201 105.735 60.7095L102.073 59.0985C101.653 60.0546 101.269 60.9762 100.922 61.8632L104.646 63.3208ZM105.72 60.7421C106.177 59.7523 106.615 58.762 107.034 57.7713L103.35 56.2127C102.948 57.1634 102.527 58.1144 102.088 59.0659L105.72 60.7421ZM107.002 57.8423C108.169 55.3575 108.974 53.3335 109.323 51.8501L105.429 50.9339C105.181 51.9891 104.529 53.6985 103.382 56.1417L107.002 57.8423ZM109.284 51.9917C109.934 49.9223 111.252 48.3736 113.377 47.2957L111.567 43.7283C108.54 45.2638 106.46 47.635 105.468 50.7923L109.284 51.9917ZM113.366 47.3009C115.31 46.3291 116.937 46.1099 118.33 46.4047L119.158 42.4913C116.669 41.9647 114.114 42.4549 111.578 43.7231L113.366 47.3009ZM118.37 46.4127C118.595 46.4557 118.698 46.5069 118.727 46.5234C118.739 46.5305 118.733 46.5285 118.717 46.5135C118.7 46.4978 118.681 46.4755 118.665 46.4482L122.071 44.3518C121.375 43.2208 120.227 42.6945 119.118 42.4833L118.37 46.4127ZM118.724 46.5384C118.701 46.5054 118.62 46.3629 118.62 46.142C118.62 45.9298 118.695 45.8164 118.686 45.8305L122.05 47.9935C122.377 47.4849 122.62 46.8581 122.62 46.142C122.62 45.4171 122.371 44.7799 122.012 44.2616L118.724 46.5384ZM118.632 45.9197C118.161 46.7437 117.897 47.7021 118.055 48.7281L122.009 48.1199C122.011 48.1351 122.007 48.1381 122.012 48.1159C122.018 48.0891 122.039 48.0196 122.104 47.9043L118.632 45.9197ZM118.092 48.9091C118.177 49.2498 118.258 49.7021 118.326 50.2817L122.298 49.8143C122.217 49.1245 122.111 48.4942 121.972 47.9389L118.092 48.9091ZM118.316 50.1782C118.407 51.5768 118.162 52.7309 117.647 53.7065L121.185 55.5735C122.089 53.8611 122.441 51.9539 122.308 49.9178L118.316 50.1782ZM117.658 53.6858C116.892 55.098 116.127 56.8304 115.361 58.8619L119.103 60.2741C119.83 58.3482 120.522 56.7953 121.174 55.5942L117.658 53.6858ZM115.365 58.85C114.612 60.8088 113.841 62.8967 113.052 65.1133L116.82 66.4546C117.599 64.2659 118.359 62.2098 119.099 60.286L115.365 58.85ZM113.042 65.1419C112.296 67.3415 111.532 69.5785 110.749 71.853L114.531 73.155C115.316 70.8748 116.082 68.6318 116.83 66.4261L113.042 65.1419ZM110.749 71.853C109.974 74.1053 109.22 76.1461 108.487 77.9772L112.201 79.4628C112.962 77.5606 113.738 75.4574 114.531 73.155L110.749 71.853ZM108.476 78.0053C107.67 80.1125 106.965 81.6726 106.364 82.7316C106.064 83.2616 105.816 83.6186 105.626 83.8423C105.417 84.0891 105.376 84.057 105.524 83.9937L107.1 87.6703C107.77 87.383 108.29 86.8866 108.678 86.4287C109.085 85.9477 109.472 85.3597 109.844 84.7044C110.587 83.3928 111.376 81.6208 112.212 79.4347L108.476 78.0053ZM105.276 84.121C103.855 84.9814 103.06 85.321 102.742 85.3916L103.61 89.2964C104.636 89.0683 105.932 88.4 107.348 87.543L105.276 84.121ZM102.833 85.3736C102.238 85.4771 101.234 85.4967 99.7256 85.353L99.3464 89.335C100.974 89.49 102.397 89.5096 103.519 89.3144L102.833 85.3736ZM99.6894 85.3499C100.088 85.3805 100.106 85.6342 99.8383 85.2349C99.5841 84.8564 99.2662 84.1616 98.9357 83.0309L95.0963 84.1531C95.4752 85.4491 95.9319 86.5929 96.5177 87.4651C97.0895 88.3164 98.0136 89.2328 99.3826 89.3381L99.6894 85.3499ZM98.924 82.9923C98.56 81.8343 98.205 80.1444 97.8753 77.8727L93.9167 78.4473C94.259 80.805 94.6506 82.7364 95.108 84.1917L98.924 82.9923ZM97.8744 77.8669C97.5745 75.8428 97.3185 74.252 97.1067 73.1064C97.0012 72.5357 96.9027 72.0538 96.8113 71.6747C96.7411 71.3836 96.6223 70.9096 96.4198 70.5383L92.9082 72.4537C92.8177 72.2877 92.8343 72.2454 92.9227 72.6123C92.99 72.8912 93.0735 73.2936 93.1733 73.8336C93.3722 74.9093 93.6201 76.4452 93.9176 78.4531L97.8744 77.8669ZM92.7524 70.9078C91.2446 75.8084 90.2285 78.6948 89.6831 79.7856L93.2609 81.5744C93.9848 80.1265 95.0968 76.8902 96.5756 72.0842L92.7524 70.9078ZM89.6624 79.8284C89.0569 81.115 88.6828 81.7395 88.5241 81.9335L91.6199 84.4665C92.1332 83.8391 92.6924 82.7836 93.2816 81.5316L89.6624 79.8284ZM88.4545 82.0237C88.1334 82.4652 87.7433 83.0315 87.2879 83.7146L90.6161 85.9334C91.0567 85.2725 91.4133 84.7561 91.6895 84.3763L88.4545 82.0237ZM87.0709 84.1447C86.8571 84.7367 86.2989 85.3909 84.8245 85.9025L86.1355 89.6815C88.3197 88.9237 90.0762 87.5993 90.8331 85.5033L87.0709 84.1447ZM84.768 85.923C83.5137 86.4009 82.5737 86.4066 81.8396 86.1691L80.6084 89.9749C82.413 90.5587 84.3103 90.3778 86.192 89.661L84.768 85.923ZM81.841 86.1696C81.7427 86.1377 81.6714 86.108 81.6222 86.0842C81.573 86.0604 81.5512 86.045 81.5483 86.043C81.5461 86.0413 81.5647 86.0546 81.5927 86.087C81.6216 86.1205 81.6551 86.1681 81.6843 86.2291C81.7136 86.2904 81.7321 86.3516 81.7416 86.4065C81.751 86.4601 81.7501 86.497 81.7491 86.511C81.7482 86.524 81.7475 86.514 81.7574 86.4777C81.7673 86.4412 81.7864 86.3835 81.8218 86.3033L78.1622 84.6887C77.7571 85.607 77.5207 86.7945 78.0757 87.9549C78.6175 89.0877 79.666 89.6693 80.607 89.9744L81.841 86.1696ZM81.9836 85.6786C82.3755 81.4038 83.932 74.4874 86.7291 64.8283L82.8869 63.7157C80.084 73.3953 78.4298 80.6282 78.0004 85.3134L81.9836 85.6786ZM132.177 77.712L133.034 79.5195L133.06 79.5071L133.085 79.4941L132.177 77.712ZM130.105 78.496L130.641 80.423H130.641L130.105 78.496ZM127.753 79.056L128.158 81.0147L128.161 81.014L127.753 79.056ZM122.657 79.896L122.515 77.9011L120.024 78.079L120.742 80.4707L122.657 79.896ZM124.337 81.24L123.417 83.0155L123.697 83.1609L124.009 83.2128L124.337 81.24ZM126.521 80.96L127.233 82.829L127.256 82.8203L127.279 82.8111L126.521 80.96ZM129.041 80.064L129.624 81.9773L129.649 81.9697L129.674 81.9614L129.041 80.064ZM131.617 79.56L131.531 77.5619L131.527 77.5621L131.617 79.56ZM134.025 80.512L135.853 79.6997L135.68 79.3104L135.363 79.0254L134.025 80.512ZM134.753 81.688L135.782 79.973H135.782L134.753 81.688ZM135.761 82.024L134.732 83.739L135.761 82.024ZM136.545 83.312L134.722 84.1327L134.738 84.1699L134.757 84.2064L136.545 83.312ZM136.265 85.44L134.729 84.1596L134.707 84.1855L134.687 84.2121L136.265 85.44ZM133.801 87.176L134.597 89.0111L133.801 87.176ZM129.881 88.352L130.274 90.3132L129.881 88.352ZM125.401 88.968L125.252 86.9736L125.246 86.974L125.401 88.968ZM117.729 88.184L118.545 86.358L118.459 86.3196L118.37 86.2894L117.729 88.184ZM112.801 83.088L110.88 83.6431L110.883 83.6523L112.801 83.088ZM114.425 71.328L116.244 72.1613L116.248 72.1523L116.252 72.1433L114.425 71.328ZM118.849 64.608L120.378 65.8977L120.381 65.8937L118.849 64.608ZM124.729 60.072L125.521 61.9086L125.524 61.9074L124.729 60.072ZM132.569 58.56L132.515 60.5593L132.518 60.5593L132.569 58.56ZM138.617 62.368L140.456 61.5802L140.447 61.5602L140.438 61.5404L138.617 62.368ZM138.953 67.856L140.916 68.239L140.926 68.1891L140.933 68.1388L138.953 67.856ZM136.601 74.352L138.172 75.5897L138.181 75.5784L138.19 75.5669L136.601 74.352ZM128.929 68.864L130.845 68.2893L130.503 67.1479L129.336 66.9057L128.929 68.864ZM124.281 72.224L126.089 73.0802L126.107 73.0417L126.124 73.0024L124.281 72.224ZM123.497 74.464L121.552 74.0008L121.031 76.1876L123.264 76.4503L123.497 74.464ZM127.529 72.336L129.013 73.6778L129.044 73.6433L129.073 73.6074L127.529 72.336ZM128.705 70.432L130.555 71.1935L130.562 71.1753L130.569 71.1569L128.705 70.432ZM131.321 75.9045C130.703 76.1975 130.119 76.4164 129.57 76.569L130.641 80.423C131.436 80.2022 132.234 79.8984 133.034 79.5195L131.321 75.9045ZM129.57 76.569C128.951 76.741 128.211 76.9177 127.346 77.098L128.161 81.014C129.088 80.821 129.916 80.6243 130.641 80.423L129.57 76.569ZM127.349 77.0973C125.002 77.5816 123.417 77.8367 122.515 77.9011L122.8 81.8909C123.989 81.806 125.801 81.5011 128.158 81.0147L127.349 77.0973ZM120.742 80.4707C120.977 81.2559 121.545 81.7799 121.912 82.0737C122.336 82.4126 122.855 82.7244 123.417 83.0155L125.258 79.4645C124.812 79.2329 124.547 79.0594 124.411 78.9503C124.345 78.8975 124.344 78.8873 124.373 78.9235C124.4 78.9557 124.503 79.0886 124.573 79.3213L120.742 80.4707ZM124.009 83.2128C125.103 83.3952 126.194 83.2249 127.233 82.829L125.809 79.091C125.281 79.2924 124.916 79.3088 124.666 79.2672L124.009 83.2128ZM127.279 82.8111C128.042 82.4988 128.824 82.2209 129.624 81.9773L128.459 78.1507C127.542 78.4298 126.643 78.7492 125.764 79.1089L127.279 82.8111ZM129.674 81.9614C130.42 81.7126 131.096 81.5858 131.708 81.5579L131.527 77.5621C130.496 77.6089 129.455 77.8181 128.409 78.1666L129.674 81.9614ZM131.704 81.5581C131.951 81.5474 132.26 81.6135 132.688 81.9986L135.363 79.0254C134.298 78.0665 133.001 77.498 131.531 77.5619L131.704 81.5581ZM132.198 81.3243C132.365 81.7007 132.542 82.0581 132.731 82.3627C132.873 82.5915 133.19 83.0825 133.724 83.403L135.782 79.973C135.895 80.0404 135.975 80.1066 136.024 80.1514C136.075 80.1973 136.108 80.2345 136.125 80.2546C136.157 80.2916 136.158 80.3001 136.132 80.2573C136.108 80.2181 136.071 80.1535 136.021 80.0566C135.973 79.9609 135.917 79.8428 135.853 79.6997L132.198 81.3243ZM133.724 83.403C134.088 83.6213 134.616 83.856 135.257 83.856V79.856C135.433 79.856 135.569 79.8889 135.652 79.9166C135.734 79.9439 135.778 79.9703 135.782 79.973L133.724 83.403ZM135.257 83.856C135.081 83.856 134.946 83.8231 134.863 83.7954C134.781 83.7681 134.737 83.7417 134.732 83.739L136.79 80.309C136.427 80.0907 135.899 79.856 135.257 79.856V83.856ZM134.732 83.739C134.607 83.6638 134.52 83.5897 134.471 83.5441C134.421 83.4967 134.389 83.4595 134.375 83.4426C134.349 83.412 134.354 83.413 134.389 83.4699C134.459 83.5841 134.569 83.7943 134.722 84.1327L138.369 82.4913C138.186 82.0831 137.998 81.7052 137.806 81.3901C137.673 81.1714 137.345 80.6418 136.79 80.309L134.732 83.739ZM134.757 84.2064C134.778 84.2499 134.777 84.2611 134.774 84.2427C134.772 84.2337 134.77 84.2195 134.77 84.2011C134.769 84.1827 134.77 84.163 134.773 84.1431C134.775 84.1233 134.779 84.1065 134.783 84.0936C134.787 84.0808 134.79 84.0741 134.79 84.0739C134.79 84.0737 134.776 84.103 134.729 84.1596L137.802 86.7204C138.27 86.1586 138.632 85.4706 138.738 84.6649C138.845 83.8517 138.669 83.0869 138.334 82.4176L134.757 84.2064ZM134.687 84.2121C134.44 84.529 133.944 84.9347 133.006 85.3409L134.597 89.0111C135.899 88.4466 137.045 87.695 137.844 86.6679L134.687 84.2121ZM133.006 85.3409C132.043 85.7583 130.877 86.1134 129.489 86.3908L130.274 90.3132C131.873 89.9933 133.32 89.5643 134.597 89.0111L133.006 85.3409ZM129.489 86.3908C128.075 86.6738 126.662 86.8678 125.252 86.9736L125.551 90.9624C127.127 90.8442 128.702 90.6276 130.274 90.3132L129.489 86.3908ZM125.246 86.974C122.003 87.2263 119.845 86.9386 118.545 86.358L116.914 90.01C119.123 90.9974 122.08 91.2324 125.557 90.962L125.246 86.974ZM118.37 86.2894C116.439 85.6364 115.28 84.4278 114.72 82.5237L110.883 83.6523C111.816 86.8256 113.942 89.0143 117.089 90.0786L118.37 86.2894ZM114.723 82.5329C113.931 79.7905 114.309 76.3823 116.244 72.1613L112.607 70.4947C110.435 75.2337 109.731 79.6655 110.88 83.6431L114.723 82.5329ZM116.252 72.1433C117.086 70.2735 118.442 68.1921 120.378 65.8977L117.321 63.3183C115.225 65.8026 113.631 68.2011 112.599 70.5127L116.252 72.1433ZM120.381 65.8937C121.967 64.0042 123.684 62.7005 125.521 61.9086L123.938 58.2354C121.444 59.3102 119.241 61.0304 117.317 63.3223L120.381 65.8937ZM125.524 61.9074C127.757 60.9407 130.081 60.4926 132.515 60.5592L132.624 56.5607C129.607 56.4781 126.704 57.038 123.935 58.2366L125.524 61.9074ZM132.518 60.5593C133.695 60.5895 134.557 60.856 135.2 61.2605C135.833 61.6594 136.376 62.2696 136.797 63.1956L140.438 61.5404C139.739 60.0024 138.713 58.7459 137.331 57.8755C135.958 57.0107 134.356 56.6052 132.621 56.5607L132.518 60.5593ZM136.779 63.1558C137.128 63.9689 137.289 65.3674 136.974 67.5732L140.933 68.1388C141.29 65.6406 141.227 63.3805 140.456 61.5802L136.779 63.1558ZM136.99 67.473C136.406 70.4669 135.691 72.25 135.013 73.1371L138.19 75.5669C139.453 73.9153 140.306 71.3677 140.916 68.239L136.99 67.473ZM135.03 73.1143C134.297 74.0449 133.09 75.0024 131.27 75.9299L133.085 79.4941C135.222 78.4056 136.964 77.1231 138.172 75.5897L135.03 73.1143ZM129.336 66.9057C127.832 66.5936 126.37 66.8654 125.112 67.7752C123.927 68.6315 123.075 69.9414 122.439 71.4456L126.124 73.0024C126.608 71.8559 127.09 71.2805 127.455 71.0168C127.746 70.8066 128.048 70.7238 128.523 70.8223L129.336 66.9057ZM122.474 71.3678C122.077 72.2063 121.77 73.085 121.552 74.0008L125.443 74.9272C125.598 74.275 125.814 73.6604 126.089 73.0802L122.474 71.3678ZM123.264 76.4503C125.506 76.7141 127.445 75.4106 129.013 73.6778L126.046 70.9942C124.777 72.3974 124.028 72.5126 123.731 72.4777L123.264 76.4503ZM129.073 73.6074C129.698 72.8484 130.204 72.0446 130.555 71.1935L126.856 69.6705C126.684 70.0887 126.406 70.5543 125.986 71.0646L129.073 73.6074ZM130.569 71.1569C130.873 70.3775 131.156 69.324 130.845 68.2893L127.014 69.4387C126.962 69.2674 126.988 69.1826 126.978 69.2532C126.968 69.3196 126.935 69.4656 126.841 69.7071L130.569 71.1569ZM156.113 61.024L157.323 62.6164L157.332 62.6092L156.113 61.024ZM159.305 58.28L158.039 56.7321V56.7321L159.305 58.28ZM160.481 57.664L160.089 55.7028L160.089 55.7028L160.481 57.664ZM161.713 57.776L161.081 59.6734L161.171 59.7034L161.263 59.7248L161.713 57.776ZM163.001 58.112L162.426 60.0276L162.451 60.0349L162.475 60.0415L163.001 58.112ZM163.729 58.336L165.143 56.9218L164.914 56.6923L164.624 56.5471L163.729 58.336ZM164.737 59.96L162.873 60.6849V60.6849L164.737 59.96ZM164.793 62.536L163.193 61.336L163.026 61.5585L162.926 61.818L164.793 62.536ZM158.857 70.768L157.374 69.4258L157.363 69.4383L157.352 69.451L158.857 70.768ZM156.785 72.952L155.417 71.4929L154.513 72.3402L154.869 73.5267L156.785 72.952ZM157.513 77.376L155.52 77.5387L155.521 77.5559L155.523 77.5731L157.513 77.376ZM158.465 85.104L160.445 84.8212V84.8212L158.465 85.104ZM158.801 85.888L160.748 85.4299L160.658 85.0463L160.429 84.7255L158.801 85.888ZM158.185 87.4L157.076 85.7359L157.049 85.7538L157.023 85.7725L158.185 87.4ZM156.169 88.24L155.726 86.2897L155.715 86.2922L155.704 86.2948L156.169 88.24ZM151.801 88.408L150.601 90.008L150.924 90.2503L151.316 90.3483L151.801 88.408ZM150.513 86.728L152.377 86.0031L152.35 85.9345L152.319 85.8681L150.513 86.728ZM148.777 81.856L150.683 81.2496L149.636 77.9592L147.303 80.5046L148.777 81.856ZM147.601 83.2L149.138 84.4804L147.601 83.2ZM146.481 84.544L144.945 83.2636L144.906 83.3095L144.871 83.3576L146.481 84.544ZM145.697 85.608L147.297 86.808L147.302 86.8012L147.307 86.7944L145.697 85.608ZM145.025 86.504L143.425 85.304L143.374 85.372L143.329 85.444L145.025 86.504ZM144.353 87.456L145.858 88.773L145.896 88.7295L145.932 88.6839L144.353 87.456ZM142.001 89.304L142.756 91.1562L142.903 91.0962L143.039 91.0136L142.001 89.304ZM139.201 89.864L139.062 91.8592L139.088 91.861L139.114 91.8621L139.201 89.864ZM136.569 88.576L138.53 88.1838L138.306 87.0626L137.226 86.687L136.569 88.576ZM135.057 87.176L137.004 86.7179L137.001 86.7044L136.997 86.6909L135.057 87.176ZM135.337 84.264L133.584 83.3018L133.459 83.5283L133.397 83.7789L135.337 84.264ZM144.241 71.72L145.553 73.2292L146.859 72.0939L145.923 70.6385L144.241 71.72ZM143.457 69.312L145.428 68.9722L145.423 68.9424L145.417 68.9128L143.457 69.312ZM142.337 65.392L144.08 64.4115L143.674 63.6894L142.876 63.4661L142.337 65.392ZM140.321 63.936L142.052 62.9339L140.321 63.936ZM140.657 60.968L139.139 59.6664L138.978 59.8534L138.868 60.0736L140.657 60.968ZM141.329 60.184L139.993 58.6955L139.896 58.783L139.811 58.8824L141.329 60.184ZM145.809 57.832L145.48 55.8592L145.472 55.8605L145.809 57.832ZM150.121 58.952L148.899 60.5356L149.131 60.7139L149.403 60.8187L150.121 58.952ZM153.313 62.088L154.977 60.9786L154.972 60.9703L153.313 62.088ZM153.873 63.208L151.933 63.6931L152.952 67.7696L155.473 64.408L153.873 63.208ZM157.332 62.6092C158.306 61.8602 159.07 61.2318 159.543 60.7582L156.715 57.9298C156.442 58.2029 155.861 58.6944 154.894 59.4388L157.332 62.6092ZM159.543 60.7582C159.869 60.4321 160.212 60.122 160.572 59.8279L158.039 56.7321C157.577 57.11 157.135 57.5092 156.715 57.9298L159.543 60.7582ZM160.572 59.8279C160.823 59.622 160.922 59.6154 160.873 59.6252L160.089 55.7028C159.293 55.8619 158.608 56.266 158.039 56.7321L160.572 59.8279ZM160.873 59.6252C160.832 59.6333 160.884 59.6079 161.081 59.6734L162.346 55.8786C161.646 55.6454 160.876 55.5453 160.089 55.7028L160.873 59.6252ZM161.263 59.7248C161.718 59.8296 162.104 59.9309 162.426 60.0276L163.576 56.1963C163.152 56.0691 162.679 55.9464 162.163 55.8272L161.263 59.7248ZM162.475 60.0415C162.671 60.0951 162.811 60.1353 162.903 60.1636C162.949 60.1778 162.971 60.1853 162.976 60.187C162.978 60.1877 162.968 60.1843 162.95 60.1772C162.936 60.1716 162.893 60.154 162.835 60.1248L164.624 56.5471C164.413 56.4418 164.172 56.369 164.079 56.3404C163.928 56.294 163.742 56.2409 163.527 56.1825L162.475 60.0415ZM162.315 59.7502C162.488 59.9235 162.689 60.2107 162.873 60.6849L166.601 59.2351C166.263 58.3653 165.791 57.5698 165.143 56.9218L162.315 59.7502ZM162.873 60.6849C162.983 60.967 163.051 61.1831 163.091 61.3411C163.132 61.5072 163.129 61.5594 163.129 61.528H167.129C167.129 60.7709 166.884 59.9639 166.601 59.2351L162.873 60.6849ZM163.129 61.528C163.129 61.5114 163.132 61.4743 163.148 61.4275C163.163 61.3808 163.183 61.3493 163.193 61.336L166.393 63.736C166.877 63.0911 167.129 62.3341 167.129 61.528H163.129ZM162.926 61.818C162.325 63.3805 160.579 65.8855 157.374 69.4258L160.34 72.1102C163.556 68.5571 165.767 65.5742 166.66 63.254L162.926 61.818ZM157.352 69.451C156.594 70.3175 155.95 70.9932 155.417 71.4929L158.153 74.4111C158.815 73.7908 159.552 73.0105 160.362 72.085L157.352 69.451ZM154.869 73.5267C155.149 74.4591 155.376 75.7797 155.52 77.5387L159.506 77.2133C159.351 75.3136 159.093 73.6849 158.701 72.3773L154.869 73.5267ZM155.523 77.5731C155.889 81.2767 156.143 83.5795 156.28 84.2642L160.202 83.4798C160.115 83.0445 159.883 81.0166 159.503 77.1789L155.523 77.5731ZM156.28 84.2642C156.391 84.8196 156.456 85.1841 156.485 85.3868L160.445 84.8212C160.399 84.5012 160.315 84.0444 160.202 83.4798L156.28 84.2642ZM156.485 85.3868C156.577 86.0269 156.841 86.5842 157.174 87.0505L160.429 84.7255C160.408 84.697 160.408 84.691 160.415 84.7082C160.423 84.7265 160.437 84.7652 160.445 84.8212L156.485 85.3868ZM156.854 86.3461C156.855 86.3482 156.846 86.3104 156.849 86.2413C156.853 86.169 156.869 86.0802 156.907 85.9874C156.988 85.7893 157.102 85.7183 157.076 85.7359L159.294 89.0641C159.828 88.7083 160.325 88.1987 160.611 87.4966C160.9 86.7888 160.898 86.0696 160.748 85.4299L156.854 86.3461ZM157.023 85.7725C156.772 85.9517 156.365 86.1445 155.726 86.2897L156.612 90.1903C157.616 89.9622 158.553 89.595 159.348 89.0275L157.023 85.7725ZM155.704 86.2948C154.172 86.6611 153.063 86.662 152.286 86.4677L151.316 90.3483C152.928 90.7513 154.731 90.6403 156.634 90.1852L155.704 86.2948ZM153.001 86.808C152.691 86.5756 152.498 86.3144 152.377 86.0031L148.649 87.4529C149.051 88.4856 149.716 89.3444 150.601 90.008L153.001 86.808ZM152.319 85.8681C152.014 85.2278 151.474 83.7348 150.683 81.2496L146.871 82.4624C147.648 84.9052 148.266 86.6602 148.707 87.5879L152.319 85.8681ZM147.303 80.5046C146.872 80.9748 146.459 81.4465 146.065 81.9196L149.138 84.4804C149.49 84.0575 149.861 83.6332 150.251 83.2075L147.303 80.5046ZM146.065 81.9196C145.691 82.3676 145.318 82.8156 144.945 83.2636L148.018 85.8244C148.391 85.3764 148.764 84.9284 149.138 84.4804L146.065 81.9196ZM144.871 83.3576L144.087 84.4216L147.307 86.7944L148.091 85.7304L144.871 83.3576ZM144.097 84.408C143.873 84.7067 143.649 85.0053 143.425 85.304L146.625 87.704C146.849 87.4053 147.073 87.1067 147.297 86.808L144.097 84.408ZM143.329 85.444C143.185 85.6743 143.002 85.9354 142.774 86.2281L145.932 88.6839C146.227 88.3046 146.492 87.931 146.721 87.564L143.329 85.444ZM142.848 86.139C142.512 86.5228 141.917 87.0151 140.963 87.5944L143.039 91.0136C144.175 90.3236 145.149 89.5839 145.858 88.773L142.848 86.139ZM141.246 87.4518C140.436 87.7818 139.793 87.8878 139.288 87.8659L139.114 91.8621C140.326 91.9148 141.55 91.6475 142.756 91.1562L141.246 87.4518ZM139.34 87.8689C139.011 87.8459 138.754 87.8089 138.56 87.7664C138.362 87.7233 138.258 87.6809 138.218 87.6616C138.18 87.6428 138.239 87.6641 138.324 87.7612C138.419 87.8701 138.497 88.0195 138.53 88.1838L134.608 88.9682C134.838 90.1199 135.635 90.8507 136.46 91.2544C137.232 91.6324 138.147 91.7953 139.062 91.8592L139.34 87.8689ZM137.226 86.687C136.977 86.6004 136.901 86.5303 136.906 86.5345C136.911 86.5392 136.932 86.5605 136.956 86.6001C136.98 86.6405 136.996 86.6824 137.004 86.7179L133.11 87.6341C133.474 89.18 134.687 90.039 135.912 90.465L137.226 86.687ZM136.997 86.6909C137.001 86.7037 136.97 86.5665 137.006 86.1914C137.04 85.8366 137.124 85.3612 137.277 84.7491L133.397 83.7789C133.057 85.1372 132.836 86.539 133.117 87.6611L136.997 86.6909ZM137.09 85.2262C140.43 79.1403 143.259 75.2243 145.553 73.2292L142.929 70.2108C140.071 72.6957 136.964 77.1423 133.584 83.3018L137.09 85.2262ZM145.923 70.6385C145.804 70.4521 145.599 69.9625 145.428 68.9722L141.486 69.6518C141.689 70.8268 142.007 71.9425 142.559 72.8015L145.923 70.6385ZM145.417 68.9128C145.206 67.8771 144.998 66.9917 144.792 66.2706C144.596 65.5834 144.367 64.922 144.08 64.4115L140.594 66.3725C140.643 66.4593 140.769 66.7499 140.946 67.3694C141.113 67.955 141.298 68.7309 141.497 69.7112L145.417 68.9128ZM142.876 63.4661C142.347 63.3179 142.154 63.1104 142.052 62.9339L138.59 64.9381C139.309 66.1802 140.46 66.9434 141.798 67.3179L142.876 63.4661ZM142.052 62.9339C142.104 63.0242 142.066 63.0493 142.084 62.887C142.105 62.7017 142.193 62.3692 142.446 61.8624L138.868 60.0736C138.152 61.5061 137.655 63.322 138.59 64.9381L142.052 62.9339ZM142.176 62.2696L142.848 61.4856L139.811 58.8824L139.139 59.6664L142.176 62.2696ZM142.665 61.6725C143.913 60.5528 145.073 59.9867 146.146 59.8035L145.472 55.8605C143.484 56.2 141.658 57.2019 139.993 58.6955L142.665 61.6725ZM146.138 59.8048C147.134 59.6387 148.014 59.8525 148.899 60.5356L151.343 57.3684C149.615 56.0355 147.62 55.5026 145.48 55.8592L146.138 59.8048ZM149.403 60.8187C149.765 60.9577 150.537 61.5479 151.655 63.2057L154.972 60.9703C153.774 59.1934 152.419 57.693 150.839 57.0853L149.403 60.8187ZM151.649 63.1974C151.765 63.371 151.841 63.5036 151.888 63.5984C151.938 63.6974 151.941 63.7252 151.933 63.6931L155.813 62.7229C155.656 62.0949 155.323 61.4967 154.977 60.9786L151.649 63.1974ZM155.473 64.408C155.898 63.8417 156.501 63.2408 157.323 62.6163L154.903 59.4317C153.858 60.2258 152.968 61.0809 152.273 62.008L155.473 64.408ZM173.686 44.112L175.345 45.2288L175.541 44.9376L175.626 44.5971L173.686 44.112ZM173.742 43.888L172.327 42.4738L171.936 42.8655L171.801 43.4029L173.742 43.888ZM174.246 43.384L175.66 44.7982L175.936 44.5224L176.088 44.1633L174.246 43.384ZM175.59 41.648L175.04 39.7249L174.955 39.7494L174.872 39.7813L175.59 41.648ZM176.598 41.368L176.071 39.4385L176.071 39.4385L176.598 41.368ZM178.222 40.528L179.331 42.1921L179.773 41.8975L180.011 41.4224L178.222 40.528ZM179.846 39.856L179.665 41.8478L179.71 41.8519L179.755 41.8539L179.846 39.856ZM182.254 40.64L181.201 42.3405L181.248 42.3695L181.296 42.3958L182.254 40.64ZM184.214 42.544L182.492 43.5615L182.509 43.5899L182.526 43.6177L184.214 42.544ZM184.606 45.12L186.519 45.7023L186.522 45.6912L186.526 45.68L184.606 45.12ZM183.934 47.08L182.088 46.3108L182.07 46.3533L182.054 46.3965L183.934 47.08ZM183.43 48.256L181.641 47.3616L181.604 47.436L181.573 47.5132L183.43 48.256ZM182.814 49.544L181.053 48.5958L181.038 48.6225L181.025 48.6496L182.814 49.544ZM181.918 51.392L183.722 52.2549L183.723 52.2519L181.918 51.392ZM180.07 55.256L178.265 54.3931L178.231 54.4643L178.203 54.538L180.07 55.256ZM179.566 56.096L178.671 54.3071L178.56 54.3628L178.456 54.4319L179.566 56.096ZM179.23 56.488L177.515 55.459L175.12 59.4501L179.664 58.4404L179.23 56.488ZM180.742 56.208L180.459 54.2281L180.436 54.2314L180.413 54.2352L180.742 56.208ZM182.534 55.984L182.891 54.0163L182.604 53.9639L182.313 53.9962L182.534 55.984ZM186.006 56.488L185.244 58.3374L185.292 58.3569L185.34 58.374L186.006 56.488ZM187.238 57.72L185.329 58.3165V58.3166L187.238 57.72ZM187.294 59.568L189.234 60.0531L189.237 60.0396L189.241 60.0261L187.294 59.568ZM186.398 61.248L184.879 59.9464L186.398 61.248ZM184.662 62.088L184.557 60.0908L184.339 60.1022L184.13 60.16L184.662 62.088ZM177.718 63.544L177.61 61.5469L176.756 61.5931L176.199 62.2424L177.718 63.544ZM177.382 63.936L175.863 62.6344L175.382 63.1961V63.936H177.382ZM177.382 63.992L179.228 64.7612L179.382 64.392V63.992H177.382ZM176.15 67.408L174.247 66.791L174.242 66.8072L174.237 66.8236L176.15 67.408ZM174.75 71.832L172.848 71.2128L172.843 71.2267L172.839 71.2406L174.75 71.832ZM173.238 76.76L175.147 77.3541L175.151 77.3423L173.238 76.76ZM171.614 81.632L169.73 80.9593L169.725 80.9734L169.72 80.9875L171.614 81.632ZM167.694 90.2L168.588 91.9889L168.62 91.9729L168.651 91.9558L167.694 90.2ZM166.742 90.48L166.521 88.4922L166.387 88.5071L166.257 88.5397L166.742 90.48ZM166.238 90.648L166.124 92.6447L167.018 92.6959L167.652 92.0622L166.238 90.648ZM162.99 89.864L162.065 91.6372L162.99 89.864ZM161.254 88.576L159.636 89.7523L161.254 88.576ZM161.03 87.176L162.953 87.7254L162.999 87.562L163.018 87.3931L161.03 87.176ZM165.286 65.84L167.214 66.371L167.911 63.84H165.286V65.84ZM163.718 66.064L162.823 64.2751L162.8 64.2869L162.777 64.2993L163.718 66.064ZM161.702 66.568V68.568H161.749L161.797 68.5657L161.702 66.568ZM161.646 66.568L161.521 68.5641L161.583 68.568H161.646V66.568ZM160.022 65.728L158.556 67.0889L160.022 65.728ZM159.126 63.936L161.098 63.6072L159.126 63.936ZM159.462 61.864L161.269 62.7202L159.462 61.864ZM161.478 60.184L160.936 58.2587L160.828 58.2892L160.723 58.3318L161.478 60.184ZM164.11 59.344L164.852 61.201L164.863 61.1966L164.874 61.192L164.11 59.344ZM166.798 58.392L166.313 56.4517L166.301 56.4547L166.289 56.4578L166.798 58.392ZM168.03 58.056L168.924 59.8449L169.035 59.7892L169.139 59.7201L168.03 58.056ZM168.254 57.888L167.144 56.2239L166.98 56.3337L166.839 56.4738L168.254 57.888ZM169.094 57.776V59.776H170.722L171.052 58.1812L169.094 57.776ZM169.766 54.472L167.805 54.0798L169.766 54.472ZM170.606 51.056L172.526 51.6136L172.53 51.6025L172.533 51.5913L170.606 51.056ZM175.626 44.5971L175.682 44.3731L171.801 43.4029L171.745 43.6269L175.626 44.5971ZM175.156 45.3022L175.66 44.7982L172.831 41.9698L172.327 42.4738L175.156 45.3022ZM176.088 44.1633C176.252 43.7736 176.388 43.5538 176.471 43.4463C176.558 43.3339 176.518 43.4339 176.308 43.5147L174.872 39.7813C173.559 40.2862 172.838 41.5789 172.404 42.6047L176.088 44.1633ZM176.139 43.571C176.39 43.4995 176.717 43.4084 177.124 43.2975L176.071 39.4385C175.657 39.5515 175.312 39.6472 175.04 39.7249L176.139 43.571ZM177.124 43.2975C177.853 43.0988 178.611 42.6725 179.331 42.1921L177.112 38.8639C176.489 39.2795 176.164 39.4132 176.071 39.4385L177.124 43.2975ZM180.011 41.4224C179.976 41.4915 179.919 41.5763 179.832 41.6564C179.746 41.7364 179.658 41.7871 179.588 41.816C179.463 41.8678 179.453 41.8285 179.665 41.8478L180.027 37.8642C179.417 37.8088 178.725 37.8442 178.059 38.12C177.344 38.4156 176.78 38.9402 176.433 39.6336L180.011 41.4224ZM179.755 41.8539C180.196 41.874 180.671 42.0125 181.201 42.3405L183.306 38.9395C182.268 38.2968 181.138 37.9127 179.937 37.8581L179.755 41.8539ZM181.296 42.3958C181.794 42.6675 182.186 43.0442 182.492 43.5615L185.936 41.5265C185.271 40.4011 184.356 39.5085 183.211 38.8842L181.296 42.3958ZM182.526 43.6177C182.755 43.9772 182.778 44.2432 182.686 44.56L186.526 45.68C186.956 44.2048 186.718 42.7535 185.901 41.4702L182.526 43.6177ZM182.692 44.5377C182.437 45.3765 182.236 45.955 182.088 46.3108L185.78 47.8492C186.005 47.309 186.252 46.5809 186.519 45.7023L182.692 44.5377ZM182.054 46.3965C181.93 46.7385 181.792 47.0599 181.641 47.3616L185.219 49.1504C185.441 48.7055 185.639 48.2428 185.813 47.7635L182.054 46.3965ZM181.573 47.5132C181.46 47.796 181.29 48.1545 181.053 48.5958L184.575 50.4922C184.86 49.9628 185.101 49.4627 185.287 48.9988L181.573 47.5132ZM181.025 48.6496C180.792 49.1144 180.487 49.7436 180.112 50.5321L183.723 52.2519C184.095 51.4724 184.387 50.8696 184.603 50.4384L181.025 48.6496ZM180.113 50.5291L178.265 54.3931L181.874 56.1189L183.722 52.2549L180.113 50.5291ZM178.203 54.538C178.169 54.6269 178.14 54.6933 178.119 54.7406C178.096 54.7893 178.085 54.8064 178.089 54.801C178.09 54.7995 178.122 54.7452 178.191 54.6679C178.253 54.5979 178.409 54.4383 178.671 54.3071L180.46 57.8849C181.07 57.5798 181.395 57.0659 181.519 56.859C181.686 56.5796 181.823 56.2693 181.936 55.974L178.203 54.538ZM178.456 54.4319C177.992 54.7417 177.696 55.1572 177.515 55.459L180.945 57.517C180.957 57.4959 180.949 57.5129 180.916 57.5516C180.884 57.5887 180.807 57.6722 180.675 57.7601L178.456 54.4319ZM179.664 58.4404C179.98 58.3699 180.223 58.3221 180.398 58.2928L179.741 54.3472C179.469 54.3926 179.151 54.4567 178.796 54.5356L179.664 58.4404ZM180.398 58.2928C180.622 58.2555 180.846 58.2181 181.07 58.1808L180.413 54.2352C180.189 54.2725 179.965 54.3099 179.741 54.3472L180.398 58.2928ZM181.025 58.1879C181.522 58.1169 182.098 58.0447 182.755 57.9718L182.313 53.9962C181.626 54.0726 181.007 54.1498 180.459 54.2281L181.025 58.1879ZM182.176 57.9517C182.662 58.0401 183.142 58.096 183.598 58.096V54.096C183.456 54.096 183.227 54.0772 182.891 54.0163L182.176 57.9517ZM183.598 58.096H184.382V54.096H183.598V58.096ZM184.382 58.096C184.467 58.096 184.736 58.128 185.244 58.3374L186.767 54.6386C186.006 54.3253 185.192 54.096 184.382 54.096V58.096ZM185.34 58.374C185.382 58.3887 185.4 58.3994 185.402 58.4006C185.403 58.4012 185.392 58.3945 185.375 58.3782C185.359 58.3616 185.345 58.3432 185.335 58.3266C185.326 58.3106 185.325 58.305 185.329 58.3165L189.147 57.1235C188.756 55.8735 187.848 55.0174 186.671 54.602L185.34 58.374ZM185.329 58.3166C185.404 58.5574 185.418 58.8086 185.347 59.1099L189.241 60.0261C189.468 59.0581 189.445 58.0772 189.147 57.1235L185.329 58.3166ZM185.353 59.0829C185.288 59.3451 185.149 59.6314 184.879 59.9464L187.916 62.5496C188.542 61.8193 189.001 60.9856 189.234 60.0531L185.353 59.0829ZM184.879 59.9464C184.8 60.0389 184.739 60.0812 184.557 60.0908L184.767 64.0852C186.003 64.0202 187.1 63.5024 187.916 62.5496L184.879 59.9464ZM184.13 60.16C180.879 61.0567 178.752 61.4852 177.61 61.5469L177.826 65.5411C179.446 65.4535 181.948 64.9113 185.194 64.016L184.13 60.16ZM176.199 62.2424L175.863 62.6344L178.9 65.2376L179.236 64.8456L176.199 62.2424ZM175.382 63.936V63.992H179.382V63.936H175.382ZM175.536 63.2228C175.134 64.1866 174.705 65.3807 174.247 66.791L178.052 68.025C178.491 66.6726 178.883 65.5894 179.228 64.7612L175.536 63.2228ZM174.237 66.8236C173.83 68.1539 173.368 69.6168 172.848 71.2128L176.651 72.4512C177.177 70.8365 177.648 69.3501 178.062 67.9924L174.237 66.8236ZM172.839 71.2406C172.353 72.8119 171.848 74.4576 171.324 76.1777L175.151 77.3423C175.673 75.6277 176.176 73.9881 176.66 72.4234L172.839 71.2406ZM171.328 76.1659C170.813 77.821 170.28 79.4187 169.73 80.9593L173.497 82.3047C174.067 80.7093 174.617 79.059 175.147 77.3541L171.328 76.1659ZM169.72 80.9875C168.832 83.5962 168.083 85.5525 167.471 86.8899C167.164 87.5619 166.912 88.0296 166.719 88.3295C166.476 88.7067 166.468 88.5901 166.736 88.4442L168.651 91.9558C169.33 91.5859 169.793 90.9443 170.082 90.4955C170.421 89.9694 170.762 89.3101 171.108 88.5541C171.803 87.0355 172.603 84.9318 173.507 82.2765L169.72 80.9875ZM166.799 88.4111C166.714 88.4536 166.625 88.4806 166.521 88.4922L166.963 92.4678C167.53 92.4047 168.076 92.245 168.588 91.9889L166.799 88.4111ZM166.257 88.5397C166.088 88.5819 165.914 88.6289 165.759 88.6806C165.684 88.7058 165.577 88.7437 165.463 88.7958C165.41 88.8199 165.105 88.952 164.823 89.2338L167.652 92.0622C167.496 92.2179 167.351 92.3096 167.287 92.3481C167.211 92.3934 167.15 92.4226 167.118 92.4372C167.083 92.4532 167.057 92.4634 167.044 92.4681C167.037 92.4708 167.032 92.4726 167.029 92.4737C167.027 92.4743 167.026 92.4747 167.025 92.475C167.025 92.4752 167.024 92.4754 167.024 92.4754C167.024 92.4754 167.024 92.4753 167.025 92.475C167.026 92.4748 167.027 92.4745 167.028 92.4741C167.031 92.4732 167.035 92.4721 167.04 92.4706C167.05 92.4675 167.064 92.4634 167.081 92.4584C167.118 92.4483 167.166 92.4356 167.227 92.4203L166.257 88.5397ZM166.352 88.6513C165.234 88.5874 164.45 88.3701 163.915 88.0908L162.065 91.6372C163.247 92.2539 164.628 92.5593 166.124 92.6447L166.352 88.6513ZM163.915 88.0908C163.549 87.9 163.285 87.7348 163.103 87.5998C162.915 87.4597 162.863 87.3881 162.871 87.3997L159.636 89.7523C160.216 90.5494 161.137 91.1533 162.065 91.6372L163.915 88.0908ZM162.871 87.3997C162.893 87.4296 162.933 87.5016 162.949 87.602C162.964 87.6978 162.946 87.7477 162.953 87.7254L159.107 86.6266C158.802 87.6927 158.947 88.8049 159.636 89.7523L162.871 87.3997ZM163.018 87.3931C163.713 81.0237 165.108 74.0182 167.214 66.371L163.357 65.309C161.207 73.1178 159.765 80.3363 159.042 86.9589L163.018 87.3931ZM165.286 63.84C164.521 63.84 163.578 63.8979 162.823 64.2751L164.612 67.8529C164.542 67.8879 164.502 67.8978 164.51 67.8955C164.516 67.8938 164.549 67.8855 164.617 67.8759C164.755 67.8562 164.972 67.84 165.286 67.84V63.84ZM162.777 64.2993C162.532 64.4296 162.163 64.5438 161.607 64.5703L161.797 68.5657C162.808 68.5176 163.783 68.2957 164.659 67.8287L162.777 64.2993ZM161.702 64.568H161.646V68.568H161.702V64.568ZM161.77 64.5719C161.754 64.5709 161.739 64.5684 161.711 64.5536C161.676 64.5359 161.599 64.4876 161.487 64.3671L158.556 67.0889C159.319 67.9107 160.316 68.4888 161.521 68.5641L161.77 64.5719ZM161.487 64.3671C161.255 64.1172 161.143 63.8742 161.098 63.6072L157.153 64.2648C157.332 65.3418 157.817 66.2935 158.556 67.0889L161.487 64.3671ZM161.098 63.6072C161.063 63.3967 161.08 63.1185 161.269 62.7202L157.654 61.0078C157.171 62.0281 156.964 63.1313 157.153 64.2648L161.098 63.6072ZM161.269 62.7202C161.32 62.6122 161.507 62.3315 162.232 62.0362L160.723 58.3318C159.432 58.8578 158.275 59.6971 157.654 61.0078L161.269 62.7202ZM162.019 62.1093C163.227 61.7697 164.189 61.4664 164.852 61.201L163.367 57.487C162.91 57.6696 162.118 57.9263 160.936 58.2587L162.019 62.1093ZM164.874 61.192C165.917 60.7607 166.72 60.4805 167.307 60.3261L166.289 56.4578C165.457 56.6768 164.468 57.0313 163.345 57.496L164.874 61.192ZM167.283 60.3323C167.661 60.2378 167.966 60.1591 168.192 60.0975C168.304 60.0671 168.409 60.0373 168.499 60.0096C168.531 59.9997 168.732 59.9408 168.924 59.8449L167.135 56.2671C167.198 56.2357 167.248 56.2154 167.269 56.2069C167.294 56.1969 167.312 56.1903 167.32 56.1875C167.335 56.1822 167.338 56.1815 167.323 56.1864C167.291 56.196 167.233 56.2129 167.139 56.2385C166.955 56.2889 166.681 56.3596 166.313 56.4517L167.283 60.3323ZM169.139 59.7201C169.243 59.6506 169.473 59.4967 169.668 59.3022L166.839 56.4738C166.864 56.4496 166.884 56.4302 166.9 56.4163C166.916 56.4021 166.929 56.391 166.938 56.3831C166.957 56.3678 166.968 56.3591 166.97 56.358C166.972 56.3565 166.958 56.367 166.92 56.3919L169.139 59.7201ZM169.363 59.5521C169.252 59.6261 169.154 59.6736 169.085 59.7029C169.014 59.7328 168.957 59.7512 168.919 59.762C168.846 59.7827 168.805 59.7874 168.812 59.7865C168.829 59.7842 168.913 59.776 169.094 59.776V55.776C168.826 55.776 168.546 55.7865 168.283 55.8215C168.103 55.8456 167.608 55.9151 167.144 56.2239L169.363 59.5521ZM171.052 58.1812C171.277 57.0941 171.502 55.9884 171.727 54.8642L167.805 54.0798C167.581 55.1956 167.358 56.2926 167.135 57.3708L171.052 58.1812ZM171.727 54.8642C171.939 53.8029 172.205 52.7194 172.526 51.6136L168.685 50.4984C168.334 51.7073 168.04 52.9011 167.805 54.0798L171.727 54.8642ZM172.533 51.5913C173.233 49.0716 174.179 46.9615 175.345 45.2288L172.027 42.9952C170.579 45.1452 169.472 47.6644 168.679 50.5207L172.533 51.5913Z" fill="black" mask="url(#path-2-outside-1_273_16348)"/>
<defs>
<linearGradient id="paint0_linear_273_16348" x1="115.684" y1="5.99331" x2="131.263" y2="143.815" gradientUnits="userSpaceOnUse">
<stop stop-color="#482828"/>
<stop offset="1" stop-color="#3F333B"/>
</linearGradient>
<linearGradient id="paint1_linear_273_16348" x1="196.95" y1="206.563" x2="2.50125" y2="142.298" gradientUnits="userSpaceOnUse">
<stop stop-color="#7A5054"/>
<stop offset="1" stop-color="#A27270"/>
</linearGradient>
<linearGradient id="paint2_linear_273_16348" x1="172.393" y1="21.3461" x2="34.6615" y2="132.296" gradientUnits="userSpaceOnUse">
<stop stop-color="#5B4544"/>
<stop offset="1" stop-color="#895E61"/>
</linearGradient>
<linearGradient id="paint3_linear_273_16348" x1="185.07" y1="247.573" x2="-39.3181" y2="121.784" gradientUnits="userSpaceOnUse">
<stop stop-color="#C29E9B"/>
<stop offset="1" stop-color="#C4B4AE"/>
</linearGradient>
<linearGradient id="paint4_linear_273_16348" x1="128.162" y1="37.8826" x2="106.895" y2="108.48" gradientUnits="userSpaceOnUse">
<stop stop-color="#FBFBFC" stop-opacity="0.792157"/>
<stop offset="1" stop-color="#F9F9FB" stop-opacity="0.85098"/>
</linearGradient>
<linearGradient id="paint5_linear_273_16348" x1="60.9956" y1="128.026" x2="138.529" y2="-26.6598" gradientUnits="userSpaceOnUse">
<stop stop-color="#F08B4C"/>
<stop offset="1" stop-color="#894B2C"/>
</linearGradient>
</defs>
</svg>
