<svg width="261" height="144" viewBox="0 0 261 144" fill="none" xmlns="http://www.w3.org/2000/svg">
<path d="M0 0H126.873H147.641H260.493C260.731 0.378103 260.812 0.693828 260.833 1.13536C260.973 4.05216 260.863 7.0229 260.865 9.94419V26.5606C260.864 28.9919 261.22 35.4866 260.78 37.5672C260.742 37.7441 260.678 37.911 260.603 38.0747L260.593 38.6856C260.766 39.1045 260.828 39.4624 260.841 39.913C261.09 48.9106 260.983 142.936 260.683 143.667C260.633 143.788 260.569 143.894 260.493 144H0V0ZM126.873 0C126.852 0.622605 126.823 1.07499 127.09 1.65384C127.122 1.72472 127.149 1.7982 127.179 1.87022C127.26 2.06364 127.218 2.0802 127.144 2.28415C126.438 2.32323 125.688 2.31443 124.995 2.45873C120.116 2.42254 115.374 3.09511 110.534 3.54398C104.992 4.05799 99.4261 4.13646 93.8796 4.75769C89.6308 5.23354 85.4382 6.23954 81.1887 6.76339C73.3446 7.73034 57.5279 8.27575 51.133 11.8822L50.5125 12.2302C52.8132 15.222 56.5235 33.8699 56.5952 38.6899L56.8166 39.0283C56.4698 40.1011 55.4244 44.9796 55.7594 45.8719C56.4423 46.4277 57.7811 46.5369 57.8727 47.5315C57.959 48.47 56.487 52.7183 56.1649 53.9508C54.0103 62.1958 52.1633 70.7983 54.922 79.1661C55.5195 80.9785 56.3933 83.0359 57.8261 84.3567C58.4198 84.9046 59.1714 85.3639 59.8343 85.8273C61.4936 87.2268 63.1704 88.8621 64.9829 90.0521C69.6867 93.1415 75.0367 94.277 80.3854 95.6748C82.6183 96.2582 84.8215 96.9592 87.0545 97.5393C86.5278 96.792 84.6539 94.608 84.6985 93.8177C88.4842 97.8521 92.6719 101.127 97.0132 104.531C99.4261 106.423 101.851 108.502 104.557 109.962C109.146 111.18 113.454 113.022 118.147 113.994C121.896 114.78 125.673 115.405 129.476 115.868C132.686 116.268 135.978 116.53 139.151 117.146C141.059 116.754 142.999 116.391 144.805 115.644C147.503 114.24 150.079 112.949 153.142 112.595C160.361 111.495 170.102 102.766 174.679 97.421C177.34 94.3142 186.551 81.3128 186.266 77.6062L186.863 77.4322L187.138 77.6474C187.385 78.5918 187.062 79.6806 186.863 80.6125C185.84 85.4069 183.803 89.5217 181.353 93.7299C177.138 100.97 170.355 106.996 163.25 111.288C160.326 113.054 157.235 114.56 154.235 116.191C152.093 117.357 149.576 119.397 147.247 120.012C156.327 119.886 166.92 119.395 175.667 116.949C185.291 114.257 195.226 104.064 200.024 95.4993C201.846 92.2452 203.611 88.9415 205.034 85.4897C207.844 78.6709 212.422 63.6312 213.261 56.4984C213.515 54.3386 213.553 52.0366 212.952 49.9279C211.558 45.0281 207.773 45.5244 204.112 43.4523C202.106 42.3173 201.76 40.6279 201.188 38.5591C201.287 38.5128 201.381 38.4637 201.471 38.4042C204.555 36.3861 209.882 22.08 210.66 18.1365C211.351 18.4832 211.598 18.8777 211.838 19.6059C212.262 20.8902 212.328 22.7626 211.731 23.997C212.1 25.3858 211.515 26.8922 210.825 28.0883C209.586 30.2374 207.822 31.9322 207.105 34.3652C213.84 36.1837 234.293 41.6732 237.815 47.8191C238.024 48.184 238.107 48.3964 238.074 48.8128C238.709 49.0882 239.428 49.4163 240.124 49.169C240.629 48.99 240.945 48.6542 241.177 48.1869C246.576 45.799 249.6 42.7086 253.579 38.5566C255.15 38.4679 256.706 38.3398 257.973 39.4716C258.559 39.9954 258.876 40.7046 259.167 41.4197C259.199 41.4002 259.231 41.3815 259.261 41.361C260.117 40.7887 260.416 39.6417 260.593 38.6856L260.603 38.0747C260.678 37.911 260.742 37.7441 260.78 37.5672C261.22 35.4866 260.864 28.9919 260.865 26.5606V9.94419C260.863 7.0229 260.973 4.05216 260.833 1.13536C260.812 0.693828 260.731 0.378103 260.493 0H147.641H126.873ZM0 0V144H260.493C260.569 143.894 260.633 143.788 260.683 143.667C260.983 142.936 261.09 48.9106 260.841 39.913C260.828 39.4624 260.766 39.1045 260.593 38.6856C260.416 39.6417 260.117 40.7887 259.261 41.361C259.231 41.3815 259.199 41.4002 259.167 41.4197C258.876 40.7046 258.559 39.9954 257.973 39.4716C256.706 38.3398 255.15 38.4679 253.579 38.5566C249.6 42.7086 246.576 45.799 241.177 48.1869C240.945 48.6542 240.629 48.99 240.124 49.169C239.428 49.4163 238.709 49.0882 238.074 48.8128C240.197 53.6091 237.437 85.0982 236.55 92.1559C236.268 94.2828 235.905 96.3956 235.462 98.4943C235.266 99.4386 234.801 100.625 234.792 101.561C232.677 102.175 230.463 104.296 229.077 105.924C229.839 106.492 230.813 107.249 230.959 108.253C230.963 108.282 230.962 108.311 230.964 108.341C230.855 108.967 230.689 109.35 230.142 109.738C230.062 109.795 229.979 109.848 229.895 109.898C230.344 111.088 229.885 112.526 229.389 113.638C227.711 117.401 222.94 121.634 222.423 125.57C222.409 125.676 222.419 125.632 222.385 125.731C221.669 126.459 219.532 127.108 218.532 127.508C212.228 130.026 205.483 131.593 198.961 133.438C185.512 137.241 172.078 139.627 158.207 141.226C151.98 141.943 145.601 142.778 139.346 143.078C136.987 143.185 134.628 143.259 132.267 143.301C129.907 143.343 127.546 143.352 125.185 143.328C122.825 143.305 120.465 143.249 118.105 143.16C115.746 143.071 113.388 142.95 111.032 142.796C108.677 142.642 106.324 142.455 103.973 142.236C101.622 142.018 99.2745 141.767 96.9306 141.482C94.5868 141.199 92.2473 140.883 89.9123 140.534C87.5773 140.186 85.2475 139.806 82.9229 139.393C80.598 138.98 78.2793 138.535 75.9668 138.058C73.6544 137.581 71.3489 137.073 69.0505 136.532C66.752 135.991 64.4613 135.419 62.1786 134.815C59.8958 134.211 57.6218 133.576 55.3566 132.91C53.0913 132.242 50.8356 131.545 48.5895 130.816C46.3434 130.086 44.1077 129.326 41.8825 128.536C39.6573 127.745 37.4434 126.924 35.2408 126.071C33.0382 125.219 30.8477 124.337 28.6693 123.425C27.7405 121.111 27.3786 118.554 27.1473 116.084C25.7785 117.022 24.6951 118.396 23.4909 119.534C22.7956 120.19 21.4466 121.593 20.4324 121.563C19.9094 120.91 19.8521 117.759 19.7404 116.825C17.146 116.642 14.0296 116.225 11.7808 114.825C10.3646 113.944 9.84149 113.019 9.47026 111.416C9.19034 109.018 8.82374 106.557 8.25506 104.209C7.74383 102.098 7.05027 100.004 6.6445 97.872C4.2127 91.8927 2.38973 72.0392 2.48671 64.9173C2.07458 62.629 2.14078 60.0634 1.9456 57.7315C1.74327 55.314 1.33025 52.9207 1.11893 50.5059C0.938127 48.4397 0.945037 46.333 0.899668 44.259C0.848205 43.4155 0.802526 42.5717 0.762631 41.7276C0.706861 40.4524 0.499758 39.0266 1.42546 38.0129C4.80531 34.1645 28.6923 23.5993 34.6486 21.0702C38.0576 19.6227 44.0845 17.518 46.9389 15.524C48.2173 14.5156 49.1892 13.1925 50.5125 12.2302L51.133 11.8822C57.5279 8.27575 73.3446 7.73034 81.1887 6.76339C85.4382 6.23954 89.6308 5.23354 93.8796 4.75769C99.4261 4.13646 104.992 4.05799 110.534 3.54398C115.374 3.09511 120.116 2.42254 124.995 2.45873C125.688 2.31443 126.438 2.32323 127.144 2.28415C127.218 2.0802 127.26 2.06364 127.179 1.87022C127.149 1.7982 127.122 1.72472 127.09 1.65384C126.823 1.07499 126.852 0.622605 126.873 0H0Z" fill="url(#paint0_linear_392_7034)"/>
<path d="M144.805 115.644C147.503 114.24 150.079 112.949 153.142 112.595C152.794 113.378 150.744 114.19 149.961 114.491C148.279 115.139 146.608 115.541 144.805 115.644Z" fill="#644A49"/>
<path d="M104.557 109.962C109.146 111.18 113.454 113.022 118.147 113.994C121.896 114.78 125.673 115.405 129.476 115.868C132.686 116.268 135.978 116.53 139.151 117.146C137.235 117.668 135.421 117.971 133.438 118.084C124.49 118.596 111.354 116.033 104.557 109.962Z" fill="#644A49"/>
<path d="M20.1741 50.2975C20.8926 50.331 22.6998 50.1112 23.1297 50.5521C23.2327 51.2467 23.2309 52.0241 23.4934 52.6762C23.6127 55.3826 23.236 58.2053 23.1711 60.9253C23.0768 64.8771 23.2783 68.8298 23.4972 72.7743C24.0199 82.1926 25.5945 91.5037 26.1499 100.906C20.753 103.539 16.2137 107.471 11.0223 110.416C11.0219 110.387 11.0204 110.358 11.0209 110.329C11.0822 106.303 20.4155 100.17 23.1977 97.4185L21.7633 68.4503C21.4555 62.5339 21.3869 56.087 20.1741 50.2975Z" fill="#7A6D7F"/>
<path d="M31.8528 104.862C35.304 106.477 38.7368 108.379 42.2826 109.755C46.7179 111.477 51.396 112.731 55.9587 114.072C64.1947 116.575 72.5313 118.676 80.9686 120.375C89.4059 122.074 97.905 123.364 106.466 124.246C112.315 124.79 118.155 124.816 124.014 125.11C123.521 126.766 123.062 128.162 121.433 129.04C119.639 130.005 117.399 129.99 115.464 130.617C111.283 130.518 107.024 129.808 102.861 129.369C76.9281 126.634 53.1838 119.81 29.3046 109.407C30.0718 107.853 30.9869 106.363 31.8528 104.862Z" fill="#B6908F"/>
<path d="M124.014 125.11C126.794 124.951 129.641 125.057 132.43 125.015C136.959 124.945 141.483 124.766 146.003 124.479C167.693 123.12 192.204 118.925 212.779 111.886C217.226 110.364 221.354 108.129 225.727 106.464C226.75 106.074 228.036 105.455 229.077 105.924C229.839 106.492 230.813 107.249 230.959 108.253C230.963 108.282 230.962 108.311 230.964 108.341C230.855 108.967 230.689 109.35 230.142 109.738C230.062 109.795 229.979 109.848 229.895 109.898C228.368 112.181 221.436 114.276 218.752 115.239C205.45 120.014 192.526 123.882 178.651 126.627C174.49 127.457 170.311 128.179 166.113 128.795C161.916 129.411 157.706 129.92 153.482 130.321C149.259 130.722 145.028 131.015 140.79 131.201C136.552 131.387 132.312 131.464 128.07 131.433C123.908 131.368 119.567 131.321 115.464 130.617C117.399 129.99 119.639 130.005 121.433 129.04C123.062 128.162 123.521 126.766 124.014 125.11Z" fill="url(#paint1_linear_392_7034)"/>
<path d="M1.42546 38.0129C4.80531 34.1645 28.6923 23.5993 34.6486 21.0702C38.0576 19.6227 44.0845 17.518 46.9389 15.524C46.1469 17.0153 45.3264 18.1927 44.1951 19.4456C46.1138 22.3287 52.9133 32.5134 52.3434 35.5529C52.2759 35.9134 51.9272 36.2394 51.6335 36.4315C51.4194 36.5714 51.1947 36.6978 50.9717 36.8228C44.5628 38.6069 38.7964 41.2236 33.0056 44.4978C29.946 46.2277 27.0013 48.1717 23.8189 49.6688L23.7671 49.6927C23.7009 50.6851 23.666 51.6961 23.4934 52.6762C23.2309 52.0241 23.2327 51.2467 23.1297 50.5521C22.6998 50.1112 20.8926 50.331 20.1741 50.2975C15.83 48.9943 2.94483 39.9468 1.24108 40.2718C0.522501 41.3218 1.59433 43.2549 0.942519 44.2038C0.929328 44.223 0.913949 44.2406 0.899668 44.259C0.848205 43.4155 0.802526 42.5717 0.762631 41.7276C0.706861 40.4524 0.499758 39.0266 1.42546 38.0129Z" fill="#92797B"/>
<path d="M1.42546 38.0129C4.80531 34.1645 28.6923 23.5993 34.6486 21.0702C38.0576 19.6227 44.0845 17.518 46.9389 15.524C46.1469 17.0153 45.3264 18.1927 44.1951 19.4456C46.1138 22.3287 52.9133 32.5134 52.3434 35.5529C52.2759 35.9134 51.9272 36.2394 51.6335 36.4315C51.4194 36.5714 51.1947 36.6978 50.9717 36.8228C49.695 35.6842 48.5291 33.1148 47.3531 31.672C45.0656 28.8651 42.3716 26.4818 39.7507 24.0037C33.3177 25.9134 26.9463 27.9985 20.793 30.699C15.7295 32.9212 10.9613 35.6418 5.7054 37.446C4.44671 37.8782 2.72478 38.5306 1.42546 38.0129Z" fill="#EBDED3"/>
<path d="M0.899668 44.259C0.913949 44.2406 0.929328 44.223 0.942519 44.2038C1.59433 43.2549 0.522501 41.3218 1.24108 40.2718C2.94483 39.9468 15.83 48.9943 20.1741 50.2975C21.3869 56.087 21.4555 62.5339 21.7633 68.4503L23.1977 97.4185C20.4155 100.17 11.0822 106.303 11.0209 110.329C11.0204 110.358 11.0219 110.387 11.0223 110.416C10.5816 110.907 10.0539 111.138 9.47026 111.416C9.19034 109.018 8.82374 106.557 8.25506 104.209C7.74383 102.098 7.05027 100.004 6.6445 97.872C4.2127 91.8927 2.38973 72.0392 2.48671 64.9173C2.07458 62.629 2.14078 60.0634 1.9456 57.7315C1.74327 55.314 1.33025 52.9207 1.11893 50.5059C0.938127 48.4397 0.945037 46.333 0.899668 44.259Z" fill="#284966"/>
<path d="M2.48671 64.9173C3.01684 65.3777 3.11012 65.7087 3.23926 66.3993C4.06595 70.8204 4.23792 75.4948 4.81589 79.9721C5.50602 85.3183 6.61204 90.6844 7.02966 96.0579C7.08067 96.7142 7.08178 97.2339 6.69377 97.7967C6.67674 97.8215 6.66092 97.8472 6.6445 97.872C4.2127 91.8927 2.38973 72.0392 2.48671 64.9173Z" fill="#B6908F"/>
<path d="M234.792 101.561C238.174 102.053 244.07 104.312 246.158 106.98C246.579 107.311 247.656 107.968 247.787 108.444C248.089 109.169 248.263 109.724 247.961 110.483C246.761 113.508 239.65 117.535 236.649 118.781C236.06 119.026 235.409 119.136 234.781 119.222C234.994 118.107 234.367 116.496 233.757 115.571C233.636 115.387 233.478 115.255 233.297 115.133C232.929 115.169 232.876 115.162 232.636 115.45C231.975 116.244 231.537 117.619 231.086 118.564C229.354 122.197 226.735 125.225 222.489 125.72C222.455 125.724 222.42 125.728 222.385 125.731C222.419 125.632 222.409 125.676 222.423 125.57C222.94 121.634 227.711 117.401 229.389 113.638C229.885 112.526 230.344 111.088 229.895 109.898C229.979 109.848 230.062 109.795 230.142 109.738C230.689 109.35 230.855 108.967 230.964 108.341C230.962 108.311 230.963 108.282 230.959 108.253C230.813 107.249 229.839 106.492 229.077 105.924C230.463 104.296 232.677 102.175 234.792 101.561Z" fill="#1C1618"/>
<path d="M253.579 38.5566C255.15 38.4679 256.706 38.3398 257.973 39.4716C258.559 39.9954 258.876 40.7046 259.167 41.4197C259.84 44.0607 259.167 49.9105 258.429 52.5835C257.954 54.2981 257.182 56.0399 256.922 57.796C256.49 60.7082 256.403 63.6872 256.015 66.6123C255.103 73.4858 250.447 103.729 247.833 108.367C247.819 108.393 247.802 108.419 247.787 108.444C247.656 107.968 246.579 107.311 246.158 106.98C244.07 104.312 238.174 102.053 234.792 101.561C234.801 100.625 235.266 99.4386 235.462 98.4943C235.905 96.3956 236.268 94.2828 236.55 92.1559C237.437 85.0982 240.197 53.6091 238.074 48.8128C238.709 49.0882 239.428 49.4163 240.124 49.169C240.629 48.99 240.945 48.6542 241.177 48.1869C246.576 45.799 249.6 42.7086 253.579 38.5566Z" fill="#644A49"/>
<path d="M238.074 48.8128C238.709 49.0882 239.428 49.4163 240.124 49.169C240.629 48.99 240.945 48.6542 241.177 48.1869C242.943 52.2636 241.23 94.7652 239.745 98.429C239.697 98.5481 239.645 98.6615 239.581 98.7741C242.175 99.8988 245.456 102.926 246.525 105.588C246.677 105.965 246.694 106.277 246.627 106.673L246.158 106.98C244.07 104.312 238.174 102.053 234.792 101.561C234.801 100.625 235.266 99.4386 235.462 98.4943C235.905 96.3956 236.268 94.2828 236.55 92.1559C237.437 85.0982 240.197 53.6091 238.074 48.8128Z" fill="#92797B"/>
<path d="M126.873 0H147.641H260.493C260.731 0.378103 260.812 0.693828 260.833 1.13536C260.973 4.05216 260.863 7.0229 260.865 9.94419V26.5606C260.864 28.9919 261.22 35.4866 260.78 37.5672C260.742 37.7441 260.678 37.911 260.603 38.0747L260.593 38.6856C260.416 39.6417 260.117 40.7887 259.261 41.361C259.231 41.3815 259.199 41.4002 259.167 41.4197C258.876 40.7046 258.559 39.9954 257.973 39.4716C256.706 38.3398 255.15 38.4679 253.579 38.5566C249.6 42.7086 246.576 45.799 241.177 48.1869C240.945 48.6542 240.629 48.99 240.124 49.169C239.428 49.4163 238.709 49.0882 238.074 48.8128C238.107 48.3964 238.024 48.184 237.815 47.8191C234.293 41.6732 213.84 36.1837 207.105 34.3652C207.822 31.9322 209.586 30.2374 210.825 28.0883C211.515 26.8922 212.1 25.3858 211.731 23.997C212.328 22.7626 212.262 20.8902 211.838 19.6059C211.598 18.8777 211.351 18.4832 210.66 18.1365C209.882 22.08 204.555 36.3861 201.471 38.4042C201.381 38.4637 201.287 38.5128 201.188 38.5591C201.76 40.6279 202.106 42.3173 204.112 43.4523C207.773 45.5244 211.558 45.0281 212.952 49.9279C213.553 52.0366 213.515 54.3386 213.261 56.4984C212.422 63.6312 207.844 78.6709 205.034 85.4897C203.611 88.9415 201.846 92.2452 200.024 95.4993C195.226 104.064 185.291 114.257 175.667 116.949C166.92 119.395 156.327 119.886 147.247 120.012C149.576 119.397 152.093 117.357 154.235 116.191C157.235 114.56 160.326 113.054 163.25 111.288C170.355 106.996 177.138 100.97 181.353 93.7299C183.803 89.5217 185.84 85.4069 186.863 80.6125C187.062 79.6806 187.385 78.5918 187.138 77.6474L186.863 77.4322L186.266 77.6062C186.551 81.3128 177.34 94.3142 174.679 97.421C170.102 102.766 160.361 111.495 153.142 112.595C150.079 112.949 147.503 114.24 144.805 115.644C142.999 116.391 141.059 116.754 139.151 117.146C135.978 116.53 132.686 116.268 129.476 115.868C125.673 115.405 121.896 114.78 118.147 113.994C113.454 113.022 109.146 111.18 104.557 109.962C101.851 108.502 99.4261 106.423 97.0132 104.531C92.6719 101.127 88.4842 97.8521 84.6985 93.8177C84.6539 94.608 86.5278 96.792 87.0545 97.5393C84.8215 96.9592 82.6183 96.2582 80.3854 95.6748C75.0367 94.277 69.6867 93.1415 64.9829 90.0521C63.1704 88.8621 61.4936 87.2268 59.8343 85.8273C59.1714 85.3639 58.4198 84.9046 57.8261 84.3567C56.3933 83.0359 55.5195 80.9785 54.922 79.1661C52.1633 70.7983 54.0103 62.1958 56.1649 53.9508C56.487 52.7183 57.959 48.47 57.8727 47.5315C57.7811 46.5369 56.4423 46.4277 55.7594 45.8719C55.4244 44.9796 56.4698 40.1011 56.8166 39.0283L56.5952 38.6899C56.5235 33.8699 52.8132 15.222 50.5125 12.2302L51.133 11.8822C57.5279 8.27575 73.3446 7.73034 81.1887 6.76339C85.4382 6.23954 89.6308 5.23354 93.8796 4.75769C99.4261 4.13646 104.992 4.05799 110.534 3.54398C115.374 3.09511 120.116 2.42254 124.995 2.45873C125.688 2.31443 126.438 2.32323 127.144 2.28415C127.218 2.0802 127.26 2.06364 127.179 1.87022C127.149 1.7982 127.122 1.72472 127.09 1.65384C126.823 1.07499 126.852 0.622605 126.873 0ZM147.641 0C147.96 0.325306 148.187 0.714921 148.485 1.03355C148.992 1.57493 150.909 1.82547 151.632 1.83209C152.41 1.83924 154.792 1.58682 155.324 2.05435C158.316 2.16612 175.133 4.10738 176.782 5.21663C183.125 5.96464 206.834 11.1278 210.461 15.6825C210.7 15.983 211.051 16.5272 211.084 16.9186L210.66 18.1365C211.351 18.4832 211.598 18.8777 211.838 19.6059C212.262 20.8902 212.328 22.7626 211.731 23.997C212.1 25.3858 211.515 26.8922 210.825 28.0883C209.586 30.2374 207.822 31.9322 207.105 34.3652C213.84 36.1837 234.293 41.6732 237.815 47.8191C238.024 48.184 238.107 48.3964 238.074 48.8128C238.709 49.0882 239.428 49.4163 240.124 49.169C240.629 48.99 240.945 48.6542 241.177 48.1869C246.576 45.799 249.6 42.7086 253.579 38.5566C255.15 38.4679 256.706 38.3398 257.973 39.4716C258.559 39.9954 258.876 40.7046 259.167 41.4197C259.199 41.4002 259.231 41.3815 259.261 41.361C260.117 40.7887 260.416 39.6417 260.593 38.6856L260.603 38.0747C260.678 37.911 260.742 37.7441 260.78 37.5672C261.22 35.4866 260.864 28.9919 260.865 26.5606V9.94419C260.863 7.0229 260.973 4.05216 260.833 1.13536C260.812 0.693828 260.731 0.378103 260.493 0H147.641ZM126.873 0C126.852 0.622605 126.823 1.07499 127.09 1.65384C127.122 1.72472 127.149 1.7982 127.179 1.87022C127.26 2.06364 127.218 2.0802 127.144 2.28415C126.438 2.32323 125.688 2.31443 124.995 2.45873C120.116 2.42254 115.374 3.09511 110.534 3.54398C104.992 4.05799 99.4261 4.13646 93.8796 4.75769C89.6308 5.23354 85.4382 6.23954 81.1887 6.76339C73.3446 7.73034 57.5279 8.27575 51.133 11.8822L50.5125 12.2302C52.8132 15.222 56.5235 33.8699 56.5952 38.6899C59.6646 36.3955 60.7191 30.079 62.4794 26.6965C81.4182 14.6282 121.521 13.7514 143.684 15.1783C151.498 15.7579 159.267 16.7082 166.99 18.0292C170.422 18.5902 173.915 19.0794 177.308 19.8366C183.315 21.1768 195.989 24.4185 199.539 30.0036C201.443 32.9968 200.1 36.1303 201.188 38.5591C201.287 38.5128 201.381 38.4637 201.471 38.4042C204.555 36.3861 209.882 22.08 210.66 18.1365L211.084 16.9186C211.051 16.5272 210.7 15.983 210.461 15.6825C206.834 11.1278 183.125 5.96464 176.782 5.21663C175.133 4.10738 158.316 2.16612 155.324 2.05435C154.792 1.58682 152.41 1.83924 151.632 1.83209C150.909 1.82547 148.992 1.57493 148.485 1.03355C148.187 0.714921 147.96 0.325306 147.641 0H126.873Z" fill="url(#paint2_linear_392_7034)"/>
<path d="M56.8166 39.0283L57.0842 38.9665C57.0419 40.2075 55.8358 45.007 56.1311 45.6392C56.7253 45.9339 57.7368 46.2578 58.0137 46.8941C58.3245 49.0778 57.1467 52.0169 56.5651 54.1217C53.9257 63.6746 52.2437 73.4144 56.8526 82.698C56.8531 81.8668 56.8266 81.1419 57.1751 80.3672L57.4452 80.2905C58.7867 81.6871 58.6381 84.2102 59.8343 85.8273C59.1714 85.3639 58.4198 84.9046 57.8261 84.3567C56.3933 83.0359 55.5195 80.9785 54.922 79.1661C52.1633 70.7983 54.0103 62.1958 56.1649 53.9508C56.487 52.7183 57.959 48.47 57.8727 47.5315C57.7811 46.5369 56.4423 46.4277 55.7594 45.8719C55.4244 44.9796 56.4698 40.1011 56.8166 39.0283Z" fill="#644A49"/>
<path d="M126.873 0H147.641C147.96 0.325306 148.187 0.714921 148.485 1.03355C148.992 1.57493 150.909 1.82547 151.632 1.83209C152.41 1.83924 154.792 1.58682 155.324 2.05435C158.316 2.16612 175.133 4.10738 176.782 5.21663C183.125 5.96464 206.834 11.1278 210.461 15.6825C210.7 15.983 211.051 16.5272 211.084 16.9186L210.66 18.1365C209.882 22.08 204.555 36.3861 201.471 38.4042C201.381 38.4637 201.287 38.5128 201.188 38.5591C200.1 36.1303 201.443 32.9968 199.539 30.0036C195.989 24.4185 183.315 21.1768 177.308 19.8366C173.915 19.0794 170.422 18.5902 166.99 18.0292C159.267 16.7082 151.498 15.7579 143.684 15.1783C121.521 13.7514 81.4182 14.6282 62.4794 26.6965C60.7191 30.079 59.6646 36.3955 56.5952 38.6899C56.5235 33.8699 52.8132 15.222 50.5125 12.2302L51.133 11.8822C57.5279 8.27575 73.3446 7.73034 81.1887 6.76339C85.4382 6.23954 89.6308 5.23354 93.8796 4.75769C99.4261 4.13646 104.992 4.05799 110.534 3.54398C115.374 3.09511 120.116 2.42254 124.995 2.45873C125.688 2.31443 126.438 2.32323 127.144 2.28415C127.218 2.0802 127.26 2.06364 127.179 1.87022C127.149 1.7982 127.122 1.72472 127.09 1.65384C126.823 1.07499 126.852 0.622605 126.873 0ZM126.873 0C126.852 0.622605 126.823 1.07499 127.09 1.65384C127.122 1.72472 127.149 1.7982 127.179 1.87022C127.26 2.06364 127.218 2.0802 127.144 2.28415C126.438 2.32323 125.688 2.31443 124.995 2.45873C120.116 2.42254 115.374 3.09511 110.534 3.54398C104.992 4.05799 99.4261 4.13646 93.8796 4.75769C89.6308 5.23354 85.4382 6.23954 81.1887 6.76339C73.3446 7.73034 57.5279 8.27575 51.133 11.8822C51.2334 11.9767 51.3383 12.0581 51.4571 12.1287C54.9121 14.179 73.4309 10.6058 77.7885 9.95909C92.151 7.82761 106.356 6.33436 120.877 6.09324C126.477 6.00534 132.075 6.05771 137.672 6.25036C143.094 6.45551 157.872 7.70334 162.607 6.414C162.965 6.31663 163.033 6.33068 163.21 6.01337C163.193 5.98794 163.177 5.96169 163.159 5.9371C162.383 4.89725 160.066 4.52394 158.851 4.32096C163.35 4.3967 171.208 6.96395 175.148 6.09212C175.738 5.96172 176.289 5.55382 176.782 5.21663C175.133 4.10738 158.316 2.16612 155.324 2.05435C154.792 1.58682 152.41 1.83924 151.632 1.83209C150.909 1.82547 148.992 1.57493 148.485 1.03355C148.187 0.714921 147.96 0.325306 147.641 0H126.873Z" fill="url(#paint3_linear_392_7034)"/>
<path d="M195.147 23.3787C196.204 23.0072 199.531 24.6324 200.796 24.9162C201.758 25.1319 203.018 25.3011 203.878 24.7133C204.447 24.3244 204.682 23.6714 204.806 23.0239C204.842 23.3 204.871 23.5828 204.845 23.8614C204.75 24.9178 204.234 26.1072 203.425 26.7929C203.428 26.8199 203.434 26.8468 203.434 26.874C203.451 27.826 202.301 29.2248 201.688 29.9217C201.726 29.4351 201.52 28.9075 201.304 28.4776C200.242 26.3705 197.335 24.1337 195.147 23.3787Z" fill="#92797B"/>
<path d="M72.9534 16.0481C77.33 15.7423 81.7793 15.8792 86.1629 15.9265C78.7676 17.7031 68.9809 19.762 62.3394 23.1737C59.7613 24.7405 59.4877 26.4369 58.0781 28.8931C57.6862 24.9434 56.6259 20.8937 55.8376 16.9966C61.5347 16.8276 67.2408 16.2324 72.9534 16.0481Z" fill="#92797B"/>
<path d="M126.873 0H147.641C147.96 0.325306 148.187 0.714921 148.485 1.03355C148.992 1.57493 150.909 1.82547 151.632 1.83209C152.41 1.83924 154.792 1.58682 155.324 2.05435C158.316 2.16612 175.133 4.10738 176.782 5.21663C176.289 5.55382 175.738 5.96172 175.148 6.09212C171.208 6.96395 163.35 4.3967 158.851 4.32096C160.066 4.52394 162.383 4.89725 163.159 5.9371C163.177 5.96169 163.193 5.98794 163.21 6.01337C163.033 6.33068 162.965 6.31663 162.607 6.414C157.872 7.70334 143.094 6.45551 137.672 6.25036C132.075 6.05771 126.477 6.00534 120.877 6.09324C106.356 6.33436 92.151 7.82761 77.7885 9.95909C73.4309 10.6058 54.9121 14.179 51.4571 12.1287C51.3383 12.0581 51.2334 11.9767 51.133 11.8822C57.5279 8.27575 73.3446 7.73034 81.1887 6.76339C85.4382 6.23954 89.6308 5.23354 93.8796 4.75769C99.4261 4.13646 104.992 4.05799 110.534 3.54398C115.374 3.09511 120.116 2.42254 124.995 2.45873C125.688 2.31443 126.438 2.32323 127.144 2.28415C127.218 2.0802 127.26 2.06364 127.179 1.87022C127.149 1.7982 127.122 1.72472 127.09 1.65384C126.823 1.07499 126.852 0.622605 126.873 0ZM126.873 0C126.852 0.622605 126.823 1.07499 127.09 1.65384C127.122 1.72472 127.149 1.7982 127.179 1.87022C127.26 2.06364 127.218 2.0802 127.144 2.28415C126.438 2.32323 125.688 2.31443 124.995 2.45873C127.139 2.63385 129.288 2.44605 131.436 2.5155C134.097 2.60153 147.237 3.76171 148.721 2.93289C150.71 2.96828 152.614 1.99775 155.324 2.05435C154.792 1.58682 152.41 1.83924 151.632 1.83209C150.909 1.82547 148.992 1.57493 148.485 1.03355C148.187 0.714921 147.96 0.325306 147.641 0H126.873Z" fill="#EBDED3"/>
<path d="M126.873 0H147.641C147.96 0.325306 148.187 0.714921 148.485 1.03355C148.992 1.57493 150.909 1.82547 151.632 1.83209C152.41 1.83924 154.792 1.58682 155.324 2.05435C152.614 1.99775 150.71 2.96828 148.721 2.93289C147.237 3.76171 134.097 2.60153 131.436 2.5155C129.288 2.44605 127.139 2.63385 124.995 2.45873C125.688 2.31443 126.438 2.32323 127.144 2.28415C127.218 2.0802 127.26 2.06364 127.179 1.87022C127.149 1.7982 127.122 1.72472 127.09 1.65384C126.823 1.07499 126.852 0.622605 126.873 0ZM126.873 0C126.852 0.622605 126.823 1.07499 127.09 1.65384C127.122 1.72472 127.149 1.7982 127.179 1.87022C127.26 2.06364 127.218 2.0802 127.144 2.28415C131.585 2.99892 135.346 -0.68144 140.728 0.16074C141.845 0.335457 142.905 0.865217 143.985 1.19409C145.054 1.51961 146.394 1.54222 147.353 2.0884L147.264 2.36921L146.298 2.77514L148.721 2.93289C150.71 2.96828 152.614 1.99775 155.324 2.05435C154.792 1.58682 152.41 1.83924 151.632 1.83209C150.909 1.82547 148.992 1.57493 148.485 1.03355C148.187 0.714921 147.96 0.325306 147.641 0H126.873Z" fill="url(#paint4_linear_392_7034)"/>
<path d="M126.873 0H147.641C147.96 0.325306 148.187 0.714921 148.485 1.03355C148.992 1.57493 150.909 1.82547 151.632 1.83209C152.41 1.83924 154.792 1.58682 155.324 2.05435C152.614 1.99775 150.71 2.96828 148.721 2.93289L146.298 2.77514L147.264 2.36921L147.353 2.0884C146.394 1.54222 145.054 1.51961 143.985 1.19409C142.905 0.865217 141.845 0.335457 140.728 0.16074C135.346 -0.68144 131.585 2.99892 127.144 2.28415C127.218 2.0802 127.26 2.06364 127.179 1.87022C127.149 1.7982 127.122 1.72472 127.09 1.65384C126.823 1.07499 126.852 0.622605 126.873 0Z" fill="#FEFDFE" fill-opacity="0.588235"/>
<path d="M211.084 16.9186C211.671 17.2322 214.756 18.3669 215.003 18.6414C225.734 20.7667 236.363 25.2046 246.187 29.9599C249.206 31.4215 252.121 33.2511 255.171 34.6092C256.759 34.7986 259.134 35.645 260.167 36.9523C260.398 37.2442 260.582 37.7012 260.603 38.0747L260.593 38.6856C260.416 39.6417 260.117 40.7887 259.261 41.361C259.231 41.3815 259.199 41.4002 259.167 41.4197C258.876 40.7046 258.559 39.9954 257.973 39.4716C256.706 38.3398 255.15 38.4679 253.579 38.5566C249.6 42.7086 246.576 45.799 241.177 48.1869C240.945 48.6542 240.629 48.99 240.124 49.169C239.428 49.4163 238.709 49.0882 238.074 48.8128C238.107 48.3964 238.024 48.184 237.815 47.8191C234.293 41.6732 213.84 36.1837 207.105 34.3652C207.822 31.9322 209.586 30.2374 210.825 28.0883C211.515 26.8922 212.1 25.3858 211.731 23.997C212.328 22.7626 212.262 20.8902 211.838 19.6059C211.598 18.8777 211.351 18.4832 210.66 18.1365L211.084 16.9186Z" fill="#92797B"/>
<path d="M210.086 31.8806C212.895 35.1512 231.99 38.3488 238.451 44.5331C238.87 44.9342 239.748 45.6127 239.895 46.1744C242.701 45.2528 248.716 39.8649 249.97 37.2775C250.142 36.9222 250.154 36.5824 250.093 36.1979C251.575 36.5889 252.65 37.3232 253.579 38.5566C249.6 42.7086 246.576 45.799 241.177 48.1869C240.945 48.6542 240.629 48.99 240.124 49.169C239.428 49.4163 238.709 49.0882 238.074 48.8128C238.107 48.3964 238.024 48.184 237.815 47.8191C234.293 41.6732 213.84 36.1837 207.105 34.3652L207.978 34.2692C208.966 33.6436 209.513 32.8741 210.086 31.8806Z" fill="#B6908F"/>
<path d="M211.084 16.9186C211.671 17.2322 214.756 18.3669 215.003 18.6414C225.734 20.7667 236.363 25.2046 246.187 29.9599C249.206 31.4215 252.121 33.2511 255.171 34.6092C256.759 34.7986 259.134 35.645 260.167 36.9523C260.398 37.2442 260.582 37.7012 260.603 38.0747L260.593 38.6856C260.416 39.6417 260.117 40.7887 259.261 41.361C259.231 41.3815 259.199 41.4002 259.167 41.4197C258.876 40.7046 258.559 39.9954 257.973 39.4716C256.706 38.3398 255.15 38.4679 253.579 38.5566C252.65 37.3232 251.575 36.5889 250.093 36.1979C249.943 35.5796 249.492 35.2286 249.068 34.766C246.439 32.3719 240.516 30.5712 237.114 29.0878C233.47 27.4985 229.953 25.6965 226.184 24.4005C223.656 23.531 221.127 22.8996 218.497 22.4311C218.52 22.5564 218.53 22.6792 218.511 22.8063C218.103 25.6321 212.445 30.1846 210.086 31.8806C209.513 32.8741 208.966 33.6436 207.978 34.2692L207.105 34.3652C207.822 31.9322 209.586 30.2374 210.825 28.0883C211.515 26.8922 212.1 25.3858 211.731 23.997C212.328 22.7626 212.262 20.8902 211.838 19.6059C211.598 18.8777 211.351 18.4832 210.66 18.1365L211.084 16.9186Z" fill="#EBDED3"/>
<path d="M211.084 16.9186C211.671 17.2322 214.756 18.3669 215.003 18.6414C215.222 19.5011 214.788 20.0309 214.347 20.7759C213.603 22.0304 212.932 23.1375 211.731 23.997C212.328 22.7626 212.262 20.8902 211.838 19.6059C211.598 18.8777 211.351 18.4832 210.66 18.1365L211.084 16.9186Z" fill="#70ACBC"/>
<path d="M255.171 34.6092C256.759 34.7986 259.134 35.645 260.167 36.9523C260.398 37.2442 260.582 37.7012 260.603 38.0747L260.593 38.6856C260.416 39.6417 260.117 40.7887 259.261 41.361C259.231 41.3815 259.199 41.4002 259.167 41.4197C258.876 40.7046 258.559 39.9954 257.973 39.4716C256.706 38.3398 255.15 38.4679 253.579 38.5566C252.65 37.3232 251.575 36.5889 250.093 36.1979C249.943 35.5796 249.492 35.2286 249.068 34.766C250.594 34.8887 252.385 36.1275 253.876 36.607C254.371 36.7663 254.912 36.9132 255.401 36.6651C255.714 35.9102 255.458 35.3447 255.171 34.6092Z" fill="#70ACBC"/>
<path d="M91.5542 29.4636C94.3262 28.4385 97.6884 28.2727 100.608 27.727C118.777 24.3304 146.287 22.2497 163.454 29.8975C172.842 34.0794 182.039 44.9215 185.683 54.4217C186.149 55.6342 186.604 56.887 186.843 58.1664C187.666 62.5897 188.032 73.6327 186.266 77.6062C186.551 81.3128 177.34 94.3142 174.679 97.421C170.102 102.766 160.361 111.495 153.142 112.595C150.079 112.949 147.503 114.24 144.805 115.644C142.999 116.391 141.059 116.754 139.151 117.146C135.978 116.53 132.686 116.268 129.476 115.868C125.673 115.405 121.896 114.78 118.147 113.994C113.454 113.022 109.146 111.18 104.557 109.962C101.851 108.502 99.4261 106.423 97.0132 104.531C92.6719 101.127 88.4842 97.8521 84.6985 93.8177C84.3353 92.9942 82.1398 90.9699 81.4033 90.0273C77.8014 85.416 75.6344 79.5531 74.6347 73.8162C72.5918 62.0931 76.3575 49.3185 83.2391 39.7947C85.8303 36.2089 89.0034 33.1112 91.5542 29.4636Z" fill="url(#paint5_linear_392_7034)"/>
<path d="M136.305 26.1646C140.207 25.5786 147.737 26.9812 151.596 28.2142C159.587 30.7679 165.555 35.3728 171.64 41.0141C173.833 43.0473 176.208 45.1328 177.594 47.8409C178.512 49.634 178.756 51.9416 179.269 53.888C180.648 59.1229 183.541 66.7778 181.799 72.1679C181.58 71.7622 181.901 69.5405 181.909 68.8879C181.939 66.6718 181.378 59.5221 179.93 58.0308C180.212 57.2051 179.59 55.4982 179.352 54.6435C178.543 51.7496 176.769 49.7116 175.114 47.3034C174.206 45.9828 173.821 44.3423 172.891 43.0322C169.985 38.9384 163.487 34.1721 159.11 31.7173C150.356 26.8079 139.428 25.2283 129.616 27.2435C127.404 27.6978 125.285 28.6394 123.115 29.2535C124.183 28.551 127.771 27.2809 128.989 27.0682C129.703 26.9432 130.449 27.009 131.167 26.8579C131.631 26.7604 132.031 26.4033 132.498 26.3595C133.719 26.245 135.004 26.4006 136.215 26.1821C136.245 26.1767 136.275 26.1704 136.305 26.1646Z" fill="#AD6945"/>
<path d="M131.131 35.8442C133.262 33.8343 136.061 32.9823 138.951 33.0779C148.277 33.3865 157.162 39.1619 163.332 45.8267C168.146 51.0276 171.802 58.1038 171.487 65.3934C171.469 65.8137 171.382 66.2342 171.21 66.619L171.08 66.7163C169.167 67.0287 157.555 63.7587 155.313 62.8711C155.271 62.7397 155.228 62.612 155.171 62.4862C154.328 60.6152 144.199 53.8896 141.912 53.0062C141.878 53.0093 141.844 53.0136 141.81 53.0158C140.564 53.0955 137.421 50.0288 136.449 49.2219C136.188 48.851 135.909 48.4471 135.715 48.0375C135.317 47.2031 135.828 46.1559 136.094 45.3499C135.958 44.2484 135.854 43.1275 135.597 42.0469C133.807 40.1122 132.244 38.2672 131.131 35.8442Z" fill="#EBDED3"/>
<path d="M136.094 45.3499C136.321 47.6472 138.137 49.9058 139.859 51.3208C140.54 51.8799 141.273 52.3965 141.912 53.0062C141.878 53.0093 141.844 53.0136 141.81 53.0158C140.564 53.0955 137.421 50.0288 136.449 49.2219C136.188 48.851 135.909 48.4471 135.715 48.0375C135.317 47.2031 135.828 46.1559 136.094 45.3499Z" fill="#FEA64D"/>
<path d="M136.449 49.2219C137.421 50.0288 140.564 53.0955 141.81 53.0158C141.844 53.0136 141.878 53.0093 141.912 53.0062C144.199 53.8896 154.328 60.6152 155.171 62.4862C155.228 62.612 155.271 62.7397 155.313 62.8711C157.555 63.7587 169.167 67.0287 171.08 66.7163L171.21 66.619C171.329 66.7323 171.433 66.8588 171.52 66.9985C171.608 67.1381 171.676 67.2865 171.726 67.4437C173.028 71.5399 170.75 78.4676 168.872 82.2259C166.95 86.0706 160.897 93.1233 157.392 95.5399C155.138 97.0932 152.233 98.3015 149.636 99.163C147.702 99.8052 145.641 100.418 143.623 100.706C141.81 100.965 133.245 101.068 131.831 100.353C132.368 100.074 134.493 100.559 135.232 100.594C138.638 100.753 142.077 100.852 145.436 100.151C146.788 99.869 153.31 97.8687 153.912 96.9526C153.769 96.6058 153.562 96.4908 153.261 96.2979C152.021 95.5026 150.629 94.5286 149.221 94.0916C148.241 93.787 147.172 93.7821 146.16 93.643C144.683 93.4403 142.872 91.3332 141.862 90.2491C139.976 88.2215 140.985 86.7319 140.255 85.9961C139.309 86.4596 138.182 87.3766 137.414 88.1048C136.957 88.5385 136.876 88.867 136.853 89.467C138.013 90.4055 140.091 90.2946 141.298 91.2488C142.288 92.0309 142.172 93.8673 143.279 94.483C144.267 95.0342 145.591 94.6229 146.634 95.093L146.363 95.2452C140.46 95.3313 143.34 93.2152 140.506 91.4408C139.245 90.6513 137.575 90.6149 136.28 89.7675C135.488 88.2778 140.095 85.1561 141.078 84.0819C141.935 83.1451 142.594 82.0892 142.976 80.8723C143.664 78.6734 144.074 73.8559 143.629 71.6069C143.408 70.4984 142.969 69.4135 142.612 68.343C141.753 65.7674 141.842 63.7932 142.144 61.1487L142.397 61.0704C142.645 61.5942 142.465 62.1885 142.399 62.7604C142.97 62.8711 144.446 63.3181 144.917 63.1106C144.93 62.7613 144.97 62.4929 144.743 62.1922C144.241 61.5279 143.25 60.9108 142.617 60.3433C141.612 59.4407 140.692 58.442 139.683 57.5427C137.274 55.3972 134.13 53.4233 133.274 50.1171C134.651 49.7113 136.689 52.1649 138.326 51.9828C138.08 50.9639 136.92 50.3167 136.449 49.2219Z" fill="#F88E61"/>
<mask id="path-2-outside-1_392_7034" maskUnits="userSpaceOnUse" x="83" y="40" width="79" height="54" fill="black">
<rect fill="white" x="83" y="40" width="79" height="54"/>
<path d="M92.72 64.776C92.0853 59.3627 91.824 54.9573 91.936 51.56C91.8613 49.9547 92.5147 48.424 93.896 46.968C95.2027 45.5867 96.5653 44.8213 97.984 44.672C99.552 44.56 100.56 45.4373 101.008 47.304C101.307 48.3493 101.68 49.5627 102.128 50.944C102.576 52.3253 103.005 53.7813 103.416 55.312C103.827 54.752 104.48 53.7627 105.376 52.344C106.272 50.9253 107.112 49.656 107.896 48.536C109.8 45.8107 111.48 43.9067 112.936 42.824C114.355 42.264 115.568 42.1147 116.576 42.376C117.621 42.6 118.368 42.9733 118.816 43.496C119.301 44.0187 119.488 44.784 119.376 45.792C119.301 48.144 117.509 51.84 114 56.88C113.179 58.0373 112.339 59.3813 111.48 60.912C110.659 62.4427 109.688 64.16 108.568 66.064C107.485 67.9307 106.44 69.7973 105.432 71.664C103.117 75.8827 101.307 79.896 100 83.704C100.037 83.6293 100.187 83.7227 100.448 83.984C100.709 84.208 100.952 84.544 101.176 84.992C101.773 86.112 101.717 87.0453 101.008 87.792C99.216 89.6587 96.9947 90.704 94.344 90.928C91.9173 91.1147 89.8267 90.6667 88.072 89.584C86.3173 88.576 85.7387 87.3253 86.336 85.832H86.168C86.9893 83.704 87.9227 81.7067 88.968 79.84C90.0133 77.936 91.096 75.976 92.216 73.96L94.736 69.48C94.1013 69.6293 93.5787 69.1813 93.168 68.136C92.8693 67.2773 92.72 66.1573 92.72 64.776ZM129.412 77.712C128.702 78.048 128.012 78.3093 127.34 78.496C126.668 78.6827 125.884 78.8693 124.988 79.056C122.636 79.5413 120.937 79.8213 119.892 79.896C120.004 80.2693 120.564 80.7173 121.572 81.24C122.244 81.352 122.972 81.2587 123.756 80.96C124.577 80.624 125.417 80.3253 126.276 80.064C127.172 79.7653 128.03 79.5973 128.852 79.56C129.71 79.5227 130.513 79.84 131.26 80.512C131.558 81.184 131.801 81.576 131.988 81.688C132.174 81.8 132.342 81.856 132.492 81.856C132.641 81.856 132.809 81.912 132.996 82.024C133.182 82.136 133.444 82.5653 133.78 83.312C134.153 84.0587 134.06 84.768 133.5 85.44C132.977 86.112 132.156 86.6907 131.036 87.176C129.916 87.6613 128.609 88.0533 127.116 88.352C125.622 88.6507 124.129 88.856 122.636 88.968C119.276 89.2293 116.718 88.968 114.964 88.184C112.425 87.3253 110.782 85.6267 110.036 83.088C109.065 79.728 109.606 75.808 111.66 71.328C112.593 69.2373 114.068 66.9973 116.084 64.608C117.838 62.5173 119.798 61.0053 121.964 60.072C124.465 58.9893 127.078 58.4853 129.804 58.56C132.716 58.6347 134.732 59.904 135.852 62.368C136.412 63.6747 136.524 65.504 136.188 67.856C135.59 70.9173 134.806 73.0827 133.836 74.352C132.865 75.584 131.39 76.704 129.412 77.712ZM126.164 68.864C124.185 68.4533 122.636 69.5733 121.516 72.224C121.18 72.9333 120.918 73.68 120.732 74.464C122.001 74.6133 123.345 73.904 124.764 72.336C125.286 71.7013 125.678 71.0667 125.94 70.432C126.201 69.76 126.276 69.2373 126.164 68.864ZM153.515 87.344C152.059 88.5387 150.323 89.4347 148.307 90.032C146.329 90.6667 144.331 91.0027 142.315 91.04C140.299 91.0773 138.414 90.8347 136.659 90.312C134.905 89.7893 133.523 88.968 132.515 87.848C131.321 86.5787 130.91 85.3093 131.283 84.04C131.47 83.5173 131.806 83.1067 132.291 82.808C132.739 82.5093 133.299 82.4347 133.971 82.584C134.419 82.6213 134.737 82.5093 134.923 82.248C135.147 81.9493 135.334 81.632 135.483 81.296C135.633 80.9227 135.801 80.5867 135.987 80.288C136.174 79.952 136.473 79.784 136.883 79.784C143.454 79.9707 146.87 79.392 147.131 78.048C146.683 77.6373 146.123 77.2827 145.451 76.984C144.817 76.6853 144.163 76.3867 143.491 76.088C141.849 75.3413 140.747 74.52 140.187 73.624C139.478 73.2507 138.937 72.3547 138.563 70.936C138.377 70.3013 138.283 69.648 138.283 68.976C138.283 68.304 138.395 67.688 138.619 67.128C138.507 65.672 139.403 64.0667 141.307 62.312C141.83 61.8267 142.483 61.304 143.267 60.744C144.051 60.184 145.227 59.6427 146.795 59.12C148.363 58.5973 149.913 58.224 151.443 58C153.011 57.7387 154.411 57.6453 155.643 57.72C156.913 57.7947 157.809 58.0933 158.331 58.616C158.891 59.1387 159.321 59.792 159.619 60.576C159.955 61.36 160.067 62.1253 159.955 62.872C159.657 64.552 158.275 65.7093 155.811 66.344C152.713 66.792 151.219 67.2027 151.331 67.576C151.331 67.6507 151.201 67.744 150.939 67.856C153.814 69.8347 155.811 71.776 156.931 73.68C158.462 76.2933 158.686 79.2053 157.603 82.416C157.79 83.4613 156.857 84.768 154.803 86.336C154.318 86.7093 153.889 87.0453 153.515 87.344Z"/>
</mask>
<path d="M92.72 64.776C92.0853 59.3627 91.824 54.9573 91.936 51.56C91.8613 49.9547 92.5147 48.424 93.896 46.968C95.2027 45.5867 96.5653 44.8213 97.984 44.672C99.552 44.56 100.56 45.4373 101.008 47.304C101.307 48.3493 101.68 49.5627 102.128 50.944C102.576 52.3253 103.005 53.7813 103.416 55.312C103.827 54.752 104.48 53.7627 105.376 52.344C106.272 50.9253 107.112 49.656 107.896 48.536C109.8 45.8107 111.48 43.9067 112.936 42.824C114.355 42.264 115.568 42.1147 116.576 42.376C117.621 42.6 118.368 42.9733 118.816 43.496C119.301 44.0187 119.488 44.784 119.376 45.792C119.301 48.144 117.509 51.84 114 56.88C113.179 58.0373 112.339 59.3813 111.48 60.912C110.659 62.4427 109.688 64.16 108.568 66.064C107.485 67.9307 106.44 69.7973 105.432 71.664C103.117 75.8827 101.307 79.896 100 83.704C100.037 83.6293 100.187 83.7227 100.448 83.984C100.709 84.208 100.952 84.544 101.176 84.992C101.773 86.112 101.717 87.0453 101.008 87.792C99.216 89.6587 96.9947 90.704 94.344 90.928C91.9173 91.1147 89.8267 90.6667 88.072 89.584C86.3173 88.576 85.7387 87.3253 86.336 85.832H86.168C86.9893 83.704 87.9227 81.7067 88.968 79.84C90.0133 77.936 91.096 75.976 92.216 73.96L94.736 69.48C94.1013 69.6293 93.5787 69.1813 93.168 68.136C92.8693 67.2773 92.72 66.1573 92.72 64.776ZM129.412 77.712C128.702 78.048 128.012 78.3093 127.34 78.496C126.668 78.6827 125.884 78.8693 124.988 79.056C122.636 79.5413 120.937 79.8213 119.892 79.896C120.004 80.2693 120.564 80.7173 121.572 81.24C122.244 81.352 122.972 81.2587 123.756 80.96C124.577 80.624 125.417 80.3253 126.276 80.064C127.172 79.7653 128.03 79.5973 128.852 79.56C129.71 79.5227 130.513 79.84 131.26 80.512C131.558 81.184 131.801 81.576 131.988 81.688C132.174 81.8 132.342 81.856 132.492 81.856C132.641 81.856 132.809 81.912 132.996 82.024C133.182 82.136 133.444 82.5653 133.78 83.312C134.153 84.0587 134.06 84.768 133.5 85.44C132.977 86.112 132.156 86.6907 131.036 87.176C129.916 87.6613 128.609 88.0533 127.116 88.352C125.622 88.6507 124.129 88.856 122.636 88.968C119.276 89.2293 116.718 88.968 114.964 88.184C112.425 87.3253 110.782 85.6267 110.036 83.088C109.065 79.728 109.606 75.808 111.66 71.328C112.593 69.2373 114.068 66.9973 116.084 64.608C117.838 62.5173 119.798 61.0053 121.964 60.072C124.465 58.9893 127.078 58.4853 129.804 58.56C132.716 58.6347 134.732 59.904 135.852 62.368C136.412 63.6747 136.524 65.504 136.188 67.856C135.59 70.9173 134.806 73.0827 133.836 74.352C132.865 75.584 131.39 76.704 129.412 77.712ZM126.164 68.864C124.185 68.4533 122.636 69.5733 121.516 72.224C121.18 72.9333 120.918 73.68 120.732 74.464C122.001 74.6133 123.345 73.904 124.764 72.336C125.286 71.7013 125.678 71.0667 125.94 70.432C126.201 69.76 126.276 69.2373 126.164 68.864ZM153.515 87.344C152.059 88.5387 150.323 89.4347 148.307 90.032C146.329 90.6667 144.331 91.0027 142.315 91.04C140.299 91.0773 138.414 90.8347 136.659 90.312C134.905 89.7893 133.523 88.968 132.515 87.848C131.321 86.5787 130.91 85.3093 131.283 84.04C131.47 83.5173 131.806 83.1067 132.291 82.808C132.739 82.5093 133.299 82.4347 133.971 82.584C134.419 82.6213 134.737 82.5093 134.923 82.248C135.147 81.9493 135.334 81.632 135.483 81.296C135.633 80.9227 135.801 80.5867 135.987 80.288C136.174 79.952 136.473 79.784 136.883 79.784C143.454 79.9707 146.87 79.392 147.131 78.048C146.683 77.6373 146.123 77.2827 145.451 76.984C144.817 76.6853 144.163 76.3867 143.491 76.088C141.849 75.3413 140.747 74.52 140.187 73.624C139.478 73.2507 138.937 72.3547 138.563 70.936C138.377 70.3013 138.283 69.648 138.283 68.976C138.283 68.304 138.395 67.688 138.619 67.128C138.507 65.672 139.403 64.0667 141.307 62.312C141.83 61.8267 142.483 61.304 143.267 60.744C144.051 60.184 145.227 59.6427 146.795 59.12C148.363 58.5973 149.913 58.224 151.443 58C153.011 57.7387 154.411 57.6453 155.643 57.72C156.913 57.7947 157.809 58.0933 158.331 58.616C158.891 59.1387 159.321 59.792 159.619 60.576C159.955 61.36 160.067 62.1253 159.955 62.872C159.657 64.552 158.275 65.7093 155.811 66.344C152.713 66.792 151.219 67.2027 151.331 67.576C151.331 67.6507 151.201 67.744 150.939 67.856C153.814 69.8347 155.811 71.776 156.931 73.68C158.462 76.2933 158.686 79.2053 157.603 82.416C157.79 83.4613 156.857 84.768 154.803 86.336C154.318 86.7093 153.889 87.0453 153.515 87.344Z" fill="white"/>
<path d="M92.72 64.776H94.72V64.6592L94.7064 64.5431L92.72 64.776ZM91.936 51.56L93.9349 51.6259L93.9375 51.5465L93.9338 51.4671L91.936 51.56ZM93.896 46.968L95.3469 48.3445L95.3489 48.3424L93.896 46.968ZM97.984 44.672L97.8415 42.6771L97.808 42.6795L97.7746 42.683L97.984 44.672ZM101.008 47.304L99.0632 47.7707L99.0732 47.8123L99.085 47.8534L101.008 47.304ZM102.128 50.944L100.226 51.561L102.128 50.944ZM103.416 55.312L101.484 55.8303L102.564 59.8555L105.029 56.4947L103.416 55.312ZM105.376 52.344L107.067 53.412L107.067 53.412L105.376 52.344ZM107.896 48.536L109.534 49.6829L109.536 49.6814L107.896 48.536ZM112.936 42.824L112.202 40.9637L111.955 41.061L111.743 41.2191L112.936 42.824ZM116.576 42.376L116.074 44.312L116.115 44.3227L116.157 44.3316L116.576 42.376ZM118.816 43.496L117.297 44.7976L117.323 44.8278L117.35 44.8569L118.816 43.496ZM119.376 45.792L117.388 45.5711L117.38 45.6496L117.377 45.7285L119.376 45.792ZM114 56.88L115.631 58.0375L115.636 58.0302L115.641 58.0228L114 56.88ZM111.48 60.912L109.736 59.9335L109.727 59.9498L109.718 59.9664L111.48 60.912ZM108.568 66.064L106.844 65.0499L106.838 65.0606L108.568 66.064ZM105.432 71.664L107.185 72.6261L107.192 72.6143L105.432 71.664ZM100 83.704L98.1083 83.0549L101.789 84.5984L100 83.704ZM100.448 83.984L99.0338 85.3982L99.0881 85.4525L99.1464 85.5025L100.448 83.984ZM101.176 84.992L99.3871 85.8864L99.3989 85.91L99.4113 85.9332L101.176 84.992ZM101.008 87.792L102.451 89.1771L102.458 89.1695L101.008 87.792ZM94.344 90.928L94.4974 92.9221L94.5049 92.9215L94.5124 92.9209L94.344 90.928ZM88.072 89.584L89.1222 87.8819L89.0955 87.8654L89.0682 87.8498L88.072 89.584ZM86.336 85.832L88.193 86.5748L89.2901 83.832H86.336V85.832ZM86.168 85.832L84.3022 85.1118L83.2523 87.832H86.168V85.832ZM88.968 79.84L90.713 80.8172L90.7171 80.8099L90.7212 80.8025L88.968 79.84ZM92.216 73.96L90.4728 72.9795L90.4677 72.9887L92.216 73.96ZM94.736 69.48L96.4792 70.4605L98.7128 66.4897L94.2779 67.5332L94.736 69.48ZM93.168 68.136L91.279 68.793L91.292 68.8304L91.3065 68.8673L93.168 68.136ZM94.7064 64.5431C94.0773 59.1774 93.8276 54.8824 93.9349 51.6259L89.9371 51.4941C89.8204 55.0323 90.0934 59.5479 90.7336 65.0089L94.7064 64.5431ZM93.9338 51.4671C93.8905 50.5344 94.2411 49.5101 95.3469 48.3445L92.4451 45.5915C90.7882 47.3379 89.8322 49.3749 89.9382 51.6529L93.9338 51.4671ZM95.3489 48.3424C96.438 47.1911 97.3876 46.7458 98.1934 46.661L97.7746 42.683C95.743 42.8968 93.9674 43.9822 92.4431 45.5936L95.3489 48.3424ZM98.1265 46.6669C98.4808 46.6416 98.5705 46.7263 98.603 46.7546C98.6832 46.8244 98.8956 47.0723 99.0632 47.7707L102.953 46.8373C102.672 45.669 102.157 44.5449 101.229 43.7374C100.254 42.8883 99.0552 42.5904 97.8415 42.6771L98.1265 46.6669ZM99.085 47.8534C99.3918 48.9275 99.7725 50.1642 100.226 51.561L104.03 50.327C103.587 48.9612 103.222 47.7712 102.931 46.7546L99.085 47.8534ZM100.226 51.561C100.662 52.9069 101.082 54.3298 101.484 55.8303L105.348 54.7937C104.929 53.2329 104.49 51.7438 104.03 50.327L100.226 51.561ZM105.029 56.4947C105.485 55.8728 106.171 54.8306 107.067 53.412L103.685 51.276C102.789 52.6947 102.168 53.6312 101.803 54.1293L105.029 56.4947ZM107.067 53.412C107.95 52.0143 108.772 50.772 109.534 49.6829L106.258 47.3891C105.452 48.54 104.594 49.8364 103.685 51.276L107.067 53.412ZM109.536 49.6814C111.401 47.0113 112.934 45.3179 114.129 44.4289L111.743 41.2191C110.026 42.4954 108.199 44.61 106.256 47.3906L109.536 49.6814ZM113.67 44.6843C114.87 44.2107 115.626 44.1959 116.074 44.312L117.078 40.44C115.51 40.0334 113.839 40.3173 112.202 40.9637L113.67 44.6843ZM116.157 44.3316C116.996 44.5115 117.254 44.7464 117.297 44.7976L120.335 42.1944C119.482 41.2003 118.246 40.6885 116.995 40.4204L116.157 44.3316ZM117.35 44.8569C117.337 44.8427 117.356 44.8494 117.377 44.9359C117.402 45.0366 117.425 45.236 117.388 45.5711L121.364 46.0129C121.512 44.6788 121.308 43.2401 120.282 42.1351L117.35 44.8569ZM117.377 45.7285C117.353 46.4878 117.028 47.6993 116.176 49.4555C115.342 51.1756 114.08 53.2654 112.359 55.7372L115.641 58.0228C117.43 55.4546 118.818 53.1764 119.776 51.2005C120.716 49.2607 121.324 47.4482 121.375 45.8555L117.377 45.7285ZM112.369 55.7225C111.499 56.949 110.621 58.355 109.736 59.9335L113.224 61.8905C114.056 60.4077 114.859 59.1256 115.631 58.0375L112.369 55.7225ZM109.718 59.9664C108.911 61.4688 107.954 63.1628 106.844 65.05L110.292 67.078C111.422 65.1572 112.406 63.4165 113.242 61.8576L109.718 59.9664ZM106.838 65.0606C105.745 66.9445 104.69 68.8289 103.672 70.7137L107.192 72.6143C108.19 70.7658 109.225 68.9168 110.298 67.0674L106.838 65.0606ZM103.679 70.7019C101.319 75.0021 99.4584 79.1203 98.1083 83.0549L101.892 84.3531C103.155 80.6717 104.915 76.7633 107.185 72.626L103.679 70.7019ZM101.789 84.5984C101.629 84.9184 101.347 85.2563 100.914 85.4727C100.5 85.6796 100.109 85.6955 99.85 85.6696C99.4034 85.6249 99.1132 85.4347 99.08 85.414C98.9508 85.3332 98.92 85.2844 99.0338 85.3982L101.862 82.5698C101.715 82.4222 101.479 82.1961 101.2 82.022C101.092 81.9546 100.741 81.7387 100.248 81.6894C99.9657 81.6612 99.5549 81.68 99.1248 81.895C98.6756 82.1196 98.3805 82.4709 98.2112 82.8096L101.789 84.5984ZM99.1464 85.5025C99.1357 85.4934 99.1577 85.51 99.2046 85.575C99.2513 85.6396 99.3138 85.7398 99.3871 85.8864L102.965 84.0976C102.671 83.5106 102.283 82.9231 101.75 82.4655L99.1464 85.5025ZM99.4113 85.9332C99.5963 86.2801 99.5849 86.4231 99.5856 86.4122C99.5861 86.4035 99.5899 86.3844 99.5975 86.3679C99.6038 86.3539 99.6 86.3703 99.558 86.4145L102.458 89.1695C103.102 88.4916 103.519 87.6377 103.578 86.6518C103.635 85.7076 103.353 84.8239 102.941 84.0508L99.4113 85.9332ZM99.5652 86.4069C98.1202 87.9122 96.3566 88.7508 94.1756 88.9351L94.5124 92.9209C97.6327 92.6572 100.312 91.4052 102.451 89.1771L99.5652 86.4069ZM94.1906 88.9339C92.1075 89.0941 90.4551 88.7043 89.1222 87.8819L87.0218 91.2861C89.1983 92.629 91.7272 93.1352 94.4974 92.9221L94.1906 88.9339ZM89.0682 87.8498C88.3898 87.46 88.1885 87.1613 88.1371 87.0502C88.1178 87.0083 88.0614 86.9036 88.193 86.5748L84.479 85.0892C84.0133 86.2537 83.9476 87.521 84.5069 88.7298C85.0341 89.8694 85.9996 90.7 87.0758 91.3182L89.0682 87.8498ZM86.336 83.832H86.168V87.832H86.336V83.832ZM88.0338 86.5522C88.8233 84.5068 89.7169 82.5959 90.713 80.8172L87.223 78.8628C86.1284 80.8174 85.1554 82.9012 84.3022 85.1118L88.0338 86.5522ZM90.7212 80.8025C91.7648 78.9016 92.8458 76.9445 93.9643 74.9313L90.4677 72.9887C89.3462 75.0075 88.2619 76.9704 87.2148 78.8775L90.7212 80.8025ZM93.9592 74.9405L96.4792 70.4605L92.9928 68.4995L90.4728 72.9795L93.9592 74.9405ZM94.2779 67.5332C94.4053 67.5032 94.5838 67.4926 94.7808 67.5434C94.9737 67.5932 95.1036 67.681 95.1696 67.7375C95.2289 67.7883 95.2306 67.8082 95.193 67.748C95.1564 67.6894 95.0988 67.5812 95.0295 67.4047L91.3065 68.8673C91.5643 69.5234 91.9474 70.244 92.5664 70.7745C93.2806 71.3867 94.2159 71.657 95.1941 71.4268L94.2779 67.5332ZM95.057 67.479C94.8596 66.9113 94.72 66.0375 94.72 64.776H90.72C90.72 66.2772 90.8791 67.6434 91.279 68.793L95.057 67.479ZM129.412 77.712L130.268 79.5195L130.294 79.5071L130.32 79.4941L129.412 77.712ZM127.34 78.496L127.875 80.423L127.875 80.423L127.34 78.496ZM124.988 79.056L125.392 81.0147L125.396 81.014L124.988 79.056ZM119.892 79.896L119.749 77.9011L117.259 78.079L117.976 80.4707L119.892 79.896ZM121.572 81.24L120.651 83.0155L120.932 83.1609L121.243 83.2128L121.572 81.24ZM123.756 80.96L124.468 82.829L124.491 82.8203L124.513 82.8111L123.756 80.96ZM126.276 80.064L126.858 81.9773L126.883 81.9697L126.908 81.9614L126.276 80.064ZM128.852 79.56L128.765 77.5619L128.761 77.5621L128.852 79.56ZM131.26 80.512L133.087 79.6997L132.914 79.3104L132.598 79.0254L131.26 80.512ZM131.988 81.688L133.017 79.973L133.017 79.973L131.988 81.688ZM132.996 82.024L131.967 83.739L132.996 82.024ZM133.78 83.312L131.956 84.1327L131.973 84.1699L131.991 84.2064L133.78 83.312ZM133.5 85.44L131.963 84.1596L131.942 84.1855L131.921 84.2121L133.5 85.44ZM131.036 87.176L131.831 89.0111L131.831 89.0111L131.036 87.176ZM127.116 88.352L127.508 90.3132L127.508 90.3132L127.116 88.352ZM122.636 88.968L122.486 86.9736L122.481 86.974L122.636 88.968ZM114.964 88.184L115.78 86.358L115.694 86.3196L115.605 86.2894L114.964 88.184ZM110.036 83.088L108.114 83.6431L108.117 83.6523L110.036 83.088ZM111.66 71.328L113.478 72.1613L113.482 72.1523L113.486 72.1433L111.66 71.328ZM116.084 64.608L117.612 65.8977L117.616 65.8937L116.084 64.608ZM121.964 60.072L122.755 61.9086L122.758 61.9074L121.964 60.072ZM129.804 58.56L129.749 60.5593L129.753 60.5593L129.804 58.56ZM135.852 62.368L137.69 61.5802L137.682 61.5602L137.673 61.5404L135.852 62.368ZM136.188 67.856L138.151 68.239L138.161 68.1891L138.168 68.1388L136.188 67.856ZM133.836 74.352L135.407 75.5897L135.416 75.5784L135.425 75.5669L133.836 74.352ZM126.164 68.864L128.079 68.2893L127.737 67.1479L126.57 66.9057L126.164 68.864ZM121.516 72.224L123.323 73.0802L123.342 73.0417L123.358 73.0024L121.516 72.224ZM120.732 74.464L118.786 74.0008L118.266 76.1876L120.498 76.4503L120.732 74.464ZM124.764 72.336L126.247 73.6778L126.278 73.6433L126.308 73.6074L124.764 72.336ZM125.94 70.432L127.789 71.1935L127.797 71.1753L127.804 71.1569L125.94 70.432ZM128.556 75.9045C127.937 76.1975 127.354 76.4164 126.805 76.569L127.875 80.423C128.67 80.2022 129.468 79.8985 130.268 79.5195L128.556 75.9045ZM126.805 76.569C126.185 76.741 125.445 76.9177 124.58 77.098L125.396 81.014C126.322 80.821 127.15 80.6243 127.875 80.423L126.805 76.569ZM124.584 77.0973C122.237 77.5816 120.651 77.8367 119.749 77.9011L120.034 81.8909C121.223 81.806 123.035 81.5011 125.392 81.0147L124.584 77.0973ZM117.976 80.4707C118.212 81.2559 118.779 81.7799 119.146 82.0737C119.57 82.4126 120.09 82.7244 120.651 83.0155L122.492 79.4645C122.046 79.2329 121.782 79.0594 121.645 78.9503C121.579 78.8975 121.578 78.8873 121.608 78.9235C121.634 78.9557 121.738 79.0886 121.807 79.3213L117.976 80.4707ZM121.243 83.2128C122.338 83.3952 123.429 83.2249 124.468 82.829L123.044 79.091C122.515 79.2924 122.15 79.3088 121.901 79.2672L121.243 83.2128ZM124.513 82.8111C125.276 82.4988 126.058 82.2209 126.858 81.9773L125.693 78.1507C124.776 78.4298 123.878 78.7492 122.999 79.1089L124.513 82.8111ZM126.908 81.9614C127.655 81.7126 128.331 81.5858 128.943 81.5579L128.761 77.5621C127.73 77.6089 126.689 77.8181 125.643 78.1666L126.908 81.9614ZM128.939 81.5581C129.186 81.5474 129.494 81.6135 129.922 81.9986L132.598 79.0254C131.532 78.0665 130.235 77.498 128.765 77.5619L128.939 81.5581ZM129.432 81.3243C129.599 81.7007 129.777 82.0581 129.965 82.3627C130.107 82.5915 130.425 83.0825 130.959 83.403L133.017 79.973C133.129 80.0404 133.209 80.1066 133.259 80.1514C133.309 80.1973 133.343 80.2345 133.36 80.2546C133.391 80.2916 133.393 80.3001 133.366 80.2573C133.342 80.2181 133.305 80.1535 133.256 80.0566C133.207 79.9609 133.151 79.8428 133.087 79.6997L129.432 81.3243ZM130.959 83.403C131.323 83.6213 131.851 83.856 132.492 83.856V79.856C132.668 79.856 132.803 79.8889 132.886 79.9166C132.968 79.9439 133.012 79.9703 133.017 79.973L130.959 83.403ZM132.492 83.856C132.316 83.856 132.18 83.8231 132.097 83.7954C132.016 83.7681 131.971 83.7417 131.967 83.739L134.025 80.309C133.661 80.0907 133.133 79.856 132.492 79.856V83.856ZM131.967 83.739C131.842 83.6638 131.755 83.5897 131.706 83.5441C131.655 83.4967 131.623 83.4595 131.609 83.4426C131.584 83.412 131.589 83.413 131.623 83.4699C131.693 83.5841 131.804 83.7943 131.956 84.1327L135.604 82.4913C135.42 82.0831 135.232 81.7052 135.04 81.3901C134.907 81.1714 134.579 80.6418 134.025 80.309L131.967 83.739ZM131.991 84.2064C132.013 84.2499 132.012 84.2611 132.008 84.2427C132.007 84.2337 132.005 84.2195 132.004 84.2012C132.003 84.1827 132.004 84.163 132.007 84.1431C132.01 84.1233 132.013 84.1065 132.017 84.0936C132.021 84.0808 132.024 84.0741 132.024 84.0739C132.024 84.0737 132.011 84.103 131.963 84.1596L135.036 86.7204C135.504 86.1586 135.867 85.4706 135.973 84.6649C136.08 83.8517 135.903 83.0869 135.569 82.4176L131.991 84.2064ZM131.921 84.2121C131.675 84.529 131.178 84.9347 130.241 85.3409L131.831 89.0111C133.134 88.4466 134.28 87.695 135.079 86.6679L131.921 84.2121ZM130.241 85.3409C129.277 85.7583 128.111 86.1134 126.724 86.3908L127.508 90.3132C129.107 89.9933 130.554 89.5643 131.831 89.0111L130.241 85.3409ZM126.724 86.3908C125.309 86.6738 123.897 86.8678 122.486 86.9736L122.785 90.9624C124.362 90.8442 125.936 90.6276 127.508 90.3132L126.724 86.3908ZM122.481 86.974C119.237 87.2263 117.079 86.9386 115.78 86.358L114.148 90.01C116.358 90.9974 119.315 91.2324 122.791 90.962L122.481 86.974ZM115.605 86.2894C113.674 85.6364 112.515 84.4278 111.955 82.5237L108.117 83.6523C109.05 86.8256 111.177 89.0143 114.323 90.0786L115.605 86.2894ZM111.957 82.5329C111.165 79.7905 111.543 76.3823 113.478 72.1613L109.842 70.4947C107.67 75.2337 106.965 79.6655 108.114 83.6431L111.957 82.5329ZM113.486 72.1433C114.321 70.2735 115.677 68.1921 117.612 65.8977L114.555 63.3183C112.459 65.8026 110.865 68.2011 109.834 70.5127L113.486 72.1433ZM117.616 65.8937C119.202 64.0042 120.918 62.7005 122.755 61.9086L121.172 58.2354C118.679 59.3102 116.475 61.0304 114.552 63.3223L117.616 65.8937ZM122.758 61.9074C124.992 60.9407 127.315 60.4926 129.749 60.5592L129.859 56.5607C126.842 56.4781 123.939 57.038 121.169 58.2366L122.758 61.9074ZM129.753 60.5593C130.929 60.5895 131.792 60.856 132.434 61.2605C133.068 61.6594 133.61 62.2696 134.031 63.1956L137.673 61.5404C136.973 60.0024 135.948 58.7459 134.565 57.8755C133.192 57.0107 131.591 56.6052 129.855 56.5607L129.753 60.5593ZM134.014 63.1558C134.362 63.9689 134.523 65.3674 134.208 67.5732L138.168 68.1388C138.525 65.6406 138.462 63.3805 137.69 61.5802L134.014 63.1558ZM134.225 67.473C133.641 70.4669 132.925 72.25 132.247 73.1371L135.425 75.5669C136.687 73.9153 137.54 71.3677 138.151 68.239L134.225 67.473ZM132.265 73.1143C131.532 74.0449 130.325 75.0024 128.504 75.9299L130.32 79.4941C132.456 78.4056 134.199 77.1231 135.407 75.5897L132.265 73.1143ZM126.57 66.9057C125.066 66.5936 123.605 66.8654 122.346 67.7752C121.162 68.6315 120.309 69.9414 119.674 71.4456L123.358 73.0024C123.843 71.8559 124.325 71.2805 124.69 71.0168C124.98 70.8066 125.283 70.7238 125.757 70.8223L126.57 66.9057ZM119.708 71.3678C119.311 72.2063 119.004 73.085 118.786 74.0008L122.677 74.9272C122.833 74.275 123.048 73.6604 123.323 73.0802L119.708 71.3678ZM120.498 76.4503C122.74 76.7141 124.679 75.4106 126.247 73.6778L123.281 70.9942C122.011 72.3974 121.262 72.5126 120.965 72.4777L120.498 76.4503ZM126.308 73.6074C126.933 72.8484 127.439 72.0446 127.789 71.1935L124.09 69.6705C123.918 70.0887 123.64 70.5543 123.22 71.0646L126.308 73.6074ZM127.804 71.1569C128.107 70.3775 128.39 69.324 128.079 68.2893L124.248 69.4387C124.197 69.2674 124.222 69.1826 124.212 69.2532C124.202 69.3196 124.17 69.4656 124.076 69.7071L127.804 71.1569ZM153.515 87.344L152.266 85.7823L152.256 85.79L152.247 85.7979L153.515 87.344ZM148.307 90.032L147.739 88.1144L147.718 88.1207L147.697 88.1276L148.307 90.032ZM142.315 91.04L142.278 89.0403L142.315 91.04ZM136.659 90.312L136.088 92.2288L136.088 92.2288L136.659 90.312ZM132.515 87.848L134.002 86.5101L133.987 86.4935L133.972 86.4773L132.515 87.848ZM131.283 84.04L129.4 83.3673L129.381 83.421L129.365 83.4757L131.283 84.04ZM132.291 82.808L133.34 84.5113L133.371 84.4923L133.401 84.4721L132.291 82.808ZM133.971 82.584L133.538 84.5364L133.67 84.5658L133.805 84.5771L133.971 82.584ZM134.923 82.248L133.323 81.048L133.309 81.0666L133.296 81.0855L134.923 82.248ZM135.483 81.296L137.311 82.1083L137.326 82.0738L137.34 82.0388L135.483 81.296ZM135.987 80.288L137.683 81.348L137.711 81.3043L137.736 81.2593L135.987 80.288ZM136.883 79.784L136.94 77.7848L136.912 77.784H136.883V79.784ZM147.131 78.048L149.095 78.4297L149.308 77.3304L148.483 76.5737L147.131 78.048ZM145.451 76.984L144.6 78.7936L144.619 78.8028L144.639 78.8116L145.451 76.984ZM143.491 76.088L142.664 77.9087L142.671 77.9122L142.679 77.9156L143.491 76.088ZM140.187 73.624L141.883 72.564L141.597 72.1058L141.119 71.8542L140.187 73.624ZM138.563 70.936L140.498 70.427L140.49 70.3992L140.482 70.3717L138.563 70.936ZM138.619 67.128L140.476 67.8708L140.649 67.4387L140.614 66.9746L138.619 67.128ZM141.307 62.312L142.663 63.7827L142.668 63.7776L141.307 62.312ZM143.267 60.744L142.105 59.1165L142.105 59.1165L143.267 60.744ZM146.795 59.12L147.428 61.0174L147.428 61.0174L146.795 59.12ZM151.443 58L151.733 59.9789L151.753 59.976L151.772 59.9728L151.443 58ZM155.643 57.72L155.522 59.7163L155.526 59.7165L155.643 57.72ZM158.331 58.616L156.917 60.0302L156.942 60.0546L156.967 60.0781L158.331 58.616ZM159.619 60.576L157.75 61.288L157.765 61.3262L157.781 61.3638L159.619 60.576ZM159.955 62.872L161.925 63.2221L161.929 63.1954L161.933 63.1687L159.955 62.872ZM155.811 66.344L156.098 68.3234L156.205 68.3079L156.31 68.2808L155.811 66.344ZM151.331 67.576H153.331V67.2825L153.247 67.0013L151.331 67.576ZM150.939 67.856L150.152 66.0177L146.817 67.4467L149.805 69.5035L150.939 67.856ZM156.931 73.68L158.657 72.6692L158.655 72.666L156.931 73.68ZM157.603 82.416L155.708 81.7769L155.544 82.2628L155.635 82.7676L157.603 82.416ZM154.803 86.336L153.59 84.7465L153.584 84.7508L154.803 86.336ZM152.247 85.7979C151.02 86.8045 149.529 87.5841 147.739 88.1144L148.876 91.9496C151.118 91.2853 153.099 90.2728 154.784 88.8901L152.247 85.7979ZM147.697 88.1276C145.898 88.7045 144.094 89.0067 142.278 89.0403L142.352 93.0397C144.569 92.9986 146.76 92.6288 148.918 91.9364L147.697 88.1276ZM142.278 89.0403C140.447 89.0742 138.769 88.8535 137.23 88.3952L136.088 92.2288C138.059 92.8158 140.151 93.0804 142.352 93.0397L142.278 89.0403ZM137.23 88.3952C135.752 87.955 134.716 87.3031 134.002 86.5101L131.029 89.1859C132.331 90.6329 134.057 91.6237 136.088 92.2288L137.23 88.3952ZM133.972 86.4773C133.088 85.5379 133.092 84.9772 133.202 84.6043L129.365 83.4757C128.728 85.6415 129.554 87.6195 131.059 89.2187L133.972 86.4773ZM133.167 84.7127C133.196 84.6309 133.231 84.5784 133.34 84.5113L131.243 81.1047C130.382 81.6349 129.744 82.4038 129.4 83.3673L133.167 84.7127ZM133.401 84.4721C133.384 84.4836 133.363 84.494 133.343 84.5015C133.323 84.5089 133.311 84.5105 133.312 84.5105C133.314 84.5101 133.382 84.5019 133.538 84.5364L134.405 80.6316C133.358 80.3988 132.202 80.4642 131.182 81.1439L133.401 84.4721ZM133.805 84.5771C134.644 84.647 135.8 84.4611 136.551 83.4105L133.296 81.0855C133.453 80.8654 133.671 80.7158 133.88 80.642C134.061 80.578 134.17 80.5936 134.138 80.5909L133.805 84.5771ZM136.523 83.448C136.836 83.0309 137.1 82.5838 137.311 82.1083L133.656 80.4837C133.568 80.6802 133.459 80.8678 133.323 81.048L136.523 83.448ZM137.34 82.0388C137.452 81.7606 137.568 81.533 137.683 81.348L134.291 79.228C134.034 79.6404 133.814 80.0847 133.626 80.5532L137.34 82.0388ZM137.736 81.2593C137.672 81.3742 137.543 81.5344 137.332 81.6532C137.128 81.768 136.953 81.784 136.883 81.784V77.784C136.403 77.784 135.874 77.884 135.371 78.1668C134.861 78.4536 134.49 78.8658 134.239 79.3167L137.736 81.2593ZM136.827 81.7832C140.149 81.8776 142.802 81.7846 144.707 81.4619C145.649 81.3023 146.542 81.0658 147.271 80.6849C147.986 80.311 148.863 79.6187 149.095 78.4297L145.168 77.6663C145.269 77.1493 145.622 77.0333 145.417 77.1401C145.226 77.2399 144.805 77.3883 144.039 77.5181C142.528 77.774 140.189 77.8771 136.94 77.7848L136.827 81.7832ZM148.483 76.5737C147.846 75.9899 147.093 75.525 146.264 75.1564L144.639 78.8116C145.154 79.0403 145.521 79.2848 145.78 79.5223L148.483 76.5737ZM146.303 75.1744C145.655 74.8693 144.988 74.5646 144.304 74.2604L142.679 77.9156C143.339 78.2087 143.979 78.5014 144.6 78.7936L146.303 75.1744ZM144.319 74.2673C142.809 73.581 142.134 72.9653 141.883 72.564L138.491 74.684C139.361 76.0747 140.888 77.1017 142.664 77.9087L144.319 74.2673ZM141.119 71.8542C141.171 71.8815 141.1 71.8673 140.961 71.6378C140.82 71.4042 140.654 71.0195 140.498 70.427L136.629 71.445C137.037 72.9926 137.769 74.611 139.256 75.3938L141.119 71.8542ZM140.482 70.3717C140.35 69.9232 140.283 69.46 140.283 68.976H136.283C136.283 69.836 136.403 70.6795 136.645 71.5003L140.482 70.3717ZM140.283 68.976C140.283 68.5294 140.357 68.169 140.476 67.8708L136.762 66.3852C136.434 67.207 136.283 68.0786 136.283 68.976H140.283ZM140.614 66.9746C140.575 66.4701 140.877 65.4287 142.663 63.7827L139.952 60.8413C137.93 62.7046 136.44 64.8739 136.625 67.2814L140.614 66.9746ZM142.668 63.7776C143.111 63.3665 143.693 62.8978 144.43 62.3715L142.105 59.1165C141.274 59.7102 140.549 60.2868 139.947 60.8464L142.668 63.7776ZM144.43 62.3715C144.976 61.9812 145.934 61.5152 147.428 61.0174L146.163 57.2226C144.52 57.7701 143.127 58.3868 142.105 59.1165L144.43 62.3715ZM147.428 61.0174C148.892 60.5294 150.326 60.1848 151.733 59.9789L151.154 56.0211C149.499 56.2632 147.835 56.6653 146.163 57.2226L147.428 61.0174ZM151.772 59.9728C153.232 59.7295 154.477 59.653 155.522 59.7163L155.764 55.7237C154.346 55.6377 152.791 55.7478 151.115 56.0272L151.772 59.9728ZM155.526 59.7165C156.042 59.7469 156.4 59.8189 156.635 59.8974C156.868 59.975 156.928 60.0408 156.917 60.0302L159.746 57.2018C158.701 56.1574 157.196 55.8079 155.761 55.7235L155.526 59.7165ZM156.967 60.0781C157.283 60.3733 157.55 60.7617 157.75 61.288L161.488 59.864C161.092 58.8223 160.5 57.9041 159.696 57.1539L156.967 60.0781ZM157.781 61.3638C157.99 61.8518 158.028 62.2421 157.978 62.5753L161.933 63.1687C162.107 62.0086 161.921 60.8682 161.458 59.7882L157.781 61.3638ZM157.986 62.5219C157.888 63.0768 157.442 63.8587 155.313 64.4072L156.31 68.2808C159.109 67.5599 161.426 66.0272 161.925 63.2221L157.986 62.5219ZM155.525 64.3646C153.959 64.591 152.709 64.8198 151.837 65.0596C151.425 65.173 150.956 65.3253 150.561 65.5496C150.373 65.6562 150.043 65.866 149.769 66.228C149.448 66.653 149.176 67.3509 149.416 68.1507L153.247 67.0013C153.459 67.7077 153.209 68.3111 152.96 68.6405C152.759 68.9068 152.551 69.0197 152.536 69.0284C152.486 69.0567 152.563 69.0084 152.898 68.9164C153.519 68.7456 154.565 68.5449 156.098 68.3234L155.525 64.3646ZM149.331 67.576C149.331 66.9954 149.585 66.5923 149.728 66.4076C149.875 66.2195 150.018 66.1126 150.071 66.0745C150.179 65.9973 150.235 65.9822 150.152 66.0177L151.727 69.6943C151.906 69.6178 152.157 69.5 152.396 69.3295C152.515 69.2447 152.707 69.0935 152.886 68.8634C153.062 68.6366 153.331 68.1939 153.331 67.576H149.331ZM149.805 69.5035C152.564 71.4023 154.297 73.1457 155.208 74.694L158.655 72.666C157.326 70.4063 155.064 68.2671 152.073 66.2085L149.805 69.5035ZM155.206 74.6908C156.407 76.7419 156.631 79.0419 155.708 81.7769L159.499 83.0551C160.742 79.3687 160.517 75.8448 158.657 72.6692L155.206 74.6908ZM155.635 82.7676C155.594 82.5414 155.728 82.5805 155.416 83.0175C155.114 83.4407 154.542 84.0193 153.59 84.7465L156.017 87.9255C157.118 87.0847 158.04 86.2259 158.671 85.3425C159.292 84.4728 159.799 83.336 159.572 82.0644L155.635 82.7676ZM153.584 84.7508C153.091 85.1298 152.652 85.4738 152.266 85.7823L154.765 88.9057C155.126 88.6168 155.545 88.2889 156.023 87.9212L153.584 84.7508Z" fill="black" mask="url(#path-2-outside-1_392_7034)"/>
<defs>
<linearGradient id="paint0_linear_392_7034" x1="115.684" y1="5.99331" x2="131.263" y2="143.815" gradientUnits="userSpaceOnUse">
<stop stop-color="#482828"/>
<stop offset="1" stop-color="#3F333B"/>
</linearGradient>
<linearGradient id="paint1_linear_392_7034" x1="196.95" y1="206.563" x2="2.50125" y2="142.298" gradientUnits="userSpaceOnUse">
<stop stop-color="#7A5054"/>
<stop offset="1" stop-color="#A27270"/>
</linearGradient>
<linearGradient id="paint2_linear_392_7034" x1="172.393" y1="21.3461" x2="34.6615" y2="132.296" gradientUnits="userSpaceOnUse">
<stop stop-color="#5B4544"/>
<stop offset="1" stop-color="#895E61"/>
</linearGradient>
<linearGradient id="paint3_linear_392_7034" x1="185.07" y1="247.573" x2="-39.3181" y2="121.784" gradientUnits="userSpaceOnUse">
<stop stop-color="#C29E9B"/>
<stop offset="1" stop-color="#C4B4AE"/>
</linearGradient>
<linearGradient id="paint4_linear_392_7034" x1="128.162" y1="37.8826" x2="106.895" y2="108.48" gradientUnits="userSpaceOnUse">
<stop stop-color="#FBFBFC" stop-opacity="0.792157"/>
<stop offset="1" stop-color="#F9F9FB" stop-opacity="0.85098"/>
</linearGradient>
<linearGradient id="paint5_linear_392_7034" x1="60.9956" y1="128.026" x2="138.529" y2="-26.6598" gradientUnits="userSpaceOnUse">
<stop stop-color="#F08B4C"/>
<stop offset="1" stop-color="#894B2C"/>
</linearGradient>
</defs>
</svg>
