<svg width="1708" height="1752" viewBox="0 0 1708 1752" fill="none" xmlns="http://www.w3.org/2000/svg">
<g clip-path="url(#clip0_71_20357)">
<path d="M-834.5 -439H412.056H1900.79H2675.78C2677.32 -436.087 2678.25 -433.399 2678.5 -429.964C2681.55 -387.77 2678.93 -342.463 2678.89 -299.968C2678.89 -278.696 2681.61 -247.148 2678.31 -227.222C2677.94 -225.017 2677.34 -223.071 2676.47 -221.084C2680.14 -211.204 2680.8 -181.79 2677.36 -172.041C2677.13 -171.409 2676.88 -170.795 2676.65 -170.171C2680.84 -157.957 2680.76 -94.5939 2676.67 -83.7771C2676.53 -83.3762 2676.34 -82.9913 2676.18 -82.5972C2677.07 -78.5601 2677.15 -76.5118 2676.47 -72.4128C2678.13 -67.945 2678.58 -64.3272 2678.69 -59.5225C2679.81 -7.45049 2678.85 44.9217 2678.85 97.0327L2678.87 395.94C2678.87 437.415 2681.92 733.33 2677.15 748.36C2676.94 749.041 2676.71 749.717 2676.47 750.393C2680.64 761.643 2681.18 797.339 2677.46 809.226C2677.09 810.415 2677.05 810.47 2676.65 811.481C2678.19 817.82 2678.25 819.321 2677.01 825.75C2680.18 837.921 2681.01 867.285 2676.65 878.677C2677.73 881.834 2678.48 884.84 2678.6 888.256C2680.51 937.366 2680.51 1396.45 2677.36 1405.96C2676.99 1407.07 2676.9 1407.26 2676.47 1408.21C2677.9 1413.1 2677.9 1415.54 2676.47 1420.43C2677.88 1424.19 2678.54 1427.43 2678.65 1431.51C2680.08 1477.67 2680.86 1892.61 2677.73 1902.51C2677.21 1904.21 2676.59 1905.65 2675.78 1907.19H1673.1H-834.5V291.441V-439ZM1900.79 -439C1902.33 -431.66 1899.8 -426.399 1896.54 -419.946C1891.95 -410.871 1882.97 -394.013 1875.46 -388.715L1870.79 -393.29C1861.54 -386.406 1841.01 -330.906 1834.91 -325.798C1832.45 -323.757 1828.36 -324.081 1825.6 -321.55C1803.38 -301.18 1783.96 -279.161 1759.87 -261.316C1748.02 -252.361 1735.83 -244.116 1723.31 -236.582C1710.78 -229.047 1697.96 -222.26 1684.88 -216.218C1666.69 -207.71 1609.57 -192.224 1597.68 -180.587C1616.19 -181.943 1688.33 -188.595 1700.4 -176.426C1700.51 -176.312 1700.63 -176.186 1700.72 -176.067C1701.59 -174.687 1703.39 -172.54 1703.89 -171.028C1707.6 -159.921 1698.04 -89.638 1696.21 -73.3683C1695.53 -67.3562 1693.99 -61.3234 1691.9 -55.7902C1695.42 -44.2769 1695.57 -7.80789 1691.09 3.21277C1690.55 4.55083 1689.93 5.77204 1689.2 6.97263C1691.44 21.1116 1692.1 51.2569 1686.73 64.2251L1685.26 64.9926C1681.11 57.7707 1680.34 45.1691 1678.62 36.6092C1677.12 29.0758 1675.71 23.5197 1669.82 19.2305C1672.6 29.8342 1673.66 38.5911 1670.51 49.2658L1666.02 54.4187C1669.34 64.4702 1669.22 74.5056 1665.61 84.4975C1658.68 103.618 1639.55 114.175 1624.11 121.166C1596.74 133.557 1567.74 140.856 1540.06 152.516C1529.69 156.888 1501.78 171.623 1492.88 172.062C1492.19 175.694 1491.86 175.788 1489.46 178.263C1497.9 181.069 1507.76 178.457 1516.01 175.596C1523.98 189.904 1523.3 215.797 1520.62 232.08C1519.93 236.379 1518.17 239.813 1515.81 243.106C1517.86 246.1 1519.4 249.134 1519.93 252.99C1523.34 277.781 1521.47 307.042 1521.72 332.233C1522.26 385.877 1524.71 442.676 1520.23 496.081C1519.79 501.379 1518.69 505.512 1516.55 510.195C1517.4 518.15 1513 525.729 1509.02 531.776C1499.93 545.619 1464.97 581.788 1452.13 589.537C1523.69 573.933 1452.59 595.533 1451.74 599.387C1458.46 606.746 1458.79 624.175 1459.1 634.401C1459.39 644.118 1459.6 653.828 1455.93 662.709C1478.98 661.822 1493.88 633.267 1516.64 627.931C1521.91 636.456 1521.47 646.872 1521.84 657.274C1523.19 696.813 1520.81 736.588 1520.54 776.146L1519.85 1003.45L1519.25 1133.4C1519.15 1163.11 1520.08 1194.75 1516.61 1224.19C1516.06 1228.9 1515.04 1231.86 1512.09 1235.09C1513.23 1236.59 1515.22 1238.59 1516.01 1240.28C1520.06 1248.98 1518.07 1337.24 1517.42 1351.9C1517.11 1358.82 1516.84 1381.67 1513.13 1385.67C1511.78 1387.1 1510.06 1387.56 1508.38 1388.19C1517.8 1391.68 1529.04 1394.44 1537.4 1400.69L1557.97 1408.13C1572.47 1411.76 1586.49 1415.42 1601.41 1414.02C1605.83 1414.12 1608.99 1415.09 1612.76 1412C1615.54 1400.15 1621.06 1389.82 1623.59 1377.78C1636.11 1384.36 1635.63 1404.37 1652 1406.86C1652.77 1406.98 1653.53 1407.17 1654.28 1407.31L1655.84 1407.58C1667.58 1407.38 1679.34 1406.59 1691.07 1406.03L1694.08 1406.73C1699.33 1408.05 1705.13 1408.5 1708.85 1413.45L1708.21 1416.68C1709.16 1438.08 1704.51 1461.09 1702.73 1482.39C1702.11 1489.99 1704.1 1501.98 1702.25 1508.87C1701.81 1510.54 1699.78 1513.2 1698.87 1514.75C1702.13 1524.73 1694.95 1577.34 1691.07 1588.25C1690.94 1588.67 1690.76 1589.08 1690.61 1589.49C1694.01 1586.97 1696.55 1580.52 1699.82 1580.31C1713.81 1579.42 1730.16 1583.13 1744.22 1584.55C1779.46 1588.11 1814.71 1592.02 1850 1595.04C1866.12 1596.42 1892.66 1594 1907.16 1597.79C1930.5 1603.9 1982.12 1595.91 1997.4 1603.81C2006.94 1608.74 2012.33 1622.12 2021.86 1627.16C2030.61 1631.78 2042.94 1628.74 2050.34 1636.94C2055.14 1648.09 2054.37 1663.95 2057.52 1676.47C2052.32 1689.5 2008.27 1705.64 1996.36 1714.21C1988.91 1719.57 1982.73 1732.26 1974.95 1735.75C1971.21 1737.42 1966.67 1736.28 1962.95 1735.08C1946.62 1743.37 1789.14 1832.87 1786.9 1835.82C1785.91 1840.38 1785.97 1844.12 1782.13 1846.53C1747.05 1868.6 1708.99 1886.68 1673.1 1907.19H2675.78C2676.59 1905.65 2677.21 1904.21 2677.73 1902.51C2680.86 1892.61 2680.08 1477.67 2678.65 1431.51C2678.54 1427.43 2677.88 1424.19 2676.47 1420.43C2677.9 1415.54 2677.9 1413.1 2676.47 1408.21C2676.9 1407.26 2676.99 1407.07 2677.36 1405.96C2680.51 1396.45 2680.51 937.366 2678.6 888.256C2678.48 884.84 2677.73 881.834 2676.65 878.677C2681.01 867.285 2680.18 837.921 2677.01 825.75C2678.25 819.321 2678.19 817.82 2676.65 811.481C2677.05 810.47 2677.09 810.415 2677.46 809.226C2681.18 797.339 2680.64 761.643 2676.47 750.393C2676.71 749.717 2676.94 749.041 2677.15 748.36C2681.92 733.33 2678.87 437.415 2678.87 395.94L2678.85 97.0327C2678.85 44.9217 2679.81 -7.45049 2678.69 -59.5225C2678.58 -64.3272 2678.13 -67.945 2676.47 -72.4128C2677.15 -76.5118 2677.07 -78.5601 2676.18 -82.5972C2676.34 -82.9913 2676.53 -83.3762 2676.67 -83.7771C2680.76 -94.5939 2680.84 -157.957 2676.65 -170.171C2676.88 -170.795 2677.13 -171.409 2677.36 -172.041C2680.8 -181.79 2680.14 -211.204 2676.47 -221.084C2677.34 -223.071 2677.94 -225.017 2678.31 -227.222C2681.61 -247.148 2678.89 -278.696 2678.89 -299.968C2678.93 -342.463 2681.55 -387.77 2678.5 -429.964C2678.25 -433.399 2677.32 -436.087 2675.78 -439H1900.79ZM-834.5 291.441V1907.19H1673.1C1708.99 1886.68 1747.05 1868.6 1782.13 1846.53C1785.97 1844.12 1785.91 1840.38 1786.9 1835.82C1789.14 1832.87 1946.62 1743.37 1962.95 1735.08C1966.67 1736.28 1971.21 1737.42 1974.95 1735.75C1982.73 1732.26 1988.91 1719.57 1996.36 1714.21C2008.27 1705.64 2052.32 1689.5 2057.52 1676.47C2054.37 1663.95 2055.14 1648.09 2050.34 1636.94C2042.94 1628.74 2030.61 1631.78 2021.86 1627.16C2012.33 1622.12 2006.94 1608.74 1997.4 1603.81C1982.12 1595.91 1930.5 1603.9 1907.16 1597.79C1892.66 1594 1866.12 1596.42 1850 1595.04C1814.71 1592.02 1779.46 1588.11 1744.22 1584.55C1730.16 1583.13 1713.81 1579.42 1699.82 1580.31C1696.55 1580.52 1694.01 1586.97 1690.61 1589.49C1690.76 1589.08 1690.94 1588.67 1691.07 1588.25C1694.95 1577.34 1702.13 1524.73 1698.87 1514.75C1699.78 1513.2 1701.81 1510.54 1702.25 1508.87C1704.1 1501.98 1702.11 1489.99 1702.73 1482.39C1704.51 1461.09 1709.16 1438.08 1708.21 1416.68L1708.85 1413.45C1705.13 1408.5 1699.33 1408.05 1694.08 1406.73L1691.07 1406.03C1679.34 1406.59 1667.58 1407.38 1655.84 1407.58L1654.28 1407.31C1653.53 1407.17 1652.77 1406.98 1652 1406.86C1635.63 1404.37 1636.11 1384.36 1623.59 1377.78C1621.06 1389.82 1615.54 1400.15 1612.76 1412C1608.99 1415.09 1605.83 1414.12 1601.41 1414.02C1586.49 1415.42 1572.47 1411.76 1557.97 1408.13L1537.4 1400.69C1529.04 1394.44 1517.8 1391.68 1508.38 1388.19C1496.26 1377.56 1471.67 1371.83 1456.72 1369.98C1451.09 1369.92 1448.89 1372.16 1444.02 1375.41C1451.84 1388.48 1478.89 1487.6 1477.38 1501.93C1477.15 1504.15 1476.36 1506.25 1475.49 1508.22L1452.21 1497.61C1433.97 1489.53 1389.82 1465.61 1372.71 1464.91C1365.73 1459.73 1358.16 1457.04 1350.38 1454.07C1358.1 1460.92 1363.76 1467.89 1367.23 1478.71L1366.34 1485.39C1350.92 1485.85 1313.36 1483.81 1300.98 1487.97L1251.49 1487.21L1248.17 1489.54C1252.26 1491.31 1259.32 1492.82 1261.56 1497.16C1237.24 1511.11 1181.14 1508.29 1149.87 1524.92C1149.56 1525.07 1149.27 1525.25 1148.96 1525.37C1128.48 1533.05 1101.57 1534.45 1080.04 1537.42C1003.86 1547.93 927.257 1552.72 850.729 1558.06C787.98 1562.44 724.304 1568.88 661.451 1564.74C613.898 1561.6 536.498 1548.08 492.095 1528.21C472.517 1519.45 456.232 1531.8 440.704 1521C410.185 1513.73 345.92 1485.15 325 1460C328.226 1448.34 320.807 1447.59 318.562 1435.5C317.603 1430.33 335.494 1448.73 332.012 1446C327.178 1446.76 312.53 1422.09 309.263 1426L300.536 1421L291 1410L310.012 1399.7C278.703 1407.66 250.761 1409.37 218.862 1407.76L218.375 1406.78C212.69 1401.04 209.742 1394.23 206.254 1386.52C209.6 1371.51 215.495 1356.85 220.831 1342.7L221.346 1341.38L220.311 1328.48L220.437 1322.58L220.394 1306.47C220.747 1297.09 220.749 1287.93 220.303 1278.55C221.261 1268.2 222.043 1258.13 222.016 1247.7L221.935 1245.82L222.786 1218.8L222.243 1209.34C222.859 1197.28 223.124 1185.84 222.191 1173.76L222.923 1167.66C222.597 1149.94 222.686 1132.49 223.545 1114.8L223.836 1094.1L224.315 1080.32C225.176 1053.78 225.916 1027.23 226.535 1000.67L226.427 992.884C226.598 983.854 228.064 974.843 229.235 965.93L230.106 958.656L229.021 943.153C230.38 935.279 229.382 925.566 229.263 917.467C230.89 885.264 229.417 852.596 230.38 820.279L230.376 801.031C228.861 804.339 227.396 806.772 225.195 809.492C218.437 809.581 180.862 788.069 160.769 786.816L158.912 786.715C149.076 778.057 161.933 753.03 158.597 740.479C157.752 737.301 153.696 734.996 151.391 733.296C141.324 725.87 76.5212 684.079 67.1646 681.716C63.8521 680.88 60.6246 681.634 57.3796 682.518C56.1075 680.504 56.59 680.213 56.814 677.819C48.7875 671.809 39.6857 666.766 31.0801 662.037L32.2268 660.351C44.7743 642.262 82.3819 622.768 91.333 604.233L88.4373 607.521L88.2849 604.716C75.2529 609.021 62.6128 609.968 49.5268 613.196C-110.5 652.657 -286.63 639.066 -446.38 601.641C-457.321 599.078 -518.435 581.667 -523.479 591.48C-521.223 598.415 -517.485 604.049 -514.943 610.724C-513.949 613.333 -513.65 616.312 -513.302 619.119C-511.266 635.547 -502.384 648.897 -499.174 664.716C-496.085 679.938 -498.39 695.021 -494.313 711.814C-488.586 735.395 -480.899 758.43 -474.096 781.599C-468.197 801.693 -463.919 822.366 -458.128 842.446C-455.779 850.596 -451.702 858.333 -449.042 866.44C-448.737 867.372 -447.928 868.66 -447.428 869.51L-450.387 871.934C-459.039 867.941 -492.263 852.17 -497.548 844.664C-499.068 842.506 -500.407 838.721 -501.388 836.161C-507.034 821.424 -509.38 804.724 -514.036 789.506C-519.105 772.94 -526.923 757.78 -532.739 741.611C-539.104 723.913 -543.273 705.096 -550.091 687.628C-550.895 685.573 -551.624 685.394 -553.172 684.168L-556.933 684.965C-555.842 686.684 -556.132 685.916 -555.618 687.866C-553.985 694.066 -551.062 698.935 -549.534 705.181C-549.991 705.348 -550.443 705.538 -550.908 705.68C-561.695 709.007 -576.879 681.034 -586.116 674.859L-586.832 674.387C-598.878 662.945 -615.4 644.892 -622.629 628.666C-620.085 630.155 -617.637 631.202 -614.925 632.178L-614.479 630.153C-659.821 572.442 -677.933 527.292 -705.857 457.014C-717.797 426.961 -729.255 394.011 -747.213 368.23C-757.796 353.037 -774.96 349.046 -788.227 338.076C-804.834 324.342 -820.018 308.162 -834.5 291.441ZM-834.5 -439V291.441C-820.018 308.162 -804.834 324.342 -788.227 338.076C-774.96 349.046 -757.796 353.037 -747.213 368.23C-729.255 394.011 -717.797 426.961 -705.857 457.014C-677.933 527.292 -659.821 572.442 -614.479 630.153L-614.925 632.178C-617.637 631.202 -620.085 630.155 -622.629 628.666C-615.4 644.892 -598.878 662.945 -586.832 674.387L-586.116 674.859C-576.879 681.034 -561.695 709.007 -550.908 705.68C-550.443 705.538 -549.991 705.348 -549.534 705.181C-551.062 698.935 -553.985 694.066 -555.618 687.866C-556.132 685.916 -555.842 686.684 -556.933 684.965L-553.172 684.168C-551.624 685.394 -550.895 685.573 -550.091 687.628C-543.273 705.096 -539.104 723.913 -532.739 741.611C-526.923 757.78 -519.105 772.94 -514.036 789.506C-509.38 804.724 -507.034 821.424 -501.388 836.161C-500.407 838.721 -499.068 842.506 -497.548 844.664C-492.263 852.17 -459.039 867.941 -450.387 871.934L-447.428 869.51C-447.928 868.66 -448.737 867.372 -449.042 866.44C-451.702 858.333 -455.779 850.596 -458.128 842.446C-463.919 822.366 -468.197 801.693 -474.096 781.599C-480.899 758.43 -488.586 735.395 -494.313 711.814C-498.39 695.021 -496.085 679.938 -499.174 664.716C-502.384 648.897 -511.266 635.547 -513.302 619.119C-513.65 616.312 -513.949 613.333 -514.943 610.724C-517.485 604.049 -521.223 598.415 -523.479 591.48C-518.435 581.667 -457.321 599.078 -446.38 601.641C-286.63 639.066 -110.5 652.657 49.5268 613.196C62.6128 609.968 75.2529 609.021 88.2849 604.716L88.4373 607.521L91.333 604.233C82.3819 622.768 44.7743 642.262 32.2268 660.351L31.0801 662.037C39.6857 666.766 48.7875 671.809 56.814 677.819C56.59 680.213 56.1075 680.504 57.3796 682.518C60.6246 681.634 63.8521 680.88 67.1646 681.716C76.5212 684.079 141.324 725.87 151.391 733.296C153.696 734.996 157.752 737.301 158.597 740.479C161.933 753.03 149.076 778.057 158.912 786.715L160.769 786.816C180.862 788.069 218.437 809.581 225.195 809.492C227.396 806.772 228.861 804.339 230.376 801.031C236.37 669.908 228.874 538.145 230.569 406.993C231.785 397.225 230.905 387.46 230.322 377.668C236.169 370.687 241.92 363.006 248.441 356.928C260.511 366.306 272.24 377.237 282.211 389.655C285.786 390.134 287.087 390.643 290.45 388.908L291.571 382.11C289.529 336.935 296.268 277.107 291.175 235.233C289.151 211.056 290.5 185.959 291.029 161.683C304.144 167.906 316.394 174.257 328.631 182.71C352.461 194.186 376.38 205.647 399.804 218.262C401.807 219.733 403.483 220.123 405.736 220.767L409.091 217.05C398.916 183.166 389.936 148.828 379.456 115.037C416.216 127.458 477.167 153.662 513.922 151.666C533.403 144.312 560.089 149.879 580.36 151.921C540.073 128.078 496.415 115.926 459.42 84.4471L450.868 72.2557C446.029 65.2248 441.11 58.274 436.11 51.4035C425.762 45.522 420.818 28.2304 410.313 25.2999C414.255 42.2914 423.663 59.2555 430.676 74.7761C405.313 67.2999 376.151 56.813 357.202 34.2997C317.641 -12.7042 351.786 -59.1582 351.289 -107.858C351.208 -115.815 353.513 -122.691 357.441 -129.125L358.609 -127.314C370.941 -124.489 383.975 -124.881 396.507 -124.723C417.855 -125.31 438.411 -125.85 459.495 -120.991C475.521 -120.342 491.42 -119.912 507.449 -120.562L513.947 -121.518C541.743 -121.602 569.532 -122.193 597.312 -123.291C603.341 -125.695 610.072 -124.78 616.346 -126.336C603.049 -175.824 561.656 -236.997 535.308 -279.405C529.309 -289.062 517.231 -303.905 513.532 -314.393C513.038 -315.796 513.105 -318.832 512.949 -320.446C485.333 -365.33 445.077 -399.877 412.056 -439H-834.5ZM412.056 -439C445.077 -399.877 485.333 -365.33 512.949 -320.446C513.105 -318.832 513.038 -315.796 513.532 -314.393C517.231 -303.905 529.309 -289.062 535.308 -279.405C561.656 -236.997 603.049 -175.824 616.346 -126.336C610.072 -124.78 603.341 -125.695 597.312 -123.291C569.532 -122.193 541.743 -121.602 513.947 -121.518L507.449 -120.562C491.42 -119.912 475.521 -120.342 459.495 -120.991C438.411 -125.85 417.855 -125.31 396.507 -124.723C383.975 -124.881 370.941 -124.489 358.609 -127.314L357.441 -129.125C353.513 -122.691 351.208 -115.815 351.289 -107.858C351.786 -59.1582 317.641 -12.7042 357.202 34.2997C376.151 56.813 405.313 67.2999 430.676 74.7761C423.663 59.2555 414.255 42.2914 410.313 25.2999C420.818 28.2304 425.762 45.522 436.11 51.4035C441.11 58.274 446.029 65.2248 450.868 72.2557L459.42 84.4471C496.415 115.926 540.073 128.078 580.36 151.921C560.089 149.879 533.403 144.312 513.922 151.666C525.29 160.169 543.561 159.502 556.631 160.749C610.717 165.906 664.721 165.253 718.882 162.813C753.609 161.25 788.379 156.925 823.099 160.432C794.809 170.323 731.038 188.797 710.643 213.336C730.895 206.091 749.2 194.734 768.813 185.709C810.195 166.667 858.028 150.493 902.216 146.323C945.615 142.229 989.811 150.867 1031.19 147.04L1033 146.859C1049.9 143.746 1067.55 145.579 1084.66 143.988C1101.55 142.414 1184.04 125.418 1194.43 133.951C1199.06 137.743 1201.14 144.465 1201.68 150.862C1202.34 158.59 1202.34 169.487 1197.84 175.68C1196.76 177.172 1195.47 178.597 1194.19 179.85C1165.18 190.983 1137.69 199.222 1115.8 226.158L1116.05 261.827C1123.58 260.821 1138.23 256.791 1145.12 259.602L1145.72 260.576C1151.82 256.06 1156.42 250.121 1161.47 244.137C1183.25 218.402 1201.47 208.506 1232.9 208.703C1249.98 208.811 1275.06 212.598 1287.59 227.569C1295.58 230.793 1311.44 249.363 1315.38 258.326C1315.94 259.621 1316.02 260.093 1316.44 261.57C1341.6 251.118 1377.52 254.882 1404.1 254.268L1405.49 254.25C1407.27 256.218 1408.1 256.658 1408.85 259.463C1423.19 249.191 1442.27 251.723 1458.44 250.03C1462.9 263.729 1457.01 299.419 1456.09 315.498C1451.71 391.064 1511.78 434.411 1509.02 510.195C1508.48 524.611 1455.68 575.875 1452.13 589.537C1464.97 581.788 1499.93 545.619 1509.02 531.776C1513 525.729 1517.4 518.15 1516.55 510.195C1518.69 505.512 1519.79 501.379 1520.23 496.081C1524.71 442.676 1522.26 385.877 1521.72 332.233C1521.47 307.042 1523.34 277.781 1519.93 252.99C1519.4 249.134 1517.86 246.1 1515.81 243.106C1518.17 239.813 1519.93 236.379 1520.62 232.08C1523.3 215.797 1523.98 189.904 1516.01 175.596C1507.76 178.457 1497.9 181.069 1489.46 178.263C1491.86 175.788 1492.19 175.694 1492.88 172.062C1501.78 171.623 1529.69 156.888 1540.06 152.516C1567.74 140.856 1596.74 133.557 1624.11 121.166C1639.55 114.175 1658.68 103.618 1665.61 84.4975C1669.22 74.5056 1669.34 64.4702 1666.02 54.4187L1670.51 49.2658C1673.66 38.5911 1672.6 29.8342 1669.82 19.2305C1675.71 23.5197 1677.12 29.0758 1678.62 36.6092C1680.34 45.1691 1681.11 57.7707 1685.26 64.9926L1686.73 64.2251C1692.1 51.2569 1691.44 21.1116 1689.2 6.97263C1689.93 5.77204 1690.55 4.55083 1691.09 3.21277C1695.57 -7.80789 1695.42 -44.2769 1691.9 -55.7902C1693.99 -61.3234 1695.53 -67.3562 1696.21 -73.3683C1698.04 -89.638 1707.6 -159.921 1703.89 -171.028C1703.39 -172.54 1701.59 -174.687 1700.72 -176.067C1700.63 -176.186 1700.51 -176.312 1700.4 -176.426C1688.33 -188.595 1616.19 -181.943 1597.68 -180.587C1609.57 -192.224 1666.69 -207.71 1684.88 -216.218C1697.96 -222.26 1710.78 -229.047 1723.31 -236.582C1735.83 -244.116 1748.02 -252.361 1759.87 -261.316C1783.96 -279.161 1803.38 -301.18 1825.6 -321.55C1828.36 -324.081 1832.45 -323.757 1834.91 -325.798C1841.01 -330.906 1861.54 -386.406 1870.79 -393.29L1875.46 -388.715C1882.97 -394.013 1891.95 -410.871 1896.54 -419.946C1899.8 -426.399 1902.33 -431.66 1900.79 -439H412.056Z" fill="url(#paint0_linear_71_20357)"/>
<path d="M254.709 379.158C278.294 388.727 301.967 398.283 325.149 408.801C327.132 410.028 328.791 410.352 331.02 410.889L334.341 407.79C336.645 415.621 340.502 424.842 339.646 433.045C334.988 436.205 330.365 435.309 324.949 434.245C305.628 430.447 286.355 421.19 266.894 419.358L265.028 420.838C264.905 426.806 264.991 432.86 264.596 438.811L263.27 850.884C262.886 894.981 259.548 939.146 260.047 983.226C260.603 1032.34 267.018 1081.11 268.359 1130.16C269.792 1182.63 260.039 1235.09 265.352 1287.76C268.375 1317.7 274.452 1349.83 290.558 1375.79L276.756 1380.91L236.282 1393.86C233.751 1372.07 235.667 1349.97 238.091 1328.23C242.407 1317.33 256.522 1311.47 259.187 1301.2C255.771 1244.21 257.519 1186.84 256.197 1129.77L249.098 650.067C249.461 600.401 250.333 550.746 251.715 501.1C252.342 474.55 251.473 446.911 254.568 420.548C253.236 407.256 254.598 392.592 254.709 379.158Z" fill="#274968"/>
<path d="M259.187 1301.2C261.636 1310.01 261.885 1319.55 263.524 1328.56C266.76 1346.37 271.409 1363.64 276.756 1380.91L236.282 1393.86C233.751 1372.07 235.667 1349.97 238.091 1328.23C242.407 1317.33 256.522 1311.47 259.187 1301.2Z" fill="#172B48"/>
<path d="M254.709 379.158C278.294 388.727 301.967 398.283 325.149 408.801C327.132 410.028 328.791 410.352 331.02 410.889L334.341 407.79C336.645 415.621 340.502 424.842 339.646 433.045C334.988 436.205 330.365 435.309 324.949 434.245C305.628 430.447 286.355 421.19 266.894 419.358L265.028 420.838C264.905 426.806 264.991 432.86 264.596 438.811C259.306 422.101 260.956 403.626 258.862 386.408C253.7 397.727 256.35 429.675 256.388 443.279C255.552 435.72 254.945 428.143 254.568 420.548C253.236 407.256 254.598 392.592 254.709 379.158Z" fill="#436D89"/>
<path d="M249.098 650.067L256.197 1129.77C257.519 1186.84 255.771 1244.21 259.187 1301.2C256.522 1311.47 242.407 1317.33 238.091 1328.23C235.667 1349.97 233.751 1372.07 236.282 1393.86C205.296 1400.5 177.642 1401.92 146.07 1400.58L145.589 1399.76C139.963 1394.98 137.045 1389.3 133.593 1382.87C136.904 1370.35 142.738 1358.13 148.019 1346.33L148.529 1345.23L147.505 1334.48L147.629 1329.56L147.587 1316.12C147.937 1308.3 147.939 1300.66 147.497 1292.85C148.445 1284.22 149.219 1275.82 149.192 1267.12L149.112 1265.55L149.954 1243.03L149.417 1235.14C150.027 1225.08 150.289 1215.54 149.366 1205.47L150.09 1200.39C176.405 1178.22 206.386 1160.71 232.671 1138.54C233.128 990.621 239.198 842.737 242.191 694.843C242.417 683.691 240.854 657.985 249.098 650.067Z" fill="url(#paint1_linear_71_20357)"/>
<path d="M224.118 1188.53L230.776 1184.98C230.293 1212.69 234.895 1252.4 224.544 1278.1C221.961 1248.53 223.533 1218.17 224.118 1188.53Z" fill="#422831"/>
<path d="M151.32 1239.41L152.381 1234.94C170.993 1223.53 213.136 1177.31 233.327 1178.13L234.448 1180.4L230.776 1184.98L224.118 1188.53C202.401 1204.12 179.132 1219.23 160.134 1238.15L151.32 1239.41Z" fill="#B58566"/>
<path d="M225.939 1329.76L238.091 1328.23C235.667 1349.97 233.751 1372.07 236.282 1393.86C205.296 1400.5 177.642 1401.92 146.07 1400.58L145.589 1399.76C148.203 1393.31 150.209 1386.59 152.345 1379.96C170.991 1354.76 196.618 1339.29 225.939 1329.76Z" fill="#281F2B"/>
<path d="M225.939 1329.76C227.805 1334.86 229.49 1339.15 227.005 1344.46C219.644 1360.2 188.424 1384.4 172.432 1389.42C168.015 1390.8 164.408 1391.02 159.973 1389.53C156.299 1386.73 154.515 1384.01 152.345 1379.96C170.991 1354.76 196.618 1339.29 225.939 1329.76Z" fill="#3D1B19"/>
<path d="M224.118 1188.53C223.533 1218.17 221.961 1248.53 224.544 1278.1C209.35 1290.96 193.969 1303.7 179.254 1317.11C169.925 1325.61 159.434 1338.84 148.957 1345.13L148.529 1345.23L147.505 1334.48L147.629 1329.56L147.587 1316.12C147.937 1308.3 147.939 1300.66 147.497 1292.85C148.445 1284.22 149.219 1275.82 149.192 1267.12L149.112 1265.55L149.954 1243.03L151.32 1239.41L160.134 1238.15C179.132 1219.23 202.401 1204.12 224.118 1188.53Z" fill="#7C504A"/>
<path d="M151.32 1239.41L160.134 1238.15C161.079 1261.55 167.08 1319.89 152.213 1337.2C151.343 1338.21 150.363 1339.1 149.356 1339.97L148.957 1345.13L148.529 1345.23L147.505 1334.48L147.629 1329.56L147.587 1316.12C147.937 1308.3 147.939 1300.66 147.497 1292.85C148.445 1284.22 149.219 1275.82 149.192 1267.12L149.112 1265.55L149.954 1243.03L151.32 1239.41Z" fill="#626644"/>
<path d="M217.494 361.627C230.474 366.815 242.598 372.111 254.709 379.158C254.598 392.592 253.236 407.256 254.568 420.548C251.473 446.911 252.342 474.55 251.715 501.1C250.333 550.746 249.461 600.401 249.098 650.067C240.854 657.985 242.417 683.691 242.191 694.843C239.198 842.737 233.128 990.621 232.671 1138.54C206.386 1160.71 176.405 1178.22 150.09 1200.39C149.767 1185.62 149.855 1171.06 150.705 1156.31L150.994 1139.05L151.468 1127.57C152.32 1105.43 153.052 1083.3 153.665 1061.16L153.558 1054.66C153.728 1047.13 155.178 1039.62 156.338 1032.19L157.199 1026.12L156.125 1013.2C157.47 1006.63 156.483 998.535 156.364 991.782C157.975 964.932 156.517 937.694 157.47 910.749L157.467 894.7C163.399 785.373 155.98 675.512 157.658 566.16C158.861 558.016 157.99 549.875 157.413 541.71C163.2 535.889 168.891 529.485 175.345 524.417C187.292 532.236 198.899 541.351 208.767 551.705C212.305 552.104 213.593 552.528 216.921 551.082L218.031 545.414C216.01 507.748 222.679 457.865 217.639 422.951C215.635 402.793 216.971 381.867 217.494 361.627Z" fill="#7C504A"/>
<path d="M157.199 1026.12C157.425 1026.68 157.656 1027.23 157.874 1027.78C158.672 1029.81 158.861 1031.52 159.022 1033.68C158.966 1033.19 159.236 1032.71 159.35 1032.23C160.181 1028.76 160.479 1025.09 160.925 1021.55C161.574 1024.78 162.122 1028.07 162.94 1031.26C164.348 1080.17 161.209 1129.7 161.12 1178.7L150.57 1185.65C150.942 1175.86 150.835 1166.11 150.705 1156.31L150.994 1139.05L151.468 1127.57C152.32 1105.43 153.052 1083.3 153.665 1061.16L153.558 1054.66C153.728 1047.13 155.178 1039.62 156.338 1032.19L157.199 1026.12Z" fill="#B58566"/>
<path d="M157.413 541.71C163.2 535.889 168.891 529.485 175.345 524.417C187.292 532.236 198.899 541.351 208.767 551.705C209.676 553.821 210.515 555.948 211.656 557.953C219.168 571.169 219.718 627.286 215.119 643.088C214.491 645.247 213.761 646.852 212.422 648.632C210.206 705.849 212.439 763.478 212.374 820.758C207.017 806.618 197.333 656.558 196.723 632.211C189.402 620.024 182.164 607.854 175.461 595.314C163.899 740.432 170.794 886.012 162.94 1031.26C162.122 1028.07 161.574 1024.78 160.925 1021.55C160.479 1025.09 160.181 1028.76 159.35 1032.23C159.236 1032.71 158.966 1033.19 159.022 1033.68C158.861 1031.52 158.672 1029.81 157.874 1027.78C157.656 1027.23 157.425 1026.68 157.199 1026.12L156.125 1013.2C157.47 1006.63 156.483 998.535 156.364 991.782C157.975 964.932 156.517 937.694 157.47 910.749L157.467 894.7C163.399 785.373 155.98 675.512 157.658 566.16C158.861 558.016 157.99 549.875 157.413 541.71Z" fill="url(#paint2_linear_71_20357)"/>
<path d="M157.413 541.71C163.2 535.889 168.891 529.485 175.345 524.417C187.292 532.236 198.899 541.351 208.767 551.705C209.676 553.821 210.515 555.948 211.656 557.953C219.168 571.169 219.718 627.286 215.119 643.088C214.491 645.247 213.761 646.852 212.422 648.632C207.032 620.787 191.775 589.738 179.319 564.174C173.662 552.559 169.976 545.941 157.413 541.71Z" fill="#281F2B"/>
<path d="M217.494 361.627C230.474 366.815 242.598 372.111 254.709 379.158C254.598 392.592 253.236 407.256 254.568 420.548C251.473 446.911 252.342 474.55 251.715 501.1C250.333 550.746 249.461 600.401 249.098 650.067C240.854 657.985 242.417 683.691 242.191 694.843C239.198 842.737 233.128 990.621 232.671 1138.54C206.386 1160.71 176.405 1178.22 150.09 1200.39C149.767 1185.62 149.855 1171.06 150.705 1156.31C150.835 1166.11 150.942 1175.86 150.57 1185.65L161.12 1178.7C181.233 1163.9 203.429 1152.27 223.233 1136.86C220.233 1064.82 217.827 992.767 216.016 920.692C214.951 887.171 215.778 854.231 212.374 820.758C212.439 763.478 210.206 705.849 212.422 648.632C213.761 646.852 214.491 645.247 215.119 643.088C219.718 627.286 219.168 571.169 211.656 557.953C210.515 555.948 209.676 553.821 208.767 551.705C212.305 552.104 213.593 552.528 216.921 551.082L218.031 545.414C216.01 507.748 222.679 457.865 217.639 422.951C215.635 402.793 216.971 381.867 217.494 361.627Z" fill="url(#paint3_linear_71_20357)"/>
<path d="M1425.98 1256.61C1427.11 1257.86 1429.08 1259.53 1429.86 1260.94C1433.87 1268.19 1431.9 1341.78 1431.25 1354C1430.95 1359.77 1430.68 1378.82 1427.01 1382.16C1425.68 1383.35 1423.98 1383.73 1422.31 1384.26C1410.32 1375.39 1385.98 1370.62 1371.19 1369.07C1365.61 1369.03 1363.43 1370.9 1358.62 1373.6C1358.81 1371.91 1358.88 1370.59 1358.77 1368.9C1357.74 1354.48 1347.06 1321.8 1336.15 1312.16C1358.01 1307.74 1378.22 1296.78 1396.73 1284.65C1405.69 1278.79 1423.8 1267.14 1425.98 1256.61Z" fill="#172B48"/>
<path d="M1403.59 375.45C1411.94 377.79 1421.7 375.613 1429.86 373.227C1437.75 385.157 1437.08 406.746 1434.43 420.322C1433.74 423.906 1432 426.77 1429.67 429.515C1409.89 429.318 1389.53 432.675 1369.87 434.784C1381.14 426.5 1391.1 407.792 1395.81 394.741C1397.59 389.822 1398.64 386.169 1396.37 381.317L1390.41 380.079C1395.89 379.103 1399.52 379.363 1403.59 375.45Z" fill="#274968"/>
<path d="M1327.46 286.988C1347.99 287.683 1380.3 283.354 1398.74 274.009C1404.76 292.984 1393.16 360.318 1384.91 380.209C1382.67 382.058 1380.42 381.922 1377.65 382.087C1365.07 367.581 1385.04 326.935 1381.73 307.745C1381.1 304.091 1380.72 303.208 1377.76 301.12C1353.04 313.459 1314.29 318.732 1286.97 323.292C1298.11 316.653 1303.37 305.442 1307.03 293.414C1314.85 293.739 1321.06 291.25 1327.46 286.988Z" fill="#274968"/>
<path d="M1047.95 249.617C1049.29 248.087 1050.82 247.419 1052.57 246.454C1118.07 245.566 1183.5 246.358 1249.01 246.15C1275.55 246.066 1302.39 243.844 1328.89 244.442C1331.39 244.498 1332.25 244.872 1334.26 246.244C1334.56 253.692 1329.23 260.057 1324.44 265.215C1321.59 268.285 1319.22 270.696 1315.19 272.079C1298.97 264.954 1097.99 270.052 1064.46 269.728C1064.38 276.798 1061.95 283.264 1056.99 288.346C1052.29 293.126 1045.43 297.067 1038.86 298.459C1012.81 303.982 981.224 300.746 954.571 300.565L867.582 300.677C847.818 300.513 828.082 299.374 808.316 299.562C764.013 299.982 720.347 302.142 676.097 297.695L664.35 286.898C568.437 286.317 471.515 283.597 375.688 287.064C370.899 281.202 366.03 275.407 361.082 269.678C357.007 263.779 352.895 258.418 347.94 253.23L645.682 252.903C648.936 260.776 651.727 268.753 658.502 274.36C675.112 287.918 717.278 286 738.823 286.604C781.557 287.8 824.465 286.485 867.243 286.944C905.022 287.349 986.597 291.941 1020.44 284.363C1030.47 282.116 1037.29 275.701 1044.55 268.834C1046.15 262.48 1047.05 256.099 1047.95 249.617Z" fill="#274968"/>
<path d="M1240.64 127.703C1285.41 126.279 1330.16 126.802 1374.88 129.271L1376.1 133.596L1381.85 137.09C1382.36 140.195 1381.37 141.923 1380.07 144.625C1384.77 143.952 1386.17 143.966 1389.8 141.035C1399.22 149.618 1406.97 169.881 1407.28 182.589C1407.33 184.536 1406.93 186.041 1406.26 187.833C1406.07 188.385 1405.88 188.947 1405.67 189.491C1405.54 189.835 1405.35 190.16 1405.19 190.494L1407.07 195.184C1405.37 205.958 1394.32 219.195 1385.46 225.346C1383.05 227.02 1380.91 227.612 1378.01 227.675C1379.02 232.694 1378.31 236.035 1375.52 240.348C1365.07 256.604 1344.21 270.576 1327.55 280.013L1332.73 282.317C1331.01 284.388 1329.83 285.608 1327.46 286.988C1321.06 291.25 1314.85 293.739 1307.03 293.414C1308.91 291.385 1310.57 289.091 1312.12 286.793C1315.5 281.755 1316.36 277.908 1315.19 272.079C1319.22 270.696 1321.59 268.285 1324.44 265.215C1329.23 260.057 1334.56 253.692 1334.26 246.244C1332.25 244.872 1331.39 244.498 1328.89 244.442C1302.39 243.844 1275.55 246.066 1249.01 246.15C1183.5 246.358 1118.07 245.566 1052.57 246.454C1050.82 247.419 1049.29 248.087 1047.95 249.617C1046.31 239.248 1047.7 226.393 1047.74 215.762C1043.29 206.591 1037.82 197.862 1032.67 189.069C1076.26 177.219 1123.24 194.571 1166.61 184.736C1180.85 177.057 1193.59 162.33 1206.81 152.604C1217.35 144.841 1229.41 139.163 1240.22 131.68L1240.64 127.703Z" fill="#5C302E"/>
<path d="M1327.55 280.013L1326.42 278.326C1326.92 270.305 1339.65 257.217 1344.46 249.673C1352.64 236.858 1359.76 223.213 1367.14 209.915L1368.53 209.98C1370.63 211.938 1372.87 213.938 1374.68 216.188C1377.55 219.762 1378.64 223.148 1378.01 227.675C1379.02 232.694 1378.31 236.035 1375.52 240.348C1365.07 256.604 1344.21 270.576 1327.55 280.013Z" fill="#985944"/>
<path d="M1389.8 141.035C1399.22 149.618 1406.97 169.881 1407.28 182.589C1407.33 184.536 1406.93 186.041 1406.26 187.833C1406.07 188.385 1405.88 188.947 1405.67 189.491C1405.54 189.835 1405.35 190.16 1405.19 190.494L1403.74 190.551C1394.02 190.889 1394.17 189.279 1387.39 183.588C1381.49 178.635 1354.59 183.126 1346.24 183.645C1337.89 184.163 1325.3 186.175 1318.67 180.297C1332.1 177.763 1346.54 171.194 1358.46 164.506C1366.34 160.076 1377.47 153.699 1380.07 144.625C1384.77 143.952 1386.17 143.966 1389.8 141.035Z" fill="#422831"/>
<path d="M1047.74 215.762C1047.91 216.06 1048.08 216.356 1048.24 216.656C1050.09 220.095 1051.12 223.356 1052.1 227.131C1052.9 227.744 1053.59 228.581 1054.54 228.967C1058.63 230.638 1323.86 231.009 1346.16 228.919C1345.57 234.656 1344.61 239.317 1339.66 243.036C1337.98 244.31 1336.15 245.308 1334.26 246.244C1332.25 244.872 1331.39 244.498 1328.89 244.442C1302.39 243.844 1275.55 246.066 1249.01 246.15C1183.5 246.358 1118.07 245.566 1052.57 246.454C1050.82 247.419 1049.29 248.087 1047.95 249.617C1046.31 239.248 1047.7 226.393 1047.74 215.762Z" fill="#422831"/>
<path d="M1240.64 127.703C1285.41 126.279 1330.16 126.802 1374.88 129.271L1376.1 133.596L1381.85 137.09C1382.36 140.195 1381.37 141.923 1380.07 144.625C1377.47 153.699 1366.34 160.076 1358.46 164.506C1346.54 171.194 1332.1 177.763 1318.67 180.297C1307.66 183.571 1296.22 185.497 1284.7 185.004C1283.09 186.261 1281.03 186.742 1279.04 187.201C1255.11 192.754 1187.05 197.325 1166.61 184.736C1180.85 177.057 1193.59 162.33 1206.81 152.604C1217.35 144.841 1229.41 139.163 1240.22 131.68L1240.64 127.703Z" fill="#7C504A"/>
<path d="M1240.64 127.703C1285.41 126.279 1330.16 126.802 1374.88 129.271L1376.1 133.596C1366.01 136.273 1352.75 134.624 1342.28 134.586C1305.87 134.452 1269.63 135.05 1235.54 149.494C1218.1 156.887 1208.34 174.46 1192.44 181.779C1210.55 181.59 1270.05 178.048 1283.27 183.439L1284.7 185.004C1283.09 186.261 1281.03 186.742 1279.04 187.201C1255.11 192.754 1187.05 197.325 1166.61 184.736C1180.85 177.057 1193.59 162.33 1206.81 152.604C1217.35 144.841 1229.41 139.163 1240.22 131.68L1240.64 127.703Z" fill="#D08059"/>
<path d="M1510.69 76.2495C1529.01 75.1185 1600.41 69.5728 1612.35 79.7186C1612.47 79.8141 1612.58 79.9192 1612.68 80.0186C1613.54 81.1686 1615.31 82.9586 1615.81 84.2194C1619.48 93.4808 1610.02 152.081 1608.21 165.646C1607.54 170.659 1606.01 175.689 1603.94 180.302C1607.42 189.902 1607.57 220.309 1603.14 229.498C1602.61 230.613 1602 231.631 1601.27 232.633C1603.49 244.421 1604.14 269.556 1598.82 280.368L1597.37 281.008C1593.27 274.987 1592.5 264.48 1590.8 257.343C1589.31 251.062 1587.92 246.429 1582.09 242.853C1584.84 251.694 1585.89 258.995 1582.78 267.896L1578.32 272.192C1581.61 280.573 1581.5 288.94 1577.92 297.271C1571.07 313.213 1552.13 322.016 1536.85 327.844C1509.76 338.175 1481.06 344.262 1453.66 353.984C1443.41 357.629 1415.78 369.914 1406.97 370.281C1406.28 373.309 1405.96 373.387 1403.59 375.45C1399.52 379.363 1395.89 379.103 1390.41 380.079L1384.91 380.209C1393.16 360.318 1404.76 292.984 1398.74 274.009C1380.3 283.354 1347.99 287.683 1327.46 286.988C1329.83 285.608 1331.01 284.388 1332.73 282.317L1327.55 280.013C1344.21 270.576 1365.07 256.604 1375.52 240.348C1378.31 236.035 1379.02 232.694 1378.01 227.675C1380.91 227.612 1383.05 227.02 1385.46 225.346C1394.32 219.195 1405.37 205.958 1407.07 195.184L1405.19 190.494C1405.35 190.16 1405.54 189.835 1405.67 189.491C1405.88 188.947 1406.07 188.385 1406.26 187.833C1406.93 186.041 1407.33 184.536 1407.28 182.589C1406.97 169.881 1399.22 149.618 1389.8 141.035C1386.17 143.966 1384.77 143.952 1380.07 144.625C1381.37 141.923 1382.36 140.195 1381.85 137.09L1376.1 133.596L1374.88 129.271C1378.85 129.361 1381.16 129.181 1384.75 127.43C1384.92 127.109 1385.1 126.797 1385.23 126.467C1388.96 117.582 1383.49 106.612 1380.57 98.077C1409.05 90.3535 1437.86 87.2531 1467.06 83.4821C1480.83 81.7016 1497.68 80.8075 1510.69 76.2495Z" fill="#593B3E"/>
<path d="M1458.21 225.665L1464.97 226.08C1464.67 235.359 1455.59 253.484 1448.62 260.105C1447.51 261.154 1446.39 262.037 1445.14 262.908L1444.49 263.376C1443.08 251.05 1452.84 236.304 1458.21 225.665Z" fill="#7C504A"/>
<path d="M1487.52 186.975L1487.84 190.679C1492.68 188.656 1495.73 184.052 1499.04 180.125C1499.08 181.456 1499.48 183.793 1499.19 185.015C1497.89 190.435 1474.91 218.104 1469.69 223.088C1468.36 224.347 1466.58 225.26 1464.97 226.08L1458.21 225.665C1464.46 219.245 1485.59 191.226 1485.51 183.699L1487.52 186.975Z" fill="#A06D63"/>
<path d="M1500.89 212.883C1516.94 204.678 1529.03 189.669 1545.16 180.958C1559.74 173.081 1581.42 168.588 1597.6 173.259L1598.94 176.34C1591.07 185.923 1577.06 190.557 1568.08 199.53C1554.84 212.784 1544.05 234.044 1529.01 244.377C1526.66 250.634 1521.85 253.068 1516.35 256.086C1517.69 254.313 1518.98 252.464 1520.02 250.483C1525.35 240.192 1544.11 207.341 1541.15 197.851C1531.08 195.012 1513.31 209.191 1502.61 212.385L1500.89 212.883Z" fill="#7C504A"/>
<path d="M1598.94 176.34L1603.81 179.42L1603.94 180.302C1607.42 189.902 1607.57 220.309 1603.14 229.498C1602.61 230.613 1602 231.631 1601.27 232.633C1603.49 244.421 1604.14 269.556 1598.82 280.368L1597.37 281.008C1593.27 274.987 1592.5 264.48 1590.8 257.343C1589.31 251.062 1587.92 246.429 1582.09 242.853C1582.39 238.15 1583.22 234.126 1580.48 230.004C1576.59 228.338 1574.98 228.115 1570.84 229.927C1548.73 239.634 1538.22 266.64 1516.73 277.925C1523.95 270.448 1530.72 260.936 1530.22 249.91C1530.14 247.94 1529.7 246.206 1529.01 244.377C1544.05 234.044 1554.84 212.784 1568.08 199.53C1577.06 190.557 1591.07 185.923 1598.94 176.34Z" fill="#281F2B"/>
<path d="M1431.04 179.754C1445.72 176.818 1461.84 177.783 1476.76 178.451L1483.56 179.317C1484.65 180.977 1485.15 181.705 1485.51 183.699C1485.59 191.226 1464.46 219.245 1458.21 225.665C1452.84 236.304 1443.08 251.05 1444.49 263.376C1442.28 279.486 1436.24 295.529 1432.86 311.503C1431.1 319.794 1431.94 332.465 1427.95 339.387C1452.75 336.552 1524.83 318.871 1545.33 307.467C1551.14 304.248 1555.91 299.241 1559.98 294.096C1566.69 285.637 1572.13 275.72 1577.83 266.568C1579.11 268.942 1578.73 269.483 1578.32 272.192C1581.61 280.573 1581.5 288.94 1577.92 297.271C1571.07 313.213 1552.13 322.016 1536.85 327.844C1509.76 338.175 1481.06 344.262 1453.66 353.984C1443.41 357.629 1415.78 369.914 1406.97 370.281C1402.88 370.309 1401.49 370.968 1398.24 368.34C1398.93 352.981 1409.13 334.093 1413.85 319.143C1423.44 288.686 1433.18 255.19 1436.89 223.49C1438.07 213.334 1439.6 202.355 1432.92 193.808C1434.35 187.814 1433.51 185.17 1431.04 179.754Z" fill="url(#paint4_linear_71_20357)"/>
<path d="M1431.04 179.754C1445.72 176.818 1461.84 177.783 1476.76 178.451L1475.33 181.601L1476.78 182.528C1468.45 189.737 1448.7 195.39 1437.64 194.532C1436.03 194.408 1434.48 194.158 1432.92 193.808C1434.35 187.814 1433.51 185.17 1431.04 179.754Z" fill="#7C504A"/>
<path d="M1380.57 98.077C1386.93 100.509 1401.13 104.926 1403.49 112.447C1403.67 112.972 1403.7 113.526 1403.82 114.065C1417.52 125.076 1429.9 153.154 1431.67 170.435C1432.02 173.608 1431.69 176.642 1431.04 179.754C1433.51 185.17 1434.35 187.814 1432.92 193.808C1439.6 202.355 1438.07 213.334 1436.89 223.49C1433.18 255.19 1423.44 288.686 1413.85 319.143C1409.13 334.093 1398.93 352.981 1398.24 368.34C1401.49 370.968 1402.88 370.309 1406.97 370.281C1406.28 373.309 1405.96 373.387 1403.59 375.45C1399.52 379.363 1395.89 379.103 1390.41 380.079L1384.91 380.209C1393.16 360.318 1404.76 292.984 1398.74 274.009C1380.3 283.354 1347.99 287.683 1327.46 286.988C1329.83 285.608 1331.01 284.388 1332.73 282.317L1327.55 280.013C1344.21 270.576 1365.07 256.604 1375.52 240.348C1378.31 236.035 1379.02 232.694 1378.01 227.675C1380.91 227.612 1383.05 227.02 1385.46 225.346C1394.32 219.195 1405.37 205.958 1407.07 195.184L1405.19 190.494C1405.35 190.16 1405.54 189.835 1405.67 189.491C1405.88 188.947 1406.07 188.385 1406.26 187.833C1406.93 186.041 1407.33 184.536 1407.28 182.589C1406.97 169.881 1399.22 149.618 1389.8 141.035C1386.17 143.966 1384.77 143.952 1380.07 144.625C1381.37 141.923 1382.36 140.195 1381.85 137.09L1376.1 133.596L1374.88 129.271C1378.85 129.361 1381.16 129.181 1384.75 127.43C1384.92 127.109 1385.1 126.797 1385.23 126.467C1388.96 117.582 1383.49 106.612 1380.57 98.077Z" fill="#281F2B"/>
<path d="M1384.75 127.43C1388.38 130.383 1390.06 131.124 1391.31 135.795L1389.8 141.035C1386.17 143.966 1384.77 143.952 1380.07 144.625C1381.37 141.923 1382.36 140.195 1381.85 137.09L1376.1 133.596L1374.88 129.271C1378.85 129.361 1381.16 129.181 1384.75 127.43Z" fill="#593B3E"/>
<path d="M1407.07 195.184C1412.82 199.083 1418.4 210.998 1419.58 217.894C1420.99 226.053 1417.21 234.167 1412.26 240.417C1396.46 260.405 1357.74 278.758 1332.73 282.317L1327.55 280.013C1344.21 270.576 1365.07 256.604 1375.52 240.348C1378.31 236.035 1379.02 232.694 1378.01 227.675C1380.91 227.612 1383.05 227.02 1385.46 225.346C1394.32 219.195 1405.37 205.958 1407.07 195.184Z" fill="#593B3E"/>
<path d="M1510.69 76.2495C1529.01 75.1185 1600.41 69.5728 1612.35 79.7186C1612.47 79.8141 1612.58 79.9192 1612.68 80.0186L1611.22 83.0063L1604.14 85.058C1600.51 95.4351 1551.86 116.159 1540.11 129.187C1526.07 144.762 1517.02 169.238 1499.04 180.125C1495.73 184.052 1492.68 188.656 1487.84 190.679L1487.52 186.975L1485.51 183.699C1485.15 181.705 1484.65 180.977 1483.56 179.317L1476.76 178.451C1461.84 177.783 1445.72 176.818 1431.04 179.754C1431.69 176.642 1432.02 173.608 1431.67 170.435C1429.9 153.154 1417.52 125.076 1403.82 114.065C1403.7 113.526 1403.67 112.972 1403.49 112.447C1401.13 104.926 1386.93 100.509 1380.57 98.077C1409.05 90.3535 1437.86 87.2531 1467.06 83.4821C1480.83 81.7016 1497.68 80.8075 1510.69 76.2495Z" fill="#A06D63"/>
<path d="M1568.41 92.1417C1574.2 90.2721 1580.09 88.745 1586.06 87.5606C1592.04 86.3762 1598.06 85.542 1604.14 85.058C1600.51 95.4351 1551.86 116.159 1540.11 129.187C1526.07 144.762 1517.02 169.238 1499.04 180.125C1495.73 184.052 1492.68 188.656 1487.84 190.679L1487.52 186.975L1492.31 184.094C1498.33 172.734 1518.97 145.144 1515.98 133.012C1493.48 131.115 1472.64 132.517 1450.17 128.007C1467.97 123.968 1485.8 118.029 1503.55 113.411C1522.58 108.458 1545.01 104.746 1563.04 97.0722C1566.36 95.6624 1567 95.672 1568.41 92.1417Z" fill="#D08059"/>
<path d="M1510.69 76.2495C1529.01 75.1185 1600.41 69.5728 1612.35 79.7186C1612.47 79.8141 1612.58 79.9192 1612.68 80.0186L1611.22 83.0063L1604.14 85.058C1598.06 85.542 1592.04 86.3762 1586.06 87.5606C1580.09 88.745 1574.2 90.2721 1568.41 92.1417C1536.64 96.3457 1504.91 100.778 1473.21 105.438C1450.24 108.802 1427.05 113.253 1403.82 114.065C1403.7 113.526 1403.67 112.972 1403.49 112.447C1401.13 104.926 1386.93 100.509 1380.57 98.077C1409.05 90.3535 1437.86 87.2531 1467.06 83.4821C1480.83 81.7016 1497.68 80.8075 1510.69 76.2495Z" fill="#CE9F79"/>
<path d="M355.704 289.165C330.602 282.932 301.74 274.188 282.986 255.417C243.833 216.226 277.625 177.494 277.134 136.89C277.054 130.255 279.335 124.522 283.223 119.158L284.379 120.667C296.583 123.022 309.483 122.696 321.886 122.828C343.014 122.339 363.359 121.888 384.226 125.94C400.087 126.48 415.822 126.839 431.687 126.297L438.117 125.5C465.627 125.43 493.13 124.937 520.624 124.022C532.217 124.673 543.9 125.666 555.514 125.563C613.456 130.845 672.408 125.514 730.539 127.313L733.336 129.646C726.136 130.608 719.139 131.936 712.051 133.527C747.14 134.569 782.255 133.953 817.353 134.622C837.27 135.002 859.152 137.577 878.842 136.085C891.952 134.143 905.402 136.557 918.548 134.118L917.591 130.645L920.526 128.098C986.039 127.468 1051.55 127.174 1117.05 127.218C1147.37 127.212 1178.36 125.976 1208.59 127.71C1219.17 127.565 1230.1 126.822 1240.64 127.703L1240.22 131.68C1229.41 139.163 1217.35 144.841 1206.81 152.604C1193.59 162.33 1180.85 177.057 1166.61 184.736C1123.24 194.571 1076.26 177.219 1032.67 189.069C1037.82 197.862 1043.29 206.591 1047.74 215.762C1047.7 226.393 1046.31 239.248 1047.95 249.617C1047.05 256.099 1046.15 262.48 1044.55 268.834C1037.29 275.701 1030.47 282.116 1020.44 284.363C986.597 291.941 905.022 287.349 867.243 286.944C824.465 286.485 781.557 287.8 738.823 286.604C717.278 286 675.112 287.918 658.502 274.36C651.727 268.753 648.936 260.776 645.682 252.903L347.94 253.23C352.895 258.418 357.007 263.779 361.082 269.678C350.84 264.774 345.947 250.357 335.55 247.913C339.451 262.081 348.763 276.225 355.704 289.165Z" fill="#593B3E"/>
<path d="M284.379 120.667C296.583 123.022 309.483 122.696 321.886 122.828C315.234 124.356 309.078 124.805 302.261 124.904C301.959 131.338 301.822 133.203 306.266 138.271C335.76 171.91 386.089 161.611 402.433 172.856C383.725 174.277 355.035 172.644 337.564 166.382C318.911 159.697 292.94 139.19 284.379 120.667Z" fill="#B58566"/>
<path d="M918.548 134.118C945.708 134.049 974.092 134.215 1001.18 135.759C1022.79 154.362 1062.81 163.9 1091.01 161.772C1109.28 160.393 1133.71 152.518 1149.57 143.392L1151.14 140.548C1148.79 138.412 1146.49 138.299 1143.48 137.866C1163.25 137.136 1157.92 144.6 1167.32 146.256C1166.55 147.175 1165.71 147.92 1164.76 148.667C1155.65 155.926 1142.39 159.283 1131.32 162.454C1067.13 180.87 1036.58 156.264 976.931 145.733C944.558 140.017 911.485 139.518 878.842 136.085C891.952 134.143 905.402 136.557 918.548 134.118Z" fill="url(#paint5_linear_71_20357)"/>
<path d="M1001.18 135.759C1047.72 141.868 1096.57 135.913 1143.48 137.866C1146.49 138.299 1148.79 138.412 1151.14 140.548L1149.57 143.392C1133.71 152.518 1109.28 160.393 1091.01 161.772C1062.81 163.9 1022.79 154.362 1001.18 135.759Z" fill="#7C504A"/>
<path d="M920.526 128.098C986.039 127.468 1051.55 127.174 1117.05 127.218C1147.37 127.212 1178.36 125.976 1208.59 127.71C1206.69 132.333 1203.24 133.846 1198.71 135.795C1189.54 139.738 1176.97 144.606 1167.32 146.256C1157.92 144.6 1163.25 137.136 1143.48 137.866C1096.57 135.913 1047.72 141.868 1001.18 135.759C974.092 134.215 945.708 134.049 918.548 134.118L917.591 130.645L920.526 128.098Z" fill="#D08059"/>
<path d="M883.498 259.767C890.972 255.043 898.674 250.727 906.604 246.817C947.962 225.904 967.201 221.604 1012.05 236.058C1018.99 238.291 1022.52 238.23 1029.21 234.808C1028.04 242.985 1026.69 250.674 1019.48 255.88C1001.27 269.04 909.011 261.198 883.498 259.767Z" fill="#7C504A"/>
<path d="M662.84 236.684C696.742 223.493 712.493 217.342 747.667 232.764C767.991 241.676 787.279 252.909 807.796 261.351C778.971 260.256 700.16 267.911 677.198 257.305C668.463 253.272 666.18 244.991 662.84 236.684Z" fill="#7C504A"/>
<path d="M321.886 122.828C343.014 122.339 363.359 121.888 384.226 125.94C396.64 139.602 410.474 152.088 422.602 165.952L428.19 170.984L428.318 173.687C421.045 176.713 410.083 174.218 402.433 172.856C386.089 161.611 335.76 171.91 306.266 138.271C301.822 133.203 301.959 131.338 302.261 124.904C309.078 124.805 315.234 124.356 321.886 122.828Z" fill="#A06D63"/>
<path d="M321.886 122.828C343.014 122.339 363.359 121.888 384.226 125.94C396.64 139.602 410.474 152.088 422.602 165.952C421.381 165.946 420.206 165.883 419.001 165.654C403.18 162.649 391.43 144.783 376.349 139.165C352.918 130.435 329.387 136.007 302.261 124.904C309.078 124.805 315.234 124.356 321.886 122.828Z" fill="#CE9F79"/>
<path d="M660.856 224.71C659.373 211.229 657.388 196.11 666.74 184.851C673.79 176.359 683.107 176.168 693.409 175.404C746.61 171.454 811.682 174.743 865.958 174.844C905.968 174.919 975.967 170.821 1011.65 177.872C1023.09 187.556 1030.24 196.258 1031.29 211.733C1031.71 217.965 1030.79 224.531 1030.14 230.732C1019.25 223.711 1019.87 204.462 1008.28 195.488C994.057 184.48 970.508 188.037 953.799 190.083C946.18 187.136 939.377 188.29 931.603 189.652L774.827 187.18C751.35 186.862 727.152 184.539 703.756 186.454C695.141 187.159 679.968 187.991 673.711 194.678C665.865 203.062 667.137 215.961 660.856 224.71Z" fill="url(#paint6_linear_71_20357)"/>
<path d="M646.425 229.36C647.129 246.504 650.369 259.163 658.502 274.36C651.727 268.753 648.936 260.776 645.682 252.903L347.94 253.23C352.895 258.418 357.007 263.779 361.082 269.678C350.84 264.774 345.947 250.357 335.55 247.913C335.183 240.054 331.127 235.964 326.834 229.542C363.696 234.004 403.789 230.695 441.035 230.848C509.175 231.125 578.48 234.017 646.425 229.36Z" fill="#422831"/>
<path d="M520.624 124.022C532.217 124.673 543.9 125.666 555.514 125.563C613.456 130.845 672.408 125.514 730.539 127.313L733.336 129.646C726.136 130.608 719.139 131.936 712.051 133.527C664.272 137.046 644.003 152.348 601.842 170.198C567.562 184.711 532.151 177.422 498.982 164.085C486.174 158.935 436.083 136.595 431.687 126.297L438.117 125.5C465.627 125.43 493.13 124.937 520.624 124.022Z" fill="url(#paint7_linear_71_20357)"/>
<path d="M553.355 136.62C580.095 133.835 608.49 136.681 635.383 137.747C609.018 157.89 586.508 170.028 552.507 169.881C521.163 163.944 496.434 154.111 468.131 139.448C496.564 139.229 524.971 138.286 553.355 136.62Z" fill="url(#paint8_linear_71_20357)"/>
<path d="M660.856 224.71C667.137 215.961 665.865 203.062 673.711 194.678C679.968 187.991 695.141 187.159 703.756 186.454C727.152 184.539 751.35 186.862 774.827 187.18L931.603 189.652C939.377 188.29 946.18 187.136 953.799 190.083C970.508 188.037 994.057 184.48 1008.28 195.488C1019.87 204.462 1019.25 223.711 1030.14 230.732L1029.21 234.808C1022.52 238.23 1018.99 238.291 1012.05 236.058C967.201 221.604 947.962 225.904 906.604 246.817C898.674 250.727 890.972 255.043 883.498 259.767C858.287 260.654 833.024 261.939 807.796 261.351C787.279 252.909 767.991 241.676 747.667 232.764C712.493 217.342 696.742 223.493 662.84 236.684L660.856 224.71Z" fill="#A06D63"/>
<path d="M931.603 189.652C939.377 188.29 946.18 187.136 953.799 190.083C953.22 193.1 950.754 195.398 948.643 197.595C926.555 220.603 862.83 248.051 830.436 248.485C808.645 248.777 782.86 233.355 767.748 217.841C762.966 212.931 757.472 205.041 757.646 197.941C757.686 196.342 759.308 195.455 760.404 194.376C782.251 192.104 798.884 226.233 823.117 232.147C858.95 240.895 902.699 207.565 931.603 189.652Z" fill="#593B3E"/>
<path d="M730.539 127.313L849.866 127.729C873.309 127.928 897.135 129.246 920.526 128.098L917.591 130.645L918.548 134.118C905.402 136.557 891.952 134.143 878.842 136.085C859.152 137.577 837.27 135.002 817.353 134.622C782.255 133.953 747.14 134.569 712.051 133.527C719.139 131.936 726.136 130.608 733.336 129.646L730.539 127.313Z" fill="#B58566"/>
<path d="M154.421 385.841L165.378 391.05C165.34 422.292 165.311 454.594 168.091 485.698C184.487 505.675 200.489 526.45 218.031 545.414L216.921 551.082C213.593 552.528 212.305 552.104 208.767 551.705C198.899 541.351 187.292 532.236 175.345 524.417C168.891 529.485 163.2 535.889 157.413 541.71C157.99 549.875 158.861 558.016 157.658 566.16C154.828 548.442 155.871 528.836 155.506 510.854C154.782 469.185 154.42 427.514 154.421 385.841Z" fill="#B58566"/>
<path d="M66.326 60.9132C115.325 60.8005 164.478 66.7837 213.24 71.3188C232.255 73.0859 255.546 77.7357 274.504 76.0469C282.782 76.6984 299.51 75.8578 305.863 81.1533L304.533 81.6118C270.069 84.0628 235.386 86.8042 200.812 86.6857C173.572 92.3843 139.414 88.212 111.427 86.3093L106.775 82.3052C93.8678 73.9494 78.8646 70.3809 66.326 60.9132Z" fill="#F8E667"/>
<path d="M106.775 82.3052C123.695 79.7358 185.971 76.2934 199.608 85.7649C200.022 86.0514 200.41 86.3782 200.812 86.6857C173.572 92.3843 139.414 88.212 111.427 86.3093L106.775 82.3052Z" fill="#CE9F79"/>
<path d="M165.378 391.05C181.999 401.683 199.654 414.987 217.639 422.951C222.679 457.865 216.01 507.748 218.031 545.414C200.489 526.45 184.487 505.675 168.091 485.698C165.311 454.594 165.34 422.292 165.378 391.05Z" fill="#7C504A"/>
<path d="M68.416 161.86C67.0959 128.841 64.509 95.8133 63.7639 62.7815L66.326 60.9132C78.8646 70.3809 93.8678 73.9494 106.775 82.3052L111.427 86.3093C139.414 88.212 173.572 92.3843 200.812 86.6857C235.386 86.8042 270.069 84.0628 304.533 81.6118L303.979 83.6711C297.89 94.86 291.498 109.575 283.223 119.158C279.335 124.522 277.054 130.255 277.134 136.89C277.625 177.494 243.833 216.226 282.986 255.417C301.74 274.188 330.602 282.932 355.704 289.165C348.763 276.225 339.451 262.081 335.55 247.913C345.947 250.357 350.84 264.774 361.082 269.678C366.03 275.407 370.899 281.202 375.688 287.064L384.151 297.229C420.766 323.475 463.974 333.608 503.846 353.487C483.784 351.785 457.373 347.143 438.092 353.275C401.716 354.939 341.392 333.09 305.011 322.734C315.383 350.908 324.27 379.538 334.341 407.79L331.02 410.889C328.791 410.352 327.132 410.028 325.149 408.801C301.967 398.283 278.294 388.727 254.709 379.158C242.598 372.111 230.474 366.815 217.494 361.627C216.971 381.867 215.635 402.793 217.639 422.951C199.654 414.987 181.999 401.683 165.378 391.05L154.421 385.841L154.538 342.546C128.392 344.89 100.66 342.143 74.6748 339.048C73.8246 280.034 68.7026 220.794 68.416 161.86Z" fill="#553E54"/>
<path d="M118.001 193.081C124.732 191.476 128.415 191.845 134.493 195.501C142.53 200.334 149.964 209.785 152.079 219.04C152.209 219.614 152.308 220.194 152.423 220.773C144.873 214.236 138.459 208.522 129.373 204.117C125.37 201.373 121.478 196.565 118.001 193.081Z" fill="#593B3E"/>
<path d="M78.8035 194.752C91.581 191.508 99.907 188.683 112.224 195.239L118.001 193.081C121.478 196.565 125.37 201.373 129.373 204.117C138.459 208.522 144.873 214.236 152.423 220.773C171.985 250.292 195.334 276.907 216.224 305.436C189.375 284.353 156.966 249.293 125.645 237.196C118.127 234.293 109.415 233.305 101.475 231.994C91.4681 220.336 84.8369 208.723 78.8035 194.752Z" fill="#422831"/>
<path d="M118.001 193.081C121.478 196.565 125.37 201.373 129.373 204.117C136.061 214.289 163.97 244.698 164.497 253.91C151.166 250.328 151.481 229.446 109.385 225.316C103.231 217.346 97.6124 209.227 92.135 200.783L112.224 195.239L118.001 193.081Z" fill="#172B48"/>
<path d="M68.416 161.86C67.0959 128.841 64.509 95.8133 63.7639 62.7815L66.326 60.9132C78.8646 70.3809 93.8678 73.9494 106.775 82.3052L111.427 86.3093C124.807 107.067 151.789 138.353 157.113 161.634C166.622 180.709 180.647 197.465 189.548 216.685C166.127 199.553 153.315 169.975 133.87 148.793C121.841 139.522 110.944 132.639 95.0522 134.771C86.5734 135.91 79.0767 139.581 71.5168 143.379C71.4652 147.269 72.3058 163.031 70.4603 165.014L68.416 161.86Z" fill="#7C504A"/>
<path d="M115.909 108.838C132.932 123.592 141.363 146.26 157.113 161.634C166.622 180.709 180.647 197.465 189.548 216.685C166.127 199.553 153.315 169.975 133.87 148.793C126.18 135.793 120.12 123.456 115.909 108.838Z" fill="#281F2B"/>
<path d="M200.812 86.6857C235.386 86.8042 270.069 84.0628 304.533 81.6118L303.979 83.6711C295.68 89.7231 290.873 100.232 283.196 105.671C271.267 108.683 260.353 122.394 254.377 132.601C243.51 151.166 237.553 171.738 233.074 192.634C231.789 198.632 231.607 208.48 228.917 213.636C228.741 213.43 228.531 213.246 228.392 213.013C224.154 205.926 231.49 187.134 233.741 179.345C211.751 177.003 189.909 174.93 167.808 173.922C175.108 184.767 191.389 204.287 192.415 216.88L189.548 216.685C180.647 197.465 166.622 180.709 157.113 161.634C151.789 138.353 124.807 107.067 111.427 86.3093C139.414 88.212 173.572 92.3843 200.812 86.6857Z" fill="url(#paint9_linear_71_20357)"/>
<path d="M283.196 105.671C290.873 100.232 295.68 89.7231 303.979 83.6711C297.89 94.86 291.498 109.575 283.223 119.158C279.335 124.522 277.054 130.255 277.134 136.89C277.625 177.494 243.833 216.226 282.986 255.417C301.74 274.188 330.602 282.932 355.704 289.165C348.763 276.225 339.451 262.081 335.55 247.913C345.947 250.357 350.84 264.774 361.082 269.678C366.03 275.407 370.899 281.202 375.688 287.064L384.151 297.229C420.766 323.475 463.974 333.608 503.846 353.487C483.784 351.785 457.373 347.143 438.092 353.275C401.716 354.939 341.392 333.09 305.011 322.734C315.383 350.908 324.27 379.538 334.341 407.79L331.02 410.889C328.791 410.352 327.132 410.028 325.149 408.801C301.967 398.283 278.294 388.727 254.709 379.158C242.598 372.111 230.474 366.815 217.494 361.627C216.971 381.867 215.635 402.793 217.639 422.951C199.654 414.987 181.999 401.683 165.378 391.05L154.421 385.841L154.538 342.546L155.592 342.239C160.063 334.697 164.088 326.874 168.23 319.146C212.109 333.763 257.672 350.23 299.419 369.996C292.682 355.787 287.466 340.777 280.837 326.473C274.162 312.069 266.05 298.478 258.58 284.491C245.819 276.303 233.835 228.594 228.917 213.636C231.607 208.48 231.789 198.632 233.074 192.634C237.553 171.738 243.51 151.166 254.377 132.601C260.353 122.394 271.267 108.683 283.196 105.671Z" fill="#281F2B"/>
<path d="M228.917 213.636C231.607 208.48 231.789 198.632 233.074 192.634C237.553 171.738 243.51 151.166 254.377 132.601C260.353 122.394 271.267 108.683 283.196 105.671C272.649 122.994 259.069 140.078 252.602 159.432C246.574 177.473 246.247 196.779 237.98 214.201C242.833 238.656 249.839 261.165 258.58 284.491C245.819 276.303 233.835 228.594 228.917 213.636Z" fill="#CE9F79"/>
<path d="M154.538 342.546L155.592 342.239C177.336 346.862 196.469 355.739 217.494 361.627C216.971 381.867 215.635 402.793 217.639 422.951C199.654 414.987 181.999 401.683 165.378 391.05L154.421 385.841L154.538 342.546Z" fill="#3D1B19"/>
<path d="M289.01 288.703C330.348 305.189 370.86 321.565 410.478 341.929C402.655 326.612 392.273 312.479 384.151 297.229C420.766 323.475 463.974 333.608 503.846 353.487C483.784 351.785 457.373 347.143 438.092 353.275C401.716 354.939 341.392 333.09 305.011 322.734C315.383 350.908 324.27 379.538 334.341 407.79L331.02 410.889C328.791 410.352 327.132 410.028 325.149 408.801C324.91 384.744 297.672 316.543 289.01 288.703Z" fill="#274968"/>
<path d="M1358.62 1373.6C1363.43 1370.9 1365.61 1369.03 1371.19 1369.07C1385.98 1370.62 1410.32 1375.39 1422.31 1384.26C1431.64 1387.17 1442.76 1389.47 1451.03 1394.68L1471.39 1400.89C1485.74 1403.91 1499.61 1406.97 1514.38 1405.8C1518.76 1405.88 1521.89 1406.69 1525.61 1404.11C1528.37 1394.23 1533.83 1385.62 1536.33 1375.58C1548.73 1381.07 1548.25 1397.75 1564.45 1399.83C1565.22 1399.93 1565.96 1400.08 1566.71 1400.2L1568.26 1400.43C1579.87 1400.26 1591.51 1399.6 1603.12 1399.14L1606.1 1399.72C1611.3 1400.82 1617.03 1401.2 1620.72 1405.32L1620.09 1408.02C1621.02 1425.86 1616.42 1445.04 1614.66 1462.8C1614.05 1469.14 1616.02 1479.14 1614.19 1484.88C1613.75 1486.27 1611.74 1488.49 1610.84 1489.78C1614.07 1498.11 1606.96 1541.97 1603.12 1551.07C1602.99 1551.42 1602.82 1551.76 1602.66 1552.1C1606.24 1565.2 1605.07 1633.59 1599.46 1644.06C1599.02 1644.89 1598.48 1645.68 1597.98 1646.48C1526.66 1662.65 1449.56 1665.91 1376.63 1665.85C1382.98 1659.57 1386.97 1647.97 1387.06 1639.06C1387.1 1635.22 1386.57 1632.39 1384.37 1629.2L1380.28 1627.05C1362.88 1629.61 1344.75 1629.03 1327.15 1629.19C1295.49 1632.18 1260.4 1631.16 1228.68 1629.66L1209.79 1630.47L1210.5 1634.44C1203.16 1639.16 1194.35 1647.54 1186.65 1650.85C1180.75 1653.39 1152.28 1649.12 1143.49 1648.82C1121.7 1648.07 1099.65 1648.85 1077.83 1648.83L722.039 1650.39C702.577 1650.47 683.331 1652.86 663.851 1652.75C643.116 1652.63 622.336 1652.08 601.605 1652.37C588.052 1652.56 574.073 1655.18 560.778 1652.53C552.688 1650.92 546.13 1648.93 537.972 1651.41C525.754 1655.13 496.279 1649.18 481.723 1648.65C438.515 1647.1 395.54 1648.11 352.357 1647.63C334.576 1647.43 315.431 1644.34 297.793 1645.75C297.651 1650.78 297.42 1651.86 294.843 1656.16C288.787 1660.37 282.984 1660.81 275.852 1660.93C246.035 1661.43 100.006 1656.22 82.2271 1638.83C70.0934 1608.86 80.0013 1568.16 80.0357 1536.14C80.8553 1520.85 81.7361 1505.61 83.2836 1490.37C80.5267 1462.7 72.5503 1436.99 63.1449 1410.96L57.2663 1393.08L62.6807 1390.27C72.5065 1389.34 82.3551 1389.02 92.2133 1388.64C105.186 1387.9 121.654 1388.09 133.593 1382.87C137.045 1389.3 139.963 1394.98 145.589 1399.76L146.07 1400.58C177.642 1401.92 205.296 1400.5 236.282 1393.86L276.756 1380.91L290.558 1375.79L297.407 1376.01C300.639 1372.75 302.714 1370.11 307.498 1369.47C310.945 1371.74 311.6 1372.4 312.549 1376.71C314.771 1386.79 312.456 1401.44 309.263 1411.17C329.967 1432.13 355.582 1463.72 385.787 1469.78C401.155 1478.79 397.114 1493.7 416.491 1501C460.436 1517.57 537.04 1528.85 584.103 1531.46C646.309 1534.92 709.329 1529.55 771.432 1525.89C847.172 1521.44 922.983 1517.45 998.379 1508.68C1019.69 1506.21 1046.33 1505.04 1066.6 1498.64C1066.9 1498.54 1067.19 1498.39 1067.5 1498.27C1098.45 1484.4 1153.96 1486.75 1178.04 1475.12C1175.82 1471.5 1168.83 1470.24 1164.78 1468.76L1168.06 1466.82L1217.05 1467.45C1229.29 1463.99 1266.47 1465.69 1281.74 1465.3L1282.62 1459.73C1279.18 1450.71 1273.58 1444.9 1265.94 1439.19C1273.64 1441.66 1281.13 1443.91 1288.04 1448.23C1304.97 1448.81 1348.66 1468.75 1366.72 1475.5L1389.76 1484.34C1390.62 1482.7 1391.4 1480.95 1391.63 1479.09C1393.12 1467.15 1366.35 1384.5 1358.62 1373.6ZM776.81 1629.54C722.577 1629.24 668.345 1629.37 614.115 1629.94L578.377 1630.41C505.363 1631.06 432.243 1632.62 359.242 1632.51C348.677 1632.49 302.345 1628.09 296.123 1631.99C294.701 1636.96 296.337 1641.01 297.793 1645.75C315.431 1644.34 334.576 1647.43 352.357 1647.63C395.54 1648.11 438.515 1647.1 481.723 1648.65C496.279 1649.18 525.754 1655.13 537.972 1651.41C546.13 1648.93 552.688 1650.92 560.778 1652.53C574.073 1655.18 588.052 1652.56 601.605 1652.37C622.336 1652.08 643.116 1652.63 663.851 1652.75C683.331 1652.86 702.577 1650.47 722.039 1650.39L1077.83 1648.83C1099.65 1648.85 1121.7 1648.07 1143.49 1648.82C1152.28 1649.12 1180.75 1653.39 1186.65 1650.85C1194.35 1647.54 1203.16 1639.16 1210.5 1634.44L1209.79 1630.47C1174.43 1628 1129.53 1629.9 1093.17 1629.46C987.719 1628.68 882.264 1628.71 776.81 1629.54Z" fill="#281F2B"/>
<path d="M283.105 1516.25C282.948 1511.23 282.396 1506.47 284.457 1501.77C296.549 1498.37 324.383 1488.89 335.651 1493.77L336.576 1496.52L333.001 1502.02C328.015 1499.1 324.118 1500.12 318.562 1501.54C306.396 1504.63 294.253 1510.54 283.105 1516.25Z" fill="#3D1B19"/>
<path d="M283.105 1516.25C294.253 1510.54 306.396 1504.63 318.562 1501.54C324.118 1500.12 328.015 1499.1 333.001 1502.02L332.012 1503.82C316.875 1519.21 301.604 1533.82 284.79 1547.4C282.879 1537.38 283.382 1526.44 283.105 1516.25Z" fill="#5C302E"/>
<path d="M1288.04 1448.23C1304.97 1448.81 1348.66 1468.75 1366.72 1475.5L1389.76 1484.34C1393.2 1487.12 1395.81 1489.78 1397.32 1494.03C1402.25 1507.76 1401.11 1527.48 1395.11 1540.65C1391.95 1525.31 1305.66 1462.06 1288.04 1448.23Z" fill="#422831"/>
<path d="M330.023 1569.38C339.95 1565.29 350.528 1559.87 361.453 1560.04C406.449 1560.78 451.422 1575.29 496.657 1578.08C540.457 1580.79 583.384 1572.22 626.77 1574.3C613.605 1579.72 578.614 1597.13 566.19 1596.01C538.144 1594.49 510.594 1603.57 481.746 1601.28C420.199 1596.38 386.847 1573.85 318.974 1580.87L330.023 1569.38Z" fill="#5C302E"/>
<path d="M332.012 1503.82C333.704 1523.7 315.125 1551.1 329.566 1568.81C329.721 1569 329.87 1569.19 330.023 1569.38L318.974 1580.87C386.847 1573.85 420.199 1596.38 481.746 1601.28C510.594 1603.57 538.144 1594.49 566.19 1596.01C559.622 1601.69 548.485 1603.98 540.217 1606.27C475.288 1624.25 443.471 1602.05 381.488 1596.79C351.503 1594.24 320.95 1598.29 290.745 1596.4L284.79 1547.4C301.604 1533.82 316.875 1519.21 332.012 1503.82Z" fill="#3D1B19"/>
<path d="M768.969 1626.36C785.875 1620.48 812.062 1623.71 830.193 1623.24C891.173 1621.68 952.332 1622.04 1013.26 1619.09C1067.86 1616.45 1121.08 1609.86 1175.08 1601.85C1191.77 1599.37 1220.91 1598.64 1235.66 1592.14L1237.09 1592.62C1255.81 1598.7 1280.55 1591.67 1298.19 1602.29L1298.8 1604.9C1282.45 1608.4 1180.9 1617.75 1173.59 1624.63C1189.39 1625.5 1205.68 1623.75 1221.1 1627.82C1223.47 1628.44 1226.68 1628.35 1228.68 1629.66L1209.79 1630.47C1174.43 1628 1129.53 1629.9 1093.17 1629.46C987.719 1628.68 882.264 1628.71 776.81 1629.54L765.45 1627.75L768.969 1626.36Z" fill="url(#paint10_linear_71_20357)"/>
<path d="M578.377 1630.41C594.928 1621.05 618.226 1615.02 636.435 1608.68C663.748 1599.15 691.823 1589.39 720.077 1583.12C835.703 1557.45 985.659 1561.94 1105.23 1565.88C1098.58 1573.06 1056.61 1572.83 1044.7 1573.4C921.603 1579.25 799.984 1587.34 678.68 1610.97C662.712 1614.08 626.369 1619.65 614.115 1629.94L578.377 1630.41Z" fill="url(#paint11_linear_71_20357)"/>
<path d="M1235.66 1592.14C1250.44 1586.32 1266.45 1584.02 1281.87 1580.41C1305.89 1574.79 1369.93 1555.86 1391.13 1567.13C1394.71 1569.04 1397.06 1571.8 1397.82 1575.83C1398.72 1580.7 1395.59 1587.41 1393.9 1591.97C1391.06 1595.13 1388.94 1595.73 1384.83 1596.46C1389.53 1600.38 1390.48 1602.69 1390.87 1608.88C1391.17 1613.63 1389.74 1620.08 1386.51 1623.71C1384.77 1625.66 1382.75 1626.41 1380.28 1627.05C1362.88 1629.61 1344.75 1629.03 1327.15 1629.19C1295.49 1632.18 1260.4 1631.16 1228.68 1629.66C1226.68 1628.35 1223.47 1628.44 1221.1 1627.82C1205.68 1623.75 1189.39 1625.5 1173.59 1624.63C1180.9 1617.75 1282.45 1608.4 1298.8 1604.9L1298.19 1602.29C1280.55 1591.67 1255.81 1598.7 1237.09 1592.62L1235.66 1592.14Z" fill="#422831"/>
<path d="M1256.19 1626.49C1293.16 1618.62 1353.4 1614.95 1384.83 1596.46C1389.53 1600.38 1390.48 1602.69 1390.87 1608.88C1391.17 1613.63 1389.74 1620.08 1386.51 1623.71C1384.77 1625.66 1382.75 1626.41 1380.28 1627.05C1362.88 1629.61 1344.75 1629.03 1327.15 1629.19C1304.3 1625.74 1279.56 1629.12 1256.19 1626.49Z" fill="#172B48"/>
<path d="M1105.23 1565.88C1146.67 1565.15 1187.28 1569.69 1228.61 1570.73C1212.04 1579.97 1181.9 1579.74 1162.66 1581.53C1046.77 1592.33 928.232 1588.5 813.545 1609.03C796.375 1612.1 777.666 1614.49 761.415 1620.69C763.622 1623.42 765.916 1624.69 768.969 1626.36L765.45 1627.75L776.81 1629.54C722.577 1629.24 668.345 1629.37 614.115 1629.94C626.369 1619.65 662.712 1614.08 678.68 1610.97C799.984 1587.34 921.603 1579.25 1044.7 1573.4C1056.61 1572.83 1098.58 1573.06 1105.23 1565.88Z" fill="#422831"/>
<path d="M57.2663 1393.08C63.0322 1397.4 68.7485 1401.81 74.694 1405.87L87.0645 1414.43C91.3134 1417.72 95.702 1421.78 100.259 1424.55C116.215 1435.62 131.543 1449.41 145.662 1462.75C163.376 1479.49 228.911 1551.07 246.459 1552.58L248.695 1550.79C253.108 1574.3 261.463 1597.05 269.584 1619.48C249.104 1591.62 221.976 1550.48 188.054 1538.64C181.29 1536.27 175.784 1535.8 169.128 1539.03C166.545 1542.19 165.206 1543.33 164.879 1547.56C163.217 1569.04 205.485 1615.53 219.814 1632.61C165.022 1612.15 162.329 1580.96 131.469 1539.39C117.608 1520.72 100.788 1505.55 83.2836 1490.37C80.5267 1462.7 72.5503 1436.99 63.1449 1410.96L57.2663 1393.08Z" fill="#422831"/>
<path d="M1593.99 1417.88C1602.8 1415.25 1611.57 1411.47 1620.09 1408.02C1621.02 1425.86 1616.42 1445.04 1614.66 1462.8C1614.05 1469.14 1616.02 1479.14 1614.19 1484.88C1613.75 1486.27 1611.74 1488.49 1610.84 1489.78C1599.84 1493.92 1574.64 1528.44 1564.63 1539.18C1541.11 1564.42 1494.7 1611.67 1463.71 1623.97C1482.13 1613.1 1528.44 1541.7 1533.83 1521.09C1534.23 1519.53 1534.27 1518.38 1534.27 1516.78L1532.86 1516.92C1512.72 1555.29 1441.84 1633.32 1401.34 1648.59C1410.35 1639.36 1415.7 1619.19 1416.01 1606.36L1420.25 1606.74C1422.29 1605.27 1423.88 1603.73 1425.35 1601.68C1435.09 1588.19 1457.2 1553.04 1454.68 1536.51C1514.09 1518.27 1535.63 1471.73 1580.69 1434.63C1586.27 1430.05 1593.27 1425.27 1593.99 1417.88Z" fill="#422831"/>
<path d="M290.558 1375.79L297.407 1376.01L280.843 1403.65C255.21 1457.29 239.561 1490.68 248.695 1550.79L246.459 1552.58C228.911 1551.07 163.376 1479.49 145.662 1462.75C131.543 1449.41 116.215 1435.62 100.259 1424.55C95.702 1421.78 91.3134 1417.72 87.0645 1414.43L74.694 1405.87C68.7485 1401.81 63.0322 1397.4 57.2663 1393.08L62.6807 1390.27C72.5065 1389.34 82.3551 1389.02 92.2133 1388.64C105.186 1387.9 121.654 1388.09 133.593 1382.87C137.045 1389.3 139.963 1394.98 145.589 1399.76L146.07 1400.58C177.642 1401.92 205.296 1400.5 236.282 1393.86L276.756 1380.91L290.558 1375.79Z" fill="url(#paint12_linear_71_20357)"/>
<path d="M290.558 1375.79L297.407 1376.01L280.843 1403.65L273.772 1401.13C263.816 1404.33 242.396 1406.55 234.927 1412.89C210.97 1432.49 131.524 1420.82 100.259 1424.55C95.702 1421.78 91.3134 1417.72 87.0645 1414.43L74.694 1405.87C68.7485 1401.81 63.0322 1397.4 57.2663 1393.08L62.6807 1390.27C72.5065 1389.34 82.3551 1389.02 92.2133 1388.64C105.186 1387.9 121.654 1388.09 133.593 1382.87C137.045 1389.3 139.963 1394.98 145.589 1399.76L146.07 1400.58C177.642 1401.92 205.296 1400.5 236.282 1393.86L276.756 1380.91L290.558 1375.79Z" fill="#D08059"/>
<path d="M92.2133 1388.64C105.186 1387.9 121.654 1388.09 133.593 1382.87C137.045 1389.3 139.963 1394.98 145.589 1399.76L146.07 1400.58C117.719 1398.92 91.1071 1390.09 62.6807 1390.27C72.5065 1389.34 82.3551 1389.02 92.2133 1388.64Z" fill="#436D89"/>
<path d="M74.694 1405.87C106.376 1405.32 137.626 1413.08 169.266 1412.22C204.368 1411.28 238.185 1399.8 273.772 1401.13C263.816 1404.33 242.396 1406.55 234.927 1412.89C186.376 1417.67 135.851 1414.82 87.0645 1414.43L74.694 1405.87Z" fill="#B2542F"/>
<path d="M234.927 1412.89C210.97 1432.49 131.524 1420.82 100.259 1424.55C95.702 1421.78 91.3134 1417.72 87.0645 1414.43C135.851 1414.82 186.376 1417.67 234.927 1412.89Z" fill="#985944"/>
<path d="M1371.19 1369.07C1385.98 1370.62 1410.32 1375.39 1422.31 1384.26C1431.64 1387.17 1442.76 1389.47 1451.03 1394.68L1471.39 1400.89C1485.74 1403.91 1499.61 1406.97 1514.38 1405.8C1518.76 1405.88 1521.89 1406.69 1525.61 1404.11C1528.37 1394.23 1533.83 1385.62 1536.33 1375.58C1548.73 1381.07 1548.25 1397.75 1564.45 1399.83C1565.22 1399.93 1565.96 1400.08 1566.71 1400.2L1568.26 1400.43C1579.87 1400.26 1591.51 1399.6 1603.12 1399.14L1606.1 1399.72C1611.3 1400.82 1617.03 1401.2 1620.72 1405.32L1620.09 1408.02C1611.57 1411.47 1602.8 1415.25 1593.99 1417.88C1593.27 1425.27 1586.27 1430.05 1580.69 1434.63C1535.63 1471.73 1514.09 1518.27 1454.68 1536.51C1457.2 1553.04 1435.09 1588.19 1425.35 1601.68C1423.88 1603.73 1422.29 1605.27 1420.25 1606.74L1416.01 1606.36C1429.74 1590.82 1437.96 1538.14 1437.54 1517.66C1437.16 1499.32 1426.92 1447.85 1413.72 1435.41C1413.77 1435.07 1413.85 1434.73 1413.87 1434.38C1414.33 1420.09 1381.28 1378.99 1371.19 1369.07Z" fill="#7C504A"/>
<path d="M1371.19 1369.07C1385.98 1370.62 1410.32 1375.39 1422.31 1384.26C1431.64 1387.17 1442.76 1389.47 1451.03 1394.68L1471.39 1400.89C1485.74 1403.91 1499.61 1406.97 1514.38 1405.8C1518.76 1405.88 1521.89 1406.69 1525.61 1404.11C1528.37 1394.23 1533.83 1385.62 1536.33 1375.58C1548.73 1381.07 1548.25 1397.75 1564.45 1399.83C1565.22 1399.93 1565.96 1400.08 1566.71 1400.2L1568.26 1400.43C1579.87 1400.26 1591.51 1399.6 1603.12 1399.14L1606.1 1399.72C1611.3 1400.82 1617.03 1401.2 1620.72 1405.32L1620.09 1408.02C1611.57 1411.47 1602.8 1415.25 1593.99 1417.88C1557.73 1423.55 1519.1 1426.43 1482.53 1422.08C1462.7 1419.71 1442.35 1414.63 1422.43 1414.1C1423.52 1420.71 1423.36 1426.18 1419.45 1431.84C1418.3 1433.51 1415.53 1434.46 1413.72 1435.41C1413.77 1435.07 1413.85 1434.73 1413.87 1434.38C1414.33 1420.09 1381.28 1378.99 1371.19 1369.07Z" fill="#A06D63"/>
<path d="M1536.33 1375.58C1548.73 1381.07 1548.25 1397.75 1564.45 1399.83C1565.22 1399.93 1565.96 1400.08 1566.71 1400.2L1568.26 1400.43C1553.53 1401.87 1540.48 1404.77 1525.61 1404.11C1528.37 1394.23 1533.83 1385.62 1536.33 1375.58Z" fill="#B2542F"/>
<path d="M287.134 1466.75C294.507 1448.31 305.184 1430.79 309.263 1411.17C329.967 1432.13 355.582 1463.72 385.787 1469.78C401.155 1478.79 397.114 1493.7 416.491 1501C460.436 1517.57 537.04 1528.85 584.103 1531.46C646.309 1534.92 709.329 1529.55 771.432 1525.89C847.172 1521.44 922.983 1517.45 998.379 1508.68C1019.69 1506.21 1046.33 1505.04 1066.6 1498.64C1066.9 1498.54 1067.19 1498.39 1067.5 1498.27C1098.45 1484.4 1153.96 1486.75 1178.04 1475.12C1175.82 1471.5 1168.83 1470.24 1164.78 1468.76L1168.06 1466.82L1217.05 1467.45C1229.29 1463.99 1266.47 1465.69 1281.74 1465.3C1289.3 1469.07 1296.12 1479.53 1301.19 1486.24C1309.1 1496.71 1336.72 1530.28 1334.85 1543.71C1224.46 1541.6 1114.3 1536.58 1003.81 1536.79C849.443 1537.08 695.203 1547.37 540.826 1548.42C507.454 1548.72 474.079 1548.82 440.704 1548.7C425.246 1548.64 408.833 1549.56 393.494 1548.13C385.271 1547.36 376.121 1544.4 368.93 1540.36C363.799 1537.48 359.825 1533.39 358.39 1527.53C354.059 1509.79 374.127 1484.23 383.12 1469.55C354.913 1472.55 329.358 1483.99 300.536 1484.14L287.134 1466.75Z" fill="#274968"/>
<path d="M1168.06 1466.82L1217.05 1467.45C1214.3 1472.08 1203.89 1473.73 1198.52 1475.06C1164.34 1483.57 1100.99 1497.39 1067.5 1498.27C1098.45 1484.4 1153.96 1486.75 1178.04 1475.12C1175.82 1471.5 1168.83 1470.24 1164.78 1468.76L1168.06 1466.82Z" fill="#436D89"/>
<path d="M1582.09 242.853C1587.92 246.429 1589.31 251.062 1590.8 257.343C1592.5 264.48 1593.27 274.987 1597.37 281.008L1598.82 280.368C1602.65 289.416 1603.14 314.684 1599.47 323.603C1599.36 323.854 1599.24 324.094 1599.13 324.341C1599.93 329.831 1599.4 335.373 1595.77 339.857C1585.3 352.782 1554.16 348.493 1537.31 361.68C1544.68 373.893 1542.5 426.671 1539.24 441.474C1538.83 443.268 1537.92 444.588 1536.83 445.996C1536.66 446.192 1536.52 446.395 1536.37 446.595C1538.49 454.12 1537.8 458.667 1534.08 465.605C1534.54 471.134 1534.27 474.062 1530.62 478.624C1532.99 485.643 1533.81 490.509 1530.75 497.617C1535.64 504.981 1536.37 517.378 1536.92 526.106C1538.09 544.575 1535.19 563.226 1535.24 581.724C1535.4 626.506 1540.54 697.111 1532.07 739.37C1531.14 744.117 1529.82 747.663 1525.54 750.389C1524.31 751.168 1523.05 751.82 1521.75 752.459L1520.17 754.064C1514.61 762.038 1533.3 746.843 1524 749.479C1534.07 754.463 1527.28 778.746 1531.25 789.946C1536.43 804.497 1537.55 866.551 1531.08 879.74C1530.56 880.787 1529.99 881.796 1529.32 882.755C1537.06 899.027 1533.33 954.49 1533.47 974.291L1534.5 1245.79C1534.48 1284.03 1532.47 1322.62 1533.56 1360.81C1533.71 1366.11 1534.08 1370.7 1536.33 1375.58C1533.83 1385.62 1528.37 1394.23 1525.61 1404.11C1521.89 1406.69 1518.76 1405.88 1514.38 1405.8C1499.61 1406.97 1485.74 1403.91 1471.39 1400.89L1451.03 1394.68C1442.76 1389.47 1431.64 1387.17 1422.31 1384.26C1423.98 1383.73 1425.68 1383.35 1427.01 1382.16C1430.68 1378.82 1430.95 1359.77 1431.25 1354C1431.9 1341.78 1433.87 1268.19 1429.86 1260.94C1429.08 1259.53 1427.11 1257.86 1425.98 1256.61C1428.9 1253.92 1429.92 1251.45 1430.45 1247.52C1433.89 1222.97 1432.97 1196.59 1433.07 1171.82L1433.66 1063.47L1434.35 873.952C1434.62 840.97 1436.97 807.806 1435.63 774.839C1435.27 766.166 1435.71 757.482 1430.49 750.373C1407.97 754.822 1453.21 700.261 1430.39 701C1434.02 693.596 1437.09 705.602 1436.8 697.5C1436.5 688.974 1437.71 683.636 1431.06 677.5C1431.9 674.287 1430.93 675.776 1430.39 672.5C1443.1 666.039 1413.95 681.744 1422.94 670.202C1426.88 665.16 1431.24 658.841 1430.39 652.208C1432.52 648.303 1433.6 644.857 1434.04 640.44C1438.48 595.912 1436.05 548.554 1435.51 503.827C1435.27 482.823 1437.12 458.426 1433.74 437.756C1433.22 434.541 1431.69 432.012 1429.67 429.515C1432 426.77 1433.74 423.906 1434.43 420.322C1437.08 406.746 1437.75 385.157 1429.86 373.227C1421.7 375.613 1411.94 377.79 1403.59 375.45C1405.96 373.387 1406.28 373.309 1406.97 370.281C1415.78 369.914 1443.41 357.629 1453.66 353.984C1481.06 344.262 1509.76 338.175 1536.85 327.844C1552.13 322.016 1571.07 313.213 1577.92 297.271C1581.5 288.94 1581.61 280.573 1578.32 272.192L1582.78 267.896C1585.89 258.995 1584.84 251.694 1582.09 242.853Z" fill="#422831"/>
<path d="M1467.08 455.005C1477.03 459.244 1477.7 473.665 1488.11 478.827C1489.41 479.471 1490.67 480.131 1491.99 480.747L1490.46 485.74C1490.23 486.644 1490.17 487.148 1489.79 487.954C1485.76 496.582 1472.69 503.079 1464.38 506.494C1465.24 505.132 1466.01 503.78 1466.69 502.313C1471.91 491.154 1471.51 466.291 1467.08 455.005Z" fill="#985944"/>
<path d="M1463.62 747.514C1473.82 751.6 1481.98 754.912 1488.7 763.868C1487.59 768.013 1487.88 768.608 1490.04 772.346C1493.84 778.973 1502.36 785.873 1500.53 794.302C1500.09 794.749 1499.61 795.184 1499.17 795.643C1492.93 802.153 1492.87 814.92 1485.21 819.984L1482.4 819.134L1479.53 811.451C1483.62 804.117 1482.28 792.659 1481.42 784.666C1479.86 770.155 1475.16 756.708 1463.62 747.514Z" fill="#985944"/>
<path d="M1479.53 811.451L1482.4 819.134L1485.21 819.984C1492.87 814.92 1492.93 802.153 1499.17 795.643C1499.61 795.184 1500.09 794.749 1500.53 794.302C1504.79 797.93 1505.63 799.099 1506.03 804.927C1507.5 825.941 1501.58 968.256 1494.72 981.281C1495.12 985.841 1495.2 989.108 1493.61 993.44L1488.68 995.173C1496.8 973.292 1483.6 840.979 1479.53 811.451Z" fill="#7C504A"/>
<path d="M1500.53 794.302C1502.36 785.873 1493.84 778.973 1490.04 772.346C1487.88 768.608 1487.59 768.013 1488.7 763.868C1492.77 764.846 1520.41 747.24 1524 749.479C1534.07 754.463 1527.28 778.746 1531.25 789.946C1536.43 804.497 1537.55 866.551 1531.08 879.74C1530.56 880.787 1529.99 881.796 1529.32 882.755C1527.87 892.494 1526.76 899.975 1520.63 907.994C1522.23 923.724 1505.9 967.756 1499.61 983.806L1499.55 981.392L1498.24 986.857L1494.72 981.281C1501.58 968.256 1507.5 825.941 1506.03 804.927C1505.63 799.099 1504.79 797.93 1500.53 794.302Z" fill="#B58566"/>
<path d="M1430.39 652.208C1438.71 665.892 1437.98 727.249 1433.89 743.284C1433.47 744.931 1432.69 746.447 1431.88 747.934C1431.62 748.448 1431.35 748.973 1431.06 749.479C1430.89 749.787 1430.68 750.075 1430.49 750.373C1407.97 754.822 1453.21 700.261 1430.39 701C1434.02 693.596 1437.09 705.602 1436.8 697.5C1436.5 688.974 1437.71 683.636 1431.06 677.5C1431.9 674.287 1430.93 675.776 1430.39 672.5C1443.1 666.039 1413.95 681.744 1422.94 670.202C1426.88 665.16 1431.24 658.841 1430.39 652.208Z" fill="#6391A9"/>
<path d="M1467.44 372.29C1490.44 371.125 1514.88 366.913 1537.31 361.68C1544.68 373.893 1542.5 426.671 1539.24 441.474C1538.83 443.268 1537.92 444.588 1536.83 445.996C1536.66 446.192 1536.52 446.395 1536.37 446.595C1538.49 454.12 1537.8 458.667 1534.08 465.605C1534.54 471.134 1534.27 474.062 1530.62 478.624C1530.49 484.353 1526.7 489.867 1522.61 493.729C1520.49 495.747 1518.35 496.941 1515.6 497.88C1518.91 493.469 1522.84 489.811 1523.57 484.292C1516.63 481.201 1500.95 486.615 1492.29 485.909L1490.46 485.74L1491.99 480.747C1490.67 480.131 1489.41 479.471 1488.11 478.827C1477.7 473.665 1477.03 459.244 1467.08 455.005L1467.27 451.492C1470.19 428.019 1476.36 394.955 1467.44 372.29Z" fill="#7C504A"/>
<path d="M1535.64 425.148C1535.93 425.62 1536.24 426.078 1536.5 426.563C1539.5 432.038 1537.75 440.866 1536.37 446.595C1538.49 454.12 1537.8 458.667 1534.08 465.605C1534.54 471.134 1534.27 474.062 1530.62 478.624C1530.49 484.353 1526.7 489.867 1522.61 493.729C1520.49 495.747 1518.35 496.941 1515.6 497.88C1518.91 493.469 1522.84 489.811 1523.57 484.292C1516.63 481.201 1500.95 486.615 1492.29 485.909L1490.46 485.74L1491.99 480.747C1490.67 480.131 1489.41 479.471 1488.11 478.827C1477.7 473.665 1477.03 459.244 1467.08 455.005L1467.27 451.492C1469.25 449.226 1469.54 446.693 1470.17 443.835L1470.46 442.437C1478.14 434.031 1520.47 432.692 1535.64 425.148Z" fill="#A06D63"/>
<path d="M1491.99 480.747C1492.29 480.657 1492.58 480.565 1492.89 480.481C1507.73 476.387 1515.99 455.692 1531.61 456.111C1534.78 459.918 1534.25 460.554 1534.08 465.605C1534.54 471.134 1534.27 474.062 1530.62 478.624C1530.49 484.353 1526.7 489.867 1522.61 493.729C1520.49 495.747 1518.35 496.941 1515.6 497.88C1518.91 493.469 1522.84 489.811 1523.57 484.292C1516.63 481.201 1500.95 486.615 1492.29 485.909L1490.46 485.74L1491.99 480.747Z" fill="#7C504A"/>
<path d="M1517.25 1224.62C1522.4 1235.63 1524.18 1274.13 1520.17 1286.15C1519.62 1287.82 1518.43 1289.48 1517.25 1290.76C1520.99 1297.89 1522 1393.35 1518.85 1401.61C1517.86 1404.21 1516.67 1404.56 1514.38 1405.8C1499.61 1406.97 1485.74 1403.91 1471.39 1400.89L1451.03 1394.68L1456.49 1392.97C1457.31 1391.57 1457.94 1390.54 1458.33 1388.93C1461.73 1373.99 1463.52 1320.73 1455.94 1308.63C1461.42 1305.75 1465.13 1301.6 1469.04 1296.94C1479.07 1285.02 1518.28 1237.14 1517.25 1224.62Z" fill="#5C302E"/>
<path d="M1471.39 1400.89C1480.39 1387.32 1479.07 1368.6 1483.87 1353.37C1485.89 1346.96 1515.28 1284.66 1516.37 1284.08L1517.25 1290.76C1520.99 1297.89 1522 1393.35 1518.85 1401.61C1517.86 1404.21 1516.67 1404.56 1514.38 1405.8C1499.61 1406.97 1485.74 1403.91 1471.39 1400.89Z" fill="#422831"/>
<path d="M1515.6 497.88C1518.35 496.941 1520.49 495.747 1522.61 493.729C1526.7 489.867 1530.49 484.353 1530.62 478.624C1532.99 485.643 1533.81 490.509 1530.75 497.617C1535.64 504.981 1536.37 517.378 1536.92 526.106C1538.09 544.575 1535.19 563.226 1535.24 581.724C1535.4 626.506 1540.54 697.111 1532.07 739.37C1531.14 744.117 1529.82 747.663 1525.54 750.389C1524.31 751.168 1523.05 751.82 1521.75 752.459L1520.17 754.064C1502.54 749.961 1488.24 740.535 1471.26 735.234C1472.33 733.396 1473.27 731.463 1473.65 729.35C1477.34 708.468 1475.88 557.218 1467.5 544.866C1471.76 543.169 1475.67 540.367 1479.21 537.457C1487.79 530.357 1514.61 508.34 1515.6 497.88Z" fill="#B58566"/>
<path d="M1515.6 497.88C1518.35 496.941 1520.49 495.747 1522.61 493.729C1526.7 489.867 1530.49 484.353 1530.62 478.624C1532.99 485.643 1533.81 490.509 1530.75 497.617C1517.7 515.696 1501.87 543.085 1481.65 553.814C1485.93 571.03 1482.93 591.776 1483.91 609.598C1485.74 643.692 1491.13 678.451 1490.65 712.562C1490.58 717.85 1489.16 722.287 1487.29 727.208C1489.58 724.582 1492.22 721.642 1493.48 718.352C1500.74 699.369 1497.38 640.607 1498.29 616.557C1498.77 603.62 1498.85 589.203 1501.24 576.568C1503.47 564.823 1512.89 550.771 1512.18 539.022C1512.01 536.493 1511.04 533.784 1510.27 531.38C1513.14 535.597 1515.43 539.534 1516.31 544.633C1520.93 571.377 1514.38 685.093 1508.92 710.478C1508.17 713.998 1499.34 731.448 1500.2 732.892C1502.71 737.163 1517.19 750.093 1521.75 752.459L1520.17 754.064C1502.54 749.961 1488.24 740.535 1471.26 735.234C1472.33 733.396 1473.27 731.463 1473.65 729.35C1477.34 708.468 1475.88 557.218 1467.5 544.866C1471.76 543.169 1475.67 540.367 1479.21 537.457C1487.79 530.357 1514.61 508.34 1515.6 497.88Z" fill="#985944"/>
<path d="M1520.63 907.994C1526.76 899.975 1527.87 892.494 1529.32 882.755C1537.06 899.027 1533.33 954.49 1533.47 974.291L1534.5 1245.79C1534.48 1284.03 1532.47 1322.62 1533.56 1360.81C1533.71 1366.11 1534.08 1370.7 1536.33 1375.58C1533.83 1385.62 1528.37 1394.23 1525.61 1404.11C1521.89 1406.69 1518.76 1405.88 1514.38 1405.8C1516.67 1404.56 1517.86 1404.21 1518.85 1401.61C1522 1393.35 1520.99 1297.89 1517.25 1290.76C1518.43 1289.48 1519.62 1287.82 1520.17 1286.15C1524.18 1274.13 1522.4 1235.63 1517.25 1224.62C1518.09 1223.78 1518.81 1223.05 1519.44 1222.03C1521.93 1218.06 1521.68 1215.07 1520.78 1210.64L1518.79 1205.45C1506.18 1210.48 1506.3 1230.86 1488.82 1232.36C1488.61 1232.99 1488.4 1233.78 1488.09 1234.4C1485.02 1240.87 1472.65 1255.49 1465.74 1257.93C1469.6 1253.71 1473.59 1249.19 1476.38 1244.17C1479.36 1238.78 1480.56 1232.49 1480.87 1226.4C1483.05 1183.53 1479.46 1139.9 1481.08 1096.82C1481.81 1077.94 1488.21 1047.87 1483.7 1030.73C1485.63 1018.83 1492.77 1007.37 1488.68 995.173L1493.61 993.44C1495.2 989.108 1495.12 985.841 1494.72 981.281L1498.24 986.857L1499.55 981.392L1499.61 983.806C1505.9 967.756 1522.23 923.724 1520.63 907.994Z" fill="#7C504A"/>
<path d="M1515.55 1164.71C1519.06 1159.01 1521.09 1153.02 1519.9 1146.23C1524.58 1162.85 1528.06 1194.86 1520.78 1210.64L1518.79 1205.45C1506.18 1210.48 1506.3 1230.86 1488.82 1232.36C1495.28 1228.63 1501.56 1221.48 1505.86 1215.44C1517.07 1199.68 1518.62 1183.27 1515.55 1164.71Z" fill="#3D1B19"/>
<path d="M1520.63 907.994C1524.62 913.19 1524.6 915.918 1523.72 922.396C1521.24 940.787 1514.34 981.879 1500.51 994.743C1496.77 995.458 1496.77 995.183 1493.61 993.44C1495.2 989.108 1495.12 985.841 1494.72 981.281L1498.24 986.857L1499.55 981.392L1499.61 983.806C1505.9 967.756 1522.23 923.724 1520.63 907.994Z" fill="#985944"/>
<path d="M1483.7 1030.73C1485.57 1033.19 1486.33 1035.33 1486.56 1038.37C1488.68 1066.74 1484.63 1096.5 1483.77 1124.99C1483.3 1140.47 1485.38 1157.12 1483.33 1172.39C1482.74 1176.71 1480.83 1180.83 1478.98 1184.73C1495.79 1167.23 1501.58 1125.38 1504.04 1101.9C1516.58 1118.79 1508.27 1145.97 1515.55 1164.71C1518.62 1183.27 1517.07 1199.68 1505.86 1215.44C1501.56 1221.48 1495.28 1228.63 1488.82 1232.36C1488.61 1232.99 1488.4 1233.78 1488.09 1234.4C1485.02 1240.87 1472.65 1255.49 1465.74 1257.93C1469.6 1253.71 1473.59 1249.19 1476.38 1244.17C1479.36 1238.78 1480.56 1232.49 1480.87 1226.4C1483.05 1183.53 1479.46 1139.9 1481.08 1096.82C1481.81 1077.94 1488.21 1047.87 1483.7 1030.73Z" fill="#5C302E"/>
</g>
<defs>
<linearGradient id="paint0_linear_71_20357" x1="1075.8" y1="1124.99" x2="528.749" y2="288.997" gradientUnits="userSpaceOnUse">
<stop stop-color="#6291A9"/>
<stop offset="1" stop-color="#AAD1DF"/>
</linearGradient>
<linearGradient id="paint1_linear_71_20357" x1="-3761.87" y1="949.568" x2="-2909.48" y2="-1914.75" gradientUnits="userSpaceOnUse">
<stop stop-color="#1D1A22"/>
<stop offset="1" stop-color="#351B25"/>
</linearGradient>
<linearGradient id="paint2_linear_71_20357" x1="2219.33" y1="790.622" x2="1547.1" y2="-1084.15" gradientUnits="userSpaceOnUse">
<stop stop-color="#AB8F6A"/>
<stop offset="1" stop-color="#C5A286"/>
</linearGradient>
<linearGradient id="paint3_linear_71_20357" x1="2428.71" y1="740.692" x2="636.349" y2="-362.775" gradientUnits="userSpaceOnUse">
<stop stop-color="#472624"/>
<stop offset="1" stop-color="#33242B"/>
</linearGradient>
<linearGradient id="paint4_linear_71_20357" x1="1014.93" y1="1591.86" x2="705.11" y2="-424.403" gradientUnits="userSpaceOnUse">
<stop stop-color="#564140"/>
<stop offset="1" stop-color="#9A6160"/>
</linearGradient>
<linearGradient id="paint5_linear_71_20357" x1="1291.79" y1="1805.74" x2="953.282" y2="-358.42" gradientUnits="userSpaceOnUse">
<stop stop-color="#8E5648"/>
<stop offset="1" stop-color="#B0785B"/>
</linearGradient>
<linearGradient id="paint6_linear_71_20357" x1="921.072" y1="1819.04" x2="588.884" y2="-468.126" gradientUnits="userSpaceOnUse">
<stop stop-color="#CA9C77"/>
<stop offset="1" stop-color="#E9BF97"/>
</linearGradient>
<linearGradient id="paint7_linear_71_20357" x1="1434.29" y1="2610.21" x2="-1431.83" y2="1346.48" gradientUnits="userSpaceOnUse">
<stop stop-color="#B7866E"/>
<stop offset="1" stop-color="#EBB781"/>
</linearGradient>
<linearGradient id="paint8_linear_71_20357" x1="2298.7" y1="1583.16" x2="-755.252" y2="1245.69" gradientUnits="userSpaceOnUse">
<stop stop-color="#926052"/>
<stop offset="1" stop-color="#B68A74"/>
</linearGradient>
<linearGradient id="paint9_linear_71_20357" x1="725.651" y1="1171.15" x2="878.155" y2="-525.629" gradientUnits="userSpaceOnUse">
<stop stop-color="#905856"/>
<stop offset="1" stop-color="#CA866B"/>
</linearGradient>
<linearGradient id="paint10_linear_71_20357" x1="1294.66" y1="-4000.76" x2="-1855.02" y2="-2967.46" gradientUnits="userSpaceOnUse">
<stop stop-color="#403033"/>
<stop offset="1" stop-color="#70413C"/>
</linearGradient>
<linearGradient id="paint11_linear_71_20357" x1="937.09" y1="1235.73" x2="81.1923" y2="328.675" gradientUnits="userSpaceOnUse">
<stop stop-color="#6B3E3B"/>
<stop offset="1" stop-color="#7D5548"/>
</linearGradient>
<linearGradient id="paint12_linear_71_20357" x1="875.608" y1="1719.99" x2="1130.87" y2="-220.706" gradientUnits="userSpaceOnUse">
<stop stop-color="#5D3A42"/>
<stop offset="1" stop-color="#975B54"/>
</linearGradient>
<clipPath id="clip0_71_20357">
<rect width="1708" height="1752" fill="white"/>
</clipPath>
</defs>
</svg>
