<svg width="204" height="145" viewBox="0 0 204 145" fill="none" xmlns="http://www.w3.org/2000/svg">
<path d="M199.125 12.4943L200.071 0L201.076 0.29564C201.995 25.7848 208.4 108.768 192.219 125.718C177.593 141.042 150.457 143.684 130.455 143.744C98.619 143.839 34.2088 147.841 11.2751 124.907C4.88854 118.521 -1.09461 105.114 0.170453 95.9163C0.35208 94.5879 0.573743 94.3556 1.1313 93.3271L5.8431 102.117C6.64142 105.023 9.21586 108.759 11.1462 111.148C20.3944 122.586 35.8835 126.992 50.0378 128.164C76.866 130.388 133.623 132.341 158.803 126.54C161.07 126.036 163.298 125.396 165.488 124.62C167.676 123.844 169.809 122.939 171.889 121.906C173.969 120.873 175.978 119.717 177.916 118.438C179.857 117.16 181.712 115.769 183.481 114.267C192.385 106.558 196.628 95.8361 197.558 84.2753C201.72 61.4578 199.363 35.6687 199.125 12.4943Z" fill="#402931"/>
</svg>
