<svg width="402" height="200" viewBox="0 0 402 200" fill="none" xmlns="http://www.w3.org/2000/svg">
<path d="M176.495 186.367C193.929 186.029 211.553 185.573 228.964 186.825C221.422 188.226 212.026 190.169 204.417 188.673L203.667 190.15L217.974 194.162C197.209 194.737 176.385 194.129 155.618 193.841C138.372 193.286 121.166 191.299 104 189.609C128.125 186.255 152.188 186.654 176.495 186.367Z" fill="#BB332C"/>
<path d="M2.61523 135.178C5.97324 147.994 6.34282 164.101 16.0134 174.057C43.1372 187.871 80.7046 180.053 110.069 186.49C127.503 186.152 145.128 185.696 162.538 186.948C154.997 188.349 145.601 190.292 137.991 188.796L137.242 190.273L151.548 194.285C130.783 194.86 109.959 194.252 89.1925 193.964C68.8882 194.621 42.3241 198.011 24.288 186.989C11.1073 178.934 6.27094 166.604 2.68484 152.262L2.61523 135.178Z" fill="#AA3E23"/>
<path d="M110.069 186.49C127.503 186.152 145.127 185.696 162.538 186.949C154.997 188.349 145.601 190.292 137.991 188.796L137.241 190.273L151.548 194.285C130.783 194.86 109.959 194.252 89.1924 193.964C71.9462 193.409 54.7402 191.422 37.5742 189.732C61.699 186.378 85.7626 186.778 110.069 186.49Z" fill="#BB332C"/>
<path d="M391.088 175.912C394.433 175.945 396.038 175.485 398.83 177.428C395.2 185.28 389.113 191.624 380.879 194.647C355.719 203.88 269.251 196.82 236.396 196.089C223.714 192.638 207.984 197.521 196.298 192.108L195.654 186.683C228.808 186.906 262.024 185.316 295.201 185.363C321.085 185.398 349.178 187.914 374.8 184.845C382.712 183.897 386.078 182.266 391.088 175.912Z" fill="#EE5D55"/>
<path d="M88.4386 2.35322C141.516 -2.2973 208.009 1.3415 262.493 1.56536C273.34 3.07541 284.233 2.61085 295.009 4.33421C310.155 6.7545 327.178 12.6827 342.276 13.1431C347.317 14.9424 351.512 15.3268 354.555 19.8739C343.417 32.1739 306.937 28.0704 291.087 32.7864C276.533 33.6396 197.646 30.1465 190.739 33.9776L189.702 40.3324C186.023 36.8096 183.886 28.0534 180.351 23.2847C180.047 22.8749 179.734 22.4737 179.424 22.0682C176.055 16.763 170.224 14.7186 164.756 12.0301L158.608 15.8338L107.829 16.2984C96.2614 20.687 82.54 16.3131 70.9074 13.7746C61.0551 11.6542 50.2651 11.6732 40.1995 10.9784C45.019 10.6257 49.3802 10.5158 53.8597 8.50526L53.3528 8.08078C42.1405 7.35849 32.4298 7.87589 21.3906 10.0787C38.0708 -1.8053 68.5124 2.12724 88.4386 2.35322Z" fill="#EE9FA2"/>
<path d="M21.39 10.0787C32.4291 7.87589 42.1398 7.35849 53.3522 8.08078L53.859 8.50526C49.3796 10.5158 45.0183 10.6257 40.1989 10.9784C50.2644 11.6732 61.0545 11.6542 70.9067 13.7746C82.5394 16.3131 96.2607 20.687 107.828 16.2984L158.608 15.8338L164.756 12.0301C170.223 14.7186 176.054 16.763 179.423 22.0682C179.733 22.4737 180.046 22.8749 180.35 23.2847C183.886 28.0534 186.023 36.8096 189.702 40.3324L190.739 33.9776C197.645 30.1465 276.533 33.6396 291.086 32.7864C306.936 28.0704 343.416 32.1739 354.554 19.8739C351.511 15.3269 347.317 14.9425 342.276 13.1431L341.783 11.5042L337.84 9.56549C350.556 8.95936 361.492 9.49374 373.716 13.3417C382.462 17.912 390.246 23.251 395.324 31.9755C397.801 39.5679 400.783 47.3018 401.6 55.2745C399.708 95.1291 399.395 136.785 391.087 175.911C386.077 182.266 382.711 183.897 374.8 184.845C349.177 187.913 321.084 185.398 295.2 185.362C262.023 185.316 228.807 186.906 195.653 186.682C184.483 186.209 173.702 186.205 162.538 186.948C145.127 185.696 127.503 186.152 110.069 186.49C80.704 180.053 43.1367 187.871 16.0129 174.057C6.34226 164.101 5.97268 147.993 2.61467 135.178C-0.728545 113.247 1.12145 87.752 0 65.378C0.654705 59.9123 1.8037 54.4128 2.73507 48.9809C3.09621 40.248 5.23342 32.3809 9.14053 24.6174C11.2821 18.2794 16.2262 13.9689 21.39 10.0787Z" fill="#9F5E61"/>
<path d="M342.275 13.1434L341.783 11.5045L337.84 9.5658C350.556 8.95967 361.492 9.49404 373.716 13.342C382.462 17.9123 390.246 23.2513 395.323 31.9758C367.448 32.113 315.589 39.6885 291.086 32.7867C306.936 28.0707 343.416 32.1742 354.554 19.8742C351.511 15.3272 347.317 14.9428 342.275 13.1434Z" fill="#C66F74"/>
<path d="M21.3912 10.0787C32.4304 7.87589 42.1411 7.35849 53.3534 8.08078L53.8603 8.50526C49.3808 10.5158 45.0196 10.6257 40.2001 10.9784C50.2657 11.6732 61.0557 11.6542 70.908 13.7746C82.5406 16.3131 96.2619 20.687 107.829 16.2984L158.609 15.8338L164.757 12.0301C170.225 14.7186 176.056 16.763 179.424 22.0682C177.021 31.5593 187.093 43.1455 187.209 54.381C187.553 87.4246 192.294 124.272 184.888 156.663C173.025 170.057 165.38 173.92 147.447 175.022C121.217 176.634 39.1547 181.073 20.1408 164.338C7.97601 153.632 8.74056 84.96 5.96123 65.8617L5.29802 68.2777C3.59157 61.6779 2.8905 55.7919 2.73633 48.9809C3.09747 40.248 5.23468 32.3809 9.14179 24.6174C11.2833 18.2794 16.2275 13.9689 21.3912 10.0787Z" fill="url(#paint0_linear_61_723)"/>
<defs>
<linearGradient id="paint0_linear_61_723" x1="71.4895" y1="180.985" x2="126.912" y2="14.836" gradientUnits="userSpaceOnUse">
<stop stop-color="#8E7991"/>
<stop offset="1" stop-color="#B7A2B5"/>
</linearGradient>
</defs>
</svg>
