<svg width="1741" height="209" viewBox="0 0 1741 209" fill="none" xmlns="http://www.w3.org/2000/svg">
<path d="M1635.5 21.9981C1649.27 21.4448 1684.37 10.5555 1694.14 0.454078C1694.29 0.308353 1694.42 0.15206 1694.55 0C1693.07 18.3233 1665.74 44.3341 1652.05 55.8062C1649.56 57.9034 1647.01 60.0174 1644.22 61.7218C1644.34 62.4187 1644.47 63.1157 1644.6 63.8147C1645.02 66.6511 1582.77 122.869 1581.57 125.395C1587.02 133.509 1688.99 126.59 1695.18 130.029C1697.06 131.072 1700.63 131.718 1702.76 132.166C1708.1 133.287 1713.83 133.48 1719.28 133.885L1712.12 135.395C1721.79 136.487 1730.7 136.28 1740.38 135.543C1733.53 142.432 1722.47 145.891 1713.57 149.414C1652.48 173.619 1588.84 179.243 1524.68 189.398C1491.48 191.94 1338.53 208.452 1316 202.796C1316.19 202.34 1316.36 201.888 1316.53 201.429C1319.23 194.031 1319.74 187.93 1316.38 180.502C1319.29 179.831 1322.06 178.965 1324.74 177.628C1341.05 169.505 1391.99 142.386 1397.75 125.395C1408.31 108.882 1392.28 70.8623 1402.38 58.575C1415.68 57.7189 1428.99 56.9516 1442.29 56.2729C1474.46 51.5886 1583.88 44.2369 1606.84 29.9707C1614.1 29.5652 1622.17 28.8957 1628.06 24.3022C1630.55 24.0129 1633.13 22.8239 1635.5 21.9981Z" fill="#402931"/>
<path d="M104.879 21.9981C91.1093 21.4448 56.0086 10.5555 46.2303 0.454078C46.0825 0.308353 45.9556 0.15206 45.8289 0C47.3073 18.3233 74.6359 44.3341 88.3214 55.8062C90.8135 57.9034 93.3691 60.0174 96.1569 61.7218C96.0301 62.4187 95.9033 63.1157 95.7766 63.8147C95.3542 66.6511 157.605 122.869 158.809 125.395C153.36 133.509 51.3835 126.59 45.1955 130.029C43.3158 131.072 39.7464 131.718 37.6134 132.166C32.2701 133.287 5.4485 135.137 -0.000335693 135.543L28.2576 135.395C19.5 134.5 9.6724 136.28 -0.000335693 135.543C6.84239 142.432 17.9089 145.891 26.8002 149.414C87.8989 173.619 151.532 179.243 215.693 189.398C248.893 191.94 401.84 208.452 424.375 202.796C424.185 202.34 424.016 201.888 423.847 201.429C421.144 194.031 420.637 187.93 423.995 180.502C421.081 179.831 418.314 178.965 415.631 177.628C399.327 169.505 348.387 142.386 342.621 125.395C332.062 108.882 348.092 70.8623 337.996 58.575C324.691 57.7189 311.386 56.9516 298.08 56.2729C265.915 51.5886 156.495 44.2369 133.538 29.9707C126.273 29.5652 118.205 28.8957 112.313 24.3022C109.821 24.0129 107.245 22.8239 104.879 21.9981Z" fill="url(#paint0_linear_62_741)"/>
<path d="M358.905 182.124C380.459 182.903 402.018 183.828 423.579 184.354L423.693 202.758C420.28 203.216 416.85 203.603 413.403 203.704C390.755 204.378 361.806 201.089 344.928 184.994C349.196 181.845 353.815 182.287 358.905 182.124Z" fill="#1D1218"/>
<path d="M1387.75 13.8647L1391.11 16.9397C1399.29 26.1605 1395.29 60.9507 1402.81 64.5748C1392.72 76.8621 1408.75 114.881 1398.19 131.395C1392.42 148.385 1341.48 175.505 1325.18 183.628C1322.5 184.964 1319.73 185.83 1316.81 186.502C1320.17 193.93 1319.67 200.031 1316.96 207.429C1316.79 207.888 1316.62 208.34 1316.43 208.796C1317.95 202.103 1318.59 193.44 1314.91 187.397C1033.99 190.948 753.086 190.236 472.188 185.26C455.987 184.862 439.784 184.56 423.579 184.354C402.018 183.828 380.46 182.903 358.905 182.124C353.815 182.287 349.196 181.845 344.928 184.994C340.197 143.826 334.839 102.039 334.586 60.5536C338.675 60.7923 341.427 60.8134 345.275 59.3308C350.303 50.203 343.015 41.7784 346.016 32.7561C346.231 32.1099 346.504 31.4826 346.747 30.8448L350.227 28.6231C399.37 24.4055 448.764 22.4519 497.969 18.8152C516.283 20.397 536.427 18.3991 554.867 17.9514C595.733 16.6603 636.608 15.8493 677.493 15.5184C776.706 18.2492 876.122 14.7771 975.367 16.2048C1003.5 16.6082 1031.27 21.6684 1059.53 22.1457C1081.25 22.5132 1227.54 20.0992 1235.93 26.3886C1264.4 26.5681 1370.46 30.7941 1387.75 13.8647Z" fill="#518499"/>
<path d="M1221.12 148.546C1221.5 148.538 1221.86 148.536 1222.24 148.519C1262.64 146.707 1337.13 108.554 1364.88 78.2794C1380.24 61.5169 1392.19 40.2833 1391.11 16.9399C1399.29 26.1607 1395.29 60.9509 1402.81 64.575C1392.72 76.8623 1408.75 114.882 1398.19 131.395C1392.42 148.386 1341.48 175.505 1325.18 183.628C1322.5 184.965 1319.73 185.831 1316.81 186.502C1320.17 193.93 1319.67 200.031 1316.96 207.43C1316.79 207.888 1316.62 208.34 1316.43 208.796C1317.95 202.103 1318.59 193.44 1314.91 187.398C1033.99 190.949 753.086 190.236 472.188 185.26C455.987 184.862 439.784 184.56 423.579 184.354C402.018 183.828 380.46 182.903 358.905 182.124C353.815 182.287 349.196 181.845 344.928 184.994C340.197 143.826 334.839 102.039 334.586 60.5538C338.675 60.7925 341.427 60.8136 345.275 59.331C350.303 50.2032 343.015 41.7786 346.016 32.7563C346.231 32.1101 346.504 31.4828 346.747 30.845L350.227 28.6233C374.462 43.3752 397.467 60.0026 421.883 74.5857C472.205 104.645 523.183 123.268 579.433 138.529C579.501 125.574 579.04 112.373 579.748 99.4539C581.336 112.721 581.032 125.896 580.865 139.228C591.038 139.904 601.689 140.048 611.78 141.336C617.239 144.865 625.531 145.646 631.835 144.536L635.383 145.803C709.582 153.549 783.716 163.448 858.166 168.276C892.821 170.525 927.618 169.961 962.325 169.885C1029.9 169.74 1096.07 168.094 1163.11 158.857C1180.11 156.517 1206.21 156.447 1221.12 148.546Z" fill="#2F6587"/>
<path d="M334.586 60.5535C338.675 60.7922 341.427 60.8133 345.275 59.3307C350.303 50.2029 343.015 41.7783 346.016 32.756C346.231 32.1098 346.504 31.4825 346.747 30.8447C355.355 79.8673 355.67 132.373 358.905 182.124C353.815 182.286 349.196 181.845 344.928 184.994C340.197 143.826 334.839 102.039 334.586 60.5535Z" fill="#402931"/>
<defs>
<linearGradient id="paint0_linear_62_741" x1="212.187" y1="0" x2="212.187" y2="203.968" gradientUnits="userSpaceOnUse">
<stop stop-color="#41213B"/>
<stop offset="1" stop-color="#693B52"/>
</linearGradient>
</defs>
</svg>
