<svg width="404" height="188" viewBox="0 0 404 188" fill="none" xmlns="http://www.w3.org/2000/svg">
<path d="M379.121 6.69283C389.791 11.5144 394.458 18.8724 399.727 29.0225C402.154 39.0965 403.643 49.8379 403.362 60.2392L402.344 75.553L394.308 77.3756C394.445 99.6525 398.777 136.322 382.897 153.87C378.194 159.068 367.653 160.762 361.055 161.518C342.447 163.653 322.453 161.991 303.686 161.851C264.353 161.56 224.505 160.694 185.216 162.145C199.776 132.952 193.436 100.309 191.711 68.7082C191.768 68.5519 191.837 68.3977 191.884 68.2372C193.985 60.9573 193.987 49.612 190.469 42.8242L188.408 43.5971L186.211 51.7725L185.766 46.7713C186.07 39.9222 184.712 32.484 184 25.6392L190.91 31.9222C215.73 31.8482 333.313 30.4206 348.039 21.8714L348.139 19.0034C341.252 13.544 331.984 10.9379 323.82 7.87771C337.142 4.02973 357.942 6.65059 370.88 10.752L379.121 6.69283Z" fill="url(#paint0_linear_61_724)"/>
<path d="M13.1612 169.534C7.70606 160.873 1.74612 149.622 2.0798 139.139C2.17695 136.03 2.17486 136.087 4.39452 134.049C9.37661 149.72 15.1021 157.445 26.9924 168.398C28.173 169.483 27.7232 168.98 28.587 170.195L27.4655 170.051C24.023 169.582 21.742 168.936 18.6797 167.308L24.6122 178.429C20.6523 175.739 16.9311 172.497 13.1612 169.534Z" fill="#EE5D55"/>
<path d="M351.577 0.539551C361.374 1.33998 370.27 2.51417 379.167 6.92181L370.927 10.981C357.989 6.87956 337.188 4.25871 323.866 8.10669C315.004 10.6812 301.074 7.12032 292.364 4.45293L290.979 1.17517C311.176 0.793614 331.375 0.58179 351.577 0.539551Z" fill="#C2ADBD"/>
<path d="M31.459 2.2717C56.2512 -2.01767 86.7647 1.08468 112.047 1.08257L290.978 1.17551L292.363 4.45326C301.073 7.12065 315.003 10.6815 323.865 8.10702C332.03 11.1672 341.297 13.7733 348.184 19.2327L348.085 22.1008C333.358 30.6499 215.775 32.0776 190.956 32.1515L184.045 25.8685C178.379 21.0173 173.086 14.9243 165.492 14.6772L158.123 14.3837L139.196 12.4322C110.507 12.9898 79.4826 6.26533 51.1487 10.7279L35.628 10.8398L35.0957 8.85672C43.1423 -0.590031 64.8763 11.3742 74.1457 3.56422L67.2566 4.618L68.4202 2.90307L31.459 2.2717Z" fill="#CCA3AD"/>
<path d="M394.354 77.6049L402.39 75.7822C402.546 102.486 408.768 146.909 389.179 167.295C374.909 182.149 357.595 182.064 338.435 182.119C297.185 182.237 255.924 181.264 214.671 181.927C177.209 182.529 52.6695 195.226 24.6122 178.429L18.6797 167.308C21.742 168.936 24.023 169.583 27.4655 170.051L28.5869 170.195C32.8798 170.952 37.2001 171.487 41.5479 171.798C67.2334 173.895 148.056 176.079 170.318 170.919C176.43 169.504 180.578 166.345 185.262 162.374C224.551 160.924 264.399 161.789 303.732 162.081C322.499 162.22 342.493 163.882 361.101 161.747C367.699 160.991 378.239 159.297 382.943 154.1C398.823 136.552 394.491 99.8818 394.354 77.6049Z" fill="#F05C4B"/>
<path d="M0.970096 30.3372C2.86029 25.8261 5.0103 21.0509 7.76639 16.998C13.5869 8.44464 21.4328 3.99906 31.4604 2.27148L68.4216 2.90285L67.258 4.61778L74.1471 3.564C64.8777 11.374 43.1436 -0.59025 35.0971 8.85651L35.6294 10.8396L51.1501 10.7277C79.484 6.26512 110.509 12.9896 139.197 12.432L158.125 14.3835L165.493 14.677C173.088 14.9241 178.38 21.0171 184.047 25.8683C184.759 32.7131 186.116 40.1513 185.812 47.0004L186.258 52.0016L185.859 70.2636C185.485 89.74 189.745 138.289 175.242 152.125C154.826 171.601 89.898 166.904 62.3265 165.504C45.8174 164.664 27.6694 161.487 16.1825 148.374C15.5222 147.618 14.8928 146.837 14.2944 146.032C13.6946 145.225 13.128 144.397 12.5943 143.546C12.0607 142.696 11.5615 141.826 11.0969 140.936C10.6322 140.047 10.2028 139.141 9.80861 138.218C9.41438 137.294 9.05755 136.356 8.73794 135.405C8.41833 134.453 8.13603 133.49 7.89104 132.515C7.64746 131.543 7.44179 130.561 7.27424 129.571C7.1081 128.58 6.98074 127.585 6.89204 126.585C5.41156 104.712 5.1813 82.7874 4.77158 60.8717C4.21825 72.0207 4.58994 84.232 1.77471 95.0473C-0.29289 73.9573 -0.544174 51.4694 0.970096 30.3372Z" fill="#6CA1A8"/>
<path d="M379.167 6.92188C389.836 11.7435 394.504 19.1015 399.773 29.2515L393.055 36.6456C387.942 23.1798 383.08 18.6432 370.926 10.981L379.167 6.92188Z" fill="#CCA3AD"/>
<path d="M399.773 29.2515C402.199 39.3255 403.688 50.0669 403.408 60.4682L402.389 75.7819L394.354 77.6046C394.318 63.8938 394.261 50.314 393.055 36.6455L399.773 29.2515Z" fill="#C66F74"/>
<defs>
<linearGradient id="paint0_linear_61_724" x1="285.011" y1="165.171" x2="300.06" y2="3.41628" gradientUnits="userSpaceOnUse">
<stop stop-color="#97524B"/>
<stop offset="1" stop-color="#7A7495"/>
</linearGradient>
</defs>
</svg>
