<svg width="94" height="92" viewBox="0 0 94 92" fill="none" xmlns="http://www.w3.org/2000/svg">
<path d="M53.7302 0C60.6025 1.93477 67.6437 3.48981 73.724 7.36568L76.0809 7.82348C80.8349 13.3324 85.817 18.7484 89.9459 24.749L90.1592 28.7895C92.778 36.0559 93.1751 42.2758 93.2152 49.9642C90.1043 62.8577 86.0261 71.1919 77.2615 81.1421C71.2467 84.6846 65.3734 88.0689 58.5328 89.7314C46.0279 92.7676 32.4417 91.6114 21.411 84.6678C8.4837 76.5321 3.44666 64.5922 0.12245 50.2724C-0.595613 41.8159 1.97262 34.2414 4.47951 26.2808L10.5323 16.6091C24.1016 3.53197 35.1619 0.9389 53.7302 0Z" fill="#F2A15A"/>
<path d="M0.12245 50.2724C0.432907 50.5403 0.747213 50.8021 1.05133 51.0763C6.4537 56.0008 8.38618 62.0498 12.627 67.7212C18.8108 75.9899 34.9735 81.2962 45.037 81.0832C58.8639 80.7899 72.807 72.7976 82.0193 62.8031C85.8377 58.6614 89.2405 53.897 93.2152 49.9642C90.1043 62.8577 86.0261 71.1919 77.2615 81.1421C71.2467 84.6846 65.3734 88.0689 58.5328 89.7314C46.0279 92.7676 32.4417 91.6114 21.411 84.6678C8.4837 76.5321 3.44666 64.5922 0.12245 50.2724Z" fill="#FC7710"/>
<path d="M76.0809 7.82348C80.8349 13.3324 85.817 18.7484 89.9459 24.749L90.1592 28.7895C81.3397 40.8369 74.7103 48.9114 60.083 53.8317C47.6478 58.0156 34.2517 57.7055 22.4691 51.7324C10.9041 45.8732 8.33171 38.0223 4.47951 26.2808L10.5323 16.6091C11.8776 22.2277 12.4965 27.5235 16.997 31.5218L21.9516 33.37C39.0922 30.0047 57.4619 36.748 73.6395 32.965C78.178 31.9058 78.385 31.8234 80.8645 27.8758C80.3133 21.9893 76.5286 18.1958 72.9848 13.7291L73.724 7.36568L76.0809 7.82348Z" fill="#F3B86F"/>
<path d="M53.7302 0C60.6025 1.93477 67.6437 3.48981 73.724 7.36568L72.9848 13.7291C76.5286 18.1958 80.3133 21.9893 80.8645 27.8758C78.385 31.8234 78.178 31.9058 73.6395 32.965C57.4619 36.748 39.0922 30.0047 21.9516 33.37L16.997 31.5218C12.4965 27.5235 11.8776 22.2277 10.5323 16.6091C24.1016 3.53197 35.1619 0.9389 53.7302 0Z" fill="#FEF165"/>
</svg>
