<svg width="1146" height="326" viewBox="0 0 1146 326" fill="none" xmlns="http://www.w3.org/2000/svg">
<path d="M1021.7 11.3942C1021.7 11.3942 1029.87 10.9766 1030.19 11.3939C1033.46 15.5556 1049.21 -2.3667 1050.8 2.88914L1050.51 4.05226C1051.93 3.43995 1052.11 3.15696 1052.99 2.05981L1056.74 0.898908C1059.73 4.17669 1072.4 22.9587 1072.11 26.1689L1074.03 27.6394L1075.21 27.131C1080.12 32.8725 1082.01 24.0882 1086.45 29.1186C1087.63 30.4601 1094.12 22.3698 1095.95 22.6186C1097.2 22.2119 1097.55 29.9639 1098.45 29.1186C1102.69 25.1125 1103.52 31.8459 1103.27 26.4042C1107.13 28.5105 1110.17 37.8946 1112.04 41.7718C1113.73 46.6953 1128.82 80.5207 1126.45 84.6186C1127.87 87.7993 1129.38 89.8962 1127.95 93.1186C1144.9 93.4912 1150.59 108.775 1132.95 107.119C1135.26 111.724 1142.14 144.458 1141.45 151.619L1140.45 158.619C1140.54 160.415 1142.32 163.972 1141.45 165.619C1143.33 169.574 1131.89 210.962 1129.95 214.619C1129.74 215.015 1147.38 236.162 1128.95 224.119C1131.23 227.442 1126.78 231.989 1125.45 236.119C1139.95 233.259 1135.02 255.037 1122.45 249.619C1123.94 252.924 1113.72 320.459 1112.29 323.813C1112.09 324.283 1111.8 324.708 1111.47 325.118H54.0399C51.0825 317.515 37.5668 310.349 34.9475 302.619C33.5984 297.765 31.7512 292.358 29.9475 287.619C28.3987 283.625 28.5791 279.671 27.2519 275.619L23.1547 267.119L20.3401 256.119C19.231 249.785 4.61108 176.983 2.94751 170.674L16.8675 125.119L48.4475 143.619L69.9475 220.119C76.9271 221.41 71.2501 243.082 78.1631 244.619C86.1025 246.022 70.1028 247.277 78.1631 247.975L77.7943 247.428C79.1495 245.524 81.6181 244.133 83.6067 242.729C83.845 237.363 83.675 232.311 82.0561 227.074C80.6702 218.871 76.439 202.807 72.1886 195.475C70.4409 187.15 67.819 178.858 65.3503 170.674C62.22 159.687 58.4499 148.869 54.0399 138.217L53.8603 137.703C64.0293 136.415 81.4596 137.87 92.8891 137.607C91.1081 131.156 89.293 124.717 87.9019 118.191C84.9733 110.796 83.555 102.534 81.1179 94.947L78.9646 87.8504L78.0965 83.7524C77.2879 81.0301 78.5879 78.1764 79.414 75.5322C80.0106 71.9373 81.527 68.2225 82.6168 64.7034L88.0166 45.948L89.0863 42.8052C89.6907 37.6154 91.9991 32.0857 93.5523 27.0248L125.561 27.0673L181.689 27.0408L210.001 26.9785L239.977 26.9671C250.358 26.9694 260.756 27.0832 271.133 26.9527C279 26.9755 287.003 26.7327 294.849 27.1834L295.65 27.191C296.576 27.1698 297.504 27.15 298.427 27.0908C299.972 26.9914 301.632 26.9854 302.652 25.9451C300.895 24.068 299.049 22.3161 298.011 20.0421C297.951 19.9139 297.898 19.7834 297.842 19.6536L343.25 20.3008C346.51 20.2659 350.558 19.8471 353.619 20.8023C353.062 22.8555 352.268 25.0232 352.071 27.1227L357.705 27.254C371.465 27.2378 385.223 27.1465 398.981 26.9801C406.015 26.9588 413.505 26.4702 420.479 27.0446L429.3 26.839C466.128 27.581 503.167 27.0339 540.012 26.8002C542.316 29.7131 546.048 45.6308 545.347 49.3031C545.304 49.5148 545.251 49.7242 545.207 49.9351L550.49 49.1445C573.576 49.3595 596.665 49.3825 619.757 49.2136C626.634 49.6992 641.439 50.6043 647.808 49.1521C668.137 49.4121 688.464 49.2293 708.788 48.6036L709.664 48.6726C714.543 49.0406 720.93 48.0019 725.459 49.2105L725.537 50.5027C727.298 50.0535 727.982 50.0725 729.164 48.8175L732.896 47.6453C733.185 47.8911 733.641 48.1749 733.79 48.5011C734.806 48.8668 735.909 49.1559 736.768 49.7553C747.061 48.1513 759.08 49.0785 769.628 49.121C789.543 49.2854 809.461 49.3557 829.382 49.3319C834.971 48.9662 804.428 39.4197 809.448 41.1557C810.814 39.7755 754.14 5.88214 815.448 25.6186C821.063 23.7514 806.437 11.6995 811.948 9.61899L848.448 15.1186L868.374 13.6186C872.57 12.1793 883.313 15.1953 887.448 13.6186C896.392 13.1399 931.973 15.1421 942.477 18.1186H949.289L947.948 20.6186L952.665 13.6186C954.837 14.5261 954.651 16.3432 955.948 18.1186L957.448 22.6186C966.967 -5.28949 959.807 18.7863 959.948 18.1186C960.753 14.2263 949.231 15.0397 946.62 11.3939C955.416 7.99549 963.827 14.3164 971.948 9.61899C977.528 6.38825 1001.52 9.65092 1003.95 6.1182C1009.15 5.23047 1008.11 12.4009 1012.45 9.61856C1015.53 7.98346 1021.7 11.3942 1021.7 11.3942Z" fill="url(#paint0_linear_71_22645)"/>
<path d="M9.09428 165.481C15.1809 184.824 31.2866 228.05 26.4777 247.414L25.2148 236.228C23.954 242.26 25.6393 248.376 24.2538 254.231C17.1936 233.668 13.7743 210.692 7.89883 189.595L2.70764 169.861C5.36236 169.152 7.09849 167.264 9.09428 165.481Z" fill="#884230"/>
<path d="M1098.63 325.592C1098.63 315.631 1106.61 300.016 1109.67 290.118C1116.35 268.477 1135 200.748 1133.83 180.427L1136.01 186.206C1137.83 193.327 1137.4 199.927 1133.75 206.436C1133.29 207.257 1132.78 208.048 1132.27 208.837C1134.03 216.952 1131.58 228.341 1127.35 235.432C1128.75 244.747 1117.85 298.682 1112.97 304.892C1112.59 305.375 1112.19 305.831 1111.79 306.299C1112.04 311.333 1109.86 315.085 1106.57 318.735C1104.29 321.271 1101.46 323.706 1098.63 325.592Z" fill="#884230"/>
<path d="M77.8151 278.828C157.045 274.731 237.888 277.955 317.306 277.805C457.62 277.541 598.122 276.457 738.41 278.322C747.076 280.198 773.431 278.36 778.098 282.025C776.915 282.668 776.514 282.977 775.036 283.263C759.817 286.217 739.008 283.909 723.196 283.968L599.982 284.479C431.656 285.584 262.985 288.31 94.6853 286.207C88.9788 286.135 83.418 286.587 78.3388 283.66L77.8151 278.828Z" fill="#A46047"/>
<path d="M847.307 0.202977C936.093 2.26645 1025.39 0.745165 1114.21 0.0953195C1119.77 8.19518 1128.77 52.4586 1127.08 62.6704C1126.97 63.2591 1126.84 63.8413 1126.74 64.4279C1132.02 75.5681 1143.53 128.807 1141.59 139.299C1144.16 145.418 1146.63 150.037 1144.08 156.677C1143.89 157.193 1143.66 157.7 1143.42 158.21C1144.75 165.646 1142.43 177.214 1138.4 183.628C1137.72 184.7 1136.96 185.383 1136.01 186.206L1133.83 180.427C1139.41 171.536 1140.23 159.242 1139.05 149.06C1137.24 133.656 1123.7 65.3563 1113.37 57.1446C1113.67 52.5472 1113.64 51.72 1111.53 47.6627L1110.98 43.9621C1105.68 38.5417 1099.94 35.1595 1093.39 31.444C1075.25 27.9331 1056.73 30.1359 1038.59 26.8381C966.146 26.2642 893.727 21.1456 821.33 19.5801L820.886 17.7276C821.71 16.8309 822.554 15.9131 823.273 14.9257C826.947 9.85143 826.99 6.54319 826.039 0.774749L847.307 0.202977Z" fill="#A46047"/>
<path d="M1038.59 26.8381C1056.88 19.8839 1086.32 20.287 1104.8 25.4604C1108.85 29.8026 1112.69 34.5077 1112.82 40.8036C1112.86 43.1182 1112.34 45.5085 1111.53 47.6627L1110.98 43.9621C1105.68 38.5417 1099.94 35.1595 1093.39 31.444C1075.25 27.9331 1056.73 30.1359 1038.59 26.8381Z" fill="#884230"/>
<path d="M558.947 7.40946L633.947 9.90962C641.808 9.81257 643.568 9.75301 650.947 12.4094C649.604 18.1187 661.596 -3.05605 661.121 2.782L674.703 3.14709C707.875 3.10208 741.044 2.84814 774.212 2.38537C791.171 2.32629 809.228 0.967571 826.039 2.56475C826.99 8.33318 826.947 11.6414 823.272 16.7157C822.554 17.7031 821.71 18.621 820.886 19.5177L821.33 21.3701L813.199 40.2579C846.124 40.4246 1071.81 39.857 1081.78 47.5434C1088.89 55.3478 1111.19 146.575 1110.58 159.564C1110.56 160.194 1110.5 160.821 1110.46 161.45C1110.48 176.192 1082.66 266.782 1074.85 280.205C1064.27 289.442 779.365 277.639 738.41 280.112C598.122 278.247 457.62 279.331 317.306 279.595C237.888 279.745 157.045 276.521 77.8151 280.618C79.4603 256.918 45.3797 182.606 40.6003 149.018C30.3024 151.662 18.9507 153.618 9.85031 159.289C8.39729 162.819 8.60221 163.623 9.0943 167.271C7.0985 169.054 5.36238 170.942 2.70766 171.651L0.614782 160.256C-1.33455 152.685 1.79952 144.75 3.79109 137.397C5.22933 127.4 8.88513 117.071 11.5124 107.285L24.5305 55.1305L27.1092 46.3913C28.5664 31.9597 34.1315 16.5828 37.8759 2.50989L115.045 2.62798L250.359 2.55419L318.613 2.38112L390.88 2.34944C415.907 2.35577 440.976 2.67229 465.994 2.30939C484.959 2.37268 504.252 1.69756 523.169 2.95083L525.099 2.97195C527.331 2.91287 529.568 2.85797 531.794 2.6934C535.519 2.41701 538.489 15.8024 540.947 12.9097C536.711 7.68988 549.45 22.2329 546.947 15.9095C570.104 42.2264 559.082 7.77025 558.947 7.40946Z" fill="url(#paint1_linear_71_22645)"/>
<path d="M68.2225 172.404L77.8615 173.416C84.7732 198.174 91.3394 223.023 97.5598 247.963L99.2577 256.822C97.5681 259.139 96.4995 260.27 93.9314 261.572C81.0274 234.375 78.2965 201.005 68.2225 172.404Z" fill="#BF6E49"/>
<path d="M1055.59 64.2107C1063.4 71.1206 1080.28 125.722 1080.87 137.595C1080.97 139.586 1080.59 141.281 1079.92 143.123C1063.55 143.203 1046.89 142.648 1030.56 143.536L1003.27 143.205C1002.34 134.578 997.192 125.212 993.644 117.287L997.34 117.327L999.219 115.173C1000.93 116.715 1002.3 118.296 1003.55 120.256C1006.84 125.45 1009.02 131.626 1007.56 137.738C1028.53 137.672 1049.49 137.472 1070.46 137.139C1074 123.716 1059.81 80.6446 1052.48 67.9199L1055.59 64.2107Z" fill="#BF6E49"/>
<path d="M68.2225 172.404L68.6429 167.878C80.0326 162.31 121.237 165.635 136.445 165.772C144.386 182.45 152.059 199.251 159.465 216.173C188.549 216.31 219.267 214.331 248.146 216.76C233.753 219.157 220.017 219.927 205.434 219.967L206.239 222.646L204.908 221.674L212.319 223.619C193.214 224.305 173.89 223.644 154.762 223.585C146.952 206.885 139.409 190.064 132.134 173.123L77.8615 173.416L68.2225 172.404Z" fill="#F2A15A"/>
<path d="M997.297 163.981L1000.49 159.734C1000.61 153.638 1001.25 148.984 1003.27 143.205L1030.56 143.536C1045.68 145.005 1062.41 146.064 1077.51 144.633C1079.96 152.49 1081.5 159.997 1077.19 167.677C1076.43 169.045 1075.55 170.254 1074.62 171.515C1050.39 171.336 1026.15 170.95 1001.92 171.036C1002.83 179.259 995.523 194.524 990.053 200.874C989.821 201.14 989.547 201.376 989.314 201.625C988.828 206.267 988.829 209.468 985.175 212.907C984.098 213.93 983.633 214.095 982.45 214.722C960.908 210.525 916.008 214.186 892.164 214.46C911.13 211.669 972.904 215.888 982.324 208.924C986.189 206.065 988.068 203.28 988.871 198.611C979.895 190.73 870.242 199.056 846.694 194.209L985.048 193.549C988.554 190.985 990.412 187.884 992.419 184.113C995.439 178.368 999.283 170.496 997.297 163.981Z" fill="#3B2230"/>
<path d="M248.146 216.76L650.371 216.315L778.267 216.401C801.456 216.359 825.617 214.918 848.701 216.701C848.553 220.393 848.806 220.849 846.356 223.819L844.392 225.512C825.384 224.115 805.342 225.735 786.25 226.024C769.84 223.868 751.352 225.526 734.763 225.657C703.012 225.961 671.26 226.018 639.508 225.828C557.358 224.876 475.207 224.494 393.053 224.682C332.958 224.71 272.364 226.204 212.319 223.619L204.908 221.674L206.239 222.646L205.434 219.967C220.017 219.927 233.753 219.157 248.146 216.76Z" fill="url(#paint2_linear_71_22645)"/>
<path d="M577.002 88.7423C623.501 88.9364 683.421 92.3628 728.442 88.8541C815.374 89.1854 902.302 91.5231 989.23 90.62C994.89 96.4454 999.705 104.687 999.388 113.128C999.367 113.812 999.283 114.491 999.219 115.173L997.34 117.327L993.644 117.287C993.052 109.379 989.905 101.874 984.499 96.0847C800.845 97.6981 617.188 98.3542 433.527 98.0532L263.162 98.1102C230.475 98.0912 196.519 99.834 164.038 96.4181C162.078 96.7472 158.114 96.7661 156.96 98.3232C147.047 111.717 147.315 131.434 137.376 144.895C137.102 145.268 136.842 145.652 136.563 146.026C136.396 146.249 136.215 146.462 136.041 146.68C135.416 145.893 135.349 145.889 134.874 144.81C130.861 135.677 146.2 100.26 150.004 89.4344C174.68 85.1133 238.072 89.2803 267.424 89.3541C370.485 89.6073 473.99 91.0358 577.002 88.7423Z" fill="#DB8D5E"/>
<path d="M150.004 89.4344L174.901 91.658L170.008 91.5926L170.69 92.2214L159.345 93.5042L161.421 91.7826L158.065 94.2807L179.309 94.8968L164.038 96.4181C162.078 96.7472 158.114 96.7661 156.96 98.3232C147.047 111.717 147.315 131.434 137.376 144.895C137.102 145.268 136.842 145.652 136.563 146.026C136.396 146.249 136.215 146.462 136.041 146.68C135.416 145.893 135.349 145.889 134.874 144.81C130.861 135.677 146.2 100.26 150.004 89.4344Z" fill="#F2A15A"/>
<path d="M884.308 64.9215C902.534 64.8371 1046.29 60.5288 1052.14 64.1114L1052.48 67.9199C1059.81 80.6446 1074 123.716 1070.46 137.139C1049.49 137.472 1028.53 137.672 1007.56 137.738C1009.02 131.626 1006.84 125.45 1003.55 120.256C1002.3 118.296 1000.93 116.715 999.219 115.173C999.283 114.491 999.367 113.812 999.388 113.128C999.705 104.687 994.89 96.4454 989.23 90.62C902.302 91.5231 815.374 89.1854 728.442 88.8541C728.691 88.7423 728.936 88.6198 729.189 88.5185C729.61 88.3476 730.038 88.202 730.461 88.0374C743.166 83.0876 759.082 87.0184 772.628 84.9654C785.701 82.98 795.289 71.6119 807.496 69.4936C832.502 65.1472 859.176 69.0463 884.308 64.9215Z" fill="#884230"/>
<path d="M1001.92 171.036C1026.15 170.95 1050.39 171.336 1074.62 171.515C1075.23 172.927 1076.9 175.649 1077.04 177.058C1077.99 186.506 1065.96 223.638 1061.75 232.919C1060.99 234.645 1059.94 235.749 1058.69 237.133C1060.38 241.901 1059.98 245.526 1057.97 250.185C1056.6 253.402 1054 256.865 1051.57 259.312C972.46 260.789 893.41 257.215 814.318 257.601C815.733 257.274 817.126 256.922 818.478 256.409C827.792 252.909 840.21 234.512 844.392 225.512L846.356 223.819C848.806 220.849 848.553 220.393 848.701 216.701C873.748 215.745 967.054 220.435 982.45 214.722C983.633 214.095 984.098 213.93 985.175 212.907C988.829 209.468 988.828 206.267 989.314 201.625C989.547 201.376 989.821 201.14 990.053 200.874C995.523 194.524 1002.83 179.259 1001.92 171.036Z" fill="#69332D"/>
<path d="M1001.92 171.036C1026.15 170.95 1050.39 171.336 1074.62 171.515C1075.23 172.927 1076.9 175.649 1077.04 177.058C1077.99 186.506 1065.96 223.638 1061.75 232.919C1060.99 234.645 1059.94 235.749 1058.69 237.133C1061.58 228.084 1070.75 186.179 1068.45 178.849L1005.41 178.092C1005.87 179.442 1006.27 180.544 1006.15 181.995C1005.36 190.519 999.684 203.484 993.2 208.972L989.314 201.625C989.547 201.376 989.821 201.14 990.053 200.874C995.523 194.524 1002.83 179.259 1001.92 171.036Z" fill="#BF6E49"/>
<path d="M989.314 201.625L993.2 208.972C994.488 213.926 994.024 216.376 992.018 221.049C980.36 228.402 868.616 224.172 846.356 223.819C848.806 220.849 848.553 220.393 848.701 216.701C873.748 215.745 967.054 220.435 982.45 214.722C983.633 214.095 984.098 213.93 985.175 212.907C988.829 209.468 988.828 206.267 989.314 201.625Z" fill="#A46047"/>
<path d="M908.025 105.516C917.064 102.149 970.56 101.013 978.564 105.005C983.19 107.316 995.84 148.045 997.572 155.43C998.227 158.269 998.1 161.187 997.297 163.981C999.283 170.496 995.439 178.368 992.419 184.113C990.412 187.884 988.554 190.985 985.048 193.549L846.694 194.209L843.146 193.296C820.865 194.481 798.309 193.72 775.986 193.642C776.261 193.336 776.535 193.038 776.789 192.722C787.982 179.048 838.077 121.762 841.414 112.099C841.668 111.346 841.161 108.698 841.076 107.765C850.77 107.634 860.781 106.97 870.433 107.877L875.438 107.28C886.082 105.807 897.275 105.847 908.025 105.516Z" fill="#69332D"/>
<path d="M242.412 108.143C233.373 104.803 179.878 103.677 171.874 107.636C167.249 109.928 154.599 150.328 152.867 157.652C152.212 160.469 152.339 163.364 153.142 166.135C151.156 172.597 155 180.405 158.02 186.104C160.026 189.844 161.885 192.921 165.391 195.463L303.741 196.118L307.289 195.212C329.57 196.388 352.125 195.633 374.448 195.555C374.173 195.252 373.898 194.957 373.645 194.643C362.452 181.079 331.784 136.703 328.448 127.118C371.874 138.564 344.363 109.068 344.448 108.143C334.754 108.013 289.655 109.585 280.003 110.485L274.998 109.892C264.354 108.432 253.161 108.471 242.412 108.143Z" fill="#69332D"/>
<path d="M841.076 107.765C850.77 107.634 860.781 106.97 870.433 107.877L875.438 107.28C888.574 107.53 901.718 107.559 914.868 107.366C912.672 119.192 855.923 179.225 844.941 191.574L843.04 192.184L843.146 193.296C820.865 194.481 798.309 193.72 775.986 193.642C776.261 193.336 776.535 193.038 776.789 192.722C787.982 179.048 838.077 121.762 841.414 112.099C841.668 111.346 841.161 108.698 841.076 107.765Z" fill="#884230"/>
<path d="M841.076 107.765C850.77 107.634 860.781 106.97 870.433 107.877C867.983 119.152 813.114 178.303 801.731 192.256C815.437 192.203 829.355 191.627 843.04 192.184L843.146 193.296C820.865 194.481 798.309 193.72 775.986 193.642C776.261 193.336 776.535 193.038 776.789 192.722C787.982 179.048 838.077 121.762 841.414 112.099C841.668 111.346 841.161 108.698 841.076 107.765Z" fill="#69332D"/>
<path d="M77.8615 173.416L132.134 173.123C139.409 190.064 146.952 206.885 154.762 223.585C173.89 223.644 193.214 224.305 212.319 223.619C272.364 226.204 332.958 224.71 393.053 224.682C475.207 224.494 557.358 224.876 639.508 225.828C671.26 226.018 703.012 225.961 734.763 225.657C751.352 225.526 769.84 223.868 786.25 226.024C805.342 225.735 825.384 224.115 844.392 225.512C840.21 234.512 827.792 252.909 818.478 256.409C817.126 256.922 815.733 257.274 814.318 257.601C646.394 262.346 477.985 261.034 309.997 261.257L170.171 261.217C144.888 261.181 119.127 260.019 93.9314 261.572C96.4995 260.27 97.5681 259.139 99.2577 256.822L97.5598 247.963C91.3394 223.023 84.7732 198.174 77.8615 173.416Z" fill="#A46047"/>
<path d="M786.25 226.024C805.342 225.735 825.384 224.115 844.392 225.512C840.21 234.512 827.792 252.909 818.478 256.409C817.126 256.922 815.733 257.274 814.318 257.601C646.394 262.346 477.985 261.034 309.997 261.257L170.171 261.217C144.888 261.181 119.127 260.019 93.9314 261.572C96.4995 260.27 97.5681 259.139 99.2577 256.822L97.5598 247.963C145.041 248.362 192.623 246.537 240.142 246.549C433.756 245.126 627.358 246.013 820.95 249.21C827.454 243.914 835.818 235.863 836.831 227.423C821.752 228.337 800.442 231.423 786.25 226.024Z" fill="#884230"/>
<path d="M805.722 53.4037C835.564 53.3552 1046.89 51.5323 1054.89 55.693C1056.26 59.4739 1056.31 60.2504 1055.59 64.2107L1052.48 67.9199L1052.14 64.1114C1046.29 60.5288 902.534 64.8371 884.308 64.9215C859.176 69.0463 832.502 65.1472 807.496 69.4936C795.289 71.6119 785.701 82.98 772.628 84.9654C759.082 87.0184 743.166 83.0876 730.461 88.0374C730.038 88.202 729.61 88.3476 729.189 88.5185C728.936 88.6198 728.691 88.7423 728.442 88.8541C683.421 92.3628 623.501 88.9364 577.002 88.7423C473.99 91.0358 370.485 89.6073 267.424 89.3541C238.072 89.2803 174.68 85.1133 150.004 89.4344C146.2 100.26 130.861 135.677 134.874 144.81C135.349 145.889 135.416 145.893 136.041 146.68C114.432 142.582 90.2861 149.224 68.3239 145.372C63.9775 131.607 84.457 72.7577 88.0494 54.7076C125.315 52.3909 163.569 54.332 200.927 54.4544L411.801 54.7309C455.031 50.2115 501.789 53.4543 545.344 53.4606L805.722 53.4037Z" fill="#F2A15A"/>
<path d="M805.722 53.4037C835.564 53.3552 1046.89 51.5323 1054.89 55.693C1056.26 59.4739 1056.31 60.2504 1055.59 64.2107L1052.48 67.9199L1052.14 64.1114C1046.29 60.5288 902.534 64.8371 884.308 64.9215L867.328 64.046C888.806 56.7774 961.479 62.7927 989.905 59.227L988.955 56.9251L988.364 57.7564C952.271 54.0282 905.596 56.8512 868.321 56.1634C763.048 55.1127 657.773 54.8321 552.495 55.3216C505.739 55.3279 458.501 56.6973 411.801 54.7309C455.031 50.2115 501.789 53.4543 545.344 53.4606L805.722 53.4037Z" fill="#BF6E49"/>
<path d="M640.437 65.0272L867.328 64.046L884.308 64.9215C859.176 69.0463 832.502 65.1472 807.496 69.4936C795.289 71.6119 785.701 82.98 772.628 84.9654C759.082 87.0184 743.166 83.0876 730.461 88.0374C730.038 88.202 729.61 88.3476 729.189 88.5185C728.936 88.6198 728.691 88.7423 728.442 88.8541C683.421 92.3628 623.501 88.9364 577.002 88.7423C588.597 80.0137 607.902 69.4304 622.274 67.3543C628.409 66.4703 634.819 67.9557 640.437 65.0272Z" fill="#A46047"/>
<path d="M95.1667 64.5841L640.437 65.0272C634.819 67.9557 628.409 66.4703 622.274 67.3543C607.902 69.4304 588.597 80.0137 577.002 88.7423C473.99 91.0358 370.485 89.6073 267.424 89.3541C238.072 89.2803 174.68 85.1133 150.004 89.4344C146.2 100.26 130.861 135.677 134.874 144.81C135.349 145.889 135.416 145.893 136.041 146.68C114.432 142.582 90.2861 149.224 68.3239 145.372L72.2183 144.007C79.9248 131.096 89.7685 82.5688 95.1667 64.5841Z" fill="#BF6E49"/>
<path d="M557.336 105.429C568.432 104.256 680.11 102.482 682.712 104.716C682.942 104.915 683.09 105.193 683.28 105.434C711.612 103.149 785.954 103.931 813.558 107.322L841.076 107.765C841.161 108.698 841.668 111.346 841.414 112.099C838.077 121.762 787.982 179.048 776.789 192.722C776.535 193.038 776.261 193.336 775.986 193.642L742.136 193.825L717.893 193.918L684.35 194.011C667.778 194.247 651.165 193.96 634.589 193.922L593.287 193.941L574.333 194.076L544.351 194.102C526.805 194.783 509.092 194.3 491.527 194.294L456.857 194.507C447.966 194.819 439.257 194.593 430.374 194.093L429.311 194.23C409.862 197.796 386.192 194.931 366.396 194.368C341.275 197.712 311.982 194.349 286.396 194.106C308.972 166.344 329.524 136.352 350.388 107.271C368.212 105.09 387.136 106.185 405.117 106.117C455.276 104.83 507.31 102.807 557.336 105.429Z" fill="#69332D"/>
<path d="M611.173 107.721C621.849 107.868 632.496 107.554 643.163 107.25C622.17 137.637 595.059 163.479 574.333 194.076L544.351 194.102C566.9 165.52 589.174 136.726 611.173 107.721Z" fill="#884230"/>
<path d="M230.27 107.589C240.946 107.737 251.592 107.422 262.259 107.118C241.267 137.505 214.156 163.347 193.429 193.945L163.448 193.97C185.996 165.388 208.27 136.594 230.27 107.589Z" fill="#884230"/>
<path d="M813.558 107.322L841.076 107.765C841.161 108.698 841.668 111.346 841.414 112.099C838.077 121.762 787.982 179.048 776.789 192.722C776.535 193.038 776.261 193.336 775.986 193.642L742.136 193.825C764.434 164.021 792.332 137.945 813.558 107.322Z" fill="#884230"/>
<path d="M955.869 106.118L983.388 106.562C983.473 107.494 983.979 110.142 983.726 110.895C980.389 120.559 930.294 177.844 919.1 191.518C918.847 191.835 918.572 192.132 918.298 192.438L884.448 192.622C906.745 162.817 934.644 136.741 955.869 106.118Z" fill="#884230"/>
<path d="M404.405 107.267C414.515 107.438 424.614 107.664 434.724 107.345C411.998 136.356 389.659 165.789 366.396 194.368C356.326 192.819 345.175 193.68 334.96 193.627C348.083 178.02 391.047 113.017 404.405 107.267Z" fill="#884230"/>
<path d="M288.893 109.118C299.003 109.289 309.102 109.515 319.212 109.196C296.485 138.207 274.147 167.64 250.884 196.219C240.814 194.67 229.663 195.531 219.448 195.478C232.571 179.871 275.535 114.868 288.893 109.118Z" fill="#884230"/>
<path d="M524.742 107.455C535.569 107.393 546.396 107.396 557.222 107.465C537.162 137.495 510.442 163.677 491.527 194.294L456.857 194.507C479.278 165.327 501.906 136.31 524.742 107.455Z" fill="#884230"/>
<path d="M753.927 108.008L788.721 108.064C764.37 136.13 741.437 165.209 717.893 193.918L684.35 194.011C706.453 164.463 729.645 135.795 753.927 108.008Z" fill="#884230"/>
<path d="M461.516 107.887L494.668 107.885C473.861 137.092 451.151 164.89 430.374 194.093L429.311 194.23C416.532 193.477 403.847 193.382 391.049 193.45C415.567 165.81 438.399 136.694 461.516 107.887Z" fill="#884230"/>
<path d="M664.247 107.854L699.755 108.105C678.429 136.991 655.442 164.73 634.589 193.922L593.287 193.941C616.671 165.276 639.548 135.333 664.247 107.854Z" fill="#884230"/>
<path d="M545.447 1.61848L636.447 3.11865C644.308 3.02159 646.568 2.46212 653.947 5.11847C652.604 10.8278 661.422 -2.21955 660.947 3.61851L674.703 1.35618C707.875 1.31117 741.044 1.05723 774.212 0.594458C791.171 0.535381 809.228 -0.822437 826.039 0.774749C826.99 6.54319 826.947 9.85143 823.273 14.9257C822.554 15.9131 821.71 16.8309 820.886 17.7276L821.33 19.5801L813.199 38.467C810.854 43.5096 808.637 48.648 805.722 53.4037L545.344 53.4606C501.789 53.4543 455.031 50.2115 411.801 54.7309L200.927 54.4544C163.569 54.332 125.315 52.3909 88.0494 54.7076C79.7452 52.0829 76.4761 45.1828 72.3831 38.1146C69.551 50.6938 67.3439 63.8489 62.4252 75.8056C58.5286 92.2437 51.1917 136.161 40.6003 147.227C30.3024 149.871 18.9507 151.827 9.85031 157.498C8.39729 161.028 8.6022 161.833 9.09428 165.481C7.09849 167.264 5.36236 169.152 2.70764 169.861L0.614782 158.465C-1.33455 150.894 1.79952 142.959 3.79109 135.606C5.22933 125.61 8.88513 115.28 11.5124 105.494L24.5305 53.3396L27.1092 44.6004C28.5664 30.1688 34.1315 14.7919 37.8759 0.718985L115.045 0.837075L250.359 0.763286L318.613 0.590209L390.88 0.558529C415.907 0.564859 440.976 0.88138 465.994 0.518479C484.959 0.581776 504.252 -0.0933541 523.169 1.15992L525.099 1.18104C527.331 1.12196 529.568 1.06706 531.794 0.902493C535.519 0.626097 538.989 9.01095 541.447 6.11829C537.211 0.898425 552.95 18.9415 550.447 12.6181C558.447 20.6181 545.582 1.97927 545.447 1.61848Z" fill="#A46047"/>
<path d="M62.4252 75.8056C61.327 64.7751 64.2035 47.7788 69.8382 38.1767C85.9714 35.0288 111.547 38.8308 128.852 39.0882L272.402 40.1115C452.671 40.6558 632.936 40.1071 813.199 38.467C810.854 43.5096 808.637 48.648 805.722 53.4037L545.344 53.4606C501.789 53.4543 455.031 50.2115 411.801 54.7309L200.927 54.4544C163.569 54.332 125.315 52.3909 88.0494 54.7076C79.7452 52.0829 76.4761 45.1828 72.3831 38.1146C69.551 50.6938 67.3439 63.8489 62.4252 75.8056Z" fill="#69332D"/>
<path d="M596.447 1.35693C596.447 1.35693 624.587 2.71556 632.447 2.6185C640.308 2.52145 650.447 1.16077 650.447 1.16077L661.121 0.991948L674.703 1.35618C707.875 1.31117 741.044 1.05723 774.212 0.594458C791.171 0.535381 809.228 -0.822437 826.039 0.774749C826.99 6.54319 826.947 9.85143 823.273 14.9257C822.554 15.9131 821.71 16.8309 820.886 17.7276C561.078 15.0017 300.97 23.7766 41.2044 17.0355C35.3986 37.3327 9.92639 151.195 3.48494 157.807L0.614782 158.465C-1.33455 150.894 1.79952 142.959 3.79109 135.606C5.22933 125.61 8.88513 115.28 11.5124 105.494L24.5305 53.3396L27.1092 44.6004C28.5664 30.1688 34.1315 14.7919 37.8759 0.718985L115.045 0.837075L250.359 0.763286L318.613 0.590209L390.88 0.558529C415.907 0.564859 440.976 0.88138 465.994 0.518479C484.959 0.581776 504.252 -0.0933541 523.169 1.15992L525.099 1.18104C527.331 1.12196 529.568 1.06706 531.794 0.902493C535.519 0.626097 558.947 0.118495 558.947 0.118495L575.447 0.903348L596.447 1.35693Z" fill="#F3B86F"/>
<path d="M343.459 107.213L363.879 107.118C343.015 136.199 322.464 166.191 299.887 193.953L275.448 193.959C295.805 164.149 319.953 134.636 343.459 107.213Z" fill="#884230"/>
<defs>
<linearGradient id="paint0_linear_71_22645" x1="332.6" y1="170.812" x2="316.717" y2="46.2503" gradientUnits="userSpaceOnUse">
<stop stop-color="#562F2F"/>
<stop offset="1" stop-color="#7C4236"/>
</linearGradient>
<linearGradient id="paint1_linear_71_22645" x1="577.059" y1="-5.70495" x2="619.393" y2="371.458" gradientUnits="userSpaceOnUse">
<stop stop-color="#62231D"/>
<stop offset="1" stop-color="#2D1220"/>
</linearGradient>
<linearGradient id="paint2_linear_71_22645" x1="594.159" y1="2366.59" x2="-487.476" y2="2103.52" gradientUnits="userSpaceOnUse">
<stop stop-color="#EC8943"/>
<stop offset="1" stop-color="#FAAF6B"/>
</linearGradient>
</defs>
</svg>
