<svg width="1579" height="661" viewBox="0 0 1579 661" fill="none" xmlns="http://www.w3.org/2000/svg">
<path d="M129 61H1431V608H129V61Z" fill="url(#paint0_linear_92_33422)"/>
<path d="M0 31C7.43678 32.9682 14.8959 34.8466 22.3774 36.6352C39.1977 45.0287 56.6862 51.8987 74.0968 58.9583C84.986 191.826 100.526 325.282 130.528 455.415C132.046 464.693 133.252 474.155 135.328 483.322C138.096 523.661 146.827 565.266 153.534 605.208C156.36 622.041 161.85 642.528 160.888 659.519C146.488 658.918 129.966 659.173 115.729 661C112.051 637.377 105.785 614.119 98.7229 591.298C93.3605 561.954 85.6519 533.55 79.5392 504.441C69.2143 455.265 60.2344 405.498 50.8999 356.102C44.6639 323.114 40.7459 289.726 35.245 256.613C22.7644 181.457 10.2773 106.546 0 31Z" fill="#483145"/>
<path d="M371.083 10.9102C396.356 13.5655 451.51 5.80427 480.325 4.47446C573.528 0.170343 667.455 1.93762 760.734 2.12513C794.112 2.19195 833.146 -3.12514 865.873 2.81484C924.608 4.1231 983.361 3.04328 1042.09 4.53905C1079.56 5.49384 1117.44 9.68375 1154.82 9.28071C1185.97 12.4748 1217.47 11.3908 1248.74 13.0095C1325.22 16.9644 1402.33 21.3418 1478.47 29.9328C1488.23 30.9781 1496.72 32.6635 1504.95 38.3017L1505.34 40.0519L1507 41.8601C1507 50.5222 1506.48 57.1066 1503.25 65.1846C1503.4 69.3702 1503.06 70.8445 1500.92 74.4589C1511.74 93.822 1438.72 450.822 1426.08 495.628C1424.2 502.243 1422.46 508.98 1418.81 514.873C1422.59 529.132 1412.01 573.424 1404.42 586.78C1403.15 589.028 1401.54 591.041 1399.88 593C1394.34 586.2 1382.66 582.652 1374.58 579.717C1379.6 573.99 1383.54 566.958 1383.01 559.052C1382.81 556.377 1381.69 554.026 1380.46 551.696C1386.78 546.739 1388.63 540.15 1390.5 532.645C1399.49 496.559 1401.77 457.1 1407.93 420.182L1430.82 283.983C1436.35 251.02 1443.18 217.352 1444.3 183.887C1444.76 170.675 1443.57 155.181 1436.35 143.674C1432.78 137.945 1429.82 136.992 1423.6 135.432C1423.51 133.326 1423.25 131.356 1422.67 129.32C1419.25 117.192 1409.21 108.148 1398.43 102.48C1382.7 94.2121 1364.18 90.2808 1346.68 87.8712C1311.24 82.983 1275.65 83.0002 1239.97 81.6747L1121.25 76.1551C995.805 70.6634 870.3 68.2071 744.736 68.7861C619.173 69.3666 493.696 72.9817 368.306 79.6315C320.869 81.9183 274.81 82.6985 227.567 88.3518C213.043 90.089 197.914 91.0309 183.901 95.363C165.21 99.9753 150.975 109.569 140.937 126.244C125.243 152.314 124.634 206.843 133.452 236.177C133.812 237.369 133.984 237.556 134.54 238.489C138.451 310.316 157.426 378.564 168.879 449.022L159.253 461.025L157.622 460.542C147.808 457.682 140.138 455.581 129.764 455.391C99.8694 325.238 84.3847 191.761 73.5345 58.8718C56.1861 51.8111 38.7602 44.94 22 36.5452C71.7656 17.389 141.491 20.7124 194.984 18.4127C223.193 17.2014 251.347 14.8199 279.547 13.6732C310.071 12.434 340.542 12.531 371.083 10.9102Z" fill="url(#paint1_linear_92_33422)"/>
<path d="M866.353 3C925.044 4.31476 983.752 3.22957 1042.44 4.73277C1079.88 5.69231 1117.73 9.90304 1155.08 9.49799C1186.21 12.708 1217.69 11.6186 1248.93 13.2453C1325.36 17.2199 1402.41 21.619 1478.5 30.2527C1488.25 31.3032 1496.73 32.997 1504.95 38.6632L1505.34 40.422L1507 42.2393C1507 50.9444 1506.48 57.5615 1503.25 65.6796C1503.4 69.886 1503.06 71.3676 1500.93 75L1500.95 70.8543C1492.68 64.2025 1481.83 64.4126 1473.61 58.142L1473.65 55.4887C1441.9 39.5426 952.752 32.685 878.161 32.5724C873.289 24.5279 864.088 12.5001 866.353 3Z" fill="#ECAB71"/>
<path d="M1505.36 41L1507 42.7869C1507 51.3465 1506.49 57.8529 1503.3 65.8354C1503.45 69.9715 1503.11 71.4283 1501 75L1501.02 70.9236C1492.85 64.383 1482.13 64.5895 1474 58.4238L1474.04 55.8148C1483.32 56.0555 1494 56.9904 1502.15 51.93C1505.55 47.319 1505.43 46.7952 1505.36 41Z" fill="#9D6160"/>
<path d="M371.209 10.9314C396.491 13.5919 451.665 5.81556 480.49 4.48316C573.727 0.170675 667.688 1.94139 761.001 2.12927C794.391 2.19621 833.439 -3.13122 866.178 2.82032C863.911 12.2918 873.122 24.2835 878 32.3038C702.626 32.4118 527.258 31.7898 352.018 39.7713C296.192 42.344 240.424 45.8265 184.711 50.2189C148.095 53.3199 110.297 59.3233 73.5531 58.9864C56.1985 51.9119 38.7662 45.0275 22 36.6163C71.7836 17.4228 141.534 20.7527 195.046 18.4485C223.266 17.2349 251.429 14.8487 279.64 13.6999C310.175 12.4581 340.657 12.5554 371.209 10.9314Z" fill="#908685"/>
<path d="M1507.53 42C1528.08 47.9922 1554.2 42.9821 1573.3 52.0501C1577.11 54.8093 1578.1 54.9084 1578.75 59.8043C1579.72 67.1427 1577.71 77.0873 1575.69 84.1651C1576.57 90.5364 1575.86 94.6417 1572.02 99.9231C1571.12 101.153 1570.15 102.299 1569.14 103.44C1574.74 116.263 1570.77 136.215 1565.73 148.815C1564.78 151.193 1563.4 153.155 1561.66 154.999C1561.81 159.808 1561.68 163.767 1560.34 168.413C1561.96 176.702 1561.23 184.404 1559.83 192.664C1553.79 227.928 1542.48 261.805 1535.52 296.74C1521.68 366.111 1508.3 435.962 1493.02 505.013C1487.23 531.189 1479.62 556.92 1473.67 583.047C1470.42 597.353 1469.81 612.179 1466.32 626.418C1464.12 635.333 1461.04 646.973 1455.65 654.518C1454.77 655.763 1453.84 656.883 1452.79 657.993C1383.7 660.379 1314.11 658.531 1244.96 658.516L792.029 656.704C581.495 655.884 370.797 662.057 160.258 659.274C161.217 642.29 155.746 621.813 152.929 604.989C146.244 565.066 137.543 523.48 134.784 483.161C132.715 473.998 131.513 464.541 130 455.268C140.376 455.457 148.048 457.558 157.864 460.416L159.495 460.898L169.124 448.903C180.287 493.381 196.313 535.54 209.741 579.269C281.188 577.923 352.675 579.224 424.129 578.834C481.869 578.517 539.625 576.467 597.353 576.368C639.824 576.297 716.936 585.813 755.726 574.776C773.414 576.734 789.825 577.759 807.526 574.916L821.751 570.3C865.264 570.464 908.772 570.029 952.272 568.997C974.768 568.543 998.15 569.318 1020.5 566.61C1109.91 572.691 1206.28 558.505 1297.24 568.84C1304.61 567.944 1312.13 566.942 1319.27 564.853C1324.09 563.433 1327.67 561.503 1330.17 557.097C1339.69 554.333 1347.69 548.815 1354.18 541.276C1358.79 535.911 1362.67 529.75 1362.09 522.438C1368.77 516.978 1370.68 509.114 1372.82 501.112C1384.71 456.422 1389.56 409.131 1398.2 363.642C1408.7 308.351 1423.27 251.983 1430.33 196.274C1432.75 177.227 1436.58 151.66 1424.11 135.512C1430.33 137.072 1433.29 138.024 1436.86 143.749C1444.08 155.249 1445.27 170.733 1444.82 183.937C1443.69 217.381 1436.86 251.027 1431.32 283.969L1408.44 420.082C1402.28 456.976 1399.99 496.41 1391.01 532.473C1389.13 539.973 1387.28 546.557 1380.96 551.511C1382.19 553.84 1383.31 556.19 1383.51 558.863C1384.04 566.763 1380.1 573.792 1375.08 579.515C1383.16 582.448 1394.84 585.993 1400.38 592.789C1402.04 590.831 1403.65 588.819 1404.93 586.573C1412.51 573.225 1423.09 528.962 1419.32 514.712C1422.96 508.823 1424.71 502.09 1426.58 495.479C1439.23 450.702 1512.27 93.9288 1501.45 74.578C1503.58 70.9659 1503.93 69.4925 1503.78 65.3096C1507.01 57.2367 1507.53 50.6566 1507.53 42ZM1397.25 620.161C1397.92 617.311 1399 615.392 1397.28 612.687C1390.29 601.67 1360.43 599.16 1348.79 597.047C1293.47 603.018 1239.6 600.341 1184.15 599.402L1000.87 597.573L465.276 598.643C412.916 598.29 202.561 590.196 171.352 603.742L171.729 605.616C186.627 612.577 205.759 614.52 222.094 615.263C375.071 620.713 528.095 622.96 681.165 622.007L1186.22 621.914C1211.36 621.93 1382.41 625.781 1393.55 622.074C1394.84 621.647 1396.2 620.982 1397.25 620.161ZM1020.5 566.61C998.15 569.318 974.768 568.543 952.272 568.997C908.772 570.029 865.264 570.464 821.751 570.3L807.526 574.916C812.639 577.399 817.066 577.994 822.662 578.306C895.641 582.371 969.187 578.599 1042.24 578.218C1126.09 577.779 1210.57 580.126 1294.33 577.43L1297.24 568.84C1206.28 558.505 1109.91 572.691 1020.5 566.61ZM1507.53 42C1507.53 50.6566 1507.01 57.2367 1503.78 65.3096C1509.4 65.7598 1513.54 66.3737 1517.57 70.772C1522.18 75.8035 1524.66 82.9761 1527.2 89.2095C1538.88 90.5665 1560.24 90.7173 1568.12 100.472C1569.16 101.747 1568.75 101.241 1569.14 103.44C1570.15 102.299 1571.12 101.153 1572.02 99.9231C1575.86 94.6417 1576.57 90.5364 1575.69 84.1651C1577.71 77.0873 1579.72 67.1427 1578.75 59.8043C1578.1 54.9084 1577.11 54.8093 1573.3 52.0501C1554.2 42.9821 1528.08 47.9922 1507.53 42ZM1400.38 592.789C1394.84 585.993 1383.16 582.448 1375.08 579.515C1380.1 573.792 1384.04 566.763 1383.51 558.863C1383.31 556.19 1382.19 553.84 1380.96 551.511C1380.96 563.804 1372.71 576.835 1364.33 585.332C1359.74 589.989 1354.28 593.532 1348.79 597.047C1360.43 599.16 1390.29 601.67 1397.28 612.687C1399 615.392 1397.92 617.311 1397.25 620.161C1413.4 598.803 1422.23 558.876 1424.45 532.273C1425.1 524.394 1424.36 520.766 1419.32 514.712C1423.09 528.962 1412.51 573.225 1404.93 586.573C1403.65 588.819 1402.04 590.831 1400.38 592.789ZM1362.09 522.438C1362.67 529.75 1358.79 535.911 1354.18 541.276C1347.69 548.815 1339.69 554.333 1330.17 557.097C1327.67 561.503 1324.09 563.433 1319.27 564.853C1312.13 566.942 1304.61 567.944 1297.24 568.84L1294.33 577.43C1308.4 577.962 1324.31 578.89 1338.1 575.521C1349.48 572.738 1359.2 562.863 1364.93 553.002C1368.59 546.706 1371.31 537.716 1369.26 530.526C1367.65 524.958 1366.98 525.089 1362.09 522.438Z" fill="url(#paint2_linear_92_33422)"/>
<path d="M1362.08 522C1367 524.674 1367.67 524.542 1369.29 530.157C1371.35 537.409 1368.62 546.476 1364.94 552.826C1359.18 562.771 1349.41 572.731 1337.98 575.538C1324.12 578.935 1308.14 577.999 1294 577.462L1296.92 568.799C1304.33 567.895 1311.89 566.885 1319.05 564.778C1323.9 563.346 1327.5 561.4 1330.01 556.955C1339.58 554.168 1347.62 548.603 1354.13 541C1358.77 535.588 1362.67 529.375 1362.08 522Z" fill="#66657C" fill-opacity="0.964706"/>
<path d="M1399.68 593.485C1401.35 591.517 1402.97 589.495 1404.24 587.236C1411.84 573.819 1422.44 529.325 1418.66 515C1423.71 521.086 1424.45 524.732 1423.8 532.653C1421.58 559.394 1412.73 599.53 1396.55 621C1397.22 618.135 1398.3 616.206 1396.58 613.487C1389.58 602.412 1359.66 599.89 1348 597.766C1353.51 594.232 1358.97 590.67 1363.57 585.989C1371.96 577.448 1380.23 564.348 1380.23 551.992C1381.46 554.332 1382.59 556.695 1382.78 559.382C1383.32 567.323 1379.37 574.388 1374.34 580.141C1382.44 583.09 1394.14 586.654 1399.68 593.485Z" fill="#483145" fill-opacity="0.964706"/>
<path d="M1507.74 42C1528.24 48.0468 1554.28 42.991 1573.31 52.1416C1577.12 54.9259 1578.1 55.026 1578.75 59.9664C1579.72 67.3717 1577.72 77.4069 1575.7 84.5491C1576.58 90.9784 1575.87 95.1211 1572.05 100.451C1571.14 101.692 1570.18 102.848 1569.17 104C1568.78 101.781 1569.19 102.292 1568.16 101.005C1560.29 91.1609 1539 91.0088 1527.35 89.6395C1524.82 83.3493 1522.35 76.1114 1517.75 71.034C1513.73 66.5957 1509.61 65.9762 1504 65.5219C1507.22 57.3755 1507.74 50.7354 1507.74 42Z" fill="#804D4F" fill-opacity="0.976471"/>
<path d="M1020.66 566.643C1109.94 572.63 1206.17 558.662 1297 568.838L1294.1 577.296C1210.45 579.951 1126.1 577.639 1042.37 578.072C969.425 578.448 895.987 582.161 823.115 578.159C817.526 577.852 813.106 577.266 808 574.821L822.204 570.276C865.654 570.437 909.098 570.009 952.535 568.993C974.998 568.545 998.346 569.309 1020.66 566.643Z" fill="#1C5075" fill-opacity="0.886275"/>
<path d="M1397.05 620.446C1395.99 621.274 1394.63 621.945 1393.34 622.376C1382.2 626.115 1211.14 622.23 1185.98 622.215L680.874 622.308C527.785 623.27 374.743 621.003 221.748 615.506C205.411 614.757 186.276 612.797 171.377 605.776L171 603.885C202.212 590.222 412.593 598.387 464.959 598.743L1000.61 597.663L1183.92 599.508C1239.37 600.455 1293.25 603.155 1348.58 597.133C1360.22 599.264 1390.09 601.796 1397.07 612.908C1398.79 615.637 1397.72 617.572 1397.05 620.446Z" fill="url(#paint3_linear_92_33422)"/>
<path d="M184 95C182.747 96.5627 182.719 97.0388 180.781 97.6902C166.473 102.495 148.671 114.931 142.193 129.023C120.587 176.015 159.69 290.043 158.065 346C142.414 323.93 144.03 288.667 141.223 262.5L141.06 267.872C139.573 257.814 137.723 248.475 134.773 238.727C134.219 237.79 134.047 237.601 133.688 236.405C124.893 206.948 125.501 152.19 141.153 126.011C151.163 109.265 165.36 99.6317 184 95Z" fill="#0C3D5D"/>
<path d="M135 238C137.959 247.712 139.815 257.017 141.306 267.038L141.47 261.686C144.284 287.756 142.664 322.891 158.362 344.879C175.621 417.638 181.996 496.659 218.185 563.354C275.437 573.441 331.97 570.321 389.754 570.088L611.099 569.87C656.759 569.739 701.922 567.647 747.573 570.817L756 574.657C717.207 585.707 640.088 576.18 597.614 576.251C539.881 576.35 482.121 578.403 424.375 578.72C352.916 579.11 281.422 577.808 209.97 579.156C196.541 535.377 180.513 493.17 169.349 448.64C157.892 378.146 138.912 309.864 135 238Z" fill="#1C5075"/>
<defs>
<linearGradient id="paint0_linear_92_33422" x1="1069.47" y1="1104.89" x2="791.913" y2="144.907" gradientUnits="userSpaceOnUse">
<stop stop-color="#261823"/>
<stop offset="0.282869" stop-color="#2C1E28"/>
<stop offset="1" stop-color="#45383D"/>
</linearGradient>
<linearGradient id="paint1_linear_92_33422" x1="697.83" y1="647.707" x2="882.751" y2="-99.7056" gradientUnits="userSpaceOnUse">
<stop stop-color="#373762"/>
<stop offset="1" stop-color="#916A66"/>
</linearGradient>
<linearGradient id="paint2_linear_92_33422" x1="833.235" y1="711.935" x2="771.217" y2="100.854" gradientUnits="userSpaceOnUse">
<stop stop-color="#222747" stop-opacity="0.898039"/>
<stop offset="1" stop-color="#665362"/>
</linearGradient>
<linearGradient id="paint3_linear_92_33422" x1="791.185" y1="670.936" x2="780.638" y2="549.561" gradientUnits="userSpaceOnUse">
<stop stop-color="#66657F" stop-opacity="0.886275"/>
<stop offset="1" stop-color="#666479"/>
</linearGradient>
</defs>
</svg>
