<svg width="225" height="242" viewBox="0 0 225 242" fill="none" xmlns="http://www.w3.org/2000/svg">
<path d="M222.428 128.49C226.871 136.111 224.66 145.332 222.477 153.368C213.908 184.924 198.078 210.799 169.086 227.441C142.845 242.502 112.347 245.712 83.2472 237.84C60.3635 231.646 40.3189 220.154 28.2952 199.246C26.1535 195.523 24.4349 191.374 24.5169 187.009C31.0696 193.861 38.2636 200.429 46.0815 205.812C47.6576 206.896 49.2596 207.94 50.8876 208.943C52.514 209.948 54.1649 210.912 55.8403 211.835C57.5157 212.758 59.2128 213.64 60.9314 214.48C62.65 215.319 64.3887 216.117 66.1476 216.872C67.9051 217.626 69.6805 218.336 71.4739 219.004C73.2674 219.67 75.0759 220.292 76.8996 220.871C78.7247 221.449 80.562 221.982 82.4116 222.469C84.2626 222.957 86.1237 223.399 87.9949 223.795C89.8675 224.191 91.7487 224.541 93.6386 224.844C95.5271 225.148 97.4228 225.405 99.3256 225.615C101.228 225.826 103.135 225.99 105.045 226.106C106.955 226.222 108.866 226.292 110.779 226.315C112.694 226.338 114.607 226.313 116.52 226.241C118.432 226.17 120.341 226.05 122.248 225.884C124.155 225.719 126.057 225.507 127.952 225.249C129.848 224.989 131.736 224.683 133.618 224.331C160.228 219.45 182.12 206.023 197.622 183.908C210.589 167.223 216.356 148.316 222.428 128.49Z" fill="#0F1328"/>
<path d="M195.072 120.77C200.269 116.957 211.267 113.797 214.02 108.089L210.669 106.709L200.688 110.873L197.48 109.51L197.994 106.418C202.128 103.627 204.805 102.746 209.825 102.54C213.353 102.391 219.554 109.284 222.253 111.808L222.428 128.49C216.356 148.316 210.589 167.223 197.622 183.908C182.12 206.023 160.228 219.45 133.618 224.331C131.736 224.683 129.848 224.989 127.952 225.249C126.057 225.507 124.155 225.719 122.248 225.884C120.341 226.05 118.432 226.17 116.52 226.241C114.607 226.313 112.694 226.338 110.779 226.315C108.866 226.292 106.955 226.222 105.045 226.106C103.135 225.99 101.228 225.826 99.3256 225.615C97.4228 225.405 95.5271 225.148 93.6386 224.844C91.7487 224.541 89.8675 224.191 87.9949 223.795C86.1237 223.399 84.2626 222.957 82.4116 222.469C80.562 221.982 78.7247 221.449 76.8996 220.871C75.0759 220.292 73.2674 219.67 71.4739 219.004C69.6805 218.336 67.9051 217.626 66.1476 216.872C64.3887 216.117 62.65 215.319 60.9314 214.48C59.2128 213.64 57.5157 212.758 55.8403 211.835C54.1649 210.912 52.514 209.948 50.8876 208.943C49.2596 207.94 47.6576 206.896 46.0815 205.812C38.2636 200.429 31.0696 193.861 24.5169 187.009C16.0081 176.946 10.7854 165.64 5.74187 153.635L10.7854 153.508C17.7181 153.409 24.1498 152.195 30.9249 150.857C34.2909 153.818 37.6007 157.053 41.3984 159.447C51.2134 172.062 62.2785 182.067 77.137 188.415C97.4147 197.08 122.414 196.886 142.675 188.266C172.415 175.613 180.408 151.053 191.385 123.376L195.072 120.77Z" fill="#9D6160"/>
<path d="M5.74187 153.635L10.7854 153.508C30.7004 182.446 52.9687 207.098 89.3313 213.825C112.165 218.05 143.581 213.638 163.013 200.304C169.013 196.187 186.305 178.662 192.555 179.312L197.622 183.908C182.12 206.023 160.228 219.45 133.618 224.331C131.736 224.683 129.848 224.989 127.952 225.249C126.057 225.507 124.155 225.719 122.248 225.884C120.341 226.05 118.432 226.17 116.52 226.241C114.607 226.313 112.694 226.338 110.779 226.315C108.866 226.292 106.955 226.222 105.045 226.106C103.135 225.99 101.228 225.826 99.3256 225.615C97.4228 225.405 95.5271 225.148 93.6386 224.844C91.7487 224.541 89.8675 224.191 87.9949 223.795C86.1237 223.399 84.2626 222.957 82.4116 222.469C80.562 221.982 78.7247 221.449 76.8996 220.871C75.0759 220.292 73.2674 219.67 71.4739 219.004C69.6805 218.336 67.9051 217.626 66.1476 216.872C64.3887 216.117 62.65 215.319 60.9314 214.48C59.2128 213.64 57.5157 212.758 55.8403 211.835C54.1649 210.912 52.514 209.948 50.8876 208.943C49.2596 207.94 47.6576 206.896 46.0815 205.812C38.2636 200.429 31.0696 193.861 24.5169 187.009C16.0081 176.946 10.7854 165.64 5.74187 153.635Z" fill="#5B3534"/>
<path d="M5.74187 153.635C4.04486 145.734 2.33066 137.795 1.23171 129.787C-3.06694 98.4353 3.78157 68.3114 23.4224 43.0392C24.5738 41.5634 25.7612 40.117 26.9847 38.7001C28.2096 37.2831 29.469 35.8985 30.763 34.5461C32.0584 33.1938 33.3863 31.8745 34.7465 30.5882C36.1081 29.3019 37.5007 28.0508 38.9242 26.8348C40.3492 25.6175 41.8037 24.4374 43.2877 23.2947C44.7716 22.152 46.2829 21.0473 47.8216 19.9806C49.3617 18.9125 50.9278 17.8846 52.5197 16.8969C54.1102 15.9078 55.7259 14.9603 57.3668 14.0544C59.0062 13.1471 60.6672 12.2815 62.3498 11.4575C64.0338 10.6349 65.7367 9.85454 67.4581 9.11664C69.181 8.37875 70.922 7.68468 72.6809 7.03435C74.4383 6.38403 76.2108 5.77822 77.9985 5.2169C79.7876 4.65558 81.5891 4.14016 83.4027 3.67072C85.2177 3.19985 87.0435 2.77496 88.8801 2.39596C90.7153 2.01696 92.5591 1.68459 94.4116 1.39891C96.2641 1.11322 98.1229 0.874181 99.9883 0.681811C128.95 -2.47722 158.861 5.35255 181.496 23.9363C208.795 46.3467 218.995 77.9392 222.253 111.808C219.554 109.284 213.353 102.391 209.825 102.54C204.805 102.746 202.128 103.627 197.994 106.418L197.48 109.51L200.688 110.873L210.669 106.709L214.02 108.089C211.267 113.797 200.269 116.957 195.072 120.77L191.385 123.376C190.139 95.6099 182.183 70.579 160.979 51.4116C160.025 50.5459 159.049 49.7039 158.051 48.8856C157.055 48.0687 156.039 47.2771 155.003 46.5105C153.966 45.7439 152.911 45.003 151.838 44.2881C150.764 43.5731 149.674 42.8855 148.567 42.2251C147.458 41.5662 146.335 40.9346 145.196 40.3302C144.057 39.7258 142.903 39.1502 141.736 38.6032C140.567 38.0562 139.386 37.5387 138.193 37.0506C136.998 36.5625 135.792 36.1037 134.576 35.6745C133.36 35.2467 132.134 34.8491 130.897 34.4816C129.659 34.1141 128.414 33.7773 127.162 33.4715C125.908 33.1672 124.648 32.8937 123.379 32.6511C122.113 32.4085 120.84 32.1968 119.562 32.0159C118.286 31.8379 117.004 31.6907 115.719 31.5744C114.434 31.4582 113.146 31.3742 111.857 31.3225C110.568 31.2708 109.279 31.2515 107.988 31.2644C106.698 31.2773 105.409 31.3218 104.121 31.3979C102.796 31.4869 101.475 31.6082 100.157 31.7619C98.8397 31.9155 97.5264 32.1013 96.2166 32.3195C94.9082 32.5377 93.6062 32.7882 92.3108 33.0711C91.0139 33.3539 89.725 33.669 88.4439 34.0165C87.1629 34.3624 85.892 34.74 84.6311 35.1491C83.3688 35.5597 82.1172 36.0004 80.8765 36.4712C79.6372 36.9421 78.4102 37.4439 77.1954 37.9765C75.9792 38.5077 74.778 39.069 73.592 39.6604C72.4045 40.2519 71.2321 40.8728 70.0748 41.5231C68.919 42.172 67.7798 42.8489 66.6571 43.5537C65.5343 44.2601 64.4297 44.9937 63.343 45.7546C62.2563 46.514 61.1897 47.2999 60.1433 48.1125C59.0954 48.9265 58.0685 49.7649 57.0623 50.6277C56.0577 51.492 55.0745 52.3799 54.113 53.2915C53.1516 54.2045 52.2132 55.1406 51.2977 56.0995C50.3823 57.0585 49.4913 58.039 48.6248 59.041C47.7381 60.0703 46.8789 61.122 46.0469 62.1958C45.215 63.2682 44.4103 64.3614 43.633 65.4754C42.8558 66.5894 42.1074 67.722 41.3877 68.8734C40.668 70.0247 39.9785 71.1934 39.3193 72.3792C38.6586 73.5664 38.0289 74.7687 37.4302 75.9861C36.8299 77.2049 36.2614 78.4373 35.7246 79.6834C35.1891 80.931 34.6846 82.1907 34.2111 83.4627C33.739 84.7346 33.2992 86.0181 32.8919 87.313C32.4831 88.6079 32.1082 89.912 31.767 91.2256C31.4259 92.5392 31.1179 93.86 30.843 95.1879C30.5695 96.5173 30.3291 97.8523 30.1218 99.1932C29.916 100.535 29.7439 101.881 29.6057 103.231C29.4676 104.58 29.3633 105.933 29.2928 107.288C29.2237 108.643 29.1884 109.999 29.187 111.356C29.187 112.712 29.2208 114.068 29.2884 115.423C29.3561 116.78 29.4583 118.133 29.5951 119.482C31.0028 134.866 36.6831 145.401 41.3984 159.447C37.6007 157.053 34.2909 153.818 30.9249 150.857C24.1498 152.195 17.7181 153.409 10.7854 153.508L5.74187 153.635Z" fill="url(#paint0_linear_92_33407)"/>
<path d="M30.9249 150.857C25.849 137.334 22.4529 122.547 22.373 108.098C22.3529 106.748 22.3665 105.399 22.414 104.051C22.4615 102.703 22.5436 101.357 22.6602 100.012C22.7768 98.6679 22.9271 97.3278 23.1114 95.9912C23.2956 94.6547 23.5138 93.3232 23.7657 91.9967C24.0175 90.6717 24.3032 89.3538 24.6227 88.0431C24.9408 86.731 25.2928 85.4281 25.6785 84.1347C26.0628 82.8412 26.4803 81.5585 26.9308 80.2866C27.3813 79.0146 27.8635 77.7549 28.3773 76.5074C28.8912 75.2584 29.4367 74.0237 30.0139 72.8035C30.5896 71.5832 31.1964 70.3781 31.834 69.188C32.4716 67.9979 33.1394 66.8249 33.8375 65.6693C34.5356 64.5136 35.2618 63.3759 36.0161 62.2561C36.7717 61.1363 37.5546 60.0367 38.365 58.9571C39.1768 57.8776 40.0145 56.8195 40.8781 55.783C41.7432 54.7451 42.6342 53.7301 43.5511 52.7381C44.4665 51.7447 45.4072 50.7757 46.373 49.8311C47.4295 48.7889 48.5111 47.7724 49.618 46.7819C50.7249 45.7927 51.8554 44.8316 53.0098 43.8985C54.1642 42.9639 55.3409 42.0588 56.5399 41.1831C57.7389 40.3088 58.9587 39.464 60.1995 38.6485C61.4416 37.8331 62.7025 37.0485 63.9821 36.2948C65.2617 35.5412 66.5592 34.8204 67.8748 34.1328C69.1918 33.4437 70.524 32.7869 71.8712 32.1625C73.2199 31.5394 74.5829 30.9501 75.9604 30.3946C77.3379 29.839 78.7283 29.3172 80.1317 28.8291C81.5365 28.3424 82.9514 27.8902 84.3764 27.4724C85.8028 27.0547 87.2385 26.672 88.6837 26.3246C90.1288 25.9786 91.5811 25.6679 93.0406 25.3922C94.5016 25.118 95.9675 24.8797 97.4385 24.6772C98.911 24.4748 100.388 24.3083 101.869 24.1777C103.349 24.0485 104.831 23.9559 106.317 23.8999C107.802 23.8425 109.287 23.8224 110.773 23.8396C133.559 24.2488 156.264 34.6023 171.889 51.0714C190.603 70.8008 195.58 94.5225 195.072 120.77L191.385 123.376C190.139 95.6099 182.183 70.579 160.979 51.4116C160.025 50.5459 159.049 49.7039 158.051 48.8856C157.055 48.0687 156.039 47.2771 155.003 46.5105C153.966 45.7439 152.911 45.003 151.838 44.2881C150.764 43.5731 149.674 42.8855 148.567 42.2251C147.458 41.5662 146.335 40.9346 145.196 40.3302C144.057 39.7258 142.903 39.1502 141.736 38.6032C140.567 38.0562 139.386 37.5387 138.193 37.0506C136.998 36.5625 135.792 36.1037 134.576 35.6745C133.36 35.2467 132.134 34.8491 130.897 34.4816C129.659 34.1141 128.414 33.7773 127.162 33.4715C125.908 33.1672 124.648 32.8937 123.379 32.6511C122.113 32.4085 120.84 32.1968 119.562 32.0159C118.286 31.8379 117.004 31.6907 115.719 31.5744C114.434 31.4582 113.146 31.3742 111.857 31.3225C110.568 31.2708 109.279 31.2515 107.988 31.2644C106.698 31.2773 105.409 31.3218 104.121 31.3979C102.796 31.4869 101.475 31.6082 100.157 31.7619C98.8397 31.9155 97.5264 32.1013 96.2166 32.3195C94.9082 32.5377 93.6062 32.7882 92.3108 33.0711C91.0139 33.3539 89.725 33.669 88.4439 34.0165C87.1629 34.3624 85.892 34.74 84.6311 35.1491C83.3688 35.5597 82.1172 36.0004 80.8765 36.4712C79.6372 36.9421 78.4102 37.4439 77.1954 37.9765C75.9792 38.5077 74.778 39.069 73.592 39.6604C72.4045 40.2519 71.2321 40.8728 70.0748 41.5231C68.919 42.172 67.7798 42.8489 66.6571 43.5537C65.5343 44.2601 64.4297 44.9937 63.343 45.7546C62.2563 46.514 61.1897 47.2999 60.1433 48.1125C59.0954 48.9265 58.0685 49.7649 57.0623 50.6277C56.0577 51.492 55.0745 52.3799 54.113 53.2915C53.1516 54.2045 52.2132 55.1406 51.2977 56.0995C50.3823 57.0585 49.4913 58.039 48.6248 59.041C47.7381 60.0703 46.8789 61.122 46.0469 62.1958C45.215 63.2682 44.4103 64.3614 43.633 65.4754C42.8558 66.5894 42.1074 67.722 41.3877 68.8734C40.668 70.0247 39.9785 71.1934 39.3193 72.3792C38.6586 73.5664 38.0289 74.7687 37.4302 75.9861C36.8299 77.2049 36.2614 78.4373 35.7246 79.6834C35.1891 80.931 34.6846 82.1907 34.2111 83.4627C33.739 84.7346 33.2992 86.0181 32.8919 87.313C32.4831 88.6079 32.1082 89.912 31.767 91.2256C31.4259 92.5392 31.1179 93.86 30.843 95.1879C30.5695 96.5173 30.3291 97.8523 30.1218 99.1932C29.916 100.535 29.7439 101.881 29.6057 103.231C29.4676 104.58 29.3633 105.933 29.2928 107.288C29.2237 108.643 29.1884 109.999 29.187 111.356C29.187 112.712 29.2208 114.068 29.2884 115.423C29.3561 116.78 29.4583 118.133 29.5951 119.482C31.0028 134.866 36.6831 145.401 41.3984 159.447C37.6007 157.053 34.2909 153.818 30.9249 150.857Z" fill="#B1715F"/>
<path d="M41.3984 159.447C36.6831 145.401 31.0028 134.866 29.5951 119.482C29.4583 118.133 29.3561 116.78 29.2884 115.423C29.2208 114.068 29.187 112.712 29.187 111.356C29.1884 109.999 29.2237 108.643 29.2928 107.288C29.3633 105.933 29.4676 104.58 29.6057 103.231C29.7439 101.881 29.916 100.535 30.1218 99.1932C30.3291 97.8523 30.5695 96.5173 30.843 95.1879C31.1179 93.86 31.4259 92.5392 31.767 91.2256C32.1082 89.912 32.4831 88.6079 32.8919 87.313C33.2992 86.0181 33.739 84.7346 34.2111 83.4627C34.6846 82.1907 35.1891 80.931 35.7246 79.6834C36.2614 78.4373 36.8299 77.2049 37.4302 75.9861C38.0289 74.7687 38.6586 73.5664 39.3193 72.3792C39.9785 71.1934 40.668 70.0247 41.3877 68.8734C42.1074 67.722 42.8558 66.5894 43.633 65.4754C44.4103 64.3614 45.215 63.2682 46.0469 62.1958C46.8789 61.122 47.7381 60.0703 48.6248 59.041C49.4913 58.039 50.3823 57.0585 51.2977 56.0995C52.2132 55.1406 53.1516 54.2045 54.113 53.2915C55.0745 52.3799 56.0577 51.492 57.0623 50.6277C58.0685 49.7649 59.0954 48.9265 60.1433 48.1125C61.1897 47.2999 62.2563 46.514 63.343 45.7546C64.4297 44.9937 65.5343 44.2601 66.6571 43.5537C67.7798 42.8489 68.919 42.172 70.0748 41.5231C71.2321 40.8728 72.4045 40.2519 73.592 39.6604C74.778 39.069 75.9792 38.5077 77.1954 37.9765C78.4102 37.4439 79.6372 36.9421 80.8765 36.4712C82.1172 36.0004 83.3688 35.5597 84.6311 35.1491C85.892 34.74 87.1629 34.3624 88.4439 34.0165C89.725 33.669 91.0139 33.3539 92.3108 33.0711C93.6062 32.7882 94.9082 32.5377 96.2166 32.3195C97.5264 32.1013 98.8397 31.9155 100.157 31.7619C101.475 31.6082 102.796 31.4869 104.121 31.3979C105.409 31.3218 106.698 31.2773 107.988 31.2644C109.279 31.2515 110.568 31.2708 111.857 31.3225C113.146 31.3742 114.434 31.4582 115.719 31.5744C117.004 31.6907 118.286 31.8379 119.562 32.0159C120.84 32.1968 122.113 32.4085 123.379 32.6511C124.648 32.8937 125.908 33.1672 127.162 33.4715C128.414 33.7773 129.659 34.1141 130.897 34.4816C132.134 34.8491 133.36 35.2467 134.576 35.6745C135.792 36.1037 136.998 36.5625 138.193 37.0506C139.386 37.5387 140.567 38.0562 141.736 38.6032C142.903 39.1502 144.057 39.7258 145.196 40.3302C146.335 40.9346 147.458 41.5662 148.567 42.2251C149.674 42.8855 150.764 43.5731 151.838 44.2881C152.911 45.003 153.966 45.7439 155.003 46.5105C156.039 47.2771 157.055 48.0687 158.051 48.8856C159.049 49.7039 160.025 50.5459 160.979 51.4116C182.183 70.579 190.139 95.6099 191.385 123.376C180.408 151.053 172.415 175.613 142.675 188.266C122.414 196.886 97.4147 197.08 77.137 188.415C62.2785 182.067 51.2134 172.062 41.3984 159.447Z" fill="#5B3534"/>
<path d="M116.712 116.701L115.524 114.943C121.939 105.095 130.288 89.3017 140.885 83.6142C144.083 81.8972 147.766 81.1951 151.066 79.7273C151.052 80.3396 151.06 80.6344 150.973 81.2832C149.344 93.5805 126.47 109.792 116.712 116.701Z" fill="#337BAA"/>
<path d="M50 118.174C62.9823 102.736 98.9518 89.6192 117.85 83.3164L125.391 80.4142C131.116 78.5999 136.656 76.9664 142.594 76L151.066 79.7273C147.766 81.1951 144.083 81.8972 140.885 83.6142C130.288 89.3017 121.939 105.095 115.524 114.943L116.712 116.701C130.233 127.207 142.468 138.349 152 152.675L151.078 154.16L147.02 158.794C122.38 161.134 92.6926 142.952 71.1412 132.66C64.6141 128.96 58.3594 125.446 52.6895 120.476L50 118.174Z" fill="#7C2F39"/>
<path d="M151.078 154.16C146.165 152.004 142.228 154.819 137.516 153.403C131.542 151.609 123.124 134.938 120.023 129.658C117.229 124.905 114.019 120.587 115.524 114.943L116.712 116.701C130.233 127.207 142.468 138.349 152 152.675L151.078 154.16Z" fill="#564C57"/>
<path d="M92.9313 115.727C100.691 107.399 94.9274 101.421 107.406 93.3085L106.97 92.1522C109.295 89.1375 111.982 88.2867 115.404 86.9115L117.85 83.3164L125.391 80.4142L135.01 80.56L132.259 82.736L133.619 84.5016C124.982 91.9319 117.022 106.223 110.07 115.58L93.882 116.081L92.9313 115.727Z" fill="#F6C244"/>
<path d="M95.102 139.884C94.3795 132.44 92.4615 123.426 93.882 116.081L110.07 115.58C113.12 128.128 124.055 141.905 131.081 152.83C118.888 148.896 106.919 144.829 95.102 139.884Z" fill="#E88B3D"/>
<path d="M50 118.174C62.9823 102.736 98.9518 89.6192 117.85 83.3164L115.404 86.9115C111.982 88.2867 109.295 89.1375 106.97 92.1522L107.406 93.3085C94.9274 101.421 100.691 107.399 92.9313 115.727L93.882 116.081C92.4615 123.426 94.3795 132.44 95.102 139.884C80.5859 134.56 66.9102 126.598 52.6895 120.476L50 118.174Z" fill="url(#paint1_linear_92_33407)"/>
<path d="M54.7621 115.914C71.5253 107.151 88.829 97.7713 106.97 92.1522L107.406 93.3085C94.9274 101.421 100.691 107.399 92.9313 115.727C80.2169 115.814 67.475 116.075 54.7621 115.914Z" fill="#F5E98B"/>
<defs>
<linearGradient id="paint0_linear_92_33407" x1="116.108" y1="195.882" x2="43.8976" y2="26.352" gradientUnits="userSpaceOnUse">
<stop stop-color="#926C66"/>
<stop offset="1" stop-color="#C3A389"/>
</linearGradient>
<linearGradient id="paint1_linear_92_33407" x1="11.2418" y1="139.723" x2="107.178" y2="53.4147" gradientUnits="userSpaceOnUse">
<stop stop-color="#FFA230"/>
<stop offset="1" stop-color="#FFCE43"/>
</linearGradient>
</defs>
</svg>
