<svg width="225" height="243" viewBox="0 0 225 243" fill="none" xmlns="http://www.w3.org/2000/svg">
<path d="M222.428 129.021C226.871 136.673 224.66 145.932 222.477 154.002C213.908 185.688 198.078 211.671 169.086 228.381C142.845 243.504 112.347 246.728 83.2472 238.822C60.3635 232.604 40.3189 221.063 28.2952 200.07C26.1535 196.331 24.4349 192.164 24.5169 187.782C31.0696 194.662 38.2636 201.257 46.0815 206.663C47.6576 207.751 49.2596 208.799 50.8876 209.807C52.514 210.816 54.1649 211.784 55.8403 212.711C57.5157 213.637 59.2128 214.522 60.9314 215.366C62.65 216.209 64.3887 217.01 66.1476 217.768C67.9051 218.525 69.6805 219.238 71.4739 219.909C73.2674 220.578 75.0759 221.203 76.8996 221.784C78.7247 222.364 80.562 222.899 82.4116 223.388C84.2626 223.878 86.1237 224.322 87.9949 224.72C89.8675 225.118 91.7487 225.469 93.6386 225.773C95.5271 226.079 97.4228 226.337 99.3256 226.547C101.228 226.759 103.135 226.923 105.045 227.04C106.955 227.157 108.866 227.227 110.779 227.25C112.694 227.273 114.607 227.248 116.52 227.176C118.432 227.104 120.341 226.985 122.248 226.817C124.155 226.652 126.057 226.439 127.952 226.179C129.848 225.919 131.736 225.611 133.618 225.258C160.228 220.356 182.12 206.875 197.622 184.668C210.589 167.914 216.356 148.929 222.428 129.021Z" fill="#0F1328"/>
<path d="M195.072 121.269C200.269 117.44 211.267 114.268 214.02 108.535L210.669 107.149L200.688 111.331L197.48 109.963L197.994 106.858C202.128 104.055 204.805 103.171 209.825 102.963C213.353 102.814 219.554 109.736 222.253 112.27L222.428 129.021C216.356 148.929 210.589 167.914 197.622 184.668C182.12 206.875 160.228 220.356 133.618 225.258C131.736 225.611 129.848 225.919 127.952 226.179C126.057 226.439 124.155 226.652 122.248 226.817C120.341 226.985 118.432 227.104 116.52 227.176C114.607 227.248 112.694 227.273 110.779 227.25C108.866 227.227 106.955 227.157 105.045 227.04C103.135 226.923 101.228 226.759 99.3256 226.547C97.4228 226.337 95.5271 226.079 93.6386 225.773C91.7487 225.469 89.8675 225.118 87.9949 224.72C86.1237 224.322 84.2626 223.878 82.4116 223.388C80.562 222.899 78.7247 222.364 76.8996 221.784C75.0759 221.203 73.2674 220.578 71.4739 219.909C69.6805 219.238 67.9051 218.525 66.1476 217.768C64.3887 217.01 62.65 216.209 60.9314 215.366C59.2128 214.522 57.5157 213.637 55.8403 212.711C54.1649 211.784 52.514 210.816 50.8876 209.807C49.2596 208.799 47.6576 207.751 46.0815 206.663C38.2636 201.257 31.0696 194.662 24.5169 187.782C16.0081 177.677 10.7854 166.325 5.74187 154.27L10.7854 154.143C17.7181 154.043 24.1498 152.824 30.9249 151.481C34.2909 154.454 37.6007 157.702 41.3984 160.106C51.2134 172.773 62.2785 182.819 77.137 189.193C97.4147 197.894 122.414 197.7 142.675 189.044C172.415 176.339 180.408 151.678 191.385 123.886L195.072 121.269Z" fill="#9D6160"/>
<path d="M5.74187 154.27L10.7854 154.143C30.7004 183.2 52.9687 207.954 89.3313 214.709C112.165 218.951 143.581 214.52 163.013 201.132C169.013 196.997 186.305 179.4 192.555 180.053L197.622 184.668C182.12 206.875 160.228 220.356 133.618 225.258C131.736 225.611 129.848 225.919 127.952 226.179C126.057 226.439 124.155 226.652 122.248 226.817C120.341 226.985 118.432 227.104 116.52 227.176C114.607 227.248 112.694 227.273 110.779 227.25C108.866 227.227 106.955 227.157 105.045 227.04C103.135 226.923 101.228 226.759 99.3256 226.547C97.4228 226.337 95.5271 226.079 93.6386 225.773C91.7487 225.469 89.8675 225.118 87.9949 224.72C86.1237 224.322 84.2626 223.878 82.4116 223.388C80.562 222.899 78.7247 222.364 76.8996 221.784C75.0759 221.203 73.2674 220.578 71.4739 219.909C69.6805 219.238 67.9051 218.525 66.1476 217.768C64.3887 217.01 62.65 216.209 60.9314 215.366C59.2128 214.522 57.5157 213.637 55.8403 212.711C54.1649 211.784 52.514 210.816 50.8876 209.807C49.2596 208.799 47.6576 207.751 46.0815 206.663C38.2636 201.257 31.0696 194.662 24.5169 187.782C16.0081 177.677 10.7854 166.325 5.74187 154.27Z" fill="#5B3534"/>
<path d="M5.74187 154.27C4.04486 146.337 2.33066 138.364 1.23171 130.323C-3.06694 98.842 3.78157 68.5937 23.4224 43.217C24.5738 41.7351 25.7612 40.2828 26.9847 38.86C28.2096 37.4372 29.469 36.0468 30.763 34.6889C32.0584 33.331 33.3863 32.0062 34.7465 30.7146C36.1081 29.423 37.5007 28.1667 38.9242 26.9457C40.3492 25.7233 41.8037 24.5384 43.2877 23.391C44.7716 22.2435 46.2829 21.1342 47.8216 20.0632C49.3617 18.9907 50.9278 17.9585 52.5197 16.9668C54.1102 15.9735 55.7259 15.0221 57.3668 14.1125C59.0062 13.2015 60.6672 12.3322 62.3498 11.5048C64.0338 10.6788 65.7367 9.89526 67.4581 9.15431C69.181 8.41337 70.922 7.71643 72.6809 7.06342C74.4383 6.41041 76.2108 5.8021 77.9985 5.23846C79.7876 4.67482 81.5891 4.15727 83.4027 3.68589C85.2177 3.21307 87.0435 2.78642 88.8801 2.40586C90.7153 2.02529 92.5591 1.69155 94.4116 1.40469C96.2641 1.11782 98.1229 0.877793 99.9883 0.684628C128.95 -2.48746 158.861 5.37467 181.496 24.0353C208.795 46.5382 218.995 78.2613 222.253 112.27C219.554 109.736 213.353 102.814 209.825 102.963C204.805 103.171 202.128 104.055 197.994 106.858L197.48 109.963L200.688 111.331L210.669 107.149L214.02 108.535C211.267 114.268 200.269 117.44 195.072 121.269L191.385 123.886C190.139 96.005 182.183 70.8706 160.979 51.624C160.025 50.7548 159.049 49.9093 158.051 49.0876C157.055 48.2674 156.039 47.4724 155.003 46.7027C153.966 45.9329 152.911 45.1889 151.838 44.4711C150.764 43.7532 149.674 43.0627 148.567 42.3996C147.458 41.7379 146.335 41.1038 145.196 40.4969C144.057 39.89 142.903 39.3119 141.736 38.7627C140.567 38.2135 139.386 37.6938 138.193 37.2037C136.998 36.7136 135.792 36.2529 134.576 35.8219C133.36 35.3923 132.134 34.9931 130.897 34.6241C129.659 34.2551 128.414 33.9169 127.162 33.6099C125.908 33.3042 124.648 33.0297 123.379 32.7861C122.113 32.5424 120.84 32.3298 119.562 32.1482C118.286 31.9695 117.004 31.8217 115.719 31.7049C114.434 31.5881 113.146 31.5038 111.857 31.4519C110.568 31.4 109.279 31.3806 107.988 31.3936C106.698 31.4066 105.409 31.4513 104.121 31.5277C102.796 31.617 101.475 31.7389 100.157 31.8931C98.8397 32.0473 97.5264 32.234 96.2166 32.4531C94.9082 32.6722 93.6062 32.9237 92.3108 33.2077C91.0139 33.4917 89.725 33.8082 88.4439 34.157C87.1629 34.5044 85.892 34.8836 84.6311 35.2944C83.3688 35.7067 82.1172 36.1491 80.8765 36.6219C79.6372 37.0948 78.4102 37.5986 77.1954 38.1335C75.9792 38.6668 74.778 39.2304 73.592 39.8243C72.4045 40.4182 71.2321 41.0417 70.0748 41.6947C68.919 42.3463 67.7798 43.0259 66.6571 43.7337C65.5343 44.443 64.4297 45.1796 63.343 45.9437C62.2563 46.7062 61.1897 47.4954 60.1433 48.3113C59.0954 49.1287 58.0685 49.9706 57.0623 50.8369C56.0577 51.7047 55.0745 52.5963 54.113 53.5117C53.1516 54.4285 52.2132 55.3684 51.2977 56.3314C50.3823 57.2943 49.4913 58.2788 48.6248 59.285C47.7381 60.3186 46.8789 61.3745 46.0469 62.4528C45.215 63.5296 44.4103 64.6274 43.633 65.746C42.8558 66.8646 42.1074 68.0019 41.3877 69.158C40.668 70.3141 39.9785 71.4876 39.3193 72.6783C38.6586 73.8704 38.0289 75.0777 37.4302 76.3001C36.8299 77.524 36.2614 78.7615 35.7246 80.0127C35.1891 81.2654 34.6846 82.5304 34.2111 83.8075C33.739 85.0847 33.2992 86.3735 32.8919 87.6738C32.4831 88.974 32.1082 90.2836 31.767 91.6026C31.4259 92.9216 31.1179 94.2478 30.843 95.5813C30.5695 96.9161 30.3291 98.2567 30.1218 99.6031C29.916 100.951 29.7439 102.302 29.6057 103.657C29.4676 105.012 29.3633 106.37 29.2928 107.731C29.2237 109.092 29.1884 110.453 29.187 111.816C29.187 113.178 29.2208 114.539 29.2884 115.9C29.3561 117.263 29.4583 118.621 29.5951 119.976C31.0028 135.424 36.6831 146.002 41.3984 160.106C37.6007 157.702 34.2909 154.454 30.9249 151.481C24.1498 152.824 17.7181 154.043 10.7854 154.143L5.74187 154.27Z" fill="url(#paint0_linear_92_33408)"/>
<path d="M30.9249 151.481C25.849 137.902 22.4529 123.053 22.373 108.544C22.3529 107.189 22.3665 105.835 22.414 104.481C22.4615 103.128 22.5436 101.776 22.6602 100.425C22.7768 99.0756 22.9271 97.7299 23.1114 96.3879C23.2956 95.0458 23.5138 93.7088 23.7657 92.3769C24.0175 91.0463 24.3032 89.723 24.6227 88.4069C24.9408 87.0893 25.2928 85.7812 25.6785 84.4823C26.0628 83.1835 26.4803 81.8955 26.9308 80.6184C27.3813 79.3412 27.8635 78.0762 28.3773 76.8235C28.8912 75.5694 29.4367 74.3296 30.0139 73.1043C30.5896 71.879 31.1964 70.6689 31.834 69.4739C32.4716 68.2789 33.1394 67.1011 33.8375 65.9407C34.5356 64.7802 35.2618 63.6378 36.0161 62.5134C36.7717 61.389 37.5546 60.2848 38.365 59.2008C39.1768 58.1167 40.0145 57.0543 40.8781 56.0135C41.7432 54.9713 42.6342 53.9522 43.5511 52.9561C44.4665 51.9585 45.4072 50.9855 46.373 50.037C47.4295 48.9905 48.5111 47.9698 49.618 46.9752C50.7249 45.982 51.8554 45.0169 53.0098 44.0799C54.1642 43.1415 55.3409 42.2326 56.5399 41.3533C57.7389 40.4754 58.9587 39.627 60.1995 38.8082C61.4416 37.9895 62.7025 37.2016 63.9821 36.4448C65.2617 35.688 66.5592 34.9643 67.8748 34.2738C69.1918 33.5819 70.524 32.9224 71.8712 32.2954C73.2199 31.6697 74.5829 31.078 75.9604 30.5202C77.3379 29.9623 78.7283 29.4383 80.1317 28.9482C81.5365 28.4595 82.9514 28.0054 84.3764 27.5859C85.8028 27.1665 87.2385 26.7822 88.6837 26.4334C90.1288 26.086 91.5811 25.7739 93.0406 25.4972C94.5016 25.2218 95.9675 24.9825 97.4385 24.7792C98.911 24.576 100.388 24.4087 101.869 24.2776C103.349 24.1478 104.831 24.0549 106.317 23.9987C107.802 23.941 109.287 23.9208 110.773 23.9381C133.559 24.349 156.264 34.7453 171.889 51.2825C190.603 71.0934 195.58 94.9131 195.072 121.269L191.385 123.886C190.139 96.005 182.183 70.8706 160.979 51.624C160.025 50.7548 159.049 49.9093 158.051 49.0876C157.055 48.2674 156.039 47.4724 155.003 46.7027C153.966 45.9329 152.911 45.1889 151.838 44.4711C150.764 43.7532 149.674 43.0627 148.567 42.3996C147.458 41.7379 146.335 41.1038 145.196 40.4969C144.057 39.89 142.903 39.3119 141.736 38.7627C140.567 38.2135 139.386 37.6938 138.193 37.2037C136.998 36.7136 135.792 36.2529 134.576 35.8219C133.36 35.3923 132.134 34.9931 130.897 34.6241C129.659 34.2551 128.414 33.9169 127.162 33.6099C125.908 33.3042 124.648 33.0297 123.379 32.7861C122.113 32.5424 120.84 32.3298 119.562 32.1482C118.286 31.9695 117.004 31.8217 115.719 31.7049C114.434 31.5881 113.146 31.5038 111.857 31.4519C110.568 31.4 109.279 31.3806 107.988 31.3936C106.698 31.4066 105.409 31.4513 104.121 31.5277C102.796 31.617 101.475 31.7389 100.157 31.8931C98.8397 32.0473 97.5264 32.234 96.2166 32.4531C94.9082 32.6722 93.6062 32.9237 92.3108 33.2077C91.0139 33.4917 89.725 33.8082 88.4439 34.157C87.1629 34.5044 85.892 34.8836 84.6311 35.2944C83.3688 35.7067 82.1172 36.1491 80.8765 36.6219C79.6372 37.0948 78.4102 37.5986 77.1954 38.1335C75.9792 38.6668 74.778 39.2304 73.592 39.8243C72.4045 40.4182 71.2321 41.0417 70.0748 41.6947C68.919 42.3463 67.7798 43.0259 66.6571 43.7337C65.5343 44.443 64.4297 45.1796 63.343 45.9437C62.2563 46.7062 61.1897 47.4954 60.1433 48.3113C59.0954 49.1287 58.0685 49.9706 57.0623 50.8369C56.0577 51.7047 55.0745 52.5963 54.113 53.5117C53.1516 54.4285 52.2132 55.3684 51.2977 56.3314C50.3823 57.2943 49.4913 58.2788 48.6248 59.285C47.7381 60.3186 46.8789 61.3745 46.0469 62.4528C45.215 63.5296 44.4103 64.6274 43.633 65.746C42.8558 66.8646 42.1074 68.0019 41.3877 69.158C40.668 70.3141 39.9785 71.4876 39.3193 72.6783C38.6586 73.8704 38.0289 75.0777 37.4302 76.3001C36.8299 77.524 36.2614 78.7615 35.7246 80.0127C35.1891 81.2654 34.6846 82.5304 34.2111 83.8075C33.739 85.0847 33.2992 86.3735 32.8919 87.6738C32.4831 88.974 32.1082 90.2836 31.767 91.6026C31.4259 92.9216 31.1179 94.2478 30.843 95.5813C30.5695 96.9161 30.3291 98.2567 30.1218 99.6031C29.916 100.951 29.7439 102.302 29.6057 103.657C29.4676 105.012 29.3633 106.37 29.2928 107.731C29.2237 109.092 29.1884 110.453 29.187 111.816C29.187 113.178 29.2208 114.539 29.2884 115.9C29.3561 117.263 29.4583 118.621 29.5951 119.976C31.0028 135.424 36.6831 146.002 41.3984 160.106C37.6007 157.702 34.2909 154.454 30.9249 151.481Z" fill="#B1715F"/>
<path d="M41.3984 160.106C36.6831 146.002 31.0028 135.424 29.5951 119.976C29.4583 118.621 29.3561 117.263 29.2884 115.9C29.2208 114.539 29.187 113.178 29.187 111.816C29.1884 110.453 29.2237 109.092 29.2928 107.731C29.3633 106.37 29.4676 105.012 29.6057 103.657C29.7439 102.302 29.916 100.951 30.1218 99.6031C30.3291 98.2567 30.5695 96.9161 30.843 95.5813C31.1179 94.2478 31.4259 92.9216 31.767 91.6026C32.1082 90.2836 32.4831 88.974 32.8919 87.6738C33.2992 86.3735 33.739 85.0847 34.2111 83.8075C34.6846 82.5304 35.1891 81.2654 35.7246 80.0127C36.2614 78.7615 36.8299 77.524 37.4302 76.3001C38.0289 75.0777 38.6586 73.8704 39.3193 72.6783C39.9785 71.4876 40.668 70.3141 41.3877 69.158C42.1074 68.0019 42.8558 66.8646 43.633 65.746C44.4103 64.6274 45.215 63.5296 46.0469 62.4528C46.8789 61.3745 47.7381 60.3186 48.6248 59.285C49.4913 58.2788 50.3823 57.2943 51.2977 56.3314C52.2132 55.3684 53.1516 54.4285 54.113 53.5117C55.0745 52.5963 56.0577 51.7047 57.0623 50.8369C58.0685 49.9706 59.0954 49.1287 60.1433 48.3113C61.1897 47.4954 62.2563 46.7062 63.343 45.9437C64.4297 45.1796 65.5343 44.443 66.6571 43.7337C67.7798 43.0259 68.919 42.3463 70.0748 41.6947C71.2321 41.0417 72.4045 40.4182 73.592 39.8243C74.778 39.2304 75.9792 38.6668 77.1954 38.1335C78.4102 37.5986 79.6372 37.0948 80.8765 36.6219C82.1172 36.1491 83.3688 35.7067 84.6311 35.2944C85.892 34.8836 87.1629 34.5044 88.4439 34.157C89.725 33.8082 91.0139 33.4917 92.3108 33.2077C93.6062 32.9237 94.9082 32.6722 96.2166 32.4531C97.5264 32.234 98.8397 32.0473 100.157 31.8931C101.475 31.7389 102.796 31.617 104.121 31.5277C105.409 31.4513 106.698 31.4066 107.988 31.3936C109.279 31.3806 110.568 31.4 111.857 31.4519C113.146 31.5038 114.434 31.5881 115.719 31.7049C117.004 31.8217 118.286 31.9695 119.562 32.1482C120.84 32.3298 122.113 32.5424 123.379 32.7861C124.648 33.0297 125.908 33.3042 127.162 33.6099C128.414 33.9169 129.659 34.2551 130.897 34.6241C132.134 34.9931 133.36 35.3923 134.576 35.8219C135.792 36.2529 136.998 36.7136 138.193 37.2037C139.386 37.6938 140.567 38.2135 141.736 38.7627C142.903 39.3119 144.057 39.89 145.196 40.4969C146.335 41.1038 147.458 41.7379 148.567 42.3996C149.674 43.0627 150.764 43.7532 151.838 44.4711C152.911 45.1889 153.966 45.9329 155.003 46.7027C156.039 47.4724 157.055 48.2674 158.051 49.0876C159.049 49.9093 160.025 50.7548 160.979 51.624C182.183 70.8706 190.139 96.005 191.385 123.886C180.408 151.678 172.415 176.339 142.675 189.044C122.414 197.7 97.4147 197.894 77.137 189.193C62.2785 182.819 51.2134 172.773 41.3984 160.106Z" fill="#5B3534"/>
<path d="M101.288 111.808L102.476 113.588C96.0609 123.554 87.7122 139.538 77.1148 145.294C73.917 147.032 70.2341 147.742 66.9338 149.228C66.9475 148.608 66.9399 148.31 67.0272 147.653C68.6559 135.208 91.5298 118.801 101.288 111.808Z" fill="#337BAA"/>
<path d="M168 110.318C155.018 125.942 119.048 139.217 100.15 145.595L92.609 148.533C86.884 150.369 81.3443 152.022 75.4065 153L66.9338 149.228C70.2341 147.742 73.917 147.032 77.1148 145.294C87.7122 139.538 96.0609 123.554 102.476 113.588L101.288 111.808C87.7673 101.176 75.532 89.8994 66 75.401L66.9215 73.8986L70.9795 69.2082C95.62 66.84 125.307 85.2414 146.859 95.6569C153.386 99.4015 159.641 102.958 165.31 107.989L168 110.318Z" fill="#7C2F39"/>
<path d="M66.9215 73.8986C71.8352 76.0807 75.7723 73.2311 80.4839 74.6644C86.4585 76.4805 94.8761 93.3517 97.9774 98.6956C100.771 103.506 103.981 107.876 102.476 113.588L101.288 111.808C87.7673 101.176 75.532 89.8994 66 75.401L66.9215 73.8986Z" fill="#564C57"/>
<path d="M125.069 112.794C117.309 121.223 123.073 127.273 110.594 135.483L111.03 136.653C108.705 139.704 106.018 140.565 102.596 141.957L100.15 145.595L92.609 148.533L82.9899 148.385L85.7406 146.183L84.3813 144.396C93.0178 136.876 100.978 122.413 107.93 112.943L124.118 112.436L125.069 112.794Z" fill="#F6C244"/>
<path d="M122.898 88.3461C123.62 95.8798 125.539 105.002 124.118 112.436L107.93 112.943C104.88 100.244 93.9454 86.3009 86.9193 75.2441C99.1117 79.2255 111.081 83.3421 122.898 88.3461Z" fill="#E88B3D"/>
<path d="M168 110.318C155.018 125.942 119.048 139.217 100.15 145.595L102.596 141.957C106.018 140.565 108.705 139.704 111.03 136.653L110.594 135.483C123.073 127.273 117.309 121.223 125.069 112.794L124.118 112.436C125.539 105.002 123.62 95.8798 122.898 88.3461C137.414 93.7346 151.09 101.793 165.31 107.989L168 110.318Z" fill="url(#paint1_linear_92_33408)"/>
<path d="M163.238 112.605C146.475 121.474 129.171 130.966 111.03 136.653L110.594 135.483C123.073 127.273 117.309 121.223 125.069 112.794C137.783 112.707 150.525 112.442 163.238 112.605Z" fill="#F5E98B"/>
<defs>
<linearGradient id="paint0_linear_92_33408" x1="116.108" y1="196.692" x2="43.392" y2="26.6771" gradientUnits="userSpaceOnUse">
<stop stop-color="#926C66"/>
<stop offset="1" stop-color="#C3A389"/>
</linearGradient>
<linearGradient id="paint1_linear_92_33408" x1="11.2418" y1="140.3" x2="107.532" y2="54.0303" gradientUnits="userSpaceOnUse">
<stop stop-color="#FFA230"/>
<stop offset="1" stop-color="#FFCE43"/>
</linearGradient>
</defs>
</svg>
