<svg width="360" height="155" viewBox="0 0 360 155" fill="none" xmlns="http://www.w3.org/2000/svg">
    <mask id="path-1-outside-1_347_7019" maskUnits="userSpaceOnUse" x="5" y="38" width="346" height="107" fill="black">
        <rect fill="white" x="5" y="38" width="346" height="107"/>
        <path d="M24.94 118.22C21.88 118.34 19.06 117.95 16.48 117.05C13.96 116.21 11.89 115.04 10.27 113.54C8.71 112.04 7.72 110.3 7.3 108.32C6.88 106.28 7.24 104.21 8.38 102.11C9.94 99.59 13.06 98.84 17.74 99.86C21.28 100.58 23.71 100.97 25.03 101.03C26.41 101.09 27.58 100.91 28.54 100.49C32.92 99.05 35.38 97.49 35.92 95.81C36.28 94.55 35.5 93.08 33.58 91.4C32.8 90.68 31.93 89.96 30.97 89.24C30.01 88.52 29.2 87.8 28.54 87.08C25.54 84.86 23.17 82.31 21.43 79.43C19.75 76.49 19.06 73.31 19.36 69.89C19.66 66.47 20.23 63.65 21.07 61.43C21.91 59.15 22.96 57.14 24.22 55.4C26.44 52.34 29.32 49.85 32.86 47.93C36.94 45.83 40.21 44.48 42.67 43.88C47.53 42.8 52.45 42.71 57.43 43.61C59.11 43.91 60.55 44.48 61.75 45.32C62.95 46.16 64.15 47.03 65.35 47.93C67.45 50.03 67.96 52.16 66.88 54.32C66.46 55.28 65.8 56.06 64.9 56.66C64 57.26 63.04 57.59 62.02 57.65C62.14 59.27 61.84 60.47 61.12 61.25C59.74 62.63 57.34 63.53 53.92 63.95C49 63.59 45.67 63.86 43.93 64.76C41.89 65.84 41.14 68.18 41.68 71.78C41.8 72.56 42.28 73.37 43.12 74.21C44.02 75.05 45.04 75.95 46.18 76.91C47.38 77.87 48.61 78.95 49.87 80.15C51.19 81.35 52.33 82.73 53.29 84.29C56.65 89.81 56.38 96.26 52.48 103.64C49.6 109.16 44.68 113.3 37.72 116.06C34.12 117.5 29.86 118.22 24.94 118.22ZM97.2782 74.39L97.6382 74.48C97.7582 74.48 97.8182 74.51 97.8182 74.57C99.3782 73.97 100.668 74.42 101.688 75.92C102.348 76.94 102.858 78.5 103.218 80.6C103.338 83.48 103.038 87.47 102.318 92.57C100.938 102.89 100.188 109.04 100.068 111.02C100.188 113.12 98.8982 114.56 96.1982 115.34C93.8582 116.06 91.5182 116.03 89.1782 115.25C86.7182 114.41 85.6982 113.12 86.1182 111.38C85.6382 112.28 85.1582 112.91 84.6782 113.27C84.1982 113.69 83.2382 114.23 81.7982 114.89C80.4182 115.61 78.4382 116.18 75.8582 116.6C73.2782 117.08 70.6982 117.2 68.1182 116.96C65.5382 116.78 63.1682 116.15 61.0082 115.07C58.9082 114.05 57.4982 112.43 56.7782 110.21C55.3982 105.89 55.5782 100.4 57.3182 93.74C58.5182 89.36 60.6782 85.49 63.7982 82.13C67.3982 78.29 71.4782 75.11 76.0382 72.59C79.4582 70.73 82.7582 69.62 85.9382 69.26C87.0182 69.14 87.9482 69.17 88.7282 69.35C89.5682 69.53 90.4382 69.71 91.3382 69.89C92.2982 70.07 93.1982 70.34 94.0382 70.7C96.1982 71.6 97.2782 72.83 97.2782 74.39ZM80.6282 98.24C81.0482 97.4 81.3782 96.35 81.6182 95.09C81.9182 93.83 82.3082 92.45 82.7882 90.95C77.9282 92.93 74.2082 95.36 71.6282 98.24C68.8082 101.42 68.9882 103.61 72.1682 104.81C74.9282 105.53 76.9382 105.08 78.1982 103.46C78.7382 102.74 79.2182 101.84 79.6382 100.76C80.0582 99.68 80.5682 98.57 81.1682 97.43C80.9882 97.73 80.8082 98 80.6282 98.24ZM122.4 76.19C125.4 71.69 129.57 68.99 134.91 68.09C136.65 67.79 138.78 67.58 141.3 67.46C143.88 67.34 146.07 67.91 147.87 69.17C149.73 70.43 151.11 72.05 152.01 74.03C153.57 77.57 153.81 81.92 152.73 87.08C152.13 89.9 151.41 93.02 150.57 96.44C149.73 99.8 148.47 103.13 146.79 106.43C145.11 109.73 142.92 112.82 140.22 115.7C137.52 118.58 134.01 120.86 129.69 122.54C127.11 123.56 124.83 123.92 122.85 123.62C120.93 123.38 119.49 122.99 118.53 122.45C117.57 121.91 116.91 121.13 116.55 120.11C115.35 123.53 114.21 126.98 113.13 130.46C112.11 134 110.73 137.36 108.99 140.54C107.79 141.32 106.32 141.89 104.58 142.25C102.84 142.67 101.13 142.58 99.4502 141.98C97.7702 141.44 96.5702 140.42 95.8502 138.92C95.0702 137.48 94.6802 135.89 94.6802 134.15C94.6802 131.81 95.2502 128.96 96.3902 125.6C98.0702 120.62 99.4502 116.78 100.53 114.08C101.55 111.38 102.21 109.64 102.51 108.86C102.81 108.02 103.11 107.15 103.41 106.25C104.73 102.77 105.69 99.95 106.29 97.79C106.95 95.57 107.55 93.65 108.09 92.03V91.94C108.69 89.3 109.62 86.51 110.88 83.57C112.2 80.57 113.1 78.74 113.58 78.08C114.6 77.06 115.65 76.43 116.73 76.19C117.81 75.95 119.04 75.8 120.42 75.74H120.69L122.4 76.19ZM129.24 91.22C128.52 92.48 127.32 93.65 125.64 94.73L124.83 96.62C124.23 98.18 123.66 99.77 123.12 101.39C122.58 103.01 121.98 104.6 121.32 106.16C121.92 106.76 122.37 107.33 122.67 107.87C126.03 104.93 129.09 101.06 131.85 96.26C132.93 94.28 133.62 92.3 133.92 90.32C134.28 88.34 134.37 87.08 134.19 86.54C134.01 86 133.71 85.73 133.29 85.73C132.93 85.73 132.54 85.85 132.12 86.09C131.76 86.27 131.46 86.48 131.22 86.72C131.04 86.9 131.07 86.9 131.31 86.72C130.65 87.5 130.17 88.19 129.87 88.79C129.57 89.33 129.36 90.14 129.24 91.22ZM171.71 76.19C174.71 71.69 178.88 68.99 184.22 68.09C185.96 67.79 188.09 67.58 190.61 67.46C193.19 67.34 195.38 67.91 197.18 69.17C199.04 70.43 200.42 72.05 201.32 74.03C202.88 77.57 203.12 81.92 202.04 87.08C201.44 89.9 200.72 93.02 199.88 96.44C199.04 99.8 197.78 103.13 196.1 106.43C194.42 109.73 192.23 112.82 189.53 115.7C186.83 118.58 183.32 120.86 179 122.54C176.42 123.56 174.14 123.92 172.16 123.62C170.24 123.38 168.8 122.99 167.84 122.45C166.88 121.91 166.22 121.13 165.86 120.11C164.66 123.53 163.52 126.98 162.44 130.46C161.42 134 160.04 137.36 158.3 140.54C157.1 141.32 155.63 141.89 153.89 142.25C152.15 142.67 150.44 142.58 148.76 141.98C147.08 141.44 145.88 140.42 145.16 138.92C144.38 137.48 143.99 135.89 143.99 134.15C143.99 131.81 144.56 128.96 145.7 125.6C147.38 120.62 148.76 116.78 149.84 114.08C150.86 111.38 151.52 109.64 151.82 108.86C152.12 108.02 152.42 107.15 152.72 106.25C154.04 102.77 155 99.95 155.6 97.79C156.26 95.57 156.86 93.65 157.4 92.03V91.94C158 89.3 158.93 86.51 160.19 83.57C161.51 80.57 162.41 78.74 162.89 78.08C163.91 77.06 164.96 76.43 166.04 76.19C167.12 75.95 168.35 75.8 169.73 75.74H170L171.71 76.19ZM178.55 91.22C177.83 92.48 176.63 93.65 174.95 94.73L174.14 96.62C173.54 98.18 172.97 99.77 172.43 101.39C171.89 103.01 171.29 104.6 170.63 106.16C171.23 106.76 171.68 107.33 171.98 107.87C175.34 104.93 178.4 101.06 181.16 96.26C182.24 94.28 182.93 92.3 183.23 90.32C183.59 88.34 183.68 87.08 183.5 86.54C183.32 86 183.02 85.73 182.6 85.73C182.24 85.73 181.85 85.85 181.43 86.09C181.07 86.27 180.77 86.48 180.53 86.72C180.35 86.9 180.38 86.9 180.62 86.72C179.96 87.5 179.48 88.19 179.18 88.79C178.88 89.33 178.67 90.14 178.55 91.22ZM248.11 103.37C248.11 106.55 248.5 109.31 249.28 111.65C249.28 113.57 248.83 114.92 247.93 115.7C247.03 116.54 245.89 116.96 244.51 116.96C243.19 117.02 241.78 116.75 240.28 116.15C238.78 115.61 237.49 114.92 236.41 114.08C235.39 113.24 234.73 112.58 234.43 112.1C234.13 111.56 233.65 110.78 232.99 109.76C231.97 105.02 231.49 101.93 231.55 100.49C231.61 99.05 231.73 97.82 231.91 96.8C228.91 98.36 226.84 99.71 225.7 100.85C223.6 102.95 221.83 105.65 220.39 108.95C219.91 111.59 219.52 112.97 219.22 113.09C218.92 113.27 218.53 113.39 218.05 113.45C217.57 113.51 217.06 113.72 216.52 114.08C215.98 114.44 215.47 114.74 214.99 114.98C214.51 115.22 214.03 115.46 213.55 115.7C212.41 116.36 211.66 116.69 211.3 116.69C207.88 117.77 204.61 117.29 201.49 115.25C200.17 114.35 199.15 113.21 198.43 111.83C197.71 110.39 197.53 108.86 197.89 107.24C200.47 96.14 204.01 84.83 208.51 73.31C211.27 66.29 213.91 60.74 216.43 56.66C217.03 55.7 217.63 54.68 218.23 53.6C219.49 51.44 220.36 49.97 220.84 49.19C220.24 47.63 220.24 46.28 220.84 45.14C221.5 43.94 222.46 43.01 223.72 42.35C225.04 41.63 226.54 41.15 228.22 40.91C229.9 40.67 231.49 40.64 232.99 40.82C236.59 41.36 238.51 42.77 238.75 45.05C238.39 46.13 237.88 47.42 237.22 48.92C236.62 50.42 235.99 51.95 235.33 53.51C234.73 55.01 234.13 56.42 233.53 57.74C232.99 59.06 232.57 60.05 232.27 60.71C232.03 61.31 231.64 62.39 231.1 63.95C230.62 65.45 230.08 67.1 229.48 68.9C228.94 70.64 228.43 72.26 227.95 73.76L226.87 76.91C226.63 77.75 226.24 79.04 225.7 80.78C225.16 82.46 224.59 84.56 223.99 87.08C224.77 86.48 225.4 85.79 225.88 85.01C226.42 84.17 227.17 83.24 228.13 82.22C229.15 81.2 230.44 80.21 232 79.25C233.62 78.23 235.33 77.57 237.13 77.27C241.03 76.61 244.57 77.87 247.75 81.05C250.15 83.45 250.9 87.05 250 91.85C249.64 93.83 249.19 95.84 248.65 97.88C248.17 99.86 247.99 101.69 248.11 103.37ZM260.784 74.03C261.564 72.05 263.424 70.7 266.364 69.98C269.124 69.26 271.704 69.35 274.104 70.25C276.564 71.21 277.674 72.77 277.434 74.93C276.774 77.03 275.934 79.61 274.914 82.67C273.954 85.67 273.024 88.76 272.124 91.94C269.724 100.1 268.344 105.86 267.984 109.22C267.084 114.62 265.584 117.53 263.484 117.95C262.884 118.07 262.314 118.16 261.774 118.22C260.454 118.28 259.614 118.64 259.254 119.3C258.894 119.96 258.294 120.44 257.454 120.74C256.614 121.1 255.684 121.25 254.664 121.19C253.704 121.19 252.714 120.95 251.694 120.47C250.674 120.05 249.804 119.42 249.084 118.58C247.404 116.54 247.074 113.81 248.094 110.39C249.054 103.85 251.484 95.54 255.384 85.46C257.244 80.48 259.044 76.67 260.784 74.03ZM277.794 60.53C274.854 61.13 272.454 60.95 270.594 59.99C268.794 59.03 267.744 57.89 267.444 56.57C267.144 55.19 267.564 53.78 268.704 52.34C270.024 50.54 272.004 49.37 274.644 48.83C275.844 48.71 276.714 48.65 277.254 48.65C277.794 48.65 278.454 48.77 279.234 49.01C281.214 49.19 282.504 50.06 283.104 51.62C283.944 52.94 284.004 54.44 283.284 56.12C282.624 57.8 280.794 59.27 277.794 60.53ZM283.58 75.74C284.42 73.58 285.59 71.96 287.09 70.88C288.65 69.74 290.12 69.05 291.5 68.81C292.94 68.51 294.11 68.66 295.01 69.26C295.97 69.86 296.3 70.79 296 72.05C297.14 70.91 298.79 69.86 300.95 68.9C303.11 67.94 304.82 67.28 306.08 66.92C307.34 66.56 308.42 66.38 309.32 66.38C311.3 66.5 311.87 67.58 311.03 69.62C312.05 69.8 312.8 70.46 313.28 71.6C313.76 72.74 313.82 74 313.46 75.38C313.1 76.76 312.29 78.11 311.03 79.43C309.77 80.75 308.06 81.65 305.9 82.13C303.8 82.61 302.03 83.72 300.59 85.46C299.21 87.14 297.98 89.24 296.9 91.76C295.1 96.02 293.48 102.05 292.04 109.85C291.56 112.67 289.61 115.04 286.19 116.96C282.95 118.82 279.98 119.36 277.28 118.58C274.22 117.74 272.87 115.49 273.23 111.83C273.35 109.25 274.13 105.83 275.57 101.57C277.01 97.25 278.12 94.01 278.9 91.85C279.68 89.63 280.22 87.95 280.52 86.81L283.58 75.74ZM337.802 99.68C336.662 100.22 335.552 100.64 334.472 100.94C333.392 101.24 332.132 101.54 330.692 101.84C326.912 102.62 324.182 103.07 322.502 103.19C322.682 103.79 323.582 104.51 325.202 105.35C326.282 105.53 327.452 105.38 328.712 104.9C330.032 104.36 331.382 103.88 332.762 103.46C334.202 102.98 335.582 102.71 336.902 102.65C338.282 102.59 339.572 103.1 340.772 104.18C341.252 105.26 341.642 105.89 341.942 106.07C342.242 106.25 342.512 106.34 342.752 106.34C342.992 106.34 343.262 106.43 343.562 106.61C343.862 106.79 344.282 107.48 344.822 108.68C345.422 109.88 345.272 111.02 344.372 112.1C343.532 113.18 342.212 114.11 340.412 114.89C338.612 115.67 336.512 116.3 334.112 116.78C331.712 117.26 329.312 117.59 326.912 117.77C321.512 118.19 317.402 117.77 314.582 116.51C310.502 115.13 307.862 112.4 306.662 108.32C305.102 102.92 305.972 96.62 309.272 89.42C310.772 86.06 313.142 82.46 316.382 78.62C319.202 75.26 322.352 72.83 325.832 71.33C329.852 69.59 334.052 68.78 338.432 68.9C343.112 69.02 346.352 71.06 348.152 75.02C349.052 77.12 349.232 80.06 348.692 83.84C347.732 88.76 346.472 92.24 344.912 94.28C343.352 96.26 340.982 98.06 337.802 99.68ZM332.582 85.46C329.402 84.8 326.912 86.6 325.112 90.86C324.572 92 324.152 93.2 323.852 94.46C325.892 94.7 328.052 93.56 330.332 91.04C331.172 90.02 331.802 89 332.222 87.98C332.642 86.9 332.762 86.06 332.582 85.46Z"/>
    </mask>
    <path d="M24.94 118.22C21.88 118.34 19.06 117.95 16.48 117.05C13.96 116.21 11.89 115.04 10.27 113.54C8.71 112.04 7.72 110.3 7.3 108.32C6.88 106.28 7.24 104.21 8.38 102.11C9.94 99.59 13.06 98.84 17.74 99.86C21.28 100.58 23.71 100.97 25.03 101.03C26.41 101.09 27.58 100.91 28.54 100.49C32.92 99.05 35.38 97.49 35.92 95.81C36.28 94.55 35.5 93.08 33.58 91.4C32.8 90.68 31.93 89.96 30.97 89.24C30.01 88.52 29.2 87.8 28.54 87.08C25.54 84.86 23.17 82.31 21.43 79.43C19.75 76.49 19.06 73.31 19.36 69.89C19.66 66.47 20.23 63.65 21.07 61.43C21.91 59.15 22.96 57.14 24.22 55.4C26.44 52.34 29.32 49.85 32.86 47.93C36.94 45.83 40.21 44.48 42.67 43.88C47.53 42.8 52.45 42.71 57.43 43.61C59.11 43.91 60.55 44.48 61.75 45.32C62.95 46.16 64.15 47.03 65.35 47.93C67.45 50.03 67.96 52.16 66.88 54.32C66.46 55.28 65.8 56.06 64.9 56.66C64 57.26 63.04 57.59 62.02 57.65C62.14 59.27 61.84 60.47 61.12 61.25C59.74 62.63 57.34 63.53 53.92 63.95C49 63.59 45.67 63.86 43.93 64.76C41.89 65.84 41.14 68.18 41.68 71.78C41.8 72.56 42.28 73.37 43.12 74.21C44.02 75.05 45.04 75.95 46.18 76.91C47.38 77.87 48.61 78.95 49.87 80.15C51.19 81.35 52.33 82.73 53.29 84.29C56.65 89.81 56.38 96.26 52.48 103.64C49.6 109.16 44.68 113.3 37.72 116.06C34.12 117.5 29.86 118.22 24.94 118.22ZM97.2782 74.39L97.6382 74.48C97.7582 74.48 97.8182 74.51 97.8182 74.57C99.3782 73.97 100.668 74.42 101.688 75.92C102.348 76.94 102.858 78.5 103.218 80.6C103.338 83.48 103.038 87.47 102.318 92.57C100.938 102.89 100.188 109.04 100.068 111.02C100.188 113.12 98.8982 114.56 96.1982 115.34C93.8582 116.06 91.5182 116.03 89.1782 115.25C86.7182 114.41 85.6982 113.12 86.1182 111.38C85.6382 112.28 85.1582 112.91 84.6782 113.27C84.1982 113.69 83.2382 114.23 81.7982 114.89C80.4182 115.61 78.4382 116.18 75.8582 116.6C73.2782 117.08 70.6982 117.2 68.1182 116.96C65.5382 116.78 63.1682 116.15 61.0082 115.07C58.9082 114.05 57.4982 112.43 56.7782 110.21C55.3982 105.89 55.5782 100.4 57.3182 93.74C58.5182 89.36 60.6782 85.49 63.7982 82.13C67.3982 78.29 71.4782 75.11 76.0382 72.59C79.4582 70.73 82.7582 69.62 85.9382 69.26C87.0182 69.14 87.9482 69.17 88.7282 69.35C89.5682 69.53 90.4382 69.71 91.3382 69.89C92.2982 70.07 93.1982 70.34 94.0382 70.7C96.1982 71.6 97.2782 72.83 97.2782 74.39ZM80.6282 98.24C81.0482 97.4 81.3782 96.35 81.6182 95.09C81.9182 93.83 82.3082 92.45 82.7882 90.95C77.9282 92.93 74.2082 95.36 71.6282 98.24C68.8082 101.42 68.9882 103.61 72.1682 104.81C74.9282 105.53 76.9382 105.08 78.1982 103.46C78.7382 102.74 79.2182 101.84 79.6382 100.76C80.0582 99.68 80.5682 98.57 81.1682 97.43C80.9882 97.73 80.8082 98 80.6282 98.24ZM122.4 76.19C125.4 71.69 129.57 68.99 134.91 68.09C136.65 67.79 138.78 67.58 141.3 67.46C143.88 67.34 146.07 67.91 147.87 69.17C149.73 70.43 151.11 72.05 152.01 74.03C153.57 77.57 153.81 81.92 152.73 87.08C152.13 89.9 151.41 93.02 150.57 96.44C149.73 99.8 148.47 103.13 146.79 106.43C145.11 109.73 142.92 112.82 140.22 115.7C137.52 118.58 134.01 120.86 129.69 122.54C127.11 123.56 124.83 123.92 122.85 123.62C120.93 123.38 119.49 122.99 118.53 122.45C117.57 121.91 116.91 121.13 116.55 120.11C115.35 123.53 114.21 126.98 113.13 130.46C112.11 134 110.73 137.36 108.99 140.54C107.79 141.32 106.32 141.89 104.58 142.25C102.84 142.67 101.13 142.58 99.4502 141.98C97.7702 141.44 96.5702 140.42 95.8502 138.92C95.0702 137.48 94.6802 135.89 94.6802 134.15C94.6802 131.81 95.2502 128.96 96.3902 125.6C98.0702 120.62 99.4502 116.78 100.53 114.08C101.55 111.38 102.21 109.64 102.51 108.86C102.81 108.02 103.11 107.15 103.41 106.25C104.73 102.77 105.69 99.95 106.29 97.79C106.95 95.57 107.55 93.65 108.09 92.03V91.94C108.69 89.3 109.62 86.51 110.88 83.57C112.2 80.57 113.1 78.74 113.58 78.08C114.6 77.06 115.65 76.43 116.73 76.19C117.81 75.95 119.04 75.8 120.42 75.74H120.69L122.4 76.19ZM129.24 91.22C128.52 92.48 127.32 93.65 125.64 94.73L124.83 96.62C124.23 98.18 123.66 99.77 123.12 101.39C122.58 103.01 121.98 104.6 121.32 106.16C121.92 106.76 122.37 107.33 122.67 107.87C126.03 104.93 129.09 101.06 131.85 96.26C132.93 94.28 133.62 92.3 133.92 90.32C134.28 88.34 134.37 87.08 134.19 86.54C134.01 86 133.71 85.73 133.29 85.73C132.93 85.73 132.54 85.85 132.12 86.09C131.76 86.27 131.46 86.48 131.22 86.72C131.04 86.9 131.07 86.9 131.31 86.72C130.65 87.5 130.17 88.19 129.87 88.79C129.57 89.33 129.36 90.14 129.24 91.22ZM171.71 76.19C174.71 71.69 178.88 68.99 184.22 68.09C185.96 67.79 188.09 67.58 190.61 67.46C193.19 67.34 195.38 67.91 197.18 69.17C199.04 70.43 200.42 72.05 201.32 74.03C202.88 77.57 203.12 81.92 202.04 87.08C201.44 89.9 200.72 93.02 199.88 96.44C199.04 99.8 197.78 103.13 196.1 106.43C194.42 109.73 192.23 112.82 189.53 115.7C186.83 118.58 183.32 120.86 179 122.54C176.42 123.56 174.14 123.92 172.16 123.62C170.24 123.38 168.8 122.99 167.84 122.45C166.88 121.91 166.22 121.13 165.86 120.11C164.66 123.53 163.52 126.98 162.44 130.46C161.42 134 160.04 137.36 158.3 140.54C157.1 141.32 155.63 141.89 153.89 142.25C152.15 142.67 150.44 142.58 148.76 141.98C147.08 141.44 145.88 140.42 145.16 138.92C144.38 137.48 143.99 135.89 143.99 134.15C143.99 131.81 144.56 128.96 145.7 125.6C147.38 120.62 148.76 116.78 149.84 114.08C150.86 111.38 151.52 109.64 151.82 108.86C152.12 108.02 152.42 107.15 152.72 106.25C154.04 102.77 155 99.95 155.6 97.79C156.26 95.57 156.86 93.65 157.4 92.03V91.94C158 89.3 158.93 86.51 160.19 83.57C161.51 80.57 162.41 78.74 162.89 78.08C163.91 77.06 164.96 76.43 166.04 76.19C167.12 75.95 168.35 75.8 169.73 75.74H170L171.71 76.19ZM178.55 91.22C177.83 92.48 176.63 93.65 174.95 94.73L174.14 96.62C173.54 98.18 172.97 99.77 172.43 101.39C171.89 103.01 171.29 104.6 170.63 106.16C171.23 106.76 171.68 107.33 171.98 107.87C175.34 104.93 178.4 101.06 181.16 96.26C182.24 94.28 182.93 92.3 183.23 90.32C183.59 88.34 183.68 87.08 183.5 86.54C183.32 86 183.02 85.73 182.6 85.73C182.24 85.73 181.85 85.85 181.43 86.09C181.07 86.27 180.77 86.48 180.53 86.72C180.35 86.9 180.38 86.9 180.62 86.72C179.96 87.5 179.48 88.19 179.18 88.79C178.88 89.33 178.67 90.14 178.55 91.22ZM248.11 103.37C248.11 106.55 248.5 109.31 249.28 111.65C249.28 113.57 248.83 114.92 247.93 115.7C247.03 116.54 245.89 116.96 244.51 116.96C243.19 117.02 241.78 116.75 240.28 116.15C238.78 115.61 237.49 114.92 236.41 114.08C235.39 113.24 234.73 112.58 234.43 112.1C234.13 111.56 233.65 110.78 232.99 109.76C231.97 105.02 231.49 101.93 231.55 100.49C231.61 99.05 231.73 97.82 231.91 96.8C228.91 98.36 226.84 99.71 225.7 100.85C223.6 102.95 221.83 105.65 220.39 108.95C219.91 111.59 219.52 112.97 219.22 113.09C218.92 113.27 218.53 113.39 218.05 113.45C217.57 113.51 217.06 113.72 216.52 114.08C215.98 114.44 215.47 114.74 214.99 114.98C214.51 115.22 214.03 115.46 213.55 115.7C212.41 116.36 211.66 116.69 211.3 116.69C207.88 117.77 204.61 117.29 201.49 115.25C200.17 114.35 199.15 113.21 198.43 111.83C197.71 110.39 197.53 108.86 197.89 107.24C200.47 96.14 204.01 84.83 208.51 73.31C211.27 66.29 213.91 60.74 216.43 56.66C217.03 55.7 217.63 54.68 218.23 53.6C219.49 51.44 220.36 49.97 220.84 49.19C220.24 47.63 220.24 46.28 220.84 45.14C221.5 43.94 222.46 43.01 223.72 42.35C225.04 41.63 226.54 41.15 228.22 40.91C229.9 40.67 231.49 40.64 232.99 40.82C236.59 41.36 238.51 42.77 238.75 45.05C238.39 46.13 237.88 47.42 237.22 48.92C236.62 50.42 235.99 51.95 235.33 53.51C234.73 55.01 234.13 56.42 233.53 57.74C232.99 59.06 232.57 60.05 232.27 60.71C232.03 61.31 231.64 62.39 231.1 63.95C230.62 65.45 230.08 67.1 229.48 68.9C228.94 70.64 228.43 72.26 227.95 73.76L226.87 76.91C226.63 77.75 226.24 79.04 225.7 80.78C225.16 82.46 224.59 84.56 223.99 87.08C224.77 86.48 225.4 85.79 225.88 85.01C226.42 84.17 227.17 83.24 228.13 82.22C229.15 81.2 230.44 80.21 232 79.25C233.62 78.23 235.33 77.57 237.13 77.27C241.03 76.61 244.57 77.87 247.75 81.05C250.15 83.45 250.9 87.05 250 91.85C249.64 93.83 249.19 95.84 248.65 97.88C248.17 99.86 247.99 101.69 248.11 103.37ZM260.784 74.03C261.564 72.05 263.424 70.7 266.364 69.98C269.124 69.26 271.704 69.35 274.104 70.25C276.564 71.21 277.674 72.77 277.434 74.93C276.774 77.03 275.934 79.61 274.914 82.67C273.954 85.67 273.024 88.76 272.124 91.94C269.724 100.1 268.344 105.86 267.984 109.22C267.084 114.62 265.584 117.53 263.484 117.95C262.884 118.07 262.314 118.16 261.774 118.22C260.454 118.28 259.614 118.64 259.254 119.3C258.894 119.96 258.294 120.44 257.454 120.74C256.614 121.1 255.684 121.25 254.664 121.19C253.704 121.19 252.714 120.95 251.694 120.47C250.674 120.05 249.804 119.42 249.084 118.58C247.404 116.54 247.074 113.81 248.094 110.39C249.054 103.85 251.484 95.54 255.384 85.46C257.244 80.48 259.044 76.67 260.784 74.03ZM277.794 60.53C274.854 61.13 272.454 60.95 270.594 59.99C268.794 59.03 267.744 57.89 267.444 56.57C267.144 55.19 267.564 53.78 268.704 52.34C270.024 50.54 272.004 49.37 274.644 48.83C275.844 48.71 276.714 48.65 277.254 48.65C277.794 48.65 278.454 48.77 279.234 49.01C281.214 49.19 282.504 50.06 283.104 51.62C283.944 52.94 284.004 54.44 283.284 56.12C282.624 57.8 280.794 59.27 277.794 60.53ZM283.58 75.74C284.42 73.58 285.59 71.96 287.09 70.88C288.65 69.74 290.12 69.05 291.5 68.81C292.94 68.51 294.11 68.66 295.01 69.26C295.97 69.86 296.3 70.79 296 72.05C297.14 70.91 298.79 69.86 300.95 68.9C303.11 67.94 304.82 67.28 306.08 66.92C307.34 66.56 308.42 66.38 309.32 66.38C311.3 66.5 311.87 67.58 311.03 69.62C312.05 69.8 312.8 70.46 313.28 71.6C313.76 72.74 313.82 74 313.46 75.38C313.1 76.76 312.29 78.11 311.03 79.43C309.77 80.75 308.06 81.65 305.9 82.13C303.8 82.61 302.03 83.72 300.59 85.46C299.21 87.14 297.98 89.24 296.9 91.76C295.1 96.02 293.48 102.05 292.04 109.85C291.56 112.67 289.61 115.04 286.19 116.96C282.95 118.82 279.98 119.36 277.28 118.58C274.22 117.74 272.87 115.49 273.23 111.83C273.35 109.25 274.13 105.83 275.57 101.57C277.01 97.25 278.12 94.01 278.9 91.85C279.68 89.63 280.22 87.95 280.52 86.81L283.58 75.74ZM337.802 99.68C336.662 100.22 335.552 100.64 334.472 100.94C333.392 101.24 332.132 101.54 330.692 101.84C326.912 102.62 324.182 103.07 322.502 103.19C322.682 103.79 323.582 104.51 325.202 105.35C326.282 105.53 327.452 105.38 328.712 104.9C330.032 104.36 331.382 103.88 332.762 103.46C334.202 102.98 335.582 102.71 336.902 102.65C338.282 102.59 339.572 103.1 340.772 104.18C341.252 105.26 341.642 105.89 341.942 106.07C342.242 106.25 342.512 106.34 342.752 106.34C342.992 106.34 343.262 106.43 343.562 106.61C343.862 106.79 344.282 107.48 344.822 108.68C345.422 109.88 345.272 111.02 344.372 112.1C343.532 113.18 342.212 114.11 340.412 114.89C338.612 115.67 336.512 116.3 334.112 116.78C331.712 117.26 329.312 117.59 326.912 117.77C321.512 118.19 317.402 117.77 314.582 116.51C310.502 115.13 307.862 112.4 306.662 108.32C305.102 102.92 305.972 96.62 309.272 89.42C310.772 86.06 313.142 82.46 316.382 78.62C319.202 75.26 322.352 72.83 325.832 71.33C329.852 69.59 334.052 68.78 338.432 68.9C343.112 69.02 346.352 71.06 348.152 75.02C349.052 77.12 349.232 80.06 348.692 83.84C347.732 88.76 346.472 92.24 344.912 94.28C343.352 96.26 340.982 98.06 337.802 99.68ZM332.582 85.46C329.402 84.8 326.912 86.6 325.112 90.86C324.572 92 324.152 93.2 323.852 94.46C325.892 94.7 328.052 93.56 330.332 91.04C331.172 90.02 331.802 89 332.222 87.98C332.642 86.9 332.762 86.06 332.582 85.46Z" fill="white"/>
    <path d="M24.94 118.22V116.22H24.9008L24.8616 116.222L24.94 118.22ZM16.48 117.05L17.1387 115.162L17.1256 115.157L17.1125 115.153L16.48 117.05ZM10.27 113.54L8.88378 114.982L8.89736 114.995L8.91118 115.008L10.27 113.54ZM7.3 108.32L5.34105 108.723L5.34353 108.735L7.3 108.32ZM8.38 102.11L6.67947 101.057L6.64948 101.106L6.62229 101.156L8.38 102.11ZM17.74 99.86L17.3141 101.814L17.3277 101.817L17.3414 101.82L17.74 99.86ZM25.03 101.03L24.9392 103.028L24.9431 103.028L25.03 101.03ZM28.54 100.49L27.9154 98.59L27.8253 98.6197L27.7384 98.6577L28.54 100.49ZM35.92 95.81L37.8241 96.422L37.8341 96.3909L37.8431 96.3594L35.92 95.81ZM33.58 91.4L32.2234 92.8696L32.243 92.8876L32.263 92.9052L33.58 91.4ZM30.97 89.24L29.77 90.84L29.77 90.84L30.97 89.24ZM28.54 87.08L30.0143 85.7285L29.8843 85.5867L29.7297 85.4723L28.54 87.08ZM21.43 79.43L19.6935 80.4223L19.7056 80.4434L19.7182 80.4642L21.43 79.43ZM19.36 69.89L17.3677 69.7152H17.3677L19.36 69.89ZM21.07 61.43L22.9406 62.1378L22.9437 62.1296L22.9467 62.1214L21.07 61.43ZM24.22 55.4L22.6012 54.2255L22.6001 54.227L24.22 55.4ZM32.86 47.93L31.9447 46.1517L31.9255 46.1616L31.9065 46.1719L32.86 47.93ZM42.67 43.88L42.2361 41.9276L42.2161 41.9321L42.1961 41.937L42.67 43.88ZM57.43 43.61L57.0743 45.5781L57.0784 45.5789L57.43 43.61ZM61.75 45.32L62.8969 43.6815H62.8969L61.75 45.32ZM65.35 47.93L66.7642 46.5158L66.6637 46.4153L66.55 46.33L65.35 47.93ZM66.88 54.32L65.0911 53.4256L65.0682 53.4714L65.0477 53.5184L66.88 54.32ZM62.02 57.65L61.9025 55.6535L59.8755 55.7727L60.0255 57.7977L62.02 57.65ZM61.12 61.25L62.5342 62.6642L62.5625 62.6359L62.5896 62.6066L61.12 61.25ZM53.92 63.95L53.7741 65.9447L53.9694 65.959L54.1638 65.9351L53.92 63.95ZM43.93 64.76L43.0112 62.9836L43.0027 62.988L42.9942 62.9924L43.93 64.76ZM41.68 71.78L39.7021 72.0767L39.7033 72.0841L41.68 71.78ZM43.12 74.21L41.7058 75.6242L41.7302 75.6486L41.7554 75.6721L43.12 74.21ZM46.18 76.91L44.8917 78.4398L44.911 78.456L44.9306 78.4717L46.18 76.91ZM49.87 80.15L48.4907 81.5983L48.5075 81.6143L48.5247 81.6299L49.87 80.15ZM53.29 84.29L54.9984 83.2501L54.9933 83.2418L53.29 84.29ZM52.48 103.64L50.7117 102.706L50.7068 102.715L52.48 103.64ZM37.72 116.06L36.9827 114.201L36.9772 114.203L37.72 116.06ZM24.8616 116.222C22.0219 116.333 19.4552 115.97 17.1387 115.162L15.8213 118.938C18.6648 119.93 21.7381 120.347 25.0184 120.218L24.8616 116.222ZM17.1125 115.153C14.8085 114.385 13.002 113.344 11.6288 112.072L8.91118 115.008C10.778 116.736 13.1115 118.035 15.8475 118.947L17.1125 115.153ZM11.6562 112.098C10.3638 110.856 9.58756 109.466 9.25647 107.905L5.34353 108.735C5.85244 111.134 7.05625 113.224 8.88378 114.982L11.6562 112.098ZM9.25891 107.917C8.94789 106.406 9.1877 104.814 10.1377 103.064L6.62229 101.156C5.2923 103.606 4.81211 106.154 5.34109 108.723L9.25891 107.917ZM10.0805 103.163C10.945 101.766 12.8767 100.847 17.3141 101.814L18.1659 97.9059C13.2433 96.833 8.93505 97.4137 6.67947 101.057L10.0805 103.163ZM17.3414 101.82C20.8663 102.537 23.4417 102.96 24.9392 103.028L25.1208 99.0321C23.9783 98.9801 21.6937 98.6232 18.1386 97.9001L17.3414 101.82ZM24.9431 103.028C26.5351 103.097 28.0277 102.897 29.3416 102.322L27.7384 98.6577C27.1323 98.9228 26.2849 99.0827 25.1169 99.0319L24.9431 103.028ZM29.1646 102.39C31.4319 101.645 33.3151 100.833 34.7411 99.929C36.1282 99.0494 37.3435 97.9171 37.8241 96.422L34.0159 95.198C33.9565 95.3829 33.6718 95.8706 32.5989 96.551C31.5649 97.2067 30.0281 97.8954 27.9154 98.59L29.1646 102.39ZM37.8431 96.3594C38.2007 95.1078 37.9357 93.8881 37.3717 92.8251C36.8236 91.7921 35.9529 90.8187 34.897 89.8948L32.263 92.9052C33.1271 93.6613 33.6064 94.2629 33.8383 94.6999C34.0543 95.1069 33.9993 95.2522 33.997 95.2606L37.8431 96.3594ZM34.9366 89.9304C34.1007 89.1588 33.1775 88.3956 32.17 87.64L29.77 90.84C30.6825 91.5244 31.4993 92.2012 32.2234 92.8696L34.9366 89.9304ZM32.17 87.64C31.2875 86.9781 30.5744 86.3395 30.0143 85.7285L27.0657 88.4314C27.8256 89.2605 28.7325 90.0619 29.77 90.84L32.17 87.64ZM29.7297 85.4723C26.9166 83.3906 24.7329 81.0292 23.1418 78.3958L19.7182 80.4642C21.6071 83.5908 24.1634 86.3294 27.3503 88.6877L29.7297 85.4723ZM23.1665 78.4377C21.6917 75.8568 21.0874 73.0848 21.3523 70.0648L17.3677 69.7152C17.0326 73.5352 17.8083 77.1232 19.6935 80.4223L23.1665 78.4377ZM21.3523 70.0648C21.6428 66.7535 22.1872 64.1289 22.9406 62.1378L19.1994 60.7222C18.2728 63.1711 17.6772 66.1865 17.3677 69.7152L21.3523 70.0648ZM22.9467 62.1214C23.7316 59.9909 24.7001 58.1471 25.8399 56.573L22.6001 54.227C21.2199 56.1329 20.0884 58.3091 19.1933 60.7386L22.9467 62.1214ZM25.8388 56.5745C27.8721 53.7718 30.5186 51.4751 33.8135 49.6881L31.9065 46.1719C28.1214 48.2249 25.0079 50.9081 22.6012 54.2255L25.8388 56.5745ZM33.7753 49.7083C37.8087 47.6322 40.9134 46.3671 43.1439 45.823L42.1961 41.937C39.5066 42.5929 36.0713 44.0278 31.9447 46.1517L33.7753 49.7083ZM43.1039 45.8324C47.7 44.811 52.3515 44.7246 57.0743 45.5781L57.7857 41.6419C52.5485 40.6954 47.36 40.789 42.2361 41.9276L43.1039 45.8324ZM57.0784 45.5789C58.5194 45.8362 59.6772 46.3104 60.6031 46.9585L62.8969 43.6815C61.4228 42.6496 59.7006 41.9838 57.7816 41.6411L57.0784 45.5789ZM60.6031 46.9585C61.7848 47.7856 62.9671 48.6428 64.15 49.53L66.55 46.33C65.3329 45.4172 64.1153 44.5344 62.8969 43.6815L60.6031 46.9585ZM63.9358 49.3442C64.8145 50.2229 65.2189 50.9685 65.3625 51.5682C65.4964 52.1277 65.4438 52.7202 65.0911 53.4256L68.6689 55.2144C69.3962 53.7598 69.6286 52.2073 69.2525 50.6368C68.8861 49.1065 67.9855 47.7371 66.7642 46.5158L63.9358 49.3442ZM65.0477 53.5184C64.7863 54.1158 64.3829 54.601 63.7906 54.9959L66.0094 58.3241C67.2171 57.519 68.1337 56.4441 68.7123 55.1216L65.0477 53.5184ZM63.7906 54.9959C63.1679 55.411 62.5473 55.6155 61.9025 55.6535L62.1375 59.6465C63.5327 59.5645 64.8321 59.109 66.0094 58.3241L63.7906 54.9959ZM60.0255 57.7977C60.126 59.1555 59.8346 59.6939 59.6504 59.8934L62.5896 62.6066C63.8454 61.2461 64.154 59.3845 64.0145 57.5023L60.0255 57.7977ZM59.7058 59.8358C58.8044 60.7372 56.9556 61.5622 53.6762 61.9649L54.1638 65.9351C57.7244 65.4978 60.6756 64.5228 62.5342 62.6642L59.7058 59.8358ZM54.066 61.9553C51.5469 61.771 49.374 61.7428 47.5709 61.889C45.8018 62.0325 44.2266 62.3549 43.0112 62.9836L44.8488 66.5364C45.3734 66.2651 46.3332 66.0025 47.8941 65.876C49.421 65.7522 51.3731 65.769 53.7741 65.9447L54.066 61.9553ZM42.9942 62.9924C39.8018 64.6825 39.1206 68.1999 39.7021 72.0767L43.6579 71.4833C43.1594 68.1601 43.9782 66.9974 44.8658 66.5276L42.9942 62.9924ZM39.7033 72.0841C39.9132 73.4489 40.7089 74.6273 41.7058 75.6242L44.5342 72.7958C43.8511 72.1127 43.6868 71.6711 43.6567 71.4759L39.7033 72.0841ZM41.7554 75.6721C42.6848 76.5395 43.7309 77.4623 44.8917 78.4398L47.4683 75.3802C46.3491 74.4377 45.3552 73.5605 44.4846 72.7479L41.7554 75.6721ZM44.9306 78.4717C46.0803 79.3915 47.267 80.4329 48.4907 81.5983L51.2493 78.7017C49.953 77.4671 48.6797 76.3485 47.4294 75.3483L44.9306 78.4717ZM48.5247 81.6299C49.7019 82.7001 50.7225 83.9339 51.5867 85.3382L54.9933 83.2418C53.9375 81.5261 52.6781 79.9999 51.2153 78.6701L48.5247 81.6299ZM51.5816 85.3299C54.4677 90.0714 54.3925 95.7404 50.7117 102.706L54.2483 104.574C58.3675 96.7796 58.8323 89.5486 54.9984 83.2501L51.5816 85.3299ZM50.7068 102.715C48.0918 107.727 43.5912 111.58 36.9828 114.201L38.4573 117.919C45.7689 115.02 51.1082 110.593 54.2532 104.565L50.7068 102.715ZM36.9772 114.203C33.6676 115.527 29.6712 116.22 24.94 116.22V120.22C30.0488 120.22 34.5724 119.473 38.4628 117.917L36.9772 114.203ZM97.2782 74.39H95.2782V75.9516L96.7931 76.3303L97.2782 74.39ZM97.6382 74.48L97.1531 76.4203L97.392 76.48H97.6382V74.48ZM97.8182 74.57H95.8182V77.4821L98.5362 76.4367L97.8182 74.57ZM101.688 75.92L103.367 74.8335L103.355 74.8143L103.342 74.7954L101.688 75.92ZM103.218 80.6L105.216 80.5167L105.211 80.3885L105.189 80.2621L103.218 80.6ZM102.318 92.57L100.338 92.2904L100.337 92.2977L100.336 92.3049L102.318 92.57ZM100.068 111.02L98.0719 110.899L98.0647 111.017L98.0715 111.134L100.068 111.02ZM96.1982 115.34L95.6431 113.419L95.6265 113.423L95.61 113.428L96.1982 115.34ZM89.1782 115.25L88.5319 117.143L88.5388 117.145L88.5458 117.147L89.1782 115.25ZM86.1182 111.38L88.0624 111.849L84.3535 110.439L86.1182 111.38ZM84.6782 113.27L83.4782 111.67L83.4179 111.715L83.3612 111.765L84.6782 113.27ZM81.7982 114.89L80.9649 113.072L80.9184 113.093L80.8731 113.117L81.7982 114.89ZM75.8582 116.6L75.5369 114.626L75.5146 114.63L75.4924 114.634L75.8582 116.6ZM68.1182 116.96L68.3035 114.969L68.2804 114.966L68.2574 114.965L68.1182 116.96ZM61.0082 115.07L61.9026 113.281L61.8924 113.276L61.882 113.271L61.0082 115.07ZM56.7782 110.21L54.873 110.819L54.8758 110.827L56.7782 110.21ZM57.3182 93.74L55.3893 93.2115L55.3862 93.223L55.3832 93.2344L57.3182 93.74ZM63.7982 82.13L62.3391 80.7621L62.3326 80.7691L63.7982 82.13ZM76.0382 72.59L75.0826 70.833L75.0708 70.8395L76.0382 72.59ZM85.9382 69.26L85.7173 67.2722L85.7132 67.2727L85.9382 69.26ZM88.7282 69.35L88.2785 71.2988L88.2938 71.3023L88.3092 71.3056L88.7282 69.35ZM91.3382 69.89L90.946 71.8512L90.9578 71.8535L90.9696 71.8557L91.3382 69.89ZM94.0382 70.7L93.2504 72.5383L93.2597 72.5423L93.269 72.5462L94.0382 70.7ZM80.6282 98.24L78.8393 97.3456L82.2282 99.44L80.6282 98.24ZM81.6182 95.09L79.6726 94.6268L79.662 94.6711L79.6535 94.7158L81.6182 95.09ZM82.7882 90.95L84.6931 91.5596L85.9976 87.4829L82.0336 89.0978L82.7882 90.95ZM71.6282 98.24L70.1385 96.9055L70.1318 96.913L71.6282 98.24ZM72.1682 104.81L71.4621 106.681L71.561 106.719L71.6634 106.745L72.1682 104.81ZM78.1982 103.46L79.7769 104.688L79.7877 104.674L79.7982 104.66L78.1982 103.46ZM79.6382 100.76L81.5022 101.485L79.6382 100.76ZM81.1682 97.43L82.938 98.3615L79.4532 96.401L81.1682 97.43ZM96.7931 76.3303L97.1531 76.4203L98.1233 72.5397L97.7633 72.4497L96.7931 76.3303ZM97.6382 76.48C97.5961 76.48 97.2667 76.4853 96.8788 76.2913C96.6565 76.1802 96.3697 75.9802 96.1428 75.64C95.9077 75.2873 95.8182 74.905 95.8182 74.57H99.8182C99.8182 74.205 99.7212 73.7965 99.4711 73.4212C99.2293 73.0585 98.9199 72.8398 98.6676 72.7136C98.2197 72.4897 97.8004 72.48 97.6382 72.48V76.48ZM98.5362 76.4367C98.9768 76.2672 99.1927 76.3095 99.297 76.3459C99.4224 76.3897 99.6871 76.5339 100.034 77.0446L103.342 74.7954C102.669 73.8061 101.779 72.9753 100.614 72.5691C99.4287 72.1555 98.2196 72.2728 97.1003 72.7033L98.5362 76.4367ZM100.009 77.0065C100.451 77.6887 100.903 78.9337 101.247 80.9379L105.189 80.2621C104.813 78.0663 104.246 76.1913 103.367 74.8335L100.009 77.0065ZM101.22 80.6833C101.332 83.3829 101.052 87.2327 100.338 92.2904L104.299 92.8496C105.025 87.7073 105.344 83.5771 105.216 80.5167L101.22 80.6833ZM100.336 92.3049C98.9611 102.586 98.1974 108.828 98.0719 110.899L102.065 111.141C102.179 109.252 102.915 103.194 104.301 92.8351L100.336 92.3049ZM98.0715 111.134C98.1041 111.705 97.9581 112.054 97.701 112.34C97.3954 112.682 96.787 113.088 95.6431 113.419L96.7533 117.261C98.3094 116.812 99.696 116.108 100.68 115.009C101.713 113.856 102.152 112.435 102.065 110.906L98.0715 111.134ZM95.61 113.428C93.6716 114.025 91.7584 114.002 89.8107 113.353L88.5458 117.147C91.278 118.058 94.0448 118.095 96.7864 117.252L95.61 113.428ZM89.8245 113.357C88.7648 112.995 88.3074 112.628 88.137 112.412C88.0657 112.322 88.0445 112.26 88.0351 112.212C88.0246 112.159 88.0145 112.048 88.0624 111.849L84.174 110.911C83.8345 112.317 84.0712 113.719 84.9994 114.893C85.849 115.967 87.1316 116.665 88.5319 117.143L89.8245 113.357ZM84.3535 110.439C83.9277 111.237 83.6146 111.568 83.4782 111.67L85.8782 114.87C86.7018 114.252 87.3487 113.323 87.8829 112.321L84.3535 110.439ZM83.3612 111.765C83.1253 111.971 82.4132 112.408 80.9649 113.072L82.6315 116.708C84.0632 116.052 85.2712 115.409 85.9952 114.775L83.3612 111.765ZM80.8731 113.117C79.7677 113.694 78.0288 114.22 75.5369 114.626L76.1796 118.574C78.8476 118.14 81.0687 117.526 82.7233 116.663L80.8731 113.117ZM75.4924 114.634C73.0917 115.08 70.6971 115.191 68.3035 114.969L67.933 118.951C70.6993 119.209 73.4647 119.08 76.224 118.566L75.4924 114.634ZM68.2574 114.965C65.9214 114.802 63.8106 114.235 61.9026 113.281L60.1138 116.859C62.5258 118.065 65.155 118.758 67.979 118.955L68.2574 114.965ZM61.882 113.271C60.2712 112.489 59.2327 111.295 58.6806 109.593L54.8758 110.827C55.7637 113.565 57.5452 115.611 60.1344 116.869L61.882 113.271ZM58.6834 109.601C57.4639 105.784 57.563 100.715 59.2533 94.2456L55.3832 93.2344C53.5934 100.085 53.3326 105.996 54.8731 110.819L58.6834 109.601ZM59.2471 94.2685C60.3611 90.2023 62.3608 86.6172 65.2638 83.4909L62.3326 80.7691C58.9956 84.3628 56.6753 88.5177 55.3893 93.2115L59.2471 94.2685ZM65.2573 83.4979C68.7159 79.8087 72.6304 76.7584 77.0056 74.3405L75.0708 70.8395C70.326 73.4616 66.0805 76.7713 62.3391 80.7621L65.2573 83.4979ZM76.9938 74.347C80.235 72.5842 83.2882 71.5728 86.1632 71.2473L85.7132 67.2727C82.2282 67.6672 78.6814 68.8758 75.0827 70.833L76.9938 74.347ZM86.1591 71.2478C87.0896 71.1444 87.7811 71.184 88.2785 71.2988L89.1779 67.4012C88.1153 67.156 86.9468 67.1356 85.7173 67.2722L86.1591 71.2478ZM88.3092 71.3056C89.1587 71.4876 90.0376 71.6695 90.946 71.8512L91.7304 67.9288C90.8388 67.7505 89.9778 67.5724 89.1473 67.3944L88.3092 71.3056ZM90.9696 71.8557C91.7954 72.0106 92.5539 72.2398 93.2504 72.5383L94.826 68.8617C93.8425 68.4402 92.801 68.1294 91.7068 67.9243L90.9696 71.8557ZM93.269 72.5462C95.1136 73.3147 95.2782 74.0188 95.2782 74.39H99.2782C99.2782 71.6412 97.2828 69.8853 94.8074 68.8538L93.269 72.5462ZM82.4171 99.1344C82.9431 98.0823 83.3201 96.8438 83.5829 95.4642L79.6535 94.7158C79.4363 95.8561 79.1533 96.7177 78.8393 97.3456L82.4171 99.1344ZM83.5638 95.5532C83.8499 94.3517 84.2253 93.0212 84.6931 91.5596L80.8834 90.3404C80.3911 91.8788 79.9865 93.3083 79.6726 94.6268L83.5638 95.5532ZM82.0336 89.0978C76.9877 91.1535 72.9801 93.7336 70.1385 96.9055L73.1179 99.5745C75.4364 96.9864 78.8687 94.7065 83.5428 92.8022L82.0336 89.0978ZM70.1318 96.913C68.6601 98.5726 67.4933 100.465 67.6549 102.431C67.8393 104.674 69.589 105.974 71.4621 106.681L72.8743 102.939C72.2422 102.7 71.9173 102.469 71.7662 102.316C71.6469 102.196 71.6445 102.14 71.6415 102.104C71.6231 101.88 71.7763 101.087 73.1246 99.567L70.1318 96.913ZM71.6634 106.745C74.8399 107.574 77.8337 107.186 79.7769 104.688L76.6195 102.232C76.0427 102.974 75.0165 103.486 72.673 102.875L71.6634 106.745ZM79.7982 104.66C80.4735 103.76 81.0341 102.689 81.5022 101.485L77.7742 100.035C77.4023 100.991 77.0029 101.72 76.5982 102.26L79.7982 104.66ZM81.5022 101.485C81.8919 100.483 82.3695 99.4418 82.938 98.3615L79.3984 96.4985C78.7669 97.6982 78.2245 98.8772 77.7742 100.035L81.5022 101.485ZM79.4532 96.401C79.3029 96.6515 79.1609 96.8631 79.0282 97.04L82.2282 99.44C82.4555 99.1369 82.6735 98.8085 82.8832 98.459L79.4532 96.401ZM122.4 76.19L121.891 78.1241L123.272 78.4876L124.064 77.2994L122.4 76.19ZM134.91 68.09L135.243 70.0622L135.25 70.0609L134.91 68.09ZM141.3 67.46L141.207 65.4622L141.205 65.4623L141.3 67.46ZM147.87 69.17L146.723 70.8085L146.736 70.8172L146.748 70.8258L147.87 69.17ZM152.01 74.03L153.84 73.2235L153.836 73.2129L153.831 73.2024L152.01 74.03ZM152.73 87.08L154.686 87.4962L154.688 87.4897L152.73 87.08ZM150.57 96.44L152.51 96.9251L152.512 96.917L150.57 96.44ZM146.79 106.43L145.008 105.523L146.79 106.43ZM140.22 115.7L138.761 114.332L140.22 115.7ZM129.69 122.54L128.965 120.676L128.955 120.68L129.69 122.54ZM122.85 123.62L123.15 121.643L123.124 121.639L123.098 121.635L122.85 123.62ZM116.55 120.11L118.436 119.444L116.545 114.085L114.663 119.448L116.55 120.11ZM113.13 130.46L111.22 129.867L111.214 129.887L111.208 129.906L113.13 130.46ZM108.99 140.54L110.08 142.217L110.503 141.942L110.745 141.5L108.99 140.54ZM104.58 142.25L104.175 140.291L104.143 140.298L104.111 140.306L104.58 142.25ZM99.4502 141.98L100.123 140.097L100.093 140.086L100.062 140.076L99.4502 141.98ZM95.8502 138.92L97.6532 138.055L97.632 138.01L97.6087 137.967L95.8502 138.92ZM96.3902 125.6L98.2841 126.243L98.2852 126.239L96.3902 125.6ZM100.53 114.08L102.387 114.823L102.394 114.805L102.401 114.787L100.53 114.08ZM102.51 108.86L104.377 109.578L104.386 109.555L104.394 109.533L102.51 108.86ZM103.41 106.25L101.54 105.541L101.526 105.579L101.513 105.618L103.41 106.25ZM106.29 97.79L104.373 97.2201L104.368 97.2373L104.363 97.2547L106.29 97.79ZM108.09 92.03L109.988 92.6625L110.09 92.3546V92.03H108.09ZM108.09 91.94L106.14 91.4968L106.09 91.7156V91.94H108.09ZM110.88 83.57L109.05 82.7645L109.046 82.7733L109.042 82.7822L110.88 83.57ZM113.58 78.08L112.166 76.6658L112.055 76.7767L111.963 76.9037L113.58 78.08ZM116.73 76.19L117.164 78.1424H117.164L116.73 76.19ZM120.42 75.74V73.74H120.377L120.333 73.7419L120.42 75.74ZM120.69 75.74L121.199 73.8058L120.949 73.74H120.69V75.74ZM129.24 91.22L130.977 92.2123L131.182 91.8526L131.228 91.4409L129.24 91.22ZM125.64 94.73L124.559 93.0476L124.043 93.379L123.802 93.9422L125.64 94.73ZM124.83 96.62L122.992 95.8322L122.977 95.8668L122.963 95.902L124.83 96.62ZM123.12 101.39L121.223 100.758L123.12 101.39ZM121.32 106.16L119.478 105.381L118.953 106.622L119.906 107.574L121.32 106.16ZM122.67 107.87L120.922 108.841L122.124 111.005L123.987 109.375L122.67 107.87ZM131.85 96.26L133.584 97.2569L133.595 97.2374L133.606 97.2177L131.85 96.26ZM133.92 90.32L131.952 89.9622L131.947 89.9912L131.943 90.0204L133.92 90.32ZM134.19 86.54L132.293 87.1725V87.1725L134.19 86.54ZM132.12 86.09L133.015 87.8788L133.064 87.854L133.112 87.8265L132.12 86.09ZM131.22 86.72L129.806 85.3058L129.806 85.3058L131.22 86.72ZM131.31 86.72L132.837 88.0119L130.11 85.12L131.31 86.72ZM129.87 88.79L131.618 89.7613L131.64 89.7233L131.659 89.6844L129.87 88.79ZM124.064 77.2994C126.758 73.259 130.446 70.8707 135.243 70.0622L134.578 66.1178C128.695 67.1093 124.042 70.121 120.736 75.0806L124.064 77.2994ZM135.25 70.0609C136.883 69.7794 138.926 69.5753 141.395 69.4577L141.205 65.4623C138.635 65.5847 136.417 65.8006 134.57 66.1191L135.25 70.0609ZM141.393 69.4578C143.612 69.3546 145.346 69.8446 146.723 70.8085L149.017 67.5315C146.794 65.9754 144.148 65.3254 141.207 65.4622L141.393 69.4578ZM146.748 70.8258C148.314 71.8865 149.447 73.2242 150.189 74.8576L153.831 73.2024C152.773 70.8758 151.146 68.9735 148.992 67.5142L146.748 70.8258ZM150.18 74.8365C151.52 77.8778 151.797 81.7737 150.773 86.6703L154.688 87.4897C155.823 82.0663 155.62 77.2622 153.84 73.2235L150.18 74.8365ZM150.774 86.6638C150.179 89.4596 149.464 92.5589 148.628 95.963L152.512 96.917C153.356 93.4811 154.081 90.3404 154.686 87.4962L150.774 86.6638ZM148.63 95.9549C147.829 99.159 146.624 102.348 145.008 105.523L148.572 107.337C150.316 103.912 151.631 100.441 152.51 96.9251L148.63 95.9549ZM145.008 105.523C143.419 108.644 141.341 111.581 138.761 114.332L141.679 117.068C144.5 114.059 146.802 110.816 148.572 107.337L145.008 105.523ZM138.761 114.332C136.298 116.959 133.055 119.086 128.965 120.676L130.415 124.404C134.966 122.634 138.742 120.201 141.679 117.068L138.761 114.332ZM128.955 120.68C126.583 121.618 124.671 121.873 123.15 121.643L122.551 125.597C124.989 125.967 127.638 125.502 130.425 124.4L128.955 120.68ZM123.098 121.635C121.271 121.407 120.134 121.058 119.511 120.707L117.55 124.193C118.846 124.922 120.59 125.353 122.602 125.605L123.098 121.635ZM119.511 120.707C118.965 120.4 118.632 119.998 118.436 119.444L114.664 120.776C115.189 122.262 116.176 123.42 117.55 124.193L119.511 120.707ZM114.663 119.448C113.455 122.891 112.307 126.364 111.22 129.867L115.04 131.053C116.113 127.596 117.245 124.169 118.437 120.772L114.663 119.448ZM111.208 129.906C110.228 133.307 108.904 136.531 107.236 139.58L110.745 141.5C112.556 138.189 113.992 134.693 115.052 131.014L111.208 129.906ZM107.9 138.863C106.953 139.479 105.728 139.97 104.175 140.291L104.985 144.209C106.912 143.81 108.628 143.161 110.08 142.217L107.9 138.863ZM104.111 140.306C102.748 140.635 101.435 140.565 100.123 140.097L98.7775 143.863C100.825 144.595 102.932 144.705 105.049 144.194L104.111 140.306ZM100.062 140.076C98.8695 139.693 98.1199 139.027 97.6532 138.055L94.0471 139.785C95.0204 141.813 96.6708 143.187 98.8381 143.884L100.062 140.076ZM97.6087 137.967C96.9971 136.838 96.6802 135.579 96.6802 134.15H92.6802C92.6802 136.201 93.1432 138.122 94.0916 139.873L97.6087 137.967ZM96.6802 134.15C96.6802 132.111 97.1819 129.491 98.2841 126.243L94.4962 124.957C93.3184 128.429 92.6802 131.509 92.6802 134.15H96.6802ZM98.2852 126.239C99.9612 121.271 101.327 117.472 102.387 114.823L98.6732 113.337C97.5728 116.088 96.1791 119.969 94.4951 124.961L98.2852 126.239ZM102.401 114.787C103.422 112.085 104.079 110.351 104.377 109.578L100.643 108.142C100.341 108.929 99.6786 110.675 98.6592 113.373L102.401 114.787ZM104.394 109.533C104.699 108.679 105.003 107.795 105.308 106.882L101.513 105.618C101.217 106.505 100.922 107.361 100.627 108.187L104.394 109.533ZM105.28 106.959C106.61 103.454 107.594 100.57 108.217 98.3253L104.363 97.2547C103.787 99.3302 102.851 102.086 101.54 105.541L105.28 106.959ZM108.207 98.3599C108.863 96.1541 109.456 94.2559 109.988 92.6625L106.193 91.3975C105.644 93.0441 105.037 94.9859 104.373 97.2201L108.207 98.3599ZM110.09 92.03V91.94H106.09V92.03H110.09ZM110.04 92.3832C110.609 89.8802 111.498 87.206 112.718 84.3578L109.042 82.7822C107.743 85.814 106.771 88.7198 106.14 91.4968L110.04 92.3832ZM112.711 84.3755C113.365 82.8879 113.908 81.7092 114.34 80.8301C114.792 79.9105 115.071 79.431 115.198 79.2563L111.963 76.9037C111.61 77.389 111.198 78.1545 110.75 79.0649C110.283 80.0158 109.715 81.2521 109.05 82.7645L112.711 84.3755ZM114.994 79.4942C115.826 78.6628 116.553 78.2783 117.164 78.1424L116.296 74.2376C114.748 74.5817 113.375 75.4572 112.166 76.6658L114.994 79.4942ZM117.164 78.1424C118.106 77.9331 119.216 77.7942 120.507 77.7381L120.333 73.7419C118.864 73.8058 117.514 73.9669 116.296 74.2376L117.164 78.1424ZM120.42 77.74H120.69V73.74H120.42V77.74ZM120.181 77.6741L121.891 78.1241L122.909 74.2559L121.199 73.8058L120.181 77.6741ZM127.504 90.2277C126.992 91.1233 126.065 92.0796 124.559 93.0476L126.722 96.4124C128.576 95.2204 130.048 93.8367 130.977 92.2123L127.504 90.2277ZM123.802 93.9422L122.992 95.8322L126.668 97.4078L127.478 95.5178L123.802 93.9422ZM122.963 95.902C122.352 97.4909 121.772 99.1094 121.223 100.758L125.018 102.022C125.548 100.431 126.108 98.8691 126.697 97.338L122.963 95.902ZM121.223 100.758C120.699 102.328 120.118 103.869 119.478 105.381L123.162 106.939C123.843 105.331 124.461 103.692 125.018 102.022L121.223 100.758ZM119.906 107.574C120.42 108.088 120.739 108.512 120.922 108.841L124.418 106.899C124.002 106.148 123.421 105.432 122.734 104.746L119.906 107.574ZM123.987 109.375C127.548 106.26 130.739 102.204 133.584 97.2569L130.116 95.2631C127.441 99.9159 124.513 103.6 121.353 106.365L123.987 109.375ZM133.606 97.2177C134.784 95.0586 135.559 92.8574 135.898 90.6196L131.943 90.0204C131.682 91.7426 131.077 93.5014 130.094 95.3023L133.606 97.2177ZM135.888 90.6778C136.074 89.6529 136.2 88.764 136.253 88.0325C136.299 87.3828 136.313 86.5842 136.088 85.9075L132.293 87.1725C132.257 87.0654 132.27 87.0438 132.277 87.1799C132.283 87.2993 132.282 87.4838 132.263 87.7475C132.225 88.276 132.126 89.0071 131.952 89.9622L135.888 90.6778ZM136.088 85.9075C135.931 85.4367 135.66 84.8882 135.168 84.4459C134.635 83.9659 133.972 83.73 133.29 83.73V87.73C133.178 87.73 133.035 87.7112 132.88 87.6533C132.725 87.5949 132.594 87.5105 132.492 87.4191C132.301 87.2468 132.27 87.1033 132.293 87.1725L136.088 85.9075ZM133.29 83.73C132.483 83.73 131.75 83.998 131.128 84.3535L133.112 87.8265C133.33 87.702 133.378 87.73 133.29 87.73V83.73ZM131.226 84.3011C130.708 84.5599 130.223 84.8885 129.806 85.3058L132.634 88.1342C132.697 88.0714 132.812 87.9801 133.015 87.8788L131.226 84.3011ZM129.806 85.3058C129.756 85.356 129.669 85.4439 129.588 85.5409C129.575 85.5561 129.434 85.7196 129.317 85.9521C129.282 86.0233 129.224 86.1494 129.178 86.315C129.137 86.4612 129.065 86.7804 129.132 87.1817C129.21 87.6526 129.476 88.1718 129.996 88.5186C130.447 88.8195 130.89 88.855 131.108 88.855C131.51 88.855 131.81 88.7293 131.859 88.7098C131.964 88.6676 132.045 88.6249 132.086 88.6023C132.173 88.5553 132.243 88.5096 132.279 88.4853C132.359 88.4319 132.441 88.372 132.51 88.32L130.11 85.12C130.059 85.158 130.047 85.1656 130.06 85.1572C130.063 85.1554 130.105 85.1265 130.171 85.0908C130.202 85.0739 130.274 85.0353 130.373 84.9959C130.414 84.9793 130.709 84.855 131.108 84.855C131.323 84.855 131.765 84.8901 132.215 85.1904C132.734 85.5365 132.999 86.0545 133.077 86.5241C133.144 86.924 133.072 87.2414 133.032 87.3856C132.986 87.549 132.929 87.6726 132.895 87.741C132.827 87.8767 132.759 87.9724 132.734 88.007C132.702 88.0518 132.675 88.0848 132.661 88.1016C132.618 88.1536 132.595 88.174 132.634 88.1342L129.806 85.3058ZM129.783 85.4281C129.068 86.2735 128.479 87.0996 128.081 87.8956L131.659 89.6844C131.861 89.2804 132.232 88.7265 132.837 88.0119L129.783 85.4281ZM128.122 87.8187C127.63 88.7037 127.383 89.8252 127.252 90.9991L131.228 91.4409C131.337 90.4547 131.51 89.9563 131.618 89.7613L128.122 87.8187ZM171.71 76.19L171.201 78.1241L172.582 78.4876L173.374 77.2994L171.71 76.19ZM184.22 68.09L184.553 70.0622L184.56 70.0609L184.22 68.09ZM190.61 67.46L190.517 65.4622L190.515 65.4623L190.61 67.46ZM197.18 69.17L196.033 70.8085L196.046 70.8172L196.059 70.8258L197.18 69.17ZM201.32 74.03L203.15 73.2235L203.146 73.2129L203.141 73.2024L201.32 74.03ZM202.04 87.08L203.997 87.4962L203.998 87.4897L202.04 87.08ZM199.88 96.44L201.821 96.9251L201.823 96.917L199.88 96.44ZM196.1 106.43L194.318 105.523L196.1 106.43ZM189.53 115.7L188.071 114.332L189.53 115.7ZM179 122.54L178.275 120.676L178.265 120.68L179 122.54ZM172.16 123.62L172.46 121.643L172.434 121.639L172.408 121.635L172.16 123.62ZM165.86 120.11L167.746 119.444L165.855 114.085L163.973 119.448L165.86 120.11ZM162.44 130.46L160.53 129.867L160.524 129.887L160.518 129.906L162.44 130.46ZM158.3 140.54L159.39 142.217L159.813 141.942L160.055 141.5L158.3 140.54ZM153.89 142.25L153.485 140.291L153.453 140.298L153.421 140.306L153.89 142.25ZM148.76 141.98L149.433 140.097L149.403 140.086L149.372 140.076L148.76 141.98ZM145.16 138.92L146.963 138.055L146.942 138.01L146.919 137.967L145.16 138.92ZM145.7 125.6L147.594 126.243L147.595 126.239L145.7 125.6ZM149.84 114.08L151.697 114.823L151.704 114.805L151.711 114.787L149.84 114.08ZM151.82 108.86L153.687 109.578L153.696 109.555L153.704 109.533L151.82 108.86ZM152.72 106.25L150.85 105.541L150.836 105.579L150.823 105.618L152.72 106.25ZM155.6 97.79L153.683 97.2201L153.678 97.2373L153.673 97.2547L155.6 97.79ZM157.4 92.03L159.298 92.6625L159.4 92.3546V92.03H157.4ZM157.4 91.94L155.45 91.4968L155.4 91.7156V91.94H157.4ZM160.19 83.57L158.36 82.7645L158.356 82.7733L158.352 82.7822L160.19 83.57ZM162.89 78.08L161.476 76.6658L161.365 76.7767L161.273 76.9037L162.89 78.08ZM166.04 76.19L166.474 78.1424L166.04 76.19ZM169.73 75.74V73.74H169.687L169.643 73.7419L169.73 75.74ZM170 75.74L170.509 73.8058L170.259 73.74H170V75.74ZM178.55 91.22L180.287 92.2123L180.492 91.8526L180.538 91.4409L178.55 91.22ZM174.95 94.73L173.869 93.0476L173.353 93.379L173.112 93.9422L174.95 94.73ZM174.14 96.62L172.302 95.8322L172.287 95.8668L172.274 95.902L174.14 96.62ZM172.43 101.39L170.533 100.758L172.43 101.39ZM170.63 106.16L168.788 105.381L168.263 106.622L169.216 107.574L170.63 106.16ZM171.98 107.87L170.232 108.841L171.434 111.005L173.297 109.375L171.98 107.87ZM181.16 96.26L182.894 97.2569L182.905 97.2374L182.916 97.2177L181.16 96.26ZM183.23 90.32L181.263 89.9622L181.257 89.9912L181.253 90.0204L183.23 90.32ZM183.5 86.54L181.603 87.1725L181.603 87.1725L183.5 86.54ZM181.43 86.09L182.325 87.8788L182.374 87.854L182.423 87.8265L181.43 86.09ZM180.53 86.72L179.116 85.3058L179.116 85.3058L180.53 86.72ZM180.62 86.72L182.147 88.0119L179.42 85.12L180.62 86.72ZM179.18 88.79L180.929 89.7613L180.95 89.7233L180.969 89.6844L179.18 88.79ZM173.374 77.2994C176.068 73.259 179.756 70.8707 184.553 70.0622L183.888 66.1178C178.005 67.1093 173.353 70.121 170.046 75.0806L173.374 77.2994ZM184.56 70.0609C186.193 69.7794 188.236 69.5753 190.705 69.4577L190.515 65.4623C187.945 65.5847 185.728 65.8006 183.88 66.1191L184.56 70.0609ZM190.703 69.4578C192.922 69.3546 194.656 69.8446 196.033 70.8085L198.327 67.5315C196.104 65.9754 193.459 65.3254 190.517 65.4622L190.703 69.4578ZM196.059 70.8258C197.624 71.8865 198.757 73.2242 199.5 74.8576L203.141 73.2024C202.084 70.8758 200.456 68.9735 198.302 67.5142L196.059 70.8258ZM199.49 74.8365C200.83 77.8778 201.108 81.7737 200.083 86.6703L203.998 87.4897C205.133 82.0663 204.93 77.2622 203.15 73.2235L199.49 74.8365ZM200.084 86.6638C199.489 89.4596 198.774 92.5589 197.938 95.963L201.823 96.917C202.667 93.4811 203.391 90.3404 203.997 87.4962L200.084 86.6638ZM197.94 95.9549C197.139 99.159 195.934 102.348 194.318 105.523L197.883 107.337C199.626 103.912 200.942 100.441 201.821 96.9251L197.94 95.9549ZM194.318 105.523C192.729 108.644 190.651 111.581 188.071 114.332L190.989 117.068C193.81 114.059 196.112 110.816 197.883 107.337L194.318 105.523ZM188.071 114.332C185.608 116.959 182.365 119.086 178.275 120.676L179.725 124.404C184.276 122.634 188.052 120.201 190.989 117.068L188.071 114.332ZM178.265 120.68C175.893 121.618 173.981 121.873 172.46 121.643L171.861 125.597C174.299 125.967 176.948 125.502 179.736 124.4L178.265 120.68ZM172.408 121.635C170.581 121.407 169.445 121.058 168.821 120.707L166.86 124.193C168.156 124.922 169.9 125.353 171.912 125.605L172.408 121.635ZM168.821 120.707C168.275 120.4 167.942 119.998 167.746 119.444L163.974 120.776C164.499 122.262 165.486 123.42 166.86 124.193L168.821 120.707ZM163.973 119.448C162.765 122.891 161.617 126.364 160.53 129.867L164.35 131.053C165.423 127.596 166.556 124.169 167.748 120.772L163.973 119.448ZM160.518 129.906C159.538 133.307 158.214 136.531 156.546 139.58L160.055 141.5C161.867 138.189 163.302 134.693 164.362 131.014L160.518 129.906ZM157.21 138.863C156.263 139.479 155.038 139.97 153.485 140.291L154.296 144.209C156.223 143.81 157.938 143.161 159.39 142.217L157.21 138.863ZM153.421 140.306C152.058 140.635 150.745 140.565 149.433 140.097L148.088 143.863C150.136 144.595 152.243 144.705 154.36 144.194L153.421 140.306ZM149.372 140.076C148.18 139.693 147.43 139.027 146.963 138.055L143.357 139.785C144.331 141.813 145.981 143.187 148.148 143.884L149.372 140.076ZM146.919 137.967C146.307 136.838 145.99 135.579 145.99 134.15H141.99C141.99 136.201 142.453 138.122 143.402 139.873L146.919 137.967ZM145.99 134.15C145.99 132.111 146.492 129.491 147.594 126.243L143.806 124.957C142.629 128.429 141.99 131.509 141.99 134.15H145.99ZM147.595 126.239C149.271 121.271 150.638 117.472 151.697 114.823L147.983 113.337C146.883 116.088 145.489 119.969 143.805 124.961L147.595 126.239ZM151.711 114.787C152.732 112.085 153.39 110.351 153.687 109.578L149.954 108.142C149.651 108.929 148.989 110.675 147.969 113.373L151.711 114.787ZM153.704 109.533C154.009 108.679 154.313 107.795 154.618 106.882L150.823 105.618C150.527 106.505 150.232 107.361 149.937 108.187L153.704 109.533ZM154.59 106.959C155.92 103.454 156.904 100.57 157.527 98.3253L153.673 97.2547C153.097 99.3302 152.161 102.086 150.85 105.541L154.59 106.959ZM157.517 98.3599C158.173 96.1541 158.767 94.2559 159.298 92.6625L155.503 91.3975C154.954 93.0441 154.347 94.9859 153.683 97.2201L157.517 98.3599ZM159.4 92.03V91.94H155.4V92.03H159.4ZM159.351 92.3832C159.919 89.8802 160.808 87.206 162.029 84.3578L158.352 82.7822C157.053 85.814 156.081 88.7198 155.45 91.4968L159.351 92.3832ZM162.021 84.3755C162.675 82.8879 163.218 81.7092 163.65 80.8301C164.102 79.9105 164.381 79.431 164.508 79.2563L161.273 76.9037C160.92 77.389 160.508 78.1545 160.061 79.0649C159.593 80.0158 159.025 81.2521 158.36 82.7645L162.021 84.3755ZM164.305 79.4942C165.136 78.6628 165.863 78.2783 166.474 78.1424L165.606 74.2376C164.058 74.5817 162.685 75.4572 161.476 76.6658L164.305 79.4942ZM166.474 78.1424C167.416 77.9331 168.527 77.7942 169.817 77.7381L169.643 73.7419C168.174 73.8058 166.825 73.9669 165.606 74.2376L166.474 78.1424ZM169.73 77.74H170V73.74H169.73V77.74ZM169.491 77.6741L171.201 78.1241L172.219 74.2559L170.509 73.8058L169.491 77.6741ZM176.814 90.2277C176.302 91.1233 175.375 92.0796 173.869 93.0476L176.032 96.4124C177.886 95.2204 179.359 93.8367 180.287 92.2123L176.814 90.2277ZM173.112 93.9422L172.302 95.8322L175.979 97.4078L176.789 95.5178L173.112 93.9422ZM172.274 95.902C171.663 97.4909 171.082 99.1094 170.533 100.758L174.328 102.022C174.858 100.431 175.418 98.8691 176.007 97.338L172.274 95.902ZM170.533 100.758C170.009 102.328 169.428 103.869 168.788 105.381L172.472 106.939C173.153 105.331 173.771 103.692 174.328 102.022L170.533 100.758ZM169.216 107.574C169.73 108.088 170.049 108.512 170.232 108.841L173.729 106.899C173.312 106.148 172.731 105.432 172.045 104.746L169.216 107.574ZM173.297 109.375C176.858 106.26 180.05 102.204 182.894 97.2569L179.426 95.2631C176.751 99.9159 173.823 103.6 170.663 106.365L173.297 109.375ZM182.916 97.2177C184.094 95.0586 184.869 92.8574 185.208 90.6196L181.253 90.0204C180.992 91.7426 180.387 93.5014 179.405 95.3023L182.916 97.2177ZM185.198 90.6778C185.384 89.6529 185.51 88.764 185.563 88.0325C185.609 87.3828 185.623 86.5842 185.398 85.9075L181.603 87.1725C181.567 87.0654 181.58 87.0438 181.587 87.1799C181.593 87.2993 181.592 87.4838 181.573 87.7475C181.535 88.276 181.436 89.0071 181.263 89.9622L185.198 90.6778ZM185.398 85.9075C185.241 85.4367 184.97 84.8882 184.478 84.4459C183.945 83.9659 183.282 83.73 182.6 83.73V87.73C182.488 87.73 182.345 87.7112 182.191 87.6533C182.035 87.5949 181.904 87.5105 181.802 87.4191C181.611 87.2468 181.58 87.1033 181.603 87.1725L185.398 85.9075ZM182.6 83.73C181.793 83.73 181.06 83.998 180.438 84.3535L182.423 87.8265C182.64 87.702 182.688 87.73 182.6 87.73V83.73ZM180.536 84.3011C180.018 84.5599 179.533 84.8885 179.116 85.3058L181.945 88.1342C182.007 88.0714 182.122 87.9801 182.325 87.8788L180.536 84.3011ZM179.116 85.3058C179.066 85.356 178.979 85.4439 178.898 85.5409C178.886 85.5561 178.744 85.7196 178.628 85.9521C178.592 86.0233 178.534 86.1494 178.488 86.315C178.447 86.4612 178.375 86.7804 178.442 87.1817C178.52 87.6526 178.786 88.1718 179.306 88.5186C179.758 88.8195 180.201 88.855 180.418 88.855C180.821 88.855 181.12 88.7293 181.169 88.7098C181.274 88.6676 181.355 88.6249 181.397 88.6023C181.483 88.5553 181.553 88.5096 181.589 88.4853C181.669 88.4319 181.751 88.372 181.82 88.32L179.42 85.12C179.37 85.158 179.358 85.1656 179.37 85.1572C179.373 85.1554 179.416 85.1265 179.481 85.0908C179.512 85.0739 179.585 85.0353 179.683 84.9959C179.725 84.9793 180.019 84.855 180.418 84.855C180.633 84.855 181.075 84.8901 181.525 85.1904C182.044 85.5365 182.309 86.0545 182.387 86.5241C182.454 86.924 182.382 87.2414 182.342 87.3856C182.297 87.549 182.239 87.6726 182.205 87.741C182.137 87.8767 182.069 87.9724 182.044 88.007C182.012 88.0518 181.985 88.0848 181.971 88.1016C181.928 88.1536 181.905 88.174 181.945 88.1342L179.116 85.3058ZM179.094 85.4281C178.378 86.2735 177.789 87.0996 177.391 87.8956L180.969 89.6844C181.171 89.2804 181.542 88.7265 182.147 88.0119L179.094 85.4281ZM177.432 87.8187C176.94 88.7037 176.693 89.8252 176.563 90.9991L180.538 91.4409C180.648 90.4547 180.82 89.9563 180.929 89.7613L177.432 87.8187ZM248.11 103.37H250.11V103.299L250.105 103.228L248.11 103.37ZM249.28 111.65H251.28V111.325L251.178 111.018L249.28 111.65ZM247.93 115.7L246.621 114.189L246.593 114.213L246.566 114.238L247.93 115.7ZM244.51 116.96V114.96H244.465L244.42 114.962L244.51 116.96ZM240.28 116.15L241.023 114.293L240.991 114.28L240.958 114.268L240.28 116.15ZM236.41 114.08L235.139 115.624L235.161 115.642L235.183 115.659L236.41 114.08ZM234.43 112.1L232.682 113.071L232.707 113.116L232.734 113.16L234.43 112.1ZM232.99 109.76L231.035 110.181L231.112 110.539L231.311 110.847L232.99 109.76ZM231.55 100.49L229.552 100.407L231.55 100.49ZM231.91 96.8L233.88 97.1476L234.585 93.1552L230.988 95.0256L231.91 96.8ZM225.7 100.85L227.115 102.264L225.7 100.85ZM220.39 108.95L218.557 108.15L218.464 108.363L218.423 108.592L220.39 108.95ZM219.22 113.09L218.478 111.233L218.329 111.293L218.191 111.375L219.22 113.09ZM218.05 113.45L218.299 115.435L218.05 113.45ZM216.52 114.08L217.63 115.744L216.52 114.08ZM214.99 114.98L215.885 116.769L214.99 114.98ZM213.55 115.7L212.656 113.911L212.601 113.938L212.548 113.969L213.55 115.7ZM211.3 116.69V114.69H210.992L210.698 114.783L211.3 116.69ZM201.49 115.25L200.364 116.902L200.38 116.913L200.396 116.924L201.49 115.25ZM198.43 111.83L196.642 112.724L196.649 112.74L196.657 112.755L198.43 111.83ZM197.89 107.24L195.942 106.787L195.94 106.797L195.938 106.806L197.89 107.24ZM208.51 73.31L206.649 72.5782L206.648 72.5823L208.51 73.31ZM216.43 56.66L214.734 55.6L214.729 55.609L216.43 56.66ZM218.23 53.6L216.503 52.5923L216.492 52.6104L216.482 52.6287L218.23 53.6ZM220.84 49.19L222.544 50.2382L223.062 49.3955L222.707 48.472L220.84 49.19ZM220.84 45.14L219.088 44.1762L219.079 44.1923L219.071 44.2085L220.84 45.14ZM223.72 42.35L224.648 44.1217L224.663 44.1138L224.678 44.1058L223.72 42.35ZM232.99 40.82L233.287 38.8421L233.258 38.8378L233.229 38.8342L232.99 40.82ZM238.75 45.05L240.648 45.6825L240.785 45.2715L240.739 44.8406L238.75 45.05ZM237.22 48.92L235.39 48.1145L235.376 48.1456L235.364 48.1772L237.22 48.92ZM235.33 53.51L233.489 52.7307L233.481 52.7489L233.474 52.7672L235.33 53.51ZM233.53 57.74L231.71 56.9124L231.694 56.9473L231.679 56.9827L233.53 57.74ZM232.27 60.71L230.45 59.8824L230.431 59.9244L230.414 59.9672L232.27 60.71ZM231.1 63.95L229.211 63.2958L229.203 63.318L229.196 63.3404L231.1 63.95ZM229.48 68.9L227.583 68.2675L227.577 68.2873L227.57 68.3072L229.48 68.9ZM227.95 73.76L229.842 74.4086L229.849 74.3892L229.855 74.3695L227.95 73.76ZM226.87 76.91L224.979 76.2614L224.962 76.3105L224.947 76.3606L226.87 76.91ZM225.7 80.78L227.605 81.392L227.608 81.3824L227.611 81.3728L225.7 80.78ZM223.99 87.08L222.045 86.6168L220.738 92.1051L225.21 88.6652L223.99 87.08ZM225.88 85.01L224.198 83.9285L224.187 83.945L224.177 83.9618L225.88 85.01ZM228.13 82.22L226.716 80.8058L226.695 80.8272L226.674 80.8493L228.13 82.22ZM232 79.25L233.049 80.9533L233.057 80.9479L233.066 80.9425L232 79.25ZM237.13 77.27L237.459 79.2428L237.464 79.242L237.13 77.27ZM247.75 81.05L249.165 79.6358L247.75 81.05ZM250 91.85L248.035 91.4814L248.033 91.4922L250 91.85ZM248.65 97.88L246.717 97.3682L246.712 97.3885L246.707 97.4088L248.65 97.88ZM246.11 103.37C246.11 106.706 246.519 109.689 247.383 112.282L251.178 111.018C250.482 108.931 250.11 106.394 250.11 103.37H246.11ZM247.28 111.65C247.28 113.338 246.874 113.969 246.621 114.189L249.24 117.211C250.787 115.871 251.28 113.802 251.28 111.65H247.28ZM246.566 114.238C246.082 114.69 245.45 114.96 244.51 114.96V118.96C246.331 118.96 247.979 118.39 249.295 117.162L246.566 114.238ZM244.42 114.962C243.44 115.007 242.316 114.81 241.023 114.293L239.538 118.007C241.245 118.69 242.94 119.033 244.601 118.958L244.42 114.962ZM240.958 114.268C239.624 113.788 238.527 113.193 237.638 112.501L235.183 115.659C236.454 116.647 237.937 117.432 239.603 118.032L240.958 114.268ZM237.682 112.536C236.666 111.699 236.237 111.217 236.126 111.04L232.734 113.16C233.224 113.943 234.115 114.781 235.139 115.624L237.682 112.536ZM236.179 111.129C235.845 110.528 235.335 109.703 234.67 108.674L231.311 110.847C231.965 111.857 232.416 112.592 232.682 113.071L236.179 111.129ZM234.946 109.339C234.44 106.989 234.074 105.073 233.842 103.581C233.604 102.051 233.527 101.084 233.549 100.573L229.552 100.407C229.513 101.336 229.647 102.634 229.889 104.194C230.137 105.792 230.521 107.791 231.035 110.181L234.946 109.339ZM233.549 100.573C233.606 99.1904 233.72 98.0538 233.88 97.1476L229.941 96.4524C229.741 97.5862 229.615 98.9096 229.552 100.407L233.549 100.573ZM230.988 95.0256C227.96 96.5999 225.656 98.0657 224.286 99.4358L227.115 102.264C228.025 101.354 229.861 100.12 232.833 98.5744L230.988 95.0256ZM224.286 99.4358C221.976 101.746 220.077 104.668 218.557 108.15L222.224 109.75C223.584 106.632 225.225 104.154 227.115 102.264L224.286 99.4358ZM218.423 108.592C218.186 109.893 217.982 110.824 217.813 111.421C217.727 111.727 217.668 111.879 217.645 111.928C217.633 111.954 217.658 111.893 217.731 111.795C217.778 111.731 218.011 111.42 218.478 111.233L219.963 114.947C220.505 114.73 220.816 114.35 220.944 114.177C221.097 113.97 221.205 113.761 221.279 113.6C221.429 113.274 221.554 112.893 221.663 112.509C221.884 111.726 222.115 110.647 222.358 109.308L218.423 108.592ZM218.191 111.375C218.203 111.368 218.105 111.428 217.802 111.465L218.299 115.435C218.956 115.352 219.638 115.172 220.249 114.805L218.191 111.375ZM217.802 111.465C216.928 111.575 216.125 111.94 215.411 112.416L217.63 115.744C217.996 115.5 218.213 115.445 218.299 115.435L217.802 111.465ZM215.411 112.416C214.926 112.739 214.488 112.995 214.096 113.191L215.885 116.769C216.452 116.485 217.035 116.141 217.63 115.744L215.411 112.416ZM214.096 113.191C213.616 113.431 213.136 113.671 212.656 113.911L214.445 117.489C214.925 117.249 215.405 117.009 215.885 116.769L214.096 113.191ZM212.548 113.969C212.009 114.282 211.607 114.489 211.327 114.612C211.188 114.673 211.107 114.701 211.074 114.711C211.022 114.726 211.117 114.69 211.3 114.69V118.69C211.937 118.69 212.553 118.443 212.938 118.273C213.409 118.066 213.952 117.778 214.553 117.431L212.548 113.969ZM210.698 114.783C207.876 115.674 205.226 115.303 202.585 113.576L200.396 116.924C203.995 119.277 207.885 119.866 211.903 118.597L210.698 114.783ZM202.617 113.598C201.562 112.878 200.767 111.985 200.204 110.905L196.657 112.755C197.534 114.435 198.779 115.822 200.364 116.902L202.617 113.598ZM200.219 110.936C199.712 109.92 199.579 108.86 199.843 107.674L195.938 106.806C195.482 108.86 195.709 110.86 196.642 112.724L200.219 110.936ZM199.839 107.693C202.395 96.6939 205.905 85.4757 210.373 74.0377L206.648 72.5823C202.116 84.1843 198.546 95.5861 195.942 106.787L199.839 107.693ZM210.372 74.0418C213.11 67.0775 215.7 61.6492 218.132 57.711L214.729 55.609C212.121 59.8308 209.431 65.5025 206.649 72.5782L210.372 74.0418ZM218.126 57.72C218.746 56.7284 219.364 55.6786 219.979 54.5713L216.482 52.6287C215.897 53.6814 215.315 54.6716 214.734 55.6L218.126 57.72ZM219.958 54.6077C221.219 52.4458 222.078 50.9953 222.544 50.2382L219.137 48.1418C218.643 48.9447 217.762 50.4342 216.503 52.5923L219.958 54.6077ZM222.707 48.472C222.249 47.2796 222.354 46.5593 222.61 46.0715L219.071 44.2085C218.127 46.0007 218.232 47.9804 218.974 49.908L222.707 48.472ZM222.593 46.1038C223.056 45.2621 223.723 44.6067 224.648 44.1217L222.792 40.5783C221.198 41.4133 219.945 42.6179 219.088 44.1762L222.593 46.1038ZM224.678 44.1058C225.763 43.5139 227.03 43.1004 228.503 42.8899L227.938 38.9301C226.051 39.1996 224.318 39.746 222.763 40.5942L224.678 44.1058ZM228.503 42.8899C230.032 42.6716 231.445 42.6489 232.752 42.8057L233.229 38.8342C231.536 38.6311 229.769 38.6684 227.938 38.9301L228.503 42.8899ZM232.694 42.7979C234.327 43.0429 235.351 43.4567 235.947 43.8945C236.473 44.2809 236.703 44.7037 236.761 45.2594L240.739 44.8406C240.558 43.1163 239.708 41.6941 238.314 40.6705C236.99 39.6983 235.253 39.1371 233.287 38.8421L232.694 42.7979ZM236.853 44.4175C236.519 45.4196 236.035 46.6489 235.39 48.1145L239.051 49.7255C239.726 48.1911 240.262 46.8404 240.648 45.6825L236.853 44.4175ZM235.364 48.1772C234.769 49.6644 234.144 51.1823 233.489 52.7307L237.172 54.2893C237.837 52.7177 238.472 51.1756 239.077 49.6628L235.364 48.1772ZM233.474 52.7672C232.884 54.2418 232.296 55.6233 231.71 56.9124L235.351 58.5676C235.965 57.2167 236.577 55.7782 237.187 54.2528L233.474 52.7672ZM231.679 56.9827C231.142 58.297 230.733 59.2583 230.45 59.8824L234.091 61.5376C234.408 60.8417 234.839 59.823 235.382 58.4973L231.679 56.9827ZM230.414 59.9672C230.154 60.6165 229.75 61.7378 229.211 63.2958L232.99 64.6042C233.531 63.0422 233.907 62.0035 234.127 61.4528L230.414 59.9672ZM229.196 63.3404C228.719 64.8314 228.181 66.4737 227.583 68.2675L231.378 69.5325C231.98 67.7263 232.522 66.0686 233.005 64.5596L229.196 63.3404ZM227.57 68.3072C227.032 70.0424 226.524 71.6568 226.046 73.1504L229.855 74.3695C230.337 72.8632 230.849 71.2375 231.391 69.4928L227.57 68.3072ZM226.059 73.1114L224.979 76.2614L228.762 77.5586L229.842 74.4086L226.059 73.1114ZM224.947 76.3606C224.714 77.1776 224.33 78.4497 223.79 80.1872L227.611 81.3728C228.151 79.6303 228.547 78.3223 228.794 77.4594L224.947 76.3606ZM223.796 80.168C223.235 81.9139 222.652 84.0675 222.045 86.6168L225.936 87.5432C226.529 85.0525 227.086 83.0061 227.605 81.392L223.796 80.168ZM225.21 88.6652C226.168 87.9282 226.967 87.0601 227.584 86.0582L224.177 83.9618C223.834 84.5199 223.373 85.0318 222.771 85.4948L225.21 88.6652ZM227.563 86.0915C228.016 85.3865 228.68 84.5541 229.587 83.5907L226.674 80.8493C225.661 81.9259 224.825 82.9535 224.198 83.9285L227.563 86.0915ZM229.545 83.6342C230.429 82.7494 231.588 81.8524 233.049 80.9533L230.952 77.5467C229.293 78.5676 227.871 79.6506 226.716 80.8058L229.545 83.6342ZM233.066 80.9425C234.473 80.0568 235.934 79.497 237.459 79.2428L236.802 75.2972C234.727 75.643 232.768 76.4032 230.935 77.5575L233.066 80.9425ZM237.464 79.242C240.631 78.7061 243.542 79.6698 246.336 82.4642L249.165 79.6358C245.599 76.0702 241.43 74.5139 236.797 75.298L237.464 79.242ZM246.336 82.4642C248.086 84.214 248.87 87.0252 248.035 91.4814L251.966 92.2186C252.931 87.0748 252.215 82.686 249.165 79.6358L246.336 82.4642ZM248.033 91.4922C247.683 93.418 247.244 95.3766 246.717 97.3682L250.584 98.3918C251.137 96.3034 251.598 94.242 251.968 92.2078L248.033 91.4922ZM246.707 97.4088C246.188 99.5489 245.978 101.589 246.116 103.512L250.105 103.228C250.003 101.791 250.153 100.171 250.594 98.3512L246.707 97.4088ZM260.784 74.03L262.454 75.1306L262.569 74.9568L262.645 74.763L260.784 74.03ZM266.364 69.98L266.84 71.9226L266.855 71.919L266.869 71.9152L266.364 69.98ZM274.104 70.25L274.831 68.3868L274.819 68.382L274.807 68.3773L274.104 70.25ZM277.434 74.93L279.342 75.5296L279.401 75.3441L279.422 75.1509L277.434 74.93ZM274.914 82.67L273.017 82.0375L273.013 82.049L273.009 82.0604L274.914 82.67ZM272.124 91.94L274.043 92.5043L274.046 92.4945L274.049 92.4846L272.124 91.94ZM267.984 109.22L269.957 109.549L269.967 109.491L269.973 109.433L267.984 109.22ZM263.484 117.95L263.092 115.989L263.484 117.95ZM261.774 118.22L261.865 120.218L261.93 120.215L261.995 120.208L261.774 118.22ZM259.254 119.3L257.499 118.342L259.254 119.3ZM257.454 120.74L256.782 118.857L256.723 118.877L256.666 118.902L257.454 120.74ZM254.664 121.19L254.782 119.193L254.723 119.19H254.664V121.19ZM251.694 120.47L252.546 118.66L252.501 118.639L252.456 118.621L251.694 120.47ZM249.084 118.58L247.54 119.851L247.553 119.867L247.566 119.882L249.084 118.58ZM248.094 110.39L250.011 110.962L250.052 110.823L250.073 110.68L248.094 110.39ZM255.384 85.46L257.25 86.1817L257.254 86.1707L257.258 86.1598L255.384 85.46ZM277.794 60.53L278.194 62.4896L278.387 62.4502L278.569 62.374L277.794 60.53ZM270.594 59.99L269.653 61.7547L269.665 61.7611L269.677 61.7672L270.594 59.99ZM267.444 56.57L265.49 56.9949L265.492 57.0041L265.494 57.0132L267.444 56.57ZM268.704 52.34L270.272 53.5814L270.295 53.5525L270.317 53.5227L268.704 52.34ZM274.644 48.83L274.445 46.8399L274.344 46.8501L274.243 46.8706L274.644 48.83ZM279.234 49.01L278.646 50.9216L278.845 50.9829L279.053 51.0018L279.234 49.01ZM283.104 51.62L281.238 52.338L281.309 52.5248L281.417 52.6937L283.104 51.62ZM283.284 56.12L281.446 55.3322L281.434 55.3602L281.423 55.3887L283.284 56.12ZM262.645 74.763C263.097 73.6164 264.246 72.5579 266.84 71.9226L265.889 68.0374C262.603 68.8421 260.032 70.4836 258.923 73.2969L262.645 74.763ZM266.869 71.9152C269.277 71.2871 271.431 71.3837 273.402 72.1227L274.807 68.3773C271.977 67.3163 268.972 67.2329 265.859 68.0448L266.869 71.9152ZM273.377 72.1132C274.377 72.5034 274.894 72.9362 275.152 73.2995C275.384 73.6247 275.52 74.047 275.447 74.7091L279.422 75.1509C279.589 73.653 279.29 72.2153 278.411 70.9805C277.56 69.7838 276.291 68.9566 274.831 68.3868L273.377 72.1132ZM275.526 74.3303C274.871 76.4156 274.035 78.9839 273.017 82.0375L276.812 83.3025C277.834 80.2361 278.678 77.6444 279.342 75.5296L275.526 74.3303ZM273.009 82.0604C272.042 85.083 271.106 88.1947 270.2 91.3954L274.049 92.4846C274.943 89.3253 275.866 86.257 276.819 83.2795L273.009 82.0604ZM270.206 91.3757C267.807 99.5294 266.377 105.447 265.996 109.007L269.973 109.433C270.311 106.273 271.641 100.671 274.043 92.5043L270.206 91.3757ZM266.012 108.891C265.576 111.504 265.019 113.348 264.407 114.536C263.785 115.741 263.285 115.95 263.092 115.989L263.877 119.911C265.784 119.53 267.083 118.074 267.962 116.369C268.85 114.647 269.493 112.336 269.957 109.549L266.012 108.891ZM263.092 115.989C262.542 116.099 262.029 116.179 261.553 116.232L261.995 120.208C262.599 120.141 263.227 120.041 263.877 119.911L263.092 115.989ZM261.683 116.222C260.196 116.29 258.387 116.713 257.499 118.342L261.01 120.258C260.932 120.401 260.843 120.416 260.942 120.373C261.066 120.32 261.347 120.241 261.865 120.218L261.683 116.222ZM257.499 118.342C257.416 118.493 257.25 118.689 256.782 118.857L258.127 122.623C259.338 122.191 260.372 121.427 261.01 120.258L257.499 118.342ZM256.666 118.902C256.144 119.126 255.529 119.237 254.782 119.193L254.547 123.187C255.84 123.263 257.085 123.074 258.242 122.578L256.666 118.902ZM254.664 119.19C254.046 119.19 253.346 119.037 252.546 118.66L250.843 122.28C252.083 122.863 253.363 123.19 254.664 123.19V119.19ZM252.456 118.621C251.729 118.321 251.118 117.879 250.603 117.278L247.566 119.882C248.491 120.961 249.62 121.779 250.933 122.319L252.456 118.621ZM250.628 117.309C249.512 115.953 249.108 113.99 250.011 110.962L246.178 109.818C245.041 113.63 245.296 117.127 247.54 119.851L250.628 117.309ZM250.073 110.68C251.002 104.351 253.374 96.1984 257.25 86.1817L253.519 84.7383C249.595 94.8816 247.106 103.349 246.116 110.1L250.073 110.68ZM257.258 86.1598C259.096 81.2392 260.834 77.5889 262.454 75.1306L259.114 72.9294C257.255 75.7511 255.393 79.7208 253.511 84.7602L257.258 86.1598ZM277.394 58.5704C274.712 59.1178 272.823 58.8895 271.512 58.2128L269.677 61.7672C272.086 63.0105 274.996 63.1422 278.194 62.4896L277.394 58.5704ZM271.535 58.2253C269.986 57.3987 269.512 56.6441 269.395 56.1268L265.494 57.0132C265.976 59.1359 267.603 60.6613 269.653 61.7547L271.535 58.2253ZM269.399 56.1451C269.262 55.5166 269.384 54.7038 270.272 53.5814L267.136 51.0986C265.745 52.8562 265.027 54.8634 265.49 56.9949L269.399 56.1451ZM270.317 53.5227C271.285 52.2026 272.785 51.2516 275.045 50.7894L274.243 46.8706C271.223 47.4884 268.763 48.8774 267.091 51.1573L270.317 53.5227ZM274.843 50.8201C276.037 50.7007 276.822 50.65 277.254 50.65V46.65C276.607 46.65 275.651 46.7193 274.445 46.8399L274.843 50.8201ZM277.254 50.65C277.521 50.65 277.97 50.7135 278.646 50.9216L279.822 47.0984C278.939 46.8265 278.068 46.65 277.254 46.65V50.65ZM279.053 51.0018C279.799 51.0696 280.27 51.2543 280.569 51.4556C280.848 51.6441 281.073 51.9107 281.238 52.338L284.971 50.902C284.535 49.7693 283.816 48.8209 282.805 48.1394C281.814 47.4707 280.65 47.1304 279.415 47.0182L279.053 51.0018ZM281.417 52.6937C281.839 53.3562 281.956 54.1417 281.446 55.3322L285.123 56.9078C286.052 54.7383 286.05 52.5238 284.792 50.5462L281.417 52.6937ZM281.423 55.3887C281.069 56.2891 279.888 57.4813 277.02 58.686L278.569 62.374C281.7 61.0587 284.18 59.3109 285.146 56.8513L281.423 55.3887ZM283.58 75.74L281.716 75.0151L281.68 75.1095L281.653 75.2071L283.58 75.74ZM287.09 70.88L288.259 72.5031L288.27 72.4948L287.09 70.88ZM291.5 68.81L291.843 70.7804L291.876 70.7747L291.908 70.768L291.5 68.81ZM295.01 69.26L293.901 70.9241L293.925 70.9404L293.95 70.956L295.01 69.26ZM296 72.05L294.055 71.5868L292.418 78.4607L297.415 73.4642L296 72.05ZM300.95 68.9L301.763 70.7276L300.95 68.9ZM306.08 66.92L305.531 64.9969L306.08 66.92ZM309.32 66.38L309.441 64.3837L309.381 64.38H309.32V66.38ZM311.03 69.62L309.181 68.8585L308.234 71.1575L310.683 71.5896L311.03 69.62ZM313.28 71.6L311.437 72.3761V72.3761L313.28 71.6ZM311.03 79.43L309.584 78.049L311.03 79.43ZM305.9 82.13L305.466 80.1776L305.455 80.1803L305.9 82.13ZM300.59 85.46L299.049 84.1849L299.045 84.1905L300.59 85.46ZM296.9 91.76L295.062 90.9722L295.058 90.9816L296.9 91.76ZM292.04 109.85L290.074 109.487L290.071 109.501L290.069 109.514L292.04 109.85ZM286.19 116.96L285.211 115.216L285.203 115.221L285.195 115.225L286.19 116.96ZM277.28 118.58L277.835 116.659L277.823 116.655L277.81 116.651L277.28 118.58ZM273.23 111.83L275.221 112.026L275.226 111.974L275.228 111.923L273.23 111.83ZM275.57 101.57L277.465 102.21L277.468 102.202L275.57 101.57ZM278.9 91.85L280.781 92.5293L280.784 92.5211L280.787 92.513L278.9 91.85ZM280.52 86.81L278.593 86.2771L278.589 86.2891L278.586 86.301L280.52 86.81ZM285.444 76.4649C286.18 74.5739 287.144 73.306 288.259 72.5031L285.922 69.2569C284.037 70.6139 282.661 72.5861 281.716 75.0151L285.444 76.4649ZM288.27 72.4948C289.671 71.4712 290.858 70.9517 291.843 70.7804L291.158 66.8396C289.382 67.1483 287.63 68.0088 285.91 69.2652L288.27 72.4948ZM291.908 70.768C293.018 70.5368 293.589 70.7159 293.901 70.9241L296.12 67.5959C294.632 66.6041 292.863 66.4832 291.092 66.852L291.908 70.768ZM293.95 70.956C294.037 71.0099 294.072 71.0484 294.083 71.0611C294.092 71.0712 294.092 71.0735 294.093 71.0763C294.094 71.0802 294.143 71.2168 294.055 71.5868L297.946 72.5132C298.158 71.6232 298.191 70.6648 297.863 69.7387C297.525 68.7865 296.874 68.0664 296.07 67.564L293.95 70.956ZM297.415 73.4642C298.32 72.5587 299.732 71.6302 301.763 70.7276L300.138 67.0724C297.849 68.0898 295.961 69.2613 294.586 70.6358L297.415 73.4642ZM301.763 70.7276C303.893 69.7806 305.504 69.1648 306.63 68.843L305.531 64.9969C304.137 65.3952 302.327 66.0994 300.138 67.0724L301.763 70.7276ZM306.63 68.843C307.785 68.5131 308.67 68.38 309.32 68.38V64.38C308.171 64.38 306.896 64.6069 305.531 64.9969L306.63 68.843ZM309.199 68.3763C309.537 68.3968 309.673 68.452 309.689 68.4596C309.691 68.4605 309.656 68.4443 309.606 68.3988C309.554 68.3513 309.503 68.2878 309.464 68.2135C309.383 68.0602 309.413 67.9832 309.403 68.0976C309.393 68.2211 309.343 68.466 309.181 68.8585L312.88 70.3815C313.355 69.2278 313.721 67.7093 313.002 66.3465C312.224 64.8725 310.676 64.4585 309.441 64.3837L309.199 68.3763ZM310.683 71.5896C310.896 71.6272 311.161 71.7213 311.437 72.3761L315.124 70.8239C314.439 69.1987 313.204 67.9728 311.378 67.6504L310.683 71.5896ZM311.437 72.3761C311.721 73.0506 311.792 73.8527 311.525 74.8752L315.396 75.8848C315.849 74.1473 315.8 72.4294 315.124 70.8239L311.437 72.3761ZM311.525 74.8752C311.272 75.8469 310.673 76.9077 309.584 78.049L312.477 80.811C313.908 79.3123 314.929 77.6731 315.396 75.8848L311.525 74.8752ZM309.584 78.049C308.651 79.0265 307.323 79.7651 305.466 80.1776L306.334 84.0824C308.798 83.5349 310.89 82.4735 312.477 80.811L309.584 78.049ZM305.455 80.1803C302.904 80.7634 300.756 82.1232 299.05 84.1849L302.131 86.7351C303.305 85.3168 304.697 84.4566 306.346 84.0797L305.455 80.1803ZM299.045 84.1905C297.519 86.0487 296.198 88.3216 295.062 90.9722L298.739 92.5478C299.763 90.1584 300.902 88.2313 302.136 86.7295L299.045 84.1905ZM295.058 90.9816C293.176 95.4367 291.524 101.63 290.074 109.487L294.007 110.213C295.437 102.47 297.025 96.6033 298.743 92.5384L295.058 90.9816ZM290.069 109.514C289.724 111.539 288.312 113.475 285.211 115.216L287.169 118.704C290.909 116.605 293.397 113.801 294.012 110.186L290.069 109.514ZM285.195 115.225C282.264 116.908 279.86 117.243 277.835 116.659L276.725 120.501C280.101 121.477 283.637 120.732 287.186 118.695L285.195 115.225ZM277.81 116.651C276.666 116.337 276.045 115.828 275.688 115.234C275.307 114.598 275.066 113.596 275.221 112.026L271.24 111.634C271.034 113.724 271.289 115.677 272.258 117.291C273.251 118.947 274.835 119.983 276.751 120.509L277.81 116.651ZM275.228 111.923C275.335 109.618 276.048 106.404 277.465 102.21L273.676 100.93C272.213 105.256 271.365 108.882 271.232 111.737L275.228 111.923ZM277.468 102.202C278.906 97.8861 280.01 94.6652 280.781 92.5293L277.019 91.1707C276.23 93.3548 275.114 96.6139 273.673 100.938L277.468 102.202ZM280.787 92.513C281.571 90.2816 282.133 88.5398 282.454 87.319L278.586 86.301C278.307 87.3602 277.789 88.9784 277.013 91.187L280.787 92.513ZM282.448 87.3429L285.508 76.2729L281.653 75.2071L278.593 86.2771L282.448 87.3429ZM337.802 99.68L338.658 101.487L338.684 101.475L338.71 101.462L337.802 99.68ZM334.472 100.94L335.007 102.867L334.472 100.94ZM330.692 101.84L331.096 103.799L331.1 103.798L330.692 101.84ZM322.502 103.19L322.359 101.195L319.869 101.373L320.586 103.765L322.502 103.19ZM325.202 105.35L324.281 107.126L324.561 107.271L324.873 107.323L325.202 105.35ZM328.712 104.9L329.424 106.769L329.447 106.76L329.469 106.751L328.712 104.9ZM332.762 103.46L333.344 105.373L333.369 105.366L333.394 105.357L332.762 103.46ZM336.902 102.65L336.815 100.652L336.811 100.652L336.902 102.65ZM340.772 104.18L342.599 103.368L342.426 102.978L342.11 102.693L340.772 104.18ZM341.942 106.07L342.971 104.355V104.355L341.942 106.07ZM344.822 108.68L342.998 109.501L343.015 109.538L343.033 109.574L344.822 108.68ZM344.372 112.1L342.835 110.82L342.814 110.846L342.793 110.872L344.372 112.1ZM340.412 114.89L341.207 116.725L340.412 114.89ZM334.112 116.78L334.504 118.741L334.112 116.78ZM326.912 117.77L326.762 115.776L326.757 115.776L326.912 117.77ZM314.582 116.51L315.398 114.684L315.312 114.646L315.223 114.615L314.582 116.51ZM306.662 108.32L304.74 108.875L304.743 108.884L306.662 108.32ZM309.272 89.42L311.09 90.2533L311.094 90.2443L311.098 90.2353L309.272 89.42ZM316.382 78.62L317.91 79.9097L317.914 79.9057L316.382 78.62ZM325.832 71.33L326.623 73.1666L326.626 73.1654L325.832 71.33ZM338.432 68.9L338.377 70.8993L338.381 70.8993L338.432 68.9ZM348.152 75.02L349.99 74.2322L349.982 74.2122L349.973 74.1924L348.152 75.02ZM348.692 83.84L350.655 84.223L350.664 84.1731L350.672 84.1228L348.692 83.84ZM344.912 94.28L346.483 95.5177L346.492 95.5064L346.501 95.4949L344.912 94.28ZM332.582 85.46L334.497 84.8853L334.155 83.7439L332.988 83.5017L332.582 85.46ZM325.112 90.86L326.919 91.7162L326.938 91.6777L326.954 91.6384L325.112 90.86ZM323.852 94.46L321.906 93.9968L321.385 96.1836L323.618 96.4463L323.852 94.46ZM330.332 91.04L331.815 92.3818L331.846 92.3473L331.876 92.3114L330.332 91.04ZM332.222 87.98L334.071 88.7415L334.079 88.7233L334.086 88.7049L332.222 87.98ZM336.946 97.8725C335.896 98.3695 334.894 98.7471 333.936 99.013L335.007 102.867C336.21 102.533 337.427 102.07 338.658 101.487L336.946 97.8725ZM333.936 99.013C332.909 99.2983 331.693 99.5884 330.284 99.882L331.1 103.798C332.57 103.492 333.874 103.182 335.007 102.867L333.936 99.013ZM330.288 99.8813C326.513 100.66 323.896 101.085 322.359 101.195L322.644 105.185C324.468 105.055 327.311 104.58 331.096 103.799L330.288 99.8813ZM320.586 103.765C320.856 104.663 321.525 105.312 322.062 105.742C322.656 106.217 323.414 106.676 324.281 107.126L326.122 103.574C325.37 103.184 324.868 102.863 324.561 102.618C324.41 102.498 324.341 102.422 324.32 102.396C324.295 102.366 324.365 102.439 324.417 102.615L320.586 103.765ZM324.873 107.323C326.376 107.573 327.908 107.346 329.424 106.769L328 103.031C326.995 103.414 326.188 103.487 325.531 103.377L324.873 107.323ZM329.469 106.751C330.731 106.235 332.023 105.776 333.344 105.373L332.179 101.547C330.741 101.984 329.332 102.485 327.955 103.049L329.469 106.751ZM333.394 105.357C334.685 104.927 335.882 104.698 336.993 104.648L336.811 100.652C335.282 100.722 333.719 101.033 332.129 101.563L333.394 105.357ZM336.989 104.648C337.757 104.615 338.553 104.874 339.434 105.667L342.11 102.693C340.591 101.326 338.806 100.565 336.815 100.652L336.989 104.648ZM338.944 104.992C339.202 105.573 339.462 106.092 339.724 106.515C339.939 106.863 340.322 107.43 340.913 107.785L342.971 104.355C343.069 104.414 343.134 104.469 343.169 104.5C343.204 104.532 343.222 104.553 343.222 104.554C343.224 104.555 343.215 104.545 343.197 104.52C343.179 104.494 343.155 104.458 343.125 104.41C342.997 104.203 342.821 103.867 342.599 103.368L338.944 104.992ZM340.913 107.785C341.39 108.071 342.02 108.34 342.752 108.34V104.34C342.882 104.34 342.97 104.364 343.002 104.375C343.032 104.385 343.023 104.386 342.971 104.355L340.913 107.785ZM342.752 108.34C342.621 108.34 342.534 108.316 342.502 108.305C342.471 108.295 342.481 108.294 342.533 108.325L344.591 104.895C344.114 104.609 343.484 104.34 342.752 104.34V108.34ZM342.533 108.325C342.331 108.204 342.246 108.088 342.268 108.116C342.277 108.126 342.319 108.18 342.393 108.302C342.542 108.547 342.744 108.936 342.998 109.501L346.646 107.859C346.36 107.224 346.081 106.668 345.81 106.223C345.598 105.874 345.202 105.262 344.591 104.895L342.533 108.325ZM343.033 109.574C343.185 109.878 343.191 110.063 343.176 110.174C343.161 110.293 343.097 110.505 342.835 110.82L345.908 113.38C346.546 112.615 347.008 111.717 347.142 110.696C347.278 109.667 347.059 108.682 346.611 107.786L343.033 109.574ZM342.793 110.872C342.229 111.597 341.234 112.354 339.617 113.055L341.207 116.725C343.19 115.866 344.834 114.763 345.951 113.328L342.793 110.872ZM339.617 113.055C337.973 113.767 336.014 114.36 333.72 114.819L334.504 118.741C337.01 118.24 339.25 117.573 341.207 116.725L339.617 113.055ZM333.72 114.819C331.398 115.283 329.079 115.602 326.762 115.776L327.061 119.764C329.544 119.578 332.025 119.237 334.504 118.741L333.72 114.819ZM326.757 115.776C321.473 116.187 317.763 115.741 315.398 114.684L313.766 118.336C317.041 119.799 321.551 120.193 327.067 119.764L326.757 115.776ZM315.223 114.615C311.75 113.441 309.594 111.201 308.581 107.756L304.743 108.884C306.13 113.599 309.253 116.819 313.941 118.405L315.223 114.615ZM308.583 107.765C307.202 102.983 307.909 97.1943 311.09 90.2533L307.454 88.5867C304.035 96.0457 303.002 102.857 304.74 108.875L308.583 107.765ZM311.098 90.2353C312.499 87.0962 314.75 83.6548 317.91 79.9097L314.853 77.3303C311.533 81.2652 309.044 85.0238 307.445 88.6047L311.098 90.2353ZM317.914 79.9057C320.565 76.7469 323.472 74.5251 326.623 73.1666L325.04 69.4934C321.232 71.1349 317.839 73.7731 314.85 77.3343L317.914 79.9057ZM326.626 73.1654C330.378 71.5414 334.289 70.7872 338.377 70.8993L338.487 66.9007C333.815 66.7728 329.325 67.6386 325.037 69.4946L326.626 73.1654ZM338.381 70.8993C340.441 70.9522 342.052 71.4226 343.306 72.2125C344.552 72.9968 345.57 74.1736 346.331 75.8476L349.973 74.1924C348.933 71.9064 347.432 70.0832 345.437 68.8275C343.452 67.5774 341.103 66.9678 338.483 66.9007L338.381 70.8993ZM346.314 75.8078C347.002 77.4142 347.231 79.9234 346.712 83.5572L350.672 84.1228C351.233 80.1966 351.102 76.8258 349.99 74.2322L346.314 75.8078ZM346.729 83.457C345.782 88.3096 344.591 91.4073 343.323 93.0651L346.501 95.4949C348.353 93.0727 349.682 89.2104 350.655 84.223L346.729 83.457ZM343.341 93.0423C342.018 94.7209 339.916 96.3584 336.894 97.8979L338.71 101.462C342.048 99.7616 344.685 97.799 346.483 95.5177L343.341 93.0423ZM332.988 83.5017C330.884 83.0649 328.886 83.4444 327.158 84.6942C325.503 85.8905 324.245 87.7727 323.27 90.0816L326.954 91.6384C327.779 89.6873 328.666 88.5395 329.501 87.9358C330.262 87.3856 331.1 87.1951 332.175 87.4183L332.988 83.5017ZM323.304 90.0038C322.703 91.273 322.238 92.605 321.906 93.9968L325.797 94.9232C326.066 93.795 326.44 92.727 326.919 91.7162L323.304 90.0038ZM323.618 96.4463C326.631 96.8007 329.386 95.0666 331.815 92.3818L328.849 89.6982C326.718 92.0534 325.153 92.5993 324.085 92.4737L323.618 96.4463ZM331.876 92.3114C332.818 91.167 333.562 89.978 334.071 88.7415L330.372 87.2185C330.042 88.022 329.525 88.873 328.788 89.7686L331.876 92.3114ZM334.086 88.7049C334.548 87.5175 334.876 86.1467 334.497 84.8853L330.666 86.0347C330.649 85.9768 330.68 86.028 330.647 86.2572C330.615 86.4823 330.531 86.8096 330.358 87.2551L334.086 88.7049Z" fill="black" mask="url(#path-1-outside-1_347_7019)"/>
</svg>
