<svg width="344" height="103" viewBox="0 0 344 103" fill="none" xmlns="http://www.w3.org/2000/svg">
<mask id="path-1-outside-1_270_5578" maskUnits="userSpaceOnUse" x="-1.125" y="-2.5" width="346" height="107" fill="black">
<rect fill="white" x="-1.125" y="-2.5" width="346" height="107"/>
<path d="M18.815 77.72C15.755 77.84 12.935 77.45 10.355 76.55C7.835 75.71 5.765 74.54 4.145 73.04C2.585 71.54 1.595 69.8 1.175 67.82C0.755 65.78 1.115 63.71 2.255 61.61C3.815 59.09 6.935 58.34 11.615 59.36C15.155 60.08 17.585 60.47 18.905 60.53C20.285 60.59 21.455 60.41 22.415 59.99C26.795 58.55 29.255 56.99 29.795 55.31C30.155 54.05 29.375 52.58 27.455 50.9C26.675 50.18 25.805 49.46 24.845 48.74C23.885 48.02 23.075 47.3 22.415 46.58C19.415 44.36 17.045 41.81 15.305 38.93C13.625 35.99 12.935 32.81 13.235 29.39C13.535 25.97 14.105 23.15 14.945 20.93C15.785 18.65 16.835 16.64 18.095 14.9C20.315 11.84 23.195 9.35 26.735 7.43C30.815 5.33 34.085 3.98 36.545 3.38C41.405 2.3 46.325 2.21 51.305 3.11C52.985 3.41 54.425 3.98 55.625 4.82C56.825 5.66 58.025 6.53 59.225 7.43C61.325 9.53 61.835 11.66 60.755 13.82C60.335 14.78 59.675 15.56 58.775 16.16C57.875 16.76 56.915 17.09 55.895 17.15C56.015 18.77 55.715 19.97 54.995 20.75C53.615 22.13 51.215 23.03 47.795 23.45C42.875 23.09 39.545 23.36 37.805 24.26C35.765 25.34 35.015 27.68 35.555 31.28C35.675 32.06 36.155 32.87 36.995 33.71C37.895 34.55 38.915 35.45 40.055 36.41C41.255 37.37 42.485 38.45 43.745 39.65C45.065 40.85 46.205 42.23 47.165 43.79C50.525 49.31 50.255 55.76 46.355 63.14C43.475 68.66 38.555 72.8 31.595 75.56C27.995 77 23.735 77.72 18.815 77.72ZM91.1532 33.89L91.5132 33.98C91.6332 33.98 91.6932 34.01 91.6932 34.07C93.2532 33.47 94.5432 33.92 95.5632 35.42C96.2232 36.44 96.7332 38 97.0932 40.1C97.2132 42.98 96.9132 46.97 96.1932 52.07C94.8132 62.39 94.0632 68.54 93.9432 70.52C94.0632 72.62 92.7732 74.06 90.0732 74.84C87.7332 75.56 85.3932 75.53 83.0532 74.75C80.5932 73.91 79.5732 72.62 79.9932 70.88C79.5132 71.78 79.0332 72.41 78.5532 72.77C78.0732 73.19 77.1132 73.73 75.6732 74.39C74.2932 75.11 72.3132 75.68 69.7332 76.1C67.1532 76.58 64.5732 76.7 61.9932 76.46C59.4132 76.28 57.0432 75.65 54.8832 74.57C52.7832 73.55 51.3732 71.93 50.6532 69.71C49.2732 65.39 49.4532 59.9 51.1932 53.24C52.3932 48.86 54.5532 44.99 57.6732 41.63C61.2732 37.79 65.3532 34.61 69.9132 32.09C73.3332 30.23 76.6332 29.12 79.8132 28.76C80.8932 28.64 81.8232 28.67 82.6032 28.85C83.4432 29.03 84.3132 29.21 85.2132 29.39C86.1732 29.57 87.0732 29.84 87.9132 30.2C90.0732 31.1 91.1532 32.33 91.1532 33.89ZM74.5032 57.74C74.9232 56.9 75.2532 55.85 75.4932 54.59C75.7932 53.33 76.1832 51.95 76.6632 50.45C71.8032 52.43 68.0832 54.86 65.5032 57.74C62.6832 60.92 62.8632 63.11 66.0432 64.31C68.8032 65.03 70.8132 64.58 72.0732 62.96C72.6132 62.24 73.0932 61.34 73.5132 60.26C73.9332 59.18 74.4432 58.07 75.0432 56.93C74.8632 57.23 74.6832 57.5 74.5032 57.74ZM116.275 35.69C119.275 31.19 123.445 28.49 128.785 27.59C130.525 27.29 132.655 27.08 135.175 26.96C137.755 26.84 139.945 27.41 141.745 28.67C143.605 29.93 144.985 31.55 145.885 33.53C147.445 37.07 147.685 41.42 146.605 46.58C146.005 49.4 145.285 52.52 144.445 55.94C143.605 59.3 142.345 62.63 140.665 65.93C138.985 69.23 136.795 72.32 134.095 75.2C131.395 78.08 127.885 80.36 123.565 82.04C120.985 83.06 118.705 83.42 116.725 83.12C114.805 82.88 113.365 82.49 112.405 81.95C111.445 81.41 110.785 80.63 110.425 79.61C109.225 83.03 108.085 86.48 107.005 89.96C105.985 93.5 104.605 96.86 102.865 100.04C101.665 100.82 100.195 101.39 98.4552 101.75C96.7152 102.17 95.0052 102.08 93.3252 101.48C91.6452 100.94 90.4452 99.92 89.7252 98.42C88.9452 96.98 88.5552 95.39 88.5552 93.65C88.5552 91.31 89.1252 88.46 90.2652 85.1C91.9452 80.12 93.3252 76.28 94.4052 73.58C95.4252 70.88 96.0852 69.14 96.3852 68.36C96.6852 67.52 96.9852 66.65 97.2852 65.75C98.6052 62.27 99.5652 59.45 100.165 57.29C100.825 55.07 101.425 53.15 101.965 51.53V51.44C102.565 48.8 103.495 46.01 104.755 43.07C106.075 40.07 106.975 38.24 107.455 37.58C108.475 36.56 109.525 35.93 110.605 35.69C111.685 35.45 112.915 35.3 114.295 35.24H114.565L116.275 35.69ZM123.115 50.72C122.395 51.98 121.195 53.15 119.515 54.23L118.705 56.12C118.105 57.68 117.535 59.27 116.995 60.89C116.455 62.51 115.855 64.1 115.195 65.66C115.795 66.26 116.245 66.83 116.545 67.37C119.905 64.43 122.965 60.56 125.725 55.76C126.805 53.78 127.495 51.8 127.795 49.82C128.155 47.84 128.245 46.58 128.065 46.04C127.885 45.5 127.585 45.23 127.165 45.23C126.805 45.23 126.415 45.35 125.995 45.59C125.635 45.77 125.335 45.98 125.095 46.22C124.915 46.4 124.945 46.4 125.185 46.22C124.525 47 124.045 47.69 123.745 48.29C123.445 48.83 123.235 49.64 123.115 50.72ZM165.585 35.69C168.585 31.19 172.755 28.49 178.095 27.59C179.835 27.29 181.965 27.08 184.485 26.96C187.065 26.84 189.255 27.41 191.055 28.67C192.915 29.93 194.295 31.55 195.195 33.53C196.755 37.07 196.995 41.42 195.915 46.58C195.315 49.4 194.595 52.52 193.755 55.94C192.915 59.3 191.655 62.63 189.975 65.93C188.295 69.23 186.105 72.32 183.405 75.2C180.705 78.08 177.195 80.36 172.875 82.04C170.295 83.06 168.015 83.42 166.035 83.12C164.115 82.88 162.675 82.49 161.715 81.95C160.755 81.41 160.095 80.63 159.735 79.61C158.535 83.03 157.395 86.48 156.315 89.96C155.295 93.5 153.915 96.86 152.175 100.04C150.975 100.82 149.505 101.39 147.765 101.75C146.025 102.17 144.315 102.08 142.635 101.48C140.955 100.94 139.755 99.92 139.035 98.42C138.255 96.98 137.865 95.39 137.865 93.65C137.865 91.31 138.435 88.46 139.575 85.1C141.255 80.12 142.635 76.28 143.715 73.58C144.735 70.88 145.395 69.14 145.695 68.36C145.995 67.52 146.295 66.65 146.595 65.75C147.915 62.27 148.875 59.45 149.475 57.29C150.135 55.07 150.735 53.15 151.275 51.53V51.44C151.875 48.8 152.805 46.01 154.065 43.07C155.385 40.07 156.285 38.24 156.765 37.58C157.785 36.56 158.835 35.93 159.915 35.69C160.995 35.45 162.225 35.3 163.605 35.24H163.875L165.585 35.69ZM172.425 50.72C171.705 51.98 170.505 53.15 168.825 54.23L168.015 56.12C167.415 57.68 166.845 59.27 166.305 60.89C165.765 62.51 165.165 64.1 164.505 65.66C165.105 66.26 165.555 66.83 165.855 67.37C169.215 64.43 172.275 60.56 175.035 55.76C176.115 53.78 176.805 51.8 177.105 49.82C177.465 47.84 177.555 46.58 177.375 46.04C177.195 45.5 176.895 45.23 176.475 45.23C176.115 45.23 175.725 45.35 175.305 45.59C174.945 45.77 174.645 45.98 174.405 46.22C174.225 46.4 174.255 46.4 174.495 46.22C173.835 47 173.355 47.69 173.055 48.29C172.755 48.83 172.545 49.64 172.425 50.72ZM241.985 62.87C241.985 66.05 242.375 68.81 243.155 71.15C243.155 73.07 242.705 74.42 241.805 75.2C240.905 76.04 239.765 76.46 238.385 76.46C237.065 76.52 235.655 76.25 234.155 75.65C232.655 75.11 231.365 74.42 230.285 73.58C229.265 72.74 228.605 72.08 228.305 71.6C228.005 71.06 227.525 70.28 226.865 69.26C225.845 64.52 225.365 61.43 225.425 59.99C225.485 58.55 225.605 57.32 225.785 56.3C222.785 57.86 220.715 59.21 219.575 60.35C217.475 62.45 215.705 65.15 214.265 68.45C213.785 71.09 213.395 72.47 213.095 72.59C212.795 72.77 212.405 72.89 211.925 72.95C211.445 73.01 210.935 73.22 210.395 73.58C209.855 73.94 209.345 74.24 208.865 74.48C208.385 74.72 207.905 74.96 207.425 75.2C206.285 75.86 205.535 76.19 205.175 76.19C201.755 77.27 198.485 76.79 195.365 74.75C194.045 73.85 193.025 72.71 192.305 71.33C191.585 69.89 191.405 68.36 191.765 66.74C194.345 55.64 197.885 44.33 202.385 32.81C205.145 25.79 207.785 20.24 210.305 16.16C210.905 15.2 211.505 14.18 212.105 13.1C213.365 10.94 214.235 9.47 214.715 8.69C214.115 7.13 214.115 5.78 214.715 4.64C215.375 3.44 216.335 2.51 217.595 1.85C218.915 1.13 220.415 0.649995 222.095 0.409995C223.775 0.169994 225.365 0.139995 226.865 0.319996C230.465 0.859996 232.385 2.27 232.625 4.55C232.265 5.63 231.755 6.92 231.095 8.42C230.495 9.92 229.865 11.45 229.205 13.01C228.605 14.51 228.005 15.92 227.405 17.24C226.865 18.56 226.445 19.55 226.145 20.21C225.905 20.81 225.515 21.89 224.975 23.45C224.495 24.95 223.955 26.6 223.355 28.4C222.815 30.14 222.305 31.76 221.825 33.26L220.745 36.41C220.505 37.25 220.115 38.54 219.575 40.28C219.035 41.96 218.465 44.06 217.865 46.58C218.645 45.98 219.275 45.29 219.755 44.51C220.295 43.67 221.045 42.74 222.005 41.72C223.025 40.7 224.315 39.71 225.875 38.75C227.495 37.73 229.205 37.07 231.005 36.77C234.905 36.11 238.445 37.37 241.625 40.55C244.025 42.95 244.775 46.55 243.875 51.35C243.515 53.33 243.065 55.34 242.525 57.38C242.045 59.36 241.865 61.19 241.985 62.87ZM254.659 33.53C255.439 31.55 257.299 30.2 260.239 29.48C262.999 28.76 265.579 28.85 267.979 29.75C270.439 30.71 271.549 32.27 271.309 34.43C270.649 36.53 269.809 39.11 268.789 42.17C267.829 45.17 266.899 48.26 265.999 51.44C263.599 59.6 262.219 65.36 261.859 68.72C260.959 74.12 259.459 77.03 257.359 77.45C256.759 77.57 256.189 77.66 255.649 77.72C254.329 77.78 253.489 78.14 253.129 78.8C252.769 79.46 252.169 79.94 251.329 80.24C250.489 80.6 249.559 80.75 248.539 80.69C247.579 80.69 246.589 80.45 245.569 79.97C244.549 79.55 243.679 78.92 242.959 78.08C241.279 76.04 240.949 73.31 241.969 69.89C242.929 63.35 245.359 55.04 249.259 44.96C251.119 39.98 252.919 36.17 254.659 33.53ZM271.669 20.03C268.729 20.63 266.329 20.45 264.469 19.49C262.669 18.53 261.619 17.39 261.319 16.07C261.019 14.69 261.439 13.28 262.579 11.84C263.899 10.04 265.879 8.86999 268.519 8.32999C269.719 8.21 270.589 8.15 271.129 8.15C271.669 8.15 272.329 8.27 273.109 8.51C275.089 8.69 276.379 9.56 276.979 11.12C277.819 12.44 277.879 13.94 277.159 15.62C276.499 17.3 274.669 18.77 271.669 20.03ZM277.455 35.24C278.295 33.08 279.465 31.46 280.965 30.38C282.525 29.24 283.995 28.55 285.375 28.31C286.815 28.01 287.985 28.16 288.885 28.76C289.845 29.36 290.175 30.29 289.875 31.55C291.015 30.41 292.665 29.36 294.825 28.4C296.985 27.44 298.695 26.78 299.955 26.42C301.215 26.06 302.295 25.88 303.195 25.88C305.175 26 305.745 27.08 304.905 29.12C305.925 29.3 306.675 29.96 307.155 31.1C307.635 32.24 307.695 33.5 307.335 34.88C306.975 36.26 306.165 37.61 304.905 38.93C303.645 40.25 301.935 41.15 299.775 41.63C297.675 42.11 295.905 43.22 294.465 44.96C293.085 46.64 291.855 48.74 290.775 51.26C288.975 55.52 287.355 61.55 285.915 69.35C285.435 72.17 283.485 74.54 280.065 76.46C276.825 78.32 273.855 78.86 271.155 78.08C268.095 77.24 266.745 74.99 267.105 71.33C267.225 68.75 268.005 65.33 269.445 61.07C270.885 56.75 271.995 53.51 272.775 51.35C273.555 49.13 274.095 47.45 274.395 46.31L277.455 35.24ZM331.677 59.18C330.537 59.72 329.427 60.14 328.347 60.44C327.267 60.74 326.007 61.04 324.567 61.34C320.787 62.12 318.057 62.57 316.377 62.69C316.557 63.29 317.457 64.01 319.077 64.85C320.157 65.03 321.327 64.88 322.587 64.4C323.907 63.86 325.257 63.38 326.637 62.96C328.077 62.48 329.457 62.21 330.777 62.15C332.157 62.09 333.447 62.6 334.647 63.68C335.127 64.76 335.517 65.39 335.817 65.57C336.117 65.75 336.387 65.84 336.627 65.84C336.867 65.84 337.137 65.93 337.437 66.11C337.737 66.29 338.157 66.98 338.697 68.18C339.297 69.38 339.147 70.52 338.247 71.6C337.407 72.68 336.087 73.61 334.287 74.39C332.487 75.17 330.387 75.8 327.987 76.28C325.587 76.76 323.187 77.09 320.787 77.27C315.387 77.69 311.277 77.27 308.457 76.01C304.377 74.63 301.737 71.9 300.537 67.82C298.977 62.42 299.847 56.12 303.147 48.92C304.647 45.56 307.017 41.96 310.257 38.12C313.077 34.76 316.227 32.33 319.707 30.83C323.727 29.09 327.927 28.28 332.307 28.4C336.987 28.52 340.227 30.56 342.027 34.52C342.927 36.62 343.107 39.56 342.567 43.34C341.607 48.26 340.347 51.74 338.787 53.78C337.227 55.76 334.857 57.56 331.677 59.18ZM326.457 44.96C323.277 44.3 320.787 46.1 318.987 50.36C318.447 51.5 318.027 52.7 317.727 53.96C319.767 54.2 321.927 53.06 324.207 50.54C325.047 49.52 325.677 48.5 326.097 47.48C326.517 46.4 326.637 45.56 326.457 44.96Z"/>
</mask>
<path d="M18.815 77.72C15.755 77.84 12.935 77.45 10.355 76.55C7.835 75.71 5.765 74.54 4.145 73.04C2.585 71.54 1.595 69.8 1.175 67.82C0.755 65.78 1.115 63.71 2.255 61.61C3.815 59.09 6.935 58.34 11.615 59.36C15.155 60.08 17.585 60.47 18.905 60.53C20.285 60.59 21.455 60.41 22.415 59.99C26.795 58.55 29.255 56.99 29.795 55.31C30.155 54.05 29.375 52.58 27.455 50.9C26.675 50.18 25.805 49.46 24.845 48.74C23.885 48.02 23.075 47.3 22.415 46.58C19.415 44.36 17.045 41.81 15.305 38.93C13.625 35.99 12.935 32.81 13.235 29.39C13.535 25.97 14.105 23.15 14.945 20.93C15.785 18.65 16.835 16.64 18.095 14.9C20.315 11.84 23.195 9.35 26.735 7.43C30.815 5.33 34.085 3.98 36.545 3.38C41.405 2.3 46.325 2.21 51.305 3.11C52.985 3.41 54.425 3.98 55.625 4.82C56.825 5.66 58.025 6.53 59.225 7.43C61.325 9.53 61.835 11.66 60.755 13.82C60.335 14.78 59.675 15.56 58.775 16.16C57.875 16.76 56.915 17.09 55.895 17.15C56.015 18.77 55.715 19.97 54.995 20.75C53.615 22.13 51.215 23.03 47.795 23.45C42.875 23.09 39.545 23.36 37.805 24.26C35.765 25.34 35.015 27.68 35.555 31.28C35.675 32.06 36.155 32.87 36.995 33.71C37.895 34.55 38.915 35.45 40.055 36.41C41.255 37.37 42.485 38.45 43.745 39.65C45.065 40.85 46.205 42.23 47.165 43.79C50.525 49.31 50.255 55.76 46.355 63.14C43.475 68.66 38.555 72.8 31.595 75.56C27.995 77 23.735 77.72 18.815 77.72ZM91.1532 33.89L91.5132 33.98C91.6332 33.98 91.6932 34.01 91.6932 34.07C93.2532 33.47 94.5432 33.92 95.5632 35.42C96.2232 36.44 96.7332 38 97.0932 40.1C97.2132 42.98 96.9132 46.97 96.1932 52.07C94.8132 62.39 94.0632 68.54 93.9432 70.52C94.0632 72.62 92.7732 74.06 90.0732 74.84C87.7332 75.56 85.3932 75.53 83.0532 74.75C80.5932 73.91 79.5732 72.62 79.9932 70.88C79.5132 71.78 79.0332 72.41 78.5532 72.77C78.0732 73.19 77.1132 73.73 75.6732 74.39C74.2932 75.11 72.3132 75.68 69.7332 76.1C67.1532 76.58 64.5732 76.7 61.9932 76.46C59.4132 76.28 57.0432 75.65 54.8832 74.57C52.7832 73.55 51.3732 71.93 50.6532 69.71C49.2732 65.39 49.4532 59.9 51.1932 53.24C52.3932 48.86 54.5532 44.99 57.6732 41.63C61.2732 37.79 65.3532 34.61 69.9132 32.09C73.3332 30.23 76.6332 29.12 79.8132 28.76C80.8932 28.64 81.8232 28.67 82.6032 28.85C83.4432 29.03 84.3132 29.21 85.2132 29.39C86.1732 29.57 87.0732 29.84 87.9132 30.2C90.0732 31.1 91.1532 32.33 91.1532 33.89ZM74.5032 57.74C74.9232 56.9 75.2532 55.85 75.4932 54.59C75.7932 53.33 76.1832 51.95 76.6632 50.45C71.8032 52.43 68.0832 54.86 65.5032 57.74C62.6832 60.92 62.8632 63.11 66.0432 64.31C68.8032 65.03 70.8132 64.58 72.0732 62.96C72.6132 62.24 73.0932 61.34 73.5132 60.26C73.9332 59.18 74.4432 58.07 75.0432 56.93C74.8632 57.23 74.6832 57.5 74.5032 57.74ZM116.275 35.69C119.275 31.19 123.445 28.49 128.785 27.59C130.525 27.29 132.655 27.08 135.175 26.96C137.755 26.84 139.945 27.41 141.745 28.67C143.605 29.93 144.985 31.55 145.885 33.53C147.445 37.07 147.685 41.42 146.605 46.58C146.005 49.4 145.285 52.52 144.445 55.94C143.605 59.3 142.345 62.63 140.665 65.93C138.985 69.23 136.795 72.32 134.095 75.2C131.395 78.08 127.885 80.36 123.565 82.04C120.985 83.06 118.705 83.42 116.725 83.12C114.805 82.88 113.365 82.49 112.405 81.95C111.445 81.41 110.785 80.63 110.425 79.61C109.225 83.03 108.085 86.48 107.005 89.96C105.985 93.5 104.605 96.86 102.865 100.04C101.665 100.82 100.195 101.39 98.4552 101.75C96.7152 102.17 95.0052 102.08 93.3252 101.48C91.6452 100.94 90.4452 99.92 89.7252 98.42C88.9452 96.98 88.5552 95.39 88.5552 93.65C88.5552 91.31 89.1252 88.46 90.2652 85.1C91.9452 80.12 93.3252 76.28 94.4052 73.58C95.4252 70.88 96.0852 69.14 96.3852 68.36C96.6852 67.52 96.9852 66.65 97.2852 65.75C98.6052 62.27 99.5652 59.45 100.165 57.29C100.825 55.07 101.425 53.15 101.965 51.53V51.44C102.565 48.8 103.495 46.01 104.755 43.07C106.075 40.07 106.975 38.24 107.455 37.58C108.475 36.56 109.525 35.93 110.605 35.69C111.685 35.45 112.915 35.3 114.295 35.24H114.565L116.275 35.69ZM123.115 50.72C122.395 51.98 121.195 53.15 119.515 54.23L118.705 56.12C118.105 57.68 117.535 59.27 116.995 60.89C116.455 62.51 115.855 64.1 115.195 65.66C115.795 66.26 116.245 66.83 116.545 67.37C119.905 64.43 122.965 60.56 125.725 55.76C126.805 53.78 127.495 51.8 127.795 49.82C128.155 47.84 128.245 46.58 128.065 46.04C127.885 45.5 127.585 45.23 127.165 45.23C126.805 45.23 126.415 45.35 125.995 45.59C125.635 45.77 125.335 45.98 125.095 46.22C124.915 46.4 124.945 46.4 125.185 46.22C124.525 47 124.045 47.69 123.745 48.29C123.445 48.83 123.235 49.64 123.115 50.72ZM165.585 35.69C168.585 31.19 172.755 28.49 178.095 27.59C179.835 27.29 181.965 27.08 184.485 26.96C187.065 26.84 189.255 27.41 191.055 28.67C192.915 29.93 194.295 31.55 195.195 33.53C196.755 37.07 196.995 41.42 195.915 46.58C195.315 49.4 194.595 52.52 193.755 55.94C192.915 59.3 191.655 62.63 189.975 65.93C188.295 69.23 186.105 72.32 183.405 75.2C180.705 78.08 177.195 80.36 172.875 82.04C170.295 83.06 168.015 83.42 166.035 83.12C164.115 82.88 162.675 82.49 161.715 81.95C160.755 81.41 160.095 80.63 159.735 79.61C158.535 83.03 157.395 86.48 156.315 89.96C155.295 93.5 153.915 96.86 152.175 100.04C150.975 100.82 149.505 101.39 147.765 101.75C146.025 102.17 144.315 102.08 142.635 101.48C140.955 100.94 139.755 99.92 139.035 98.42C138.255 96.98 137.865 95.39 137.865 93.65C137.865 91.31 138.435 88.46 139.575 85.1C141.255 80.12 142.635 76.28 143.715 73.58C144.735 70.88 145.395 69.14 145.695 68.36C145.995 67.52 146.295 66.65 146.595 65.75C147.915 62.27 148.875 59.45 149.475 57.29C150.135 55.07 150.735 53.15 151.275 51.53V51.44C151.875 48.8 152.805 46.01 154.065 43.07C155.385 40.07 156.285 38.24 156.765 37.58C157.785 36.56 158.835 35.93 159.915 35.69C160.995 35.45 162.225 35.3 163.605 35.24H163.875L165.585 35.69ZM172.425 50.72C171.705 51.98 170.505 53.15 168.825 54.23L168.015 56.12C167.415 57.68 166.845 59.27 166.305 60.89C165.765 62.51 165.165 64.1 164.505 65.66C165.105 66.26 165.555 66.83 165.855 67.37C169.215 64.43 172.275 60.56 175.035 55.76C176.115 53.78 176.805 51.8 177.105 49.82C177.465 47.84 177.555 46.58 177.375 46.04C177.195 45.5 176.895 45.23 176.475 45.23C176.115 45.23 175.725 45.35 175.305 45.59C174.945 45.77 174.645 45.98 174.405 46.22C174.225 46.4 174.255 46.4 174.495 46.22C173.835 47 173.355 47.69 173.055 48.29C172.755 48.83 172.545 49.64 172.425 50.72ZM241.985 62.87C241.985 66.05 242.375 68.81 243.155 71.15C243.155 73.07 242.705 74.42 241.805 75.2C240.905 76.04 239.765 76.46 238.385 76.46C237.065 76.52 235.655 76.25 234.155 75.65C232.655 75.11 231.365 74.42 230.285 73.58C229.265 72.74 228.605 72.08 228.305 71.6C228.005 71.06 227.525 70.28 226.865 69.26C225.845 64.52 225.365 61.43 225.425 59.99C225.485 58.55 225.605 57.32 225.785 56.3C222.785 57.86 220.715 59.21 219.575 60.35C217.475 62.45 215.705 65.15 214.265 68.45C213.785 71.09 213.395 72.47 213.095 72.59C212.795 72.77 212.405 72.89 211.925 72.95C211.445 73.01 210.935 73.22 210.395 73.58C209.855 73.94 209.345 74.24 208.865 74.48C208.385 74.72 207.905 74.96 207.425 75.2C206.285 75.86 205.535 76.19 205.175 76.19C201.755 77.27 198.485 76.79 195.365 74.75C194.045 73.85 193.025 72.71 192.305 71.33C191.585 69.89 191.405 68.36 191.765 66.74C194.345 55.64 197.885 44.33 202.385 32.81C205.145 25.79 207.785 20.24 210.305 16.16C210.905 15.2 211.505 14.18 212.105 13.1C213.365 10.94 214.235 9.47 214.715 8.69C214.115 7.13 214.115 5.78 214.715 4.64C215.375 3.44 216.335 2.51 217.595 1.85C218.915 1.13 220.415 0.649995 222.095 0.409995C223.775 0.169994 225.365 0.139995 226.865 0.319996C230.465 0.859996 232.385 2.27 232.625 4.55C232.265 5.63 231.755 6.92 231.095 8.42C230.495 9.92 229.865 11.45 229.205 13.01C228.605 14.51 228.005 15.92 227.405 17.24C226.865 18.56 226.445 19.55 226.145 20.21C225.905 20.81 225.515 21.89 224.975 23.45C224.495 24.95 223.955 26.6 223.355 28.4C222.815 30.14 222.305 31.76 221.825 33.26L220.745 36.41C220.505 37.25 220.115 38.54 219.575 40.28C219.035 41.96 218.465 44.06 217.865 46.58C218.645 45.98 219.275 45.29 219.755 44.51C220.295 43.67 221.045 42.74 222.005 41.72C223.025 40.7 224.315 39.71 225.875 38.75C227.495 37.73 229.205 37.07 231.005 36.77C234.905 36.11 238.445 37.37 241.625 40.55C244.025 42.95 244.775 46.55 243.875 51.35C243.515 53.33 243.065 55.34 242.525 57.38C242.045 59.36 241.865 61.19 241.985 62.87ZM254.659 33.53C255.439 31.55 257.299 30.2 260.239 29.48C262.999 28.76 265.579 28.85 267.979 29.75C270.439 30.71 271.549 32.27 271.309 34.43C270.649 36.53 269.809 39.11 268.789 42.17C267.829 45.17 266.899 48.26 265.999 51.44C263.599 59.6 262.219 65.36 261.859 68.72C260.959 74.12 259.459 77.03 257.359 77.45C256.759 77.57 256.189 77.66 255.649 77.72C254.329 77.78 253.489 78.14 253.129 78.8C252.769 79.46 252.169 79.94 251.329 80.24C250.489 80.6 249.559 80.75 248.539 80.69C247.579 80.69 246.589 80.45 245.569 79.97C244.549 79.55 243.679 78.92 242.959 78.08C241.279 76.04 240.949 73.31 241.969 69.89C242.929 63.35 245.359 55.04 249.259 44.96C251.119 39.98 252.919 36.17 254.659 33.53ZM271.669 20.03C268.729 20.63 266.329 20.45 264.469 19.49C262.669 18.53 261.619 17.39 261.319 16.07C261.019 14.69 261.439 13.28 262.579 11.84C263.899 10.04 265.879 8.86999 268.519 8.32999C269.719 8.21 270.589 8.15 271.129 8.15C271.669 8.15 272.329 8.27 273.109 8.51C275.089 8.69 276.379 9.56 276.979 11.12C277.819 12.44 277.879 13.94 277.159 15.62C276.499 17.3 274.669 18.77 271.669 20.03ZM277.455 35.24C278.295 33.08 279.465 31.46 280.965 30.38C282.525 29.24 283.995 28.55 285.375 28.31C286.815 28.01 287.985 28.16 288.885 28.76C289.845 29.36 290.175 30.29 289.875 31.55C291.015 30.41 292.665 29.36 294.825 28.4C296.985 27.44 298.695 26.78 299.955 26.42C301.215 26.06 302.295 25.88 303.195 25.88C305.175 26 305.745 27.08 304.905 29.12C305.925 29.3 306.675 29.96 307.155 31.1C307.635 32.24 307.695 33.5 307.335 34.88C306.975 36.26 306.165 37.61 304.905 38.93C303.645 40.25 301.935 41.15 299.775 41.63C297.675 42.11 295.905 43.22 294.465 44.96C293.085 46.64 291.855 48.74 290.775 51.26C288.975 55.52 287.355 61.55 285.915 69.35C285.435 72.17 283.485 74.54 280.065 76.46C276.825 78.32 273.855 78.86 271.155 78.08C268.095 77.24 266.745 74.99 267.105 71.33C267.225 68.75 268.005 65.33 269.445 61.07C270.885 56.75 271.995 53.51 272.775 51.35C273.555 49.13 274.095 47.45 274.395 46.31L277.455 35.24ZM331.677 59.18C330.537 59.72 329.427 60.14 328.347 60.44C327.267 60.74 326.007 61.04 324.567 61.34C320.787 62.12 318.057 62.57 316.377 62.69C316.557 63.29 317.457 64.01 319.077 64.85C320.157 65.03 321.327 64.88 322.587 64.4C323.907 63.86 325.257 63.38 326.637 62.96C328.077 62.48 329.457 62.21 330.777 62.15C332.157 62.09 333.447 62.6 334.647 63.68C335.127 64.76 335.517 65.39 335.817 65.57C336.117 65.75 336.387 65.84 336.627 65.84C336.867 65.84 337.137 65.93 337.437 66.11C337.737 66.29 338.157 66.98 338.697 68.18C339.297 69.38 339.147 70.52 338.247 71.6C337.407 72.68 336.087 73.61 334.287 74.39C332.487 75.17 330.387 75.8 327.987 76.28C325.587 76.76 323.187 77.09 320.787 77.27C315.387 77.69 311.277 77.27 308.457 76.01C304.377 74.63 301.737 71.9 300.537 67.82C298.977 62.42 299.847 56.12 303.147 48.92C304.647 45.56 307.017 41.96 310.257 38.12C313.077 34.76 316.227 32.33 319.707 30.83C323.727 29.09 327.927 28.28 332.307 28.4C336.987 28.52 340.227 30.56 342.027 34.52C342.927 36.62 343.107 39.56 342.567 43.34C341.607 48.26 340.347 51.74 338.787 53.78C337.227 55.76 334.857 57.56 331.677 59.18ZM326.457 44.96C323.277 44.3 320.787 46.1 318.987 50.36C318.447 51.5 318.027 52.7 317.727 53.96C319.767 54.2 321.927 53.06 324.207 50.54C325.047 49.52 325.677 48.5 326.097 47.48C326.517 46.4 326.637 45.56 326.457 44.96Z" fill="white"/>
<path d="M18.815 77.72V75.72H18.7758L18.7366 75.7215L18.815 77.72ZM10.355 76.55L11.0137 74.6616L11.0006 74.657L10.9875 74.6526L10.355 76.55ZM4.145 73.04L2.75878 74.4817L2.77236 74.4947L2.78618 74.5075L4.145 73.04ZM1.175 67.82L-0.783949 68.2233L-0.781468 68.235L1.175 67.82ZM2.255 61.61L0.55447 60.5573L0.524478 60.6057L0.497293 60.6558L2.255 61.61ZM11.615 59.36L11.1891 61.3141L11.2027 61.3171L11.2164 61.3199L11.615 59.36ZM18.905 60.53L18.8142 62.5279L18.8181 62.5281L18.905 60.53ZM22.415 59.99L21.7904 58.09L21.7003 58.1197L21.6134 58.1577L22.415 59.99ZM29.795 55.31L31.6991 55.922L31.7091 55.8909L31.7181 55.8594L29.795 55.31ZM27.455 50.9L26.0984 52.3696L26.118 52.3876L26.138 52.4052L27.455 50.9ZM24.845 48.74L23.645 50.34L23.645 50.34L24.845 48.74ZM22.415 46.58L23.8893 45.2285L23.7593 45.0867L23.6047 44.9723L22.415 46.58ZM15.305 38.93L13.5685 39.9223L13.5806 39.9434L13.5932 39.9642L15.305 38.93ZM13.235 29.39L11.2427 29.2152H11.2427L13.235 29.39ZM14.945 20.93L16.8156 21.6378L16.8187 21.6296L16.8217 21.6214L14.945 20.93ZM18.095 14.9L16.4762 13.7255L16.4751 13.727L18.095 14.9ZM26.735 7.43L25.8197 5.65172L25.8005 5.66162L25.7815 5.67193L26.735 7.43ZM36.545 3.38L36.1111 1.42763L36.0911 1.43209L36.0711 1.43696L36.545 3.38ZM51.305 3.11L50.9493 5.07812L50.9534 5.07885L51.305 3.11ZM55.625 4.82L56.7719 3.18153H56.7719L55.625 4.82ZM59.225 7.43L60.6392 6.01578L60.5387 5.91528L60.425 5.82999L59.225 7.43ZM60.755 13.82L58.9661 12.9256L58.9432 12.9714L58.9227 13.0184L60.755 13.82ZM55.895 17.15L55.7775 15.1535L53.7505 15.2727L53.9005 17.2977L55.895 17.15ZM54.995 20.75L56.4092 22.1642L56.4375 22.1359L56.4646 22.1066L54.995 20.75ZM47.795 23.45L47.6491 25.4447L47.8444 25.459L48.0388 25.4351L47.795 23.45ZM37.805 24.26L36.8862 22.4836L36.8777 22.488L36.8692 22.4924L37.805 24.26ZM35.555 31.28L33.5771 31.5767L33.5783 31.5841L35.555 31.28ZM36.995 33.71L35.5808 35.1242L35.6052 35.1486L35.6304 35.1721L36.995 33.71ZM40.055 36.41L38.7667 37.9398L38.786 37.956L38.8056 37.9717L40.055 36.41ZM43.745 39.65L42.3657 41.0983L42.3825 41.1143L42.3997 41.1299L43.745 39.65ZM47.165 43.79L48.8734 42.7501L48.8683 42.7418L47.165 43.79ZM46.355 63.14L44.5867 62.2055L44.5818 62.2149L46.355 63.14ZM31.595 75.56L30.8577 73.7008L30.8522 73.703L31.595 75.56ZM18.7366 75.7215C15.8969 75.8329 13.3302 75.4697 11.0137 74.6616L9.69626 78.4384C12.5398 79.4303 15.6131 79.8471 18.8934 79.7185L18.7366 75.7215ZM10.9875 74.6526C8.68352 73.8847 6.87703 72.844 5.50382 71.5725L2.78618 74.5075C4.65297 76.236 6.98648 77.5353 9.72254 78.4474L10.9875 74.6526ZM5.53122 71.5983C4.23875 70.3556 3.46256 68.9659 3.13147 67.405L-0.781468 68.235C-0.27256 70.6341 0.931247 72.7244 2.75878 74.4817L5.53122 71.5983ZM3.13391 67.4167C2.82289 65.906 3.0627 64.3142 4.01271 62.5642L0.497293 60.6558C-0.832701 63.1058 -1.31289 65.654 -0.783914 68.2233L3.13391 67.4167ZM3.95553 62.6627C4.81995 61.2663 6.75171 60.347 11.1891 61.3141L12.0409 57.4059C7.11829 56.333 2.81005 56.9137 0.55447 60.5573L3.95553 62.6627ZM11.2164 61.3199C14.7413 62.0368 17.3167 62.4599 18.8142 62.5279L18.9958 58.5321C17.8533 58.4801 15.5687 58.1232 12.0136 57.4001L11.2164 61.3199ZM18.8181 62.5281C20.4101 62.5973 21.9027 62.3972 23.2166 61.8223L21.6134 58.1577C21.0073 58.4228 20.1599 58.5827 18.9919 58.5319L18.8181 62.5281ZM23.0396 61.89C25.3069 61.1446 27.1901 60.3333 28.6161 59.429C30.0032 58.5494 31.2185 57.4171 31.6991 55.922L27.8909 54.698C27.8315 54.8829 27.5468 55.3706 26.4739 56.051C25.4399 56.7067 23.9031 57.3954 21.7904 58.09L23.0396 61.89ZM31.7181 55.8594C32.0757 54.6078 31.8107 53.3881 31.2467 52.3251C30.6986 51.2921 29.8279 50.3187 28.772 49.3948L26.138 52.4052C27.0021 53.1613 27.4814 53.7629 27.7133 54.1999C27.9293 54.6069 27.8743 54.7522 27.872 54.7606L31.7181 55.8594ZM28.8116 49.4304C27.9757 48.6588 27.0525 47.8956 26.045 47.14L23.645 50.34C24.5575 51.0244 25.3743 51.7012 26.0984 52.3696L28.8116 49.4304ZM26.045 47.14C25.1625 46.4781 24.4494 45.8395 23.8893 45.2285L20.9407 47.9314C21.7006 48.7605 22.6075 49.5619 23.645 50.34L26.045 47.14ZM23.6047 44.9723C20.7916 42.8906 18.6079 40.5292 17.0168 37.8958L13.5932 39.9642C15.4821 43.0908 18.0384 45.8294 21.2253 48.1877L23.6047 44.9723ZM17.0415 37.9377C15.5667 35.3568 14.9624 32.5848 15.2273 29.5648L11.2427 29.2152C10.9076 33.0352 11.6833 36.6232 13.5685 39.9223L17.0415 37.9377ZM15.2273 29.5648C15.5178 26.2535 16.0622 23.6289 16.8156 21.6378L13.0744 20.2222C12.1478 22.6711 11.5522 25.6865 11.2427 29.2152L15.2273 29.5648ZM16.8217 21.6214C17.6066 19.4909 18.5751 17.6471 19.7149 16.073L16.4751 13.727C15.0949 15.6329 13.9634 17.8091 13.0683 20.2386L16.8217 21.6214ZM19.7138 16.0745C21.7471 13.2718 24.3936 10.9751 27.6885 9.18806L25.7815 5.67193C21.9964 7.72485 18.8829 10.4081 16.4762 13.7255L19.7138 16.0745ZM27.6503 9.20827C31.6837 7.13224 34.7884 5.86706 37.0189 5.32304L36.0711 1.43696C33.3816 2.09294 29.9463 3.52775 25.8197 5.65172L27.6503 9.20827ZM36.9789 5.33237C41.575 4.31101 46.2265 4.22459 50.9493 5.07812L51.6607 1.14188C46.4235 0.1954 41.235 0.288986 36.1111 1.42763L36.9789 5.33237ZM50.9534 5.07885C52.3944 5.33616 53.5522 5.81036 54.4781 6.45846L56.7719 3.18153C55.2978 2.14964 53.5756 1.48383 51.6566 1.14114L50.9534 5.07885ZM54.4781 6.45846C55.6598 7.28563 56.8421 8.14279 58.025 9.02999L60.425 5.82999C59.2079 4.9172 57.9903 4.03436 56.7719 3.18153L54.4781 6.45846ZM57.8108 8.84421C58.6895 9.72292 59.0939 10.4685 59.2375 11.0682C59.3714 11.6277 59.3188 12.2202 58.9661 12.9256L62.5439 14.7144C63.2712 13.2598 63.5036 11.7073 63.1275 10.1368C62.7611 8.60649 61.8605 7.23707 60.6392 6.01578L57.8108 8.84421ZM58.9227 13.0184C58.6613 13.6158 58.2579 14.101 57.6656 14.4959L59.8844 17.8241C61.0921 17.019 62.0087 15.9441 62.5873 14.6216L58.9227 13.0184ZM57.6656 14.4959C57.0429 14.911 56.4223 15.1155 55.7775 15.1535L56.0125 19.1465C57.4077 19.0645 58.7071 18.609 59.8844 17.8241L57.6656 14.4959ZM53.9005 17.2977C54.001 18.6555 53.7096 19.1939 53.5254 19.3934L56.4646 22.1066C57.7204 20.7461 58.029 18.8845 57.8895 17.0023L53.9005 17.2977ZM53.5808 19.3358C52.6794 20.2372 50.8306 21.0622 47.5512 21.4649L48.0388 25.4351C51.5994 24.9978 54.5506 24.0228 56.4092 22.1642L53.5808 19.3358ZM47.941 21.4553C45.4219 21.271 43.249 21.2428 41.4459 21.389C39.6768 21.5325 38.1016 21.8549 36.8862 22.4836L38.7238 26.0364C39.2484 25.7651 40.2082 25.5025 41.7691 25.376C43.296 25.2522 45.2481 25.269 47.6491 25.4447L47.941 21.4553ZM36.8692 22.4924C33.6768 24.1825 32.9956 27.6999 33.5771 31.5767L37.5329 30.9833C37.0344 27.6601 37.8532 26.4974 38.7408 26.0276L36.8692 22.4924ZM33.5783 31.5841C33.7882 32.9489 34.5839 34.1273 35.5808 35.1242L38.4092 32.2958C37.7261 31.6127 37.5618 31.1711 37.5317 30.9759L33.5783 31.5841ZM35.6304 35.1721C36.5598 36.0395 37.6059 36.9623 38.7667 37.9398L41.3433 34.8802C40.2241 33.9377 39.2302 33.0605 38.3596 32.2479L35.6304 35.1721ZM38.8056 37.9717C39.9553 38.8915 41.142 39.9329 42.3657 41.0983L45.1243 38.2017C43.828 36.9671 42.5547 35.8485 41.3044 34.8483L38.8056 37.9717ZM42.3997 41.1299C43.5769 42.2001 44.5975 43.4339 45.4617 44.8382L48.8683 42.7418C47.8125 41.0261 46.5531 39.4999 45.0903 38.1701L42.3997 41.1299ZM45.4566 44.8299C48.3427 49.5714 48.2675 55.2404 44.5867 62.2055L48.1233 64.0745C52.2425 56.2796 52.7073 49.0486 48.8734 42.7501L45.4566 44.8299ZM44.5818 62.2149C41.9668 67.227 37.4662 71.0803 30.8578 73.7008L32.3323 77.4192C39.6439 74.5197 44.9832 70.093 48.1282 64.0651L44.5818 62.2149ZM30.8522 73.703C27.5426 75.0269 23.5462 75.72 18.815 75.72V79.72C23.9238 79.72 28.4474 78.9731 32.3378 77.417L30.8522 73.703ZM91.1532 33.89H89.1532V35.4516L90.6681 35.8303L91.1532 33.89ZM91.5132 33.98L91.0281 35.9203L91.267 35.98H91.5132V33.98ZM91.6932 34.07H89.6932V36.9821L92.4112 35.9367L91.6932 34.07ZM95.5632 35.42L97.2423 34.3335L97.2299 34.3143L97.2171 34.2954L95.5632 35.42ZM97.0932 40.1L99.0915 40.0167L99.0861 39.8885L99.0645 39.7621L97.0932 40.1ZM96.1932 52.07L94.2128 51.7904L94.2118 51.7977L94.2108 51.8049L96.1932 52.07ZM93.9432 70.52L91.9469 70.399L91.9397 70.5165L91.9465 70.6341L93.9432 70.52ZM90.0732 74.84L89.5181 72.9186L89.5015 72.9234L89.485 72.9284L90.0732 74.84ZM83.0532 74.75L82.4069 76.6427L82.4138 76.6451L82.4208 76.6474L83.0532 74.75ZM79.9932 70.88L81.9374 71.3493L78.2285 69.9388L79.9932 70.88ZM78.5532 72.77L77.3532 71.17L77.2929 71.2152L77.2362 71.2648L78.5532 72.77ZM75.6732 74.39L74.8399 72.5719L74.7934 72.5932L74.7481 72.6168L75.6732 74.39ZM69.7332 76.1L69.4119 74.126L69.3896 74.1296L69.3674 74.1337L69.7332 76.1ZM61.9932 76.46L62.1785 74.4686L62.1554 74.4665L62.1324 74.4649L61.9932 76.46ZM54.8832 74.57L55.7776 72.7811L55.7674 72.776L55.757 72.771L54.8832 74.57ZM50.6532 69.71L48.748 70.3186L48.7508 70.327L50.6532 69.71ZM51.1932 53.24L49.2643 52.7115L49.2612 52.723L49.2582 52.7344L51.1932 53.24ZM57.6732 41.63L56.2141 40.2621L56.2076 40.2691L57.6732 41.63ZM69.9132 32.09L68.9576 30.333L68.9458 30.3395L69.9132 32.09ZM79.8132 28.76L79.5923 26.7722L79.5882 26.7727L79.8132 28.76ZM82.6032 28.85L82.1535 30.7988L82.1688 30.8023L82.1842 30.8056L82.6032 28.85ZM85.2132 29.39L84.821 31.3512L84.8328 31.3535L84.8446 31.3557L85.2132 29.39ZM87.9132 30.2L87.1254 32.0383L87.1347 32.0423L87.144 32.0462L87.9132 30.2ZM74.5032 57.74L72.7143 56.8456L76.1032 58.94L74.5032 57.74ZM75.4932 54.59L73.5476 54.1268L73.537 54.1711L73.5285 54.2158L75.4932 54.59ZM76.6632 50.45L78.5681 51.0596L79.8726 46.9829L75.9086 48.5978L76.6632 50.45ZM65.5032 57.74L64.0135 56.4055L64.0068 56.413L65.5032 57.74ZM66.0432 64.31L65.3371 66.1812L65.436 66.2185L65.5384 66.2452L66.0432 64.31ZM72.0732 62.96L73.6519 64.1879L73.6627 64.174L73.6732 64.16L72.0732 62.96ZM73.5132 60.26L75.3772 60.9849L73.5132 60.26ZM75.0432 56.93L76.813 57.8615L73.3282 55.901L75.0432 56.93ZM90.6681 35.8303L91.0281 35.9203L91.9983 32.0397L91.6383 31.9497L90.6681 35.8303ZM91.5132 35.98C91.4711 35.98 91.1417 35.9853 90.7538 35.7913C90.5315 35.6802 90.2447 35.4802 90.0178 35.14C89.7827 34.7873 89.6932 34.405 89.6932 34.07H93.6932C93.6932 33.705 93.5962 33.2965 93.3461 32.9212C93.1043 32.5585 92.7949 32.3398 92.5426 32.2136C92.0947 31.9897 91.6754 31.98 91.5132 31.98V35.98ZM92.4112 35.9367C92.8518 35.7672 93.0677 35.8095 93.172 35.8459C93.2974 35.8897 93.5621 36.0339 93.9094 36.5446L97.2171 34.2954C96.5443 33.3061 95.654 32.4753 94.4894 32.0691C93.3037 31.6555 92.0946 31.7728 90.9753 32.2033L92.4112 35.9367ZM93.8841 36.5065C94.3255 37.1887 94.7784 38.4337 95.122 40.4379L99.0645 39.7621C98.688 37.5663 98.1209 35.6913 97.2423 34.3335L93.8841 36.5065ZM95.0949 40.1833C95.2074 42.8829 94.9269 46.7327 94.2128 51.7904L98.1736 52.3496C98.8995 47.2073 99.219 43.0771 99.0915 40.0167L95.0949 40.1833ZM94.2108 51.8049C92.8361 62.0855 92.0724 68.3275 91.9469 70.399L95.9395 70.641C96.054 68.7525 96.7903 62.6945 98.1756 52.3351L94.2108 51.8049ZM91.9465 70.6341C91.9791 71.2046 91.8331 71.5536 91.576 71.8405C91.2704 72.1817 90.662 72.5881 89.5181 72.9186L90.6283 76.7614C92.1844 76.3119 93.571 75.6083 94.5554 74.5095C95.5883 73.3564 96.0274 71.9354 95.9399 70.4059L91.9465 70.6341ZM89.485 72.9284C87.5466 73.5249 85.6334 73.5019 83.6857 72.8526L82.4208 76.6474C85.153 77.5581 87.9198 77.5951 90.6614 76.7516L89.485 72.9284ZM83.6995 72.8573C82.6398 72.4955 82.1824 72.1275 82.012 71.912C81.9407 71.8218 81.9195 71.7597 81.9101 71.7121C81.8996 71.6589 81.8895 71.5475 81.9374 71.3493L78.049 70.4107C77.7095 71.8174 77.9462 73.2191 78.8744 74.393C79.724 75.4675 81.0066 76.1645 82.4069 76.6427L83.6995 72.8573ZM78.2285 69.9388C77.8027 70.7371 77.4896 71.0677 77.3532 71.17L79.7532 74.37C80.5768 73.7523 81.2237 72.8229 81.7579 71.8212L78.2285 69.9388ZM77.2362 71.2648C77.0003 71.4713 76.2882 71.9081 74.8399 72.5719L76.5065 76.2081C77.9382 75.5519 79.1462 74.9087 79.8702 74.2752L77.2362 71.2648ZM74.7481 72.6168C73.6427 73.1936 71.9038 73.7203 69.4119 74.126L70.0546 78.074C72.7226 77.6397 74.9437 77.0265 76.5983 76.1632L74.7481 72.6168ZM69.3674 74.1337C66.9667 74.5804 64.5721 74.6913 62.1785 74.4686L61.808 78.4514C64.5743 78.7087 67.3397 78.5796 70.099 78.0663L69.3674 74.1337ZM62.1324 74.4649C59.7964 74.3019 57.6856 73.7351 55.7776 72.7811L53.9888 76.3589C56.4008 77.5649 59.03 78.2581 61.854 78.4551L62.1324 74.4649ZM55.757 72.771C54.1462 71.9886 53.1077 70.7953 52.5556 69.093L48.7508 70.327C49.6387 73.0647 51.4202 75.1114 54.0094 76.369L55.757 72.771ZM52.5584 69.1014C51.3389 65.2838 51.438 60.2153 53.1283 53.7456L49.2582 52.7344C47.4684 59.5847 47.2076 65.4962 48.7481 70.3186L52.5584 69.1014ZM53.1221 53.7685C54.2361 49.7023 56.2358 46.1172 59.1388 42.9909L56.2076 40.2691C52.8706 43.8628 50.5503 48.0177 49.2643 52.7115L53.1221 53.7685ZM59.1323 42.9979C62.5909 39.3087 66.5054 36.2584 70.8806 33.8405L68.9458 30.3395C64.201 32.9616 59.9555 36.2713 56.2141 40.2621L59.1323 42.9979ZM70.8688 33.847C74.11 32.0842 77.1632 31.0728 80.0382 30.7473L79.5882 26.7727C76.1032 27.1672 72.5564 28.3758 68.9577 30.333L70.8688 33.847ZM80.0341 30.7478C80.9646 30.6444 81.6561 30.684 82.1535 30.7988L83.0529 26.9012C81.9903 26.656 80.8218 26.6356 79.5923 26.7722L80.0341 30.7478ZM82.1842 30.8056C83.0337 30.9876 83.9126 31.1695 84.821 31.3512L85.6054 27.4288C84.7138 27.2505 83.8528 27.0724 83.0223 26.8944L82.1842 30.8056ZM84.8446 31.3557C85.6704 31.5106 86.4289 31.7398 87.1254 32.0383L88.701 28.3617C87.7175 27.9402 86.676 27.6294 85.5818 27.4243L84.8446 31.3557ZM87.144 32.0462C88.9886 32.8147 89.1532 33.5188 89.1532 33.89H93.1532C93.1532 31.1412 91.1578 29.3853 88.6824 28.3538L87.144 32.0462ZM76.2921 58.6344C76.8181 57.5823 77.1951 56.3438 77.4579 54.9642L73.5285 54.2158C73.3113 55.3561 73.0283 56.2177 72.7143 56.8456L76.2921 58.6344ZM77.4388 55.0532C77.7249 53.8517 78.1003 52.5212 78.5681 51.0596L74.7584 49.8404C74.2661 51.3788 73.8615 52.8083 73.5476 54.1268L77.4388 55.0532ZM75.9086 48.5978C70.8627 50.6535 66.8551 53.2336 64.0135 56.4055L66.9929 59.0745C69.3114 56.4864 72.7437 54.2065 77.4178 52.3022L75.9086 48.5978ZM64.0068 56.413C62.5351 58.0726 61.3683 59.9646 61.5299 61.9313C61.7143 64.1742 63.464 65.4744 65.3371 66.1812L66.7493 62.4388C66.1172 62.2002 65.7923 61.9689 65.6412 61.8165C65.5219 61.6961 65.5195 61.6403 65.5165 61.6037C65.4981 61.3804 65.6513 60.5874 66.9996 59.067L64.0068 56.413ZM65.5384 66.2452C68.7149 67.0739 71.7087 66.6862 73.6519 64.1879L70.4945 61.7321C69.9177 62.4738 68.8915 62.9861 66.548 62.3748L65.5384 66.2452ZM73.6732 64.16C74.3485 63.2596 74.9091 62.1886 75.3772 60.9849L71.6492 59.5351C71.2773 60.4914 70.8779 61.2204 70.4732 61.76L73.6732 64.16ZM75.3772 60.9849C75.7669 59.9828 76.2445 58.9418 76.813 57.8615L73.2734 55.9985C72.6419 57.1982 72.0995 58.3772 71.6492 59.5351L75.3772 60.9849ZM73.3282 55.901C73.1779 56.1515 73.0359 56.3631 72.9032 56.54L76.1032 58.94C76.3305 58.6369 76.5485 58.3085 76.7582 57.959L73.3282 55.901ZM116.275 35.69L115.766 37.6241L117.147 37.9876L117.939 36.7994L116.275 35.69ZM128.785 27.59L129.118 29.5622L129.125 29.5609L128.785 27.59ZM135.175 26.96L135.082 24.9622L135.08 24.9623L135.175 26.96ZM141.745 28.67L140.598 30.3085L140.611 30.3172L140.623 30.3258L141.745 28.67ZM145.885 33.53L147.715 32.7235L147.711 32.7129L147.706 32.7024L145.885 33.53ZM146.605 46.58L148.561 46.9962L148.563 46.9897L146.605 46.58ZM144.445 55.94L146.385 56.4251L146.387 56.417L144.445 55.94ZM140.665 65.93L138.883 65.0226L140.665 65.93ZM134.095 75.2L132.636 73.8321L134.095 75.2ZM123.565 82.04L122.84 80.176L122.83 80.1801L123.565 82.04ZM116.725 83.12L117.025 81.1426L116.999 81.1387L116.973 81.1354L116.725 83.12ZM110.425 79.61L112.311 78.9444L110.42 73.5851L108.538 78.9478L110.425 79.61ZM107.005 89.96L105.095 89.3672L105.089 89.3867L105.083 89.4063L107.005 89.96ZM102.865 100.04L103.955 101.717L104.378 101.442L104.62 101L102.865 100.04ZM98.4552 101.75L98.0499 99.7915L98.0178 99.7981L97.9859 99.8058L98.4552 101.75ZM93.3252 101.48L93.9978 99.5965L93.9677 99.5857L93.9372 99.5759L93.3252 101.48ZM89.7252 98.42L91.5282 97.5545L91.507 97.5104L91.4837 97.4674L89.7252 98.42ZM90.2652 85.1L92.1591 85.7426L92.1602 85.7393L90.2652 85.1ZM94.4052 73.58L96.2621 74.3228L96.2693 74.3049L96.2761 74.2868L94.4052 73.58ZM96.3852 68.36L98.2519 69.078L98.2605 69.0554L98.2686 69.0327L96.3852 68.36ZM97.2852 65.75L95.4152 65.0407L95.4007 65.0788L95.3878 65.1175L97.2852 65.75ZM100.165 57.29L98.2481 56.7201L98.243 56.7373L98.2381 56.7547L100.165 57.29ZM101.965 51.53L103.863 52.1625L103.965 51.8546V51.53H101.965ZM101.965 51.44L100.015 50.9968L99.9652 51.2156V51.44H101.965ZM104.755 43.07L102.925 42.2645L102.921 42.2733L102.917 42.2822L104.755 43.07ZM107.455 37.58L106.041 36.1658L105.93 36.2767L105.838 36.4037L107.455 37.58ZM110.605 35.69L111.039 37.6424H111.039L110.605 35.69ZM114.295 35.24V33.24H114.252L114.208 33.2419L114.295 35.24ZM114.565 35.24L115.074 33.3058L114.824 33.24H114.565V35.24ZM123.115 50.72L124.852 51.7123L125.057 51.3526L125.103 50.9409L123.115 50.72ZM119.515 54.23L118.434 52.5476L117.918 52.879L117.677 53.4422L119.515 54.23ZM118.705 56.12L116.867 55.3322L116.852 55.3668L116.838 55.402L118.705 56.12ZM116.995 60.89L115.098 60.2575L116.995 60.89ZM115.195 65.66L113.353 64.8807L112.828 66.1215L113.781 67.0742L115.195 65.66ZM116.545 67.37L114.797 68.3413L115.999 70.5053L117.862 68.8752L116.545 67.37ZM125.725 55.76L127.459 56.7569L127.47 56.7374L127.481 56.7177L125.725 55.76ZM127.795 49.82L125.827 49.4622L125.822 49.4912L125.818 49.5204L127.795 49.82ZM128.065 46.04L126.168 46.6725V46.6725L128.065 46.04ZM125.995 45.59L126.89 47.3788L126.939 47.354L126.987 47.3265L125.995 45.59ZM125.095 46.22L123.681 44.8058L123.681 44.8058L125.095 46.22ZM125.185 46.22L126.712 47.5119L123.985 44.62L125.185 46.22ZM123.745 48.29L125.493 49.2613L125.515 49.2233L125.534 49.1844L123.745 48.29ZM117.939 36.7994C120.633 32.759 124.321 30.3707 129.118 29.5622L128.453 25.6178C122.57 26.6093 117.917 29.621 114.611 34.5806L117.939 36.7994ZM129.125 29.5609C130.758 29.2794 132.801 29.0753 135.27 28.9577L135.08 24.9623C132.51 25.0847 130.292 25.3006 128.445 25.6191L129.125 29.5609ZM135.268 28.9578C137.487 28.8546 139.221 29.3446 140.598 30.3085L142.892 27.0315C140.669 25.4754 138.023 24.8254 135.082 24.9622L135.268 28.9578ZM140.623 30.3258C142.189 31.3865 143.322 32.7242 144.064 34.3576L147.706 32.7024C146.648 30.3758 145.021 28.4735 142.867 27.0142L140.623 30.3258ZM144.055 34.3365C145.395 37.3778 145.672 41.2737 144.648 46.1703L148.563 46.9897C149.698 41.5663 149.495 36.7622 147.715 32.7235L144.055 34.3365ZM144.649 46.1638C144.054 48.9596 143.339 52.0589 142.503 55.463L146.387 56.417C147.231 52.9811 147.956 49.8404 148.561 46.9962L144.649 46.1638ZM142.505 55.4549C141.704 58.659 140.499 61.8478 138.883 65.0226L142.447 66.8374C144.191 63.4122 145.506 59.941 146.385 56.4251L142.505 55.4549ZM138.883 65.0226C137.294 68.1439 135.216 71.0806 132.636 73.8321L135.554 76.5679C138.375 73.5594 140.677 70.3161 142.447 66.8374L138.883 65.0226ZM132.636 73.8321C130.173 76.4591 126.93 78.5856 122.84 80.176L124.29 83.904C128.841 82.1344 132.617 79.7009 135.554 76.5679L132.636 73.8321ZM122.83 80.1801C120.458 81.118 118.546 81.3731 117.025 81.1426L116.426 85.0974C118.864 85.4669 121.513 85.002 124.3 83.8999L122.83 80.1801ZM116.973 81.1354C115.146 80.907 114.009 80.5577 113.386 80.2068L111.425 83.6932C112.721 84.4223 114.465 84.853 116.477 85.1046L116.973 81.1354ZM113.386 80.2068C112.84 79.8997 112.507 79.4982 112.311 78.9444L108.539 80.2756C109.064 81.7618 110.051 82.9203 111.425 83.6932L113.386 80.2068ZM108.538 78.9478C107.33 82.3909 106.182 85.8641 105.095 89.3672L108.915 90.5528C109.988 87.0959 111.12 83.6691 112.312 80.2722L108.538 78.9478ZM105.083 89.4063C104.103 92.8074 102.779 96.0309 101.111 99.08L104.62 101C106.431 97.6891 107.867 94.1926 108.927 90.5137L105.083 89.4063ZM101.775 98.3631C100.828 98.979 99.603 99.4702 98.0499 99.7915L98.8604 103.709C100.787 103.31 102.503 102.661 103.955 101.717L101.775 98.3631ZM97.9859 99.8058C96.623 100.135 95.3099 100.065 93.9978 99.5965L92.6525 103.363C94.7004 104.095 96.8074 104.205 98.9244 103.694L97.9859 99.8058ZM93.9372 99.5759C92.7445 99.1926 91.9949 98.5269 91.5282 97.5545L87.9221 99.2855C88.8954 101.313 90.5458 102.687 92.7131 103.384L93.9372 99.5759ZM91.4837 97.4674C90.8721 96.3382 90.5552 95.0788 90.5552 93.65H86.5552C86.5552 95.7012 87.0182 97.6218 87.9666 99.3726L91.4837 97.4674ZM90.5552 93.65C90.5552 91.6106 91.0569 88.9911 92.1591 85.7426L88.3712 84.4574C87.1934 87.9289 86.5552 91.0094 86.5552 93.65H90.5552ZM92.1602 85.7393C93.8362 80.7712 95.2025 76.9718 96.2621 74.3228L92.5482 72.8372C91.4478 75.5882 90.0541 79.4688 88.3701 84.4607L92.1602 85.7393ZM96.2761 74.2868C97.2967 71.5853 97.9544 69.8513 98.2519 69.078L94.5185 67.642C94.2159 68.4287 93.5536 70.1747 92.5342 72.8732L96.2761 74.2868ZM98.2686 69.0327C98.5737 68.1785 98.8783 67.2951 99.1825 66.3825L95.3878 65.1175C95.092 66.0049 94.7966 66.8615 94.5017 67.6873L98.2686 69.0327ZM99.1552 66.4593C100.485 62.9541 101.469 60.0698 102.092 57.8253L98.2381 56.7547C97.6616 58.8302 96.7256 61.5859 95.4152 65.0407L99.1552 66.4593ZM102.082 57.8599C102.738 55.6541 103.331 53.7559 103.863 52.1625L100.068 50.8975C99.519 52.5441 98.9123 54.4859 98.2481 56.7201L102.082 57.8599ZM103.965 51.53V51.44H99.9652V51.53H103.965ZM103.915 51.8832C104.484 49.3802 105.373 46.706 106.593 43.8578L102.917 42.2822C101.618 45.314 100.646 48.2198 100.015 50.9968L103.915 51.8832ZM106.586 43.8755C107.24 42.3879 107.783 41.2092 108.215 40.3301C108.667 39.4105 108.946 38.931 109.073 38.7563L105.838 36.4037C105.485 36.889 105.073 37.6545 104.625 38.5649C104.158 39.5158 103.59 40.7521 102.925 42.2645L106.586 43.8755ZM108.869 38.9942C109.701 38.1628 110.428 37.7783 111.039 37.6424L110.171 33.7376C108.623 34.0817 107.25 34.9572 106.041 36.1658L108.869 38.9942ZM111.039 37.6424C111.981 37.4331 113.091 37.2942 114.382 37.2381L114.208 33.2419C112.739 33.3058 111.389 33.4669 110.171 33.7376L111.039 37.6424ZM114.295 37.24H114.565V33.24H114.295V37.24ZM114.056 37.1741L115.766 37.6241L116.784 33.7559L115.074 33.3058L114.056 37.1741ZM121.379 49.7277C120.867 50.6233 119.94 51.5796 118.434 52.5476L120.597 55.9124C122.451 54.7204 123.923 53.3367 124.852 51.7123L121.379 49.7277ZM117.677 53.4422L116.867 55.3322L120.543 56.9078L121.353 55.0178L117.677 53.4422ZM116.838 55.402C116.227 56.9909 115.647 58.6094 115.098 60.2575L118.893 61.5225C119.423 59.9306 119.983 58.3691 120.572 56.838L116.838 55.402ZM115.098 60.2575C114.574 61.8283 113.993 63.3693 113.353 64.8807L117.037 66.4393C117.718 64.8307 118.336 63.1917 118.893 61.5225L115.098 60.2575ZM113.781 67.0742C114.295 67.5881 114.614 68.0115 114.797 68.3413L118.293 66.3987C117.877 65.6485 117.296 64.9319 116.609 64.2458L113.781 67.0742ZM117.862 68.8752C121.423 65.7598 124.614 61.7041 127.459 56.7569L123.991 54.7631C121.316 59.4159 118.388 63.1002 115.228 65.8648L117.862 68.8752ZM127.481 56.7177C128.659 54.5586 129.434 52.3574 129.773 50.1196L125.818 49.5204C125.557 51.2426 124.952 53.0014 123.969 54.8023L127.481 56.7177ZM129.763 50.1778C129.949 49.1529 130.075 48.264 130.128 47.5325C130.174 46.8828 130.188 46.0842 129.963 45.4075L126.168 46.6725C126.132 46.5654 126.145 46.5438 126.152 46.6799C126.158 46.7993 126.157 46.9838 126.138 47.2475C126.1 47.776 126.001 48.5071 125.827 49.4622L129.763 50.1778ZM129.963 45.4075C129.806 44.9367 129.535 44.3882 129.043 43.9459C128.51 43.4659 127.847 43.23 127.165 43.23V47.23C127.053 47.23 126.91 47.2112 126.755 47.1533C126.6 47.0949 126.469 47.0105 126.367 46.9191C126.176 46.7468 126.145 46.6033 126.168 46.6725L129.963 45.4075ZM127.165 43.23C126.358 43.23 125.625 43.498 125.003 43.8535L126.987 47.3265C127.205 47.202 127.253 47.23 127.165 47.23V43.23ZM125.101 43.8011C124.583 44.0599 124.098 44.3885 123.681 44.8058L126.509 47.6342C126.572 47.5714 126.687 47.4801 126.89 47.3788L125.101 43.8011ZM123.681 44.8058C123.631 44.856 123.544 44.9439 123.463 45.0409C123.45 45.0561 123.309 45.2196 123.192 45.4521C123.157 45.5233 123.099 45.6494 123.053 45.815C123.012 45.9612 122.94 46.2804 123.007 46.6817C123.085 47.1526 123.351 47.6718 123.871 48.0186C124.322 48.3195 124.765 48.355 124.983 48.355C125.385 48.355 125.685 48.2293 125.734 48.2098C125.839 48.1676 125.92 48.1249 125.961 48.1023C126.048 48.0553 126.118 48.0096 126.154 47.9853C126.234 47.9319 126.316 47.872 126.385 47.82L123.985 44.62C123.934 44.658 123.922 44.6656 123.935 44.6572C123.938 44.6554 123.98 44.6265 124.046 44.5908C124.077 44.5739 124.149 44.5353 124.248 44.4959C124.289 44.4793 124.584 44.355 124.983 44.355C125.198 44.355 125.64 44.3901 126.09 44.6904C126.609 45.0365 126.874 45.5545 126.952 46.0241C127.019 46.424 126.947 46.7414 126.907 46.8856C126.861 47.049 126.804 47.1726 126.77 47.241C126.702 47.3767 126.634 47.4724 126.609 47.507C126.577 47.5518 126.55 47.5848 126.536 47.6016C126.493 47.6536 126.47 47.674 126.509 47.6342L123.681 44.8058ZM123.658 44.9281C122.943 45.7735 122.354 46.5996 121.956 47.3956L125.534 49.1844C125.736 48.7804 126.107 48.2265 126.712 47.5119L123.658 44.9281ZM121.997 47.3187C121.505 48.2037 121.258 49.3252 121.127 50.4991L125.103 50.9409C125.212 49.9547 125.385 49.4563 125.493 49.2613L121.997 47.3187ZM165.585 35.69L165.076 37.6241L166.457 37.9876L167.249 36.7994L165.585 35.69ZM178.095 27.59L178.428 29.5622L178.435 29.5609L178.095 27.59ZM184.485 26.96L184.392 24.9622L184.39 24.9623L184.485 26.96ZM191.055 28.67L189.908 30.3085L189.921 30.3172L189.934 30.3258L191.055 28.67ZM195.195 33.53L197.025 32.7235L197.021 32.7129L197.016 32.7024L195.195 33.53ZM195.915 46.58L197.872 46.9962L197.873 46.9897L195.915 46.58ZM193.755 55.94L195.696 56.4251L195.698 56.417L193.755 55.94ZM189.975 65.93L188.193 65.0226L189.975 65.93ZM183.405 75.2L181.946 73.8321L183.405 75.2ZM172.875 82.04L172.15 80.176L172.14 80.1801L172.875 82.04ZM166.035 83.12L166.335 81.1426L166.309 81.1387L166.283 81.1354L166.035 83.12ZM159.735 79.61L161.621 78.9444L159.73 73.5851L157.848 78.9478L159.735 79.61ZM156.315 89.96L154.405 89.3672L154.399 89.3867L154.393 89.4063L156.315 89.96ZM152.175 100.04L153.265 101.717L153.688 101.442L153.93 101L152.175 100.04ZM147.765 101.75L147.36 99.7915L147.328 99.7981L147.296 99.8058L147.765 101.75ZM142.635 101.48L143.308 99.5965L143.278 99.5857L143.247 99.5759L142.635 101.48ZM139.035 98.42L140.838 97.5545L140.817 97.5104L140.794 97.4674L139.035 98.42ZM139.575 85.1L141.469 85.7426L141.47 85.7393L139.575 85.1ZM143.715 73.58L145.572 74.3228L145.579 74.3049L145.586 74.2868L143.715 73.58ZM145.695 68.36L147.562 69.078L147.571 69.0554L147.579 69.0327L145.695 68.36ZM146.595 65.75L144.725 65.0407L144.711 65.0788L144.698 65.1175L146.595 65.75ZM149.475 57.29L147.558 56.7201L147.553 56.7373L147.548 56.7547L149.475 57.29ZM151.275 51.53L153.173 52.1625L153.275 51.8546V51.53H151.275ZM151.275 51.44L149.325 50.9968L149.275 51.2156V51.44H151.275ZM154.065 43.07L152.235 42.2645L152.231 42.2733L152.227 42.2822L154.065 43.07ZM156.765 37.58L155.351 36.1658L155.24 36.2767L155.148 36.4037L156.765 37.58ZM159.915 35.69L160.349 37.6424L159.915 35.69ZM163.605 35.24V33.24H163.562L163.518 33.2419L163.605 35.24ZM163.875 35.24L164.384 33.3058L164.134 33.24H163.875V35.24ZM172.425 50.72L174.162 51.7123L174.367 51.3526L174.413 50.9409L172.425 50.72ZM168.825 54.23L167.744 52.5476L167.228 52.879L166.987 53.4422L168.825 54.23ZM168.015 56.12L166.177 55.3322L166.162 55.3668L166.149 55.402L168.015 56.12ZM166.305 60.89L164.408 60.2575L166.305 60.89ZM164.505 65.66L162.663 64.8807L162.138 66.1215L163.091 67.0742L164.505 65.66ZM165.855 67.37L164.107 68.3413L165.309 70.5053L167.172 68.8752L165.855 67.37ZM175.035 55.76L176.769 56.7569L176.78 56.7374L176.791 56.7177L175.035 55.76ZM177.105 49.82L175.138 49.4622L175.132 49.4912L175.128 49.5204L177.105 49.82ZM177.375 46.04L175.478 46.6725L175.478 46.6725L177.375 46.04ZM175.305 45.59L176.2 47.3788L176.249 47.354L176.298 47.3265L175.305 45.59ZM174.405 46.22L172.991 44.8058L172.991 44.8058L174.405 46.22ZM174.495 46.22L176.022 47.5119L173.295 44.62L174.495 46.22ZM173.055 48.29L174.804 49.2613L174.825 49.2233L174.844 49.1844L173.055 48.29ZM167.249 36.7994C169.943 32.759 173.631 30.3707 178.428 29.5622L177.763 25.6178C171.88 26.6093 167.228 29.621 163.921 34.5806L167.249 36.7994ZM178.435 29.5609C180.068 29.2794 182.111 29.0753 184.58 28.9577L184.39 24.9623C181.82 25.0847 179.603 25.3006 177.755 25.6191L178.435 29.5609ZM184.578 28.9578C186.797 28.8546 188.531 29.3446 189.908 30.3085L192.202 27.0315C189.979 25.4754 187.334 24.8254 184.392 24.9622L184.578 28.9578ZM189.934 30.3258C191.499 31.3865 192.632 32.7242 193.375 34.3576L197.016 32.7024C195.959 30.3758 194.331 28.4735 192.177 27.0142L189.934 30.3258ZM193.365 34.3365C194.705 37.3778 194.983 41.2737 193.958 46.1703L197.873 46.9897C199.008 41.5663 198.805 36.7622 197.025 32.7235L193.365 34.3365ZM193.959 46.1638C193.364 48.9596 192.649 52.0589 191.813 55.463L195.698 56.417C196.542 52.9811 197.266 49.8404 197.872 46.9962L193.959 46.1638ZM191.815 55.4549C191.014 58.659 189.809 61.8478 188.193 65.0226L191.758 66.8374C193.501 63.4122 194.817 59.941 195.696 56.4251L191.815 55.4549ZM188.193 65.0226C186.604 68.1439 184.526 71.0806 181.946 73.8321L184.864 76.5679C187.685 73.5594 189.987 70.3161 191.758 66.8374L188.193 65.0226ZM181.946 73.8321C179.483 76.4591 176.24 78.5856 172.15 80.176L173.6 83.904C178.151 82.1344 181.927 79.7009 184.864 76.5679L181.946 73.8321ZM172.14 80.1801C169.768 81.118 167.856 81.3731 166.335 81.1426L165.736 85.0974C168.174 85.4669 170.823 85.002 173.611 83.8999L172.14 80.1801ZM166.283 81.1354C164.456 80.907 163.32 80.5577 162.696 80.2068L160.735 83.6932C162.031 84.4223 163.775 84.853 165.787 85.1046L166.283 81.1354ZM162.696 80.2068C162.15 79.8997 161.817 79.4982 161.621 78.9444L157.849 80.2756C158.374 81.7618 159.361 82.9203 160.735 83.6932L162.696 80.2068ZM157.848 78.9478C156.64 82.3909 155.492 85.8641 154.405 89.3672L158.225 90.5528C159.298 87.0959 160.431 83.6691 161.623 80.2722L157.848 78.9478ZM154.393 89.4063C153.413 92.8074 152.089 96.0309 150.421 99.08L153.93 101C155.742 97.6891 157.177 94.1926 158.237 90.5137L154.393 89.4063ZM151.085 98.3631C150.138 98.979 148.913 99.4702 147.36 99.7915L148.171 103.709C150.098 103.31 151.813 102.661 153.265 101.717L151.085 98.3631ZM147.296 99.8058C145.933 100.135 144.62 100.065 143.308 99.5965L141.963 103.363C144.011 104.095 146.118 104.205 148.235 103.694L147.296 99.8058ZM143.247 99.5759C142.055 99.1926 141.305 98.5269 140.838 97.5545L137.232 99.2855C138.206 101.313 139.856 102.687 142.023 103.384L143.247 99.5759ZM140.794 97.4674C140.182 96.3382 139.865 95.0788 139.865 93.65H135.865C135.865 95.7012 136.328 97.6218 137.277 99.3726L140.794 97.4674ZM139.865 93.65C139.865 91.6106 140.367 88.9911 141.469 85.7426L137.681 84.4574C136.504 87.9289 135.865 91.0094 135.865 93.65H139.865ZM141.47 85.7393C143.146 80.7712 144.513 76.9718 145.572 74.3228L141.858 72.8372C140.758 75.5882 139.364 79.4688 137.68 84.4607L141.47 85.7393ZM145.586 74.2868C146.607 71.5853 147.265 69.8513 147.562 69.078L143.829 67.642C143.526 68.4287 142.864 70.1747 141.844 72.8732L145.586 74.2868ZM147.579 69.0327C147.884 68.1785 148.188 67.2951 148.493 66.3825L144.698 65.1175C144.402 66.0049 144.107 66.8615 143.812 67.6873L147.579 69.0327ZM148.465 66.4593C149.795 62.9541 150.779 60.0698 151.402 57.8253L147.548 56.7547C146.972 58.8302 146.036 61.5859 144.725 65.0407L148.465 66.4593ZM151.392 57.8599C152.048 55.6541 152.642 53.7559 153.173 52.1625L149.378 50.8975C148.829 52.5441 148.222 54.4859 147.558 56.7201L151.392 57.8599ZM153.275 51.53V51.44H149.275V51.53H153.275ZM153.226 51.8832C153.794 49.3802 154.683 46.706 155.904 43.8578L152.227 42.2822C150.928 45.314 149.956 48.2198 149.325 50.9968L153.226 51.8832ZM155.896 43.8755C156.55 42.3879 157.093 41.2092 157.525 40.3301C157.977 39.4105 158.256 38.931 158.383 38.7563L155.148 36.4037C154.795 36.889 154.383 37.6545 153.936 38.5649C153.468 39.5158 152.9 40.7521 152.235 42.2645L155.896 43.8755ZM158.18 38.9942C159.011 38.1628 159.738 37.7783 160.349 37.6424L159.481 33.7376C157.933 34.0817 156.56 34.9572 155.351 36.1658L158.18 38.9942ZM160.349 37.6424C161.291 37.4331 162.402 37.2942 163.692 37.2381L163.518 33.2419C162.049 33.3058 160.7 33.4669 159.481 33.7376L160.349 37.6424ZM163.605 37.24H163.875V33.24H163.605V37.24ZM163.366 37.1741L165.076 37.6241L166.094 33.7559L164.384 33.3058L163.366 37.1741ZM170.689 49.7277C170.177 50.6233 169.25 51.5796 167.744 52.5476L169.907 55.9124C171.761 54.7204 173.234 53.3367 174.162 51.7123L170.689 49.7277ZM166.987 53.4422L166.177 55.3322L169.854 56.9078L170.664 55.0178L166.987 53.4422ZM166.149 55.402C165.538 56.9909 164.957 58.6094 164.408 60.2575L168.203 61.5225C168.733 59.9306 169.293 58.3691 169.882 56.838L166.149 55.402ZM164.408 60.2575C163.884 61.8283 163.303 63.3693 162.663 64.8807L166.347 66.4393C167.028 64.8307 167.646 63.1917 168.203 61.5225L164.408 60.2575ZM163.091 67.0742C163.605 67.5881 163.924 68.0115 164.107 68.3413L167.604 66.3987C167.187 65.6485 166.606 64.9319 165.92 64.2458L163.091 67.0742ZM167.172 68.8752C170.733 65.7598 173.925 61.7041 176.769 56.7569L173.301 54.7631C170.626 59.4159 167.698 63.1002 164.538 65.8648L167.172 68.8752ZM176.791 56.7177C177.969 54.5586 178.744 52.3574 179.083 50.1196L175.128 49.5204C174.867 51.2426 174.262 53.0014 173.28 54.8023L176.791 56.7177ZM179.073 50.1778C179.259 49.1529 179.385 48.264 179.438 47.5325C179.484 46.8828 179.498 46.0842 179.273 45.4075L175.478 46.6725C175.442 46.5654 175.455 46.5438 175.462 46.6799C175.468 46.7993 175.467 46.9838 175.448 47.2475C175.41 47.776 175.311 48.5071 175.138 49.4622L179.073 50.1778ZM179.273 45.4075C179.116 44.9367 178.845 44.3882 178.353 43.9459C177.82 43.4659 177.157 43.23 176.475 43.23V47.23C176.363 47.23 176.22 47.2112 176.066 47.1533C175.91 47.0949 175.779 47.0105 175.677 46.9191C175.486 46.7468 175.455 46.6033 175.478 46.6725L179.273 45.4075ZM176.475 43.23C175.668 43.23 174.935 43.498 174.313 43.8535L176.298 47.3265C176.515 47.202 176.563 47.23 176.475 47.23V43.23ZM174.411 43.8011C173.893 44.0599 173.408 44.3885 172.991 44.8058L175.82 47.6342C175.882 47.5714 175.997 47.4801 176.2 47.3788L174.411 43.8011ZM172.991 44.8058C172.941 44.856 172.854 44.9439 172.773 45.0409C172.761 45.0561 172.619 45.2196 172.503 45.4521C172.467 45.5233 172.409 45.6494 172.363 45.815C172.322 45.9612 172.25 46.2804 172.317 46.6817C172.395 47.1526 172.661 47.6718 173.181 48.0186C173.633 48.3195 174.076 48.355 174.293 48.355C174.696 48.355 174.995 48.2293 175.044 48.2098C175.149 48.1676 175.23 48.1249 175.272 48.1023C175.358 48.0553 175.428 48.0096 175.464 47.9853C175.544 47.9319 175.626 47.872 175.695 47.82L173.295 44.62C173.245 44.658 173.233 44.6656 173.245 44.6572C173.248 44.6554 173.291 44.6265 173.356 44.5908C173.387 44.5739 173.46 44.5353 173.558 44.4959C173.6 44.4793 173.894 44.355 174.293 44.355C174.508 44.355 174.95 44.3901 175.4 44.6904C175.919 45.0365 176.184 45.5545 176.262 46.0241C176.329 46.424 176.257 46.7414 176.217 46.8856C176.172 47.049 176.114 47.1726 176.08 47.241C176.012 47.3767 175.944 47.4724 175.919 47.507C175.887 47.5518 175.86 47.5848 175.846 47.6016C175.803 47.6536 175.78 47.674 175.82 47.6342L172.991 44.8058ZM172.969 44.9281C172.253 45.7735 171.664 46.5996 171.266 47.3956L174.844 49.1844C175.046 48.7804 175.417 48.2265 176.022 47.5119L172.969 44.9281ZM171.307 47.3187C170.815 48.2037 170.568 49.3252 170.438 50.4991L174.413 50.9409C174.523 49.9547 174.695 49.4563 174.804 49.2613L171.307 47.3187ZM241.985 62.87H243.985V62.7987L243.98 62.7275L241.985 62.87ZM243.155 71.15H245.155V70.8254L245.053 70.5175L243.155 71.15ZM241.805 75.2L240.496 73.6886L240.468 73.7128L240.441 73.7379L241.805 75.2ZM238.385 76.46V74.46H238.34L238.295 74.4621L238.385 76.46ZM234.155 75.65L234.898 73.793L234.866 73.7801L234.833 73.7682L234.155 75.65ZM230.285 73.58L229.014 75.1239L229.036 75.1416L229.058 75.1587L230.285 73.58ZM228.305 71.6L226.557 72.5713L226.582 72.6163L226.609 72.66L228.305 71.6ZM226.865 69.26L224.91 69.6807L224.987 70.0389L225.186 70.3465L226.865 69.26ZM225.425 59.99L223.427 59.9067L225.425 59.99ZM225.785 56.3L227.755 56.6476L228.46 52.6552L224.863 54.5256L225.785 56.3ZM219.575 60.35L220.99 61.7642L219.575 60.35ZM214.265 68.45L212.432 67.6501L212.339 67.8633L212.298 68.0922L214.265 68.45ZM213.095 72.59L212.353 70.733L212.204 70.7926L212.066 70.875L213.095 72.59ZM211.925 72.95L212.174 74.9346L211.925 72.95ZM210.395 73.58L211.505 75.2441L210.395 73.58ZM208.865 74.48L209.76 76.2689L208.865 74.48ZM207.425 75.2L206.531 73.4111L206.476 73.4385L206.423 73.4691L207.425 75.2ZM205.175 76.19V74.19H204.867L204.573 74.2828L205.175 76.19ZM195.365 74.75L194.239 76.4025L194.255 76.4134L194.271 76.4239L195.365 74.75ZM192.305 71.33L190.517 72.2244L190.524 72.2398L190.532 72.2551L192.305 71.33ZM191.765 66.74L189.817 66.2872L189.815 66.2967L189.813 66.3061L191.765 66.74ZM202.385 32.81L200.524 32.0782L200.523 32.0823L202.385 32.81ZM210.305 16.16L208.609 15.1L208.604 15.109L210.305 16.16ZM212.105 13.1L210.378 12.0923L210.367 12.1104L210.357 12.1287L212.105 13.1ZM214.715 8.68999L216.419 9.73819L216.937 8.89553L216.582 7.97204L214.715 8.68999ZM214.715 4.64L212.963 3.67616L212.954 3.69226L212.946 3.70851L214.715 4.64ZM217.595 1.85L218.523 3.62166L218.538 3.61385L218.553 3.60579L217.595 1.85ZM226.865 0.319996L227.162 -1.65788L227.133 -1.66225L227.104 -1.66576L226.865 0.319996ZM232.625 4.55L234.523 5.18245L234.66 4.77147L234.614 4.34063L232.625 4.55ZM231.095 8.42L229.265 7.61452L229.251 7.64565L229.239 7.67722L231.095 8.42ZM229.205 13.01L227.364 12.2307L227.356 12.2489L227.349 12.2672L229.205 13.01ZM227.405 17.24L225.585 16.4124L225.569 16.4473L225.554 16.4827L227.405 17.24ZM226.145 20.21L224.325 19.3824L224.306 19.4244L224.289 19.4672L226.145 20.21ZM224.975 23.45L223.086 22.7958L223.078 22.818L223.071 22.8404L224.975 23.45ZM223.355 28.4L221.458 27.7675L221.452 27.7873L221.445 27.8072L223.355 28.4ZM221.825 33.26L223.717 33.9086L223.724 33.8892L223.73 33.8695L221.825 33.26ZM220.745 36.41L218.854 35.7614L218.837 35.8105L218.822 35.8606L220.745 36.41ZM219.575 40.28L221.48 40.892L221.483 40.8824L221.486 40.8728L219.575 40.28ZM217.865 46.58L215.92 46.1168L214.613 51.6051L219.085 48.1652L217.865 46.58ZM219.755 44.51L218.073 43.4285L218.062 43.445L218.052 43.4618L219.755 44.51ZM222.005 41.72L220.591 40.3058L220.57 40.3272L220.549 40.3493L222.005 41.72ZM225.875 38.75L226.924 40.4533L226.932 40.4479L226.941 40.4425L225.875 38.75ZM231.005 36.77L231.334 38.7428L231.339 38.742L231.005 36.77ZM241.625 40.55L243.04 39.1358L241.625 40.55ZM243.875 51.35L241.91 50.9814L241.908 50.9922L243.875 51.35ZM242.525 57.38L240.592 56.8682L240.587 56.8885L240.582 56.9088L242.525 57.38ZM239.985 62.87C239.985 66.2061 240.394 69.1893 241.258 71.7825L245.053 70.5175C244.357 68.4307 243.985 65.8939 243.985 62.87H239.985ZM241.155 71.15C241.155 72.8383 240.749 73.4689 240.496 73.6886L243.115 76.7114C244.662 75.3711 245.155 73.3017 245.155 71.15H241.155ZM240.441 73.7379C239.957 74.1895 239.325 74.46 238.385 74.46V78.46C240.206 78.46 241.854 77.8905 243.17 76.6621L240.441 73.7379ZM238.295 74.4621C237.315 74.5066 236.191 74.3102 234.898 73.793L233.413 77.507C235.12 78.1898 236.815 78.5334 238.476 78.4579L238.295 74.4621ZM234.833 73.7682C233.499 73.2881 232.402 72.6926 231.513 72.0013L229.058 75.1587C230.329 76.1475 231.812 76.9319 233.478 77.5318L234.833 73.7682ZM231.557 72.0361C230.541 71.1992 230.112 70.7175 230.001 70.54L226.609 72.66C227.099 73.4425 227.99 74.2808 229.014 75.1239L231.557 72.0361ZM230.054 70.6287C229.72 70.0282 229.21 69.2026 228.545 68.1735L225.186 70.3465C225.84 71.3574 226.291 72.0918 226.557 72.5713L230.054 70.6287ZM228.821 68.8392C228.315 66.4889 227.949 64.5727 227.717 63.0805C227.479 61.551 227.402 60.5837 227.424 60.0733L223.427 59.9067C223.388 60.8363 223.522 62.134 223.764 63.6945C224.012 65.2923 224.396 67.2911 224.91 69.6807L228.821 68.8392ZM227.424 60.0733C227.481 58.6904 227.595 57.5538 227.755 56.6476L223.816 55.9524C223.616 57.0862 223.49 58.4096 223.427 59.9067L227.424 60.0733ZM224.863 54.5256C221.835 56.0999 219.531 57.5657 218.161 58.9358L220.99 61.7642C221.9 60.8543 223.736 59.6201 226.708 58.0744L224.863 54.5256ZM218.161 58.9358C215.851 61.2458 213.952 64.1683 212.432 67.6501L216.099 69.2499C217.459 66.1317 219.1 63.6543 220.99 61.7642L218.161 58.9358ZM212.298 68.0922C212.061 69.3934 211.857 70.324 211.688 70.9211C211.602 71.2275 211.543 71.379 211.52 71.4279C211.508 71.4543 211.533 71.3929 211.606 71.2948C211.653 71.2305 211.886 70.9199 212.353 70.733L213.838 74.447C214.38 74.2301 214.691 73.8501 214.819 73.6771C214.972 73.4702 215.08 73.2607 215.154 73.0996C215.304 72.7735 215.429 72.3925 215.538 72.0089C215.759 71.226 215.99 70.1466 216.233 68.8078L212.298 68.0922ZM212.066 70.875C212.078 70.8681 211.98 70.9276 211.677 70.9654L212.174 74.9346C212.831 74.8524 213.513 74.6719 214.124 74.305L212.066 70.875ZM211.677 70.9654C210.803 71.0748 210 71.4398 209.286 71.9159L211.505 75.2441C211.871 75.0002 212.088 74.9452 212.174 74.9346L211.677 70.9654ZM209.286 71.9159C208.801 72.2391 208.363 72.4949 207.971 72.6911L209.76 76.2689C210.327 75.9851 210.91 75.6409 211.505 75.2441L209.286 71.9159ZM207.971 72.6911C207.491 72.9311 207.011 73.1711 206.531 73.4111L208.32 76.9889C208.8 76.7489 209.28 76.5089 209.76 76.2689L207.971 72.6911ZM206.423 73.4691C205.884 73.7815 205.482 73.9887 205.202 74.1119C205.063 74.1733 204.982 74.2012 204.949 74.2111C204.897 74.2264 204.992 74.19 205.175 74.19V78.19C205.812 78.19 206.428 77.9428 206.813 77.7731C207.284 77.5663 207.827 77.2785 208.428 76.9309L206.423 73.4691ZM204.573 74.2828C201.751 75.1742 199.101 74.8027 196.46 73.0761L194.271 76.4239C197.87 78.7773 201.76 79.3658 205.778 78.0972L204.573 74.2828ZM196.492 73.0975C195.437 72.378 194.642 71.485 194.079 70.4049L190.532 72.2551C191.409 73.935 192.654 75.322 194.239 76.4025L196.492 73.0975ZM194.094 70.4356C193.587 69.4199 193.454 68.3604 193.718 67.1739L189.813 66.3061C189.357 68.3596 189.584 70.3601 190.517 72.2244L194.094 70.4356ZM193.714 67.1928C196.27 56.1939 199.78 44.9757 204.248 33.5377L200.523 32.0823C195.991 43.6843 192.421 55.0861 189.817 66.2872L193.714 67.1928ZM204.247 33.5418C206.985 26.5775 209.575 21.1492 212.007 17.211L208.604 15.109C205.996 19.3308 203.306 25.0025 200.524 32.0782L204.247 33.5418ZM212.001 17.22C212.621 16.2284 213.239 15.1786 213.854 14.0713L210.357 12.1287C209.772 13.1814 209.19 14.1716 208.609 15.1L212.001 17.22ZM213.833 14.1077C215.094 11.9458 215.953 10.4953 216.419 9.73819L213.012 7.6418C212.518 8.44473 211.637 9.9342 210.378 12.0923L213.833 14.1077ZM216.582 7.97204C216.124 6.77956 216.229 6.05927 216.485 5.57149L212.946 3.70851C212.002 5.50073 212.107 7.48044 212.849 9.40796L216.582 7.97204ZM216.468 5.60384C216.931 4.76207 217.598 4.1067 218.523 3.62166L216.667 0.0783329C215.073 0.91329 213.82 2.11792 212.963 3.67616L216.468 5.60384ZM218.553 3.60579C219.638 3.01394 220.905 2.60041 222.378 2.38989L221.813 -1.5699C219.926 -1.30042 218.193 -0.75395 216.638 0.0942078L218.553 3.60579ZM222.378 2.38989C223.907 2.17158 225.32 2.14891 226.627 2.30575L227.104 -1.66576C225.411 -1.86892 223.644 -1.83159 221.813 -1.5699L222.378 2.38989ZM226.569 2.29787C228.202 2.54292 229.226 2.95673 229.822 3.3945C230.348 3.78092 230.578 4.20374 230.636 4.75937L234.614 4.34063C234.433 2.61626 233.583 1.19407 232.189 0.170486C230.865 -0.801733 229.128 -1.36292 227.162 -1.65788L226.569 2.29787ZM230.728 3.91754C230.394 4.9196 229.91 6.14886 229.265 7.61452L232.926 9.22548C233.601 7.69113 234.137 6.34039 234.523 5.18245L230.728 3.91754ZM229.239 7.67722C228.644 9.16443 228.019 10.6823 227.364 12.2307L231.047 13.7893C231.712 12.2177 232.347 10.6756 232.952 9.16278L229.239 7.67722ZM227.349 12.2672C226.759 13.7418 226.171 15.1233 225.585 16.4124L229.226 18.0676C229.84 16.7167 230.452 15.2782 231.062 13.7528L227.349 12.2672ZM225.554 16.4827C225.017 17.797 224.608 18.7583 224.325 19.3824L227.966 21.0376C228.283 20.3417 228.714 19.323 229.257 17.9973L225.554 16.4827ZM224.289 19.4672C224.029 20.1165 223.625 21.2378 223.086 22.7958L226.865 24.1042C227.406 22.5422 227.782 21.5035 228.002 20.9528L224.289 19.4672ZM223.071 22.8404C222.594 24.3314 222.056 25.9737 221.458 27.7675L225.253 29.0325C225.855 27.2263 226.397 25.5686 226.88 24.0596L223.071 22.8404ZM221.445 27.8072C220.907 29.5424 220.399 31.1568 219.921 32.6504L223.73 33.8695C224.212 32.3632 224.724 30.7375 225.266 28.9928L221.445 27.8072ZM219.934 32.6114L218.854 35.7614L222.637 37.0586L223.717 33.9086L219.934 32.6114ZM218.822 35.8606C218.589 36.6776 218.205 37.9497 217.665 39.6872L221.486 40.8728C222.026 39.1303 222.422 37.8223 222.669 36.9594L218.822 35.8606ZM217.671 39.668C217.11 41.4139 216.527 43.5675 215.92 46.1168L219.811 47.0432C220.404 44.5525 220.961 42.5061 221.48 40.892L217.671 39.668ZM219.085 48.1652C220.043 47.4282 220.842 46.5601 221.459 45.5582L218.052 43.4618C217.709 44.0199 217.248 44.5318 216.646 44.9948L219.085 48.1652ZM221.438 45.5915C221.891 44.8865 222.555 44.0541 223.462 43.0907L220.549 40.3493C219.536 41.4259 218.7 42.4535 218.073 43.4285L221.438 45.5915ZM223.42 43.1342C224.304 42.2494 225.463 41.3524 226.924 40.4533L224.827 37.0467C223.168 38.0676 221.746 39.1506 220.591 40.3058L223.42 43.1342ZM226.941 40.4425C228.348 39.5568 229.809 38.997 231.334 38.7428L230.677 34.7972C228.602 35.143 226.643 35.9032 224.81 37.0575L226.941 40.4425ZM231.339 38.742C234.506 38.2061 237.417 39.1698 240.211 41.9642L243.04 39.1358C239.474 35.5702 235.305 34.0139 230.672 34.798L231.339 38.742ZM240.211 41.9642C241.961 43.714 242.745 46.5252 241.91 50.9814L245.841 51.7186C246.806 46.5748 246.09 42.186 243.04 39.1358L240.211 41.9642ZM241.908 50.9922C241.558 52.918 241.119 54.8766 240.592 56.8682L244.459 57.8918C245.012 55.8034 245.473 53.742 245.843 51.7078L241.908 50.9922ZM240.582 56.9088C240.063 59.0489 239.853 61.0886 239.991 63.0125L243.98 62.7275C243.878 61.2914 244.028 59.6711 244.469 57.8512L240.582 56.9088ZM254.659 33.53L256.329 34.6306L256.444 34.4568L256.52 34.263L254.659 33.53ZM260.239 29.48L260.715 31.4226L260.73 31.419L260.744 31.4152L260.239 29.48ZM267.979 29.75L268.706 27.8868L268.694 27.882L268.682 27.8773L267.979 29.75ZM271.309 34.43L273.217 35.0296L273.276 34.8441L273.297 34.6509L271.309 34.43ZM268.789 42.17L266.892 41.5375L266.888 41.549L266.884 41.5604L268.789 42.17ZM265.999 51.44L267.918 52.0043L267.921 51.9945L267.924 51.9846L265.999 51.44ZM261.859 68.72L263.832 69.0488L263.842 68.9912L263.848 68.9331L261.859 68.72ZM257.359 77.45L256.967 75.4888L257.359 77.45ZM255.649 77.72L255.74 79.7179L255.805 79.715L255.87 79.7078L255.649 77.72ZM253.129 78.8L251.374 77.8423L253.129 78.8ZM251.329 80.24L250.657 78.3565L250.598 78.3773L250.541 78.4017L251.329 80.24ZM248.539 80.69L248.657 78.6935L248.598 78.69H248.539V80.69ZM245.569 79.97L246.421 78.1604L246.376 78.1394L246.331 78.1206L245.569 79.97ZM242.959 78.08L241.415 79.3514L241.428 79.3666L241.441 79.3816L242.959 78.08ZM241.969 69.89L243.886 70.4616L243.927 70.3233L243.948 70.1805L241.969 69.89ZM249.259 44.96L251.125 45.6817L251.129 45.6707L251.133 45.6598L249.259 44.96ZM271.669 20.03L272.069 21.9896L272.262 21.9502L272.444 21.874L271.669 20.03ZM264.469 19.49L263.528 21.2547L263.54 21.2611L263.552 21.2672L264.469 19.49ZM261.319 16.07L259.365 16.4949L259.367 16.5041L259.369 16.5132L261.319 16.07ZM262.579 11.84L264.147 13.0814L264.17 13.0525L264.192 13.0227L262.579 11.84ZM268.519 8.32999L268.32 6.33992L268.219 6.35009L268.118 6.37056L268.519 8.32999ZM273.109 8.51L272.521 10.4216L272.72 10.4829L272.928 10.5018L273.109 8.51ZM276.979 11.12L275.113 11.838L275.184 12.0248L275.292 12.1937L276.979 11.12ZM277.159 15.62L275.321 14.8322L275.309 14.8602L275.298 14.8887L277.159 15.62ZM256.52 34.263C256.972 33.1164 258.121 32.0579 260.715 31.4226L259.764 27.5374C256.478 28.3421 253.907 29.9836 252.798 32.7969L256.52 34.263ZM260.744 31.4152C263.152 30.7871 265.306 30.8837 267.277 31.6227L268.682 27.8773C265.852 26.8163 262.847 26.7329 259.734 27.5448L260.744 31.4152ZM267.252 31.6132C268.252 32.0034 268.769 32.4362 269.027 32.7995C269.259 33.1247 269.395 33.547 269.322 34.2091L273.297 34.6509C273.464 33.153 273.165 31.7153 272.286 30.4805C271.435 29.2838 270.166 28.4566 268.706 27.8868L267.252 31.6132ZM269.401 33.8303C268.746 35.9156 267.91 38.4839 266.892 41.5375L270.687 42.8025C271.709 39.7361 272.553 37.1444 273.217 35.0296L269.401 33.8303ZM266.884 41.5604C265.917 44.583 264.981 47.6947 264.075 50.8954L267.924 51.9846C268.818 48.8253 269.741 45.757 270.694 42.7795L266.884 41.5604ZM264.081 50.8757C261.682 59.0294 260.252 64.9471 259.871 68.5069L263.848 68.9331C264.186 65.7729 265.516 60.1706 267.918 52.0043L264.081 50.8757ZM259.887 68.3912C259.451 71.0044 258.894 72.8483 258.282 74.0361C257.66 75.2412 257.16 75.4503 256.967 75.4888L257.752 79.4112C259.659 79.0297 260.958 77.5738 261.837 75.8689C262.725 74.1467 263.368 71.8356 263.832 69.0488L259.887 68.3912ZM256.967 75.4888C256.417 75.5989 255.904 75.6794 255.428 75.7322L255.87 79.7078C256.474 79.6406 257.102 79.5411 257.752 79.4112L256.967 75.4888ZM255.558 75.7221C254.071 75.7897 252.262 76.2134 251.374 77.8423L254.885 79.7577C254.807 79.9008 254.718 79.9159 254.817 79.8733C254.941 79.8201 255.222 79.7415 255.74 79.7179L255.558 75.7221ZM251.374 77.8423C251.291 77.9933 251.125 78.1892 250.657 78.3565L252.002 82.1235C253.213 81.6908 254.247 80.9267 254.885 79.7577L251.374 77.8423ZM250.541 78.4017C250.019 78.6256 249.404 78.7374 248.657 78.6935L248.422 82.6865C249.715 82.7626 250.96 82.5744 252.117 82.0783L250.541 78.4017ZM248.539 78.69C247.921 78.69 247.221 78.5367 246.421 78.1604L244.718 81.7796C245.958 82.3633 247.238 82.69 248.539 82.69V78.69ZM246.331 78.1206C245.604 77.8213 244.993 77.3793 244.478 76.7784L241.441 79.3816C242.366 80.4606 243.495 81.2787 244.808 81.8194L246.331 78.1206ZM244.503 76.8086C243.387 75.4535 242.983 73.4898 243.886 70.4616L240.053 69.3184C238.916 73.1302 239.171 76.6265 241.415 79.3514L244.503 76.8086ZM243.948 70.1805C244.877 63.8511 247.249 55.6984 251.125 45.6817L247.394 44.2383C243.47 54.3816 240.981 62.8489 239.991 69.5995L243.948 70.1805ZM251.133 45.6598C252.971 40.7392 254.709 37.0889 256.329 34.6306L252.989 32.4294C251.13 35.2511 249.268 39.2208 247.386 44.2602L251.133 45.6598ZM271.269 18.0704C268.587 18.6178 266.698 18.3895 265.387 17.7128L263.552 21.2672C265.961 22.5105 268.871 22.6422 272.069 21.9896L271.269 18.0704ZM265.41 17.7253C263.861 16.8987 263.387 16.1441 263.27 15.6268L259.369 16.5132C259.851 18.6359 261.478 20.1613 263.528 21.2547L265.41 17.7253ZM263.274 15.6451C263.137 15.0166 263.259 14.2038 264.147 13.0814L261.011 10.5986C259.62 12.3562 258.902 14.3634 259.365 16.4949L263.274 15.6451ZM264.192 13.0227C265.16 11.7026 266.66 10.7516 268.92 10.2894L268.118 6.37056C265.098 6.98836 262.638 8.37741 260.966 10.6573L264.192 13.0227ZM268.718 10.3201C269.912 10.2007 270.697 10.15 271.129 10.15V6.15C270.482 6.15 269.526 6.21933 268.32 6.33992L268.718 10.3201ZM271.129 10.15C271.396 10.15 271.845 10.2135 272.521 10.4216L273.697 6.59844C272.814 6.32655 271.943 6.15 271.129 6.15V10.15ZM272.928 10.5018C273.674 10.5696 274.145 10.7543 274.444 10.9556C274.723 11.1441 274.948 11.4107 275.113 11.838L278.846 10.402C278.41 9.26926 277.691 8.32092 276.68 7.63935C275.689 6.97073 274.525 6.63044 273.29 6.51821L272.928 10.5018ZM275.292 12.1937C275.714 12.8562 275.831 13.6417 275.321 14.8322L278.998 16.4078C279.927 14.2383 279.925 12.0238 278.667 10.0462L275.292 12.1937ZM275.298 14.8887C274.944 15.7891 273.763 16.9813 270.895 18.186L272.444 21.874C275.575 20.5587 278.055 18.8109 279.021 16.3513L275.298 14.8887ZM277.455 35.24L275.591 34.5151L275.555 34.6095L275.528 34.7071L277.455 35.24ZM280.965 30.38L282.134 32.0031L282.145 31.9948L280.965 30.38ZM285.375 28.31L285.718 30.2804L285.751 30.2747L285.783 30.268L285.375 28.31ZM288.885 28.76L287.776 30.4241L287.8 30.4404L287.825 30.456L288.885 28.76ZM289.875 31.55L287.93 31.0868L286.293 37.9607L291.29 32.9642L289.875 31.55ZM294.825 28.4L295.638 30.2276L294.825 28.4ZM299.955 26.42L299.406 24.4969L299.955 26.42ZM303.195 25.88L303.316 23.8837L303.256 23.88H303.195V25.88ZM304.905 29.12L303.056 28.3585L302.109 30.6575L304.558 31.0896L304.905 29.12ZM307.155 31.1L305.312 31.8761V31.8761L307.155 31.1ZM304.905 38.93L303.459 37.549L304.905 38.93ZM299.775 41.63L299.341 39.6776L299.33 39.6803L299.775 41.63ZM294.465 44.96L292.924 43.6849L292.92 43.6905L294.465 44.96ZM290.775 51.26L288.937 50.4722L288.933 50.4816L290.775 51.26ZM285.915 69.35L283.949 68.9869L283.946 69.0006L283.944 69.0144L285.915 69.35ZM280.065 76.46L279.086 74.716L279.078 74.7207L279.07 74.7255L280.065 76.46ZM271.155 78.08L271.71 76.1586L271.698 76.1549L271.685 76.1513L271.155 78.08ZM267.105 71.33L269.096 71.5258L269.101 71.4744L269.103 71.4229L267.105 71.33ZM269.445 61.07L271.34 61.7105L271.343 61.7025L269.445 61.07ZM272.775 51.35L274.656 52.0293L274.659 52.0211L274.662 52.013L272.775 51.35ZM274.395 46.31L272.468 45.7771L272.464 45.7891L272.461 45.801L274.395 46.31ZM279.319 35.9649C280.055 34.0739 281.019 32.806 282.134 32.0031L279.797 28.7569C277.912 30.1139 276.536 32.0861 275.591 34.5151L279.319 35.9649ZM282.145 31.9948C283.546 30.9712 284.733 30.4517 285.718 30.2804L285.033 26.3396C283.257 26.6483 281.505 27.5088 279.785 28.7652L282.145 31.9948ZM285.783 30.268C286.893 30.0368 287.464 30.2159 287.776 30.4241L289.995 27.0959C288.507 26.1041 286.738 25.9832 284.967 26.352L285.783 30.268ZM287.825 30.456C287.912 30.5099 287.947 30.5484 287.958 30.5611C287.967 30.5712 287.967 30.5735 287.968 30.5763C287.969 30.5802 288.018 30.7168 287.93 31.0868L291.821 32.0132C292.033 31.1232 292.066 30.1648 291.738 29.2387C291.4 28.2865 290.749 27.5664 289.945 27.064L287.825 30.456ZM291.29 32.9642C292.195 32.0587 293.607 31.1302 295.638 30.2276L294.013 26.5724C291.724 27.5898 289.836 28.7613 288.461 30.1358L291.29 32.9642ZM295.638 30.2276C297.768 29.2806 299.379 28.6648 300.505 28.343L299.406 24.4969C298.012 24.8952 296.202 25.5994 294.013 26.5724L295.638 30.2276ZM300.505 28.343C301.66 28.0131 302.545 27.88 303.195 27.88V23.88C302.046 23.88 300.771 24.1069 299.406 24.4969L300.505 28.343ZM303.074 27.8763C303.412 27.8968 303.548 27.952 303.564 27.9596C303.566 27.9605 303.531 27.9443 303.481 27.8988C303.429 27.8513 303.378 27.7878 303.339 27.7135C303.258 27.5602 303.288 27.4832 303.278 27.5976C303.268 27.7211 303.218 27.966 303.056 28.3585L306.755 29.8815C307.23 28.7278 307.596 27.2093 306.877 25.8465C306.099 24.3725 304.551 23.9585 303.316 23.8837L303.074 27.8763ZM304.558 31.0896C304.771 31.1272 305.036 31.2213 305.312 31.8761L308.999 30.3239C308.314 28.6987 307.079 27.4728 305.253 27.1504L304.558 31.0896ZM305.312 31.8761C305.596 32.5506 305.667 33.3527 305.4 34.3752L309.271 35.3848C309.724 33.6473 309.675 31.9294 308.999 30.3239L305.312 31.8761ZM305.4 34.3752C305.147 35.3469 304.548 36.4077 303.459 37.549L306.352 40.311C307.783 38.8123 308.804 37.1731 309.271 35.3848L305.4 34.3752ZM303.459 37.549C302.526 38.5265 301.198 39.2651 299.341 39.6776L300.209 43.5824C302.673 43.0349 304.765 41.9735 306.352 40.311L303.459 37.549ZM299.33 39.6803C296.779 40.2634 294.631 41.6232 292.925 43.6849L296.006 46.2351C297.18 44.8168 298.572 43.9566 300.221 43.5797L299.33 39.6803ZM292.92 43.6905C291.394 45.5487 290.073 47.8216 288.937 50.4722L292.614 52.0478C293.638 49.6584 294.777 47.7313 296.011 46.2295L292.92 43.6905ZM288.933 50.4816C287.051 54.9367 285.399 61.1301 283.949 68.9869L287.882 69.7131C289.312 61.9699 290.9 56.1033 292.618 52.0384L288.933 50.4816ZM283.944 69.0144C283.599 71.0392 282.187 72.9754 279.086 74.716L281.044 78.204C284.784 76.1046 287.272 73.3008 287.887 69.6856L283.944 69.0144ZM279.07 74.7255C276.139 76.408 273.735 76.7434 271.71 76.1586L270.6 80.0014C273.976 80.9766 277.512 80.232 281.061 78.1945L279.07 74.7255ZM271.685 76.1513C270.541 75.8373 269.92 75.3282 269.563 74.7335C269.182 74.0984 268.941 73.0957 269.096 71.5258L265.115 71.1342C264.909 73.2243 265.164 75.1766 266.133 76.7915C267.126 78.4468 268.71 79.4827 270.626 80.0087L271.685 76.1513ZM269.103 71.4229C269.21 69.1178 269.923 65.9037 271.34 61.7105L267.551 60.4295C266.088 64.7563 265.24 68.3822 265.107 71.2371L269.103 71.4229ZM271.343 61.7025C272.781 57.3861 273.885 54.1652 274.656 52.0293L270.894 50.6707C270.105 52.8548 268.989 56.1139 267.548 60.4375L271.343 61.7025ZM274.662 52.013C275.446 49.7816 276.008 48.0398 276.329 46.819L272.461 45.801C272.182 46.8602 271.664 48.4784 270.888 50.687L274.662 52.013ZM276.323 46.8429L279.383 35.7729L275.528 34.7071L272.468 45.7771L276.323 46.8429ZM331.677 59.18L332.533 60.9875L332.559 60.9752L332.585 60.9621L331.677 59.18ZM328.347 60.44L328.882 62.367L328.347 60.44ZM324.567 61.34L324.971 63.2987L324.975 63.298L324.567 61.34ZM316.377 62.69L316.234 60.6951L313.744 60.873L314.461 63.2647L316.377 62.69ZM319.077 64.85L318.156 66.6255L318.436 66.7709L318.748 66.8228L319.077 64.85ZM322.587 64.4L323.299 66.269L323.322 66.2603L323.344 66.2511L322.587 64.4ZM326.637 62.96L327.219 64.8733L327.244 64.8657L327.269 64.8574L326.637 62.96ZM330.777 62.15L330.69 60.1519L330.686 60.1521L330.777 62.15ZM334.647 63.68L336.474 62.8677L336.301 62.4784L335.985 62.1934L334.647 63.68ZM335.817 65.57L336.846 63.855V63.855L335.817 65.57ZM338.697 68.18L336.873 69.0007L336.89 69.0379L336.908 69.0744L338.697 68.18ZM338.247 71.6L336.71 70.3196L336.689 70.3455L336.668 70.3721L338.247 71.6ZM334.287 74.39L335.082 76.2251L334.287 74.39ZM327.987 76.28L328.379 78.2412L327.987 76.28ZM320.787 77.27L320.637 75.2756L320.632 75.276L320.787 77.27ZM308.457 76.01L309.273 74.184L309.187 74.1456L309.098 74.1154L308.457 76.01ZM300.537 67.82L298.615 68.3751L298.618 68.3843L300.537 67.82ZM303.147 48.92L304.965 49.7533L304.969 49.7443L304.973 49.7353L303.147 48.92ZM310.257 38.12L311.785 39.4097L311.789 39.4057L310.257 38.12ZM319.707 30.83L320.498 32.6666L320.501 32.6654L319.707 30.83ZM332.307 28.4L332.252 30.3993L332.256 30.3993L332.307 28.4ZM342.027 34.52L343.865 33.7322L343.857 33.7122L343.848 33.6924L342.027 34.52ZM342.567 43.34L344.53 43.723L344.539 43.6731L344.547 43.6228L342.567 43.34ZM338.787 53.78L340.358 55.0177L340.367 55.0064L340.376 54.9949L338.787 53.78ZM326.457 44.96L328.372 44.3853L328.03 43.2439L326.863 43.0017L326.457 44.96ZM318.987 50.36L320.794 51.2162L320.812 51.1777L320.829 51.1384L318.987 50.36ZM317.727 53.96L315.781 53.4968L315.26 55.6836L317.493 55.9463L317.727 53.96ZM324.207 50.54L325.69 51.8818L325.721 51.8473L325.751 51.8114L324.207 50.54ZM326.097 47.48L327.946 48.2415L327.954 48.2233L327.961 48.2049L326.097 47.48ZM330.821 57.3725C329.771 57.8695 328.769 58.2471 327.811 58.513L328.882 62.367C330.085 62.0329 331.302 61.5704 332.533 60.9875L330.821 57.3725ZM327.811 58.513C326.784 58.7983 325.568 59.0884 324.159 59.382L324.975 63.298C326.445 62.9916 327.749 62.6817 328.882 62.367L327.811 58.513ZM324.163 59.3813C320.388 60.1602 317.771 60.5853 316.234 60.6951L316.519 64.6849C318.343 64.5547 321.186 64.0798 324.971 63.2987L324.163 59.3813ZM314.461 63.2647C314.731 64.1632 315.4 64.8119 315.937 65.2417C316.531 65.7166 317.289 66.1757 318.156 66.6255L319.997 63.0745C319.245 62.6843 318.743 62.3634 318.436 62.1183C318.285 61.9975 318.216 61.9221 318.195 61.896C318.17 61.8659 318.24 61.9392 318.292 62.1153L314.461 63.2647ZM318.748 66.8228C320.251 67.0732 321.783 66.8462 323.299 66.269L321.875 62.531C320.87 62.9138 320.063 62.9868 319.406 62.8772L318.748 66.8228ZM323.344 66.2511C324.606 65.7348 325.898 65.2755 327.219 64.8733L326.054 61.0467C324.616 61.4845 323.207 61.9852 321.83 62.5489L323.344 66.2511ZM327.269 64.8574C328.56 64.4272 329.757 64.1984 330.868 64.1479L330.686 60.1521C329.157 60.2216 327.594 60.5328 326.004 61.0626L327.269 64.8574ZM330.864 64.1481C331.632 64.1147 332.428 64.3735 333.309 65.1666L335.985 62.1934C334.466 60.8265 332.681 60.0653 330.69 60.1519L330.864 64.1481ZM332.819 64.4923C333.077 65.0727 333.337 65.5916 333.599 66.0152C333.814 66.363 334.197 66.9305 334.788 67.285L336.846 63.855C336.944 63.9138 337.009 63.9689 337.044 64C337.079 64.032 337.097 64.0528 337.097 64.0537C337.099 64.0553 337.09 64.0453 337.072 64.0197C337.054 63.9944 337.03 63.9585 337 63.9098C336.872 63.7034 336.696 63.3673 336.474 62.8677L332.819 64.4923ZM334.788 67.285C335.265 67.5713 335.895 67.84 336.627 67.84V63.84C336.757 63.84 336.845 63.8644 336.877 63.8751C336.907 63.8854 336.898 63.8863 336.846 63.855L334.788 67.285ZM336.627 67.84C336.496 67.84 336.409 67.8156 336.377 67.8049C336.346 67.7946 336.356 67.7937 336.408 67.825L338.466 64.395C337.989 64.1087 337.359 63.84 336.627 63.84V67.84ZM336.408 67.825C336.206 67.7041 336.121 67.588 336.143 67.6158C336.152 67.6262 336.194 67.6804 336.268 67.8024C336.417 68.047 336.619 68.4356 336.873 69.0007L340.521 67.3593C340.235 66.7244 339.956 66.168 339.685 65.7226C339.473 65.3736 339.077 64.7618 338.466 64.395L336.408 67.825ZM336.908 69.0744C337.06 69.3784 337.066 69.5626 337.051 69.6741C337.036 69.793 336.972 70.0054 336.71 70.3196L339.783 72.8804C340.421 72.1146 340.883 71.217 341.017 70.1959C341.153 69.1674 340.934 68.1816 340.486 67.2856L336.908 69.0744ZM336.668 70.3721C336.104 71.097 335.109 71.8541 333.492 72.5549L335.082 76.2251C337.065 75.3659 338.709 74.263 339.826 72.8279L336.668 70.3721ZM333.492 72.5549C331.848 73.267 329.889 73.86 327.595 74.3188L328.379 78.2412C330.885 77.74 333.125 77.073 335.082 76.2251L333.492 72.5549ZM327.595 74.3188C325.273 74.7831 322.954 75.1018 320.637 75.2756L320.936 79.2644C323.419 79.0782 325.9 78.7369 328.379 78.2412L327.595 74.3188ZM320.632 75.276C315.348 75.687 311.638 75.2406 309.273 74.184L307.641 77.836C310.916 79.2994 315.426 79.693 320.942 79.264L320.632 75.276ZM309.098 74.1154C305.625 72.941 303.469 70.7011 302.456 67.2557L298.618 68.3843C300.005 73.0989 303.128 76.319 307.816 77.9046L309.098 74.1154ZM302.458 67.2649C301.077 62.4825 301.784 56.6943 304.965 49.7533L301.329 48.0867C297.91 55.5457 296.877 62.3575 298.615 68.3751L302.458 67.2649ZM304.973 49.7353C306.374 46.5962 308.625 43.1548 311.785 39.4097L308.728 36.8303C305.408 40.7652 302.919 44.5238 301.32 48.1047L304.973 49.7353ZM311.789 39.4057C314.44 36.2469 317.347 34.0251 320.498 32.6666L318.915 28.9934C315.107 30.6349 311.714 33.2731 308.725 36.8343L311.789 39.4057ZM320.501 32.6654C324.253 31.0414 328.164 30.2872 332.252 30.3993L332.362 26.4007C327.69 26.2728 323.2 27.1386 318.912 28.9946L320.501 32.6654ZM332.256 30.3993C334.316 30.4522 335.927 30.9226 337.181 31.7125C338.427 32.4968 339.445 33.6736 340.206 35.3476L343.848 33.6924C342.808 31.4064 341.307 29.5832 339.312 28.3275C337.327 27.0774 334.978 26.4678 332.358 26.4007L332.256 30.3993ZM340.189 35.3078C340.877 36.9142 341.106 39.4234 340.587 43.0572L344.547 43.6228C345.108 39.6966 344.977 36.3258 343.865 33.7322L340.189 35.3078ZM340.604 42.957C339.657 47.8096 338.466 50.9073 337.198 52.5651L340.376 54.9949C342.228 52.5727 343.557 48.7104 344.53 43.723L340.604 42.957ZM337.216 52.5423C335.893 54.2209 333.791 55.8584 330.769 57.3979L332.585 60.9621C335.923 59.2616 338.56 57.299 340.358 55.0177L337.216 52.5423ZM326.863 43.0017C324.759 42.5649 322.761 42.9444 321.033 44.1942C319.378 45.3905 318.12 47.2727 317.145 49.5816L320.829 51.1384C321.654 49.1873 322.541 48.0395 323.376 47.4358C324.137 46.8856 324.975 46.6951 326.05 46.9183L326.863 43.0017ZM317.179 49.5038C316.578 50.773 316.113 52.105 315.781 53.4968L319.672 54.4232C319.941 53.295 320.315 52.227 320.794 51.2162L317.179 49.5038ZM317.493 55.9463C320.506 56.3007 323.261 54.5666 325.69 51.8818L322.724 49.1982C320.593 51.5534 319.028 52.0993 317.96 51.9737L317.493 55.9463ZM325.751 51.8114C326.693 50.667 327.437 49.478 327.946 48.2415L324.247 46.7185C323.917 47.522 323.4 48.373 322.663 49.2686L325.751 51.8114ZM327.961 48.2049C328.423 47.0175 328.751 45.6467 328.372 44.3853L324.541 45.5347C324.524 45.4768 324.555 45.528 324.522 45.7572C324.49 45.9823 324.406 46.3096 324.233 46.7551L327.961 48.2049Z" fill="black" mask="url(#path-1-outside-1_270_5578)"/>
</svg>
