<svg width="201" height="104" viewBox="0 0 201 104" fill="none" xmlns="http://www.w3.org/2000/svg">
<mask id="path-1-outside-1_270_5590" maskUnits="userSpaceOnUse" x="-1.72656" y="-1.75" width="207" height="106" fill="black">
<rect fill="white" x="-1.72656" y="-1.75" width="207" height="106"/>
<path d="M19.0234 73.52C18.4834 75.92 16.6234 77.39 13.4434 77.93C10.5034 78.47 7.71344 78.14 5.07344 76.94C2.13344 75.68 0.843437 73.91 1.20344 71.63C0.843437 68.15 2.67344 60.59 6.69344 48.95C12.6934 31.49 18.6934 19.01 24.6934 11.51C26.2534 9.59 27.5734 8.36 28.6534 7.81999C29.7934 7.22 31.0834 6.68 32.5234 6.19999C33.9634 5.72 35.4634 5.27 37.0234 4.85C40.1434 4.01 43.0834 3.44 45.8434 3.14C48.6634 2.78 51.1834 3.11 53.4034 4.13C55.6234 5.09 57.3334 6.53 58.5334 8.45C59.7934 10.37 60.5734 12.65 60.8734 15.29C61.1734 17.87 61.0834 20.6 60.6034 23.48C60.1234 26.3 59.2534 29.18 57.9934 32.12C56.7334 35 55.1434 37.7 53.2234 40.22C49.0234 45.74 44.1034 49.31 38.4634 50.93L39.3634 52.46C40.1434 53.66 41.0734 54.98 42.1534 56.42C43.2934 57.86 44.4034 59.33 45.4834 60.83C46.6234 62.33 47.6434 63.83 48.5434 65.33C49.4434 66.83 50.1034 68.24 50.5234 69.56C51.4834 72.5 50.7334 74.63 48.2734 75.95C46.2934 77.15 44.7334 77.45 43.5934 76.85C43.1134 76.55 42.6334 76.16 42.1534 75.68C41.6734 75.26 41.0134 74.9 40.1734 74.6C36.6334 75.62 33.9334 74.72 32.0734 71.9C30.9334 70.1 30.0634 68.45 29.4634 66.95C28.8634 65.45 28.3534 64.19 27.9334 63.17C26.8534 60.95 25.6234 59.03 24.2434 57.41C23.5834 59.03 22.8334 61.1 21.9934 63.62C20.9734 66.8 19.8334 70.1 18.5734 73.52H19.0234ZM37.2034 21.14C36.0634 23.72 35.2834 25.52 34.8634 26.54C34.0234 28.58 33.0934 30.83 32.0734 33.29C31.8934 34.61 31.7434 35.54 31.6234 36.08L32.8834 34.82L34.4134 34.1C35.4934 33.5 36.4834 32.96 37.3834 32.48C38.2834 32 39.0934 31.4 39.8134 30.68C41.1934 29.3 42.3934 27.05 43.4134 23.93C43.4134 23.33 43.5034 22.73 43.6834 22.13C43.9234 21.53 44.0734 20.93 44.1334 20.33C44.3734 19.01 43.8334 18.08 42.5134 17.54C41.3134 17.42 39.8134 18.41 38.0134 20.51C37.6534 20.93 37.3834 21.14 37.2034 21.14ZM63.7563 33.74C65.4363 32.12 67.2963 31.19 69.3363 30.95C71.4363 30.65 73.2663 30.86 74.8263 31.58C76.4463 32.3 77.6163 33.47 78.3363 35.09C79.1163 36.65 79.0263 38.45 78.0663 40.49C76.0263 43.49 74.4063 46.73 73.2063 50.21C72.0063 53.69 70.8963 57.2 69.8763 60.74C75.3963 57.26 80.0163 52.07 83.7363 45.17C84.8163 43.13 85.9863 41.06 87.2463 38.96L88.5963 36.44L91.2963 32.12C91.6563 30.98 92.2863 30.26 93.1863 29.96C94.0863 29.6 95.0463 29.42 96.0663 29.42C97.1463 29.42 98.2263 29.45 99.3063 29.51C100.386 29.51 101.376 29.21 102.276 28.61C103.176 28.01 104.226 27.8 105.426 27.98C106.686 28.1 107.796 28.49 108.756 29.15C109.776 29.81 110.526 30.62 111.006 31.58C111.546 32.48 111.606 33.38 111.186 34.28C108.666 39.68 105.216 49.73 100.836 64.43C99.8163 67.73 98.8563 70.49 97.9563 72.71C96.4563 74.57 94.5663 75.83 92.2863 76.49C90.0063 77.15 87.8463 77.33 85.8063 77.03C83.8263 76.79 82.2363 76.1 81.0363 74.96C79.8363 73.88 79.5663 72.5 80.2263 70.82C78.5463 72.2 76.8063 73.46 75.0063 74.6C73.2063 75.74 71.0163 76.49 68.4363 76.85C65.9163 77.21 63.4863 77.09 61.1463 76.49C58.8063 75.95 56.7963 74.87 55.1163 73.25C53.4963 71.63 52.6263 69.47 52.5063 66.77C52.1463 57.29 55.8963 46.28 63.7563 33.74ZM120.226 73.52L117.976 75.59C116.776 76.43 115.606 76.94 114.466 77.12L114.556 77.21L114.106 77.57C109.846 77.93 106.696 77 104.656 74.78C102.556 72.44 102.106 69.38 103.306 65.6C105.946 50.66 109.636 36.8 114.376 24.02C117.556 15.38 120.616 9.59 123.556 6.65C125.116 5.15 126.556 4.7 127.876 5.3C128.236 3.86 128.866 2.75 129.766 1.97C130.666 1.13 131.656 0.649996 132.736 0.529997C133.816 0.349996 134.866 0.529996 135.886 1.07C136.906 1.55 137.686 2.45 138.226 3.77C138.826 5.09 139.066 6.38 138.946 7.64C138.886 8.84 138.616 10.04 138.136 11.24C137.716 12.38 137.176 13.52 136.516 14.66C135.916 15.8 135.346 16.94 134.806 18.08C130.966 27.32 128.236 34.16 126.616 38.6L127.426 38.06C131.386 35.42 135.616 34.25 140.116 34.55C142.096 34.73 143.866 35.27 145.426 36.17C147.046 37.01 148.216 38.3 148.936 40.04C149.716 41.78 150.016 44.03 149.836 46.79C149.716 49.49 149.206 52.31 148.306 55.25C147.406 58.13 146.176 60.95 144.616 63.71C143.116 66.47 141.436 68.87 139.576 70.91C135.376 75.53 131.326 77.27 127.426 76.13C125.746 76.37 123.796 75.59 121.576 73.79C121.096 73.37 120.646 73.04 120.226 72.8V73.52ZM122.656 67.04C123.556 66.02 125.086 64.1 127.246 61.28C129.466 58.46 130.936 56.27 131.656 54.71C132.436 53.09 132.256 51.59 131.116 50.21C129.976 48.77 128.536 49.85 126.796 53.45C124.036 59.21 122.656 63.74 122.656 67.04ZM150.401 45.71C150.461 43.25 150.281 41.24 149.861 39.68C149.441 38.12 149.441 36.83 149.861 35.81C150.341 34.73 151.061 33.98 152.021 33.56C153.041 33.14 154.211 33.02 155.531 33.2C156.911 33.32 158.261 33.71 159.581 34.37C162.761 35.81 164.981 37.85 166.241 40.49C166.541 41.81 166.421 43.46 165.881 45.44C165.401 47.36 164.831 49.37 164.171 51.47C163.511 53.51 162.881 55.52 162.281 57.5C161.681 59.42 161.441 61.04 161.561 62.36C163.121 61.4 164.471 59.96 165.611 58.04C166.811 56.12 167.891 54.08 168.851 51.92C169.871 49.7 170.801 47.51 171.641 45.35C172.541 43.19 173.381 41.48 174.161 40.22C175.001 38.96 175.661 37.97 176.141 37.25C176.621 36.47 177.101 35.78 177.581 35.18C178.361 34.16 179.381 33.17 180.641 32.21C181.001 31.91 182.081 31.97 183.881 32.39C185.741 32.75 187.091 33.02 187.931 33.2C188.831 33.32 189.431 33.26 189.731 33.02L190.991 32.12C192.671 31.28 194.651 31.31 196.931 32.21C199.151 33.17 200.321 34.64 200.441 36.62C200.381 36.68 200.351 36.8 200.351 36.98L200.621 37.07L199.991 37.61C199.571 38.39 199.241 38.93 199.001 39.23C198.821 39.47 198.401 39.86 197.741 40.4C193.661 44.78 188.981 52.91 183.701 64.79C182.381 67.73 181.181 70.37 180.101 72.71C181.721 73.73 182.951 75.05 183.791 76.67C184.631 78.29 184.631 80.06 183.791 81.98C178.811 85.94 176.021 89.66 175.421 93.14C175.121 95.3 174.731 96.83 174.251 97.73C173.831 98.63 173.141 99.5 172.181 100.34C168.941 102.74 165.131 102.14 160.751 98.54C157.631 95.42 157.481 91.52 160.301 86.84C161.021 85.58 161.711 84.26 162.371 82.88C163.331 80.84 164.861 77.81 166.961 73.79C161.801 76.79 157.061 76.73 152.741 73.61C149.681 71.27 148.601 65.96 149.501 57.68C150.101 52.16 150.401 48.17 150.401 45.71Z"/>
</mask>
<path d="M19.0234 73.52C18.4834 75.92 16.6234 77.39 13.4434 77.93C10.5034 78.47 7.71344 78.14 5.07344 76.94C2.13344 75.68 0.843437 73.91 1.20344 71.63C0.843437 68.15 2.67344 60.59 6.69344 48.95C12.6934 31.49 18.6934 19.01 24.6934 11.51C26.2534 9.59 27.5734 8.36 28.6534 7.81999C29.7934 7.22 31.0834 6.68 32.5234 6.19999C33.9634 5.72 35.4634 5.27 37.0234 4.85C40.1434 4.01 43.0834 3.44 45.8434 3.14C48.6634 2.78 51.1834 3.11 53.4034 4.13C55.6234 5.09 57.3334 6.53 58.5334 8.45C59.7934 10.37 60.5734 12.65 60.8734 15.29C61.1734 17.87 61.0834 20.6 60.6034 23.48C60.1234 26.3 59.2534 29.18 57.9934 32.12C56.7334 35 55.1434 37.7 53.2234 40.22C49.0234 45.74 44.1034 49.31 38.4634 50.93L39.3634 52.46C40.1434 53.66 41.0734 54.98 42.1534 56.42C43.2934 57.86 44.4034 59.33 45.4834 60.83C46.6234 62.33 47.6434 63.83 48.5434 65.33C49.4434 66.83 50.1034 68.24 50.5234 69.56C51.4834 72.5 50.7334 74.63 48.2734 75.95C46.2934 77.15 44.7334 77.45 43.5934 76.85C43.1134 76.55 42.6334 76.16 42.1534 75.68C41.6734 75.26 41.0134 74.9 40.1734 74.6C36.6334 75.62 33.9334 74.72 32.0734 71.9C30.9334 70.1 30.0634 68.45 29.4634 66.95C28.8634 65.45 28.3534 64.19 27.9334 63.17C26.8534 60.95 25.6234 59.03 24.2434 57.41C23.5834 59.03 22.8334 61.1 21.9934 63.62C20.9734 66.8 19.8334 70.1 18.5734 73.52H19.0234ZM37.2034 21.14C36.0634 23.72 35.2834 25.52 34.8634 26.54C34.0234 28.58 33.0934 30.83 32.0734 33.29C31.8934 34.61 31.7434 35.54 31.6234 36.08L32.8834 34.82L34.4134 34.1C35.4934 33.5 36.4834 32.96 37.3834 32.48C38.2834 32 39.0934 31.4 39.8134 30.68C41.1934 29.3 42.3934 27.05 43.4134 23.93C43.4134 23.33 43.5034 22.73 43.6834 22.13C43.9234 21.53 44.0734 20.93 44.1334 20.33C44.3734 19.01 43.8334 18.08 42.5134 17.54C41.3134 17.42 39.8134 18.41 38.0134 20.51C37.6534 20.93 37.3834 21.14 37.2034 21.14ZM63.7563 33.74C65.4363 32.12 67.2963 31.19 69.3363 30.95C71.4363 30.65 73.2663 30.86 74.8263 31.58C76.4463 32.3 77.6163 33.47 78.3363 35.09C79.1163 36.65 79.0263 38.45 78.0663 40.49C76.0263 43.49 74.4063 46.73 73.2063 50.21C72.0063 53.69 70.8963 57.2 69.8763 60.74C75.3963 57.26 80.0163 52.07 83.7363 45.17C84.8163 43.13 85.9863 41.06 87.2463 38.96L88.5963 36.44L91.2963 32.12C91.6563 30.98 92.2863 30.26 93.1863 29.96C94.0863 29.6 95.0463 29.42 96.0663 29.42C97.1463 29.42 98.2263 29.45 99.3063 29.51C100.386 29.51 101.376 29.21 102.276 28.61C103.176 28.01 104.226 27.8 105.426 27.98C106.686 28.1 107.796 28.49 108.756 29.15C109.776 29.81 110.526 30.62 111.006 31.58C111.546 32.48 111.606 33.38 111.186 34.28C108.666 39.68 105.216 49.73 100.836 64.43C99.8163 67.73 98.8563 70.49 97.9563 72.71C96.4563 74.57 94.5663 75.83 92.2863 76.49C90.0063 77.15 87.8463 77.33 85.8063 77.03C83.8263 76.79 82.2363 76.1 81.0363 74.96C79.8363 73.88 79.5663 72.5 80.2263 70.82C78.5463 72.2 76.8063 73.46 75.0063 74.6C73.2063 75.74 71.0163 76.49 68.4363 76.85C65.9163 77.21 63.4863 77.09 61.1463 76.49C58.8063 75.95 56.7963 74.87 55.1163 73.25C53.4963 71.63 52.6263 69.47 52.5063 66.77C52.1463 57.29 55.8963 46.28 63.7563 33.74ZM120.226 73.52L117.976 75.59C116.776 76.43 115.606 76.94 114.466 77.12L114.556 77.21L114.106 77.57C109.846 77.93 106.696 77 104.656 74.78C102.556 72.44 102.106 69.38 103.306 65.6C105.946 50.66 109.636 36.8 114.376 24.02C117.556 15.38 120.616 9.59 123.556 6.65C125.116 5.15 126.556 4.7 127.876 5.3C128.236 3.86 128.866 2.75 129.766 1.97C130.666 1.13 131.656 0.649996 132.736 0.529997C133.816 0.349996 134.866 0.529996 135.886 1.07C136.906 1.55 137.686 2.45 138.226 3.77C138.826 5.09 139.066 6.38 138.946 7.64C138.886 8.84 138.616 10.04 138.136 11.24C137.716 12.38 137.176 13.52 136.516 14.66C135.916 15.8 135.346 16.94 134.806 18.08C130.966 27.32 128.236 34.16 126.616 38.6L127.426 38.06C131.386 35.42 135.616 34.25 140.116 34.55C142.096 34.73 143.866 35.27 145.426 36.17C147.046 37.01 148.216 38.3 148.936 40.04C149.716 41.78 150.016 44.03 149.836 46.79C149.716 49.49 149.206 52.31 148.306 55.25C147.406 58.13 146.176 60.95 144.616 63.71C143.116 66.47 141.436 68.87 139.576 70.91C135.376 75.53 131.326 77.27 127.426 76.13C125.746 76.37 123.796 75.59 121.576 73.79C121.096 73.37 120.646 73.04 120.226 72.8V73.52ZM122.656 67.04C123.556 66.02 125.086 64.1 127.246 61.28C129.466 58.46 130.936 56.27 131.656 54.71C132.436 53.09 132.256 51.59 131.116 50.21C129.976 48.77 128.536 49.85 126.796 53.45C124.036 59.21 122.656 63.74 122.656 67.04ZM150.401 45.71C150.461 43.25 150.281 41.24 149.861 39.68C149.441 38.12 149.441 36.83 149.861 35.81C150.341 34.73 151.061 33.98 152.021 33.56C153.041 33.14 154.211 33.02 155.531 33.2C156.911 33.32 158.261 33.71 159.581 34.37C162.761 35.81 164.981 37.85 166.241 40.49C166.541 41.81 166.421 43.46 165.881 45.44C165.401 47.36 164.831 49.37 164.171 51.47C163.511 53.51 162.881 55.52 162.281 57.5C161.681 59.42 161.441 61.04 161.561 62.36C163.121 61.4 164.471 59.96 165.611 58.04C166.811 56.12 167.891 54.08 168.851 51.92C169.871 49.7 170.801 47.51 171.641 45.35C172.541 43.19 173.381 41.48 174.161 40.22C175.001 38.96 175.661 37.97 176.141 37.25C176.621 36.47 177.101 35.78 177.581 35.18C178.361 34.16 179.381 33.17 180.641 32.21C181.001 31.91 182.081 31.97 183.881 32.39C185.741 32.75 187.091 33.02 187.931 33.2C188.831 33.32 189.431 33.26 189.731 33.02L190.991 32.12C192.671 31.28 194.651 31.31 196.931 32.21C199.151 33.17 200.321 34.64 200.441 36.62C200.381 36.68 200.351 36.8 200.351 36.98L200.621 37.07L199.991 37.61C199.571 38.39 199.241 38.93 199.001 39.23C198.821 39.47 198.401 39.86 197.741 40.4C193.661 44.78 188.981 52.91 183.701 64.79C182.381 67.73 181.181 70.37 180.101 72.71C181.721 73.73 182.951 75.05 183.791 76.67C184.631 78.29 184.631 80.06 183.791 81.98C178.811 85.94 176.021 89.66 175.421 93.14C175.121 95.3 174.731 96.83 174.251 97.73C173.831 98.63 173.141 99.5 172.181 100.34C168.941 102.74 165.131 102.14 160.751 98.54C157.631 95.42 157.481 91.52 160.301 86.84C161.021 85.58 161.711 84.26 162.371 82.88C163.331 80.84 164.861 77.81 166.961 73.79C161.801 76.79 157.061 76.73 152.741 73.61C149.681 71.27 148.601 65.96 149.501 57.68C150.101 52.16 150.401 48.17 150.401 45.71Z" fill="white"/>
<path d="M19.0234 73.52L20.9747 73.959L21.5234 71.52H19.0234V73.52ZM13.4434 77.93L13.1086 75.9582L13.0954 75.9605L13.0821 75.9629L13.4434 77.93ZM5.07344 76.94L5.90104 75.1193L5.88126 75.1103L5.86128 75.1017L5.07344 76.94ZM1.20344 71.63L3.17896 71.9419L3.21969 71.684L3.19282 71.4242L1.20344 71.63ZM6.69344 48.95L8.58388 49.6029L8.58487 49.6L6.69344 48.95ZM24.6934 11.51L23.1412 10.2488L23.1364 10.2547L23.1317 10.2606L24.6934 11.51ZM28.6534 7.82L29.5479 9.60885L29.5665 9.59953L29.5849 9.58983L28.6534 7.82ZM32.5234 6.19999L31.891 4.30263H31.891L32.5234 6.19999ZM37.0234 4.84999L36.5035 2.91876L36.5035 2.91877L37.0234 4.84999ZM45.8434 3.14L46.0596 5.12828L46.0782 5.12626L46.0967 5.1239L45.8434 3.14ZM53.4034 4.13L52.5684 5.94735L52.5889 5.95676L52.6096 5.96571L53.4034 4.13ZM58.5334 8.45L56.8374 9.50999L56.8492 9.52879L56.8613 9.54731L58.5334 8.45ZM60.8734 15.29L58.8862 15.5158L58.8868 15.521L60.8734 15.29ZM60.6034 23.48L62.5751 23.8156L62.5762 23.8088L60.6034 23.48ZM57.9934 32.12L59.8258 32.9216L59.8288 32.9147L59.8317 32.9078L57.9934 32.12ZM53.2234 40.22L51.6326 39.0079L51.6318 39.009L53.2234 40.22ZM38.4634 50.93L37.9113 49.0077L35.4313 49.7201L36.7396 51.944L38.4634 50.93ZM39.3634 52.46L37.6396 53.474L37.6622 53.5125L37.6866 53.55L39.3634 52.46ZM42.1534 56.42L40.5534 57.62L40.5691 57.6409L40.5853 57.6614L42.1534 56.42ZM45.4834 60.83L43.8604 61.9986L43.8755 62.0196L43.8911 62.0402L45.4834 60.83ZM48.5434 65.33L50.2584 64.301L48.5434 65.33ZM50.5234 69.56L48.6176 70.1664L48.6199 70.1736L48.6222 70.1808L50.5234 69.56ZM48.2734 75.95L47.3278 74.1877L47.2816 74.2124L47.2368 74.2396L48.2734 75.95ZM43.5934 76.85L42.5334 78.546L42.5963 78.5853L42.6619 78.6198L43.5934 76.85ZM42.1534 75.68L43.5676 74.2658L43.5206 74.2187L43.4704 74.1749L42.1534 75.68ZM40.1734 74.6L40.8461 72.7165L40.2391 72.4997L39.6197 72.6782L40.1734 74.6ZM32.0734 71.9L30.3838 72.9701L30.3937 72.9857L30.4039 73.0012L32.0734 71.9ZM29.4634 66.95L27.6065 67.6928L29.4634 66.95ZM27.9334 63.17L29.7828 62.4085L29.7591 62.351L29.7319 62.2951L27.9334 63.17ZM24.2434 57.41L25.7659 56.1131L23.6325 53.6086L22.3913 56.6554L24.2434 57.41ZM21.9934 63.62L20.0961 62.9875L20.0925 62.9983L20.089 63.0091L21.9934 63.62ZM18.5734 73.52L16.6968 72.8286L15.7052 75.52H18.5734V73.52ZM37.2034 21.14V19.14H35.9006L35.3741 20.3317L37.2034 21.14ZM34.8634 26.54L33.0141 25.7785L34.8634 26.54ZM32.0734 33.29L30.226 32.524L30.1268 32.7632L30.0918 33.0198L32.0734 33.29ZM31.6234 36.08L29.6711 35.6461L28.1812 42.3507L33.0377 37.4942L31.6234 36.08ZM32.8834 34.82L32.0318 33.0104L31.716 33.159L31.4692 33.4058L32.8834 34.82ZM34.4134 34.1L35.265 35.9096L35.3259 35.881L35.3847 35.8483L34.4134 34.1ZM37.3834 32.48L38.3246 34.2447L37.3834 32.48ZM43.4134 23.93L45.3144 24.5515L45.4134 24.2486V23.93H43.4134ZM43.6834 22.13L41.8265 21.3872L41.7934 21.47L41.7678 21.5553L43.6834 22.13ZM44.1334 20.33L42.1657 19.9722L42.1513 20.0512L42.1434 20.131L44.1334 20.33ZM42.5134 17.54L43.2707 15.6889L43.0017 15.5788L42.7124 15.5499L42.5134 17.54ZM38.0134 20.51L39.532 21.8116L38.0134 20.51ZM17.0722 73.081C16.8987 73.8522 16.5395 74.4139 15.9833 74.8534C15.3944 75.3188 14.4818 75.725 13.1086 75.9582L13.7783 79.9018C15.5851 79.595 17.1925 78.9961 18.4635 77.9916C19.7674 76.9611 20.6082 75.5878 20.9747 73.959L17.0722 73.081ZM13.0821 75.9629C10.5309 76.4315 8.15699 76.1447 5.90104 75.1193L4.24583 78.7607C7.26989 80.1353 10.476 80.5085 13.8047 79.8971L13.0821 75.9629ZM5.86128 75.1017C4.57909 74.5522 3.87466 73.98 3.51722 73.4895C3.20332 73.0588 3.07683 72.5887 3.17896 71.9419L-0.772089 71.3181C-1.02996 72.9513 -0.691442 74.5062 0.284651 75.8455C1.21721 77.125 2.62779 78.0678 4.2856 78.7783L5.86128 75.1017ZM3.19282 71.4242C3.05094 70.0526 3.33903 67.583 4.2498 63.8205C5.14391 60.1268 6.58415 55.3931 8.58387 49.6029L4.803 48.2971C2.78273 54.1469 1.29797 59.0132 0.362077 62.8795C-0.557158 66.677 -1.00406 69.7274 -0.785946 71.8358L3.19282 71.4242ZM8.58487 49.6C14.5659 32.1951 20.4766 19.9826 26.2552 12.7594L23.1317 10.2606C16.9103 18.0374 10.821 30.7848 4.802 48.3L8.58487 49.6ZM26.2457 12.7712C27.7755 10.8883 28.8717 9.94695 29.5479 9.60885L27.759 6.03114C26.2752 6.77304 24.7313 8.29172 23.1412 10.2488L26.2457 12.7712ZM29.5849 9.58983C30.6137 9.04836 31.8012 8.54891 33.1559 8.09736L31.891 4.30263C30.3656 4.81108 28.9732 5.39163 27.7219 6.05016L29.5849 9.58983ZM33.1559 8.09736C34.5564 7.63051 36.0188 7.19169 37.5434 6.78123L36.5035 2.91877C34.9081 3.3483 33.3704 3.80948 31.891 4.30263L33.1559 8.09736ZM37.5434 6.78123C40.5795 5.96382 43.4172 5.4155 46.0596 5.12828L45.6273 1.15171C42.7497 1.46449 39.7074 2.05617 36.5035 2.91876L37.5434 6.78123ZM46.0967 5.1239C48.6073 4.80339 50.741 5.1077 52.5684 5.94735L54.2384 2.31264C51.6259 1.11229 48.7196 0.756603 45.5902 1.1561L46.0967 5.1239ZM52.6096 5.96571C54.484 6.77623 55.8675 7.95805 56.8374 9.50999L60.2294 7.39C58.7994 5.10194 56.7629 3.40376 54.1973 2.29428L52.6096 5.96571ZM56.8613 9.54731C57.9244 11.1672 58.616 13.1381 58.8862 15.5158L62.8607 15.0642C62.5309 12.1619 61.6625 9.57277 60.2055 7.35268L56.8613 9.54731ZM58.8868 15.521C59.1627 17.8932 59.0836 20.4336 58.6307 23.1512L62.5762 23.8088C63.0833 20.7664 63.1842 17.8468 62.8601 15.059L58.8868 15.521ZM58.6318 23.1444C58.1812 25.7919 57.3602 28.5203 56.1552 31.3322L59.8317 32.9078C61.1467 29.8397 62.0657 26.8081 62.5751 23.8156L58.6318 23.1444ZM56.1611 31.3184C54.9655 34.0513 53.4568 36.6136 51.6326 39.0079L54.8143 41.4321C56.8301 38.7864 58.5014 35.9487 59.8258 32.9216L56.1611 31.3184ZM51.6318 39.009C47.6436 44.2505 43.0656 47.5272 37.9113 49.0077L39.0156 52.8523C45.1412 51.0928 50.4033 47.2295 54.8151 41.431L51.6318 39.009ZM36.7396 51.944L37.6396 53.474L41.0873 51.446L40.1873 49.916L36.7396 51.944ZM37.6866 53.55C38.4962 54.7956 39.4531 56.1528 40.5534 57.62L43.7534 55.22C42.6938 53.8072 41.7907 52.5244 41.0403 51.37L37.6866 53.55ZM40.5853 57.6614C41.7064 59.0774 42.798 60.5231 43.8604 61.9986L47.1065 59.6614C46.0089 58.1369 44.8805 56.6426 43.7215 55.1786L40.5853 57.6614ZM43.8911 62.0402C44.9903 63.4865 45.9687 64.9261 46.8285 66.359L50.2584 64.301C49.3181 62.7339 48.2566 61.1735 47.0758 59.6198L43.8911 62.0402ZM46.8285 66.359C47.6685 67.759 48.255 69.0269 48.6176 70.1664L52.4293 68.9536C51.9519 67.4531 51.2184 65.901 50.2584 64.301L46.8285 66.359ZM48.6222 70.1808C49.0154 71.385 48.9777 72.1777 48.7945 72.6982C48.622 73.1881 48.2268 73.7053 47.3278 74.1877L49.2191 77.7123C50.7801 76.8747 51.9899 75.6669 52.5674 74.0267C53.1341 72.4173 52.9915 70.675 52.4247 68.9392L48.6222 70.1808ZM47.2368 74.2396C45.3811 75.3643 44.6736 75.1584 44.5249 75.0802L42.6619 78.6198C44.7933 79.7416 47.2058 78.9357 49.31 77.6604L47.2368 74.2396ZM44.6534 75.154C44.3242 74.9482 43.9611 74.6592 43.5676 74.2658L40.7392 77.0942C41.3058 77.6608 41.9027 78.1518 42.5334 78.546L44.6534 75.154ZM43.4704 74.1749C42.7422 73.5376 41.8353 73.0698 40.8461 72.7165L39.5008 76.4835C40.1915 76.7302 40.6047 76.9824 40.8364 77.1852L43.4704 74.1749ZM39.6197 72.6782C38.1248 73.1089 36.9933 73.0818 36.1259 72.7926C35.2768 72.5096 34.4741 71.9073 33.743 70.7988L30.4039 73.0012C31.5328 74.7127 33.0101 75.9704 34.861 76.5874C36.6935 77.1982 38.6821 77.1111 40.7272 76.5218L39.6197 72.6782ZM33.7631 70.8299C32.6693 69.103 31.863 67.5638 31.3204 66.2072L27.6065 67.6928C28.2638 69.3362 29.1975 71.097 30.3838 72.9701L33.7631 70.8299ZM31.3204 66.2072C30.7189 64.7035 30.2062 63.4369 29.7828 62.4085L26.0841 63.9315C26.5006 64.9431 27.008 66.1965 27.6065 67.6928L31.3204 66.2072ZM29.7319 62.2951C28.5896 59.9469 27.2712 57.8801 25.7659 56.1131L22.721 58.7069C23.9757 60.1799 25.1173 61.9531 26.135 64.0449L29.7319 62.2951ZM22.3913 56.6554C21.7088 58.3305 20.9436 60.4451 20.0961 62.9875L23.8908 64.2525C24.7233 61.7549 25.4581 59.7295 26.0956 58.1646L22.3913 56.6554ZM20.089 63.0091C19.0784 66.1598 17.9478 69.4329 16.6968 72.8286L20.4501 74.2114C21.7191 70.7671 22.8685 67.4402 23.8979 64.2309L20.089 63.0091ZM18.5734 75.52H19.0234V71.52H18.5734V75.52ZM35.3741 20.3317C34.2345 22.9106 33.445 24.7321 33.0141 25.7785L36.7128 27.3015C37.1219 26.3079 37.8923 24.5294 39.0328 21.9483L35.3741 20.3317ZM33.0141 25.7785C32.1748 27.8167 31.2455 30.0652 30.226 32.524L33.9209 34.056C34.9414 31.5948 35.8721 29.3433 36.7128 27.3015L33.0141 25.7785ZM30.0918 33.0198C29.9118 34.3397 29.7711 35.1958 29.6711 35.6461L33.5758 36.5139C33.7157 35.8842 33.8751 34.8803 34.0551 33.5602L30.0918 33.0198ZM33.0377 37.4942L34.2977 36.2342L31.4692 33.4058L30.2092 34.6658L33.0377 37.4942ZM33.735 36.6296L35.265 35.9096L33.5618 32.2904L32.0318 33.0104L33.735 36.6296ZM35.3847 35.8483C36.4567 35.2528 37.4365 34.7183 38.3246 34.2447L36.4423 30.7153C35.5303 31.2016 34.5301 31.7472 33.4422 32.3517L35.3847 35.8483ZM38.3246 34.2447C39.3984 33.672 40.3679 32.954 41.2277 32.0942L38.3992 29.2658C37.819 29.846 37.1685 30.328 36.4423 30.7153L38.3246 34.2447ZM41.2277 32.0942C42.9327 30.3892 44.255 27.7921 45.3144 24.5515L41.5124 23.3085C40.5319 26.3079 39.4542 28.2108 38.3992 29.2658L41.2277 32.0942ZM45.4134 23.93C45.4134 23.5331 45.4725 23.1265 45.5991 22.7047L41.7678 21.5553C41.5343 22.3335 41.4134 23.1269 41.4134 23.93H45.4134ZM45.5404 22.8728C45.8451 22.1111 46.0436 21.3285 46.1235 20.529L42.1434 20.131C42.1033 20.5315 42.0018 20.9489 41.8265 21.3872L45.5404 22.8728ZM46.1012 20.6878C46.2845 19.6795 46.2015 18.6086 45.638 17.6382C45.0835 16.6833 44.2063 16.0717 43.2707 15.6889L41.7562 19.3911C42.1405 19.5483 42.1933 19.6717 42.1789 19.6468C42.1554 19.6064 42.2224 19.6605 42.1657 19.9722L46.1012 20.6878ZM42.7124 15.5499C41.4776 15.4264 40.3394 15.8945 39.3868 16.5233C38.4216 17.1603 37.4584 18.0844 36.4949 19.2084L39.532 21.8116C40.3685 20.8356 41.0553 20.2147 41.5901 19.8617C42.1374 19.5005 42.3492 19.5336 42.3144 19.5301L42.7124 15.5499ZM36.4949 19.2084C36.3559 19.3706 36.2977 19.4157 36.3131 19.4038C36.3229 19.3962 36.39 19.344 36.5095 19.2882C36.6236 19.235 36.8673 19.14 37.2034 19.14V23.14C37.9906 23.14 38.5549 22.7276 38.7688 22.5612C39.0541 22.3393 39.311 22.0694 39.532 21.8116L36.4949 19.2084ZM63.7563 33.74L62.368 32.3003L62.1917 32.4703L62.0616 32.6778L63.7563 33.74ZM69.3363 30.95L69.5699 32.9363L69.5946 32.9334L69.6191 32.9299L69.3363 30.95ZM74.8263 31.58L73.9881 33.3959L74.001 33.4019L74.014 33.4076L74.8263 31.58ZM78.3363 35.09L76.5086 35.9023L76.5271 35.9438L76.5474 35.9844L78.3363 35.09ZM78.0663 40.49L79.7201 41.6146L79.8088 41.4842L79.8759 41.3416L78.0663 40.49ZM69.8763 60.74L67.9544 60.1863L66.5004 65.2325L70.9429 62.4318L69.8763 60.74ZM83.7363 45.17L85.4967 46.1191L85.5003 46.1125L85.5038 46.1058L83.7363 45.17ZM87.2463 38.96L88.9612 39.989L88.9863 39.9473L89.0092 39.9044L87.2463 38.96ZM88.5963 36.44L86.9003 35.38L86.8648 35.4367L86.8333 35.4956L88.5963 36.44ZM91.2963 32.12L92.9922 33.18L93.1269 32.9645L93.2034 32.7223L91.2963 32.12ZM93.1863 29.96L93.8187 31.8574L93.8745 31.8388L93.929 31.817L93.1863 29.96ZM99.3063 29.51L99.1953 31.5069L99.2507 31.51H99.3063V29.51ZM102.276 28.61L103.386 30.2741L102.276 28.61ZM105.426 27.98L105.13 29.9579L105.183 29.9659L105.237 29.971L105.426 27.98ZM108.756 29.15L107.623 30.7981L107.646 30.8139L107.67 30.8291L108.756 29.15ZM111.006 31.58L109.217 32.4744L109.252 32.5431L109.291 32.609L111.006 31.58ZM111.186 34.28L109.374 33.4342V33.4342L111.186 34.28ZM100.836 64.43L102.747 65.0206L102.75 65.0109L102.753 65.0011L100.836 64.43ZM97.9563 72.71L99.5131 73.9655L99.6987 73.7354L99.8097 73.4614L97.9563 72.71ZM92.2863 76.49L92.8424 78.4111L92.2863 76.49ZM85.8063 77.03L86.0972 75.0513L86.0721 75.0476L86.0469 75.0445L85.8063 77.03ZM81.0363 74.96L82.4138 73.51L82.3942 73.4914L82.3742 73.4734L81.0363 74.96ZM80.2263 70.82L82.0878 71.5513L84.9002 64.3925L78.9568 69.2745L80.2263 70.82ZM75.0063 74.6L76.0764 76.2896L75.0063 74.6ZM68.4362 76.85L68.1599 74.8692L68.1534 74.8701L68.4362 76.85ZM61.1463 76.49L61.643 74.5527L61.6196 74.5467L61.596 74.5412L61.1463 76.49ZM55.1163 73.25L53.702 74.6642L53.7149 74.6771L53.728 74.6897L55.1163 73.25ZM52.5063 66.77L50.5077 66.8459L50.5082 66.8588L52.5063 66.77ZM65.1445 35.1797C66.5547 33.8199 68.0223 33.1184 69.5699 32.9363L69.1026 28.9637C66.5702 29.2616 64.3178 30.4201 62.368 32.3003L65.1445 35.1797ZM69.6191 32.9299C71.4272 32.6716 72.8523 32.8717 73.9881 33.3959L75.6644 29.7641C73.6802 28.8483 71.4453 28.6284 69.0534 28.9701L69.6191 32.9299ZM74.014 33.4076C75.1815 33.9265 75.9897 34.7347 76.5086 35.9023L80.1639 34.2777C79.2428 32.2053 77.711 30.6735 75.6385 29.7524L74.014 33.4076ZM76.5474 35.9844C76.9766 36.8429 77.0387 37.9765 76.2566 39.6384L79.8759 41.3416C81.0138 38.9235 81.2559 36.4571 80.1251 34.1956L76.5474 35.9844ZM76.4124 39.3654C74.2714 42.5139 72.5724 45.9132 71.3155 49.558L75.097 50.862C76.2402 47.5468 77.7811 44.4661 79.7201 41.6146L76.4124 39.3654ZM71.3155 49.558C70.1043 53.0705 68.9839 56.6133 67.9544 60.1863L71.7981 61.2937C72.8086 57.7867 73.9082 54.3095 75.097 50.862L71.3155 49.558ZM70.9429 62.4318C76.8077 58.7345 81.6461 53.2614 85.4967 46.1191L81.9758 44.2209C78.3864 50.8786 73.9848 55.7855 68.8097 59.0481L70.9429 62.4318ZM85.5038 46.1058C86.5662 44.0992 87.7185 42.0602 88.9612 39.989L85.5313 37.931C84.254 40.0598 83.0663 42.1609 81.9687 44.2342L85.5038 46.1058ZM89.0092 39.9044L90.3592 37.3844L86.8333 35.4956L85.4833 38.0156L89.0092 39.9044ZM90.2923 37.5L92.9922 33.18L89.6003 31.06L86.9003 35.38L90.2923 37.5ZM93.2034 32.7223C93.4263 32.0163 93.6834 31.9025 93.8187 31.8574L92.5538 28.0626C90.8891 28.6175 89.8862 29.9437 89.3891 31.5177L93.2034 32.7223ZM93.929 31.817C94.5806 31.5563 95.2872 31.42 96.0663 31.42V27.42C94.8053 27.42 93.5919 27.6437 92.4435 28.103L93.929 31.817ZM96.0663 31.42C97.1092 31.42 98.1522 31.449 99.1953 31.5069L99.4172 27.5131C98.3003 27.451 97.1833 27.42 96.0663 27.42V31.42ZM99.3063 31.51C100.782 31.51 102.158 31.0928 103.386 30.2741L101.167 26.9459C100.595 27.3272 99.9908 27.51 99.3063 27.51V31.51ZM103.386 30.2741C103.821 29.9839 104.357 29.8419 105.13 29.9579L105.723 26.0021C104.096 25.7581 102.531 26.0361 101.167 26.9459L103.386 30.2741ZM105.237 29.971C106.188 30.0616 106.967 30.3471 107.623 30.7981L109.889 27.5019C108.625 26.6329 107.184 26.1384 105.616 25.989L105.237 29.971ZM107.67 30.8291C108.43 31.3211 108.917 31.8745 109.217 32.4744L112.795 30.6856C112.135 29.3655 111.122 28.2988 109.843 27.4709L107.67 30.8291ZM109.291 32.609C109.512 32.9776 109.494 33.1761 109.374 33.4342L112.999 35.1258C113.718 33.5839 113.58 31.9824 112.721 30.551L109.291 32.609ZM109.374 33.4342C106.784 38.9844 103.297 49.1663 98.9195 63.8589L102.753 65.0011C107.135 50.2937 110.549 40.3756 112.999 35.1258L109.374 33.4342ZM98.9255 63.8394C97.9156 67.1065 96.9743 69.8087 96.1028 71.9586L99.8097 73.4614C100.738 71.1713 101.717 68.3535 102.747 65.0206L98.9255 63.8394ZM96.3994 71.4545C95.155 72.9976 93.6134 74.0237 91.7301 74.5689L92.8424 78.4111C95.5191 77.6363 97.7575 76.1424 99.5131 73.9655L96.3994 71.4545ZM91.7301 74.5689C89.6837 75.1613 87.8143 75.3038 86.0972 75.0513L85.5153 79.0087C87.8783 79.3562 90.3288 79.1387 92.8424 78.4111L91.7301 74.5689ZM86.0469 75.0445C84.4038 74.8454 83.2425 74.2973 82.4138 73.51L79.6588 76.41C81.23 77.9027 83.2487 78.7346 85.5656 79.0155L86.0469 75.0445ZM82.3742 73.4734C82.0467 73.1787 81.9363 72.9341 81.8965 72.731C81.8528 72.5074 81.858 72.1362 82.0878 71.5513L78.3648 70.0887C77.9345 71.1838 77.7447 72.3426 77.971 73.499C78.2012 74.6759 78.8258 75.6613 79.6983 76.4466L82.3742 73.4734ZM78.9568 69.2745C77.3389 70.6035 75.6654 71.8152 73.9361 72.9104L76.0764 76.2896C77.9471 75.1048 79.7536 73.7965 81.4957 72.3655L78.9568 69.2745ZM73.9361 72.9104C72.4244 73.8678 70.519 74.54 68.1599 74.8692L68.7126 78.8308C71.5135 78.44 73.9881 77.6122 76.0764 76.2896L73.9361 72.9104ZM68.1534 74.8701C65.8793 75.195 63.7149 75.0839 61.643 74.5527L60.6495 78.4273C63.2576 79.0961 65.9532 79.225 68.7191 78.8299L68.1534 74.8701ZM61.596 74.5412C59.5984 74.0802 57.9158 73.1712 56.5045 71.8103L53.728 74.6897C55.6767 76.5689 58.0141 77.8198 60.6965 78.4388L61.596 74.5412ZM56.5305 71.8358C55.3259 70.6312 54.6063 68.9772 54.5043 66.6812L50.5082 66.8588C50.6462 69.9628 51.6666 72.6288 53.702 74.6642L56.5305 71.8358ZM54.5048 66.6941C54.1664 57.7824 57.6936 47.1783 65.4509 34.8022L62.0616 32.6778C54.0989 45.3817 50.1261 56.7976 50.5077 66.8459L54.5048 66.6941ZM120.226 73.52L121.58 74.9919L122.226 74.3976V73.52H120.226ZM117.976 75.59L119.123 77.2285L119.232 77.1521L119.33 77.0619L117.976 75.59ZM114.466 77.12L114.154 75.1445L110.275 75.757L113.052 78.5342L114.466 77.12ZM114.556 77.21L115.806 78.7717L117.551 77.3758L115.971 75.7958L114.556 77.21ZM114.106 77.57L114.275 79.5629L114.881 79.5117L115.356 79.1317L114.106 77.57ZM104.656 74.78L103.168 76.1158L103.176 76.1246L103.184 76.1332L104.656 74.78ZM103.306 65.6L105.213 66.2052L105.253 66.0787L105.276 65.948L103.306 65.6ZM114.376 24.02L116.252 24.7155L116.253 24.7108L114.376 24.02ZM123.556 6.65L122.17 5.20834L122.156 5.22192L122.142 5.23579L123.556 6.65ZM127.876 5.3L127.049 7.12073L129.234 8.11419L129.817 5.78506L127.876 5.3ZM129.766 1.97L131.076 3.48137L131.104 3.45724L131.131 3.43211L129.766 1.97ZM132.736 0.529997L132.957 2.51777L133.011 2.51175L133.065 2.50278L132.736 0.529997ZM135.886 1.07L134.951 2.83757L134.992 2.85959L135.035 2.87963L135.886 1.07ZM138.226 3.77L136.375 4.52726L136.39 4.56273L136.406 4.59761L138.226 3.77ZM138.946 7.64L136.955 7.45038L136.951 7.49518L136.949 7.54012L138.946 7.64ZM138.136 11.24L136.279 10.4972L136.269 10.5228L136.26 10.5486L138.136 11.24ZM136.516 14.66L134.785 13.6579L134.765 13.6928L134.746 13.7285L136.516 14.66ZM134.806 18.08L132.999 17.2238L132.978 17.2677L132.959 17.3125L134.806 18.08ZM126.616 38.6L124.737 37.9145L122.644 43.6518L127.726 40.2641L126.616 38.6ZM127.426 38.06L126.317 36.3959L127.426 38.06ZM140.116 34.55L140.297 32.5582L140.273 32.556L140.249 32.5544L140.116 34.55ZM145.426 36.17L144.427 37.9024L144.466 37.9248L144.506 37.9455L145.426 36.17ZM148.936 40.04L147.088 40.8047L147.099 40.8316L147.111 40.8581L148.936 40.04ZM149.836 46.79L147.841 46.6598L147.839 46.6805L147.838 46.7012L149.836 46.79ZM148.306 55.25L150.215 55.8466L150.219 55.8354L148.306 55.25ZM144.616 63.71L142.875 62.7259L142.867 62.7404L142.859 62.755L144.616 63.71ZM139.576 70.91L138.098 69.5625L138.096 69.5647L139.576 70.91ZM127.426 76.13L127.987 74.2103L127.572 74.0889L127.143 74.1501L127.426 76.13ZM121.576 73.79L120.259 75.2952L120.288 75.3199L120.317 75.3435L121.576 73.79ZM120.226 72.8L121.219 71.0635L118.226 69.3536V72.8H120.226ZM122.656 67.04H120.656V72.3295L124.156 68.3632L122.656 67.04ZM127.246 61.28L125.675 60.0429L125.667 60.0533L125.659 60.0638L127.246 61.28ZM131.656 54.71L129.854 53.8424L129.847 53.8571L129.84 53.8719L131.656 54.71ZM131.116 50.21L129.548 51.4514L129.561 51.4677L129.574 51.4838L131.116 50.21ZM126.796 53.45L124.996 52.5797L124.993 52.5858L126.796 53.45ZM118.872 72.0481L116.622 74.1181L119.33 77.0619L121.58 74.9919L118.872 72.0481ZM116.829 73.9515C115.813 74.6627 114.924 75.0229 114.154 75.1445L114.778 79.0955C116.288 78.8571 117.739 78.1973 119.123 77.2285L116.829 73.9515ZM113.052 78.5342L113.142 78.6242L115.971 75.7958L115.881 75.7058L113.052 78.5342ZM113.307 75.6483L112.857 76.0083L115.356 79.1317L115.806 78.7717L113.307 75.6483ZM113.938 75.5771C110.023 75.908 107.595 75.0224 106.129 73.4268L103.184 76.1332C105.797 78.9776 109.67 79.952 114.275 79.5629L113.938 75.5771ZM106.145 73.4442C104.646 71.7735 104.162 69.514 105.213 66.2052L101.4 64.9948C100.051 69.246 100.467 73.1065 103.168 76.1158L106.145 73.4442ZM105.276 65.948C107.897 51.1134 111.558 37.3709 116.252 24.7155L112.501 23.3245C107.715 36.2291 103.995 50.2066 101.337 65.252L105.276 65.948ZM116.253 24.7108C119.426 16.0906 122.365 10.6698 124.971 8.06421L122.142 5.23579C118.868 8.51021 115.687 14.6694 112.499 23.3292L116.253 24.7108ZM124.943 8.09166C126.251 6.8335 126.826 7.01959 127.049 7.12073L128.704 3.47926C126.286 2.3804 123.982 3.4665 122.17 5.20834L124.943 8.09166ZM129.817 5.78506C130.102 4.64479 130.556 3.93227 131.076 3.48137L128.456 0.458616C127.177 1.56772 126.371 3.0752 125.936 4.81493L129.817 5.78506ZM131.131 3.43211C131.76 2.84503 132.361 2.58401 132.957 2.51777L132.515 -1.45777C130.952 -1.28402 129.573 -0.585041 128.402 0.507885L131.131 3.43211ZM133.065 2.50278C133.688 2.39895 134.296 2.4909 134.951 2.83757L136.822 -0.69758C135.437 -1.43091 133.945 -1.69896 132.408 -1.44279L133.065 2.50278ZM135.035 2.87963C135.491 3.09414 135.973 3.54319 136.375 4.52726L140.077 3.01273C139.4 1.35681 138.322 0.00585556 136.738 -0.739641L135.035 2.87963ZM136.406 4.59761C136.882 5.64627 137.038 6.58656 136.955 7.45038L140.937 7.82962C141.095 6.17343 140.77 4.53372 140.047 2.94239L136.406 4.59761ZM136.949 7.54012C136.901 8.50341 136.684 9.48674 136.279 10.4972L139.993 11.9828C140.549 10.5933 140.872 9.17659 140.944 7.73987L136.949 7.54012ZM136.26 10.5486C135.882 11.5725 135.393 12.6089 134.785 13.6579L138.247 15.6621C138.96 14.4311 139.55 13.1875 140.013 11.9314L136.26 10.5486ZM134.746 13.7285C134.134 14.8928 133.551 16.0579 132.999 17.2238L136.614 18.9362C137.142 17.8221 137.699 16.7072 138.286 15.5915L134.746 13.7285ZM132.959 17.3125C129.118 26.5567 126.373 33.4307 124.737 37.9145L128.495 39.2855C130.099 34.8893 132.815 28.0833 136.653 18.8475L132.959 17.3125ZM127.726 40.2641L128.536 39.7241L126.317 36.3959L125.507 36.9359L127.726 40.2641ZM128.536 39.7241C132.151 37.3139 135.948 36.2765 139.983 36.5456L140.249 32.5544C135.285 32.2234 130.622 33.5261 126.317 36.3959L128.536 39.7241ZM139.935 36.5418C141.657 36.6983 143.143 37.1615 144.427 37.9024L146.426 34.4376C144.59 33.3785 142.536 32.7617 140.297 32.5582L139.935 36.5418ZM144.506 37.9455C145.693 38.561 146.542 39.4853 147.088 40.8047L150.784 39.2753C149.89 37.1147 148.4 35.459 146.347 34.3945L144.506 37.9455ZM147.111 40.8581C147.711 42.1969 148.008 44.0887 147.841 46.6598L151.832 46.9202C152.024 43.9713 151.721 41.3631 150.761 39.2219L147.111 40.8581ZM147.838 46.7012C147.727 49.2115 147.251 51.8641 146.394 54.6646L150.219 55.8354C151.161 52.7559 151.706 49.7685 151.834 46.8788L147.838 46.7012ZM146.397 54.6535C145.542 57.3921 144.369 60.0826 142.875 62.7259L146.357 64.6941C147.983 61.8174 149.271 58.8679 150.215 55.8465L146.397 54.6535ZM142.859 62.755C141.426 65.3924 139.836 67.6566 138.098 69.5625L141.054 72.2575C143.037 70.0834 144.807 67.5476 146.374 64.665L142.859 62.755ZM138.096 69.5647C134.104 73.9559 130.799 75.0322 127.987 74.2103L126.865 78.0497C131.853 79.5078 136.648 77.1041 141.056 72.2553L138.096 69.5647ZM127.143 74.1501C126.293 74.2717 124.905 73.9143 122.836 72.2365L120.317 75.3435C122.687 77.2657 125.2 78.4683 127.709 78.1099L127.143 74.1501ZM122.893 72.2848C122.343 71.8031 121.784 71.3867 121.219 71.0635L119.234 74.5365C119.509 74.6933 119.85 74.9369 120.259 75.2952L122.893 72.2848ZM118.226 72.8V73.52H122.226V72.8H118.226ZM124.156 68.3632C125.108 67.2845 126.677 65.3128 128.834 62.4962L125.659 60.0638C123.496 62.8872 122.005 64.7555 121.157 65.7168L124.156 68.3632ZM128.818 62.5171C131.054 59.6771 132.648 57.3335 133.472 55.5481L129.84 53.8719C129.224 55.2065 127.879 57.2429 125.675 60.0429L128.818 62.5171ZM133.458 55.5776C133.982 54.4902 134.236 53.3272 134.092 52.1317C133.949 50.9356 133.427 49.8663 132.658 48.9362L129.574 51.4838C129.946 51.9337 130.084 52.3044 130.121 52.6083C130.157 52.9128 130.111 53.3098 129.854 53.8424L133.458 55.5776ZM132.684 48.9686C132.212 48.3714 131.491 47.7625 130.481 47.6217C129.462 47.4795 128.599 47.8764 127.981 48.34C126.842 49.1943 125.874 50.7617 124.996 52.5797L128.597 54.3203C129.005 53.4755 129.374 52.8252 129.699 52.3465C130.035 51.8521 130.269 51.6241 130.381 51.54C130.483 51.4636 130.303 51.6355 129.929 51.5833C129.564 51.5325 129.451 51.3286 129.548 51.4514L132.684 48.9686ZM124.993 52.5858C122.202 58.4091 120.656 63.2748 120.656 67.04H124.656C124.656 64.2052 125.87 60.0109 128.6 54.3142L124.993 52.5858ZM150.401 45.71L148.402 45.6612L148.401 45.6856V45.71H150.401ZM149.861 39.68L151.792 39.16L149.861 39.68ZM149.861 35.81L148.033 34.9977L148.022 35.023L148.012 35.0485L149.861 35.81ZM152.021 33.56L151.259 31.7106L151.239 31.7189L151.219 31.7277L152.021 33.56ZM155.531 33.2L155.261 35.1817L155.309 35.1883L155.358 35.1925L155.531 33.2ZM159.581 34.37L158.687 36.1589L158.721 36.176L158.756 36.1919L159.581 34.37ZM166.241 40.49L168.191 40.0468L168.142 39.8296L168.046 39.6285L166.241 40.49ZM165.881 45.44L163.951 44.9138L163.946 44.9343L163.941 44.9549L165.881 45.44ZM164.171 51.47L166.074 52.0856L166.076 52.0777L166.079 52.0696L164.171 51.47ZM162.281 57.5L164.19 58.0965L164.192 58.0883L164.195 58.08L162.281 57.5ZM161.561 62.36L159.569 62.5411L159.861 65.7543L162.609 64.0633L161.561 62.36ZM165.611 58.04L163.915 56.98L163.903 56.9993L163.891 57.0189L165.611 58.04ZM168.851 51.92L167.034 51.085L167.028 51.0963L167.023 51.1077L168.851 51.92ZM171.641 45.35L169.795 44.5808L169.786 44.6028L169.777 44.6251L171.641 45.35ZM174.161 40.22L172.497 39.1106L172.478 39.1386L172.46 39.1673L174.161 40.22ZM176.141 37.25L177.805 38.3594L177.825 38.3292L177.844 38.2982L176.141 37.25ZM177.581 35.18L179.143 36.4294L179.156 36.4123L179.17 36.3949L177.581 35.18ZM180.641 32.21L181.853 33.8009L181.888 33.7744L181.921 33.7464L180.641 32.21ZM183.881 32.39L183.426 34.3377L183.464 34.3463L183.501 34.3536L183.881 32.39ZM187.931 33.2L187.512 35.1556L187.589 35.1721L187.667 35.1825L187.931 33.2ZM189.731 33.02L188.568 31.3925L188.524 31.4242L188.482 31.4583L189.731 33.02ZM190.991 32.12L190.097 30.3311L189.956 30.4013L189.828 30.4925L190.991 32.12ZM196.931 32.21L197.725 30.3743L197.695 30.3615L197.665 30.3497L196.931 32.21ZM200.441 36.62L201.855 38.0342L202.492 37.3976L202.437 36.499L200.441 36.62ZM200.351 36.98H198.351V38.4215L199.718 38.8774L200.351 36.98ZM200.621 37.07L201.923 38.5885L204.605 36.2897L201.253 35.1726L200.621 37.07ZM199.991 37.61L198.689 36.0915L198.407 36.3339L198.23 36.6618L199.991 37.61ZM199.001 39.23L197.439 37.9806L197.42 38.005L197.401 38.03L199.001 39.23ZM197.741 40.4L196.474 38.8521L196.37 38.9378L196.277 39.0368L197.741 40.4ZM183.701 64.79L185.525 65.6092L185.529 65.6023L183.701 64.79ZM180.101 72.71L178.285 71.8719L177.549 73.4666L179.035 74.4025L180.101 72.71ZM183.791 76.67L182.015 77.5906L183.791 76.67ZM183.791 81.98L185.036 83.5454L185.424 83.2364L185.623 82.7816L183.791 81.98ZM175.421 93.14L173.45 92.8002L173.444 92.8324L173.44 92.8649L175.421 93.14ZM174.251 97.73L172.486 96.7888L172.461 96.8359L172.439 96.8842L174.251 97.73ZM172.181 100.34L173.371 101.947L173.437 101.899L173.498 101.845L172.181 100.34ZM160.751 98.54L159.337 99.9542L159.406 100.023L159.481 100.085L160.751 98.54ZM160.301 86.84L162.014 87.8722L162.026 87.8524L162.037 87.8323L160.301 86.84ZM162.371 82.88L164.175 83.7429L164.181 83.7316L162.371 82.88ZM166.961 73.79L168.734 74.716L171.937 68.5833L165.956 72.061L166.961 73.79ZM152.741 73.61L151.526 75.1987L151.548 75.2153L151.57 75.2314L152.741 73.61ZM149.501 57.68L147.513 57.4639L149.501 57.68ZM152.4 45.7588C152.463 43.196 152.281 40.9753 151.792 39.16L147.93 40.1999C148.281 41.5047 148.459 43.3039 148.402 45.6612L152.4 45.7588ZM151.792 39.16C151.435 37.8349 151.52 37.0346 151.71 36.5715L148.012 35.0485C147.362 36.6254 147.446 38.4051 147.93 40.1999L151.792 39.16ZM151.689 36.6223C151.994 35.9356 152.379 35.5863 152.823 35.3923L151.219 31.7277C149.743 32.3737 148.688 33.5243 148.033 34.9977L151.689 36.6223ZM152.782 35.4094C153.415 35.1491 154.218 35.0394 155.261 35.1817L155.801 31.2183C154.204 31.0006 152.667 31.1309 151.259 31.7106L152.782 35.4094ZM155.358 35.1925C156.471 35.2892 157.577 35.6041 158.687 36.1589L160.475 32.5811C158.945 31.8159 157.351 31.3507 155.704 31.2075L155.358 35.1925ZM158.756 36.1919C161.593 37.4767 163.417 39.216 164.436 41.3515L168.046 39.6285C166.545 36.484 163.929 34.1433 160.406 32.5481L158.756 36.1919ZM164.291 40.9332C164.49 41.8101 164.446 43.1007 163.951 44.9138L167.81 45.9662C168.396 43.8193 168.592 41.8099 168.191 40.0468L164.291 40.9332ZM163.941 44.9549C163.471 46.8324 162.912 48.8041 162.263 50.8703L166.079 52.0696C166.75 49.9359 167.331 47.8876 167.821 45.9251L163.941 44.9549ZM162.268 50.8544C161.604 52.9058 160.971 54.9277 160.367 56.92L164.195 58.08C164.791 56.1123 165.418 54.1142 166.074 52.0856L162.268 50.8544ZM160.372 56.9035C159.73 58.9575 159.416 60.8594 159.569 62.5411L163.553 62.1789C163.466 61.2206 163.632 59.8825 164.19 58.0965L160.372 56.9035ZM162.609 64.0633C164.499 62.9003 166.061 61.1992 167.331 59.0611L163.891 57.0189C162.881 58.7208 161.743 59.8997 160.513 60.6567L162.609 64.0633ZM167.307 59.1C168.559 57.0972 169.682 54.9741 170.679 52.7323L167.023 51.1077C166.1 53.1859 165.063 55.1428 163.915 56.98L167.307 59.1ZM170.668 52.755C171.704 50.5007 172.65 48.274 173.505 46.0749L169.777 44.6251C168.952 46.746 168.038 48.8993 167.034 51.085L170.668 52.755ZM173.487 46.1192C174.367 44.0082 175.16 42.406 175.861 41.2727L172.46 39.1673C171.602 40.554 170.715 42.3718 169.795 44.5808L173.487 46.1192ZM175.825 41.3294C176.665 40.0694 177.325 39.0794 177.805 38.3594L174.477 36.1406C173.997 36.8606 173.337 37.8506 172.497 39.1106L175.825 41.3294ZM177.844 38.2982C178.289 37.5753 178.723 36.9545 179.143 36.4294L176.019 33.9306C175.479 34.6055 174.953 35.3647 174.438 36.2018L177.844 38.2982ZM179.17 36.3949C179.82 35.5449 180.703 34.677 181.853 33.8009L179.429 30.6191C178.059 31.663 176.902 32.7751 175.992 33.9651L179.17 36.3949ZM181.921 33.7464C181.766 33.8757 181.623 33.944 181.535 33.9784C181.446 34.0128 181.387 34.0232 181.375 34.0253C181.358 34.0281 181.424 34.0166 181.61 34.0269C181.981 34.0476 182.572 34.1383 183.426 34.3377L184.335 30.4423C183.39 30.2216 182.541 30.0724 181.832 30.0331C181.478 30.0134 181.094 30.0169 180.717 30.0797C180.365 30.1384 179.835 30.2782 179.361 30.6736L181.921 33.7464ZM183.501 34.3536C185.359 34.7133 186.693 34.9801 187.512 35.1556L188.35 31.2444C187.489 31.0599 186.122 30.7867 184.261 30.4264L183.501 34.3536ZM187.667 35.1825C188.201 35.2537 188.744 35.2861 189.255 35.2351C189.738 35.1868 190.403 35.0439 190.98 34.5817L188.482 31.4583C188.628 31.3408 188.757 31.2891 188.817 31.2689C188.877 31.2489 188.897 31.2509 188.857 31.2549C188.819 31.2587 188.746 31.2625 188.63 31.2578C188.515 31.2533 188.371 31.241 188.195 31.2175L187.667 35.1825ZM190.893 34.6475L192.153 33.7475L189.828 30.4925L188.568 31.3925L190.893 34.6475ZM191.885 33.9089C192.913 33.3948 194.274 33.3115 196.197 34.0703L197.665 30.3497C195.028 29.3085 192.428 29.1652 190.097 30.3311L191.885 33.9089ZM196.137 34.0457C197.848 34.7855 198.381 35.6936 198.445 36.741L202.437 36.499C202.261 33.5864 200.454 31.5545 197.725 30.3743L196.137 34.0457ZM199.027 35.2058C198.649 35.5835 198.498 36.0094 198.433 36.2699C198.365 36.5425 198.351 36.7935 198.351 36.98H202.351C202.351 36.9865 202.352 37.0875 202.314 37.2401C202.279 37.3806 202.173 37.7165 201.855 38.0342L199.027 35.2058ZM199.718 38.8774L199.988 38.9674L201.253 35.1726L200.983 35.0826L199.718 38.8774ZM199.319 35.5515L198.689 36.0915L201.293 39.1285L201.923 38.5885L199.319 35.5515ZM198.23 36.6618C197.813 37.4366 197.556 37.8348 197.439 37.9806L200.563 40.4794C200.926 40.0252 201.329 39.3434 201.752 38.5582L198.23 36.6618ZM197.401 38.03C197.421 38.0038 197.376 38.064 197.19 38.2369C197.021 38.3934 196.786 38.5971 196.474 38.8521L199.007 41.9479C199.642 41.4283 200.253 40.8939 200.601 40.43L197.401 38.03ZM196.277 39.0368C191.954 43.6786 187.163 52.0758 181.873 63.9777L185.529 65.6023C190.799 53.7442 195.368 45.8814 199.204 41.7632L196.277 39.0368ZM181.876 63.9708C180.559 66.906 179.361 69.5395 178.285 71.8719L181.917 73.5481C183 71.2005 184.203 68.554 185.525 65.6092L181.876 63.9708ZM179.035 74.4025C180.37 75.2426 181.347 76.3022 182.015 77.5906L185.566 75.7494C184.555 73.7978 183.072 72.2174 181.167 71.0175L179.035 74.4025ZM182.015 77.5906C182.534 78.5911 182.597 79.7193 181.959 81.1784L185.623 82.7816C186.665 80.4007 186.728 77.9889 185.566 75.7494L182.015 77.5906ZM182.546 80.4146C177.459 84.4601 174.178 88.575 173.45 92.8002L177.392 93.4798C177.863 90.745 180.163 87.4199 185.036 83.5454L182.546 80.4146ZM173.44 92.8649C173.144 94.9958 172.788 96.2223 172.486 96.7888L176.016 98.6712C176.674 97.4377 177.098 95.6042 177.402 93.4151L173.44 92.8649ZM172.439 96.8842C172.164 97.4717 171.672 98.1279 170.864 98.8349L173.498 101.845C174.61 100.872 175.497 99.7883 176.063 98.5758L172.439 96.8842ZM170.99 98.7329C169.78 99.6299 168.554 99.9268 167.205 99.7144C165.78 99.49 164.056 98.6679 162.021 96.9949L159.481 100.085C161.826 102.012 164.197 103.29 166.582 103.666C169.043 104.053 171.342 103.45 173.371 101.947L170.99 98.7329ZM162.165 97.1258C160.911 95.872 160.35 94.5781 160.297 93.1981C160.242 91.7646 160.728 90.0067 162.014 87.8722L158.588 85.8078C157.054 88.3533 156.205 90.8854 156.3 93.3519C156.397 95.8719 157.471 98.088 159.337 99.9542L162.165 97.1258ZM162.037 87.8323C162.783 86.5278 163.495 85.1645 164.175 83.7429L160.567 82.0171C159.927 83.3555 159.259 84.6322 158.564 85.8477L162.037 87.8323ZM164.181 83.7316C165.122 81.7307 166.636 78.7308 168.734 74.716L165.188 72.864C163.085 76.8892 161.54 79.9493 160.561 82.0284L164.181 83.7316ZM165.956 72.061C163.608 73.4258 161.487 74.0195 159.561 73.9952C157.653 73.971 155.781 73.3387 153.912 71.9886L151.57 75.2314C154.021 77.0013 156.679 77.959 159.511 77.9948C162.325 78.0305 165.154 77.1542 167.966 75.519L165.956 72.061ZM153.956 72.0213C152.941 71.245 152.078 69.8465 151.596 67.4739C151.113 65.099 151.051 61.9287 151.489 57.8961L147.513 57.4639C147.051 61.7113 147.079 65.336 147.676 68.2711C148.273 71.2085 149.481 73.6349 151.526 75.1987L153.956 72.0213ZM151.489 57.8961C152.09 52.3706 152.401 48.2873 152.401 45.71H148.401C148.401 48.0527 148.112 51.9494 147.513 57.4639L151.489 57.8961Z" fill="black" mask="url(#path-1-outside-1_270_5590)"/>
</svg>
