<svg width="720" height="275" viewBox="0 0 720 275" fill="none" xmlns="http://www.w3.org/2000/svg">
<path d="M0 0H349.994H407.286H718.602C719.258 0.722071 719.481 1.32502 719.54 2.16822C719.925 7.7385 719.622 13.4118 719.626 18.9906V50.7233C719.624 55.3665 720.608 67.7695 719.392 71.7429C719.287 72.0807 719.112 72.3994 718.905 72.7121L718.877 73.8788C719.353 74.6788 719.526 75.3622 719.56 76.2227C720.248 93.4056 719.954 272.968 719.125 274.365C718.989 274.595 718.811 274.798 718.602 275H0V0ZM349.994 0C349.937 1.189 349.857 2.05294 350.593 3.15838C350.682 3.29374 350.757 3.43407 350.839 3.5716C351.062 3.94099 350.946 3.9726 350.743 4.3621C348.794 4.43671 346.726 4.41991 344.813 4.69548C331.355 4.62637 318.272 5.91081 304.921 6.76802C289.634 7.74963 274.279 7.89949 258.978 9.08586C247.257 9.99461 235.691 11.9158 223.969 12.9162C202.33 14.7628 158.698 15.8044 141.056 22.6916L139.345 23.3562C145.692 29.0699 155.927 64.6821 156.125 73.887L156.736 74.5332C155.779 76.582 152.895 85.8986 153.819 87.6027C155.703 88.664 159.396 88.8726 159.649 90.772C159.887 92.5642 155.826 100.677 154.938 103.031C148.994 118.777 143.899 135.205 151.509 151.185C153.157 154.646 155.568 158.575 159.52 161.098C161.158 162.144 163.231 163.021 165.06 163.906C169.638 166.579 174.263 169.702 179.263 171.975C192.239 177.874 206.998 180.043 221.753 182.712C227.913 183.826 233.99 185.165 240.15 186.273C238.697 184.846 233.528 180.675 233.651 179.166C244.094 186.87 255.647 193.124 267.623 199.625C274.279 203.238 280.969 207.208 288.434 209.997C301.093 212.324 312.976 215.84 325.921 217.697C336.266 219.199 346.684 220.391 357.176 221.275C366.03 222.039 375.112 222.54 383.865 223.717C389.128 222.968 394.479 222.274 399.462 220.849C406.904 218.167 414.011 215.701 422.462 215.025C442.376 212.924 469.247 196.255 481.874 186.047C489.214 180.114 514.623 155.285 513.837 148.206L515.483 147.874L516.244 148.285C516.925 150.089 516.032 152.168 515.483 153.948C512.662 163.103 507.042 170.962 500.285 178.998C488.656 192.826 469.946 204.333 450.344 212.529C442.278 215.902 433.752 218.778 425.477 221.893C419.567 224.119 412.624 228.015 406.198 229.19C431.247 228.949 460.468 228.011 484.6 223.34C511.148 218.198 538.554 198.733 551.789 182.377C556.817 176.163 561.686 169.854 565.612 163.262C573.363 150.24 585.993 121.518 588.306 107.896C589.008 103.772 589.113 99.3754 587.455 95.3485C583.609 85.9911 573.167 86.939 563.068 82.9819C557.534 80.8143 556.58 77.5881 555.002 73.6371C555.273 73.5488 555.533 73.455 555.783 73.3414C564.289 69.4873 578.986 42.1667 581.131 34.6356C583.037 35.2978 583.718 36.0512 584.38 37.4419C585.551 39.8944 585.733 43.4702 584.084 45.8276C585.102 48.4798 583.49 51.3566 581.586 53.6408C578.168 57.7451 573.302 60.9816 571.325 65.628C589.903 69.1009 646.325 79.5842 656.042 91.3212C656.618 92.018 656.848 92.4237 656.755 93.2188C658.508 93.7448 660.492 94.3715 662.411 93.8991C663.803 93.5572 664.675 92.916 665.317 92.0235C680.21 87.4633 688.552 81.5615 699.528 73.6324C703.861 73.4631 708.154 73.2183 711.649 75.3797C713.266 76.3802 714.141 77.7344 714.944 79.1001C715.031 79.0628 715.12 79.0273 715.204 78.9881C717.563 77.895 718.39 75.7047 718.877 73.8788L718.905 72.7121C719.112 72.3994 719.287 72.0807 719.392 71.7429C720.608 67.7695 719.624 55.3665 719.626 50.7233V18.9906C719.622 13.4118 719.925 7.7385 719.54 2.16822C719.481 1.32502 719.258 0.722071 718.602 0H407.286H349.994ZM0 0V275H718.602C718.811 274.798 718.989 274.595 719.125 274.365C719.954 272.968 720.248 93.4056 719.56 76.2227C719.526 75.3622 719.353 74.6788 718.877 73.8788C718.39 75.7047 717.563 77.895 715.204 78.9881C715.12 79.0273 715.031 79.0628 714.944 79.1001C714.141 77.7344 713.266 76.3802 711.649 75.3797C708.154 73.2183 703.861 73.4631 699.528 73.6324C688.552 81.5615 680.21 87.4633 665.317 92.0235C664.675 92.916 663.803 93.5572 662.411 93.8991C660.492 94.3715 658.508 93.7448 656.755 93.2188C662.612 102.378 654.999 162.514 652.551 175.992C651.774 180.054 650.773 184.089 649.55 188.097C649.01 189.9 647.726 192.167 647.703 193.952C641.867 195.125 635.759 199.176 631.935 202.285C634.037 203.37 636.724 204.817 637.128 206.734C637.139 206.789 637.137 206.844 637.141 206.901C636.841 208.098 636.383 208.828 634.875 209.569C634.654 209.678 634.426 209.78 634.192 209.876C635.431 212.147 634.165 214.894 632.796 217.018C628.169 224.204 615.007 232.287 613.581 239.805C613.542 240.007 613.57 239.922 613.476 240.111C611.5 241.502 605.604 242.741 602.846 243.505C585.458 248.314 566.851 251.306 548.858 254.829C511.758 262.092 474.699 266.649 436.432 269.702C419.255 271.073 401.657 272.666 384.403 273.239C377.896 273.444 371.387 273.586 364.875 273.665C358.364 273.745 351.852 273.762 345.339 273.717C338.826 273.672 332.316 273.566 325.808 273.396C319.299 273.226 312.796 272.994 306.296 272.7C299.799 272.406 293.307 272.05 286.822 271.632C280.336 271.215 273.861 270.735 267.395 270.192C260.929 269.651 254.475 269.047 248.034 268.381C241.592 267.716 235.165 266.99 228.753 266.202C222.339 265.412 215.943 264.563 209.564 263.652C203.184 262.742 196.825 261.771 190.484 260.738C184.143 259.705 177.824 258.613 171.527 257.46C165.23 256.306 158.957 255.093 152.708 253.82C146.459 252.546 140.236 251.214 134.04 249.822C127.844 248.429 121.676 246.977 115.538 245.468C109.4 243.958 103.292 242.389 97.216 240.761C91.1398 239.134 85.0971 237.449 79.0878 235.707C76.5255 231.289 75.5272 226.406 74.8891 221.688C71.113 223.479 68.1244 226.104 64.8024 228.277C62.8843 229.53 59.1631 232.209 56.3653 232.152C54.9225 230.904 54.7645 224.887 54.4563 223.104C47.2993 222.753 38.7024 221.957 32.4988 219.284C28.592 217.601 27.1489 215.836 26.1249 212.774C25.3527 208.194 24.3414 203.494 22.7726 199.01C21.3623 194.978 19.449 190.98 18.3296 186.908C11.6212 175.49 6.59237 137.575 6.8599 123.974C5.72298 119.604 5.90561 114.704 5.36718 110.251C4.80902 105.634 3.66966 101.064 3.08672 96.4523C2.58794 92.5064 2.607 88.4832 2.48184 84.5224C2.33988 82.9116 2.21387 81.3002 2.10381 79.6882C1.94996 77.2529 1.37864 74.5301 3.93231 72.594C13.256 65.2447 79.1511 45.0681 95.5823 40.2382C104.987 37.474 121.612 33.4545 129.487 29.6466C133.013 27.7208 135.694 25.194 139.345 23.3562L141.056 22.6916C158.698 15.8044 202.33 14.7628 223.969 12.9162C235.691 11.9158 247.257 9.99461 258.978 9.08586C274.279 7.89949 289.634 7.74963 304.921 6.76802C318.272 5.91081 331.355 4.62637 344.813 4.69548C346.726 4.41991 348.794 4.43671 350.743 4.3621C350.946 3.9726 351.062 3.94099 350.839 3.5716C350.757 3.43407 350.682 3.29374 350.593 3.15838C349.857 2.05294 349.937 1.189 349.994 0H0Z" fill="url(#paint0_linear_275_19005)"/>
<path d="M399.462 220.849C406.904 218.167 414.011 215.701 422.462 215.025C421.501 216.521 415.846 218.07 413.685 218.646C409.047 219.883 404.435 220.651 399.462 220.849Z" fill="#644A49"/>
<path d="M288.434 209.997C301.093 212.324 312.976 215.84 325.921 217.697C336.266 219.199 346.684 220.391 357.176 221.275C366.03 222.039 375.112 222.54 383.865 223.717C378.58 224.713 373.574 225.291 368.105 225.508C343.42 226.485 307.182 221.592 288.434 209.997Z" fill="#644A49"/>
<path d="M55.6528 96.0544C57.6349 96.1182 62.6201 95.6984 63.8061 96.5405C64.0901 97.867 64.0853 99.3516 64.8095 100.597C65.1385 105.765 64.0992 111.156 63.9202 116.35C63.6602 123.897 64.216 131.446 64.8199 138.979C66.2619 156.965 70.6056 174.747 72.1378 192.702C57.2496 197.731 44.7274 205.24 30.4065 210.863C30.4051 210.808 30.401 210.753 30.4024 210.697C30.5716 203.01 56.3186 191.297 63.9938 186.042L60.0367 130.721C59.1875 119.422 58.9982 107.111 55.6528 96.0544Z" fill="#7A6D7F"/>
<path d="M87.8699 200.257C97.3902 203.342 106.86 206.974 116.642 209.602C128.877 212.89 141.782 215.286 154.369 217.846C177.089 222.625 200.086 226.637 223.362 229.883C246.637 233.128 270.083 235.592 293.699 237.274C309.835 238.314 325.944 238.363 342.108 238.924C340.748 242.087 339.482 244.753 334.987 246.43C330.039 248.273 323.858 248.244 318.521 249.442C306.989 249.253 295.238 247.897 283.754 247.059C212.215 241.836 146.714 228.803 80.8404 208.937C82.9568 205.969 85.4811 203.124 87.8699 200.257Z" fill="#B6908F"/>
<path d="M342.108 238.924C349.775 238.621 357.629 238.823 365.324 238.744C377.817 238.61 390.298 238.269 402.768 237.72C462.602 235.125 530.217 227.114 586.977 213.67C599.244 210.764 610.632 206.497 622.695 203.317C625.518 202.572 629.064 201.39 631.935 202.285C634.037 203.37 636.724 204.817 637.128 206.734C637.139 206.789 637.137 206.844 637.141 206.901C636.841 208.098 636.383 208.828 634.875 209.569C634.654 209.678 634.426 209.78 634.192 209.876C629.982 214.234 610.858 218.235 603.454 220.074C566.759 229.194 531.107 236.581 492.83 241.823C481.351 243.407 469.822 244.786 458.243 245.962C446.665 247.139 435.05 248.111 423.4 248.877C411.75 249.643 400.078 250.203 388.385 250.558C376.694 250.912 364.998 251.06 353.296 251.001C341.816 250.876 329.841 250.786 318.521 249.442C323.858 248.244 330.039 248.273 334.987 246.43C339.482 244.753 340.748 242.087 342.108 238.924Z" fill="url(#paint1_linear_275_19005)"/>
<path d="M3.93231 72.594C13.256 65.2447 79.1511 45.0681 95.5823 40.2382C104.987 37.474 121.612 33.4545 129.487 29.6466C127.302 32.4946 125.038 34.7429 121.918 37.1357C127.211 42.6416 145.968 62.0915 144.396 67.8962C144.209 68.5845 143.247 69.2072 142.437 69.5741C141.847 69.8413 141.227 70.0827 140.611 70.3213C122.932 73.7285 107.024 78.7257 91.05 84.9785C82.6095 88.2821 74.4865 91.9946 65.7074 94.8535L65.5644 94.8992C65.3817 96.7945 65.2856 98.7252 64.8095 100.597C64.0853 99.3516 64.0901 97.867 63.8061 96.5405C62.6201 95.6984 57.6349 96.1182 55.6528 96.0544C43.669 93.5656 8.12368 76.2872 3.42368 76.9079C1.44138 78.9132 4.39816 82.6048 2.60005 84.4169C2.56366 84.4536 2.52124 84.4873 2.48184 84.5224C2.33988 82.9116 2.21387 81.3002 2.10381 79.6882C1.94996 77.2529 1.37864 74.5301 3.93231 72.594Z" fill="#92797B"/>
<path d="M3.93231 72.594C13.256 65.2447 79.1511 45.0681 95.5823 40.2382C104.987 37.474 121.612 33.4545 129.487 29.6466C127.302 32.4946 125.038 34.7429 121.918 37.1357C127.211 42.6416 145.968 62.0915 144.396 67.8962C144.209 68.5845 143.247 69.2072 142.437 69.5741C141.847 69.8413 141.227 70.0827 140.611 70.3213C137.09 68.1469 133.873 63.2401 130.629 60.4847C124.319 55.1244 116.887 50.573 109.657 45.8404C91.911 49.4874 74.3346 53.4693 57.36 58.6265C43.3918 62.8704 30.238 68.066 15.739 71.5115C12.2668 72.3369 7.51664 73.5827 3.93231 72.594Z" fill="#EBDED3"/>
<path d="M2.48184 84.5224C2.52124 84.4873 2.56366 84.4536 2.60005 84.4169C4.39816 82.6048 1.44138 78.9132 3.42368 76.9079C8.12368 76.2872 43.669 93.5656 55.6528 96.0544C58.9982 107.111 59.1875 119.422 60.0367 130.721L63.9938 186.042C56.3186 191.297 30.5716 203.01 30.4024 210.697C30.401 210.753 30.4051 210.808 30.4065 210.863C29.1907 211.802 27.7348 212.243 26.1249 212.774C25.3527 208.194 24.3414 203.494 22.7726 199.01C21.3623 194.978 19.449 190.98 18.3296 186.908C11.6212 175.49 6.59237 137.575 6.8599 123.974C5.72298 119.604 5.90561 114.704 5.36718 110.251C4.80902 105.634 3.66966 101.064 3.08672 96.4523C2.58794 92.5064 2.607 88.4832 2.48184 84.5224Z" fill="#284966"/>
<path d="M6.8599 123.974C8.32232 124.853 8.57965 125.485 8.93589 126.804C11.2164 135.247 11.6908 144.174 13.2852 152.724C15.189 162.934 18.2401 173.182 19.3922 183.444C19.5329 184.697 19.536 185.69 18.4656 186.765C18.4186 186.812 18.375 186.861 18.3296 186.908C11.6212 175.49 6.59237 137.575 6.8599 123.974Z" fill="#B6908F"/>
<path d="M647.703 193.952C657.03 194.893 673.297 199.208 679.058 204.303C680.219 204.934 683.189 206.188 683.551 207.099C684.384 208.482 684.863 209.542 684.031 210.991C680.72 216.77 661.104 224.458 652.824 226.839C651.201 227.306 649.404 227.517 647.671 227.681C648.259 225.552 646.53 222.475 644.847 220.708C644.513 220.357 644.078 220.104 643.579 219.872C642.563 219.942 642.415 219.927 641.755 220.477C639.931 221.995 638.722 224.62 637.478 226.425C632.701 233.363 625.475 239.144 613.763 240.091C613.668 240.099 613.572 240.105 613.476 240.111C613.57 239.922 613.542 240.007 613.581 239.805C615.007 232.287 628.169 224.204 632.796 217.018C634.165 214.894 635.431 212.147 634.192 209.876C634.426 209.78 634.654 209.678 634.875 209.569C636.383 208.828 636.841 208.098 637.141 206.901C637.137 206.844 637.139 206.789 637.128 206.734C636.724 204.817 634.037 203.37 631.935 202.285C635.759 199.176 641.867 195.125 647.703 193.952Z" fill="#1C1618"/>
<path d="M699.528 73.6324C703.861 73.4631 708.154 73.2183 711.649 75.3797C713.266 76.3802 714.141 77.7344 714.944 79.1001C716.8 84.1437 714.944 95.3152 712.906 100.42C711.597 103.694 709.468 107.021 708.75 110.374C707.559 115.936 707.318 121.625 706.248 127.211C703.734 140.337 690.888 198.093 683.678 206.95C683.637 207.001 683.592 207.05 683.551 207.099C683.189 206.188 680.219 204.934 679.058 204.303C673.297 199.208 657.03 194.893 647.703 193.952C647.726 192.167 649.01 189.9 649.55 188.097C650.773 184.089 651.774 180.054 652.551 175.992C654.999 162.514 662.612 102.378 656.755 93.2188C658.508 93.7448 660.492 94.3715 662.411 93.8991C663.803 93.5572 664.675 92.916 665.317 92.0235C680.21 87.4633 688.552 81.5615 699.528 73.6324Z" fill="#644A49"/>
<path d="M656.755 93.2188C658.508 93.7448 660.492 94.3715 662.411 93.8991C663.803 93.5572 664.675 92.916 665.317 92.0235C670.188 99.8089 665.463 180.975 661.366 187.972C661.232 188.2 661.091 188.416 660.913 188.631C668.068 190.779 677.12 196.56 680.069 201.645C680.488 202.364 680.536 202.959 680.351 203.715L679.058 204.303C673.297 199.208 657.03 194.893 647.703 193.952C647.726 192.167 649.01 189.9 649.55 188.097C650.773 184.089 651.774 180.054 652.551 175.992C654.999 162.514 662.612 102.378 656.755 93.2188Z" fill="#92797B"/>
<path d="M349.994 0H407.286H718.602C719.258 0.722071 719.481 1.32502 719.54 2.16822C719.925 7.7385 719.622 13.4118 719.626 18.9906V50.7233C719.624 55.3665 720.608 67.7695 719.392 71.7429C719.287 72.0807 719.112 72.3994 718.905 72.7121L718.877 73.8788C718.39 75.7047 717.563 77.895 715.204 78.9881C715.12 79.0273 715.031 79.0628 714.944 79.1001C714.141 77.7344 713.266 76.3802 711.649 75.3797C708.154 73.2183 703.861 73.4631 699.528 73.6324C688.552 81.5615 680.21 87.4633 665.317 92.0235C664.675 92.916 663.803 93.5572 662.411 93.8991C660.492 94.3715 658.508 93.7448 656.755 93.2188C656.848 92.4237 656.618 92.018 656.042 91.3212C646.325 79.5842 589.903 69.1009 571.325 65.628C573.302 60.9816 578.168 57.7451 581.586 53.6408C583.49 51.3566 585.102 48.4798 584.084 45.8276C585.733 43.4702 585.551 39.8944 584.38 37.4419C583.718 36.0512 583.037 35.2978 581.131 34.6356C578.986 42.1667 564.289 69.4873 555.783 73.3414C555.533 73.455 555.273 73.5488 555.002 73.6371C556.58 77.5881 557.534 80.8143 563.068 82.9819C573.167 86.939 583.609 85.9911 587.455 95.3485C589.113 99.3754 589.008 103.772 588.306 107.896C585.993 121.518 573.363 150.24 565.612 163.262C561.686 169.854 556.817 176.163 551.789 182.377C538.554 198.733 511.148 218.198 484.6 223.34C460.468 228.011 431.247 228.949 406.198 229.19C412.624 228.015 419.567 224.119 425.477 221.893C433.752 218.778 442.278 215.902 450.344 212.529C469.946 204.333 488.656 192.826 500.285 178.998C507.042 170.962 512.662 163.103 515.483 153.948C516.032 152.168 516.925 150.089 516.244 148.285L515.483 147.874L513.837 148.206C514.623 155.285 489.214 180.114 481.874 186.047C469.247 196.255 442.376 212.924 422.462 215.025C414.011 215.701 406.904 218.167 399.462 220.849C394.479 222.274 389.128 222.968 383.865 223.717C375.112 222.54 366.03 222.039 357.176 221.275C346.684 220.391 336.266 219.199 325.921 217.697C312.976 215.84 301.093 212.324 288.434 209.997C280.969 207.208 274.279 203.238 267.623 199.625C255.647 193.124 244.094 186.87 233.651 179.166C233.528 180.675 238.697 184.846 240.15 186.273C233.99 185.165 227.913 183.826 221.753 182.712C206.998 180.043 192.239 177.874 179.263 171.975C174.263 169.702 169.638 166.579 165.06 163.906C163.231 163.021 161.158 162.144 159.52 161.098C155.568 158.575 153.157 154.646 151.509 151.185C143.899 135.205 148.994 118.777 154.938 103.031C155.826 100.677 159.887 92.5642 159.649 90.772C159.396 88.8726 155.703 88.664 153.819 87.6027C152.895 85.8986 155.779 76.582 156.736 74.5332L156.125 73.887C155.927 64.6821 145.692 29.0699 139.345 23.3562L141.056 22.6916C158.698 15.8044 202.33 14.7628 223.969 12.9162C235.691 11.9158 247.257 9.99461 258.978 9.08586C274.279 7.89949 289.634 7.74963 304.921 6.76802C318.272 5.91081 331.355 4.62637 344.813 4.69548C346.726 4.41991 348.794 4.43671 350.743 4.3621C350.946 3.9726 351.062 3.94099 350.839 3.5716C350.757 3.43407 350.682 3.29374 350.593 3.15838C349.857 2.05294 349.937 1.189 349.994 0ZM407.286 0C408.165 0.621244 408.791 1.3653 409.614 1.97379C411.012 3.00768 416.302 3.48615 418.294 3.49879C420.442 3.51243 427.011 3.03039 428.48 3.92324C436.733 4.13668 483.127 7.84395 487.674 9.96232C505.172 11.3908 570.576 21.251 580.582 29.9492C581.242 30.5231 582.21 31.5624 582.301 32.3098L581.131 34.6356C583.037 35.2978 583.718 36.0512 584.38 37.4419C585.551 39.8944 585.733 43.4702 584.084 45.8276C585.102 48.4798 583.49 51.3566 581.586 53.6408C578.168 57.7451 573.302 60.9816 571.325 65.628C589.903 69.1009 646.325 79.5842 656.042 91.3212C656.618 92.018 656.848 92.4237 656.755 93.2188C658.508 93.7448 660.492 94.3715 662.411 93.8991C663.803 93.5572 664.675 92.916 665.317 92.0235C680.21 87.4633 688.552 81.5615 699.528 73.6324C703.861 73.4631 708.154 73.2183 711.649 75.3797C713.266 76.3802 714.141 77.7344 714.944 79.1001C715.031 79.0628 715.12 79.0273 715.204 78.9881C717.563 77.895 718.39 75.7047 718.877 73.8788L718.905 72.7121C719.112 72.3994 719.287 72.0807 719.392 71.7429C720.608 67.7695 719.624 55.3665 719.626 50.7233V18.9906C719.622 13.4118 719.925 7.7385 719.54 2.16822C719.481 1.32502 719.258 0.722071 718.602 0H407.286ZM349.994 0C349.937 1.189 349.857 2.05294 350.593 3.15838C350.682 3.29374 350.757 3.43407 350.839 3.5716C351.062 3.94099 350.946 3.9726 350.743 4.3621C348.794 4.43671 346.726 4.41991 344.813 4.69548C331.355 4.62637 318.272 5.91081 304.921 6.76802C289.634 7.74963 274.279 7.89949 258.978 9.08586C247.257 9.99461 235.691 11.9158 223.969 12.9162C202.33 14.7628 158.698 15.8044 141.056 22.6916L139.345 23.3562C145.692 29.0699 155.927 64.6821 156.125 73.887C164.592 69.5053 167.501 57.4424 172.357 50.9829C224.602 27.9359 335.231 26.2614 396.369 28.9864C417.925 30.0932 439.356 31.908 460.662 34.4308C470.131 35.5022 479.765 36.4364 489.125 37.8824C505.696 40.4418 540.658 46.6326 550.452 57.2985C555.704 63.0147 552.001 68.9988 555.002 73.6371C555.273 73.5488 555.533 73.455 555.783 73.3414C564.289 69.4873 578.986 42.1667 581.131 34.6356L582.301 32.3098C582.21 31.5624 581.242 30.5231 580.582 29.9492C570.576 21.251 505.172 11.3908 487.674 9.96232C483.127 7.84395 436.733 4.13668 428.48 3.92324C427.011 3.03039 420.442 3.51243 418.294 3.49879C416.302 3.48615 411.012 3.00768 409.614 1.97379C408.791 1.3653 408.165 0.621244 407.286 0H349.994Z" fill="url(#paint2_linear_275_19005)"/>
<path d="M156.736 74.5332L157.474 74.4152C157.357 76.7852 154.03 85.9508 154.845 87.1582C156.484 87.7211 159.274 88.3395 160.038 89.5547C160.895 93.7249 157.646 99.3378 156.042 103.357C148.76 121.601 144.121 140.201 156.835 157.93C156.836 156.343 156.763 154.959 157.725 153.479L158.469 153.333C162.17 156 161.76 160.818 165.06 163.906C163.231 163.021 161.158 162.144 159.52 161.098C155.568 158.575 153.157 154.646 151.509 151.185C143.899 135.205 148.994 118.777 154.938 103.031C155.826 100.677 159.887 92.5642 159.649 90.772C159.396 88.8726 155.703 88.664 153.819 87.6027C152.895 85.8986 155.779 76.582 156.736 74.5332Z" fill="#644A49"/>
<path d="M349.994 0H407.286C408.165 0.621244 408.791 1.3653 409.614 1.97379C411.012 3.00768 416.302 3.48615 418.294 3.49879C420.442 3.51243 427.011 3.03039 428.48 3.92324C436.733 4.13668 483.127 7.84395 487.674 9.96232C505.172 11.3908 570.576 21.251 580.582 29.9492C581.242 30.5231 582.21 31.5624 582.301 32.3098L581.131 34.6356C578.986 42.1667 564.289 69.4873 555.783 73.3414C555.533 73.455 555.273 73.5488 555.002 73.6371C552.001 68.9988 555.704 63.0147 550.452 57.2985C540.658 46.6326 505.696 40.4418 489.125 37.8824C479.765 36.4364 470.131 35.5022 460.662 34.4308C439.356 31.908 417.925 30.0932 396.369 28.9864C335.231 26.2614 224.602 27.9359 172.357 50.9829C167.501 57.4424 164.592 69.5053 156.125 73.887C155.927 64.6821 145.692 29.0699 139.345 23.3562L141.056 22.6916C158.698 15.8044 202.33 14.7628 223.969 12.9162C235.691 11.9158 247.257 9.99461 258.978 9.08586C274.279 7.89949 289.634 7.74963 304.921 6.76802C318.272 5.91081 331.355 4.62637 344.813 4.69548C346.726 4.41991 348.794 4.43671 350.743 4.3621C350.946 3.9726 351.062 3.94099 350.839 3.5716C350.757 3.43407 350.682 3.29374 350.593 3.15838C349.857 2.05294 349.937 1.189 349.994 0ZM349.994 0C349.937 1.189 349.857 2.05294 350.593 3.15838C350.682 3.29374 350.757 3.43407 350.839 3.5716C351.062 3.94099 350.946 3.9726 350.743 4.3621C348.794 4.43671 346.726 4.41991 344.813 4.69548C331.355 4.62637 318.272 5.91081 304.921 6.76802C289.634 7.74963 274.279 7.89949 258.978 9.08586C247.257 9.99461 235.691 11.9158 223.969 12.9162C202.33 14.7628 158.698 15.8044 141.056 22.6916C141.334 22.8721 141.623 23.0276 141.951 23.1624C151.482 27.078 202.568 20.2541 214.589 19.0191C254.21 14.9486 293.396 12.0969 333.454 11.6364C348.902 11.4685 364.345 11.5685 379.784 11.9365C394.741 12.3282 435.508 14.7112 448.572 12.249C449.558 12.063 449.747 12.0898 450.234 11.4839C450.187 11.4353 450.143 11.3852 450.093 11.3382C447.953 9.35239 441.561 8.63947 438.211 8.25183C450.619 8.39648 472.298 13.2992 483.168 11.6343C484.793 11.3852 486.315 10.6063 487.674 9.96232C483.127 7.84395 436.733 4.13668 428.48 3.92324C427.011 3.03039 420.442 3.51243 418.294 3.49879C416.302 3.48615 411.012 3.00768 409.614 1.97379C408.791 1.3653 408.165 0.621244 407.286 0H349.994Z" fill="url(#paint3_linear_275_19005)"/>
<path d="M538.335 44.6469C541.252 43.9374 550.43 47.041 553.921 47.5831C556.573 47.9949 560.048 48.3181 562.421 47.1955C563.993 46.4529 564.639 45.2059 564.981 43.9693C565.081 44.4966 565.161 45.0366 565.09 45.5686C564.828 47.5861 563.403 49.8575 561.171 51.1669C561.18 51.2186 561.196 51.27 561.198 51.322C561.244 53.14 558.072 55.8113 556.38 57.1422C556.485 56.2128 555.918 55.2053 555.321 54.3843C552.393 50.3604 544.372 46.0887 538.335 44.6469Z" fill="#92797B"/>
<path d="M201.251 30.6475C213.324 30.0633 225.598 30.3249 237.691 30.4152C217.29 33.8081 190.292 37.74 171.971 44.2554C164.859 47.2475 164.104 50.4872 160.216 55.1778C159.134 47.6351 156.209 39.9012 154.035 32.4589C169.751 32.1361 185.492 30.9993 201.251 30.6475Z" fill="#92797B"/>
<path d="M349.994 0H407.286C408.165 0.621244 408.791 1.3653 409.614 1.97379C411.012 3.00768 416.302 3.48615 418.294 3.49879C420.442 3.51243 427.011 3.03039 428.48 3.92324C436.733 4.13668 483.127 7.84395 487.674 9.96232C486.315 10.6063 484.793 11.3852 483.168 11.6343C472.298 13.2992 450.619 8.39648 438.211 8.25183C441.561 8.63947 447.953 9.35239 450.093 11.3382C450.143 11.3852 450.187 11.4353 450.234 11.4839C449.747 12.0898 449.558 12.063 448.572 12.249C435.508 14.7112 394.741 12.3282 379.784 11.9365C364.345 11.5685 348.902 11.4685 333.454 11.6364C293.396 12.0969 254.21 14.9486 214.589 19.0191C202.568 20.2541 151.482 27.078 141.951 23.1624C141.623 23.0276 141.334 22.8721 141.056 22.6916C158.698 15.8044 202.33 14.7628 223.969 12.9162C235.691 11.9158 247.257 9.99461 258.978 9.08586C274.279 7.89949 289.634 7.74963 304.921 6.76802C318.272 5.91081 331.355 4.62637 344.813 4.69548C346.726 4.41991 348.794 4.43671 350.743 4.3621C350.946 3.9726 351.062 3.94099 350.839 3.5716C350.757 3.43407 350.682 3.29374 350.593 3.15838C349.857 2.05294 349.937 1.189 349.994 0ZM349.994 0C349.937 1.189 349.857 2.05294 350.593 3.15838C350.682 3.29374 350.757 3.43407 350.839 3.5716C351.062 3.94099 350.946 3.9726 350.743 4.3621C348.794 4.43671 346.726 4.41991 344.813 4.69548C350.729 5.02992 356.657 4.67127 362.582 4.8039C369.922 4.96821 406.17 7.18382 410.265 5.60101C415.753 5.66859 421.004 3.81515 428.48 3.92324C427.011 3.03039 420.442 3.51243 418.294 3.49879C416.302 3.48615 411.012 3.00768 409.614 1.97379C408.791 1.3653 408.165 0.621244 407.286 0H349.994Z" fill="#EBDED3"/>
<path d="M349.994 0H407.286C408.165 0.621244 408.791 1.3653 409.614 1.97379C411.012 3.00768 416.302 3.48615 418.294 3.49879C420.442 3.51243 427.011 3.03039 428.48 3.92324C421.004 3.81515 415.753 5.66859 410.265 5.60101C406.17 7.18382 369.922 4.96821 362.582 4.8039C356.657 4.67127 350.729 5.02992 344.813 4.69548C346.726 4.41991 348.794 4.43671 350.743 4.3621C350.946 3.9726 351.062 3.94099 350.839 3.5716C350.757 3.43407 350.682 3.29374 350.593 3.15838C349.857 2.05294 349.937 1.189 349.994 0ZM349.994 0C349.937 1.189 349.857 2.05294 350.593 3.15838C350.682 3.29374 350.757 3.43407 350.839 3.5716C351.062 3.94099 350.946 3.9726 350.743 4.3621C362.992 5.7271 373.367 -1.30136 388.215 0.306968C391.296 0.64063 394.222 1.65232 397.2 2.28038C400.149 2.90204 403.845 2.94522 406.492 3.98826L406.246 4.52454L403.581 5.29974L410.265 5.60101C415.753 5.66859 421.004 3.81515 428.48 3.92324C427.011 3.03039 420.442 3.51243 418.294 3.49879C416.302 3.48615 411.012 3.00768 409.614 1.97379C408.791 1.3653 408.165 0.621244 407.286 0H349.994Z" fill="url(#paint4_linear_275_19005)"/>
<path d="M349.994 0H407.286C408.165 0.621244 408.791 1.3653 409.614 1.97379C411.012 3.00768 416.302 3.48615 418.294 3.49879C420.442 3.51243 427.011 3.03039 428.48 3.92324C421.004 3.81515 415.753 5.66859 410.265 5.60101L403.581 5.29974L406.246 4.52454L406.492 3.98826C403.845 2.94522 400.149 2.90204 397.2 2.28038C394.222 1.65232 391.296 0.64063 388.215 0.306968C373.367 -1.30136 362.992 5.7271 350.743 4.3621C350.946 3.9726 351.062 3.94099 350.839 3.5716C350.757 3.43407 350.682 3.29374 350.593 3.15838C349.857 2.05294 349.937 1.189 349.994 0Z" fill="#FEFDFE" fill-opacity="0.588235"/>
<path d="M582.301 32.3098C583.92 32.9086 592.43 35.0756 593.111 35.5999C622.715 39.6586 652.036 48.1339 679.135 57.2152C687.465 60.0064 695.506 63.5003 703.92 66.094C708.302 66.4557 714.851 68.072 717.702 70.5686C718.34 71.1261 718.848 71.9988 718.905 72.7121L718.877 73.8788C718.39 75.7047 717.563 77.895 715.204 78.9881C715.12 79.0273 715.031 79.0628 714.944 79.1001C714.141 77.7344 713.266 76.3802 711.649 75.3797C708.154 73.2183 703.861 73.4631 699.528 73.6324C688.552 81.5615 680.21 87.4633 665.317 92.0235C664.675 92.916 663.803 93.5572 662.411 93.8991C660.492 94.3715 658.508 93.7448 656.755 93.2188C656.848 92.4237 656.618 92.018 656.042 91.3212C646.325 79.5842 589.903 69.1009 571.325 65.628C573.302 60.9816 578.168 57.7451 581.586 53.6408C583.49 51.3566 585.102 48.4798 584.084 45.8276C585.733 43.4702 585.551 39.8944 584.38 37.4419C583.718 36.0512 583.037 35.2978 581.131 34.6356L582.301 32.3098Z" fill="#92797B"/>
<path d="M579.548 60.8831C587.298 67.1291 639.972 73.2355 657.796 85.0458C658.952 85.8119 661.373 87.1075 661.781 88.1803C669.521 86.4203 686.113 76.1309 689.572 71.1896C690.048 70.5111 690.08 69.8622 689.911 69.1279C694.001 69.8747 696.966 71.277 699.528 73.6324C688.552 81.5615 680.21 87.4633 665.317 92.0235C664.675 92.916 663.803 93.5572 662.411 93.8991C660.492 94.3715 658.508 93.7448 656.755 93.2188C656.848 92.4237 656.618 92.018 656.042 91.3212C646.325 79.5842 589.903 69.1009 571.325 65.628L573.732 65.4446C576.458 64.25 577.968 62.7805 579.548 60.8831Z" fill="#B6908F"/>
<path d="M582.301 32.3098C583.92 32.9086 592.43 35.0756 593.111 35.5999C622.715 39.6586 652.036 48.1339 679.135 57.2152C687.465 60.0064 695.506 63.5003 703.92 66.094C708.302 66.4557 714.851 68.072 717.702 70.5686C718.34 71.1261 718.848 71.9988 718.905 72.7121L718.877 73.8788C718.39 75.7047 717.563 77.895 715.204 78.9881C715.12 79.0273 715.031 79.0628 714.944 79.1001C714.141 77.7344 713.266 76.3802 711.649 75.3797C708.154 73.2183 703.861 73.4631 699.528 73.6324C696.966 71.277 694.001 69.8747 689.911 69.1279C689.497 67.9471 688.253 67.2769 687.083 66.3934C679.832 61.8213 663.493 58.3825 654.109 55.5497C644.055 52.5146 634.354 49.0731 623.956 46.5981C616.983 44.9377 610.006 43.7318 602.751 42.8371C602.815 43.0765 602.842 43.3109 602.789 43.5537C601.662 48.9502 586.057 57.6441 579.548 60.8831C577.968 62.7805 576.458 64.25 573.732 65.4446L571.325 65.628C573.302 60.9816 578.168 57.7451 581.586 53.6408C583.49 51.3566 585.102 48.4798 584.084 45.8276C585.733 43.4702 585.551 39.8944 584.38 37.4419C583.718 36.0512 583.037 35.2978 581.131 34.6356L582.301 32.3098Z" fill="#EBDED3"/>
<path d="M582.301 32.3098C583.92 32.9086 592.43 35.0756 593.111 35.5999C593.715 37.2416 592.519 38.2535 591.301 39.6762C589.249 42.072 587.398 44.1862 584.084 45.8276C585.733 43.4702 585.551 39.8944 584.38 37.4419C583.718 36.0512 583.037 35.2978 581.131 34.6356L582.301 32.3098Z" fill="#70ACBC"/>
<path d="M703.92 66.094C708.302 66.4557 714.851 68.072 717.702 70.5686C718.34 71.1261 718.848 71.9988 718.905 72.7121L718.877 73.8788C718.39 75.7047 717.563 77.895 715.204 78.9881C715.12 79.0273 715.031 79.0628 714.944 79.1001C714.141 77.7344 713.266 76.3802 711.649 75.3797C708.154 73.2183 703.861 73.4631 699.528 73.6324C696.966 71.277 694.001 69.8747 689.911 69.1279C689.497 67.9471 688.253 67.2769 687.083 66.3934C691.293 66.6278 696.235 68.9936 700.347 69.9091C701.714 70.2133 703.206 70.494 704.554 70.0201C705.417 68.5785 704.711 67.4986 703.92 66.094Z" fill="#70ACBC"/>
<path d="M252.563 56.2672C260.21 54.3097 269.485 53.9931 277.54 52.9508C327.661 46.4643 403.552 42.4907 450.909 57.0958C476.805 65.0822 502.175 85.7875 512.229 103.93C513.514 106.246 514.771 108.638 515.429 111.082C517.699 119.529 518.708 140.618 513.837 148.206C514.623 155.285 489.214 180.114 481.874 186.047C469.247 196.255 442.376 212.924 422.462 215.025C414.011 215.701 406.904 218.167 399.462 220.849C394.479 222.274 389.128 222.968 383.865 223.717C375.112 222.54 366.03 222.039 357.176 221.275C346.684 220.391 336.266 219.199 325.921 217.697C312.976 215.84 301.093 212.324 288.434 209.997C280.969 207.208 274.279 203.238 267.623 199.625C255.647 193.124 244.094 186.87 233.651 179.166C232.649 177.593 226.593 173.727 224.561 171.927C214.625 163.121 208.647 151.924 205.889 140.968C200.253 118.581 210.641 94.1847 229.625 75.9969C236.773 69.1489 245.527 63.2332 252.563 56.2672Z" fill="url(#paint5_linear_275_19005)"/>
<path d="M376.013 49.967C386.778 48.8481 407.55 51.5266 418.196 53.8814C440.24 58.7582 456.704 67.5522 473.489 78.3255C479.54 82.2084 486.091 86.1912 489.915 91.3629C492.447 94.7871 493.121 99.1941 494.535 102.911C498.338 112.908 506.32 127.527 501.515 137.821C500.909 137.046 501.795 132.803 501.818 131.557C501.9 127.325 500.354 113.671 496.359 110.823C497.136 109.246 495.421 105.986 494.763 104.354C492.531 98.8274 487.638 94.9354 483.072 90.3364C480.569 87.8143 479.506 84.6815 476.939 82.1795C468.924 74.3616 450.997 65.2592 438.924 60.5713C414.776 51.1957 384.628 48.1791 357.561 52.0275C351.458 52.8951 345.615 54.6934 339.628 55.8661C342.575 54.5244 352.471 52.0989 355.83 51.6927C357.802 51.4541 359.859 51.5797 361.84 51.2911C363.12 51.105 364.224 50.423 365.513 50.3394C368.879 50.1207 372.424 50.4178 375.765 50.0005C375.849 49.9903 375.931 49.9783 376.013 49.967Z" fill="#AD6945"/>
<path d="M361.74 68.4526C367.62 64.6141 375.342 62.987 383.312 63.1696C409.04 63.7589 433.552 74.7883 450.572 87.5162C463.852 97.4486 473.936 110.962 473.068 124.883C473.018 125.686 472.779 126.489 472.303 127.224L471.945 127.41C466.667 128.006 434.636 121.761 428.448 120.066C428.335 119.815 428.214 119.572 428.057 119.331C425.732 115.758 397.79 102.914 391.48 101.227C391.387 101.233 391.293 101.241 391.2 101.245C387.761 101.398 379.092 95.5412 376.412 94.0002C375.69 93.2919 374.923 92.5204 374.385 91.7383C373.287 90.1448 374.697 88.1449 375.433 86.6057C375.057 84.5021 374.77 82.3616 374.059 80.298C369.122 76.6031 364.812 73.0797 361.74 68.4526Z" fill="#EBDED3"/>
<path d="M375.433 86.6057C376.057 90.9929 381.069 95.3063 385.819 98.0084C387.698 99.0762 389.72 100.063 391.48 101.227C391.387 101.233 391.293 101.241 391.2 101.245C387.761 101.398 379.092 95.5412 376.412 94.0002C375.69 93.2919 374.923 92.5204 374.385 91.7383C373.287 90.1448 374.697 88.1449 375.433 86.6057Z" fill="#FEA64D"/>
<path d="M376.412 94.0002C379.092 95.5412 387.761 101.398 391.2 101.245C391.293 101.241 391.387 101.233 391.48 101.227C397.79 102.914 425.732 115.758 428.057 119.331C428.214 119.572 428.335 119.815 428.448 120.066C434.636 121.761 466.667 128.006 471.945 127.41L472.303 127.224C472.632 127.44 472.918 127.682 473.159 127.949C473.401 128.215 473.59 128.499 473.726 128.799C477.317 136.621 471.035 149.851 465.854 157.029C460.553 164.371 443.854 177.84 434.185 182.455C427.968 185.421 419.952 187.729 412.79 189.374C407.455 190.6 401.769 191.77 396.201 192.32C391.2 192.815 367.572 193.012 363.673 191.647C365.153 191.114 371.015 192.04 373.053 192.106C382.449 192.41 391.936 192.6 401.202 191.261C404.932 190.722 422.924 186.902 424.584 185.152C424.19 184.49 423.621 184.271 422.79 183.902C419.369 182.383 415.527 180.523 411.645 179.689C408.942 179.107 405.991 179.098 403.199 178.832C399.125 178.445 394.129 174.421 391.344 172.351C386.14 168.479 388.925 165.634 386.91 164.229C384.3 165.114 381.192 166.865 379.074 168.256C377.812 169.084 377.589 169.711 377.525 170.857C380.725 172.649 386.459 172.438 389.788 174.26C392.519 175.753 392.2 179.26 395.251 180.436C397.979 181.489 401.63 180.703 404.508 181.601L403.759 181.892C387.475 182.056 395.42 178.015 387.602 174.627C384.125 173.119 379.518 173.049 375.945 171.431C373.759 168.586 386.468 162.625 389.18 160.573C391.546 158.784 393.363 156.768 394.415 154.444C396.315 150.244 397.446 141.044 396.217 136.749C395.609 134.632 394.397 132.56 393.411 130.516C391.043 125.598 391.289 121.827 392.122 116.777L392.819 116.628C393.505 117.628 393.008 118.763 392.826 119.855C394.4 120.066 398.471 120.92 399.771 120.524C399.806 119.857 399.917 119.344 399.291 118.77C397.906 117.501 395.174 116.323 393.427 115.239C390.653 113.515 388.117 111.608 385.332 109.891C378.687 105.793 370.013 102.024 367.651 95.7098C371.45 94.9348 377.072 99.6205 381.59 99.2726C380.912 97.3269 377.71 96.0909 376.412 94.0002Z" fill="#F88E61"/>
<path d="M195.222 144.078C192.346 146.235 189.326 147.817 186.162 148.824C183.07 149.758 179.978 150.01 176.885 149.578C173.793 149.147 171.133 147.817 168.903 145.588C166.89 151.987 165.524 158.314 164.805 164.569C164.517 165.719 164.013 166.761 163.294 167.696C162 171.507 159.16 174.059 154.773 175.353C150.458 176.575 146.431 176.359 142.692 174.706C140.966 173.915 139.528 172.765 138.378 171.255C137.227 169.745 136.652 167.912 136.652 165.755C141.613 148.572 146.396 134.48 150.998 123.48C152.005 121.18 152.796 119.31 153.371 117.873C154.018 116.435 154.593 115.212 155.097 114.206C155.6 113.199 156.031 112.337 156.391 111.618C156.822 110.827 157.326 109.964 157.901 109.029C159.196 106.873 160.67 104.356 162.324 101.48C164.049 98.5327 165.488 96.3399 166.638 94.902C167.861 93.4641 169.119 92.2418 170.413 91.2353C171.78 90.1569 173.254 89.1503 174.836 88.2157C176.49 87.281 178.539 86.0588 180.984 84.549C183.429 83.0392 186.018 82.1405 188.751 81.8529C191.555 81.4935 194.216 81.7091 196.733 82.5C202.054 84.1536 205.973 87.8562 208.49 93.6078C210.647 98.9281 211.007 106.082 209.569 115.069C207.339 128.801 202.557 138.471 195.222 144.078ZM172.679 134.48C178.575 133.186 182.674 129.34 184.975 122.941C186.917 117.549 187.312 111.438 186.162 104.608C184.508 107.412 182.998 110.324 181.631 113.343C180.337 116.363 179.151 119.059 178.072 121.431C175.699 126.752 173.901 131.101 172.679 134.48Z" fill="white"/>
<path d="M219.432 162.951C219.001 164.461 218.497 165.791 217.922 166.941C217.347 168.092 216.484 169.17 215.333 170.176C214.183 171.183 212.817 172.118 211.235 172.98C209.653 173.915 208.142 174.562 206.704 174.922C203.396 175.641 201.671 174.67 201.527 172.01C201.311 171.291 200.844 170.859 200.124 170.716C199.477 170.644 198.866 170.464 198.291 170.176C196.781 169.529 196.349 167.768 196.996 164.892C198.147 160.938 199.405 156.157 200.772 150.549C202.138 144.869 203.9 138.65 206.057 131.892C211.163 115.5 217.491 100.725 225.041 87.5686C225.545 86.9216 226.12 86.0948 226.767 85.0882C227.414 84.0098 228.241 83.0392 229.248 82.1765C231.765 79.8758 234.857 79.3366 238.524 80.5588C238.453 81.4935 238.668 82.3562 239.172 83.1471C239.675 83.866 240.25 84.6209 240.897 85.4118C242.551 87.281 243.306 88.9706 243.163 90.4804C235.54 108.526 228.673 128.693 222.56 150.98C221.841 153.569 221.266 155.833 220.835 157.775C220.403 159.716 219.936 161.441 219.432 162.951Z" fill="white"/>
<path d="M272.388 120.892L272.82 121C272.964 121 273.035 121.036 273.035 121.108C274.905 120.389 276.451 120.928 277.674 122.725C278.465 123.948 279.076 125.817 279.507 128.333C279.651 131.784 279.292 136.565 278.429 142.676C276.775 155.042 275.876 162.412 275.732 164.784C275.876 167.301 274.33 169.026 271.094 169.961C268.289 170.824 265.485 170.788 262.68 169.853C259.732 168.846 258.51 167.301 259.013 165.216C258.438 166.294 257.862 167.049 257.287 167.48C256.712 167.984 255.561 168.631 253.835 169.422C252.181 170.284 249.808 170.967 246.716 171.471C243.624 172.046 240.532 172.19 237.44 171.902C234.348 171.686 231.507 170.931 228.919 169.637C226.402 168.415 224.712 166.474 223.849 163.814C222.195 158.637 222.411 152.059 224.496 144.078C225.934 138.83 228.523 134.193 232.262 130.167C236.577 125.565 241.467 121.755 246.932 118.735C251.031 116.507 254.986 115.176 258.797 114.745C260.092 114.601 261.206 114.637 262.141 114.853C263.148 115.069 264.19 115.284 265.269 115.5C266.42 115.716 267.498 116.039 268.505 116.471C271.094 117.549 272.388 119.023 272.388 120.892ZM252.433 149.471C252.937 148.464 253.332 147.206 253.62 145.696C253.979 144.186 254.447 142.533 255.022 140.735C249.197 143.108 244.739 146.02 241.647 149.471C238.267 153.281 238.483 155.905 242.294 157.343C245.602 158.206 248.011 157.667 249.521 155.725C250.168 154.863 250.743 153.784 251.247 152.49C251.75 151.196 252.361 149.866 253.08 148.5C252.865 148.859 252.649 149.183 252.433 149.471Z" fill="white"/>
<path d="M277.688 134.157C277.76 131.209 277.544 128.801 277.041 126.931C276.537 125.062 276.537 123.516 277.041 122.294C277.616 121 278.479 120.101 279.63 119.598C280.852 119.095 282.254 118.951 283.836 119.167C285.49 119.31 287.108 119.778 288.69 120.569C292.501 122.294 295.162 124.739 296.672 127.902C297.032 129.484 296.888 131.461 296.241 133.833C295.665 136.134 294.982 138.542 294.191 141.059C293.4 143.503 292.645 145.912 291.926 148.284C291.207 150.585 290.919 152.526 291.063 154.108C292.933 152.958 294.551 151.232 295.917 148.931C297.355 146.631 298.65 144.186 299.8 141.598C301.023 138.938 302.137 136.314 303.144 133.725C304.223 131.137 305.229 129.088 306.164 127.578C307.171 126.069 307.962 124.882 308.537 124.02C309.113 123.085 309.688 122.258 310.263 121.539C311.198 120.317 312.421 119.131 313.931 117.98C314.362 117.621 315.656 117.693 317.814 118.196C320.043 118.627 321.661 118.951 322.668 119.167C323.746 119.31 324.465 119.239 324.825 118.951L326.335 117.873C328.349 116.866 330.722 116.902 333.454 117.98C336.115 119.131 337.517 120.892 337.661 123.265C337.589 123.337 337.553 123.48 337.553 123.696L337.877 123.804L337.122 124.451C336.618 125.386 336.223 126.033 335.935 126.392C335.719 126.68 335.216 127.147 334.425 127.794C329.535 133.042 323.926 142.784 317.598 157.02C316.016 160.542 314.578 163.706 313.283 166.51C315.225 167.732 316.699 169.314 317.706 171.255C318.713 173.196 318.713 175.317 317.706 177.618C311.737 182.363 308.394 186.82 307.674 190.99C307.315 193.578 306.847 195.412 306.272 196.49C305.769 197.569 304.942 198.611 303.791 199.618C299.908 202.493 295.342 201.775 290.092 197.461C286.353 193.722 286.173 189.049 289.553 183.441C290.416 181.931 291.243 180.35 292.034 178.696C293.185 176.252 295.018 172.621 297.535 167.804C291.351 171.399 285.67 171.327 280.492 167.588C276.825 164.784 275.531 158.422 276.609 148.5C277.328 141.886 277.688 137.105 277.688 134.157Z" fill="white"/>
<path d="M404.304 120.892L404.735 121C404.879 121 404.951 121.036 404.951 121.108C406.821 120.389 408.367 120.928 409.589 122.725C410.38 123.948 410.992 125.817 411.423 128.333C411.567 131.784 411.207 136.565 410.344 142.676C408.69 155.042 407.792 162.412 407.648 164.784C407.792 167.301 406.246 169.026 403.01 169.961C400.205 170.824 397.401 170.788 394.596 169.853C391.648 168.846 390.425 167.301 390.929 165.216C390.353 166.294 389.778 167.049 389.203 167.48C388.628 167.984 387.477 168.631 385.751 169.422C384.097 170.284 381.724 170.967 378.632 171.471C375.54 172.046 372.448 172.19 369.356 171.902C366.263 171.686 363.423 170.931 360.834 169.637C358.317 168.415 356.628 166.474 355.765 163.814C354.111 158.637 354.326 152.059 356.412 144.078C357.85 138.83 360.439 134.193 364.178 130.167C368.493 125.565 373.383 121.755 378.848 118.735C382.947 116.507 386.902 115.176 390.713 114.745C392.007 114.601 393.122 114.637 394.057 114.853C395.064 115.069 396.106 115.284 397.185 115.5C398.335 115.716 399.414 116.039 400.421 116.471C403.01 117.549 404.304 119.023 404.304 120.892ZM384.349 149.471C384.852 148.464 385.248 147.206 385.535 145.696C385.895 144.186 386.362 142.533 386.938 140.735C381.113 143.108 376.655 146.02 373.562 149.471C370.183 153.281 370.398 155.905 374.21 157.343C377.517 158.206 379.926 157.667 381.437 155.725C382.084 154.863 382.659 153.784 383.162 152.49C383.666 151.196 384.277 149.866 384.996 148.5C384.78 148.859 384.565 149.183 384.349 149.471Z" fill="white"/>
<path d="M451.024 124.127C452.246 121.899 453.864 120.784 455.878 120.784C458.97 122.51 460.912 125.314 461.703 129.196C462.494 133.078 461.631 136.565 459.114 139.657C459.042 139.729 459.078 140.34 459.222 141.49C460.516 148.68 460.049 156.157 457.819 163.922C457.028 166.51 456.094 168.918 455.015 171.147C454.008 173.376 452.714 176.18 451.132 179.559C449.622 182.938 447.464 186.281 444.66 189.588C441.855 192.895 438.691 195.52 435.168 197.461C427.761 201.631 419.491 202.529 410.359 200.157C407.051 198.863 404.75 197.353 403.455 195.627C401.801 193.542 401.226 191.314 401.729 188.941C402.233 185.993 403.959 184.376 406.907 184.088C408.345 183.944 410.143 184.484 412.3 185.706C414.745 186.209 416.723 186.173 418.233 185.598C419.743 185.023 420.93 184.484 421.792 183.98C422.727 183.549 423.878 182.974 425.244 182.255C427.617 181.033 430.314 178.229 433.334 173.843C434.988 171.542 436.642 168.451 438.296 164.569C435.635 167.948 431.392 169.601 425.568 169.529C423.914 169.458 422.044 169.386 419.959 169.314C417.945 169.242 416.112 168.559 414.458 167.265C412.804 165.971 411.473 164.281 410.467 162.196C409.46 160.111 408.777 157.739 408.417 155.078C408.13 152.346 408.13 149.578 408.417 146.775C409.568 136.997 413.667 129.268 420.714 123.588C425.532 119.634 430.709 117.513 436.246 117.225C438.907 117.082 441.424 117.369 443.797 118.088C446.673 119.167 449.082 121.18 451.024 124.127ZM437.864 148.608C437.864 148.392 437.9 148.212 437.972 148.069C437.613 147.925 437.253 147.817 436.894 147.745C436.534 147.601 435.887 147.386 434.952 147.098C434.017 146.81 432.759 146.99 431.177 147.637C429.595 148.212 428.192 149.039 426.97 150.118C425.819 151.124 424.885 152.203 424.165 153.353C423.518 154.503 423.41 155.474 423.842 156.265C424.345 157.056 425.208 157.379 426.431 157.235C427.653 157.02 428.983 156.48 430.422 155.618C433.586 153.676 436.067 151.34 437.864 148.608Z" fill="white"/>
<path d="M506.574 120.892L507.005 121C507.149 121 507.221 121.036 507.221 121.108C509.09 120.389 510.637 120.928 511.859 122.725C512.65 123.948 513.261 125.817 513.693 128.333C513.837 131.784 513.477 136.565 512.614 142.676C510.96 155.042 510.061 162.412 509.917 164.784C510.061 167.301 508.515 169.026 505.279 169.961C502.475 170.824 499.67 170.788 496.866 169.853C493.917 168.846 492.695 167.301 493.198 165.216C492.623 166.294 492.048 167.049 491.473 167.48C490.897 167.984 489.747 168.631 488.021 169.422C486.367 170.284 483.994 170.967 480.902 171.471C477.81 172.046 474.717 172.19 471.625 171.902C468.533 171.686 465.693 170.931 463.104 169.637C460.587 168.415 458.897 166.474 458.034 163.814C456.38 158.637 456.596 152.059 458.681 144.078C460.12 138.83 462.708 134.193 466.448 130.167C470.762 125.565 475.652 121.755 481.117 118.735C485.216 116.507 489.171 115.176 492.983 114.745C494.277 114.601 495.392 114.637 496.326 114.853C497.333 115.069 498.376 115.284 499.455 115.5C500.605 115.716 501.684 116.039 502.69 116.471C505.279 117.549 506.574 119.023 506.574 120.892ZM486.619 149.471C487.122 148.464 487.517 147.206 487.805 145.696C488.165 144.186 488.632 142.533 489.207 140.735C483.383 143.108 478.924 146.02 475.832 149.471C472.452 153.281 472.668 155.905 476.479 157.343C479.787 158.206 482.196 157.667 483.706 155.725C484.353 154.863 484.929 153.784 485.432 152.49C485.935 151.196 486.547 149.866 487.266 148.5C487.05 148.859 486.834 149.183 486.619 149.471Z" fill="white"/>
<path d="M522.228 120.461C523.163 118.088 525.392 116.471 528.916 115.608C532.224 114.745 535.316 114.853 538.192 115.931C541.141 117.082 542.471 118.951 542.183 121.539C541.392 124.056 540.386 127.147 539.163 130.814C538.013 134.409 536.898 138.111 535.819 141.922C532.943 151.699 531.289 158.601 530.858 162.627C529.779 169.098 527.981 172.585 525.464 173.088C524.745 173.232 524.062 173.34 523.415 173.412C521.833 173.484 520.826 173.915 520.395 174.706C519.963 175.497 519.244 176.072 518.237 176.431C517.231 176.863 516.116 177.042 514.894 176.971C513.743 176.971 512.556 176.683 511.334 176.108C510.112 175.605 509.069 174.85 508.206 173.843C506.192 171.399 505.797 168.127 507.019 164.029C508.17 156.193 511.082 146.235 515.756 134.157C517.986 128.19 520.143 123.624 522.228 120.461ZM542.615 104.284C539.091 105.003 536.215 104.788 533.986 103.637C531.828 102.487 530.57 101.121 530.21 99.5392C529.851 97.8856 530.354 96.1961 531.721 94.4706C533.303 92.3137 535.676 90.9118 538.84 90.2647C540.278 90.1209 541.32 90.049 541.968 90.049C542.615 90.049 543.406 90.1928 544.341 90.4804C546.714 90.6961 548.26 91.7386 548.979 93.6078C549.986 95.1895 550.058 96.9869 549.195 99C548.404 101.013 546.21 102.775 542.615 104.284Z" fill="white"/>
<path d="M553.648 120.461C558.466 118.52 561.702 118.484 563.356 120.353C564.219 121.359 564.651 122.761 564.651 124.559V125.098C567.311 122.007 571.949 119.418 578.565 117.333C585.54 115.176 591.293 114.565 595.824 115.5C601.72 116.722 605.028 120.569 605.747 127.039C606.323 132.503 605.064 139.441 601.972 147.853C600.965 150.01 600.174 151.771 599.599 153.137C599.096 154.431 598.628 155.618 598.197 156.696C597.262 158.709 595.788 161.118 593.774 163.922C592.624 166.078 590.826 167.732 588.381 168.882C586.008 170.033 583.635 170.68 581.262 170.824C578.961 171.039 577.055 170.68 575.545 169.745C574.035 168.882 573.603 167.48 574.251 165.539C575.905 161.082 577.271 157.02 578.349 153.353C579.428 149.686 580.543 146.559 581.693 143.971C582.772 140.304 582.916 138.003 582.125 137.069C581.478 136.35 580.363 136.458 578.781 137.392C577.415 138.255 576.444 139.261 575.869 140.412C574.574 141.346 572.129 145.085 568.534 151.627C567.527 153.425 566.52 155.222 565.514 157.02C564.579 158.745 563.68 160.363 562.817 161.873C562.026 163.382 561.307 164.641 560.66 165.647C560.084 166.654 559.545 167.301 559.042 167.588C558.61 167.948 558.215 168.163 557.855 168.235C557.567 168.379 557.316 168.523 557.1 168.667C556.884 168.81 556.704 169.278 556.561 170.069C556.273 171.722 554.547 172.944 551.383 173.735C546.278 175.029 541.675 174.814 537.576 173.088C536.21 172.513 535.132 171.722 534.341 170.716C532.687 167.409 535.527 156.157 542.862 136.961C545.451 130.203 547.14 126.176 547.931 124.882C549.729 122.15 550.88 120.605 551.383 120.245C551.958 119.886 552.714 119.958 553.648 120.461Z" fill="white"/>
<defs>
<linearGradient id="paint0_linear_275_19005" x1="319.128" y1="11.4455" x2="339.861" y2="276.387" gradientUnits="userSpaceOnUse">
<stop stop-color="#482828"/>
<stop offset="1" stop-color="#3F333B"/>
</linearGradient>
<linearGradient id="paint1_linear_275_19005" x1="543.31" y1="394.479" x2="58.7493" y2="163.145" gradientUnits="userSpaceOnUse">
<stop stop-color="#7A5054"/>
<stop offset="1" stop-color="#A27270"/>
</linearGradient>
<linearGradient id="paint2_linear_275_19005" x1="475.567" y1="40.765" x2="209.427" y2="350.454" gradientUnits="userSpaceOnUse">
<stop stop-color="#5B4544"/>
<stop offset="1" stop-color="#895E61"/>
</linearGradient>
<linearGradient id="paint3_linear_275_19005" x1="510.538" y1="472.795" x2="19.1991" y2="74.9208" gradientUnits="userSpaceOnUse">
<stop stop-color="#C29E9B"/>
<stop offset="1" stop-color="#C4B4AE"/>
</linearGradient>
<linearGradient id="paint4_linear_275_19005" x1="353.552" y1="72.3452" x2="324.161" y2="213.273" gradientUnits="userSpaceOnUse">
<stop stop-color="#FBFBFC" stop-opacity="0.792157"/>
<stop offset="1" stop-color="#F9F9FB" stop-opacity="0.85098"/>
</linearGradient>
<linearGradient id="paint5_linear_275_19005" x1="168.264" y1="244.494" x2="282.737" y2="-85.4083" gradientUnits="userSpaceOnUse">
<stop stop-color="#F08B4C"/>
<stop offset="1" stop-color="#894B2C"/>
</linearGradient>
</defs>
</svg>
