<svg width="400" height="400" viewBox="0 0 400 400" fill="none" xmlns="http://www.w3.org/2000/svg">
<path d="M0 0H146.632H257.433H269.604H270.655H400V400H217.123H215.617H0V88.8008V87.5285V0ZM0 88.8008V400H215.617L215.518 399.75C205.663 394.855 196.015 387.849 186.522 382.115L161.801 367.244C157.946 364.969 149.714 360.784 146.89 358.028C145.646 356.814 144.745 355.371 144.591 353.617C144.365 351.047 144.491 348.382 144.502 345.802L144.565 333.002L144.878 292.27L145.301 175.295C131.108 182.584 117.041 190.069 102.568 196.8C97.0766 199.354 91.2484 202.478 85.3727 203.979C83.8203 204.376 82.3414 204.71 80.7945 204.13C77.1672 202.769 73.8129 200.47 70.5227 198.448C67.6625 196.69 64.774 194.98 61.857 193.317C47.7566 185.213 33.4955 177.346 19.4969 169.071C17.4698 163.384 16.2875 156.478 14.8003 150.548C11.0303 135.904 7.48177 121.207 4.15477 106.456C3.33101 102.932 2.52702 99.4023 1.7428 95.8688C1.21602 93.5137 0.775652 91.0895 0 88.8008ZM270.655 0C275.961 2.31115 281.417 4.29578 286.793 6.43832L317.817 18.8252C322.12 20.5266 326.41 22.2575 330.689 24.0181C332.742 24.8729 335.005 25.6809 336.932 26.7932C337.41 29.068 336.913 36.0166 336.893 38.7309C337.033 44.0168 336.917 49.3297 336.893 54.618L336.551 91.8145L336.403 117.545C336.366 120.697 336.629 123.998 336.365 127.129C336.579 130.953 336.469 134.825 336.477 138.656C336.502 147.732 336.412 156.808 336.207 165.882C336.013 180.456 336.236 195.04 336.157 209.616C333.255 210.43 331.076 213.988 328.945 215.98C327.775 216.771 326.978 217.884 325.942 218.816C325.423 220.86 325.773 231.068 325.773 233.838C325.771 245.714 325.557 257.634 325.796 269.505L325.758 342.59C325.757 344.468 325.574 357.05 325.684 357.367C325.846 357.836 326.32 358.414 326.602 358.835C321.29 359.897 315.961 361.811 310.726 363.247C298.147 366.611 285.615 370.142 273.13 373.839L246.209 381.478C241.898 382.708 237.407 383.76 233.192 385.289C231.677 385.838 230.335 386.821 229.12 387.863C228.821 388.039 228.586 388.128 228.248 388.204C227.854 386.822 228.056 384.718 228.029 383.25C227.971 378.209 227.985 373.168 228.072 368.128C228.094 365.509 228.359 362.631 227.93 360.053C227.904 360.119 227.878 360.184 227.853 360.25C226.569 363.752 228.441 367.723 227.639 370.995C227.084 373.259 224.69 373.771 223.445 375.428C222.567 376.596 222.099 378.238 221.397 379.54C220.639 380.948 219.613 382.262 218.939 383.705C218.039 385.627 220.22 388.085 219.362 389.973C218.891 389.944 218.641 389.827 218.316 389.464C218.041 389.157 217.851 388.71 217.71 388.327C217.153 388.908 216.792 389.3 216.554 390.077C215.93 388.974 216.73 387.394 215.799 385.904C215.089 390.427 216.155 395.219 215.518 399.75L215.617 400H217.123H400V0H270.655ZM0 0V87.5285V88.8008C0.775652 91.0895 1.21602 93.5137 1.7428 95.8688C2.52702 99.4023 3.33101 102.932 4.15477 106.456C7.48177 121.207 11.0303 135.904 14.8003 150.548C16.2875 156.478 17.4698 163.384 19.4969 169.071C33.4955 177.346 47.7566 185.213 61.857 193.317C64.774 194.98 67.6625 196.69 70.5227 198.448C73.8129 200.47 77.1672 202.769 80.7945 204.13C82.3414 204.71 83.8203 204.376 85.3727 203.979C91.2484 202.478 97.0766 199.354 102.568 196.8C117.041 190.069 131.108 182.584 145.301 175.295L144.878 292.27L144.565 333.002L144.502 345.802C144.491 348.382 144.365 351.047 144.591 353.617C144.745 355.371 145.646 356.814 146.89 358.028C149.714 360.784 157.946 364.969 161.801 367.244L186.522 382.115C196.015 387.849 205.663 394.855 215.518 399.75C216.155 395.219 215.089 390.427 215.799 385.904L216.995 224.858L217.942 163.144C217.992 156.03 218.4 148.841 218.155 141.736C218.089 139.843 217.857 137.728 216.777 136.12C215.898 134.812 214.632 134.395 213.091 134.571C211.966 134.699 210.974 135.205 209.984 135.722C206.013 137.795 202.315 140.351 198.493 142.679L178.72 154.503C156.296 167.691 133.429 180.06 110.118 191.608C105.44 193.927 100.717 196.149 95.9477 198.272C92.2648 199.954 88.4309 201.919 84.4902 202.893C83.498 203.139 82.607 203.259 81.5957 203.066C80.9398 202.575 80.5559 201.476 80.3371 200.706C78.9863 195.961 78.4195 190.889 77.4656 186.046L71.3941 156.112C70.8691 152.598 70.0176 149.071 69.3219 145.584C67.9542 138.653 66.5323 131.733 65.0563 124.824C64.2961 124.18 63.3203 123.746 62.4465 123.271C62.4801 122.363 62.6977 121.755 63.0879 120.939C61.0973 119.427 58.5176 118.175 56.3144 116.993L44.9289 110.98C44.1711 110.407 43.1598 109.971 42.3285 109.486C39.1738 107.645 35.9537 106 32.7471 104.259L9.57215 91.5031C13.191 88.9285 22.2965 89.668 26.6636 89.6453C28.4342 89.6359 30.2636 89.4906 32.0193 89.2559C34.6087 88.9094 37.1589 88.2277 39.7281 87.752C44.0867 86.9453 48.516 86.302 52.7941 85.1254C64.7367 81.8418 80.6133 72.7785 86.7355 61.8281C88.6691 58.3695 92.0594 52.6348 90.9219 48.6656C93.5801 46.6883 96.6492 45.2367 99.4777 43.507C104.298 40.5542 109.002 37.4284 113.593 34.1298C121.618 28.4249 129.495 22.2236 136.699 15.4991C140.737 11.7298 144.437 7.59336 148.461 3.80643C149.141 3.13827 149.707 2.44837 150.036 1.54532C149.079 1.43307 148.135 1.28098 147.187 1.11901C147.143 0.659891 146.882 0.375861 146.632 0H0Z" fill="url(#paint0_linear_323_7005)"/>
<path d="M221.261 116.257C222.525 115.639 223.767 115.707 225.091 116.151C226.589 116.653 227.606 117.854 228.227 119.267C230.334 124.055 228.801 132.771 229.144 138.248L229.128 138.498L227.546 140.42C227.417 133.403 229.396 123.823 224.89 117.854C223.768 116.874 222.671 116.591 221.261 116.257Z" fill="#D3876B"/>
<path d="M65.0563 124.824C66.0898 124.691 66.9551 124.481 67.9359 124.143C68.7867 133.007 71.0844 141.856 72.616 150.633C72.9531 152.565 73.6719 154.448 73.857 156.401L73.6996 156.484C73.4301 156.006 73.432 155.969 72.9328 155.753C72.3621 155.811 71.9336 155.916 71.3941 156.112C70.8691 152.598 70.0176 149.071 69.3219 145.584C67.9542 138.653 66.5323 131.733 65.0563 124.824Z" fill="#F1A580"/>
<path d="M229.128 138.498C229.58 141.353 229.304 144.595 229.289 147.489L229.258 162.942C229.234 181.777 229.32 200.612 229.517 219.446L229.6 233.238C229.621 235.323 229.439 237.689 229.8 239.729C229.117 240.167 228.438 240.595 227.723 240.98L227.546 140.42L229.128 138.498Z" fill="#A96E5C"/>
<path d="M336.932 26.7932C337.41 29.068 336.913 36.0166 336.893 38.7309L336.697 39.0648C336.737 39.7496 336.889 40.5473 336.665 41.198L336.508 41.0543C336.513 40.9887 336.52 40.923 336.522 40.8574C336.591 38.9024 336.025 31.8884 334.781 30.5323C334.386 30.102 333.66 29.7445 333.071 29.7307C332.986 29.7667 332.908 29.825 332.817 29.8387C332.219 29.9287 329.975 30.1945 329.484 30.1752C328.111 30.1213 327.288 29.4223 325.772 29.6653C324.996 29.7898 324.255 29.91 323.502 30.1406C321.706 30.6902 319.774 30.0861 317.948 30.2553C316.962 30.3464 316.003 30.6894 315.011 30.7481C313.516 30.8368 311.982 30.6966 310.475 30.752C309.194 30.7991 307.918 30.9808 306.637 31.0212C305.426 31.0594 304.208 30.9361 303 31.0046C301.669 31.08 300.35 31.3493 299.019 31.4003C296.386 31.5012 293.712 31.643 291.081 31.693C290.104 31.7115 289.099 31.5643 288.131 31.6114C286.923 31.6702 285.734 32.1761 284.525 32.1959C282.807 32.2239 281.081 31.8801 279.361 31.9883C277.617 32.0979 275.836 32.6472 274.107 32.6744C273.307 32.687 272.516 32.3764 271.716 32.3447C269.996 32.2764 267.762 32.7142 266.04 32.9758C264.791 33.1657 263.697 32.7664 262.462 32.7923C260.323 32.8373 257.463 33.8014 255.46 33.3009C253.53 32.8189 250.882 33.9915 249.069 33.3465L249.267 32.844L248.97 32.7828L248.775 32.9414C248.304 33.3178 247.895 33.68 247.288 33.8052C246.04 34.063 242.531 33.6726 240.925 33.7492C239.278 33.8277 237.499 34.4924 235.889 34.3057C234.595 34.1557 233.271 33.9691 232.002 33.68C229.879 34.6156 229.955 34.9077 227.677 34.1891C227.292 34.0679 226.909 33.9149 226.5 33.9234C225.843 33.9369 226.005 35.0783 224.845 34.8C221.807 34.0714 221.771 35.0918 219.511 35.0965C218.088 35.0994 216.678 34.4153 215.245 34.58C214.83 34.9103 214.446 35.3755 213.914 35.4073C213.075 35.4575 212.335 35.6478 211.596 36.0547C209.325 37.3063 199.701 46.5004 198.418 46.3176C198.669 45.8465 209.777 35.0521 211.054 33.8888C218.787 33.3504 226.541 32.7224 234.279 32.2988C253.723 31.2343 273.21 30.6324 292.665 29.7596C300.679 29.382 308.688 28.9408 316.695 28.4361C321.255 28.1851 326.229 28.4155 330.671 27.3667C329.349 27.3593 328.027 27.3433 326.705 27.3186C330.091 26.8295 333.517 27.3631 336.932 26.7932Z" fill="#F1A580"/>
<path d="M184.996 136.962C187.058 136.116 190.406 133.602 192.468 132.343C196.155 130.09 199.912 127.954 203.601 125.702C209.314 122.215 214.899 118.469 221.261 116.257C222.671 116.591 223.768 116.874 224.89 117.854C217.91 119.739 211.815 123.852 205.747 127.657C202.094 129.96 198.415 132.221 194.71 134.441C182.692 141.735 170.561 148.836 158.317 155.743C136.426 167.791 114.138 179.053 91.4527 189.53L90.7984 187.024C95.1984 185.504 99.4113 183.346 103.569 181.273L116.814 174.653C133.742 166.36 150.326 157.429 166.566 147.859C172.752 144.242 179.002 140.916 184.996 136.962Z" fill="#F1A580"/>
<path d="M326.705 27.3186C328.027 27.3433 329.349 27.3593 330.671 27.3667C326.229 28.4155 321.255 28.1851 316.695 28.4361C308.688 28.9408 300.679 29.382 292.665 29.7596C273.21 30.6324 253.723 31.2343 234.279 32.2988C226.541 32.7224 218.787 33.3504 211.054 33.8888C209.777 35.0521 198.669 45.8465 198.418 46.3176C195.183 48.9961 192.14 51.9199 188.964 54.6711C182.787 60.0021 176.455 65.1413 169.968 70.0887C147.936 86.7164 124.187 98.9473 99.3363 110.714C92.609 113.9 85.7973 116.778 78.9141 119.605C75.273 121.101 71.468 122.422 67.9359 124.143C66.9551 124.481 66.0898 124.691 65.0563 124.824C64.2961 124.18 63.3203 123.746 62.4465 123.271C62.4801 122.363 62.6977 121.755 63.0879 120.939C63.9301 121.371 64.7062 121.996 65.4793 122.542C69.1828 119.898 77.1691 117.64 81.6438 115.812C88.7674 112.835 95.8151 109.688 102.787 106.37C120.605 97.8223 138.093 88.7785 154.607 77.8781C174.206 64.9414 192.305 49.3359 209.142 33.007C209.584 32.6649 209.995 32.2385 210.407 31.8592C214.167 32.2192 218.128 31.4424 221.893 31.2133C229.246 30.766 236.623 30.4046 243.983 30.1136C271.552 29.0246 299.126 28.093 326.705 27.3186Z" fill="#FEFEFE"/>
<path d="M328.748 138.734C328.501 130.827 328.868 122.808 328.924 114.889C328.952 110.913 328.511 106.584 328.867 102.681C329.816 105.179 329.14 132.559 329.233 137.97C330.02 137.061 330.904 135.691 331.988 135.202C333.076 134.584 334.333 132.857 335.247 131.916C335.573 131.878 335.855 131.83 336.168 131.726C336.486 130.316 336.185 128.798 336.339 127.347C336.347 127.274 336.357 127.202 336.365 127.129C336.579 130.953 336.469 134.825 336.477 138.656C336.502 147.732 336.412 156.808 336.207 165.882C336.013 180.456 336.236 195.04 336.157 209.616C333.255 210.43 331.076 213.988 328.945 215.98C327.775 216.771 326.978 217.884 325.942 218.816C326.086 212.526 325.977 206.212 325.979 199.92C325.983 180.815 325.691 161.686 325.961 142.585L325.969 140.344L326.745 140.349C327.572 139.942 328.108 139.378 328.748 138.734Z" fill="#D3876B"/>
<path d="M328.748 138.734C328.501 130.827 328.868 122.808 328.924 114.889C328.952 110.913 328.511 106.584 328.867 102.681C329.816 105.179 329.14 132.559 329.233 137.97C330.02 137.061 330.904 135.691 331.988 135.202C331.177 136.494 329.983 137.52 328.98 138.663C329.262 146.521 329.029 154.388 328.945 162.249L328.911 194.837C328.907 201.888 328.693 208.943 328.945 215.98C327.775 216.771 326.978 217.884 325.942 218.816C326.086 212.526 325.977 206.212 325.979 199.92C325.983 180.815 325.691 161.686 325.961 142.585L325.969 140.344L326.745 140.349C327.572 139.942 328.108 139.378 328.748 138.734Z" fill="#F1A580"/>
<path d="M146.632 0H257.433H269.604H270.655C275.961 2.31115 281.417 4.29578 286.793 6.43832L317.817 18.8252C322.12 20.5266 326.41 22.2575 330.689 24.0181C332.742 24.8729 335.005 25.6809 336.932 26.7932C333.517 27.3631 330.091 26.8295 326.705 27.3186C299.126 28.093 271.552 29.0246 243.983 30.1136C236.623 30.4046 229.246 30.766 221.893 31.2133C218.128 31.4424 214.167 32.2192 210.407 31.8592C209.995 32.2385 209.584 32.6649 209.142 33.007C204.611 31.6595 200.427 29.1955 196.205 27.1029L178.606 18.4627C168.592 13.5352 158.217 9.21738 148.461 3.80643C149.141 3.13827 149.707 2.44837 150.036 1.54532C149.079 1.43307 148.135 1.28098 147.187 1.11901C147.143 0.659891 146.882 0.375861 146.632 0Z" fill="#A96E5C"/>
<path d="M257.433 0H269.604C265.294 1.00773 259.838 0.2911 255.357 0.353784C256.033 0.188829 256.744 0.109883 257.433 0Z" fill="#DBD6DA"/>
<path d="M146.632 0H257.433C256.744 0.109883 256.033 0.188829 255.357 0.353784C233.204 0.83484 211.015 0.85884 188.857 1.02654C176.404 1.12077 163.87 1.65267 151.425 1.34404C150.922 1.3546 150.483 1.29598 150.036 1.54532C149.079 1.43307 148.135 1.28098 147.187 1.11901C147.143 0.659891 146.882 0.375861 146.632 0Z" fill="#FEFEFE"/>
<path d="M150.036 1.54532C150.483 1.29598 150.922 1.3546 151.425 1.34404L151.235 1.81778L150.478 2.11426C150.839 2.80409 152.454 3.45314 153.171 3.82255C157.897 6.25375 162.784 8.36277 167.544 10.7299C178.136 15.9966 188.657 21.4357 199.285 26.6228C202.87 28.3722 207.165 29.5789 210.407 31.8592C209.995 32.2385 209.584 32.6649 209.142 33.007C204.611 31.6595 200.427 29.1955 196.205 27.1029L178.606 18.4627C168.592 13.5352 158.217 9.21738 148.461 3.80643C149.141 3.13827 149.707 2.44837 150.036 1.54532Z" fill="#F1A580"/>
<path d="M130.262 102.684C132.325 104.213 134.725 105.466 136.906 106.835C140.603 109.156 144.244 111.575 147.911 113.943C154.435 118.161 160.994 122.325 167.587 126.434C173.355 130.07 179 133.709 184.996 136.962C179.002 140.916 172.752 144.242 166.566 147.859C150.326 157.429 133.742 166.36 116.814 174.653L103.569 181.273C99.4113 183.346 95.1984 185.504 90.7984 187.024C89.9461 184.99 89.6828 182.461 89.2656 180.289C88.6583 177.121 88.032 173.956 87.3867 170.795C85.943 163.869 84.2828 156.991 82.8066 150.073C81.2656 142.85 79.9254 135.627 78.141 128.455C80.3531 127.398 82.6539 126.506 84.8809 125.475C91.1105 122.589 97.3652 119.618 103.499 116.536L121.117 107.492C124.177 105.889 127.127 104.148 130.262 102.684Z" fill="#A96E5C"/>
<path d="M90.9219 48.6656C93.5801 46.6883 96.6492 45.2367 99.4777 43.507C104.298 40.5542 109.002 37.4284 113.593 34.1298C121.618 28.4249 129.495 22.2236 136.699 15.4991C140.737 11.7298 144.437 7.59336 148.461 3.80643C158.217 9.21738 168.592 13.5352 178.606 18.4627L196.205 27.1029C200.427 29.1955 204.611 31.6595 209.142 33.007C192.305 49.3359 174.206 64.9414 154.607 77.8781C138.093 88.7785 120.605 97.8223 102.787 106.37C95.8151 109.688 88.7674 112.835 81.6438 115.812C77.1691 117.64 69.1828 119.898 65.4793 122.542C64.7062 121.996 63.9301 121.371 63.0879 120.939C61.0973 119.427 58.5176 118.175 56.3144 116.993L44.9289 110.98C44.1711 110.407 43.1598 109.971 42.3285 109.486C39.1738 107.645 35.9537 106 32.7471 104.259L9.57215 91.5031C13.191 88.9285 22.2965 89.668 26.6636 89.6453C28.4342 89.6359 30.2636 89.4906 32.0193 89.2559C34.6087 88.9094 37.1589 88.2277 39.7281 87.752C44.0867 86.9453 48.516 86.302 52.7941 85.1254C64.7367 81.8418 80.6133 72.7785 86.7355 61.8281C88.6691 58.3695 92.0594 52.6348 90.9219 48.6656Z" fill="url(#paint1_linear_323_7005)"/>
<path d="M229.144 138.248C232.496 135.163 235.431 131.648 238.578 128.359C244.321 122.393 250.11 116.472 255.944 110.595L326.552 38.9708C326.063 43.1816 326.295 47.3848 326.322 51.6121L326.312 70.6348C325.989 93.8704 325.874 117.107 325.969 140.344L325.961 142.585C325.749 142.665 325.661 142.684 325.459 142.84C324.026 143.94 321.915 146.561 320.496 147.989L305.379 163.248C287.803 180.619 270.383 198.144 253.118 215.823L238.736 230.729C235.886 233.717 233.097 237.248 229.8 239.729C229.439 237.689 229.621 235.323 229.6 233.238L229.517 219.446C229.32 200.612 229.234 181.777 229.258 162.942L229.289 147.489C229.304 144.595 229.58 141.353 229.128 138.498L229.144 138.248Z" fill="url(#paint2_linear_323_7005)"/>
<path d="M229.8 239.729C233.097 237.248 235.886 233.717 238.736 230.729L253.118 215.823C270.383 198.144 287.803 180.619 305.379 163.248L320.496 147.989C321.915 146.561 324.026 143.94 325.459 142.84C325.661 142.684 325.749 142.665 325.961 142.585C325.691 161.686 325.983 180.815 325.979 199.92C325.977 206.212 326.086 212.526 325.942 218.816C325.423 220.86 325.773 231.068 325.773 233.838C325.771 245.714 325.557 257.634 325.796 269.505L325.758 342.59C325.757 344.468 325.574 357.05 325.684 357.367C325.846 357.836 326.32 358.414 326.602 358.835C321.29 359.897 315.961 361.811 310.726 363.247C298.147 366.611 285.615 370.142 273.13 373.839L246.209 381.478C241.898 382.708 237.407 383.76 233.192 385.289C231.677 385.838 230.335 386.821 229.12 387.863C228.821 388.039 228.586 388.128 228.248 388.204C227.854 386.822 228.056 384.718 228.029 383.25C227.971 378.209 227.985 373.168 228.072 368.128C228.094 365.509 228.359 362.631 227.93 360.053L227.723 240.98C228.438 240.595 229.117 240.167 229.8 239.729Z" fill="url(#paint3_linear_323_7005)"/>
<path d="M0 0H146.632C146.882 0.375861 147.143 0.659891 147.187 1.11901C148.135 1.28098 149.079 1.43307 150.036 1.54532C149.707 2.44837 149.141 3.13827 148.461 3.80643C144.437 7.59336 140.737 11.7298 136.699 15.4991C129.495 22.2236 121.618 28.4249 113.593 34.1298C109.002 37.4284 104.298 40.5542 99.4777 43.507C96.6492 45.2367 93.5801 46.6883 90.9219 48.6656C92.0594 52.6348 88.6691 58.3695 86.7355 61.8281C80.6133 72.7785 64.7367 81.8418 52.7941 85.1254C48.516 86.302 44.0867 86.9453 39.7281 87.752C37.1589 88.2277 34.6087 88.9094 32.0193 89.2559C30.2636 89.4906 28.4342 89.6359 26.6636 89.6453C22.2965 89.668 13.191 88.9285 9.57215 91.5031L32.7471 104.259C35.9537 106 39.1738 107.645 42.3285 109.486C43.1598 109.971 44.1711 110.407 44.9289 110.98L56.3144 116.993C58.5176 118.175 61.0973 119.427 63.0879 120.939C62.6977 121.755 62.4801 122.363 62.4465 123.271C63.3203 123.746 64.2961 124.18 65.0563 124.824C66.5323 131.733 67.9542 138.653 69.3219 145.584C70.0176 149.071 70.8691 152.598 71.3941 156.112L77.4656 186.046C78.4195 190.889 78.9863 195.961 80.3371 200.706C80.5559 201.476 80.9398 202.575 81.5957 203.066C82.607 203.259 83.498 203.139 84.4902 202.893C88.4309 201.919 92.2648 199.954 95.9477 198.272C100.717 196.149 105.44 193.927 110.118 191.608C133.429 180.06 156.296 167.691 178.72 154.503L198.493 142.679C202.315 140.351 206.013 137.795 209.984 135.722C210.974 135.205 211.966 134.699 213.091 134.571C214.632 134.395 215.898 134.812 216.777 136.12C217.857 137.728 218.089 139.843 218.155 141.736C218.4 148.841 217.992 156.03 217.942 163.144L216.995 224.858L215.799 385.904C215.089 390.427 216.155 395.219 215.518 399.75C205.663 394.855 196.015 387.849 186.522 382.115L161.801 367.244C157.946 364.969 149.714 360.784 146.89 358.028C145.646 356.814 144.745 355.371 144.591 353.617C144.365 351.047 144.491 348.382 144.502 345.802L144.565 333.002L144.878 292.27L145.301 175.295C131.108 182.584 117.041 190.069 102.568 196.8C97.0766 199.354 91.2484 202.478 85.3727 203.979C83.8203 204.376 82.3414 204.71 80.7945 204.13C77.1672 202.769 73.8129 200.47 70.5227 198.448C67.6625 196.69 64.774 194.98 61.857 193.317C47.7566 185.213 33.4955 177.346 19.4969 169.071C17.4698 163.384 16.2875 156.478 14.8003 150.548C11.0303 135.904 7.48177 121.207 4.15477 106.456C3.33101 102.932 2.52702 99.4023 1.7428 95.8688C1.21602 93.5137 0.775652 91.0895 0 88.8008V87.5285V0ZM0 0V87.5285C1.72405 86.8586 3.56389 86.4398 5.30336 85.7867C16.8115 81.576 28.22 77.1107 39.5289 72.3906C71.8879 58.6441 106.068 39.5957 132.284 16.1059C137.564 11.3743 142.649 6.57609 147.187 1.11901C147.143 0.659891 146.882 0.375861 146.632 0H0Z" fill="#674C4C"/>
<path d="M43.5422 112.825C43.6164 112.493 43.698 112.196 43.8547 111.889C44.0887 111.43 44.4465 111.137 44.9289 110.98L56.3144 116.993C58.5176 118.175 61.0973 119.427 63.0879 120.939C62.6977 121.755 62.4801 122.363 62.4465 123.271C60.1391 122.341 57.8664 120.825 55.6816 119.607C51.621 117.372 47.5745 115.111 43.5422 112.825Z" fill="url(#paint4_linear_323_7005)"/>
<path d="M0.57598 88.4629C1.34632 88.1816 2.13213 87.9551 2.91754 87.7207C4.98145 88.9402 7.36109 90.6727 9.57215 91.5031L32.7471 104.259C35.9537 106 39.1738 107.645 42.3285 109.486C43.1598 109.971 44.1711 110.407 44.9289 110.98C44.4465 111.137 44.0887 111.43 43.8547 111.889C43.698 112.196 43.6164 112.493 43.5422 112.825C39.6797 110.582 35.6876 108.525 31.7841 106.35C21.2572 100.604 10.8545 94.6418 0.57598 88.4629Z" fill="url(#paint5_linear_323_7005)"/>
<path d="M90.9219 48.6656C92.0594 52.6348 88.6691 58.3695 86.7355 61.8281C80.6133 72.7785 64.7367 81.8418 52.7941 85.1254C48.516 86.302 44.0867 86.9453 39.7281 87.752C37.1589 88.2277 34.6087 88.9094 32.0193 89.2559C30.2636 89.4906 28.4342 89.6359 26.6636 89.6453C22.2965 89.668 13.191 88.9285 9.57215 91.5031C7.36109 90.6727 4.98145 88.9402 2.91754 87.7207C9.33961 85.9312 16.6609 82.9031 22.9676 80.5059C28.8342 78.3176 34.6539 76.0112 40.4269 73.5867C46.1999 71.1622 51.9212 68.6217 57.591 65.9652C63.2608 63.3085 68.8745 60.5379 74.432 57.6535C79.9893 54.7691 85.4859 51.7732 90.9219 48.6656Z" fill="#D3876B"/>
<path d="M328.945 215.98C331.076 213.988 333.255 210.43 336.157 209.616L335.905 313.451C335.823 331.166 335.41 348.919 335.579 366.631C324.529 369.88 313.458 373.061 302.368 376.175C288.283 380.301 274.174 384.346 260.041 388.31L232.043 396.102C227.101 397.438 222 398.48 217.123 400H215.617L215.518 399.75C216.155 395.219 215.089 390.427 215.799 385.904C216.73 387.394 215.93 388.974 216.554 390.077C216.792 389.3 217.153 388.908 217.71 388.327C217.851 388.71 218.041 389.157 218.316 389.464C218.641 389.827 218.891 389.944 219.362 389.973C220.22 388.085 218.039 385.627 218.939 383.705C219.613 382.262 220.639 380.948 221.397 379.54C222.099 378.238 222.567 376.596 223.445 375.428C224.69 373.771 227.084 373.259 227.639 370.995C228.441 367.723 226.569 363.752 227.853 360.25C227.878 360.184 227.904 360.119 227.93 360.053C228.359 362.631 228.094 365.509 228.072 368.128C227.985 373.168 227.971 378.209 228.029 383.25C228.056 384.718 227.854 386.822 228.248 388.204C228.586 388.128 228.821 388.039 229.12 387.863C230.335 386.821 231.677 385.838 233.192 385.289C237.407 383.76 241.898 382.708 246.209 381.478L273.13 373.839C285.615 370.142 298.147 366.611 310.726 363.247C315.961 361.811 321.29 359.897 326.602 358.835C326.32 358.414 325.846 357.836 325.684 357.367C325.574 357.05 325.757 344.468 325.758 342.59L325.796 269.505C325.557 257.634 325.771 245.714 325.773 233.838C325.773 231.068 325.423 220.86 325.942 218.816C326.978 217.884 327.775 216.771 328.945 215.98Z" fill="#A96E5C"/>
<path d="M325.942 218.816C326.978 217.884 327.775 216.771 328.945 215.98C328.852 218.889 328.973 221.797 328.976 224.707L328.894 239.676L328.715 267.085C327.947 267.868 326.882 269.244 325.796 269.505C325.557 257.634 325.771 245.714 325.773 233.838C325.773 231.068 325.423 220.86 325.942 218.816Z" fill="#D3876B"/>
<path d="M326.602 358.835C327.008 359.156 327.479 359.38 327.63 359.883C325.434 360.882 322.872 361.254 320.56 361.95L297.512 368.635L253.796 381.23C248.288 382.819 242.827 384.602 237.293 386.099C234.84 386.763 231.64 387.916 229.12 387.863C230.335 386.821 231.677 385.838 233.192 385.289C237.407 383.76 241.898 382.708 246.209 381.478L273.13 373.839C285.615 370.142 298.147 366.611 310.726 363.247C315.961 361.811 321.29 359.897 326.602 358.835Z" fill="#D3876B"/>
<defs>
<linearGradient id="paint0_linear_323_7005" x1="215.432" y1="389.798" x2="200.358" y2="34.835" gradientUnits="userSpaceOnUse">
<stop stop-color="#AA513E"/>
<stop offset="1" stop-color="#E6B191"/>
</linearGradient>
<linearGradient id="paint1_linear_323_7005" x1="310.37" y1="320.546" x2="34.5125" y2="211.271" gradientUnits="userSpaceOnUse">
<stop stop-color="#935950"/>
<stop offset="1" stop-color="#F3854D"/>
</linearGradient>
<linearGradient id="paint2_linear_323_7005" x1="307.025" y1="346.485" x2="252.12" y2="26.7257" gradientUnits="userSpaceOnUse">
<stop stop-color="#9B756D"/>
<stop offset="1" stop-color="#C68570"/>
</linearGradient>
<linearGradient id="paint3_linear_323_7005" x1="391.868" y1="352.602" x2="322.932" y2="15.5474" gradientUnits="userSpaceOnUse">
<stop stop-color="#5B4646"/>
<stop offset="1" stop-color="#966661"/>
</linearGradient>
<linearGradient id="paint4_linear_323_7005" x1="0.697726" y1="42.3523" x2="439.673" y2="172.885" gradientUnits="userSpaceOnUse">
<stop stop-color="#E6BA9E"/>
<stop offset="1" stop-color="#FFE0C2"/>
</linearGradient>
<linearGradient id="paint5_linear_323_7005" x1="10.3117" y1="2.15447" x2="466.002" y2="148.517" gradientUnits="userSpaceOnUse">
<stop stop-color="#AC624D"/>
<stop offset="1" stop-color="#E6BA9E"/>
</linearGradient>
</defs>
</svg>
