<svg width="240" height="398" viewBox="0 0 240 398" fill="none" xmlns="http://www.w3.org/2000/svg">
<path d="M62.5865 74.998C63.9289 77.0674 65.2573 79.6921 67.361 81.0481C68.3951 81.254 68.9606 81.1871 69.9649 80.8827C68.6888 81.9697 67.7228 83.163 66.6948 84.4768C64.2536 82.2032 62.5448 79.1953 60.7832 76.3934L62.5865 74.998Z" fill="#422B31"/>
<path d="M60.5977 189.833C62.9 190.168 65.2315 190.361 67.5457 190.603C66.6702 191.468 66.6843 191.463 66.6252 192.695L68.0633 195.14C69.4508 198.294 73.0775 200.08 76.1293 201.248C80.1758 202.798 86.8492 203.152 90.0478 204.863L89.9066 204.992C87.4597 204.918 82.9045 203.845 80.8306 204.828C79.6035 206.459 79.9456 208.13 80.0548 210.091C79.4528 210.076 78.8524 210.05 78.2549 209.968C72.2707 209.14 64.3398 194.658 60.5977 189.833Z" fill="#2A536F"/>
<path d="M40.8096 42.9717C42.7332 45.8529 44.5725 48.8687 46.6216 51.6565L46.9918 52.2164C52.0015 59.9391 57.1992 67.533 62.5848 74.9981L60.7815 76.3934C56.5494 70.8278 53.0908 64.8678 49.5102 58.8774C48.0265 58.5736 46.6441 57.9918 45.21 58.7615C44.7818 58.9911 44.3913 59.3934 44.0425 59.7293C42.1346 56.5256 40.728 52.8178 39.1858 49.4139L37.2053 50.3012C36.9741 48.211 39.6854 44.8616 40.8096 42.9717Z" fill="#634849"/>
<path d="M39.1875 49.4141C43.5969 51.7957 46.5687 54.8891 49.5119 58.8776C48.0282 58.5738 46.6458 57.992 45.2116 58.7617C44.7835 58.9913 44.393 59.3935 44.0442 59.7294C42.1363 56.5258 40.7297 52.818 39.1875 49.4141Z" fill="#B6563D"/>
<path d="M44.043 59.7295C44.3918 59.3936 44.7823 58.9913 45.2104 58.7618C46.6446 57.9921 48.027 58.5739 49.5107 58.8777C53.0913 64.8681 56.5498 70.8281 60.782 76.3937C62.5436 79.1956 64.2524 82.2035 66.6936 84.4771C64.5641 85.6525 61.9185 87.072 61.3261 89.6607C61.0903 90.6909 61.3187 91.6023 61.6485 92.5774C60.1518 93.3409 57.6138 95.2223 56.0418 94.8971C55.2428 93.4152 55.4831 91.7402 55.5607 90.1175C56.1774 89.7833 56.8964 89.601 57.149 88.918C58.3306 85.7245 51.1812 76.8207 49.6711 73.549C50.1763 69.1531 46.087 63.4086 44.043 59.7295Z" fill="#DE6A48"/>
<path d="M110.359 72.1221C115.982 73.231 120.65 73.4448 126.349 72.8439C128.581 85.209 132.618 99.442 132.451 111.793C130.218 103.731 127.271 93.5642 119.636 88.905C118.547 88.3063 117.819 87.6947 116.518 88.025C112.528 89.0372 107.97 95.6819 105.511 98.8727C103.136 98.8547 100.741 99.1011 98.3711 99.2671C102.537 93.4708 112.573 87.2902 113.628 80.1532C114.118 76.8364 112.211 74.6264 110.359 72.1221Z" fill="url(#paint0_linear_120_37457)"/>
<path d="M108.689 73.2957C109.159 72.6425 109.658 72.4743 110.357 72.1221C112.209 74.6264 114.116 76.8364 113.626 80.1532C112.572 87.2902 102.535 93.4708 98.3694 99.2671L91.9717 105.717C87.7046 108.761 83.8241 112.301 79.4761 115.238C77.1845 116.749 74.6487 118.569 72.0695 119.517C67.5893 118.088 61.928 118.577 57.9355 116.236L61.1842 114.634L62.8558 114.255L68.9356 110.848C73.1419 108.373 92.5833 96.7521 93.479 92.8384C93.8858 91.0576 92.8922 89.3945 92.0004 87.9294C98.4313 83.4395 103.883 79.5883 108.689 73.2957Z" fill="#BE744F"/>
<path d="M61.1842 114.634L62.8558 114.255C66.792 116.882 74.782 115.137 79.4761 115.238C77.1845 116.749 74.6487 118.569 72.0695 119.517C67.5893 118.088 61.928 118.577 57.9355 116.236L61.1842 114.634Z" fill="#B6563D"/>
<path d="M92.0023 87.9295C98.4332 83.4397 103.885 79.5884 108.691 73.2959C109.575 79.6886 107.724 84.6218 103.841 89.7356C97.7012 97.8224 82.0695 110.04 71.875 111.383C70.5106 111.563 70.1387 111.439 68.9375 110.848C73.1438 108.373 92.5851 96.7522 93.4809 92.8385C93.8876 91.0578 92.894 89.3946 92.0023 87.9295Z" fill="#DE6A48"/>
<path d="M98.3703 99.2664C100.74 99.1005 103.135 98.854 105.51 98.872L102.106 104.7L102.003 105.092C101.542 106.158 101.011 107.229 100.627 108.323L99.8388 110.046L94.8443 113.662C87.7837 118.003 80.7699 122.691 73.1017 125.902C68.7632 127.824 64.3268 129.644 60.1279 131.855C61.8276 134.048 64.5226 138.474 67.4731 138.864C68.4751 138.996 69.4941 139.07 70.5023 139.145C67.5671 140.095 64.656 141.082 61.6335 141.722C59.6992 139.282 57.7316 136.864 55.9452 134.311C50.8252 134.555 36.4139 133.96 32.858 137.8C28.6146 142.382 31.6984 155.213 29.8923 158.998C29.5125 158.999 29.1947 159.034 28.8329 158.905C26.3697 152.925 23.6667 145.574 26.0602 139.188C29.8619 129.044 46.7591 129.133 55.7067 126.604C59.9428 125.407 64.1569 123.206 68.1764 121.397L72.0704 119.516C74.6495 118.568 77.1853 116.749 79.477 115.237C83.825 112.3 87.7055 108.76 91.9726 105.716L98.3703 99.2664Z" fill="url(#paint1_linear_120_37457)"/>
<path d="M98.3704 99.2664C100.74 99.1005 103.135 98.854 105.51 98.872L102.106 104.7L102.003 105.092C101.542 106.158 101.011 107.229 100.627 108.323C100.655 107.331 100.799 106.056 100.435 105.121C100.041 104.109 99.4872 103.996 98.5752 103.539C96.3472 103.524 93.997 104.851 91.9727 105.716L98.3704 99.2664Z" fill="#634849"/>
<path d="M45.9579 120.685C50.0331 119.514 53.9923 117.791 57.937 116.236C61.9295 118.577 67.5907 118.089 72.071 119.517L68.177 121.398C64.1575 123.207 59.9434 125.407 55.7073 126.605C46.7596 129.134 29.8625 129.045 26.0608 139.189C23.6673 145.574 26.3702 152.926 28.8335 158.906C12.661 150.213 10.5742 149.057 4.19727 131.595C7.29458 132.208 10.4538 132.812 13.6231 132.788C21.5023 132.729 24.8584 127.419 29.8541 122.283C33.2608 124.279 42.1033 121.534 45.9579 120.685Z" fill="#422B31"/>
<path d="M45.957 120.685C50.0322 119.514 53.9915 117.791 57.9361 116.236C61.9286 118.577 67.5899 118.089 72.0701 119.517L68.1761 121.398C68.153 121.107 68.1615 120.98 68.0366 120.683C66.621 117.317 51.4821 123.498 45.957 120.685Z" fill="#634849"/>
<path d="M149.955 174.56C155.511 191.548 167.622 206.948 175.585 222.971C175.624 223.513 175.888 224.709 175.553 225.101C172.777 228.351 169.636 230.056 167.479 234.03C166.823 234.166 166.521 234.088 165.895 233.86C159.933 224.328 154.427 214.503 148.507 204.941C147.186 200.6 144.58 196.439 142.418 192.459C144.356 186.116 146.863 180.43 149.955 174.56Z" fill="#634849"/>
<path d="M94.8453 113.662L97.9561 119.608C99.1174 118.695 100.217 117.538 101.758 117.512L102.069 119.284L103.657 121.842C104.497 123.474 105.434 125.088 105.958 126.853C101.992 133.325 98.1486 141.406 95.5272 148.537L95.525 148.854C94.4627 149.635 93.6322 150.531 92.2127 150.425C90.9423 150.33 89.3731 149.422 88.1724 149.974C85.8088 146.735 82.6794 143.977 80.1734 140.793L76.4994 137.129L70.5034 139.145C69.4951 139.07 68.4762 138.997 67.4741 138.864C64.5237 138.474 61.8286 134.048 60.1289 131.855C64.3279 129.644 68.7643 127.824 73.1028 125.902C80.7709 122.691 87.7848 118.003 94.8453 113.662Z" fill="#422B31"/>
<path d="M86.9361 132.049C87.2439 132.986 87.6669 133.826 87.3057 134.802C84.6208 136.474 81.9523 138.094 80.1721 140.793L76.498 137.129C80.1079 135.68 83.5018 133.866 86.9361 132.049Z" fill="#72BDD9"/>
<path d="M94.8441 113.662L97.9549 119.608C90.5247 124.886 83.2634 130.192 74.2764 132.473L73.1016 125.902C80.7697 122.691 87.7836 118.003 94.8441 113.662Z" fill="#B6563D"/>
<path d="M86.9359 132.049C92.5144 128.309 97.7272 124.459 102.067 119.284L103.655 121.842C104.496 123.474 105.432 125.088 105.956 126.853C101.99 133.325 98.147 141.406 95.5257 148.537L95.5234 148.855C94.4612 149.635 93.6307 150.531 92.2112 150.425C90.9407 150.33 89.3715 149.422 88.1709 149.974C85.8072 146.735 82.6779 143.977 80.1719 140.793C81.9521 138.094 84.6206 136.474 87.3055 134.802C87.6667 133.826 87.2436 132.986 86.9359 132.049Z" fill="url(#paint2_linear_120_37457)"/>
<path d="M80.1719 140.794C81.9521 138.094 84.6206 136.474 87.3055 134.803C90.8175 138.248 92.4548 144.463 95.5257 148.537L95.5234 148.855C94.4612 149.636 93.6307 150.531 92.2112 150.425C90.9407 150.331 89.3715 149.423 88.1709 149.975C85.8072 146.736 82.6779 143.978 80.1719 140.794Z" fill="url(#paint3_linear_120_37457)"/>
<path d="M1.5625 38.0451C5.95895 34.3722 19.2619 33.4433 25.2799 31.7959C23.3557 32.9426 21.5744 34.2192 19.779 35.5566L19.2726 35.8992C21.0972 39.8185 29.2966 43.8301 33.051 46.164C35.1384 45.1175 38.5621 42.4821 40.7046 42.1884L40.8109 42.9716C39.6868 44.8615 36.9754 48.2108 37.2067 50.301L39.1872 49.4138C40.7294 52.8177 42.1359 56.5255 44.0438 59.7291C46.0879 63.4082 50.1772 69.1527 49.6719 73.5486C51.182 76.8204 58.3314 85.7241 57.1499 88.9176C56.8973 89.6007 56.1782 89.783 55.5616 90.1172C54.5893 90.5104 53.3859 90.8503 52.5087 91.4084L46.2702 93.2437C39.464 81.9038 29.8463 59.5665 20.3394 51.163C14.583 46.0739 7.34191 43.2062 1.5625 38.0451Z" fill="#422B31"/>
<path d="M37.207 50.3013L39.1875 49.4141C40.7297 52.818 42.1363 56.5258 44.0442 59.7294C46.0882 63.4085 50.1775 69.1531 49.6723 73.5489C44.8083 66.1272 40.2458 58.6734 37.207 50.3013Z" fill="#F9AF67"/>
<path d="M1.5625 38.0451C5.95895 34.3722 19.2619 33.4433 25.2799 31.7959C23.3557 32.9426 21.5744 34.2192 19.779 35.5566L19.2726 35.8992C16.8313 35.9555 14.3529 37.1764 12.1446 38.1526C17.9183 41.9369 23.2645 46.8886 29.3354 50.1092C36.2811 64.0991 42.9495 78.9927 52.5087 91.4084L46.2702 93.2437C39.464 81.9038 29.8463 59.5665 20.3394 51.163C14.583 46.0739 7.34191 43.2062 1.5625 38.0451Z" fill="#1D1419"/>
<path d="M80.0553 210.09C79.9461 208.129 79.604 206.458 80.8311 204.827C82.905 203.844 87.4601 204.918 89.9071 204.992C90.8652 205.377 91.0948 205.485 92.1576 205.359C95.1671 205.552 97.991 206.067 100.932 206.684C102.34 208.936 103.607 211.145 104.73 213.558L104.041 213.929C106.521 219.065 114.222 237.304 118.119 240.075C120.742 244.987 123.509 249.87 125.829 254.932C126.181 256.476 126.734 257.519 125.866 258.992C122.808 264.177 119.364 262.899 120.581 270.816C121.001 273.547 122.041 276.275 122.183 279.028C116.985 269.775 111.262 260.8 106.008 251.57C98.1587 237.78 90.6087 223.32 81.3122 210.44L80.0553 210.09Z" fill="#634849"/>
<path d="M80.0553 210.09C79.9461 208.129 79.604 206.458 80.8311 204.827C82.905 203.844 87.4601 204.918 89.9071 204.992C90.8652 205.377 91.0948 205.485 92.1576 205.359C95.1671 205.552 97.991 206.067 100.932 206.684C102.34 208.936 103.607 211.145 104.73 213.558L104.041 213.929C96.6294 210.579 89.3056 210.449 81.3122 210.44L80.0553 210.09Z" fill="#72BDD9"/>
<path d="M69.9639 80.8824C72.6752 79.4438 74.2912 78.9346 77.3142 79.6452C78.8131 82.9884 79.5439 89.3152 82.6913 91.1714C86.2984 92.0255 88.9884 89.5403 92.0013 87.9289C92.8931 89.394 93.8867 91.0572 93.4799 92.8379C92.5842 96.7516 73.1428 108.372 68.9365 110.847L62.8567 114.255L61.1851 114.633L57.9364 116.236C53.9918 117.79 50.0325 119.514 45.9573 120.684C42.1027 121.533 33.2603 124.278 29.8535 122.282C35.0495 117.567 42.1072 114.847 48.4548 112.072C47.2592 110.247 46.0867 108.357 44.7572 106.629C42.7402 104.006 40.9251 103.589 37.7906 103.147C37.6849 102.671 37.5729 102.435 37.691 101.951C38.7477 97.6248 42.7424 95.4261 46.2696 93.2436L52.5081 91.4082C53.3853 90.8501 54.5887 90.5103 55.561 90.117C55.4833 91.7396 55.2431 93.4146 56.042 94.8966C57.614 95.2218 60.1521 93.3404 61.6487 92.5769C61.319 91.6018 61.0906 90.6903 61.3263 89.6601C61.9188 87.0714 64.5643 85.6519 66.6939 84.4766C67.7218 83.1628 68.6878 81.9695 69.9639 80.8824Z" fill="#634849"/>
<path d="M69.9649 80.8824C72.6763 79.4438 74.2922 78.9346 77.3152 79.6452C73.3846 84.934 67.4156 89.4514 61.6497 92.5769C61.32 91.6018 61.0916 90.6903 61.3273 89.6601C61.9198 87.0714 64.5653 85.6519 66.6949 84.4766C67.7228 83.1628 68.6889 81.9695 69.9649 80.8824Z" fill="#FDDE5B"/>
<path d="M73.9376 91.8506C74.1272 91.8759 74.3201 91.8843 74.5069 91.9265C76.7665 92.4397 79.6967 97.7318 80.9289 99.6999L72.756 104.893C72.0685 105.297 72.0634 105.205 71.2735 105.019C69.3717 102.668 68.2161 99.6527 66.9355 96.9284C69.181 95.1426 71.6077 93.5278 73.9376 91.8506Z" fill="#FDDE5B"/>
<path d="M56.3689 98.984C59.033 99.4409 61.6853 97.4941 63.9409 96.1973C64.4805 100.513 64.3032 104.865 64.836 109.15C63.4655 109.775 61.7719 110.325 60.6911 111.389L62.545 112.095C62.5107 113.101 61.7624 113.822 61.1851 114.633L57.9364 116.236C53.9918 117.79 50.0325 119.514 45.9573 120.684C42.1027 121.533 33.2603 124.278 29.8535 122.282C35.0495 117.567 42.1072 114.846 48.4548 112.071C47.2592 110.247 46.0867 108.357 44.7572 106.629C42.7402 104.006 40.9251 103.589 37.7906 103.147C38.3308 102.832 38.8512 102.55 39.4318 102.314C42.4217 101.102 53.3059 96.1067 56.3183 97.372L56.3689 98.984Z" fill="#1D1419"/>
<path d="M56.3689 98.984C59.033 99.4409 61.6853 97.4941 63.9409 96.1973C64.4805 100.513 64.3032 104.865 64.8361 109.15C63.4655 109.775 61.7719 110.325 60.6911 111.389C58.3241 112.091 56.069 112.951 53.7825 113.874C51.4998 110.526 49.4136 107.07 47.3223 103.6C50.7459 102.437 53.4427 101.148 56.3689 98.984Z" fill="url(#paint4_linear_120_37457)"/>
<path d="M125.829 254.933C134.547 266.03 140.509 280.695 146.34 293.475C150.122 306.761 151.377 321.317 144.778 334.105C144.321 335.255 143.92 336.489 143.322 337.571C141.641 338.472 140.544 339.5 138.566 338.919C137.644 338.647 135.85 337.696 134.99 338.142C134.382 338.456 133.868 339.155 133.415 339.662C134.55 335.105 134.875 330.422 135.503 325.779C134.987 307.93 129.329 294.887 122.183 279.028C122.042 276.276 121.001 273.547 120.581 270.816C119.364 262.899 122.808 264.177 125.866 258.993C126.735 257.52 126.181 256.476 125.829 254.933Z" fill="url(#paint5_linear_120_37457)"/>
<path d="M135.504 325.779C135.809 324.112 136.091 322.442 136.35 320.768C138.796 322.853 144.602 327.446 145.052 330.693C145.205 331.793 144.701 332.949 144.779 334.105C144.322 335.255 143.921 336.489 143.322 337.571C141.642 338.472 140.545 339.501 138.567 338.919C137.644 338.648 135.851 337.696 134.99 338.142C134.383 338.456 133.868 339.156 133.416 339.663C134.551 335.105 134.875 330.422 135.504 325.779Z" fill="#7C2C29"/>
<path d="M165.895 233.86C166.52 234.089 166.822 234.167 167.479 234.03C169.635 230.056 172.777 228.352 175.552 225.102C175.888 224.71 175.623 223.513 175.584 222.972C193.101 248.113 202.706 274.613 235.238 283.417C233.093 284.212 227.413 285.344 226.145 286.973C224.229 286.227 214.389 289.553 210.917 289.558C210.837 289.527 210.756 289.498 210.676 289.465C206.183 287.583 202.322 284.377 198.908 280.953C189.933 271.951 170.618 245.286 165.895 233.86Z" fill="#DE6A48"/>
<path d="M1.56142 38.045C1.48941 37.9471 1.40332 37.8582 1.34537 37.7513C0.518293 36.2203 -0.352676 2.72148 0.146383 0.20255L0.998787 0C8.51787 2.33607 16.3014 4.31937 23.7169 6.92044C29.0265 8.78333 34.0891 11.3439 39.3965 13.1967C40.1966 14.8092 42.0752 34.1262 42.1011 36.8229C42.114 38.1738 41.9199 39.8555 41.4203 41.113C41.2504 41.5417 40.9966 41.8405 40.7035 42.1882C38.561 42.4819 35.1374 45.1173 33.05 46.1638C29.2955 43.83 21.0962 39.8184 19.2715 35.8991L19.7779 35.5564C21.5733 34.219 23.3546 32.9424 25.2788 31.7957C19.2609 33.4431 5.95787 34.3721 1.56142 38.045Z" fill="#634849"/>
<path d="M1.56142 38.045C1.48941 37.9471 1.40332 37.8582 1.34537 37.7513C0.518293 36.2203 -0.352676 2.72148 0.146383 0.20255L0.998787 0L4.09836 3.54067C7.40891 13.1331 11.0931 22.5916 14.4284 32.1789C25.6845 26.772 24.6121 32.9019 36.3695 22.3721C32.8671 28.5763 28.3458 33.3104 21.2633 35.2211C20.7727 35.3531 20.2775 35.4649 19.7779 35.5564C21.5733 34.219 23.3546 32.9424 25.2788 31.7957C19.2609 33.4431 5.95787 34.3721 1.56142 38.045Z" fill="#422B31"/>
<path d="M1 0C8.51908 2.33607 16.3026 4.31937 23.7182 6.92044C29.0278 8.78333 34.0904 11.3439 39.3977 13.1967C33.8175 19.5685 28.3318 25.1386 20.7384 29.0208C16.9254 18.3937 12.4598 11.1627 4.09957 3.54067L1 0Z" fill="url(#paint6_linear_120_37457)"/>
<path d="M70.5017 139.145L76.4977 137.129L80.1717 140.793C82.6777 143.977 85.8071 146.735 88.1707 149.974C99.4296 166.446 112.209 183.207 120.617 201.362C116.5 201.94 114.504 202.766 111.965 206.15C110.117 208.612 108.705 212.764 106.231 214.466C105.488 214.335 105.249 214.09 104.729 213.558C103.606 211.145 102.339 208.937 100.932 206.684C97.9904 206.067 95.1665 205.552 92.157 205.359C91.0942 205.485 90.8646 205.377 89.9065 204.992L90.0477 204.863C86.8491 203.152 80.1756 202.798 76.1292 201.248C73.0774 200.08 69.4507 198.294 68.0632 195.14L66.6251 192.694C66.6842 191.463 66.6701 191.468 67.5455 190.603C70.4606 190.511 73.4516 190.151 76.0706 188.794C78.6773 187.443 80.7034 185.369 81.5817 182.53C83.1987 177.298 80.7124 172.025 78.2897 167.496C75.158 160.097 70.3092 151.702 64.9299 145.723C64.0707 144.231 62.7862 142.992 61.6328 141.722C64.6553 141.082 67.5664 140.096 70.5017 139.145Z" fill="url(#paint7_linear_120_37457)"/>
<path d="M68.0645 195.141C72.8643 196.3 92.1521 200.354 94.5129 203.715C93.6751 204.776 92.4823 204.2 92.1583 205.36C91.0954 205.485 90.8659 205.378 89.9077 204.992L90.0489 204.863C86.8503 203.152 80.1769 202.798 76.1304 201.249C73.0787 200.081 69.4519 198.295 68.0645 195.141Z" fill="#6094A1"/>
<path d="M94.8438 113.662L99.8383 110.046C100.323 112.453 101.714 115.15 101.756 117.512C100.216 117.538 99.1158 118.695 97.9546 119.608L94.8438 113.662Z" fill="#634849"/>
<path d="M137.222 157.288C138.024 154.454 138.557 151.81 138.424 148.849C138.336 146.889 136.736 142.404 137.262 140.81C139.945 142.189 143.715 155.111 145.483 158.532C146.648 161.757 148.143 165.138 148.761 168.504C145.964 165.697 145.743 161.214 143.357 158.157C142.685 159.042 143.049 160.473 143.102 161.579L142.876 162.085C141.254 160.452 142.714 156.209 140.591 154.508C139.029 154.823 138.208 156.129 137.222 157.288Z" fill="#2A536F"/>
<path d="M105.957 126.853C109.203 139.708 115.125 151.197 122.742 161.934C124.813 162.623 127.52 162.901 129.687 162.582C133.035 162.089 135.292 159.893 137.223 157.287C138.208 156.128 139.03 154.822 140.592 154.507C142.714 156.208 141.254 160.452 142.877 162.084L143.102 161.578C143.049 160.472 142.686 159.041 143.358 158.157C145.743 161.213 145.964 165.696 148.761 168.503C149.477 170.541 149.883 172.396 149.954 174.56C146.862 180.43 144.356 186.116 142.417 192.459C144.58 196.439 147.185 200.6 148.506 204.941C148.583 209.859 149.673 214.648 150.057 219.53C149.533 224.679 149.605 232.48 147.321 237.064C148.388 239.028 149.374 241.204 150.676 243.017C158.055 257.848 165.91 273.17 175.391 286.767C182.377 287.957 189.531 289.011 196.397 290.78C194.868 295.434 192.773 303.363 188.175 305.88C186.73 306.671 184.973 306.801 183.401 306.322C181.135 305.634 178.989 303.297 177.281 301.741C174.164 302.277 171.039 302.768 167.908 303.213C168.043 299.251 168.544 295.3 169.038 291.37C163.721 281.133 158.149 270.695 151.874 261.008L148.895 255.873C146.266 257.428 143.905 258.561 140.789 257.822C139.492 257.515 138.213 257.056 136.954 256.619C130.057 252.056 125.444 244.247 118.12 240.075C114.223 237.304 106.522 219.065 104.042 213.928L104.73 213.558C105.25 214.089 105.489 214.335 106.233 214.466C108.706 212.763 110.119 208.612 111.966 206.149C114.505 202.765 116.501 201.939 120.619 201.362C112.211 183.207 99.4308 166.446 88.1719 149.974C89.3725 149.422 90.9417 150.33 92.2122 150.425C93.6317 150.531 94.4622 149.635 95.5244 148.854L95.5267 148.537C98.148 141.406 101.991 133.325 105.957 126.853Z" fill="#FEFEFD"/>
<path d="M105.956 126.853C109.202 139.708 115.124 151.197 122.741 161.934C121.912 171.939 121.285 181.998 121.549 192.04C110.942 178.851 104.741 162.923 95.5234 148.854L95.5257 148.537C98.147 141.406 101.99 133.325 105.956 126.853Z" fill="#72BDD9"/>
<path d="M120.618 201.362C123.718 209.459 128.058 217.006 132.141 224.636L148.894 255.873C146.265 257.429 143.904 258.561 140.789 257.822C139.492 257.515 138.212 257.057 136.954 256.619C130.057 252.056 125.443 244.247 118.119 240.076C114.222 237.305 106.521 219.066 104.041 213.929L104.73 213.558C105.25 214.09 105.489 214.335 106.232 214.466C108.706 212.764 110.118 208.612 111.965 206.15C114.504 202.766 116.501 201.94 120.618 201.362Z" fill="#6094A1"/>
<path d="M137.222 157.288C138.208 156.128 139.029 154.823 140.591 154.508C142.714 156.209 141.253 160.452 142.876 162.084L143.102 161.578C143.049 160.472 142.685 159.042 143.357 158.157C145.743 161.213 145.964 165.696 148.761 168.503C149.476 170.541 149.882 172.397 149.954 174.56C146.862 180.43 144.355 186.117 142.417 192.459C144.579 196.439 147.185 200.6 148.506 204.941C148.582 209.859 149.672 214.648 150.057 219.531C149.532 224.679 149.605 232.481 147.321 237.064C144.471 232.31 142.038 227.296 139.302 222.471C133.512 212.26 127.492 202.164 121.549 192.041C121.286 181.998 121.912 171.939 122.741 161.934C124.812 162.624 127.519 162.902 129.686 162.583C133.034 162.089 135.291 159.893 137.222 157.288Z" fill="#6094A1"/>
<path d="M143.102 161.579C143.049 160.472 142.685 159.042 143.357 158.157C145.743 161.213 145.964 165.697 148.761 168.504C149.476 170.541 149.883 172.397 149.954 174.56C146.862 180.43 144.355 186.117 142.417 192.46C141.238 190.883 140.379 188.717 139.469 186.952C139.948 183.874 140.848 180.931 141.653 177.929C142.743 173.871 145.332 165.439 143.102 161.579Z" fill="#72BDD9"/>
<path d="M235.763 284.344C238.466 301.311 241.393 329.252 238.764 346.12C237.025 363.462 235.404 380.669 233.197 397.976C224.608 396.008 216.516 391.997 208.407 388.632C196.682 383.767 184.431 379.386 173.587 372.717C164.367 367.046 155.819 360.005 147.003 353.723C142.987 350.861 136.13 347.692 133.373 343.673C132.423 342.289 133.06 341.153 133.416 339.663C133.868 339.156 134.383 338.456 134.99 338.142C135.851 337.696 137.644 338.648 138.566 338.919C140.545 339.501 141.641 338.472 143.322 337.571C142.752 339.083 141.803 340.845 142.047 342.475C142.344 342.621 142.686 342.846 143.011 342.897C158.131 342.475 188.642 337.302 201.37 343.6C202.213 343.612 203.199 343.696 204.028 343.552C205.553 343.29 205.812 342.644 206.688 341.464L206.991 336.221C207.172 331.101 209.458 326.094 211.255 321.357C216.741 308.489 226.759 294.981 235.763 284.344Z" fill="#422B31"/>
<path d="M206.687 341.464C208.903 346.534 217.055 362.173 217.34 366.245L216.804 367.482C212.289 358.983 207.767 350.864 201.369 343.599C202.211 343.611 203.198 343.695 204.027 343.552C205.552 343.289 205.811 342.643 206.687 341.464Z" fill="#DE6A48"/>
<path d="M180.434 345.705C184.091 345.014 188.924 345.205 192.434 346.375C204.414 350.37 212.586 369.597 218.029 380.33C213.945 378.641 209.878 376.912 205.828 375.141C187.121 366.83 177.306 360.686 161.777 347.272C167.999 346.782 174.218 346.26 180.434 345.705Z" fill="#634849"/>
<path d="M235.762 284.344C238.465 301.311 241.393 329.252 238.763 346.12C237.841 343.498 238.835 339.502 236.736 337.484C234.649 336.516 231.715 337.023 229.456 337.135C231.32 343.66 227.757 375.328 228.051 385.7C223.973 379.862 219.604 374.069 216.804 367.482L217.34 366.246C217.055 362.174 208.903 346.534 206.688 341.464L206.99 336.221C207.171 331.101 209.457 326.094 211.254 321.357C216.74 308.489 226.758 294.981 235.762 284.344Z" fill="#B6563D"/>
<path d="M213.573 323.974L213.025 323.497C215.026 317.397 220.032 307.416 225.218 303.416L226.36 303.246C229.684 306.645 229.067 323.404 229.013 328.471C228.993 330.257 229.069 332.053 228.639 333.799C226.959 332.697 224.893 331.974 223.093 331.056C219.469 329.207 216.567 326.696 213.573 323.974Z" fill="#DE6A48"/>
<path d="M148.505 204.941C154.426 214.503 159.932 224.328 165.894 233.86C170.617 245.286 189.932 271.951 198.907 280.953C202.321 284.377 206.182 287.583 210.676 289.465C210.755 289.498 210.836 289.527 210.917 289.558C214.388 289.553 224.229 286.227 226.144 286.973C227.412 285.344 233.092 284.212 235.237 283.417L235.763 284.344C226.759 294.981 216.74 308.489 211.255 321.357C209.458 326.094 207.171 331.1 206.99 336.22L206.688 341.464C205.811 342.643 205.552 343.289 204.028 343.552C203.198 343.696 202.212 343.612 201.37 343.599C188.642 337.302 158.131 342.475 143.011 342.897C142.685 342.845 142.343 342.62 142.047 342.475C141.802 340.845 142.751 339.083 143.321 337.571C143.92 336.489 144.321 335.255 144.778 334.105C151.377 321.317 150.121 306.761 146.339 293.476C140.509 280.695 134.547 266.03 125.828 254.933C123.509 249.871 120.742 244.987 118.119 240.076C125.443 244.247 130.057 252.057 136.953 256.619C138.212 257.057 139.491 257.515 140.788 257.823C143.904 258.561 146.265 257.429 148.894 255.874L151.873 261.009C158.148 270.695 163.72 281.133 169.037 291.371C168.543 295.301 168.043 299.251 167.907 303.213C171.039 302.768 174.163 302.277 177.28 301.741C178.988 303.298 181.134 305.634 183.4 306.323C184.972 306.801 186.729 306.672 188.174 305.881C192.772 303.364 194.867 295.434 196.396 290.781C189.53 289.011 182.376 287.958 175.391 286.768C165.91 273.171 158.054 257.848 150.675 243.017C149.374 241.204 148.387 239.029 147.321 237.064C149.604 232.481 149.532 224.679 150.057 219.531C149.672 214.648 148.582 209.859 148.505 204.941Z" fill="#F9AF67"/>
<path d="M148.894 255.873L151.873 261.008C146.404 260.356 141.096 260.862 136.953 256.619C138.212 257.056 139.491 257.515 140.788 257.822C143.904 258.561 146.265 257.428 148.894 255.873Z" fill="#C19389"/>
<path d="M201.18 336.616C202.918 331.363 205.546 319.895 210.19 316.968L209.711 318.285C208.666 326.102 206.481 334.347 203.277 341.565C201.436 341.097 199.017 340.77 197.602 339.45C197.148 338.52 196.918 337.874 196.854 336.838C198.344 337.009 199.777 337.304 201.18 336.616Z" fill="#FDDE5B"/>
<path d="M190.809 310.231C193.028 308.424 195.053 306.419 197.102 304.426C195.788 309.854 194.225 315.196 192.648 320.552C187.576 320.372 170.384 318.705 167.264 314.92C166.738 314.282 166.871 313.203 166.993 312.414C167.101 311.714 167.255 311.018 167.403 310.326C175.028 313.145 183.04 311.374 190.809 310.231Z" fill="#6094A1"/>
<path d="M196.396 290.78L200.672 291.718C199.393 295.86 198.61 300.392 197.101 304.426C195.051 306.419 193.027 308.424 190.807 310.231C183.039 311.374 175.027 313.145 167.402 310.326L167.906 303.213C171.038 302.768 174.163 302.277 177.28 301.741C178.988 303.297 181.133 305.634 183.4 306.323C184.972 306.801 186.728 306.671 188.174 305.88C192.772 303.363 194.867 295.434 196.396 290.78Z" fill="#EFF3DF"/>
<path d="M146.34 293.476L146.617 293.836C150.46 298.903 149.568 311.883 152.331 313.198C153.821 312.802 154.649 312.263 155.821 311.312C157.308 307.981 154.632 303.824 154.98 299.997L155.194 299.964C155.647 302.589 156.391 305.254 156.748 307.87C157.208 311.238 157.05 315.473 158.167 318.622C158.705 320.136 159.733 321.387 161.028 322.321C166.302 326.121 178.626 326.547 185.493 329.226C189.578 330.058 198.122 330.982 200.473 335.002C200.77 335.509 200.981 336.064 201.179 336.615C199.776 337.303 198.343 337.009 196.853 336.837C184.278 332.994 165.651 336.576 153.026 339.354C150.314 339.951 146.601 340.466 144.142 341.74C143.425 342.112 143.287 342.15 143.011 342.897C142.685 342.845 142.344 342.62 142.047 342.475C141.803 340.845 142.752 339.082 143.322 337.571C143.92 336.489 144.321 335.255 144.778 334.105C151.378 321.317 150.122 306.761 146.34 293.476Z" fill="#DE6A48"/>
<path d="M150.056 219.53C150.626 220.483 151.634 221.75 151.865 222.813C166.456 243.126 178.335 264.868 195.386 283.458C197.706 285.988 200.901 287.94 200.672 291.718L196.396 290.78C189.53 289.011 182.376 287.958 175.39 286.768C165.909 273.17 158.054 257.848 150.675 243.017C149.373 241.204 148.387 239.028 147.32 237.064C149.604 232.48 149.531 224.679 150.056 219.53Z" fill="#F5AC89"/>
<path d="M150.056 219.53C150.626 220.483 151.634 221.75 151.865 222.813L150.829 222.84C150.401 224.467 150.351 225.615 151.204 227.112C151.311 227.299 151.426 227.479 151.542 227.659L151.727 227.255C153.31 232.414 154.078 236.691 154.034 242.102C152.697 238.657 151.706 235.246 150.875 231.646C148.809 238.446 151.21 238.66 150.675 243.017C149.373 241.204 148.387 239.028 147.32 237.064C149.604 232.48 149.531 224.679 150.056 219.53Z" fill="#C19389"/>
<defs>
<linearGradient id="paint0_linear_120_37457" x1="132.35" y1="96.5654" x2="107.303" y2="82.9875" gradientUnits="userSpaceOnUse">
<stop stop-color="#6B2B27"/>
<stop offset="1" stop-color="#A85646"/>
</linearGradient>
<linearGradient id="paint1_linear_120_37457" x1="64.4679" y1="155.313" x2="61.5356" y2="106.537" gradientUnits="userSpaceOnUse">
<stop stop-color="#320000"/>
<stop offset="1" stop-color="#572828"/>
</linearGradient>
<linearGradient id="paint2_linear_120_37457" x1="95.845" y1="121.212" x2="97.0627" y2="146.344" gradientUnits="userSpaceOnUse">
<stop stop-color="#3C7998"/>
<stop offset="1" stop-color="#6FA3BB"/>
</linearGradient>
<linearGradient id="paint3_linear_120_37457" x1="84.0382" y1="137.485" x2="91.2897" y2="150.13" gradientUnits="userSpaceOnUse">
<stop stop-color="#5D99B4"/>
<stop offset="1" stop-color="#80BACD"/>
</linearGradient>
<linearGradient id="paint4_linear_120_37457" x1="51.6766" y1="109.334" x2="64.7124" y2="99.7999" gradientUnits="userSpaceOnUse">
<stop stop-color="#512423"/>
<stop offset="1" stop-color="#8F4535"/>
</linearGradient>
<linearGradient id="paint5_linear_120_37457" x1="123.21" y1="305.345" x2="148.602" y2="283.187" gradientUnits="userSpaceOnUse">
<stop stop-color="#85312F"/>
<stop offset="1" stop-color="#C65651"/>
</linearGradient>
<linearGradient id="paint6_linear_120_37457" x1="21.1635" y1="3.7449" x2="18.5899" y2="27.153" gradientUnits="userSpaceOnUse">
<stop stop-color="#B15F4C"/>
<stop offset="1" stop-color="#CD7856"/>
</linearGradient>
<linearGradient id="paint7_linear_120_37457" x1="64.6345" y1="181.097" x2="112.919" y2="171.116" gradientUnits="userSpaceOnUse">
<stop stop-color="#184364"/>
<stop offset="1" stop-color="#476A89"/>
</linearGradient>
</defs>
</svg>
