<svg width="1379" height="753" viewBox="0 0 1379 753" fill="none" xmlns="http://www.w3.org/2000/svg">
<path d="M125.17 396.457C129.527 396.162 132.744 395.597 136.582 397.946C143.426 434.347 149.7 471.319 160.452 506.808L142.578 514.744C145.307 522.958 147.931 531.205 150.449 539.486C164.07 539.656 178.285 540.689 191.77 538.594C247.906 529.707 309.153 536.872 366.019 537.214L813.167 539.486C895.616 539.899 978.119 543.989 1060.51 539.227C1074.26 538.432 1092.02 538.376 1103.98 531.021L1111.21 530.449C1143.47 536.485 1187 544.256 1219.14 534.87C1224.92 533.18 1231.32 530.331 1234 524.538C1236.49 519.172 1235.57 514.672 1233.88 509.257C1244.39 516.265 1247.97 526.659 1250.29 538.742C1254.91 562.698 1254.57 591.747 1268.34 612.559C1270.83 610.704 1271.46 608.99 1272.81 606.288C1283.81 612.469 1282.02 630.575 1291.93 631.928L1292.37 634.425C1289.18 647.24 1289.66 663.255 1283.57 674.788L1281.66 675.469L1282.34 681.897C1297.01 683.897 1332.77 684.006 1342.1 696.322C1342.97 697.449 1343.14 698.06 1343.75 699.43C1348.53 704.75 1351.53 708.872 1350.95 716.319C1350.68 720.06 1349.93 723.465 1348.34 726.847C1345.34 732.388 1342.71 734.757 1336.5 736.752C1329.76 738.854 1322.88 740.216 1315.86 740.84C1306.58 742.851 1297.25 743.716 1287.82 744.657C1245.53 742.184 1201.5 744.574 1159.06 745.181L962.869 747.353L449.28 750.99C320.683 751.958 190.335 758.352 63.1252 735.731L45.4687 730.504C37.0947 726.26 28.7352 721.5 25.3203 712.24C25.6562 707.711 25.5354 705.786 28.479 702.073C40.6086 686.78 74.2495 682.835 92.9308 680.736C94.9077 679.938 96.7976 678.558 98.6295 677.455C104.761 663.932 91.8337 633.038 91.5944 616.543L91.8699 610.769C90.2918 606.47 90.1661 600.554 89.5112 595.954C87.0195 579.655 83.9671 563.656 80.3444 547.573C71.0618 514.368 67.8356 480.989 55.5054 448.301L50.7467 431.876C67.0379 421.789 85.7555 414.762 103.373 407.405L125.17 396.457Z" fill="#5F6884"/>
<path d="M1271.92 606.024C1282.84 612.166 1281.07 630.157 1290.9 631.501L1291.34 633.983C1288.17 646.717 1288.65 662.631 1282.6 674.09L1280.71 674.767C1273.41 671.594 1264.75 670.243 1256.97 668.397C1257.55 667.886 1258.12 667.385 1258.68 666.864C1263.72 662.188 1267.05 658.068 1267.22 651.011C1268.04 649.782 1268.4 649.382 1268.95 648.112C1273.34 637.997 1270.87 622.339 1267.48 612.255C1269.95 610.412 1270.58 608.708 1271.92 606.024Z" fill="#488BB3"/>
<path d="M125.02 396.456C129.375 396.162 132.589 395.6 136.425 397.937C143.265 434.146 149.535 470.925 160.281 506.227L142.417 514.122C145.145 522.292 147.767 530.496 150.284 538.734L146.61 548.513C163.422 569.891 180.977 590.643 199.273 610.767C209.925 589.939 218.158 581.895 239.23 571.359C254.482 570.469 268.698 575.706 280.142 585.786C299.59 602.918 311.01 630.48 319.164 654.613L778.954 652.377C858.915 651.651 939.18 647.037 1019.13 650.218C1027.02 650.534 1034.78 650.862 1041.85 654.753C1043.23 657.768 1043.33 657.97 1042.7 661.207C1043.83 660.997 1044.99 660.79 1046.13 660.505C1070.62 654.343 1067.19 613.642 1078.37 595.535C1081.51 590.453 1084.36 587.445 1090.28 585.991L1092.41 589.018L1090.04 596.695C1091.22 601.582 1091.17 604.537 1089.8 609.368C1093.69 620.208 1093.06 631.402 1096.32 642.089C1096.73 642.41 1097.16 642.719 1097.57 643.049C1111.03 653.725 1122.39 643.978 1142.13 642.089C1149.74 641.359 1158.85 676.594 1163.34 670.469C1166.12 666.692 1166.44 665.433 1166.7 660.78C1177.21 663.962 1173.19 643.992 1183.72 638.587C1191.24 634.728 1215.18 652.073 1218.05 644.724C1220.27 649.663 1218.1 654.234 1216.31 658.986C1213.97 665.209 1212.06 671.323 1207.37 676.208C1207.81 678.547 1207.52 680.795 1207.37 683.154C1205.83 684.727 1204.16 686.152 1202.16 687.144C1194.24 691.075 1182.04 691.09 1173.32 691.271C1115.83 692.453 1057.99 691.005 1000.46 690.998L625.368 690.928C554.133 690.916 482.766 690.07 411.544 691.198C355.801 692.084 299.938 694.968 244.188 694.513C229.042 694.39 202.906 696.112 189.122 690.453C185.54 688.984 182.262 685.74 180.977 682.115C177.526 672.387 182.881 662.676 187.003 654.068L181.204 655.872C181.125 656.188 181.084 656.513 180.968 656.817C179.089 661.767 172.958 665.604 168.198 667.211C151.443 672.867 126.578 659.492 111.76 651.931C105.179 637.791 98.5055 623.695 91.7394 609.643C90.1622 605.366 90.0366 599.481 89.3821 594.905C86.8919 578.692 83.8413 562.777 80.2208 546.778C70.9436 513.748 67.7193 480.544 55.3965 448.027L50.6406 431.688C66.9221 421.654 85.6286 414.664 103.236 407.346L125.02 396.456Z" fill="url(#paint0_linear_273_16358)"/>
<path d="M125.024 396.457C129.379 396.162 132.594 395.598 136.43 397.942C143.271 434.254 149.541 471.137 160.287 506.539L142.423 514.456C145.151 522.65 147.773 530.877 150.29 539.138L146.616 548.944C137.944 544.407 130.297 539.692 120.232 539.833C144.488 567.543 169.164 594.555 195.328 620.475C190.019 632.26 184.169 643.967 181.212 656.608C181.133 656.925 181.092 657.252 180.976 657.556C179.096 662.52 172.966 666.368 168.205 667.979C151.449 673.651 126.582 660.239 111.764 652.656C105.182 638.476 98.5084 624.34 91.7419 610.248C90.1647 605.96 90.039 600.057 89.3844 595.469C86.8941 579.209 83.8433 563.25 80.2226 547.205C70.9449 514.081 67.7204 480.783 55.3968 448.174L50.6406 431.789C66.9231 421.727 85.6307 414.717 103.239 407.378L125.024 396.457Z" fill="url(#paint1_linear_273_16358)"/>
<path d="M124.262 396.455C128.571 396.162 131.752 395.601 135.548 397.933C142.317 434.052 148.522 470.74 159.156 505.955L141.478 513.83C144.178 521.98 146.772 530.164 149.263 538.381L145.628 548.135C137.047 543.622 129.479 538.932 119.519 539.072C110.057 528.923 104.461 505.623 101.858 492.077C97.3501 468.625 93.4566 430.215 107.112 409.934L102.704 407.319L124.262 396.455Z" fill="#5D5D67"/>
<path d="M124.5 396.455C128.78 396.162 131.94 395.602 135.709 397.932C142.432 434.031 148.595 470.698 159.156 505.893L141.599 513.764C139.762 490.433 138.568 464.859 131.451 442.421C126.757 427.62 121.416 417.061 107.467 409.926L103.09 407.312L124.5 396.455Z" fill="#919EBF"/>
<path d="M91.8699 609.642C98.64 623.881 105.317 638.164 111.902 652.491C126.729 660.153 151.609 673.705 168.374 667.974C173.137 666.346 179.271 662.458 181.151 657.443C181.267 657.135 181.308 656.805 181.388 656.484L187.191 654.656C183.065 663.379 177.707 673.219 181.161 683.075C182.446 686.749 185.726 690.036 189.31 691.525C203.102 697.258 229.254 695.513 244.409 695.638C300.192 696.1 356.089 693.177 411.864 692.28C483.129 691.136 554.538 691.994 625.815 692.006L1001.13 692.077C1058.69 692.084 1116.57 693.551 1174.09 692.353C1182.82 692.17 1195.02 692.155 1202.95 688.171C1204.95 687.167 1206.62 685.722 1208.17 684.129C1208.31 681.739 1208.6 679.461 1208.17 677.09C1218.61 684.549 1228.11 689.015 1241.06 689.74C1248.38 690.153 1252.27 688.303 1257.54 683.484C1259.6 677.479 1259.79 674.438 1257.76 668.394C1265.59 670.266 1274.31 671.637 1281.66 674.856L1282.34 681.335C1297.01 683.352 1332.77 683.462 1342.1 695.875C1342.97 697.011 1343.14 697.627 1343.75 699.008C1348.53 704.37 1351.53 708.525 1350.95 716.031C1350.68 719.802 1349.93 723.233 1348.34 726.643C1345.34 732.227 1342.71 734.615 1336.5 736.627C1329.76 738.745 1322.88 740.118 1315.86 740.747C1306.58 742.773 1297.25 743.646 1287.82 744.594C1245.53 742.101 1201.5 744.511 1159.06 745.122L962.869 747.312L449.28 750.978C320.683 751.953 190.335 758.398 63.1252 735.598L45.4687 730.328C37.0947 726.051 28.7352 721.254 25.3203 711.92C25.6562 707.354 25.5354 705.414 28.479 701.672C40.6086 686.258 74.2495 682.281 92.9308 680.165C94.9077 679.361 96.7976 677.97 98.6295 676.858C104.761 663.228 91.8337 632.088 91.5944 615.462L91.8699 609.642Z" fill="#192E4B"/>
<path d="M90.7055 609.642C97.4819 623.794 104.166 637.989 110.757 652.227C125.597 659.842 150.501 673.311 167.281 667.615C172.049 665.997 178.189 662.133 180.071 657.148C180.187 656.842 180.228 656.514 180.308 656.196L186.116 654.379C181.987 663.048 176.624 672.828 180.08 682.624C181.367 686.274 184.65 689.542 188.237 691.021C202.043 696.719 228.219 694.985 243.388 695.109C299.224 695.568 355.173 692.663 411.001 691.771C482.333 690.635 553.809 691.487 625.153 691.499L1000.82 691.57C1058.44 691.577 1116.37 693.034 1173.95 691.844C1182.68 691.662 1194.89 691.647 1202.83 687.688C1204.84 686.69 1206.51 685.254 1208.05 683.671C1208.2 681.295 1208.49 679.031 1208.05 676.675C1218.5 684.088 1228.01 688.526 1240.98 689.248C1248.31 689.658 1252.2 687.819 1257.47 683.029C1259.53 677.061 1259.72 674.04 1257.69 668.033C1265.53 669.893 1274.26 671.256 1281.62 674.455L1282.29 680.894C1282 681.732 1281.57 683.122 1281.06 683.948C1269.84 702.165 1229.7 718.648 1209.67 721.449C1141.41 731 1068.72 718.068 999.874 717.268C846.446 714.907 693.009 713.589 539.562 713.312C474.789 714.16 410.026 715.488 345.274 717.295C266.925 718.799 189.024 710.662 111.381 725.42C109.588 713.53 108.761 697.13 102.822 686.634C99.6485 681.025 97.5947 680.974 91.7673 679.731C93.7461 678.932 95.6378 677.549 97.4714 676.444C103.608 662.898 90.6692 631.95 90.4297 615.426L90.7055 609.642Z" fill="url(#paint2_linear_273_16358)"/>
<path d="M206.694 2.8895C211.321 1.79524 214.808 1.50476 219.526 2.14389C227.451 11.9511 230.152 18.6207 231.168 31.1345L236.009 47.3233L222.31 51.1435C246.778 65.5359 374.114 57.0795 405.656 54.356C451.334 46.9867 498.518 54.2228 544.515 54.8596C585.152 55.4212 625.606 52.7364 666.222 52.6589L685.129 52.7268C721.053 59.1107 810.735 56.196 850.306 54.2689C876.56 52.9931 937.367 44.3504 959.978 52.2595C964.307 53.8743 966.29 53.9566 968.95 57.8253C971.32 59.67 973.835 61.1031 976.423 62.6332L980.099 56.6221C990.74 51.5357 1004.57 52.6469 1016.25 51.2549C1000.44 47.9649 984.331 50.284 968.491 47.1538L966.532 46.7495L1086.55 46.2483C1110.25 46.1006 1135.02 44.6336 1158.57 47.04L1165.73 45.6407L1167.57 42.3579L1162.44 33.6837C1163.63 27.4159 1158.31 21.1602 1158.35 14.1686L1162.64 10.1959C1168.39 13.883 1182.18 20.4219 1183.94 27.0335C1184.13 27.7622 1184.13 28.5271 1184.21 29.2752C1189.72 35.1145 1195.16 41.0942 1200.82 46.7858L1202.68 48.8266C1230.25 50.4583 1244.47 72.6825 1268.17 83.3612C1288.05 80.6062 1306.38 77.9335 1321.35 63.5774C1337.53 68.8913 1349.23 78.8534 1356.88 94.282C1374.89 130.652 1366.77 193.903 1353.44 231.643C1351.17 238.095 1347.25 244.653 1346.67 251.456L1347.78 253.775C1346.26 266.195 1344.57 287.126 1339.17 298.054C1340.6 305.06 1341.45 313.865 1337 320.087C1336.56 320.69 1336.08 321.254 1335.62 321.84L1336.3 330.403L1338.55 332.281L1338.13 336.859C1343.43 344.11 1344.23 358.057 1343.07 366.825C1342.63 369.97 1341.69 372.553 1340.19 375.325C1343.94 386.256 1330.47 462.312 1324.62 473.944C1323.82 475.562 1322.83 476.908 1321.59 478.22C1320.19 482.444 1319 484.466 1315.74 487.521C1317.58 500.906 1313.32 525.939 1307.4 538.06L1306.89 539.13C1308.78 548.044 1308.39 556.605 1304.88 565.112C1308.75 582.542 1301.86 615.281 1292.23 630.036C1291.94 630.479 1291.63 630.913 1291.34 631.351C1281.42 630 1283.21 611.923 1272.21 605.752C1270.86 608.449 1270.23 610.16 1267.74 612.012C1253.95 591.234 1254.29 562.231 1249.67 538.312C1247.35 526.249 1243.77 515.87 1233.25 508.874C1234.94 514.28 1235.86 518.773 1233.37 524.13C1230.69 529.914 1224.28 532.758 1218.5 534.446C1186.33 543.817 1142.78 536.058 1110.5 530.033L1103.26 530.604C1091.29 537.946 1073.52 538.002 1059.76 538.796C977.318 543.551 894.76 539.467 812.256 539.055L364.81 536.787C307.907 536.445 246.619 529.292 190.446 538.164C176.951 540.256 162.726 539.225 149.097 539.055C146.577 530.787 143.951 522.553 141.22 514.352L159.106 506.428C148.347 470.996 142.069 434.081 135.22 397.738C131.38 395.392 128.161 395.957 123.801 396.252L101.99 407.182C84.3602 414.528 65.6301 421.543 49.3281 431.614L44.1698 422.049C36.569 366.886 34.2619 311.318 21.5269 256.809C22.0977 239.068 11.9431 193.804 9.27081 172.812L4.7993 151.13C4.08105 129.833 -3.28527 108.222 1.7473 86.9709L8.29131 76.9869C12.9031 72.9948 17.1353 68.4822 21.4689 64.1875L31.9984 53.7241L39.3719 47.8946C46.1457 42.8664 54.0294 38.7773 61.294 34.4511C103.816 18.7175 147.039 10.1402 191.947 4.76814L198.62 2.20432L206.694 2.8895Z" fill="#522C29"/>
<path d="M321.984 472.156C335.125 475.765 348.37 478.94 361.719 481.68L316.867 493.865C315.229 486.737 319.518 478.824 321.984 472.156Z" fill="#8E5441"/>
<path d="M1202.74 435.28C1203.42 435.132 1204.1 434.969 1204.78 434.831C1210.82 433.626 1215.77 433.84 1220.75 437.325C1221.12 440.868 1219.42 444.095 1217.4 446.9C1204.63 464.661 1174.82 477.165 1153.82 479.96C1149.72 481.74 1149.09 481.32 1144.84 480.468C1151.37 468.348 1189.73 442.976 1202.74 435.28Z" fill="#643725"/>
<path d="M1014.77 243.402C1018.21 239.778 1019.42 236.968 1024.69 236.983C1035.42 237.014 1047.29 247.151 1053.98 254.852C1059.56 261.31 1064.21 268.994 1068.88 276.167C1067.36 278.457 1066.33 279.211 1063.9 280.399C1051.09 274.624 997.657 267.256 978.449 262.246C987.018 259.81 995.659 262.309 1004.08 258.734C1009.04 262.054 1013.28 265.739 1019.46 265.729C1020.91 258.797 1016.89 250.257 1014.77 243.402Z" fill="#8F4526"/>
<path d="M397.891 163.612C447.269 163.407 496.635 162.537 545.991 161.003C558.701 170.968 569.502 166.467 584.176 169.703C552.512 170.316 452.614 166.962 432.346 188.139C420.512 181.24 409.096 171.63 397.891 163.612Z" fill="#8B6867"/>
<path d="M148.305 206.987C191.001 200.469 281.439 193.754 320.121 217.049C279.898 224.806 238.563 227.216 197.733 229.747C183.012 218.271 165.722 212.885 148.305 206.987Z" fill="#643725"/>
<path d="M316.727 493.831C309.929 495.156 196.307 456.572 183.86 450.813C172.774 445.682 158.156 440.17 153.73 428.214L156.161 424.889C163.369 422.85 165.869 422.818 173.056 424.624C189.101 428.658 203.651 436.692 219.182 442.158C252.589 453.91 287.445 463.871 321.93 471.912C319.422 478.645 315.061 486.635 316.727 493.831Z" fill="#643725"/>
<path d="M1225.48 461.262C1228.26 461.248 1231.04 461.146 1233.7 460.254C1244.2 456.716 1248.33 445.238 1252.76 435.976C1258.73 450.466 1252.38 472.981 1246.65 486.812C1243.61 494.155 1239 503.631 1233.03 508.979C1234.71 514.417 1235.62 518.938 1233.15 524.327C1230.49 530.145 1224.14 533.007 1218.41 534.704C1186.53 544.132 1143.35 536.326 1111.35 530.264L1104.18 530.839C1105.52 523.815 1105.3 520.257 1103.24 513.416C1110.03 513.363 1117.94 512.569 1124.58 513.643C1155.86 511 1193.43 522.405 1221.38 502.813C1225.67 499.815 1230.59 494.666 1231.19 489.155C1232.1 480.729 1229.63 471.311 1224.04 465.054L1225.48 461.262Z" fill="#488BB3"/>
<path d="M1103.24 514.069C1110.02 514.02 1117.93 513.292 1124.56 514.277L1128.56 518.575C1127.46 522.979 1127.51 523.341 1123.32 525.608C1119.7 527.569 1115.34 528.482 1111.34 529.518L1104.18 530.045C1105.52 523.605 1105.3 520.342 1103.24 514.069Z" fill="#81BBCF"/>
<path d="M119.203 128.77C199.111 129.862 279.018 129.752 358.923 128.441C369.848 141.033 381.902 152.015 394.273 163.152C308.193 165.775 222.094 166.608 135.978 165.653C129.136 189.925 123.425 230.327 106.797 249.646C94.7023 210.162 93.5977 169.797 94.1621 128.82L119.203 128.77Z" fill="#340E0C"/>
<path d="M158.976 506.528C179.243 516.871 202.88 509.513 224.602 513.062L844.909 512.949C916.274 512.676 987.937 507.899 1059.19 508.821C1073.04 509.001 1090.2 508.209 1103.25 513.329C1105.33 520.074 1105.55 523.583 1104.2 530.509C1092.21 537.792 1074.42 537.848 1060.64 538.635C978.108 543.352 895.458 539.301 812.861 538.892L364.912 536.642C307.944 536.303 246.587 529.207 190.351 538.009C176.841 540.083 162.601 539.06 148.956 538.892C146.433 530.691 143.804 522.522 141.07 514.388L158.976 506.528Z" fill="#AFB7D1"/>
<path d="M159.292 506.528C179.916 516.807 203.97 509.494 226.074 513.022C209.471 513.638 174.23 510.029 161.608 519.688C167.565 530.299 177.046 533.707 188.473 537.034C189.388 537.3 190.303 537.56 191.22 537.814C177.472 539.877 162.98 538.86 149.095 538.693C146.527 530.541 143.853 522.424 141.07 514.339L159.292 506.528Z" fill="#8A888D"/>
<path d="M546.195 159.864C589.138 152.376 633.984 163.962 676.898 166.922C698.265 172.981 719.308 177.186 741.248 180.391C766.603 191.465 792.781 200.134 819.293 207.866C783.926 208.14 747.742 209.038 713.053 200.941C670.125 190.921 628.508 171.664 584.265 168.599C569.636 165.35 558.867 169.869 546.195 159.864Z" fill="#8E5441"/>
<path d="M678.223 166.914C739.845 155.267 808.205 164.106 870.549 165.963C952.009 168.109 1033.49 169.74 1114.98 170.857C1149.76 171.317 1213.25 173.35 1244.41 164.859C1252.71 166.752 1258.14 168.916 1263.04 176.54C1273.64 193.065 1272.7 218.136 1268.45 236.467C1266.2 246.245 1262.46 261.093 1253.27 266.49C1252.57 266.899 1251.84 267.265 1251.14 267.65C1248.59 273.568 1246.87 276.042 1240.5 278.38C1217.48 286.818 1090.41 284.734 1064.44 278.992C1066.88 277.809 1067.92 277.058 1069.44 274.778C1064.76 267.635 1060.1 259.984 1054.5 253.553C1047.79 245.885 1035.89 235.791 1025.13 235.76C1019.84 235.745 1018.63 238.543 1015.18 242.152C1016.85 237.326 1017.5 237.161 1015.42 232.231C994.187 218.289 920.094 219.68 891.483 218.548C882.843 223.776 875.381 228.15 865.387 230.072C870.305 224.931 877.034 220.905 882.843 216.774C870.508 210.013 836.98 211.55 820.743 207.329C794.207 199.697 768.007 191.141 742.63 180.21C720.67 177.046 699.608 172.895 678.223 166.914Z" fill="#643725"/>
<path d="M770.655 178.728C816.377 175.672 926.776 168.775 962.172 193.549C944.571 202.346 924.286 199.696 907.289 211.366C898.88 215.634 890.157 213.593 881.987 217.083C869.63 210.415 836.043 211.931 819.776 207.768C793.193 200.24 766.946 191.801 741.523 181.02C751.509 179.272 760.51 178.086 770.655 178.728Z" fill="#8E5441"/>
<path d="M741.523 181.528C751.546 179.805 760.582 178.635 770.765 179.268L772.192 181.914C817.385 190.674 863.095 201.052 907.914 211.446C899.473 215.655 890.717 213.642 882.517 217.083C870.113 210.509 836.399 212.004 820.071 207.899C793.388 200.478 767.042 192.157 741.523 181.528Z" fill="#522C29"/>
<path d="M207.497 2.89136C212.141 1.79521 215.642 1.50424 220.378 2.14447C228.334 11.9686 231.046 18.6497 232.065 31.1852L236.926 47.402L223.173 51.2288C196.162 56.9763 174.407 78.2325 153.737 95.3975C142.402 103.59 122.738 113.935 119.21 128.212L94.0029 128.263C93.4348 169.388 94.5467 209.899 106.722 249.526C113.602 297.087 118.433 347.956 136.049 392.928L135.745 398.423C131.89 396.073 128.659 396.638 124.282 396.934L102.386 407.883C84.6877 415.241 65.8849 422.269 49.5196 432.358L44.3413 422.776C36.7109 367.517 34.3949 311.854 21.6105 257.25C22.1835 239.478 11.9894 194.136 9.3068 173.108L4.81793 151.388C4.0969 130.055 -3.29802 108.406 1.75408 87.1181L8.3235 77.1169C12.9532 73.1179 17.2018 68.5975 21.5523 64.2953L32.1226 53.8139L39.5248 47.9743C46.3249 42.9374 54.2391 38.8413 61.532 34.5076C104.219 18.7467 147.61 10.1546 192.692 4.77326L199.391 2.20501L207.497 2.89136Z" fill="url(#paint3_linear_273_16358)"/>
<path d="M61.4183 35.113C103.823 19.3778 146.926 10.7997 191.711 5.42709C148.593 42.4589 86.0994 37.2607 39.1371 66.8619L21.9273 68.7431L21.7031 64.8522L32.2035 54.3879L39.5567 48.5578C46.3118 43.5291 54.1737 39.4396 61.4183 35.113Z" fill="#AFB7D1"/>
<path d="M207.506 2.89289C212.149 1.79519 215.648 1.50381 220.384 2.14494C228.337 11.9829 231.048 18.6735 232.067 31.2266L236.926 47.4662L223.177 51.2985C196.174 57.0541 174.426 78.3403 153.763 95.5294C142.431 103.733 122.773 114.093 119.246 128.39L94.0469 128.441C133.175 92.4161 181.469 54.6305 207.317 7.38088C208.651 4.94263 208.227 5.34328 207.506 2.89289Z" fill="#5D5D67"/>
<path d="M38.9861 66.2803C50.6627 64.9003 61.7873 62.4434 73.1928 59.6979C43.4567 194.212 27.5517 269.421 59.9696 407.654C76.066 398.901 92.6078 390.829 110.481 386.398L135.645 392.925L135.342 398.42C131.498 396.07 128.277 396.635 123.912 396.931L102.082 407.882C84.4361 415.24 65.6892 422.268 49.3725 432.358L44.2095 422.775C36.6018 367.512 34.2927 311.844 21.5463 257.236C22.1175 239.464 11.9538 194.118 9.27915 173.088L4.80362 151.367C4.08472 130.032 -3.28822 108.381 1.74887 87.0918L8.29877 77.0898C12.9147 73.0905 17.1507 68.5698 21.4882 64.2673L21.7132 68.1647L38.9861 66.2803Z" fill="#5F6884"/>
<path d="M45.2148 422.868C64.7976 414.366 83.8559 402.211 104.304 396.073C111.909 393.788 117.516 393.44 124.793 397.276L102.996 408.12C85.3784 415.406 66.6609 422.367 50.3697 432.358L45.2148 422.868Z" fill="#192E4B"/>
<path d="M21.3121 65.125L21.5353 69.0133C5.09785 103.657 25.2804 184.915 27.1289 226.128C21.8186 209.593 17.968 188.491 9.2031 173.691L4.76425 152.02C4.05125 130.735 -3.26128 109.135 1.73453 87.896L8.23075 77.9175C12.8088 73.9275 17.0101 69.4174 21.3121 65.125Z" fill="#919EBF"/>
<path d="M1163.38 34.3171C1164.56 28.0559 1159.26 21.8069 1159.31 14.8227L1163.57 10.8542C1169.3 14.5373 1183.02 21.0694 1184.78 27.6739C1184.97 28.4019 1184.97 29.166 1185.04 29.9133C1190.53 35.7463 1195.95 41.7198 1201.58 47.4054L1203.43 49.4439C1230.88 51.0739 1245.03 73.2745 1268.62 83.9419C1288.41 81.1898 1306.66 78.52 1321.56 64.1791C1337.67 69.4874 1349.32 79.4389 1356.92 94.8511C1374.86 131.182 1366.77 194.367 1353.51 232.067C1351.24 238.512 1347.34 245.063 1346.76 251.859L1347.87 254.175C1346.36 266.582 1344.67 287.491 1339.3 298.407C1340.72 305.406 1341.57 314.202 1337.14 320.417C1336.7 321.019 1336.22 321.583 1335.76 322.168L1336.44 330.721L1338.68 332.598L1338.27 337.171C1343.54 344.414 1344.33 358.346 1343.18 367.106C1342.74 370.247 1341.81 372.828 1340.31 375.597C1344.04 386.516 1330.64 462.491 1324.81 474.111C1324.02 475.727 1323.03 477.071 1321.8 478.382C1320.41 482.602 1319.23 484.621 1315.98 487.673C1317.81 501.044 1313.57 526.05 1307.67 538.159L1307.17 539.228C1309.04 548.132 1308.66 556.684 1305.17 565.182C1309.02 582.594 1302.16 615.298 1292.58 630.038C1292.29 630.48 1291.97 630.913 1291.69 631.351C1281.82 630.001 1283.6 611.943 1272.64 605.779C1271.3 608.473 1270.67 610.183 1268.19 612.033C1254.47 591.276 1254.81 562.304 1250.21 538.411C1247.9 526.36 1244.33 515.992 1233.86 509.003C1239.86 503.693 1244.48 494.283 1247.54 486.991C1253.29 473.257 1259.67 450.9 1253.67 436.51C1249.22 445.707 1245.08 457.105 1234.54 460.619C1231.86 461.504 1229.07 461.606 1226.28 461.62L1224.84 465.386C1225.92 459.579 1219.95 453.792 1220.98 447.959C1222.81 437.734 1231.72 426.203 1235.14 415.911C1249.22 373.568 1264.1 312.569 1251.56 268.267C1252.25 267.883 1252.98 267.517 1253.67 267.109C1262.85 261.716 1266.58 246.882 1268.82 237.111C1273.05 218.797 1273.99 193.748 1263.42 177.238C1258.54 169.62 1253.12 167.458 1244.84 165.567C1246.57 151.023 1231.41 137.468 1223.22 126.713L1221.54 126.067C1228.95 124.718 1237.09 123.934 1242.38 118.319C1239.47 111.712 1231.31 106.29 1226.3 100.945C1233.79 70.7885 1178.64 63.0037 1172.04 42.762C1170.12 36.8249 1168.82 37.0667 1163.38 34.3171Z" fill="url(#paint4_linear_273_16358)"/>
<path d="M1296.76 128.718C1307.11 120.94 1313.57 114.585 1327.05 115.968C1331.6 118.918 1331.72 118.681 1332.93 124.02C1330.88 129.297 1328.61 132.396 1323.34 134.567C1318.06 136.744 1311.08 137.428 1305.45 137.486C1304.05 133.446 1300.03 131.16 1296.76 128.718Z" fill="#5D5D67"/>
<path d="M1314.68 361.806C1319.71 365.757 1322.55 367.474 1323.71 374.304C1324.71 380.042 1321.36 386.347 1317.81 390.608C1313.93 395.294 1309.39 398.313 1303.65 400.213C1294.77 405.424 1285.76 410.771 1275.17 408.154C1273.11 407.644 1271.62 405.575 1270.12 404.086L1269.63 402.037C1287.7 394.797 1302.22 376.484 1314.68 361.806Z" fill="#373338"/>
<path d="M1202.71 48.8438C1230.14 50.473 1244.29 72.6637 1267.87 83.3263C1276.03 96.6794 1290.97 113.799 1295.3 128.281C1298.67 130.739 1302.81 133.04 1304.25 137.109C1307.04 138.605 1310.1 140.193 1311.69 143.089C1318.45 155.441 1312.72 179.609 1309.64 193.049C1304.81 214.007 1298.74 241.286 1279.73 253.264C1281.88 250.772 1283.97 248.26 1285.85 245.579C1299.03 226.87 1301.2 191.838 1297.37 170.283C1288.49 119.997 1242.44 76.9858 1202.71 48.8438Z" fill="#488BB3"/>
<path d="M1223.17 126.853C1239.43 126.259 1258.51 126.003 1271.24 137.962C1283.58 149.586 1283.92 170.344 1284.09 186.306C1284.62 242.452 1266.87 298.539 1256.09 353.3C1250.61 381.225 1247.81 410.686 1239.55 437.921C1237.08 446.023 1234.67 452.963 1228.56 459.059C1227.11 460.495 1227.52 460.119 1226.24 461.161L1224.79 464.92C1225.87 459.124 1219.88 453.347 1220.92 447.525C1222.76 437.318 1231.7 425.808 1235.13 415.534C1249.26 373.266 1264.19 312.377 1251.6 268.154C1252.3 267.77 1253.03 267.405 1253.73 266.997C1262.93 261.614 1266.67 246.806 1268.92 237.054C1273.17 218.772 1274.11 193.768 1263.51 177.287C1258.61 169.683 1253.17 167.525 1244.86 165.637C1246.6 151.119 1231.38 137.588 1223.17 126.853Z" fill="#340E0C"/>
<path d="M1313.9 362.835C1322.66 352.006 1330.01 343.609 1336.55 331.052L1338.8 332.927L1338.39 337.495C1343.68 344.73 1344.48 358.647 1343.32 367.396C1342.89 370.534 1341.94 373.112 1340.44 375.878C1344.19 386.785 1330.72 462.677 1324.86 474.284C1324.06 475.898 1323.07 477.241 1321.84 478.55C1320.43 482.766 1319.25 484.783 1315.98 487.831C1317.82 501.188 1313.56 526.166 1307.64 538.262L1307.13 539.329C1309.02 548.224 1308.63 556.766 1305.12 565.255C1308.99 582.648 1302.1 615.315 1292.47 630.039C1292.18 630.481 1291.86 630.913 1291.57 631.351C1281.65 630.003 1283.44 611.965 1272.44 605.807C1271.08 608.498 1270.45 610.206 1267.96 612.054C1254.17 591.32 1254.51 562.38 1249.89 538.513C1247.57 526.475 1243.98 516.119 1233.46 509.138C1239.48 503.833 1244.13 494.433 1247.2 487.15C1252.98 473.431 1259.4 451.098 1253.37 436.725C1253.59 436.449 1253.81 436.169 1254.02 435.896C1262.37 425.695 1261.62 412.425 1269.02 402.112L1269.51 404.113C1271.01 405.567 1272.48 407.586 1274.54 408.084C1285.09 410.64 1294.06 405.42 1302.92 400.332C1308.63 398.477 1313.15 395.53 1317.02 390.954C1320.56 386.794 1323.89 380.639 1322.9 375.037C1321.74 368.37 1318.91 366.693 1313.9 362.835Z" fill="#5D5D67"/>
<path d="M1314.24 362.835C1322.9 352.006 1330.17 343.609 1336.63 331.052L1338.85 332.927L1338.45 337.495C1343.69 344.73 1344.47 358.647 1343.33 367.396C1342.9 370.534 1341.96 373.112 1340.48 375.878C1344.19 386.785 1330.87 462.677 1325.08 474.284C1324.29 475.898 1323.31 477.241 1322.09 478.55C1320.7 482.766 1319.53 484.783 1316.3 487.831C1318.12 501.188 1313.91 526.166 1308.05 538.262L1307.55 539.329C1309.41 548.224 1309.03 556.766 1305.56 565.255C1309.39 582.648 1302.57 615.315 1293.05 630.039C1292.77 630.481 1292.46 630.913 1292.17 631.351C1282.36 630.003 1284.13 611.965 1273.25 605.807C1277.1 595.265 1280.33 582.58 1281.48 571.41C1281.88 571.076 1282.31 570.762 1282.72 570.41C1297.62 557.036 1308.29 457.379 1309.87 433.69C1310.7 420.899 1312.09 410.381 1303.39 400.332C1309.03 398.477 1313.5 395.53 1317.33 390.954C1320.82 386.794 1324.12 380.639 1323.14 375.037C1321.99 368.37 1319.19 366.693 1314.24 362.835Z" fill="#5F6884"/>
<path d="M1313.54 362.769C1322.27 351.962 1329.6 343.583 1336.12 331.052L1338.36 332.923L1337.95 337.481C1342.29 356.759 1304.63 547.359 1290.91 568.436C1289.39 570.791 1288.08 571.979 1285.74 573.462L1280.48 570.906C1280.89 570.574 1281.33 570.26 1281.74 569.909C1296.77 556.563 1307.53 457.114 1309.12 433.476C1309.96 420.711 1311.36 410.215 1302.58 400.187C1308.28 398.336 1312.79 395.395 1316.65 390.829C1320.17 386.678 1323.5 380.535 1322.51 374.945C1321.35 368.292 1318.53 366.619 1313.54 362.769Z" fill="#488BB3"/>
<path d="M1163.13 34.3715C1168.59 37.0956 1169.9 36.856 1171.84 42.7377C1178.46 62.7907 1233.87 70.5028 1226.35 100.379C1231.38 105.673 1239.58 111.045 1242.5 117.59C1237.18 123.153 1229.01 123.929 1221.56 125.266C1169.97 126.191 1118.17 123.333 1066.53 123.244L693.925 123.642C582.718 123.695 470.872 122.921 359.766 127.377C279.635 128.677 199.502 128.786 119.367 127.703C122.881 113.599 142.471 103.378 153.763 95.2851C174.354 78.3276 196.026 57.3283 222.935 51.6502C247.405 65.8933 374.749 57.5247 406.293 54.8294C451.974 47.5365 499.161 54.6976 545.161 55.3277C585.801 55.8835 626.258 53.2266 666.877 53.1499L685.785 53.2171C721.711 59.5348 811.399 56.6503 850.973 54.7432C877.228 53.4806 938.039 44.9276 960.652 52.7547C964.981 54.3527 966.964 54.4342 969.625 58.2627C971.995 60.0883 974.51 61.5065 977.098 63.0207L980.774 57.0719C991.415 52.0383 1005.25 53.1381 1016.93 51.7605C1001.11 48.5046 985.006 50.7997 969.165 47.7019L967.206 47.3018L1087.24 46.8058C1110.94 46.6597 1135.7 45.2079 1159.26 47.5893L1166.42 46.2045L1168.26 42.9557L1163.13 34.3715Z" fill="#5F6884"/>
<path d="M459.041 99.4965C483.872 103.794 511.802 101.355 535.344 109.844C503.778 116.969 462.196 113.735 430.445 108.624L448.418 103.801L459.041 99.4965Z" fill="#8A888D"/>
<path d="M960.753 52.4618C965.215 54.1098 967.259 54.1938 970.001 58.142C971.971 65.196 971.671 67.763 968.156 74.3129C963.071 83.7881 953.824 93.2115 945.822 100.345C943.978 101.382 942.1 102.369 940.189 103.304C934.979 105.862 929.894 107.895 924.236 105.973C922.89 90.175 952.577 72.3091 958.46 56.4792C958.684 55.8664 958.884 55.2438 959.108 54.6261L960.753 52.4618Z" fill="#5D5D67"/>
<path d="M1162.25 34.3715C1167.72 37.1343 1169.03 36.8914 1170.96 42.8568C1177.6 63.195 1233.05 71.017 1225.53 101.318L1226.13 105.023C1224.99 106.933 1224.92 108.202 1222.67 108.826C1198.1 115.683 1127.37 111.735 1105.05 99.0653C1110.01 97.6487 1115.58 94.949 1119.74 91.8849C1124.56 88.3372 1126.76 85.5745 1127.9 79.7889C1123.98 75.4977 1122.55 75.7578 1117.03 74.5671C1129.89 72.1032 1143.39 68.5166 1154.55 61.4844C1158.57 58.9549 1162.95 55.7329 1164.02 50.9095L1158.38 47.7774L1165.54 46.3729L1167.38 43.0779L1162.25 34.3715Z" fill="#5F6884"/>
<path d="M153.73 95.7135C174.348 78.9049 196.048 58.09 222.99 52.4618C247.492 66.5798 374.998 58.2847 406.583 55.613L408.353 59.0114C427.27 71.2225 443.558 83.5143 459.383 99.4182L448.832 103.676L430.983 108.447C403.65 110.632 372.555 115.472 345.755 108.646C316.626 101.228 299.931 72.5904 269.235 70.8521C228.996 68.5723 192.795 101.308 153.73 95.7135Z" fill="#919EBF"/>
<path d="M407.829 57.8889C426.941 70.2533 443.395 82.6996 459.383 98.8032L448.724 103.115C435.53 95.5617 418.892 87.9007 410.178 75.1611C406.092 69.1881 406.567 64.6146 407.829 57.8889Z" fill="#5F6884"/>
<path d="M966.946 48.0911L1087.04 47.6002C1110.75 47.4556 1135.53 46.0189 1159.1 48.3756L1164.73 51.4317C1163.67 56.1381 1159.29 59.2819 1155.27 61.7501C1144.12 68.6116 1130.62 72.1113 1117.77 74.5154C1123.28 75.6772 1124.71 75.4234 1128.63 79.6105C1127.49 85.2558 1125.29 87.9515 1120.48 91.4131C1116.32 94.4028 1110.75 97.037 1105.79 98.4193C1105.6 98.4643 1105.4 98.5047 1105.21 98.5521C1095.6 100.852 1087.35 99.4791 1077.7 98.0779L1077.45 102.623C1076.03 103.472 1075.3 103.991 1073.83 104.596C1047.86 115.265 972.173 109.669 945.895 99.4364C953.662 92.5915 962.639 83.5487 967.575 74.4561C970.987 68.1707 971.278 65.7073 969.366 58.9382C971.737 60.7449 974.254 62.1484 976.843 63.6468L980.521 57.7598C991.168 52.7785 1005.01 53.8668 1016.7 52.5035C1000.87 49.2813 984.755 51.5527 968.906 48.487L966.946 48.0911Z" fill="#919EBF"/>
<path d="M1117.77 74.1701C1123.25 75.3346 1124.67 75.0803 1128.56 79.2771C1127.43 84.9354 1125.25 87.6373 1120.46 91.1069C1116.33 94.1036 1110.8 96.7439 1105.88 98.1293C1105.68 98.1745 1105.49 98.215 1105.3 98.2625C1095.76 100.568 1087.56 99.1917 1077.98 97.7872C1077.95 97.2762 1077.9 96.7654 1077.93 96.2568C1079.08 82.1075 1108.11 81.2305 1117.77 74.1701Z" fill="#192E4B"/>
<path d="M406.934 55.66C452.444 48.488 499.456 55.5305 545.285 56.1501C585.775 56.6967 626.081 54.0838 666.549 54.0084L667.855 70.6426L678.223 106.043L677.572 109.12C634.302 105.054 573.139 117.518 534.874 109.276C511.61 100.945 484.009 103.338 459.47 99.121C443.724 83.3421 427.518 71.1468 408.695 59.0317L406.934 55.66Z" fill="#AFB7D1"/>
<path d="M686.229 52.6111C722.06 59.0014 811.508 56.0838 850.977 54.1548C877.162 52.8777 937.811 44.2264 960.363 52.1434L958.771 54.2662C937.714 67.3473 923.555 86.3292 908.697 105.745C842.211 106.22 775.986 101.744 709.64 109.094C698.918 110.637 689.109 110.848 678.406 109.227L679.057 106.062L668.678 69.6518L667.371 52.5432L686.229 52.6111Z" fill="#AFB7D1"/>
<path d="M667.371 52.4618L685.929 52.5298C691.531 72.6765 695.317 92.8474 708.969 109.092C698.417 110.638 688.763 110.849 678.231 109.225L678.872 106.056L668.658 69.5945L667.371 52.4618Z" fill="#919EBF"/>
<path d="M667.371 70.5521C674.187 70.8916 678.411 70.9591 683.744 75.6788C687.137 80.9813 688.028 84.8822 686.633 91.0588C685.329 96.8452 682.013 102.271 678.106 106.733L667.371 70.5521Z" fill="#5F6884"/>
<path d="M236.157 48.4464C236.46 48.3758 236.762 48.3029 237.067 48.2394C237.575 48.1336 238.085 48.0443 238.59 47.9385C281.539 38.98 352.382 46.2573 398.947 45.3473L400.105 45.5919C427.857 51.7758 489.884 47.4329 520.098 47.2918C564.759 47.0825 612.661 50.0758 657.012 45.4649C680.106 46.3396 705.608 47.7104 728.569 45.4579C805.85 48.0866 884.091 47.8233 961.435 47.5811L966.707 47.8891L968.666 48.2817C984.506 51.322 1000.61 49.0695 1016.43 52.2649C1004.75 53.6169 990.915 52.5376 980.274 57.4777L976.598 63.316C974.01 61.83 971.495 60.4381 969.125 58.6464C966.465 54.889 964.482 54.809 960.153 53.2407C937.54 45.559 876.732 53.9532 850.477 55.1923C810.904 57.0639 721.219 59.8949 685.294 53.6945L666.386 53.6286C625.769 53.7038 585.313 56.3114 544.674 55.7659C498.675 55.1475 451.49 48.1194 405.81 55.2768C374.267 57.9221 246.927 66.1353 222.457 52.1567L236.157 48.4464Z" fill="#FEFEFE"/>
<path d="M1162.93 11.1972C1194.36 4.03815 1268.27 -8.98452 1297.14 9.39316C1299.45 10.8572 1301.23 12.619 1302.19 15.2221C1282.01 23.6392 1237.9 -2.34664 1193.3 23.2099L1191.86 28.6716L1184.38 30.7535C1184.31 29.9867 1184.31 29.2026 1184.12 28.4557C1182.36 21.6789 1168.65 14.9764 1162.93 11.1972Z" fill="#FEFEFE"/>
<path d="M1318.46 37.9896C1343.25 50.2487 1362.85 69.0199 1372.16 95.9573C1384.83 132.538 1375.85 208.56 1359.66 243.273C1356.99 248.964 1353.44 252.352 1347.9 255.073L1346.8 252.746C1347.37 245.92 1351.23 239.34 1353.47 232.867C1366.59 195.002 1374.59 131.539 1356.85 95.0488C1349.32 79.5689 1337.8 69.5736 1321.87 64.242L1325.73 58.5946C1326.2 50.868 1321.94 44.5478 1318.46 37.9896Z" fill="#81BBCF"/>
<path d="M1193.6 22.0903C1238.43 -2.71279 1282.77 22.5069 1303.06 14.338C1310.26 17.9191 1315.46 23.3667 1318.12 31.0154C1319.09 33.8042 1318.84 34.6207 1318.29 37.5058C1321.82 44.0082 1326.15 50.2745 1325.66 57.9353L1321.75 63.5347C1306.78 77.8159 1288.45 80.4746 1268.58 83.2153C1244.88 72.5923 1230.66 50.4841 1203.1 48.8609L1201.24 46.8308C1195.58 41.1689 1190.14 35.2203 1184.63 29.4115L1192.15 27.3909L1193.6 22.0903Z" fill="#919EBF"/>
<path d="M1193.77 23.5174C1203.98 26.7521 1212.04 29.8608 1217.18 39.3245C1216.64 41.2337 1216.79 43.3445 1214.89 44.3632C1210.26 46.8241 1206.79 47.037 1201.55 47.0347C1195.78 41.6527 1190.24 35.9982 1184.63 30.4766L1192.29 28.5559L1193.77 23.5174Z" fill="#81BBCF"/>
<defs>
<linearGradient id="paint0_linear_273_16358" x1="756.972" y1="514.598" x2="770.419" y2="762.477" gradientUnits="userSpaceOnUse">
<stop stop-color="#667DA8"/>
<stop offset="1" stop-color="#779BCD"/>
</linearGradient>
<linearGradient id="paint1_linear_273_16358" x1="940.833" y1="746.159" x2="899.724" y2="19.5749" gradientUnits="userSpaceOnUse">
<stop stop-color="#6A6B7F"/>
<stop offset="1" stop-color="#8285A2"/>
</linearGradient>
<linearGradient id="paint2_linear_273_16358" x1="644.713" y1="1461.75" x2="1588.26" y2="681.878" gradientUnits="userSpaceOnUse">
<stop stop-color="#46406F"/>
<stop offset="1" stop-color="#576F90"/>
</linearGradient>
<linearGradient id="paint3_linear_273_16358" x1="252.253" y1="353.673" x2="1162.58" y2="341.357" gradientUnits="userSpaceOnUse">
<stop stop-color="#7A87A3"/>
<stop offset="1" stop-color="#9AA8C5"/>
</linearGradient>
<linearGradient id="paint4_linear_273_16358" x1="-313.735" y1="242.228" x2="238.764" y2="1023.52" gradientUnits="userSpaceOnUse">
<stop stop-color="#29456C"/>
<stop offset="1" stop-color="#6A7089"/>
</linearGradient>
</defs>
</svg>
