<svg width="261" height="144" viewBox="0 0 261 144" fill="none" xmlns="http://www.w3.org/2000/svg">
<path d="M0 0H126.873H147.641H260.493C260.731 0.378103 260.812 0.693828 260.833 1.13536C260.973 4.05216 260.863 7.0229 260.865 9.94419V26.5606C260.864 28.9919 261.22 35.4866 260.78 37.5672C260.742 37.7441 260.678 37.911 260.603 38.0747L260.593 38.6856C260.766 39.1045 260.828 39.4624 260.841 39.913C261.09 48.9106 260.983 142.936 260.683 143.667C260.633 143.788 260.569 143.894 260.493 144H0V0ZM126.873 0C126.852 0.622605 126.823 1.07499 127.09 1.65384C127.122 1.72472 127.149 1.7982 127.179 1.87022C127.26 2.06364 127.218 2.0802 127.144 2.28415C126.438 2.32323 125.688 2.31443 124.995 2.45873C120.116 2.42254 115.374 3.09511 110.534 3.54398C104.992 4.05799 99.4261 4.13646 93.8796 4.75769C89.6308 5.23354 85.4382 6.23954 81.1887 6.76339C73.3446 7.73034 57.5279 8.27575 51.133 11.8822L50.5125 12.2302C52.8132 15.222 56.5235 33.8699 56.5952 38.6899L56.8166 39.0283C56.4698 40.1011 55.4244 44.9796 55.7594 45.8719C56.4423 46.4277 57.7811 46.5369 57.8727 47.5315C57.959 48.47 56.487 52.7183 56.1649 53.9508C54.0103 62.1958 52.1633 70.7983 54.922 79.1661C55.5195 80.9785 56.3933 83.0359 57.8261 84.3567C58.4198 84.9046 59.1714 85.3639 59.8343 85.8273C61.4936 87.2268 63.1704 88.8621 64.9829 90.0521C69.6867 93.1415 75.0367 94.277 80.3854 95.6748C82.6183 96.2582 84.8215 96.9592 87.0545 97.5393C86.5278 96.792 84.6539 94.608 84.6985 93.8177C88.4842 97.8521 92.6719 101.127 97.0132 104.531C99.4261 106.423 101.851 108.502 104.557 109.962C109.146 111.18 113.454 113.022 118.147 113.994C121.896 114.78 125.673 115.405 129.476 115.868C132.686 116.268 135.978 116.53 139.151 117.146C141.059 116.754 142.999 116.391 144.805 115.644C147.503 114.24 150.079 112.949 153.142 112.595C160.361 111.495 170.102 102.766 174.679 97.421C177.34 94.3142 186.551 81.3128 186.266 77.6062L186.863 77.4322L187.138 77.6474C187.385 78.5918 187.062 79.6806 186.863 80.6125C185.84 85.4069 183.803 89.5217 181.353 93.7299C177.138 100.97 170.355 106.996 163.25 111.288C160.326 113.054 157.235 114.56 154.235 116.191C152.093 117.357 149.576 119.397 147.247 120.012C156.327 119.886 166.92 119.395 175.667 116.949C185.291 114.257 195.226 104.064 200.024 95.4993C201.846 92.2452 203.611 88.9415 205.034 85.4897C207.844 78.6709 212.422 63.6312 213.261 56.4984C213.515 54.3386 213.553 52.0366 212.952 49.9279C211.558 45.0281 207.773 45.5244 204.112 43.4523C202.106 42.3173 201.76 40.6279 201.188 38.5591C201.287 38.5128 201.381 38.4637 201.471 38.4042C204.555 36.3861 209.882 22.08 210.66 18.1365C211.351 18.4832 211.598 18.8777 211.838 19.6059C212.262 20.8902 212.328 22.7626 211.731 23.997C212.1 25.3858 211.515 26.8922 210.825 28.0883C209.586 30.2374 207.822 31.9322 207.105 34.3652C213.84 36.1837 234.293 41.6732 237.815 47.8191C238.024 48.184 238.107 48.3964 238.074 48.8128C238.709 49.0882 239.428 49.4163 240.124 49.169C240.629 48.99 240.945 48.6542 241.177 48.1869C246.576 45.799 249.6 42.7086 253.579 38.5566C255.15 38.4679 256.706 38.3398 257.973 39.4716C258.559 39.9954 258.876 40.7046 259.167 41.4197C259.199 41.4002 259.231 41.3815 259.261 41.361C260.117 40.7887 260.416 39.6417 260.593 38.6856L260.603 38.0747C260.678 37.911 260.742 37.7441 260.78 37.5672C261.22 35.4866 260.864 28.9919 260.865 26.5606V9.94419C260.863 7.0229 260.973 4.05216 260.833 1.13536C260.812 0.693828 260.731 0.378103 260.493 0H147.641H126.873ZM0 0V144H260.493C260.569 143.894 260.633 143.788 260.683 143.667C260.983 142.936 261.09 48.9106 260.841 39.913C260.828 39.4624 260.766 39.1045 260.593 38.6856C260.416 39.6417 260.117 40.7887 259.261 41.361C259.231 41.3815 259.199 41.4002 259.167 41.4197C258.876 40.7046 258.559 39.9954 257.973 39.4716C256.706 38.3398 255.15 38.4679 253.579 38.5566C249.6 42.7086 246.576 45.799 241.177 48.1869C240.945 48.6542 240.629 48.99 240.124 49.169C239.428 49.4163 238.709 49.0882 238.074 48.8128C240.197 53.6091 237.437 85.0982 236.55 92.1559C236.268 94.2828 235.905 96.3956 235.462 98.4943C235.266 99.4386 234.801 100.625 234.792 101.561C232.677 102.175 230.463 104.296 229.077 105.924C229.839 106.492 230.813 107.249 230.959 108.253C230.963 108.282 230.962 108.311 230.964 108.341C230.855 108.967 230.689 109.35 230.142 109.738C230.062 109.795 229.979 109.848 229.895 109.898C230.344 111.088 229.885 112.526 229.389 113.638C227.711 117.401 222.94 121.634 222.423 125.57C222.409 125.676 222.419 125.632 222.385 125.731C221.669 126.459 219.532 127.108 218.532 127.508C212.228 130.026 205.483 131.593 198.961 133.438C185.512 137.241 172.078 139.627 158.207 141.226C151.98 141.943 145.601 142.778 139.346 143.078C136.987 143.185 134.628 143.259 132.267 143.301C129.907 143.343 127.546 143.352 125.185 143.328C122.825 143.305 120.465 143.249 118.105 143.16C115.746 143.071 113.388 142.95 111.032 142.796C108.677 142.642 106.324 142.455 103.973 142.236C101.622 142.018 99.2745 141.767 96.9306 141.482C94.5868 141.199 92.2473 140.883 89.9123 140.534C87.5773 140.186 85.2475 139.806 82.9229 139.393C80.598 138.98 78.2793 138.535 75.9668 138.058C73.6544 137.581 71.3489 137.073 69.0505 136.532C66.752 135.991 64.4613 135.419 62.1786 134.815C59.8958 134.211 57.6218 133.576 55.3566 132.91C53.0913 132.242 50.8356 131.545 48.5895 130.816C46.3434 130.086 44.1077 129.326 41.8825 128.536C39.6573 127.745 37.4434 126.924 35.2408 126.071C33.0382 125.219 30.8477 124.337 28.6693 123.425C27.7405 121.111 27.3786 118.554 27.1473 116.084C25.7785 117.022 24.6951 118.396 23.4909 119.534C22.7956 120.19 21.4466 121.593 20.4324 121.563C19.9094 120.91 19.8521 117.759 19.7404 116.825C17.146 116.642 14.0296 116.225 11.7808 114.825C10.3646 113.944 9.84149 113.019 9.47026 111.416C9.19034 109.018 8.82374 106.557 8.25506 104.209C7.74383 102.098 7.05027 100.004 6.6445 97.872C4.2127 91.8927 2.38973 72.0392 2.48671 64.9173C2.07458 62.629 2.14078 60.0634 1.9456 57.7315C1.74327 55.314 1.33025 52.9207 1.11893 50.5059C0.938127 48.4397 0.945037 46.333 0.899668 44.259C0.848205 43.4155 0.802526 42.5717 0.762631 41.7276C0.706861 40.4524 0.499758 39.0266 1.42546 38.0129C4.80531 34.1645 28.6923 23.5993 34.6486 21.0702C38.0576 19.6227 44.0845 17.518 46.9389 15.524C48.2173 14.5156 49.1892 13.1925 50.5125 12.2302L51.133 11.8822C57.5279 8.27575 73.3446 7.73034 81.1887 6.76339C85.4382 6.23954 89.6308 5.23354 93.8796 4.75769C99.4261 4.13646 104.992 4.05799 110.534 3.54398C115.374 3.09511 120.116 2.42254 124.995 2.45873C125.688 2.31443 126.438 2.32323 127.144 2.28415C127.218 2.0802 127.26 2.06364 127.179 1.87022C127.149 1.7982 127.122 1.72472 127.09 1.65384C126.823 1.07499 126.852 0.622605 126.873 0H0Z" fill="url(#paint0_linear_273_16351)"/>
<path d="M144.805 115.644C147.503 114.24 150.079 112.949 153.142 112.595C152.794 113.378 150.744 114.19 149.961 114.491C148.279 115.139 146.608 115.541 144.805 115.644Z" fill="#644A49"/>
<path d="M104.557 109.962C109.146 111.18 113.454 113.022 118.147 113.994C121.896 114.78 125.673 115.405 129.476 115.868C132.686 116.268 135.978 116.53 139.151 117.146C137.235 117.668 135.421 117.971 133.438 118.084C124.49 118.596 111.354 116.033 104.557 109.962Z" fill="#644A49"/>
<path d="M20.1741 50.2975C20.8926 50.331 22.6998 50.1112 23.1297 50.5521C23.2327 51.2467 23.2309 52.0241 23.4934 52.6762C23.6127 55.3826 23.236 58.2053 23.1711 60.9253C23.0768 64.8771 23.2783 68.8298 23.4972 72.7743C24.0199 82.1926 25.5945 91.5037 26.1499 100.906C20.753 103.539 16.2137 107.471 11.0223 110.416C11.0219 110.387 11.0204 110.358 11.0209 110.329C11.0822 106.303 20.4155 100.17 23.1977 97.4185L21.7633 68.4503C21.4555 62.5339 21.3869 56.087 20.1741 50.2975Z" fill="#7A6D7F"/>
<path d="M31.8528 104.862C35.304 106.477 38.7368 108.379 42.2826 109.755C46.7179 111.477 51.396 112.731 55.9587 114.072C64.1947 116.575 72.5313 118.676 80.9686 120.375C89.4059 122.074 97.905 123.364 106.466 124.246C112.315 124.79 118.155 124.816 124.014 125.11C123.521 126.766 123.062 128.162 121.433 129.04C119.639 130.005 117.399 129.99 115.464 130.617C111.283 130.518 107.024 129.808 102.861 129.369C76.9281 126.634 53.1838 119.81 29.3046 109.407C30.0718 107.853 30.9869 106.363 31.8528 104.862Z" fill="#B6908F"/>
<path d="M124.014 125.11C126.794 124.951 129.641 125.057 132.43 125.015C136.959 124.945 141.483 124.766 146.003 124.479C167.693 123.12 192.204 118.925 212.779 111.886C217.226 110.364 221.354 108.129 225.727 106.464C226.75 106.074 228.036 105.455 229.077 105.924C229.839 106.492 230.813 107.249 230.959 108.253C230.963 108.282 230.962 108.311 230.964 108.341C230.855 108.967 230.689 109.35 230.142 109.738C230.062 109.795 229.979 109.848 229.895 109.898C228.368 112.181 221.436 114.276 218.752 115.239C205.45 120.014 192.526 123.882 178.651 126.627C174.49 127.457 170.311 128.179 166.113 128.795C161.916 129.411 157.706 129.92 153.482 130.321C149.259 130.722 145.028 131.015 140.79 131.201C136.552 131.387 132.312 131.464 128.07 131.433C123.908 131.368 119.567 131.321 115.464 130.617C117.399 129.99 119.639 130.005 121.433 129.04C123.062 128.162 123.521 126.766 124.014 125.11Z" fill="url(#paint1_linear_273_16351)"/>
<path d="M1.42546 38.0129C4.80531 34.1645 28.6923 23.5993 34.6486 21.0702C38.0576 19.6227 44.0845 17.518 46.9389 15.524C46.1469 17.0153 45.3264 18.1927 44.1951 19.4456C46.1138 22.3287 52.9133 32.5134 52.3434 35.5529C52.2759 35.9134 51.9272 36.2394 51.6335 36.4315C51.4194 36.5714 51.1947 36.6978 50.9717 36.8228C44.5628 38.6069 38.7964 41.2236 33.0056 44.4978C29.946 46.2277 27.0013 48.1717 23.8189 49.6688L23.7671 49.6927C23.7009 50.6851 23.666 51.6961 23.4934 52.6762C23.2309 52.0241 23.2327 51.2467 23.1297 50.5521C22.6998 50.1112 20.8926 50.331 20.1741 50.2975C15.83 48.9943 2.94483 39.9468 1.24108 40.2718C0.522501 41.3218 1.59433 43.2549 0.942519 44.2038C0.929328 44.223 0.913949 44.2406 0.899668 44.259C0.848205 43.4155 0.802526 42.5717 0.762631 41.7276C0.706861 40.4524 0.499758 39.0266 1.42546 38.0129Z" fill="#92797B"/>
<path d="M1.42546 38.0129C4.80531 34.1645 28.6923 23.5993 34.6486 21.0702C38.0576 19.6227 44.0845 17.518 46.9389 15.524C46.1469 17.0153 45.3264 18.1927 44.1951 19.4456C46.1138 22.3287 52.9133 32.5134 52.3434 35.5529C52.2759 35.9134 51.9272 36.2394 51.6335 36.4315C51.4194 36.5714 51.1947 36.6978 50.9717 36.8228C49.695 35.6842 48.5291 33.1148 47.3531 31.672C45.0656 28.8651 42.3716 26.4818 39.7507 24.0037C33.3177 25.9134 26.9463 27.9985 20.793 30.699C15.7295 32.9212 10.9613 35.6418 5.7054 37.446C4.44671 37.8782 2.72478 38.5306 1.42546 38.0129Z" fill="#EBDED3"/>
<path d="M0.899668 44.259C0.913949 44.2406 0.929328 44.223 0.942519 44.2038C1.59433 43.2549 0.522501 41.3218 1.24108 40.2718C2.94483 39.9468 15.83 48.9943 20.1741 50.2975C21.3869 56.087 21.4555 62.5339 21.7633 68.4503L23.1977 97.4185C20.4155 100.17 11.0822 106.303 11.0209 110.329C11.0204 110.358 11.0219 110.387 11.0223 110.416C10.5816 110.907 10.0539 111.138 9.47026 111.416C9.19034 109.018 8.82374 106.557 8.25506 104.209C7.74383 102.098 7.05027 100.004 6.6445 97.872C4.2127 91.8927 2.38973 72.0392 2.48671 64.9173C2.07458 62.629 2.14078 60.0634 1.9456 57.7315C1.74327 55.314 1.33025 52.9207 1.11893 50.5059C0.938127 48.4397 0.945037 46.333 0.899668 44.259Z" fill="#284966"/>
<path d="M2.48671 64.9173C3.01684 65.3777 3.11012 65.7087 3.23926 66.3993C4.06595 70.8204 4.23792 75.4948 4.81589 79.9721C5.50602 85.3183 6.61204 90.6844 7.02966 96.0579C7.08067 96.7142 7.08178 97.2339 6.69377 97.7967C6.67674 97.8215 6.66092 97.8472 6.6445 97.872C4.2127 91.8927 2.38973 72.0392 2.48671 64.9173Z" fill="#B6908F"/>
<path d="M234.792 101.561C238.174 102.053 244.07 104.312 246.158 106.98C246.579 107.311 247.656 107.968 247.787 108.444C248.089 109.169 248.263 109.724 247.961 110.483C246.761 113.508 239.65 117.535 236.649 118.781C236.06 119.026 235.409 119.136 234.781 119.222C234.994 118.107 234.367 116.496 233.757 115.571C233.636 115.387 233.478 115.255 233.297 115.133C232.929 115.169 232.876 115.162 232.636 115.45C231.975 116.244 231.537 117.619 231.086 118.564C229.354 122.197 226.735 125.225 222.489 125.72C222.455 125.724 222.42 125.728 222.385 125.731C222.419 125.632 222.409 125.676 222.423 125.57C222.94 121.634 227.711 117.401 229.389 113.638C229.885 112.526 230.344 111.088 229.895 109.898C229.979 109.848 230.062 109.795 230.142 109.738C230.689 109.35 230.855 108.967 230.964 108.341C230.962 108.311 230.963 108.282 230.959 108.253C230.813 107.249 229.839 106.492 229.077 105.924C230.463 104.296 232.677 102.175 234.792 101.561Z" fill="#1C1618"/>
<path d="M253.579 38.5566C255.15 38.4679 256.706 38.3398 257.973 39.4716C258.559 39.9954 258.876 40.7046 259.167 41.4197C259.84 44.0607 259.167 49.9105 258.429 52.5835C257.954 54.2981 257.182 56.0399 256.922 57.796C256.49 60.7082 256.403 63.6872 256.015 66.6123C255.103 73.4858 250.447 103.729 247.833 108.367C247.819 108.393 247.802 108.419 247.787 108.444C247.656 107.968 246.579 107.311 246.158 106.98C244.07 104.312 238.174 102.053 234.792 101.561C234.801 100.625 235.266 99.4386 235.462 98.4943C235.905 96.3956 236.268 94.2828 236.55 92.1559C237.437 85.0982 240.197 53.6091 238.074 48.8128C238.709 49.0882 239.428 49.4163 240.124 49.169C240.629 48.99 240.945 48.6542 241.177 48.1869C246.576 45.799 249.6 42.7086 253.579 38.5566Z" fill="#644A49"/>
<path d="M238.074 48.8128C238.709 49.0882 239.428 49.4163 240.124 49.169C240.629 48.99 240.945 48.6542 241.177 48.1869C242.943 52.2636 241.23 94.7652 239.745 98.429C239.697 98.5481 239.645 98.6615 239.581 98.7741C242.175 99.8988 245.456 102.926 246.525 105.588C246.677 105.965 246.694 106.277 246.627 106.673L246.158 106.98C244.07 104.312 238.174 102.053 234.792 101.561C234.801 100.625 235.266 99.4386 235.462 98.4943C235.905 96.3956 236.268 94.2828 236.55 92.1559C237.437 85.0982 240.197 53.6091 238.074 48.8128Z" fill="#92797B"/>
<path d="M126.873 0H147.641H260.493C260.731 0.378103 260.812 0.693828 260.833 1.13536C260.973 4.05216 260.863 7.0229 260.865 9.94419V26.5606C260.864 28.9919 261.22 35.4866 260.78 37.5672C260.742 37.7441 260.678 37.911 260.603 38.0747L260.593 38.6856C260.416 39.6417 260.117 40.7887 259.261 41.361C259.231 41.3815 259.199 41.4002 259.167 41.4197C258.876 40.7046 258.559 39.9954 257.973 39.4716C256.706 38.3398 255.15 38.4679 253.579 38.5566C249.6 42.7086 246.576 45.799 241.177 48.1869C240.945 48.6542 240.629 48.99 240.124 49.169C239.428 49.4163 238.709 49.0882 238.074 48.8128C238.107 48.3964 238.024 48.184 237.815 47.8191C234.293 41.6732 213.84 36.1837 207.105 34.3652C207.822 31.9322 209.586 30.2374 210.825 28.0883C211.515 26.8922 212.1 25.3858 211.731 23.997C212.328 22.7626 212.262 20.8902 211.838 19.6059C211.598 18.8777 211.351 18.4832 210.66 18.1365C209.882 22.08 204.555 36.3861 201.471 38.4042C201.381 38.4637 201.287 38.5128 201.188 38.5591C201.76 40.6279 202.106 42.3173 204.112 43.4523C207.773 45.5244 211.558 45.0281 212.952 49.9279C213.553 52.0366 213.515 54.3386 213.261 56.4984C212.422 63.6312 207.844 78.6709 205.034 85.4897C203.611 88.9415 201.846 92.2452 200.024 95.4993C195.226 104.064 185.291 114.257 175.667 116.949C166.92 119.395 156.327 119.886 147.247 120.012C149.576 119.397 152.093 117.357 154.235 116.191C157.235 114.56 160.326 113.054 163.25 111.288C170.355 106.996 177.138 100.97 181.353 93.7299C183.803 89.5217 185.84 85.4069 186.863 80.6125C187.062 79.6806 187.385 78.5918 187.138 77.6474L186.863 77.4322L186.266 77.6062C186.551 81.3128 177.34 94.3142 174.679 97.421C170.102 102.766 160.361 111.495 153.142 112.595C150.079 112.949 147.503 114.24 144.805 115.644C142.999 116.391 141.059 116.754 139.151 117.146C135.978 116.53 132.686 116.268 129.476 115.868C125.673 115.405 121.896 114.78 118.147 113.994C113.454 113.022 109.146 111.18 104.557 109.962C101.851 108.502 99.4261 106.423 97.0132 104.531C92.6719 101.127 88.4842 97.8521 84.6985 93.8177C84.6539 94.608 86.5278 96.792 87.0545 97.5393C84.8215 96.9592 82.6183 96.2582 80.3854 95.6748C75.0367 94.277 69.6867 93.1415 64.9829 90.0521C63.1704 88.8621 61.4936 87.2268 59.8343 85.8273C59.1714 85.3639 58.4198 84.9046 57.8261 84.3567C56.3933 83.0359 55.5195 80.9785 54.922 79.1661C52.1633 70.7983 54.0103 62.1958 56.1649 53.9508C56.487 52.7183 57.959 48.47 57.8727 47.5315C57.7811 46.5369 56.4423 46.4277 55.7594 45.8719C55.4244 44.9796 56.4698 40.1011 56.8166 39.0283L56.5952 38.6899C56.5235 33.8699 52.8132 15.222 50.5125 12.2302L51.133 11.8822C57.5279 8.27575 73.3446 7.73034 81.1887 6.76339C85.4382 6.23954 89.6308 5.23354 93.8796 4.75769C99.4261 4.13646 104.992 4.05799 110.534 3.54398C115.374 3.09511 120.116 2.42254 124.995 2.45873C125.688 2.31443 126.438 2.32323 127.144 2.28415C127.218 2.0802 127.26 2.06364 127.179 1.87022C127.149 1.7982 127.122 1.72472 127.09 1.65384C126.823 1.07499 126.852 0.622605 126.873 0ZM147.641 0C147.96 0.325306 148.187 0.714921 148.485 1.03355C148.992 1.57493 150.909 1.82547 151.632 1.83209C152.41 1.83924 154.792 1.58682 155.324 2.05435C158.316 2.16612 175.133 4.10738 176.782 5.21663C183.125 5.96464 206.834 11.1278 210.461 15.6825C210.7 15.983 211.051 16.5272 211.084 16.9186L210.66 18.1365C211.351 18.4832 211.598 18.8777 211.838 19.6059C212.262 20.8902 212.328 22.7626 211.731 23.997C212.1 25.3858 211.515 26.8922 210.825 28.0883C209.586 30.2374 207.822 31.9322 207.105 34.3652C213.84 36.1837 234.293 41.6732 237.815 47.8191C238.024 48.184 238.107 48.3964 238.074 48.8128C238.709 49.0882 239.428 49.4163 240.124 49.169C240.629 48.99 240.945 48.6542 241.177 48.1869C246.576 45.799 249.6 42.7086 253.579 38.5566C255.15 38.4679 256.706 38.3398 257.973 39.4716C258.559 39.9954 258.876 40.7046 259.167 41.4197C259.199 41.4002 259.231 41.3815 259.261 41.361C260.117 40.7887 260.416 39.6417 260.593 38.6856L260.603 38.0747C260.678 37.911 260.742 37.7441 260.78 37.5672C261.22 35.4866 260.864 28.9919 260.865 26.5606V9.94419C260.863 7.0229 260.973 4.05216 260.833 1.13536C260.812 0.693828 260.731 0.378103 260.493 0H147.641ZM126.873 0C126.852 0.622605 126.823 1.07499 127.09 1.65384C127.122 1.72472 127.149 1.7982 127.179 1.87022C127.26 2.06364 127.218 2.0802 127.144 2.28415C126.438 2.32323 125.688 2.31443 124.995 2.45873C120.116 2.42254 115.374 3.09511 110.534 3.54398C104.992 4.05799 99.4261 4.13646 93.8796 4.75769C89.6308 5.23354 85.4382 6.23954 81.1887 6.76339C73.3446 7.73034 57.5279 8.27575 51.133 11.8822L50.5125 12.2302C52.8132 15.222 56.5235 33.8699 56.5952 38.6899C59.6646 36.3955 60.7191 30.079 62.4794 26.6965C81.4182 14.6282 121.521 13.7514 143.684 15.1783C151.498 15.7579 159.267 16.7082 166.99 18.0292C170.422 18.5902 173.915 19.0794 177.308 19.8366C183.315 21.1768 195.989 24.4185 199.539 30.0036C201.443 32.9968 200.1 36.1303 201.188 38.5591C201.287 38.5128 201.381 38.4637 201.471 38.4042C204.555 36.3861 209.882 22.08 210.66 18.1365L211.084 16.9186C211.051 16.5272 210.7 15.983 210.461 15.6825C206.834 11.1278 183.125 5.96464 176.782 5.21663C175.133 4.10738 158.316 2.16612 155.324 2.05435C154.792 1.58682 152.41 1.83924 151.632 1.83209C150.909 1.82547 148.992 1.57493 148.485 1.03355C148.187 0.714921 147.96 0.325306 147.641 0H126.873Z" fill="url(#paint2_linear_273_16351)"/>
<path d="M56.8166 39.0283L57.0842 38.9665C57.0419 40.2075 55.8358 45.007 56.1311 45.6392C56.7253 45.9339 57.7368 46.2578 58.0137 46.8941C58.3245 49.0778 57.1467 52.0169 56.5651 54.1217C53.9257 63.6746 52.2437 73.4144 56.8526 82.698C56.8531 81.8668 56.8266 81.1419 57.1751 80.3672L57.4452 80.2905C58.7867 81.6871 58.6381 84.2102 59.8343 85.8273C59.1714 85.3639 58.4198 84.9046 57.8261 84.3567C56.3933 83.0359 55.5195 80.9785 54.922 79.1661C52.1633 70.7983 54.0103 62.1958 56.1649 53.9508C56.487 52.7183 57.959 48.47 57.8727 47.5315C57.7811 46.5369 56.4423 46.4277 55.7594 45.8719C55.4244 44.9796 56.4698 40.1011 56.8166 39.0283Z" fill="#644A49"/>
<path d="M126.873 0H147.641C147.96 0.325306 148.187 0.714921 148.485 1.03355C148.992 1.57493 150.909 1.82547 151.632 1.83209C152.41 1.83924 154.792 1.58682 155.324 2.05435C158.316 2.16612 175.133 4.10738 176.782 5.21663C183.125 5.96464 206.834 11.1278 210.461 15.6825C210.7 15.983 211.051 16.5272 211.084 16.9186L210.66 18.1365C209.882 22.08 204.555 36.3861 201.471 38.4042C201.381 38.4637 201.287 38.5128 201.188 38.5591C200.1 36.1303 201.443 32.9968 199.539 30.0036C195.989 24.4185 183.315 21.1768 177.308 19.8366C173.915 19.0794 170.422 18.5902 166.99 18.0292C159.267 16.7082 151.498 15.7579 143.684 15.1783C121.521 13.7514 81.4182 14.6282 62.4794 26.6965C60.7191 30.079 59.6646 36.3955 56.5952 38.6899C56.5235 33.8699 52.8132 15.222 50.5125 12.2302L51.133 11.8822C57.5279 8.27575 73.3446 7.73034 81.1887 6.76339C85.4382 6.23954 89.6308 5.23354 93.8796 4.75769C99.4261 4.13646 104.992 4.05799 110.534 3.54398C115.374 3.09511 120.116 2.42254 124.995 2.45873C125.688 2.31443 126.438 2.32323 127.144 2.28415C127.218 2.0802 127.26 2.06364 127.179 1.87022C127.149 1.7982 127.122 1.72472 127.09 1.65384C126.823 1.07499 126.852 0.622605 126.873 0ZM126.873 0C126.852 0.622605 126.823 1.07499 127.09 1.65384C127.122 1.72472 127.149 1.7982 127.179 1.87022C127.26 2.06364 127.218 2.0802 127.144 2.28415C126.438 2.32323 125.688 2.31443 124.995 2.45873C120.116 2.42254 115.374 3.09511 110.534 3.54398C104.992 4.05799 99.4261 4.13646 93.8796 4.75769C89.6308 5.23354 85.4382 6.23954 81.1887 6.76339C73.3446 7.73034 57.5279 8.27575 51.133 11.8822C51.2334 11.9767 51.3383 12.0581 51.4571 12.1287C54.9121 14.179 73.4309 10.6058 77.7885 9.95909C92.151 7.82761 106.356 6.33436 120.877 6.09324C126.477 6.00534 132.075 6.05771 137.672 6.25036C143.094 6.45551 157.872 7.70334 162.607 6.414C162.965 6.31663 163.033 6.33068 163.21 6.01337C163.193 5.98794 163.177 5.96169 163.159 5.9371C162.383 4.89725 160.066 4.52394 158.851 4.32096C163.35 4.3967 171.208 6.96395 175.148 6.09212C175.738 5.96172 176.289 5.55382 176.782 5.21663C175.133 4.10738 158.316 2.16612 155.324 2.05435C154.792 1.58682 152.41 1.83924 151.632 1.83209C150.909 1.82547 148.992 1.57493 148.485 1.03355C148.187 0.714921 147.96 0.325306 147.641 0H126.873Z" fill="url(#paint3_linear_273_16351)"/>
<path d="M195.147 23.3787C196.204 23.0072 199.531 24.6324 200.796 24.9162C201.758 25.1319 203.018 25.3011 203.878 24.7133C204.447 24.3244 204.682 23.6714 204.806 23.0239C204.842 23.3 204.871 23.5828 204.845 23.8614C204.75 24.9178 204.234 26.1072 203.425 26.7929C203.428 26.8199 203.434 26.8468 203.434 26.874C203.451 27.826 202.301 29.2248 201.688 29.9217C201.726 29.4351 201.52 28.9075 201.304 28.4776C200.242 26.3705 197.335 24.1337 195.147 23.3787Z" fill="#92797B"/>
<path d="M72.9534 16.0481C77.33 15.7423 81.7793 15.8792 86.1629 15.9265C78.7676 17.7031 68.9809 19.762 62.3394 23.1737C59.7613 24.7405 59.4877 26.4369 58.0781 28.8931C57.6862 24.9434 56.6259 20.8937 55.8376 16.9966C61.5347 16.8276 67.2408 16.2324 72.9534 16.0481Z" fill="#92797B"/>
<path d="M126.873 0H147.641C147.96 0.325306 148.187 0.714921 148.485 1.03355C148.992 1.57493 150.909 1.82547 151.632 1.83209C152.41 1.83924 154.792 1.58682 155.324 2.05435C158.316 2.16612 175.133 4.10738 176.782 5.21663C176.289 5.55382 175.738 5.96172 175.148 6.09212C171.208 6.96395 163.35 4.3967 158.851 4.32096C160.066 4.52394 162.383 4.89725 163.159 5.9371C163.177 5.96169 163.193 5.98794 163.21 6.01337C163.033 6.33068 162.965 6.31663 162.607 6.414C157.872 7.70334 143.094 6.45551 137.672 6.25036C132.075 6.05771 126.477 6.00534 120.877 6.09324C106.356 6.33436 92.151 7.82761 77.7885 9.95909C73.4309 10.6058 54.9121 14.179 51.4571 12.1287C51.3383 12.0581 51.2334 11.9767 51.133 11.8822C57.5279 8.27575 73.3446 7.73034 81.1887 6.76339C85.4382 6.23954 89.6308 5.23354 93.8796 4.75769C99.4261 4.13646 104.992 4.05799 110.534 3.54398C115.374 3.09511 120.116 2.42254 124.995 2.45873C125.688 2.31443 126.438 2.32323 127.144 2.28415C127.218 2.0802 127.26 2.06364 127.179 1.87022C127.149 1.7982 127.122 1.72472 127.09 1.65384C126.823 1.07499 126.852 0.622605 126.873 0ZM126.873 0C126.852 0.622605 126.823 1.07499 127.09 1.65384C127.122 1.72472 127.149 1.7982 127.179 1.87022C127.26 2.06364 127.218 2.0802 127.144 2.28415C126.438 2.32323 125.688 2.31443 124.995 2.45873C127.139 2.63385 129.288 2.44605 131.436 2.5155C134.097 2.60153 147.237 3.76171 148.721 2.93289C150.71 2.96828 152.614 1.99775 155.324 2.05435C154.792 1.58682 152.41 1.83924 151.632 1.83209C150.909 1.82547 148.992 1.57493 148.485 1.03355C148.187 0.714921 147.96 0.325306 147.641 0H126.873Z" fill="#EBDED3"/>
<path d="M126.873 0H147.641C147.96 0.325306 148.187 0.714921 148.485 1.03355C148.992 1.57493 150.909 1.82547 151.632 1.83209C152.41 1.83924 154.792 1.58682 155.324 2.05435C152.614 1.99775 150.71 2.96828 148.721 2.93289C147.237 3.76171 134.097 2.60153 131.436 2.5155C129.288 2.44605 127.139 2.63385 124.995 2.45873C125.688 2.31443 126.438 2.32323 127.144 2.28415C127.218 2.0802 127.26 2.06364 127.179 1.87022C127.149 1.7982 127.122 1.72472 127.09 1.65384C126.823 1.07499 126.852 0.622605 126.873 0ZM126.873 0C126.852 0.622605 126.823 1.07499 127.09 1.65384C127.122 1.72472 127.149 1.7982 127.179 1.87022C127.26 2.06364 127.218 2.0802 127.144 2.28415C131.585 2.99892 135.346 -0.68144 140.728 0.16074C141.845 0.335457 142.905 0.865217 143.985 1.19409C145.054 1.51961 146.394 1.54222 147.353 2.0884L147.264 2.36921L146.298 2.77514L148.721 2.93289C150.71 2.96828 152.614 1.99775 155.324 2.05435C154.792 1.58682 152.41 1.83924 151.632 1.83209C150.909 1.82547 148.992 1.57493 148.485 1.03355C148.187 0.714921 147.96 0.325306 147.641 0H126.873Z" fill="url(#paint4_linear_273_16351)"/>
<path d="M126.873 0H147.641C147.96 0.325306 148.187 0.714921 148.485 1.03355C148.992 1.57493 150.909 1.82547 151.632 1.83209C152.41 1.83924 154.792 1.58682 155.324 2.05435C152.614 1.99775 150.71 2.96828 148.721 2.93289L146.298 2.77514L147.264 2.36921L147.353 2.0884C146.394 1.54222 145.054 1.51961 143.985 1.19409C142.905 0.865217 141.845 0.335457 140.728 0.16074C135.346 -0.68144 131.585 2.99892 127.144 2.28415C127.218 2.0802 127.26 2.06364 127.179 1.87022C127.149 1.7982 127.122 1.72472 127.09 1.65384C126.823 1.07499 126.852 0.622605 126.873 0Z" fill="#FEFDFE" fill-opacity="0.588235"/>
<path d="M211.084 16.9186C211.671 17.2322 214.756 18.3669 215.003 18.6414C225.734 20.7667 236.363 25.2046 246.187 29.9599C249.206 31.4215 252.121 33.2511 255.171 34.6092C256.759 34.7986 259.134 35.645 260.167 36.9523C260.398 37.2442 260.582 37.7012 260.603 38.0747L260.593 38.6856C260.416 39.6417 260.117 40.7887 259.261 41.361C259.231 41.3815 259.199 41.4002 259.167 41.4197C258.876 40.7046 258.559 39.9954 257.973 39.4716C256.706 38.3398 255.15 38.4679 253.579 38.5566C249.6 42.7086 246.576 45.799 241.177 48.1869C240.945 48.6542 240.629 48.99 240.124 49.169C239.428 49.4163 238.709 49.0882 238.074 48.8128C238.107 48.3964 238.024 48.184 237.815 47.8191C234.293 41.6732 213.84 36.1837 207.105 34.3652C207.822 31.9322 209.586 30.2374 210.825 28.0883C211.515 26.8922 212.1 25.3858 211.731 23.997C212.328 22.7626 212.262 20.8902 211.838 19.6059C211.598 18.8777 211.351 18.4832 210.66 18.1365L211.084 16.9186Z" fill="#92797B"/>
<path d="M210.086 31.8806C212.895 35.1512 231.99 38.3488 238.451 44.5331C238.87 44.9342 239.748 45.6127 239.895 46.1744C242.701 45.2528 248.716 39.8649 249.97 37.2775C250.142 36.9222 250.154 36.5824 250.093 36.1979C251.575 36.5889 252.65 37.3232 253.579 38.5566C249.6 42.7086 246.576 45.799 241.177 48.1869C240.945 48.6542 240.629 48.99 240.124 49.169C239.428 49.4163 238.709 49.0882 238.074 48.8128C238.107 48.3964 238.024 48.184 237.815 47.8191C234.293 41.6732 213.84 36.1837 207.105 34.3652L207.978 34.2692C208.966 33.6436 209.513 32.8741 210.086 31.8806Z" fill="#B6908F"/>
<path d="M211.084 16.9186C211.671 17.2322 214.756 18.3669 215.003 18.6414C225.734 20.7667 236.363 25.2046 246.187 29.9599C249.206 31.4215 252.121 33.2511 255.171 34.6092C256.759 34.7986 259.134 35.645 260.167 36.9523C260.398 37.2442 260.582 37.7012 260.603 38.0747L260.593 38.6856C260.416 39.6417 260.117 40.7887 259.261 41.361C259.231 41.3815 259.199 41.4002 259.167 41.4197C258.876 40.7046 258.559 39.9954 257.973 39.4716C256.706 38.3398 255.15 38.4679 253.579 38.5566C252.65 37.3232 251.575 36.5889 250.093 36.1979C249.943 35.5796 249.492 35.2286 249.068 34.766C246.439 32.3719 240.516 30.5712 237.114 29.0878C233.47 27.4985 229.953 25.6965 226.184 24.4005C223.656 23.531 221.127 22.8996 218.497 22.4311C218.52 22.5564 218.53 22.6792 218.511 22.8063C218.103 25.6321 212.445 30.1846 210.086 31.8806C209.513 32.8741 208.966 33.6436 207.978 34.2692L207.105 34.3652C207.822 31.9322 209.586 30.2374 210.825 28.0883C211.515 26.8922 212.1 25.3858 211.731 23.997C212.328 22.7626 212.262 20.8902 211.838 19.6059C211.598 18.8777 211.351 18.4832 210.66 18.1365L211.084 16.9186Z" fill="#EBDED3"/>
<path d="M211.084 16.9186C211.671 17.2322 214.756 18.3669 215.003 18.6414C215.222 19.5011 214.788 20.0309 214.347 20.7759C213.603 22.0304 212.932 23.1375 211.731 23.997C212.328 22.7626 212.262 20.8902 211.838 19.6059C211.598 18.8777 211.351 18.4832 210.66 18.1365L211.084 16.9186Z" fill="#70ACBC"/>
<path d="M255.171 34.6092C256.759 34.7986 259.134 35.645 260.167 36.9523C260.398 37.2442 260.582 37.7012 260.603 38.0747L260.593 38.6856C260.416 39.6417 260.117 40.7887 259.261 41.361C259.231 41.3815 259.199 41.4002 259.167 41.4197C258.876 40.7046 258.559 39.9954 257.973 39.4716C256.706 38.3398 255.15 38.4679 253.579 38.5566C252.65 37.3232 251.575 36.5889 250.093 36.1979C249.943 35.5796 249.492 35.2286 249.068 34.766C250.594 34.8887 252.385 36.1275 253.876 36.607C254.371 36.7663 254.912 36.9132 255.401 36.6651C255.714 35.9102 255.458 35.3447 255.171 34.6092Z" fill="#70ACBC"/>
<path d="M91.5542 29.4636C94.3262 28.4385 97.6884 28.2727 100.608 27.727C118.777 24.3304 146.287 22.2497 163.454 29.8975C172.842 34.0794 182.039 44.9215 185.683 54.4217C186.149 55.6342 186.604 56.887 186.843 58.1664C187.666 62.5897 188.032 73.6327 186.266 77.6062C186.551 81.3128 177.34 94.3142 174.679 97.421C170.102 102.766 160.361 111.495 153.142 112.595C150.079 112.949 147.503 114.24 144.805 115.644C142.999 116.391 141.059 116.754 139.151 117.146C135.978 116.53 132.686 116.268 129.476 115.868C125.673 115.405 121.896 114.78 118.147 113.994C113.454 113.022 109.146 111.18 104.557 109.962C101.851 108.502 99.4261 106.423 97.0132 104.531C92.6719 101.127 88.4842 97.8521 84.6985 93.8177C84.3353 92.9942 82.1398 90.9699 81.4033 90.0273C77.8014 85.416 75.6344 79.5531 74.6347 73.8162C72.5918 62.0931 76.3575 49.3185 83.2391 39.7947C85.8303 36.2089 89.0034 33.1112 91.5542 29.4636Z" fill="url(#paint5_linear_273_16351)"/>
<path d="M136.305 26.1646C140.207 25.5786 147.737 26.9812 151.596 28.2142C159.587 30.7679 165.555 35.3728 171.64 41.0141C173.833 43.0473 176.208 45.1328 177.594 47.8409C178.512 49.634 178.756 51.9416 179.269 53.888C180.648 59.1229 183.541 66.7778 181.799 72.1679C181.58 71.7622 181.901 69.5405 181.909 68.8879C181.939 66.6718 181.378 59.5221 179.93 58.0308C180.212 57.2051 179.59 55.4982 179.352 54.6435C178.543 51.7496 176.769 49.7116 175.114 47.3034C174.206 45.9828 173.821 44.3423 172.891 43.0322C169.985 38.9384 163.487 34.1721 159.11 31.7173C150.356 26.8079 139.428 25.2283 129.616 27.2435C127.404 27.6978 125.285 28.6394 123.115 29.2535C124.183 28.551 127.771 27.2809 128.989 27.0682C129.703 26.9432 130.449 27.009 131.167 26.8579C131.631 26.7604 132.031 26.4033 132.498 26.3595C133.719 26.245 135.004 26.4006 136.215 26.1821C136.245 26.1767 136.275 26.1704 136.305 26.1646Z" fill="#AD6945"/>
<path d="M131.131 35.8442C133.262 33.8343 136.061 32.9823 138.951 33.0779C148.277 33.3865 157.162 39.1619 163.332 45.8267C168.146 51.0276 171.802 58.1038 171.487 65.3934C171.469 65.8137 171.382 66.2342 171.21 66.619L171.08 66.7163C169.167 67.0287 157.555 63.7587 155.313 62.8711C155.271 62.7397 155.228 62.612 155.171 62.4862C154.328 60.6152 144.199 53.8896 141.912 53.0062C141.878 53.0093 141.844 53.0136 141.81 53.0158C140.564 53.0955 137.421 50.0288 136.449 49.2219C136.188 48.851 135.909 48.4471 135.715 48.0375C135.317 47.2031 135.828 46.1559 136.094 45.3499C135.958 44.2484 135.854 43.1275 135.597 42.0469C133.807 40.1122 132.244 38.2672 131.131 35.8442Z" fill="#EBDED3"/>
<path d="M136.094 45.3499C136.321 47.6472 138.137 49.9058 139.859 51.3208C140.54 51.8799 141.273 52.3965 141.912 53.0062C141.878 53.0093 141.844 53.0136 141.81 53.0158C140.564 53.0955 137.421 50.0288 136.449 49.2219C136.188 48.851 135.909 48.4471 135.715 48.0375C135.317 47.2031 135.828 46.1559 136.094 45.3499Z" fill="#FEA64D"/>
<path d="M136.449 49.2219C137.421 50.0288 140.564 53.0955 141.81 53.0158C141.844 53.0136 141.878 53.0093 141.912 53.0062C144.199 53.8896 154.328 60.6152 155.171 62.4862C155.228 62.612 155.271 62.7397 155.313 62.8711C157.555 63.7587 169.167 67.0287 171.08 66.7163L171.21 66.619C171.329 66.7323 171.433 66.8588 171.52 66.9985C171.608 67.1381 171.676 67.2865 171.726 67.4437C173.028 71.5399 170.75 78.4676 168.872 82.2259C166.95 86.0706 160.897 93.1233 157.392 95.5399C155.138 97.0932 152.233 98.3015 149.636 99.163C147.702 99.8052 145.641 100.418 143.623 100.706C141.81 100.965 133.245 101.068 131.831 100.353C132.368 100.074 134.493 100.559 135.232 100.594C138.638 100.753 142.077 100.852 145.436 100.151C146.788 99.869 153.31 97.8687 153.912 96.9526C153.769 96.6058 153.562 96.4908 153.261 96.2979C152.021 95.5026 150.629 94.5286 149.221 94.0916C148.241 93.787 147.172 93.7821 146.16 93.643C144.683 93.4403 142.872 91.3332 141.862 90.2491C139.976 88.2215 140.985 86.7319 140.255 85.9961C139.309 86.4596 138.182 87.3766 137.414 88.1048C136.957 88.5385 136.876 88.867 136.853 89.467C138.013 90.4055 140.091 90.2946 141.298 91.2488C142.288 92.0309 142.172 93.8673 143.279 94.483C144.267 95.0342 145.591 94.6229 146.634 95.093L146.363 95.2452C140.46 95.3313 143.34 93.2152 140.506 91.4408C139.245 90.6513 137.575 90.6149 136.28 89.7675C135.488 88.2778 140.095 85.1561 141.078 84.0819C141.935 83.1451 142.594 82.0892 142.976 80.8723C143.664 78.6734 144.074 73.8559 143.629 71.6069C143.408 70.4984 142.969 69.4135 142.612 68.343C141.753 65.7674 141.842 63.7932 142.144 61.1487L142.397 61.0704C142.645 61.5942 142.465 62.1885 142.399 62.7604C142.97 62.8711 144.446 63.3181 144.917 63.1106C144.93 62.7613 144.97 62.4929 144.743 62.1922C144.241 61.5279 143.25 60.9108 142.617 60.3433C141.612 59.4407 140.692 58.442 139.683 57.5427C137.274 55.3972 134.13 53.4233 133.274 50.1171C134.651 49.7113 136.689 52.1649 138.326 51.9828C138.08 50.9639 136.92 50.3167 136.449 49.2219Z" fill="#F88E61"/>
<mask id="path-2-outside-1_273_16351" maskUnits="userSpaceOnUse" x="77.2969" y="37.5723" width="104" height="69" fill="black">
<rect fill="white" x="77.2969" y="37.5723" width="104" height="69"/>
<path d="M90.5929 88.8203C88.6889 88.8949 86.9342 88.6523 85.3289 88.0923C83.7609 87.5696 82.4729 86.8416 81.4649 85.9083C80.4942 84.9749 79.8782 83.8923 79.6169 82.6603C79.3555 81.3909 79.5795 80.1029 80.2889 78.7963C81.2595 77.2283 83.2009 76.7616 86.1129 77.3963C88.3155 77.8443 89.8275 78.0869 90.6489 78.1243C91.5075 78.1616 92.2355 78.0496 92.8329 77.7883C95.5582 76.8923 97.0889 75.9216 97.4249 74.8763C97.6489 74.0923 97.1635 73.1776 95.9689 72.1323C95.4835 71.6843 94.9422 71.2363 94.3449 70.7883C93.7475 70.3403 93.2435 69.8923 92.8329 69.4443C90.9662 68.0629 89.4915 66.4763 88.4089 64.6843C87.3635 62.8549 86.9342 60.8763 87.1209 58.7483C87.3075 56.6203 87.6622 54.8656 88.1849 53.4843C88.7075 52.0656 89.3609 50.8149 90.1449 49.7323C91.5262 47.8283 93.3182 46.2789 95.5209 45.0843C98.0595 43.7776 100.094 42.9376 101.625 42.5643C104.649 41.8923 107.71 41.8363 110.809 42.3963C111.854 42.5829 112.75 42.9376 113.497 43.4603C114.244 43.9829 114.99 44.5243 115.737 45.0843C117.044 46.3909 117.361 47.7163 116.689 49.0603C116.428 49.6576 116.017 50.1429 115.457 50.5163C114.897 50.8896 114.3 51.0949 113.665 51.1323C113.74 52.1403 113.553 52.8869 113.105 53.3723C112.246 54.2309 110.753 54.7909 108.625 55.0523C105.564 54.8283 103.492 54.9963 102.409 55.5563C101.14 56.2283 100.673 57.6843 101.009 59.9243C101.084 60.4096 101.382 60.9136 101.905 61.4363C102.465 61.9589 103.1 62.5189 103.809 63.1163C104.556 63.7136 105.321 64.3856 106.105 65.1323C106.926 65.8789 107.636 66.7376 108.233 67.7083C110.324 71.1429 110.156 75.1563 107.729 79.7483C105.937 83.1829 102.876 85.7589 98.5449 87.4763C96.3049 88.3723 93.6542 88.8203 90.5929 88.8203ZM119.587 41.6123C120.409 40.6043 121.398 40.0443 122.555 39.9323C123.713 39.8203 124.833 40.0069 125.915 40.4923C126.998 40.9403 127.913 41.6496 128.659 42.6203C129.443 43.5536 129.873 44.5989 129.947 45.7563L129.443 47.3803C129.854 47.8656 130.209 48.2576 130.507 48.5563C130.843 48.8549 131.03 49.3216 131.067 49.9563C131.291 50.4789 130.358 52.5509 128.267 56.1723C127.409 57.6656 126.494 59.2336 125.523 60.8763C124.59 62.4816 123.825 63.9189 123.227 65.1883C123.675 65.0763 124.123 64.9829 124.571 64.9083C125.019 64.8336 125.467 64.7403 125.915 64.6283C128.678 63.9189 130.545 63.5643 131.515 63.5643C132.486 63.5269 133.289 63.6203 133.923 63.8443C135.641 64.5163 136.537 65.5616 136.611 66.9803C136.089 68.2123 134.129 69.9296 130.731 72.1323C129.947 72.6176 129.313 73.0283 128.827 73.3643L123.955 76.8363C123.694 77.2469 123.507 77.6389 123.395 78.0123V78.0683C123.47 78.2549 123.937 78.5163 124.795 78.8523C125.691 79.1883 126.457 79.4869 127.091 79.7483C128.585 80.4203 129.91 81.3349 131.067 82.4923C131.441 82.9029 131.683 83.5189 131.795 84.3403C131.907 85.1243 131.777 85.8523 131.403 86.5243C131.067 87.1963 130.451 87.6816 129.555 87.9803C128.659 88.2789 127.409 88.1483 125.803 87.5883C123.451 86.5429 120.67 84.2096 117.459 80.5883C117.086 81.8949 116.713 83.1829 116.339 84.4523C116.003 85.6843 115.63 86.9536 115.219 88.2603C114.659 89.5296 113.353 90.1269 111.299 90.0523C110.478 90.0523 109.731 89.8843 109.059 89.5483C108.425 89.2123 108.051 88.7643 107.939 88.2043C107.641 87.3829 107.491 86.7669 107.491 86.3563C107.491 85.9829 107.585 85.5349 107.771 85.0123C108.63 82.8469 109.171 81.1296 109.395 79.8603C109.619 78.5536 109.769 77.7883 109.843 77.5643C108.798 76.8923 108.182 75.8283 107.995 74.3723C107.771 72.9536 108.107 71.6843 109.003 70.5643C110.198 70.1163 111.057 69.7803 111.579 69.5563C111.803 68.1376 112.177 66.6069 112.699 64.9643C113.633 62.0149 114.342 59.4576 114.827 57.2923C115.35 55.1269 116.078 52.6816 117.011 49.9563C117.982 47.1936 118.841 44.4123 119.587 41.6123ZM138.94 61.3243C139.425 60.0923 140.583 59.2523 142.412 58.8043C144.129 58.3563 145.735 58.4123 147.228 58.9723C148.759 59.5696 149.449 60.5403 149.3 61.8843C148.889 63.1909 148.367 64.7963 147.732 66.7003C147.135 68.5669 146.556 70.4896 145.996 72.4683C144.503 77.5456 143.644 81.1296 143.42 83.2203C142.86 86.5803 141.927 88.3909 140.62 88.6523C140.247 88.7269 139.892 88.7829 139.556 88.8203C138.735 88.8576 138.212 89.0816 137.988 89.4923C137.764 89.9029 137.391 90.2016 136.868 90.3883C136.345 90.6123 135.767 90.7056 135.132 90.6683C134.535 90.6683 133.919 90.5189 133.284 90.2203C132.649 89.9589 132.108 89.5669 131.66 89.0443C130.615 87.7749 130.409 86.0763 131.044 83.9483C131.641 79.8789 133.153 74.7083 135.58 68.4363C136.737 65.3376 137.857 62.9669 138.94 61.3243ZM149.524 52.9243C147.695 53.2976 146.201 53.1856 145.044 52.5883C143.924 51.9909 143.271 51.2816 143.084 50.4603C142.897 49.6016 143.159 48.7243 143.868 47.8283C144.689 46.7083 145.921 45.9803 147.564 45.6443C148.311 45.5696 148.852 45.5323 149.188 45.5323C149.524 45.5323 149.935 45.6069 150.42 45.7563C151.652 45.8683 152.455 46.4096 152.828 47.3803C153.351 48.2016 153.388 49.1349 152.94 50.1803C152.529 51.2256 151.391 52.1403 149.524 52.9243ZM159.396 62.6683C161.263 59.8683 163.858 58.1883 167.18 57.6283C168.263 57.4416 169.588 57.3109 171.156 57.2363C172.762 57.1616 174.124 57.5163 175.244 58.3003C176.402 59.0843 177.26 60.0923 177.82 61.3243C178.791 63.5269 178.94 66.2336 178.268 69.4443C177.895 71.1989 177.447 73.1403 176.924 75.2683C176.402 77.3589 175.618 79.4309 174.572 81.4843C173.527 83.5376 172.164 85.4603 170.484 87.2523C168.804 89.0443 166.62 90.4629 163.932 91.5083C162.327 92.1429 160.908 92.3669 159.676 92.1803C158.482 92.0309 157.586 91.7883 156.988 91.4523C156.391 91.1163 155.98 90.6309 155.756 89.9963C155.01 92.1243 154.3 94.2709 153.628 96.4363C152.994 98.6389 152.135 100.73 151.052 102.708C150.306 103.194 149.391 103.548 148.308 103.772C147.226 104.034 146.162 103.978 145.116 103.604C144.071 103.268 143.324 102.634 142.876 101.7C142.391 100.804 142.148 99.8149 142.148 98.7323C142.148 97.2763 142.503 95.5029 143.212 93.4123C144.258 90.3136 145.116 87.9243 145.788 86.2443C146.423 84.5643 146.834 83.4816 147.02 82.9963C147.207 82.4736 147.394 81.9323 147.58 81.3723C148.402 79.2069 148.999 77.4523 149.372 76.1083C149.783 74.7269 150.156 73.5323 150.492 72.5243V72.4683C150.866 70.8256 151.444 69.0896 152.228 67.2603C153.05 65.3936 153.61 64.2549 153.908 63.8443C154.543 63.2096 155.196 62.8176 155.868 62.6683C156.54 62.5189 157.306 62.4256 158.164 62.3883H158.332L159.396 62.6683ZM163.652 72.0203C163.204 72.8043 162.458 73.5323 161.412 74.2043L160.908 75.3803C160.535 76.3509 160.18 77.3403 159.844 78.3483C159.508 79.3563 159.135 80.3456 158.724 81.3163C159.098 81.6896 159.378 82.0443 159.564 82.3803C161.655 80.5509 163.559 78.1429 165.276 75.1563C165.948 73.9243 166.378 72.6923 166.564 71.4603C166.788 70.2283 166.844 69.4443 166.732 69.1083C166.62 68.7723 166.434 68.6043 166.172 68.6043C165.948 68.6043 165.706 68.6789 165.444 68.8283C165.22 68.9403 165.034 69.0709 164.884 69.2203C164.772 69.3323 164.791 69.3323 164.94 69.2203C164.53 69.7056 164.231 70.1349 164.044 70.5083C163.858 70.8443 163.727 71.3483 163.652 72.0203Z"/>
</mask>
<path d="M90.5929 88.8203C88.6889 88.8949 86.9342 88.6523 85.3289 88.0923C83.7609 87.5696 82.4729 86.8416 81.4649 85.9083C80.4942 84.9749 79.8782 83.8923 79.6169 82.6603C79.3555 81.3909 79.5795 80.1029 80.2889 78.7963C81.2595 77.2283 83.2009 76.7616 86.1129 77.3963C88.3155 77.8443 89.8275 78.0869 90.6489 78.1243C91.5075 78.1616 92.2355 78.0496 92.8329 77.7883C95.5582 76.8923 97.0889 75.9216 97.4249 74.8763C97.6489 74.0923 97.1635 73.1776 95.9689 72.1323C95.4835 71.6843 94.9422 71.2363 94.3449 70.7883C93.7475 70.3403 93.2435 69.8923 92.8329 69.4443C90.9662 68.0629 89.4915 66.4763 88.4089 64.6843C87.3635 62.8549 86.9342 60.8763 87.1209 58.7483C87.3075 56.6203 87.6622 54.8656 88.1849 53.4843C88.7075 52.0656 89.3609 50.8149 90.1449 49.7323C91.5262 47.8283 93.3182 46.2789 95.5209 45.0843C98.0595 43.7776 100.094 42.9376 101.625 42.5643C104.649 41.8923 107.71 41.8363 110.809 42.3963C111.854 42.5829 112.75 42.9376 113.497 43.4603C114.244 43.9829 114.99 44.5243 115.737 45.0843C117.044 46.3909 117.361 47.7163 116.689 49.0603C116.428 49.6576 116.017 50.1429 115.457 50.5163C114.897 50.8896 114.3 51.0949 113.665 51.1323C113.74 52.1403 113.553 52.8869 113.105 53.3723C112.246 54.2309 110.753 54.7909 108.625 55.0523C105.564 54.8283 103.492 54.9963 102.409 55.5563C101.14 56.2283 100.673 57.6843 101.009 59.9243C101.084 60.4096 101.382 60.9136 101.905 61.4363C102.465 61.9589 103.1 62.5189 103.809 63.1163C104.556 63.7136 105.321 64.3856 106.105 65.1323C106.926 65.8789 107.636 66.7376 108.233 67.7083C110.324 71.1429 110.156 75.1563 107.729 79.7483C105.937 83.1829 102.876 85.7589 98.5449 87.4763C96.3049 88.3723 93.6542 88.8203 90.5929 88.8203ZM119.587 41.6123C120.409 40.6043 121.398 40.0443 122.555 39.9323C123.713 39.8203 124.833 40.0069 125.915 40.4923C126.998 40.9403 127.913 41.6496 128.659 42.6203C129.443 43.5536 129.873 44.5989 129.947 45.7563L129.443 47.3803C129.854 47.8656 130.209 48.2576 130.507 48.5563C130.843 48.8549 131.03 49.3216 131.067 49.9563C131.291 50.4789 130.358 52.5509 128.267 56.1723C127.409 57.6656 126.494 59.2336 125.523 60.8763C124.59 62.4816 123.825 63.9189 123.227 65.1883C123.675 65.0763 124.123 64.9829 124.571 64.9083C125.019 64.8336 125.467 64.7403 125.915 64.6283C128.678 63.9189 130.545 63.5643 131.515 63.5643C132.486 63.5269 133.289 63.6203 133.923 63.8443C135.641 64.5163 136.537 65.5616 136.611 66.9803C136.089 68.2123 134.129 69.9296 130.731 72.1323C129.947 72.6176 129.313 73.0283 128.827 73.3643L123.955 76.8363C123.694 77.2469 123.507 77.6389 123.395 78.0123V78.0683C123.47 78.2549 123.937 78.5163 124.795 78.8523C125.691 79.1883 126.457 79.4869 127.091 79.7483C128.585 80.4203 129.91 81.3349 131.067 82.4923C131.441 82.9029 131.683 83.5189 131.795 84.3403C131.907 85.1243 131.777 85.8523 131.403 86.5243C131.067 87.1963 130.451 87.6816 129.555 87.9803C128.659 88.2789 127.409 88.1483 125.803 87.5883C123.451 86.5429 120.67 84.2096 117.459 80.5883C117.086 81.8949 116.713 83.1829 116.339 84.4523C116.003 85.6843 115.63 86.9536 115.219 88.2603C114.659 89.5296 113.353 90.1269 111.299 90.0523C110.478 90.0523 109.731 89.8843 109.059 89.5483C108.425 89.2123 108.051 88.7643 107.939 88.2043C107.641 87.3829 107.491 86.7669 107.491 86.3563C107.491 85.9829 107.585 85.5349 107.771 85.0123C108.63 82.8469 109.171 81.1296 109.395 79.8603C109.619 78.5536 109.769 77.7883 109.843 77.5643C108.798 76.8923 108.182 75.8283 107.995 74.3723C107.771 72.9536 108.107 71.6843 109.003 70.5643C110.198 70.1163 111.057 69.7803 111.579 69.5563C111.803 68.1376 112.177 66.6069 112.699 64.9643C113.633 62.0149 114.342 59.4576 114.827 57.2923C115.35 55.1269 116.078 52.6816 117.011 49.9563C117.982 47.1936 118.841 44.4123 119.587 41.6123ZM138.94 61.3243C139.425 60.0923 140.583 59.2523 142.412 58.8043C144.129 58.3563 145.735 58.4123 147.228 58.9723C148.759 59.5696 149.449 60.5403 149.3 61.8843C148.889 63.1909 148.367 64.7963 147.732 66.7003C147.135 68.5669 146.556 70.4896 145.996 72.4683C144.503 77.5456 143.644 81.1296 143.42 83.2203C142.86 86.5803 141.927 88.3909 140.62 88.6523C140.247 88.7269 139.892 88.7829 139.556 88.8203C138.735 88.8576 138.212 89.0816 137.988 89.4923C137.764 89.9029 137.391 90.2016 136.868 90.3883C136.345 90.6123 135.767 90.7056 135.132 90.6683C134.535 90.6683 133.919 90.5189 133.284 90.2203C132.649 89.9589 132.108 89.5669 131.66 89.0443C130.615 87.7749 130.409 86.0763 131.044 83.9483C131.641 79.8789 133.153 74.7083 135.58 68.4363C136.737 65.3376 137.857 62.9669 138.94 61.3243ZM149.524 52.9243C147.695 53.2976 146.201 53.1856 145.044 52.5883C143.924 51.9909 143.271 51.2816 143.084 50.4603C142.897 49.6016 143.159 48.7243 143.868 47.8283C144.689 46.7083 145.921 45.9803 147.564 45.6443C148.311 45.5696 148.852 45.5323 149.188 45.5323C149.524 45.5323 149.935 45.6069 150.42 45.7563C151.652 45.8683 152.455 46.4096 152.828 47.3803C153.351 48.2016 153.388 49.1349 152.94 50.1803C152.529 51.2256 151.391 52.1403 149.524 52.9243ZM159.396 62.6683C161.263 59.8683 163.858 58.1883 167.18 57.6283C168.263 57.4416 169.588 57.3109 171.156 57.2363C172.762 57.1616 174.124 57.5163 175.244 58.3003C176.402 59.0843 177.26 60.0923 177.82 61.3243C178.791 63.5269 178.94 66.2336 178.268 69.4443C177.895 71.1989 177.447 73.1403 176.924 75.2683C176.402 77.3589 175.618 79.4309 174.572 81.4843C173.527 83.5376 172.164 85.4603 170.484 87.2523C168.804 89.0443 166.62 90.4629 163.932 91.5083C162.327 92.1429 160.908 92.3669 159.676 92.1803C158.482 92.0309 157.586 91.7883 156.988 91.4523C156.391 91.1163 155.98 90.6309 155.756 89.9963C155.01 92.1243 154.3 94.2709 153.628 96.4363C152.994 98.6389 152.135 100.73 151.052 102.708C150.306 103.194 149.391 103.548 148.308 103.772C147.226 104.034 146.162 103.978 145.116 103.604C144.071 103.268 143.324 102.634 142.876 101.7C142.391 100.804 142.148 99.8149 142.148 98.7323C142.148 97.2763 142.503 95.5029 143.212 93.4123C144.258 90.3136 145.116 87.9243 145.788 86.2443C146.423 84.5643 146.834 83.4816 147.02 82.9963C147.207 82.4736 147.394 81.9323 147.58 81.3723C148.402 79.2069 148.999 77.4523 149.372 76.1083C149.783 74.7269 150.156 73.5323 150.492 72.5243V72.4683C150.866 70.8256 151.444 69.0896 152.228 67.2603C153.05 65.3936 153.61 64.2549 153.908 63.8443C154.543 63.2096 155.196 62.8176 155.868 62.6683C156.54 62.5189 157.306 62.4256 158.164 62.3883H158.332L159.396 62.6683ZM163.652 72.0203C163.204 72.8043 162.458 73.5323 161.412 74.2043L160.908 75.3803C160.535 76.3509 160.18 77.3403 159.844 78.3483C159.508 79.3563 159.135 80.3456 158.724 81.3163C159.098 81.6896 159.378 82.0443 159.564 82.3803C161.655 80.5509 163.559 78.1429 165.276 75.1563C165.948 73.9243 166.378 72.6923 166.564 71.4603C166.788 70.2283 166.844 69.4443 166.732 69.1083C166.62 68.7723 166.434 68.6043 166.172 68.6043C165.948 68.6043 165.706 68.6789 165.444 68.8283C165.22 68.9403 165.034 69.0709 164.884 69.2203C164.772 69.3323 164.791 69.3323 164.94 69.2203C164.53 69.7056 164.231 70.1349 164.044 70.5083C163.858 70.8443 163.727 71.3483 163.652 72.0203Z" fill="white"/>
<path d="M90.5929 88.8203V86.8203H90.5537L90.5145 86.8218L90.5929 88.8203ZM85.3289 88.0923L85.9876 86.2039L85.9745 86.1993L85.9613 86.1949L85.3289 88.0923ZM81.4649 85.9083L80.0787 87.3499L80.0922 87.363L80.1061 87.3758L81.4649 85.9083ZM79.6169 82.6603L77.6579 83.0636L77.6604 83.0753L79.6169 82.6603ZM80.2889 78.7963L78.5883 77.7436L78.5584 77.792L78.5312 77.8421L80.2889 78.7963ZM86.1129 77.3963L85.687 79.3504L85.7006 79.3534L85.7143 79.3561L86.1129 77.3963ZM90.6489 78.1243L90.5581 80.1222L90.562 80.1224L90.6489 78.1243ZM92.8329 77.7883L92.2082 75.8883L92.1181 75.9179L92.0312 75.956L92.8329 77.7883ZM97.4249 74.8763L99.3289 75.4883L99.3389 75.4571L99.3479 75.4257L97.4249 74.8763ZM95.9689 72.1323L94.6123 73.6019L94.6319 73.6199L94.6519 73.6374L95.9689 72.1323ZM94.3449 70.7883L93.1449 72.3883L93.1449 72.3883L94.3449 70.7883ZM92.8329 69.4443L94.3072 68.0928L94.1772 67.951L94.0226 67.8366L92.8329 69.4443ZM88.4089 64.6843L86.6724 65.6765L86.6845 65.6977L86.697 65.7185L88.4089 64.6843ZM87.1209 58.7483L85.1285 58.5735L87.1209 58.7483ZM88.1849 53.4843L90.0554 54.192L90.0585 54.1839L90.0616 54.1757L88.1849 53.4843ZM90.1449 49.7323L88.526 48.5578L88.525 48.5592L90.1449 49.7323ZM95.5209 45.0843L94.6056 43.306L94.5864 43.3159L94.5673 43.3262L95.5209 45.0843ZM101.625 42.5643L101.191 40.6119L101.171 40.6164L101.151 40.6212L101.625 42.5643ZM110.809 42.3963L110.453 44.3644L110.457 44.3651L110.809 42.3963ZM113.497 43.4603L114.644 41.8218L114.644 41.8218L113.497 43.4603ZM115.737 45.0843L117.151 43.67L117.051 43.5695L116.937 43.4843L115.737 45.0843ZM116.689 49.0603L114.9 48.1658L114.877 48.2117L114.857 48.2586L116.689 49.0603ZM113.665 51.1323L113.547 49.1357L111.52 49.255L111.67 51.28L113.665 51.1323ZM113.105 53.3723L114.519 54.7865L114.547 54.7582L114.574 54.7288L113.105 53.3723ZM108.625 55.0523L108.479 57.0469L108.674 57.0612L108.869 57.0373L108.625 55.0523ZM102.409 55.5563L101.49 53.7798L101.482 53.7842L101.473 53.7887L102.409 55.5563ZM101.009 59.9243L99.031 60.2209L99.0321 60.2284L101.009 59.9243ZM101.905 61.4363L100.491 62.8505L100.515 62.8749L100.54 62.8984L101.905 61.4363ZM103.809 63.1163L102.521 64.6461L102.54 64.6623L102.559 64.678L103.809 63.1163ZM106.105 65.1323L104.726 66.5805L104.742 66.5965L104.76 66.6121L106.105 65.1323ZM108.233 67.7083L109.941 66.6684L109.936 66.6601L108.233 67.7083ZM107.729 79.7483L105.961 78.8138L105.956 78.8231L107.729 79.7483ZM98.5449 87.4763L97.8076 85.6171L97.8021 85.6193L98.5449 87.4763ZM90.5145 86.8218C88.8308 86.8878 87.3294 86.6719 85.9876 86.2039L84.6701 89.9807C86.539 90.6326 88.5469 90.902 90.6712 90.8187L90.5145 86.8218ZM85.9613 86.1949C84.6094 85.7443 83.5849 85.1456 82.8237 84.4407L80.1061 87.3758C81.3608 88.5376 82.9124 89.3949 84.6964 89.9896L85.9613 86.1949ZM82.8511 84.4666C82.148 83.7905 81.7458 83.0581 81.5733 82.2453L77.6604 83.0753C78.0106 84.7264 78.8405 86.1594 80.0787 87.3499L82.8511 84.4666ZM81.5758 82.257C81.4234 81.5169 81.5272 80.7071 82.0466 79.7505L78.5312 77.8421C77.6318 79.4987 77.2877 81.2649 77.658 83.0636L81.5758 82.257ZM81.9894 79.849C82.2645 79.4046 83.0176 78.7686 85.687 79.3504L86.5388 75.4421C83.3842 74.7546 80.2546 75.0519 78.5883 77.7436L81.9894 79.849ZM85.7143 79.3561C87.9018 79.8011 89.5592 80.0768 90.5581 80.1222L90.7397 76.1263C90.0958 76.0971 88.7293 75.8875 86.5115 75.4364L85.7143 79.3561ZM90.562 80.1224C91.6326 80.1689 92.6832 80.0368 93.6345 79.6206L92.0312 75.956C91.7879 76.0624 91.3825 76.1543 90.7358 76.1262L90.562 80.1224ZM93.4575 79.6882C94.8974 79.2148 96.1346 78.6869 97.096 78.0773C98.0184 77.4923 98.9504 76.666 99.3289 75.4883L95.5208 74.2642C95.5634 74.1318 95.562 74.3135 94.9538 74.6992C94.3845 75.0603 93.4937 75.4657 92.2082 75.8883L93.4575 79.6882ZM99.3479 75.4257C99.6375 74.4121 99.4123 73.4502 98.9956 72.6648C98.5948 71.9095 97.9791 71.2337 97.2859 70.6271L94.6519 73.6374C95.1533 74.0762 95.3776 74.3804 95.4622 74.5397C95.5308 74.669 95.4362 74.5565 95.5018 74.3268L99.3479 75.4257ZM97.3254 70.6627C96.7842 70.1631 96.1897 69.6719 95.5449 69.1883L93.1449 72.3883C93.6947 72.8006 94.1829 73.2055 94.6123 73.6019L97.3254 70.6627ZM95.5449 69.1883C95.025 68.7984 94.6179 68.4318 94.3072 68.0928L91.3586 70.7957C91.8692 71.3527 92.4701 71.8822 93.1449 72.3883L95.5449 69.1883ZM94.0226 67.8366C92.3428 66.5935 91.0544 65.1955 90.1207 63.65L86.697 65.7185C87.9287 67.7571 89.5896 69.5323 91.6432 71.0519L94.0226 67.8366ZM90.1454 63.692C89.3052 62.2217 88.9616 60.6511 89.1132 58.923L85.1285 58.5735C84.9068 61.1015 85.4219 63.4881 86.6724 65.6765L90.1454 63.692ZM89.1132 58.923C89.2904 56.9038 89.6194 55.3445 90.0554 54.192L86.3143 52.7765C85.705 54.3867 85.3247 56.3367 85.1285 58.5735L89.1132 58.923ZM90.0616 54.1757C90.5292 52.9065 91.1009 51.822 91.7648 50.9053L88.525 48.5592C87.6208 49.8079 86.8859 51.2247 86.3082 52.7929L90.0616 54.1757ZM91.7637 50.9067C92.9583 49.2601 94.5168 47.9041 96.4744 46.8423L94.5673 43.3262C92.1196 44.6538 90.0941 46.3964 88.526 48.5578L91.7637 50.9067ZM96.4362 46.8625C98.9283 45.5798 100.798 44.8247 102.099 44.5073L101.151 40.6212C99.3908 41.0505 97.1908 41.9754 94.6056 43.306L96.4362 46.8625ZM102.059 44.5166C104.819 43.9033 107.612 43.8509 110.453 44.3644L111.165 40.4281C107.809 39.8217 104.479 39.8813 101.191 40.6119L102.059 44.5166ZM110.457 44.3651C111.264 44.5091 111.877 44.768 112.35 45.0987L114.644 41.8218C113.623 41.1072 112.445 40.6568 111.16 40.4274L110.457 44.3651ZM112.35 45.0987C113.078 45.6086 113.807 46.1371 114.537 46.6843L116.937 43.4843C116.173 42.9115 115.409 42.3573 114.644 41.8218L112.35 45.0987ZM114.323 46.4985C114.805 46.9805 114.963 47.3266 115.01 47.524C115.047 47.6811 115.049 47.8685 114.9 48.1658L118.478 49.9547C119.001 48.908 119.18 47.7607 118.9 46.5926C118.63 45.4646 117.976 44.4947 117.151 43.67L114.323 46.4985ZM114.857 48.2586C114.754 48.4934 114.6 48.684 114.347 48.8522L116.566 52.1804C117.434 51.6019 118.101 50.8217 118.521 49.8619L114.857 48.2586ZM114.347 48.8522C114.065 49.0406 113.807 49.1205 113.547 49.1357L113.782 53.1288C114.792 53.0694 115.729 52.7386 116.566 52.1804L114.347 48.8522ZM111.67 51.28C111.697 51.6342 111.669 51.8498 111.641 51.9632C111.615 52.0652 111.597 52.0574 111.635 52.0157L114.574 54.7288C115.558 53.663 115.754 52.2548 115.659 50.9845L111.67 51.28ZM111.691 51.958C111.311 52.3381 110.368 52.8231 108.381 53.0672L108.869 57.0373C111.137 56.7587 113.182 56.1238 114.519 54.7865L111.691 51.958ZM108.771 53.0576C107.181 52.9413 105.787 52.9216 104.613 53.0168C103.473 53.1092 102.377 53.3212 101.49 53.7798L103.328 57.3327C103.524 57.2314 104.005 57.0793 104.937 57.0037C105.834 56.9309 107.007 56.9393 108.479 57.0469L108.771 53.0576ZM101.473 53.7887C99.0513 55.0708 98.6535 57.7042 99.031 60.2209L102.987 59.6276C102.844 58.677 102.906 58.0913 103.011 57.7627C103.097 57.4967 103.204 57.3985 103.345 57.3238L101.473 53.7887ZM99.0321 60.2284C99.1968 61.2985 99.8111 62.1709 100.491 62.8505L103.319 60.022C103.147 59.8497 103.055 59.7231 103.009 59.6467C102.966 59.573 102.977 59.5664 102.986 59.6202L99.0321 60.2284ZM100.54 62.8984C101.13 63.4485 101.79 64.0312 102.521 64.6461L105.097 61.5864C104.409 61.0066 103.8 60.4694 103.27 59.9742L100.54 62.8984ZM102.559 64.678C103.256 65.2351 103.978 65.8685 104.726 66.5805L107.484 63.684C106.664 62.9027 105.855 62.1921 105.058 61.5545L102.559 64.678ZM104.76 66.6121C105.438 67.2291 106.028 67.9415 106.53 68.7565L109.936 66.6601C109.243 65.5337 108.414 64.5288 107.45 63.6524L104.76 66.6121ZM106.524 68.7482C108.141 71.4043 108.168 74.6367 105.961 78.8138L109.497 80.6827C112.143 75.6759 112.506 70.8815 109.941 66.6684L106.524 68.7482ZM105.956 78.8231C104.429 81.7499 101.787 84.0392 97.8076 85.6171L99.2821 89.3354C103.964 87.4787 107.445 84.6159 109.502 80.6734L105.956 78.8231ZM97.8021 85.6193C95.8525 86.3992 93.4654 86.8203 90.5929 86.8203V90.8203C93.843 90.8203 96.7573 90.3454 99.2877 89.3332L97.8021 85.6193ZM119.587 41.6123L118.037 40.3489L117.766 40.6819L117.655 41.0969L119.587 41.6123ZM122.555 39.9323L122.363 37.9416H122.363L122.555 39.9323ZM125.915 40.4923L125.097 42.3173L125.124 42.3292L125.151 42.3403L125.915 40.4923ZM128.659 42.6203L127.074 43.8397L127.1 43.8737L127.128 43.9066L128.659 42.6203ZM129.947 45.7563L131.857 46.3491L131.967 45.9962L131.943 45.6275L129.947 45.7563ZM129.443 47.3803L127.533 46.7875L127.208 47.8349L127.917 48.6721L129.443 47.3803ZM130.507 48.5563L129.093 49.9705L129.135 50.012L129.179 50.0511L130.507 48.5563ZM131.067 49.9563L129.071 50.0737L129.091 50.4227L129.229 50.7441L131.067 49.9563ZM128.267 56.1723L126.535 55.1723L126.534 55.1753L128.267 56.1723ZM125.523 60.8763L123.801 59.8588L123.798 59.8649L123.794 59.871L125.523 60.8763ZM123.227 65.1883L121.418 64.3367L119.623 68.151L123.712 67.1286L123.227 65.1883ZM124.571 64.9083L124.243 62.9355L124.571 64.9083ZM125.915 64.6283L126.4 66.5686L126.413 66.5654L125.915 64.6283ZM131.515 63.5643V65.5643H131.554L131.592 65.5628L131.515 63.5643ZM133.923 63.8443L134.652 61.9818L134.621 61.9695L134.589 61.9583L133.923 63.8443ZM136.611 66.9803L138.452 67.7614L138.633 67.3363L138.609 66.8751L136.611 66.9803ZM130.731 72.1323L131.784 73.8328L131.802 73.8218L131.819 73.8104L130.731 72.1323ZM128.827 73.3643L127.689 71.7199L127.678 71.7276L127.667 71.7355L128.827 73.3643ZM123.955 76.8363L122.795 75.2075L122.477 75.4337L122.268 75.7625L123.955 76.8363ZM123.395 78.0123L121.48 77.4376L121.395 77.7187V78.0123H123.395ZM123.395 78.0683H121.395V78.4534L121.538 78.8111L123.395 78.0683ZM124.795 78.8523L124.067 80.7148L124.08 80.7199L124.093 80.7249L124.795 78.8523ZM127.091 79.7483L127.912 77.9244L127.883 77.9112L127.853 77.8989L127.091 79.7483ZM131.067 82.4923L132.547 81.1469L132.515 81.1117L132.482 81.0781L131.067 82.4923ZM131.795 84.3403L129.814 84.6105L129.815 84.6231L131.795 84.3403ZM131.403 86.5243L129.655 85.553L129.634 85.591L129.614 85.6298L131.403 86.5243ZM129.555 87.9803L130.188 89.8776L129.555 87.9803ZM125.803 87.5883L124.991 89.4159L125.067 89.4494L125.145 89.4767L125.803 87.5883ZM117.459 80.5883L118.956 79.2615L116.538 76.534L115.536 80.0388L117.459 80.5883ZM116.339 84.4523L114.421 83.8879L114.415 83.9069L114.41 83.926L116.339 84.4523ZM115.219 88.2603L117.049 89.0675L117.094 88.9659L117.127 88.8599L115.219 88.2603ZM111.299 90.0523L111.372 88.0536L111.336 88.0523H111.299V90.0523ZM109.059 89.5483L108.124 91.3158L108.144 91.3267L108.165 91.3371L109.059 89.5483ZM107.939 88.2043L109.9 87.812L109.871 87.6633L109.819 87.5208L107.939 88.2043ZM107.771 85.0123L105.912 84.275L105.899 84.3071L105.888 84.3396L107.771 85.0123ZM109.395 79.8603L111.365 80.2078L111.367 80.1982L109.395 79.8603ZM109.843 77.5643L111.741 78.1967L112.232 76.7223L110.925 75.8819L109.843 77.5643ZM107.995 74.3723L109.979 74.1179L109.975 74.0891L109.971 74.0603L107.995 74.3723ZM109.003 70.5643L108.301 68.6916L107.786 68.8849L107.442 69.3149L109.003 70.5643ZM111.579 69.5563L112.367 71.3946L113.383 70.9594L113.555 69.8682L111.579 69.5563ZM112.699 64.9643L114.605 65.5707L114.606 65.5677L112.699 64.9643ZM114.827 57.2923L112.883 56.823L112.879 56.8389L112.876 56.8548L114.827 57.2923ZM117.011 49.9563L115.124 49.2933L115.122 49.3008L115.119 49.3083L117.011 49.9563ZM121.138 42.8756C121.665 42.228 122.187 41.9772 122.748 41.923L122.363 37.9416C120.609 38.1113 119.152 38.9805 118.037 40.3489L121.138 42.8756ZM122.748 41.923C123.552 41.8451 124.325 41.9709 125.097 42.3173L126.733 38.6672C125.341 38.0429 123.873 37.7954 122.363 37.9416L122.748 41.923ZM125.151 42.3403C125.895 42.6481 126.531 43.1338 127.074 43.8397L130.245 41.4008C129.294 40.1654 128.101 39.2324 126.68 38.6442L125.151 42.3403ZM127.128 43.9066C127.653 44.5312 127.906 45.1758 127.951 45.885L131.943 45.6275C131.84 44.0221 131.234 42.5759 130.191 41.3339L127.128 43.9066ZM128.037 45.1635L127.533 46.7875L131.353 47.9731L131.857 46.3491L128.037 45.1635ZM127.917 48.6721C128.347 49.181 128.741 49.6184 129.093 49.9705L131.922 47.1421C131.676 46.8968 131.361 46.5502 130.97 46.0884L127.917 48.6721ZM129.179 50.0511C129.137 50.0138 129.104 49.9749 129.08 49.9397C129.056 49.9052 129.045 49.8805 129.042 49.873C129.04 49.8662 129.045 49.8767 129.051 49.9104C129.058 49.9442 129.066 49.9975 129.071 50.0737L133.064 49.8388C133.008 48.8964 132.708 47.8368 131.836 47.0614L129.179 50.0511ZM129.229 50.7441C129.077 50.3905 129.1 50.1144 129.102 50.0817C129.107 50.0202 129.114 50.0217 129.089 50.1114C129.04 50.2899 128.927 50.6027 128.712 51.0809C128.286 52.025 127.57 53.3802 126.535 55.1723L129.999 57.1722C131.055 55.343 131.851 53.8515 132.359 52.7237C132.61 52.1658 132.819 51.6363 132.948 51.1662C133.012 50.9315 133.071 50.6571 133.092 50.3681C133.111 50.1079 133.113 49.6527 132.906 49.1684L129.229 50.7441ZM126.534 55.1753C125.679 56.6611 124.769 58.2222 123.801 59.8588L127.245 61.8937C128.219 60.245 129.138 58.6701 130.001 57.1692L126.534 55.1753ZM123.794 59.871C122.841 61.5115 122.046 63.0014 121.418 64.3367L125.037 66.0399C125.603 64.8365 126.339 63.4517 127.252 61.8815L123.794 59.871ZM123.712 67.1286C124.11 67.0292 124.505 66.9468 124.9 66.8811L124.243 62.9355C123.741 63.019 123.241 63.1233 122.742 63.248L123.712 67.1286ZM124.9 66.8811C125.401 66.7975 125.902 66.6932 126.4 66.5686L125.43 62.688C125.033 62.7873 124.637 62.8697 124.243 62.9355L124.9 66.8811ZM126.413 66.5654C129.214 65.8461 130.838 65.5643 131.515 65.5643V61.5643C130.251 61.5643 128.142 61.9917 125.418 62.6911L126.413 66.5654ZM131.592 65.5628C132.413 65.5312 132.942 65.6188 133.258 65.7302L134.589 61.9583C133.635 61.6217 132.559 61.5226 131.438 61.5657L131.592 65.5628ZM133.195 65.7067C133.847 65.9622 134.19 66.2301 134.365 66.4338C134.516 66.6101 134.599 66.8016 134.614 67.0854L138.609 66.8751C138.549 65.7402 138.147 64.6997 137.402 63.8307C136.68 62.9891 135.717 62.3983 134.652 61.9818L133.195 65.7067ZM134.77 66.1992C134.692 66.3827 134.36 66.8744 133.431 67.688C132.552 68.4586 131.3 69.3799 129.643 70.4541L131.819 73.8104C133.56 72.682 134.987 71.6432 136.067 70.6965C137.099 69.7928 138.008 68.8099 138.452 67.7614L134.77 66.1992ZM129.679 70.4317C128.88 70.9263 128.213 71.3568 127.689 71.7199L129.966 75.0086C130.412 74.6997 131.015 74.3089 131.784 73.8328L129.679 70.4317ZM127.667 71.7355L122.795 75.2075L125.116 78.465L129.988 74.993L127.667 71.7355ZM122.268 75.7625C121.931 76.2915 121.656 76.8509 121.48 77.4376L125.311 78.587C125.359 78.427 125.457 78.2023 125.643 77.91L122.268 75.7625ZM121.395 78.0123V78.0683H125.395V78.0123H121.395ZM121.538 78.8111C121.742 79.3209 122.091 79.6317 122.25 79.7631C122.445 79.9247 122.651 80.0521 122.824 80.1493C123.174 80.3455 123.603 80.5335 124.067 80.7148L125.524 76.9898C125.333 76.915 125.175 76.8487 125.047 76.7909C124.917 76.7323 124.83 76.6882 124.779 76.6593C124.719 76.6258 124.74 76.6318 124.8 76.6815C124.832 76.7081 124.897 76.765 124.972 76.8546C125.045 76.9409 125.161 77.0975 125.252 77.3255L121.538 78.8111ZM124.093 80.7249C124.976 81.0561 125.721 81.3468 126.33 81.5976L127.853 77.8989C127.193 77.6271 126.406 77.3204 125.498 76.9796L124.093 80.7249ZM126.271 81.5721C127.543 82.1447 128.667 82.9206 129.653 83.9065L132.482 81.0781C131.153 79.7493 129.626 78.6958 127.912 77.9244L126.271 81.5721ZM129.587 83.8376C129.585 83.8347 129.731 84.0035 129.814 84.6105L133.777 84.07C133.636 83.0344 133.297 81.9712 132.547 81.1469L129.587 83.8376ZM129.815 84.6231C129.868 84.989 129.81 85.2748 129.655 85.553L133.152 87.4956C133.744 86.4298 133.947 85.2595 133.775 84.0574L129.815 84.6231ZM129.614 85.6298C129.573 85.7127 129.452 85.9065 128.923 86.0829L130.188 89.8776C131.451 89.4567 132.562 88.6799 133.192 87.4187L129.614 85.6298ZM128.923 86.0829C128.669 86.1676 127.945 86.217 126.462 85.6999L125.145 89.4767C126.873 90.0795 128.65 90.3903 130.188 89.8776L128.923 86.0829ZM126.616 85.7606C124.665 84.8935 122.115 82.8245 118.956 79.2615L115.963 81.9151C119.225 85.5947 122.238 88.1923 124.991 89.4159L126.616 85.7606ZM115.536 80.0388C115.164 81.3407 114.792 82.6237 114.421 83.8879L118.258 85.0166C118.633 83.7422 119.008 82.4492 119.382 81.1377L115.536 80.0388ZM114.41 83.926C114.081 85.1317 113.715 86.3765 113.311 87.6606L117.127 88.8599C117.545 87.5307 117.926 86.2368 118.269 84.9785L114.41 83.926ZM113.389 87.453C113.313 87.6261 113.067 88.1152 111.372 88.0536L111.227 92.0509C113.638 92.1386 116.006 91.4331 117.049 89.0675L113.389 87.453ZM111.299 88.0523C110.759 88.0523 110.323 87.944 109.954 87.7594L108.165 91.3371C109.14 91.8246 110.197 92.0523 111.299 92.0523V88.0523ZM109.995 87.7807C109.856 87.7071 109.826 87.6635 109.84 87.6799C109.847 87.6887 109.861 87.7075 109.874 87.7356C109.888 87.764 109.896 87.791 109.9 87.812L105.978 88.5965C106.238 89.8933 107.107 90.7776 108.124 91.3158L109.995 87.7807ZM109.819 87.5208C109.686 87.1557 109.599 86.87 109.547 86.6551C109.492 86.4276 109.491 86.3416 109.491 86.3563H105.491C105.491 87.1408 105.751 88.0378 106.06 88.8877L109.819 87.5208ZM109.491 86.3563C109.491 86.2949 109.511 86.0865 109.655 85.6849L105.888 84.3396C105.658 84.9834 105.491 85.671 105.491 86.3563H109.491ZM109.63 85.7495C110.506 83.5417 111.106 81.6766 111.365 80.2078L107.426 79.5127C107.237 80.5826 106.754 82.1521 105.912 84.275L109.63 85.7495ZM111.367 80.1982C111.477 79.5511 111.568 79.0502 111.638 78.6893C111.719 78.2762 111.752 78.1629 111.741 78.1967L107.946 76.9318C107.86 77.1896 107.781 77.571 107.712 77.9232C107.633 78.3277 107.537 78.8628 107.424 79.5223L111.367 80.1982ZM110.925 75.8819C110.468 75.5883 110.106 75.1056 109.979 74.1179L106.012 74.6266C106.258 76.5509 107.128 78.1962 108.762 79.2466L110.925 75.8819ZM109.971 74.0603C109.834 73.1963 110.021 72.4939 110.565 71.8137L107.442 69.3149C106.194 70.8747 105.708 72.7109 106.02 74.6842L109.971 74.0603ZM109.706 72.4369C110.903 71.988 111.799 71.6382 112.367 71.3946L110.791 67.718C110.315 67.9224 109.493 68.2445 108.301 68.6916L109.706 72.4369ZM113.555 69.8682C113.76 68.5667 114.107 67.1355 114.605 65.5707L110.793 64.3579C110.246 66.0784 109.846 67.7085 109.604 69.2443L113.555 69.8682ZM114.606 65.5677C115.551 62.5832 116.277 59.9679 116.779 57.7297L112.876 56.8548C112.407 58.9473 111.715 61.4467 110.793 64.3608L114.606 65.5677ZM116.771 57.7615C117.276 55.671 117.985 53.2869 118.903 50.6042L115.119 49.3083C114.171 52.0763 113.424 54.5828 112.883 56.823L116.771 57.7615ZM118.898 50.6192C119.886 47.8085 120.76 44.9779 121.52 42.1276L117.655 41.0969C116.922 43.8466 116.078 46.5787 115.124 49.2933L118.898 50.6192ZM138.94 61.3243L140.61 62.4249L140.725 62.251L140.801 62.0573L138.94 61.3243ZM142.412 58.8043L142.888 60.7469L142.902 60.7433L142.917 60.7395L142.412 58.8043ZM147.228 58.9723L147.955 57.1091L147.943 57.1043L147.93 57.0996L147.228 58.9723ZM149.3 61.8843L151.208 62.4839L151.266 62.2984L151.288 62.1051L149.3 61.8843ZM147.732 66.7003L145.835 66.0678L145.831 66.0792L145.827 66.0907L147.732 66.7003ZM145.996 72.4683L147.915 73.0326L147.918 73.0228L147.921 73.0129L145.996 72.4683ZM143.42 83.2203L145.393 83.5491L145.403 83.4914L145.409 83.4333L143.42 83.2203ZM140.62 88.6523L140.228 86.6911L140.62 88.6523ZM139.556 88.8203L139.647 90.8182L139.712 90.8152L139.777 90.808L139.556 88.8203ZM137.988 89.4923L136.232 88.5346L137.988 89.4923ZM136.868 90.3883L136.195 88.5048L136.137 88.5256L136.08 88.55L136.868 90.3883ZM135.132 90.6683L135.25 88.6717L135.191 88.6683H135.132V90.6683ZM133.284 90.2203L134.136 88.4106L134.091 88.3897L134.046 88.3709L133.284 90.2203ZM131.66 89.0443L130.116 90.3157L130.129 90.3309L130.142 90.3458L131.66 89.0443ZM131.044 83.9483L132.961 84.5199L133.002 84.3815L133.023 84.2387L131.044 83.9483ZM135.58 68.4363L137.445 69.1579L137.45 69.147L137.454 69.136L135.58 68.4363ZM149.524 52.9243L149.924 54.8839L150.117 54.8445L150.299 54.7682L149.524 52.9243ZM145.044 52.5883L144.103 54.353L144.115 54.3593L144.127 54.3655L145.044 52.5883ZM143.084 50.4603L141.13 50.8851L141.132 50.8943L141.134 50.9035L143.084 50.4603ZM143.868 47.8283L145.436 49.0697L145.459 49.0407L145.481 49.011L143.868 47.8283ZM147.564 45.6443L147.365 43.6542L147.263 43.6644L147.163 43.6848L147.564 45.6443ZM150.42 45.7563L149.832 47.6678L150.031 47.7292L150.239 47.7481L150.42 45.7563ZM152.828 47.3803L150.961 48.0982L151.033 48.2851L151.141 48.454L152.828 47.3803ZM152.94 50.1803L151.102 49.3924L151.09 49.4205L151.079 49.449L152.94 50.1803ZM140.801 62.0573C140.958 61.6587 141.404 61.1102 142.888 60.7469L141.936 56.8617C139.761 57.3943 137.893 58.5258 137.079 60.5912L140.801 62.0573ZM142.917 60.7395C144.282 60.3834 145.462 60.446 146.526 60.8449L147.93 57.0996C146.008 56.3786 143.977 56.3292 141.907 56.869L142.917 60.7395ZM146.501 60.8354C147.036 61.0444 147.216 61.2391 147.265 61.3078C147.286 61.3383 147.341 61.4093 147.312 61.6634L151.288 62.1051C151.409 61.0153 151.193 59.9289 150.524 58.9888C149.882 58.0868 148.95 57.4975 147.955 57.1091L146.501 60.8354ZM147.392 61.2846C146.986 62.5766 146.467 64.1702 145.835 66.0678L149.629 67.3327C150.266 65.4223 150.793 63.8053 151.208 62.4839L147.392 61.2846ZM145.827 66.0907C145.223 67.9799 144.638 69.9243 144.072 71.9236L147.921 73.0129C148.475 71.0549 149.047 69.1539 149.637 67.3098L145.827 66.0907ZM144.077 71.9039C142.586 76.975 141.677 80.7167 141.432 83.0072L145.409 83.4333C145.611 81.5425 146.42 78.1162 147.915 73.0326L144.077 71.9039ZM141.447 82.8915C141.182 84.4847 140.851 85.5437 140.522 86.1819C140.185 86.8373 140.024 86.7319 140.228 86.6911L141.012 90.6134C142.523 90.3113 143.482 89.1699 144.078 88.0146C144.682 86.8421 145.098 85.3158 145.393 83.5491L141.447 82.8915ZM140.228 86.6911C139.904 86.7558 139.607 86.8023 139.335 86.8325L139.777 90.808C140.177 90.7636 140.589 90.6981 141.012 90.6134L140.228 86.6911ZM139.465 86.8223C138.477 86.8673 136.985 87.155 136.232 88.5346L139.744 90.45C139.677 90.5728 139.592 90.6712 139.507 90.7431C139.426 90.8123 139.36 90.8441 139.336 90.8546C139.313 90.8645 139.322 90.8573 139.378 90.8465C139.433 90.8358 139.521 90.8239 139.647 90.8182L139.465 86.8223ZM136.232 88.5346C136.24 88.5208 136.25 88.5056 136.262 88.491C136.275 88.4765 136.285 88.4671 136.291 88.4625C136.302 88.4531 136.281 88.4742 136.195 88.5048L137.541 92.2718C138.435 91.9524 139.242 91.3697 139.744 90.45L136.232 88.5346ZM136.08 88.55C135.875 88.6379 135.611 88.693 135.25 88.6717L135.015 92.6648C135.922 92.7182 136.816 92.5867 137.656 92.2266L136.08 88.55ZM135.132 88.6683C134.876 88.6683 134.55 88.6056 134.136 88.4106L132.433 92.0299C133.288 92.4323 134.193 92.6683 135.132 92.6683V88.6683ZM134.046 88.3709C133.704 88.2302 133.422 88.0263 133.179 87.7427L130.142 90.3458C130.795 91.1076 131.595 91.6877 132.523 92.0696L134.046 88.3709ZM133.204 87.7729C132.723 87.1884 132.443 86.256 132.961 84.5199L129.128 83.3767C128.376 85.8965 128.507 88.3615 130.116 90.3157L133.204 87.7729ZM133.023 84.2387C133.589 80.38 135.043 75.3667 137.445 69.1579L133.715 67.7146C131.264 74.0499 129.694 79.3778 129.065 83.6578L133.023 84.2387ZM137.454 69.136C138.589 66.0968 139.647 63.8858 140.61 62.4249L137.27 60.2236C136.068 62.048 134.886 64.5784 133.707 67.7365L137.454 69.136ZM149.124 50.9647C147.553 51.2854 146.57 51.1251 145.961 50.811L144.127 54.3655C145.833 55.2461 147.837 55.3098 149.924 54.8839L149.124 50.9647ZM145.985 50.8236C145.115 50.3596 145.039 50.0357 145.034 50.017L141.134 50.9035C141.503 52.5275 142.733 53.6223 144.103 54.353L145.985 50.8236ZM145.038 50.0354C145.015 49.9282 144.978 49.6481 145.436 49.0697L142.3 46.5869C141.339 47.8005 140.78 49.275 141.13 50.8851L145.038 50.0354ZM145.481 49.011C145.95 48.3708 146.703 47.8619 147.965 47.6037L147.163 43.6848C145.14 44.0986 143.429 45.0457 142.255 46.6455L145.481 49.011ZM147.763 47.6343C148.504 47.5603 148.96 47.5323 149.188 47.5323V43.5323C148.745 43.5323 148.118 43.5789 147.365 43.6542L147.763 47.6343ZM149.188 47.5323C149.251 47.5323 149.45 47.5504 149.832 47.6678L151.008 43.8447C150.419 43.6635 149.798 43.5323 149.188 43.5323V47.5323ZM150.239 47.7481C150.611 47.7818 150.773 47.8674 150.828 47.9044C150.864 47.9285 150.91 47.9657 150.961 48.0982L154.695 46.6623C154.372 45.8242 153.831 45.1054 153.064 44.5881C152.317 44.0838 151.462 43.8427 150.601 43.7645L150.239 47.7481ZM151.141 48.454C151.245 48.6178 151.34 48.8366 151.102 49.3924L154.778 50.9681C155.436 49.4332 155.457 47.7854 154.515 46.3065L151.141 48.454ZM151.079 49.449C150.974 49.7147 150.485 50.3516 148.75 51.0803L150.299 54.7682C152.297 53.9289 154.085 52.7365 154.802 50.9116L151.079 49.449ZM159.396 62.6683L158.887 64.6024L160.268 64.9658L161.06 63.7777L159.396 62.6683ZM167.18 57.6283L167.513 59.6005L167.52 59.5992L167.18 57.6283ZM171.156 57.2363L171.063 55.2384L171.061 55.2385L171.156 57.2363ZM175.244 58.3003L174.097 59.9387L174.11 59.9475L174.123 59.9561L175.244 58.3003ZM177.82 61.3243L179.65 60.5177L179.646 60.5072L179.641 60.4967L177.82 61.3243ZM178.268 69.4443L180.225 69.8605L180.226 69.854L178.268 69.4443ZM176.924 75.2683L178.865 75.7533L178.867 75.7453L176.924 75.2683ZM174.572 81.4843L172.79 80.5769L174.572 81.4843ZM170.484 87.2523L169.025 85.8844L170.484 87.2523ZM163.932 91.5083L163.207 89.6442L163.197 89.6483L163.932 91.5083ZM159.676 92.1803L159.976 90.2028L159.95 90.1989L159.924 90.1957L159.676 92.1803ZM155.756 89.9963L157.642 89.3306L155.751 83.9713L153.869 89.3341L155.756 89.9963ZM153.628 96.4363L151.718 95.8435L151.712 95.8629L151.707 95.8825L153.628 96.4363ZM151.052 102.708L152.142 104.385L152.565 104.11L152.807 103.668L151.052 102.708ZM148.308 103.772L147.903 101.814L147.871 101.82L147.839 101.828L148.308 103.772ZM145.116 103.604L145.789 101.721L145.759 101.71L145.728 101.7L145.116 103.604ZM142.876 101.7L144.679 100.835L144.658 100.791L144.635 100.748L142.876 101.7ZM143.212 93.4123L145.106 94.0549L145.107 94.0516L143.212 93.4123ZM145.788 86.2443L147.645 86.987L147.652 86.9691L147.659 86.9511L145.788 86.2443ZM147.02 82.9963L148.887 83.7142L148.896 83.6917L148.904 83.6689L147.02 82.9963ZM147.58 81.3723L145.71 80.663L145.696 80.7011L145.683 80.7398L147.58 81.3723ZM149.372 76.1083L147.455 75.5383L147.45 75.5556L147.445 75.573L149.372 76.1083ZM150.492 72.5243L152.39 73.1567L152.492 72.8488V72.5243H150.492ZM150.492 72.4683L148.542 72.025L148.492 72.2439V72.4683H150.492ZM152.228 67.2603L150.398 66.4548L150.394 66.4636L150.39 66.4724L152.228 67.2603ZM153.908 63.8443L152.494 62.4301L152.383 62.541L152.291 62.6679L153.908 63.8443ZM155.868 62.6683L156.302 64.6206H156.302L155.868 62.6683ZM158.164 62.3883V60.3883H158.121L158.077 60.3902L158.164 62.3883ZM158.332 62.3883L158.841 60.4541L158.591 60.3883H158.332V62.3883ZM163.652 72.0203L165.389 73.0125L165.594 72.6529L165.64 72.2411L163.652 72.0203ZM161.412 74.2043L160.331 72.5219L159.815 72.8532L159.574 73.4164L161.412 74.2043ZM160.908 75.3803L159.07 74.5924L159.055 74.6271L159.042 74.6623L160.908 75.3803ZM159.844 78.3483L157.947 77.7158L159.844 78.3483ZM158.724 81.3163L156.882 80.537L156.357 81.7778L157.31 82.7305L158.724 81.3163ZM159.564 82.3803L157.816 83.3516L159.018 85.5156L160.881 83.8854L159.564 82.3803ZM165.276 75.1563L167.01 76.1532L167.021 76.1337L167.032 76.114L165.276 75.1563ZM166.564 71.4603L164.597 71.1025L164.591 71.1315L164.587 71.1607L166.564 71.4603ZM166.732 69.1083L164.835 69.7407L164.835 69.7407L166.732 69.1083ZM165.444 68.8283L166.339 70.6171L166.388 70.5923L166.437 70.5648L165.444 68.8283ZM164.884 69.2203L163.47 67.806L163.47 67.8061L164.884 69.2203ZM164.94 69.2203L166.467 70.5121L163.74 67.6203L164.94 69.2203ZM164.044 70.5083L165.793 71.4795L165.814 71.4416L165.833 71.4027L164.044 70.5083ZM161.06 63.7777C162.621 61.4373 164.733 60.0689 167.513 59.6005L166.848 55.6561C162.982 56.3076 159.905 58.2993 157.732 61.5589L161.06 63.7777ZM167.52 59.5992C168.496 59.431 169.734 59.3063 171.251 59.234L171.061 55.2385C169.443 55.3156 168.03 55.4522 166.84 55.6573L167.52 59.5992ZM171.249 59.2341C172.493 59.1762 173.4 59.4509 174.097 59.9387L176.391 56.6618C174.848 55.5816 173.03 55.147 171.063 55.2384L171.249 59.2341ZM174.123 59.9561C174.986 60.5408 175.597 61.2664 176 62.1519L179.641 60.4967C178.924 58.9181 177.818 57.6278 176.366 56.6444L174.123 59.9561ZM175.99 62.1308C176.741 63.8348 176.928 66.0873 176.311 69.0345L180.226 69.854C180.953 66.3799 180.841 63.2191 179.65 60.5177L175.99 62.1308ZM176.312 69.028C175.944 70.7585 175.501 72.6792 174.982 74.7912L178.867 75.7453C179.393 73.6013 179.846 71.6394 180.225 69.8605L176.312 69.028ZM174.984 74.7832C174.5 76.7179 173.772 78.6487 172.79 80.5769L176.355 82.3916C177.464 80.2132 178.303 78 178.865 75.7533L174.984 74.7832ZM172.79 80.5769C171.836 82.4515 170.585 84.2208 169.025 85.8844L171.943 88.6201C173.744 86.6997 175.218 84.6237 176.355 82.3916L172.79 80.5769ZM169.025 85.8844C167.582 87.4234 165.665 88.6886 163.207 89.6443L164.657 93.3723C167.576 92.2373 170.026 90.6652 171.943 88.6201L169.025 85.8844ZM163.197 89.6483C161.799 90.2009 160.749 90.32 159.976 90.2028L159.377 94.1577C161.067 94.4138 162.855 94.085 164.668 93.3682L163.197 89.6483ZM159.924 90.1957C158.822 90.0579 158.23 89.856 157.969 89.7091L156.008 93.1954C156.941 93.7206 158.141 94.0039 159.428 94.1648L159.924 90.1957ZM157.969 89.7091C157.785 89.6059 157.702 89.4992 157.642 89.3306L153.87 90.6619C154.259 91.7627 154.997 92.6266 156.008 93.1954L157.969 89.7091ZM153.869 89.3341C153.114 91.4852 152.397 93.655 151.718 95.8435L155.538 97.0291C156.203 94.8869 156.905 92.7633 157.644 90.6584L153.869 89.3341ZM151.707 95.8825C151.112 97.9463 150.309 99.9005 149.298 101.748L152.807 103.668C153.961 101.559 154.875 99.3315 155.55 96.99L151.707 95.8825ZM149.962 101.031C149.468 101.353 148.799 101.628 147.903 101.814L148.714 105.731C149.983 105.468 151.143 105.035 152.142 104.385L149.962 101.031ZM147.839 101.828C147.133 101.998 146.466 101.963 145.789 101.721L144.444 105.488C145.857 105.992 147.318 106.069 148.778 105.716L147.839 101.828ZM145.728 101.7C145.17 101.521 144.874 101.241 144.679 100.835L141.073 102.566C141.775 104.027 142.972 105.016 144.504 105.508L145.728 101.7ZM144.635 100.748C144.318 100.162 144.148 99.5037 144.148 98.7323H140.148C140.148 100.126 140.464 101.446 141.118 102.653L144.635 100.748ZM144.148 98.7323C144.148 97.5769 144.435 96.0341 145.106 94.0549L141.318 92.7697C140.571 94.9718 140.148 96.9756 140.148 98.7323H144.148ZM145.107 94.0516C146.149 90.9648 146.994 88.6161 147.645 86.987L143.931 85.5015C143.239 87.2324 142.367 89.6624 141.317 92.773L145.107 94.0516ZM147.659 86.9511C148.294 85.2696 148.703 84.1929 148.887 83.7142L145.154 82.2783C144.964 82.7703 144.551 83.859 143.917 85.5375L147.659 86.9511ZM148.904 83.6689C149.096 83.1321 149.287 82.5773 149.478 82.0047L145.683 80.7398C145.5 81.2872 145.318 81.8151 145.137 82.3236L148.904 83.6689ZM149.45 82.0816C150.281 79.891 150.903 78.072 151.299 76.6436L147.445 75.573C147.095 76.8325 146.522 78.5228 145.71 80.663L149.45 82.0816ZM151.289 76.6782C151.696 75.311 152.063 74.1382 152.39 73.1567L148.595 71.8918C148.25 72.9263 147.87 74.1429 147.455 75.5383L151.289 76.6782ZM152.492 72.5243V72.4683H148.492V72.5243H152.492ZM152.443 72.9115C152.785 71.4058 153.322 69.7856 154.067 68.0481L150.39 66.4724C149.567 68.3936 148.947 70.2454 148.542 72.025L152.443 72.9115ZM154.059 68.0657C154.464 67.1449 154.797 66.4223 155.059 65.8889C155.19 65.6222 155.298 65.4141 155.385 65.2583C155.428 65.1808 155.462 65.122 155.488 65.0791C155.516 65.0344 155.528 65.0178 155.526 65.0206L152.291 62.6679C152.029 63.0286 151.747 63.559 151.47 64.1236C151.172 64.7289 150.814 65.509 150.398 66.4548L154.059 68.0657ZM155.323 65.2585C155.769 64.8124 156.099 64.6659 156.302 64.6206L155.434 60.7159C154.294 60.9693 153.317 61.6068 152.494 62.4301L155.323 65.2585ZM156.302 64.6206C156.836 64.502 157.482 64.4198 158.251 64.3864L158.077 60.3902C157.129 60.4314 156.245 60.5359 155.434 60.7159L156.302 64.6206ZM158.164 64.3883H158.332V60.3883H158.164V64.3883ZM157.823 64.3224L158.887 64.6024L159.905 60.7341L158.841 60.4541L157.823 64.3224ZM161.916 71.028C161.676 71.4476 161.202 71.9618 160.331 72.5219L162.494 75.8866C163.713 75.1027 164.733 74.1609 165.389 73.0125L161.916 71.028ZM159.574 73.4164L159.07 74.5924L162.747 76.1681L163.251 74.9921L159.574 73.4164ZM159.042 74.6623C158.657 75.6618 158.292 76.6797 157.947 77.7158L161.742 78.9807C162.068 78.0008 162.413 77.04 162.775 76.0982L159.042 74.6623ZM157.947 77.7158C157.627 78.6746 157.272 79.6149 156.882 80.537L160.566 82.0955C160.997 81.0763 161.389 80.038 161.742 78.9807L157.947 77.7158ZM157.31 82.7305C157.597 83.0177 157.746 83.2258 157.816 83.3516L161.313 81.409C161.009 80.8627 160.598 80.3615 160.139 79.9021L157.31 82.7305ZM160.881 83.8854C163.172 81.8807 165.208 79.287 167.01 76.1532L163.543 74.1593C161.91 76.9989 160.138 79.2211 158.247 80.8751L160.881 83.8854ZM167.032 76.114C167.802 74.7028 168.316 73.2497 168.542 71.7599L164.587 71.1607C164.439 72.1349 164.095 73.1457 163.521 74.1986L167.032 76.114ZM168.532 71.818C168.65 71.1672 168.734 70.5843 168.769 70.0908C168.799 69.679 168.821 69.0505 168.63 68.4758L164.835 69.7407C164.782 69.5827 164.785 69.4931 164.787 69.5441C164.789 69.5785 164.79 69.6611 164.779 69.8058C164.759 70.0963 164.702 70.5213 164.597 71.1025L168.532 71.818ZM168.63 68.4758C168.507 68.107 168.281 67.635 167.846 67.2437C167.37 66.8147 166.775 66.6043 166.172 66.6043V70.6043C165.831 70.6043 165.46 70.4778 165.17 70.2169C164.922 69.9936 164.846 69.7736 164.835 69.7407L168.63 68.4758ZM166.172 66.6043C165.501 66.6043 164.916 66.8269 164.452 67.0918L166.437 70.5648C166.496 70.5309 166.396 70.6043 166.172 70.6043V66.6043ZM164.55 67.0394C164.168 67.2302 163.797 67.4795 163.47 67.806L166.299 70.6345C166.271 70.6624 166.272 70.6504 166.339 70.6171L164.55 67.0394ZM163.47 67.8061C163.437 67.8393 163.362 67.9144 163.288 68.0029C163.279 68.0139 163.14 68.1742 163.025 68.4046C162.989 68.4753 162.931 68.6008 162.885 68.766C162.845 68.9119 162.773 69.2307 162.84 69.6317C162.918 70.1024 163.184 70.6214 163.704 70.968C164.155 71.2689 164.597 71.3043 164.814 71.3043C165.216 71.3043 165.515 71.1788 165.562 71.1599C165.666 71.1182 165.746 71.0763 165.785 71.0548C165.867 71.0099 165.932 70.9673 165.962 70.9474C166.03 70.9024 166.094 70.8552 166.14 70.8203L163.74 67.6203C163.712 67.6413 163.718 67.6361 163.743 67.6192C163.752 67.6132 163.8 67.5811 163.87 67.5432C163.903 67.5252 163.977 67.4859 164.077 67.446C164.119 67.4289 164.415 67.3043 164.814 67.3043C165.03 67.3043 165.472 67.3395 165.922 67.6399C166.442 67.9861 166.707 68.5043 166.785 68.9742C166.852 69.3743 166.78 69.6921 166.74 69.8366C166.694 70.0005 166.637 70.1245 166.602 70.1934C166.534 70.3302 166.465 70.4273 166.439 70.4634C166.405 70.5098 166.377 70.5447 166.361 70.5636C166.311 70.6241 166.276 70.6572 166.299 70.6345L163.47 67.8061ZM163.414 67.9284C162.948 68.4791 162.54 69.0446 162.255 69.6138L165.833 71.4027C165.922 71.2253 166.112 70.9321 166.467 70.5121L163.414 67.9284ZM162.296 69.537C161.918 70.2179 161.75 71.0335 161.665 71.7994L165.64 72.2411C165.67 71.9736 165.707 71.7773 165.742 71.6402C165.779 71.4983 165.805 71.458 165.793 71.4795L162.296 69.537Z" fill="black" mask="url(#path-2-outside-1_273_16351)"/>
<defs>
<linearGradient id="paint0_linear_273_16351" x1="115.684" y1="5.99331" x2="131.263" y2="143.815" gradientUnits="userSpaceOnUse">
<stop stop-color="#482828"/>
<stop offset="1" stop-color="#3F333B"/>
</linearGradient>
<linearGradient id="paint1_linear_273_16351" x1="196.95" y1="206.563" x2="2.50125" y2="142.298" gradientUnits="userSpaceOnUse">
<stop stop-color="#7A5054"/>
<stop offset="1" stop-color="#A27270"/>
</linearGradient>
<linearGradient id="paint2_linear_273_16351" x1="172.393" y1="21.3461" x2="34.6615" y2="132.296" gradientUnits="userSpaceOnUse">
<stop stop-color="#5B4544"/>
<stop offset="1" stop-color="#895E61"/>
</linearGradient>
<linearGradient id="paint3_linear_273_16351" x1="185.07" y1="247.573" x2="-39.3181" y2="121.784" gradientUnits="userSpaceOnUse">
<stop stop-color="#C29E9B"/>
<stop offset="1" stop-color="#C4B4AE"/>
</linearGradient>
<linearGradient id="paint4_linear_273_16351" x1="128.162" y1="37.8826" x2="106.895" y2="108.48" gradientUnits="userSpaceOnUse">
<stop stop-color="#FBFBFC" stop-opacity="0.792157"/>
<stop offset="1" stop-color="#F9F9FB" stop-opacity="0.85098"/>
</linearGradient>
<linearGradient id="paint5_linear_273_16351" x1="60.9956" y1="128.026" x2="138.529" y2="-26.6598" gradientUnits="userSpaceOnUse">
<stop stop-color="#F08B4C"/>
<stop offset="1" stop-color="#894B2C"/>
</linearGradient>
</defs>
</svg>
