<svg width="261" height="144" viewBox="0 0 261 144" fill="none" xmlns="http://www.w3.org/2000/svg">
<path d="M0 0H126.873H147.641H260.493C260.731 0.378103 260.812 0.693828 260.833 1.13536C260.973 4.05216 260.863 7.0229 260.865 9.94419V26.5606C260.864 28.9919 261.22 35.4866 260.78 37.5672C260.742 37.7441 260.678 37.911 260.603 38.0747L260.593 38.6856C260.766 39.1045 260.828 39.4624 260.841 39.913C261.09 48.9106 260.983 142.936 260.683 143.667C260.633 143.788 260.569 143.894 260.493 144H0V0ZM126.873 0C126.852 0.622605 126.823 1.07499 127.09 1.65384C127.122 1.72472 127.149 1.7982 127.179 1.87022C127.26 2.06364 127.218 2.0802 127.144 2.28415C126.438 2.32323 125.688 2.31443 124.995 2.45873C120.116 2.42254 115.374 3.09511 110.534 3.54398C104.992 4.05799 99.4261 4.13646 93.8796 4.75769C89.6308 5.23354 85.4382 6.23954 81.1887 6.76339C73.3446 7.73034 57.5279 8.27575 51.133 11.8822L50.5125 12.2302C52.8132 15.222 56.5235 33.8699 56.5952 38.6899L56.8166 39.0283C56.4698 40.1011 55.4244 44.9796 55.7594 45.8719C56.4423 46.4277 57.7811 46.5369 57.8727 47.5315C57.959 48.47 56.487 52.7183 56.1649 53.9508C54.0103 62.1958 52.1633 70.7983 54.922 79.1661C55.5195 80.9785 56.3933 83.0359 57.8261 84.3567C58.4198 84.9046 59.1714 85.3639 59.8343 85.8273C61.4936 87.2268 63.1704 88.8621 64.9829 90.0521C69.6867 93.1415 75.0367 94.277 80.3854 95.6748C82.6183 96.2582 84.8215 96.9592 87.0545 97.5393C86.5278 96.792 84.6539 94.608 84.6985 93.8177C88.4842 97.8521 92.6719 101.127 97.0132 104.531C99.4261 106.423 101.851 108.502 104.557 109.962C109.146 111.18 113.454 113.022 118.147 113.994C121.896 114.78 125.673 115.405 129.476 115.868C132.686 116.268 135.978 116.53 139.151 117.146C141.059 116.754 142.999 116.391 144.805 115.644C147.503 114.24 150.079 112.949 153.142 112.595C160.361 111.495 170.102 102.766 174.679 97.421C177.34 94.3142 186.551 81.3128 186.266 77.6062L186.863 77.4322L187.138 77.6474C187.385 78.5918 187.062 79.6806 186.863 80.6125C185.84 85.4069 183.803 89.5217 181.353 93.7299C177.138 100.97 170.355 106.996 163.25 111.288C160.326 113.054 157.235 114.56 154.235 116.191C152.093 117.357 149.576 119.397 147.247 120.012C156.327 119.886 166.92 119.395 175.667 116.949C185.291 114.257 195.226 104.064 200.024 95.4993C201.846 92.2452 203.611 88.9415 205.034 85.4897C207.844 78.6709 212.422 63.6312 213.261 56.4984C213.515 54.3386 213.553 52.0366 212.952 49.9279C211.558 45.0281 207.773 45.5244 204.112 43.4523C202.106 42.3173 201.76 40.6279 201.188 38.5591C201.287 38.5128 201.381 38.4637 201.471 38.4042C204.555 36.3861 209.882 22.08 210.66 18.1365C211.351 18.4832 211.598 18.8777 211.838 19.6059C212.262 20.8902 212.328 22.7626 211.731 23.997C212.1 25.3858 211.515 26.8922 210.825 28.0883C209.586 30.2374 207.822 31.9322 207.105 34.3652C213.84 36.1837 234.293 41.6732 237.815 47.8191C238.024 48.184 238.107 48.3964 238.074 48.8128C238.709 49.0882 239.428 49.4163 240.124 49.169C240.629 48.99 240.945 48.6542 241.177 48.1869C246.576 45.799 249.6 42.7086 253.579 38.5566C255.15 38.4679 256.706 38.3398 257.973 39.4716C258.559 39.9954 258.876 40.7046 259.167 41.4197C259.199 41.4002 259.231 41.3815 259.261 41.361C260.117 40.7887 260.416 39.6417 260.593 38.6856L260.603 38.0747C260.678 37.911 260.742 37.7441 260.78 37.5672C261.22 35.4866 260.864 28.9919 260.865 26.5606V9.94419C260.863 7.0229 260.973 4.05216 260.833 1.13536C260.812 0.693828 260.731 0.378103 260.493 0H147.641H126.873ZM0 0V144H260.493C260.569 143.894 260.633 143.788 260.683 143.667C260.983 142.936 261.09 48.9106 260.841 39.913C260.828 39.4624 260.766 39.1045 260.593 38.6856C260.416 39.6417 260.117 40.7887 259.261 41.361C259.231 41.3815 259.199 41.4002 259.167 41.4197C258.876 40.7046 258.559 39.9954 257.973 39.4716C256.706 38.3398 255.15 38.4679 253.579 38.5566C249.6 42.7086 246.576 45.799 241.177 48.1869C240.945 48.6542 240.629 48.99 240.124 49.169C239.428 49.4163 238.709 49.0882 238.074 48.8128C240.197 53.6091 237.437 85.0982 236.55 92.1559C236.268 94.2828 235.905 96.3956 235.462 98.4943C235.266 99.4386 234.801 100.625 234.792 101.561C232.677 102.175 230.463 104.296 229.077 105.924C229.839 106.492 230.813 107.249 230.959 108.253C230.963 108.282 230.962 108.311 230.964 108.341C230.855 108.967 230.689 109.35 230.142 109.738C230.062 109.795 229.979 109.848 229.895 109.898C230.344 111.088 229.885 112.526 229.389 113.638C227.711 117.401 222.94 121.634 222.423 125.57C222.409 125.676 222.419 125.632 222.385 125.731C221.669 126.459 219.532 127.108 218.532 127.508C212.228 130.026 205.483 131.593 198.961 133.438C185.512 137.241 172.078 139.627 158.207 141.226C151.98 141.943 145.601 142.778 139.346 143.078C136.987 143.185 134.628 143.259 132.267 143.301C129.907 143.343 127.546 143.352 125.185 143.328C122.825 143.305 120.465 143.249 118.105 143.16C115.746 143.071 113.388 142.95 111.032 142.796C108.677 142.642 106.324 142.455 103.973 142.236C101.622 142.018 99.2745 141.767 96.9306 141.482C94.5868 141.199 92.2473 140.883 89.9123 140.534C87.5773 140.186 85.2475 139.806 82.9229 139.393C80.598 138.98 78.2793 138.535 75.9668 138.058C73.6544 137.581 71.3489 137.073 69.0505 136.532C66.752 135.991 64.4613 135.419 62.1786 134.815C59.8958 134.211 57.6218 133.576 55.3566 132.91C53.0913 132.242 50.8356 131.545 48.5895 130.816C46.3434 130.086 44.1077 129.326 41.8825 128.536C39.6573 127.745 37.4434 126.924 35.2408 126.071C33.0382 125.219 30.8477 124.337 28.6693 123.425C27.7405 121.111 27.3786 118.554 27.1473 116.084C25.7785 117.022 24.6951 118.396 23.4909 119.534C22.7956 120.19 21.4466 121.593 20.4324 121.563C19.9094 120.91 19.8521 117.759 19.7404 116.825C17.146 116.642 14.0296 116.225 11.7808 114.825C10.3646 113.944 9.84149 113.019 9.47026 111.416C9.19034 109.018 8.82374 106.557 8.25506 104.209C7.74383 102.098 7.05027 100.004 6.6445 97.872C4.2127 91.8927 2.38973 72.0392 2.48671 64.9173C2.07458 62.629 2.14078 60.0634 1.9456 57.7315C1.74327 55.314 1.33025 52.9207 1.11893 50.5059C0.938127 48.4397 0.945037 46.333 0.899668 44.259C0.848205 43.4155 0.802526 42.5717 0.762631 41.7276C0.706861 40.4524 0.499758 39.0266 1.42546 38.0129C4.80531 34.1645 28.6923 23.5993 34.6486 21.0702C38.0576 19.6227 44.0845 17.518 46.9389 15.524C48.2173 14.5156 49.1892 13.1925 50.5125 12.2302L51.133 11.8822C57.5279 8.27575 73.3446 7.73034 81.1887 6.76339C85.4382 6.23954 89.6308 5.23354 93.8796 4.75769C99.4261 4.13646 104.992 4.05799 110.534 3.54398C115.374 3.09511 120.116 2.42254 124.995 2.45873C125.688 2.31443 126.438 2.32323 127.144 2.28415C127.218 2.0802 127.26 2.06364 127.179 1.87022C127.149 1.7982 127.122 1.72472 127.09 1.65384C126.823 1.07499 126.852 0.622605 126.873 0H0Z" fill="url(#paint0_linear_273_16354)"/>
<path d="M144.805 115.644C147.503 114.24 150.079 112.949 153.142 112.595C152.794 113.378 150.744 114.19 149.961 114.491C148.279 115.139 146.608 115.541 144.805 115.644Z" fill="#644A49"/>
<path d="M104.557 109.962C109.146 111.18 113.454 113.022 118.147 113.994C121.896 114.78 125.673 115.405 129.476 115.868C132.686 116.268 135.978 116.53 139.151 117.146C137.235 117.668 135.421 117.971 133.438 118.084C124.49 118.596 111.354 116.033 104.557 109.962Z" fill="#644A49"/>
<path d="M20.1741 50.2975C20.8926 50.331 22.6998 50.1112 23.1297 50.5521C23.2327 51.2467 23.2309 52.0241 23.4934 52.6762C23.6127 55.3826 23.236 58.2053 23.1711 60.9253C23.0768 64.8771 23.2783 68.8298 23.4972 72.7743C24.0199 82.1926 25.5945 91.5037 26.1499 100.906C20.753 103.539 16.2137 107.471 11.0223 110.416C11.0219 110.387 11.0204 110.358 11.0209 110.329C11.0822 106.303 20.4155 100.17 23.1977 97.4185L21.7633 68.4503C21.4555 62.5339 21.3869 56.087 20.1741 50.2975Z" fill="#7A6D7F"/>
<path d="M31.8528 104.862C35.304 106.477 38.7368 108.379 42.2826 109.755C46.7179 111.477 51.396 112.731 55.9587 114.072C64.1947 116.575 72.5313 118.676 80.9686 120.375C89.4059 122.074 97.905 123.364 106.466 124.246C112.315 124.79 118.155 124.816 124.014 125.11C123.521 126.766 123.062 128.162 121.433 129.04C119.639 130.005 117.399 129.99 115.464 130.617C111.283 130.518 107.024 129.808 102.861 129.369C76.9281 126.634 53.1838 119.81 29.3046 109.407C30.0718 107.853 30.9869 106.363 31.8528 104.862Z" fill="#B6908F"/>
<path d="M124.014 125.11C126.794 124.951 129.641 125.057 132.43 125.015C136.959 124.945 141.483 124.766 146.003 124.479C167.693 123.12 192.204 118.925 212.779 111.886C217.226 110.364 221.354 108.129 225.727 106.464C226.75 106.074 228.036 105.455 229.077 105.924C229.839 106.492 230.813 107.249 230.959 108.253C230.963 108.282 230.962 108.311 230.964 108.341C230.855 108.967 230.689 109.35 230.142 109.738C230.062 109.795 229.979 109.848 229.895 109.898C228.368 112.181 221.436 114.276 218.752 115.239C205.45 120.014 192.526 123.882 178.651 126.627C174.49 127.457 170.311 128.179 166.113 128.795C161.916 129.411 157.706 129.92 153.482 130.321C149.259 130.722 145.028 131.015 140.79 131.201C136.552 131.387 132.312 131.464 128.07 131.433C123.908 131.368 119.567 131.321 115.464 130.617C117.399 129.99 119.639 130.005 121.433 129.04C123.062 128.162 123.521 126.766 124.014 125.11Z" fill="url(#paint1_linear_273_16354)"/>
<path d="M1.42546 38.0129C4.80531 34.1645 28.6923 23.5993 34.6486 21.0702C38.0576 19.6227 44.0845 17.518 46.9389 15.524C46.1469 17.0153 45.3264 18.1927 44.1951 19.4456C46.1138 22.3287 52.9133 32.5134 52.3434 35.5529C52.2759 35.9134 51.9272 36.2394 51.6335 36.4315C51.4194 36.5714 51.1947 36.6978 50.9717 36.8228C44.5628 38.6069 38.7964 41.2236 33.0056 44.4978C29.946 46.2277 27.0013 48.1717 23.8189 49.6688L23.7671 49.6927C23.7009 50.6851 23.666 51.6961 23.4934 52.6762C23.2309 52.0241 23.2327 51.2467 23.1297 50.5521C22.6998 50.1112 20.8926 50.331 20.1741 50.2975C15.83 48.9943 2.94483 39.9468 1.24108 40.2718C0.522501 41.3218 1.59433 43.2549 0.942519 44.2038C0.929328 44.223 0.913949 44.2406 0.899668 44.259C0.848205 43.4155 0.802526 42.5717 0.762631 41.7276C0.706861 40.4524 0.499758 39.0266 1.42546 38.0129Z" fill="#92797B"/>
<path d="M1.42546 38.0129C4.80531 34.1645 28.6923 23.5993 34.6486 21.0702C38.0576 19.6227 44.0845 17.518 46.9389 15.524C46.1469 17.0153 45.3264 18.1927 44.1951 19.4456C46.1138 22.3287 52.9133 32.5134 52.3434 35.5529C52.2759 35.9134 51.9272 36.2394 51.6335 36.4315C51.4194 36.5714 51.1947 36.6978 50.9717 36.8228C49.695 35.6842 48.5291 33.1148 47.3531 31.672C45.0656 28.8651 42.3716 26.4818 39.7507 24.0037C33.3177 25.9134 26.9463 27.9985 20.793 30.699C15.7295 32.9212 10.9613 35.6418 5.7054 37.446C4.44671 37.8782 2.72478 38.5306 1.42546 38.0129Z" fill="#EBDED3"/>
<path d="M0.899668 44.259C0.913949 44.2406 0.929328 44.223 0.942519 44.2038C1.59433 43.2549 0.522501 41.3218 1.24108 40.2718C2.94483 39.9468 15.83 48.9943 20.1741 50.2975C21.3869 56.087 21.4555 62.5339 21.7633 68.4503L23.1977 97.4185C20.4155 100.17 11.0822 106.303 11.0209 110.329C11.0204 110.358 11.0219 110.387 11.0223 110.416C10.5816 110.907 10.0539 111.138 9.47026 111.416C9.19034 109.018 8.82374 106.557 8.25506 104.209C7.74383 102.098 7.05027 100.004 6.6445 97.872C4.2127 91.8927 2.38973 72.0392 2.48671 64.9173C2.07458 62.629 2.14078 60.0634 1.9456 57.7315C1.74327 55.314 1.33025 52.9207 1.11893 50.5059C0.938127 48.4397 0.945037 46.333 0.899668 44.259Z" fill="#284966"/>
<path d="M2.48671 64.9173C3.01684 65.3777 3.11012 65.7087 3.23926 66.3993C4.06595 70.8204 4.23792 75.4948 4.81589 79.9721C5.50602 85.3183 6.61204 90.6844 7.02966 96.0579C7.08067 96.7142 7.08178 97.2339 6.69377 97.7967C6.67674 97.8215 6.66092 97.8472 6.6445 97.872C4.2127 91.8927 2.38973 72.0392 2.48671 64.9173Z" fill="#B6908F"/>
<path d="M234.792 101.561C238.174 102.053 244.07 104.312 246.158 106.98C246.579 107.311 247.656 107.968 247.787 108.444C248.089 109.169 248.263 109.724 247.961 110.483C246.761 113.508 239.65 117.535 236.649 118.781C236.06 119.026 235.409 119.136 234.781 119.222C234.994 118.107 234.367 116.496 233.757 115.571C233.636 115.387 233.478 115.255 233.297 115.133C232.929 115.169 232.876 115.162 232.636 115.45C231.975 116.244 231.537 117.619 231.086 118.564C229.354 122.197 226.735 125.225 222.489 125.72C222.455 125.724 222.42 125.728 222.385 125.731C222.419 125.632 222.409 125.676 222.423 125.57C222.94 121.634 227.711 117.401 229.389 113.638C229.885 112.526 230.344 111.088 229.895 109.898C229.979 109.848 230.062 109.795 230.142 109.738C230.689 109.35 230.855 108.967 230.964 108.341C230.962 108.311 230.963 108.282 230.959 108.253C230.813 107.249 229.839 106.492 229.077 105.924C230.463 104.296 232.677 102.175 234.792 101.561Z" fill="#1C1618"/>
<path d="M253.579 38.5566C255.15 38.4679 256.706 38.3398 257.973 39.4716C258.559 39.9954 258.876 40.7046 259.167 41.4197C259.84 44.0607 259.167 49.9105 258.429 52.5835C257.954 54.2981 257.182 56.0399 256.922 57.796C256.49 60.7082 256.403 63.6872 256.015 66.6123C255.103 73.4858 250.447 103.729 247.833 108.367C247.819 108.393 247.802 108.419 247.787 108.444C247.656 107.968 246.579 107.311 246.158 106.98C244.07 104.312 238.174 102.053 234.792 101.561C234.801 100.625 235.266 99.4386 235.462 98.4943C235.905 96.3956 236.268 94.2828 236.55 92.1559C237.437 85.0982 240.197 53.6091 238.074 48.8128C238.709 49.0882 239.428 49.4163 240.124 49.169C240.629 48.99 240.945 48.6542 241.177 48.1869C246.576 45.799 249.6 42.7086 253.579 38.5566Z" fill="#644A49"/>
<path d="M238.074 48.8128C238.709 49.0882 239.428 49.4163 240.124 49.169C240.629 48.99 240.945 48.6542 241.177 48.1869C242.943 52.2636 241.23 94.7652 239.745 98.429C239.697 98.5481 239.645 98.6615 239.581 98.7741C242.175 99.8988 245.456 102.926 246.525 105.588C246.677 105.965 246.694 106.277 246.627 106.673L246.158 106.98C244.07 104.312 238.174 102.053 234.792 101.561C234.801 100.625 235.266 99.4386 235.462 98.4943C235.905 96.3956 236.268 94.2828 236.55 92.1559C237.437 85.0982 240.197 53.6091 238.074 48.8128Z" fill="#92797B"/>
<path d="M126.873 0H147.641H260.493C260.731 0.378103 260.812 0.693828 260.833 1.13536C260.973 4.05216 260.863 7.0229 260.865 9.94419V26.5606C260.864 28.9919 261.22 35.4866 260.78 37.5672C260.742 37.7441 260.678 37.911 260.603 38.0747L260.593 38.6856C260.416 39.6417 260.117 40.7887 259.261 41.361C259.231 41.3815 259.199 41.4002 259.167 41.4197C258.876 40.7046 258.559 39.9954 257.973 39.4716C256.706 38.3398 255.15 38.4679 253.579 38.5566C249.6 42.7086 246.576 45.799 241.177 48.1869C240.945 48.6542 240.629 48.99 240.124 49.169C239.428 49.4163 238.709 49.0882 238.074 48.8128C238.107 48.3964 238.024 48.184 237.815 47.8191C234.293 41.6732 213.84 36.1837 207.105 34.3652C207.822 31.9322 209.586 30.2374 210.825 28.0883C211.515 26.8922 212.1 25.3858 211.731 23.997C212.328 22.7626 212.262 20.8902 211.838 19.6059C211.598 18.8777 211.351 18.4832 210.66 18.1365C209.882 22.08 204.555 36.3861 201.471 38.4042C201.381 38.4637 201.287 38.5128 201.188 38.5591C201.76 40.6279 202.106 42.3173 204.112 43.4523C207.773 45.5244 211.558 45.0281 212.952 49.9279C213.553 52.0366 213.515 54.3386 213.261 56.4984C212.422 63.6312 207.844 78.6709 205.034 85.4897C203.611 88.9415 201.846 92.2452 200.024 95.4993C195.226 104.064 185.291 114.257 175.667 116.949C166.92 119.395 156.327 119.886 147.247 120.012C149.576 119.397 152.093 117.357 154.235 116.191C157.235 114.56 160.326 113.054 163.25 111.288C170.355 106.996 177.138 100.97 181.353 93.7299C183.803 89.5217 185.84 85.4069 186.863 80.6125C187.062 79.6806 187.385 78.5918 187.138 77.6474L186.863 77.4322L186.266 77.6062C186.551 81.3128 177.34 94.3142 174.679 97.421C170.102 102.766 160.361 111.495 153.142 112.595C150.079 112.949 147.503 114.24 144.805 115.644C142.999 116.391 141.059 116.754 139.151 117.146C135.978 116.53 132.686 116.268 129.476 115.868C125.673 115.405 121.896 114.78 118.147 113.994C113.454 113.022 109.146 111.18 104.557 109.962C101.851 108.502 99.4261 106.423 97.0132 104.531C92.6719 101.127 88.4842 97.8521 84.6985 93.8177C84.6539 94.608 86.5278 96.792 87.0545 97.5393C84.8215 96.9592 82.6183 96.2582 80.3854 95.6748C75.0367 94.277 69.6867 93.1415 64.9829 90.0521C63.1704 88.8621 61.4936 87.2268 59.8343 85.8273C59.1714 85.3639 58.4198 84.9046 57.8261 84.3567C56.3933 83.0359 55.5195 80.9785 54.922 79.1661C52.1633 70.7983 54.0103 62.1958 56.1649 53.9508C56.487 52.7183 57.959 48.47 57.8727 47.5315C57.7811 46.5369 56.4423 46.4277 55.7594 45.8719C55.4244 44.9796 56.4698 40.1011 56.8166 39.0283L56.5952 38.6899C56.5235 33.8699 52.8132 15.222 50.5125 12.2302L51.133 11.8822C57.5279 8.27575 73.3446 7.73034 81.1887 6.76339C85.4382 6.23954 89.6308 5.23354 93.8796 4.75769C99.4261 4.13646 104.992 4.05799 110.534 3.54398C115.374 3.09511 120.116 2.42254 124.995 2.45873C125.688 2.31443 126.438 2.32323 127.144 2.28415C127.218 2.0802 127.26 2.06364 127.179 1.87022C127.149 1.7982 127.122 1.72472 127.09 1.65384C126.823 1.07499 126.852 0.622605 126.873 0ZM147.641 0C147.96 0.325306 148.187 0.714921 148.485 1.03355C148.992 1.57493 150.909 1.82547 151.632 1.83209C152.41 1.83924 154.792 1.58682 155.324 2.05435C158.316 2.16612 175.133 4.10738 176.782 5.21663C183.125 5.96464 206.834 11.1278 210.461 15.6825C210.7 15.983 211.051 16.5272 211.084 16.9186L210.66 18.1365C211.351 18.4832 211.598 18.8777 211.838 19.6059C212.262 20.8902 212.328 22.7626 211.731 23.997C212.1 25.3858 211.515 26.8922 210.825 28.0883C209.586 30.2374 207.822 31.9322 207.105 34.3652C213.84 36.1837 234.293 41.6732 237.815 47.8191C238.024 48.184 238.107 48.3964 238.074 48.8128C238.709 49.0882 239.428 49.4163 240.124 49.169C240.629 48.99 240.945 48.6542 241.177 48.1869C246.576 45.799 249.6 42.7086 253.579 38.5566C255.15 38.4679 256.706 38.3398 257.973 39.4716C258.559 39.9954 258.876 40.7046 259.167 41.4197C259.199 41.4002 259.231 41.3815 259.261 41.361C260.117 40.7887 260.416 39.6417 260.593 38.6856L260.603 38.0747C260.678 37.911 260.742 37.7441 260.78 37.5672C261.22 35.4866 260.864 28.9919 260.865 26.5606V9.94419C260.863 7.0229 260.973 4.05216 260.833 1.13536C260.812 0.693828 260.731 0.378103 260.493 0H147.641ZM126.873 0C126.852 0.622605 126.823 1.07499 127.09 1.65384C127.122 1.72472 127.149 1.7982 127.179 1.87022C127.26 2.06364 127.218 2.0802 127.144 2.28415C126.438 2.32323 125.688 2.31443 124.995 2.45873C120.116 2.42254 115.374 3.09511 110.534 3.54398C104.992 4.05799 99.4261 4.13646 93.8796 4.75769C89.6308 5.23354 85.4382 6.23954 81.1887 6.76339C73.3446 7.73034 57.5279 8.27575 51.133 11.8822L50.5125 12.2302C52.8132 15.222 56.5235 33.8699 56.5952 38.6899C59.6646 36.3955 60.7191 30.079 62.4794 26.6965C81.4182 14.6282 121.521 13.7514 143.684 15.1783C151.498 15.7579 159.267 16.7082 166.99 18.0292C170.422 18.5902 173.915 19.0794 177.308 19.8366C183.315 21.1768 195.989 24.4185 199.539 30.0036C201.443 32.9968 200.1 36.1303 201.188 38.5591C201.287 38.5128 201.381 38.4637 201.471 38.4042C204.555 36.3861 209.882 22.08 210.66 18.1365L211.084 16.9186C211.051 16.5272 210.7 15.983 210.461 15.6825C206.834 11.1278 183.125 5.96464 176.782 5.21663C175.133 4.10738 158.316 2.16612 155.324 2.05435C154.792 1.58682 152.41 1.83924 151.632 1.83209C150.909 1.82547 148.992 1.57493 148.485 1.03355C148.187 0.714921 147.96 0.325306 147.641 0H126.873Z" fill="url(#paint2_linear_273_16354)"/>
<path d="M56.8166 39.0283L57.0842 38.9665C57.0419 40.2075 55.8358 45.007 56.1311 45.6392C56.7253 45.9339 57.7368 46.2578 58.0137 46.8941C58.3245 49.0778 57.1467 52.0169 56.5651 54.1217C53.9257 63.6746 52.2437 73.4144 56.8526 82.698C56.8531 81.8668 56.8266 81.1419 57.1751 80.3672L57.4452 80.2905C58.7867 81.6871 58.6381 84.2102 59.8343 85.8273C59.1714 85.3639 58.4198 84.9046 57.8261 84.3567C56.3933 83.0359 55.5195 80.9785 54.922 79.1661C52.1633 70.7983 54.0103 62.1958 56.1649 53.9508C56.487 52.7183 57.959 48.47 57.8727 47.5315C57.7811 46.5369 56.4423 46.4277 55.7594 45.8719C55.4244 44.9796 56.4698 40.1011 56.8166 39.0283Z" fill="#644A49"/>
<path d="M126.873 0H147.641C147.96 0.325306 148.187 0.714921 148.485 1.03355C148.992 1.57493 150.909 1.82547 151.632 1.83209C152.41 1.83924 154.792 1.58682 155.324 2.05435C158.316 2.16612 175.133 4.10738 176.782 5.21663C183.125 5.96464 206.834 11.1278 210.461 15.6825C210.7 15.983 211.051 16.5272 211.084 16.9186L210.66 18.1365C209.882 22.08 204.555 36.3861 201.471 38.4042C201.381 38.4637 201.287 38.5128 201.188 38.5591C200.1 36.1303 201.443 32.9968 199.539 30.0036C195.989 24.4185 183.315 21.1768 177.308 19.8366C173.915 19.0794 170.422 18.5902 166.99 18.0292C159.267 16.7082 151.498 15.7579 143.684 15.1783C121.521 13.7514 81.4182 14.6282 62.4794 26.6965C60.7191 30.079 59.6646 36.3955 56.5952 38.6899C56.5235 33.8699 52.8132 15.222 50.5125 12.2302L51.133 11.8822C57.5279 8.27575 73.3446 7.73034 81.1887 6.76339C85.4382 6.23954 89.6308 5.23354 93.8796 4.75769C99.4261 4.13646 104.992 4.05799 110.534 3.54398C115.374 3.09511 120.116 2.42254 124.995 2.45873C125.688 2.31443 126.438 2.32323 127.144 2.28415C127.218 2.0802 127.26 2.06364 127.179 1.87022C127.149 1.7982 127.122 1.72472 127.09 1.65384C126.823 1.07499 126.852 0.622605 126.873 0ZM126.873 0C126.852 0.622605 126.823 1.07499 127.09 1.65384C127.122 1.72472 127.149 1.7982 127.179 1.87022C127.26 2.06364 127.218 2.0802 127.144 2.28415C126.438 2.32323 125.688 2.31443 124.995 2.45873C120.116 2.42254 115.374 3.09511 110.534 3.54398C104.992 4.05799 99.4261 4.13646 93.8796 4.75769C89.6308 5.23354 85.4382 6.23954 81.1887 6.76339C73.3446 7.73034 57.5279 8.27575 51.133 11.8822C51.2334 11.9767 51.3383 12.0581 51.4571 12.1287C54.9121 14.179 73.4309 10.6058 77.7885 9.95909C92.151 7.82761 106.356 6.33436 120.877 6.09324C126.477 6.00534 132.075 6.05771 137.672 6.25036C143.094 6.45551 157.872 7.70334 162.607 6.414C162.965 6.31663 163.033 6.33068 163.21 6.01337C163.193 5.98794 163.177 5.96169 163.159 5.9371C162.383 4.89725 160.066 4.52394 158.851 4.32096C163.35 4.3967 171.208 6.96395 175.148 6.09212C175.738 5.96172 176.289 5.55382 176.782 5.21663C175.133 4.10738 158.316 2.16612 155.324 2.05435C154.792 1.58682 152.41 1.83924 151.632 1.83209C150.909 1.82547 148.992 1.57493 148.485 1.03355C148.187 0.714921 147.96 0.325306 147.641 0H126.873Z" fill="url(#paint3_linear_273_16354)"/>
<path d="M195.147 23.3787C196.204 23.0072 199.531 24.6324 200.796 24.9162C201.758 25.1319 203.018 25.3011 203.878 24.7133C204.447 24.3244 204.682 23.6714 204.806 23.0239C204.842 23.3 204.871 23.5828 204.845 23.8614C204.75 24.9178 204.234 26.1072 203.425 26.7929C203.428 26.8199 203.434 26.8468 203.434 26.874C203.451 27.826 202.301 29.2248 201.688 29.9217C201.726 29.4351 201.52 28.9075 201.304 28.4776C200.242 26.3705 197.335 24.1337 195.147 23.3787Z" fill="#92797B"/>
<path d="M72.9534 16.0481C77.33 15.7423 81.7793 15.8792 86.1629 15.9265C78.7676 17.7031 68.9809 19.762 62.3394 23.1737C59.7613 24.7405 59.4877 26.4369 58.0781 28.8931C57.6862 24.9434 56.6259 20.8937 55.8376 16.9966C61.5347 16.8276 67.2408 16.2324 72.9534 16.0481Z" fill="#92797B"/>
<path d="M126.873 0H147.641C147.96 0.325306 148.187 0.714921 148.485 1.03355C148.992 1.57493 150.909 1.82547 151.632 1.83209C152.41 1.83924 154.792 1.58682 155.324 2.05435C158.316 2.16612 175.133 4.10738 176.782 5.21663C176.289 5.55382 175.738 5.96172 175.148 6.09212C171.208 6.96395 163.35 4.3967 158.851 4.32096C160.066 4.52394 162.383 4.89725 163.159 5.9371C163.177 5.96169 163.193 5.98794 163.21 6.01337C163.033 6.33068 162.965 6.31663 162.607 6.414C157.872 7.70334 143.094 6.45551 137.672 6.25036C132.075 6.05771 126.477 6.00534 120.877 6.09324C106.356 6.33436 92.151 7.82761 77.7885 9.95909C73.4309 10.6058 54.9121 14.179 51.4571 12.1287C51.3383 12.0581 51.2334 11.9767 51.133 11.8822C57.5279 8.27575 73.3446 7.73034 81.1887 6.76339C85.4382 6.23954 89.6308 5.23354 93.8796 4.75769C99.4261 4.13646 104.992 4.05799 110.534 3.54398C115.374 3.09511 120.116 2.42254 124.995 2.45873C125.688 2.31443 126.438 2.32323 127.144 2.28415C127.218 2.0802 127.26 2.06364 127.179 1.87022C127.149 1.7982 127.122 1.72472 127.09 1.65384C126.823 1.07499 126.852 0.622605 126.873 0ZM126.873 0C126.852 0.622605 126.823 1.07499 127.09 1.65384C127.122 1.72472 127.149 1.7982 127.179 1.87022C127.26 2.06364 127.218 2.0802 127.144 2.28415C126.438 2.32323 125.688 2.31443 124.995 2.45873C127.139 2.63385 129.288 2.44605 131.436 2.5155C134.097 2.60153 147.237 3.76171 148.721 2.93289C150.71 2.96828 152.614 1.99775 155.324 2.05435C154.792 1.58682 152.41 1.83924 151.632 1.83209C150.909 1.82547 148.992 1.57493 148.485 1.03355C148.187 0.714921 147.96 0.325306 147.641 0H126.873Z" fill="#EBDED3"/>
<path d="M126.873 0H147.641C147.96 0.325306 148.187 0.714921 148.485 1.03355C148.992 1.57493 150.909 1.82547 151.632 1.83209C152.41 1.83924 154.792 1.58682 155.324 2.05435C152.614 1.99775 150.71 2.96828 148.721 2.93289C147.237 3.76171 134.097 2.60153 131.436 2.5155C129.288 2.44605 127.139 2.63385 124.995 2.45873C125.688 2.31443 126.438 2.32323 127.144 2.28415C127.218 2.0802 127.26 2.06364 127.179 1.87022C127.149 1.7982 127.122 1.72472 127.09 1.65384C126.823 1.07499 126.852 0.622605 126.873 0ZM126.873 0C126.852 0.622605 126.823 1.07499 127.09 1.65384C127.122 1.72472 127.149 1.7982 127.179 1.87022C127.26 2.06364 127.218 2.0802 127.144 2.28415C131.585 2.99892 135.346 -0.68144 140.728 0.16074C141.845 0.335457 142.905 0.865217 143.985 1.19409C145.054 1.51961 146.394 1.54222 147.353 2.0884L147.264 2.36921L146.298 2.77514L148.721 2.93289C150.71 2.96828 152.614 1.99775 155.324 2.05435C154.792 1.58682 152.41 1.83924 151.632 1.83209C150.909 1.82547 148.992 1.57493 148.485 1.03355C148.187 0.714921 147.96 0.325306 147.641 0H126.873Z" fill="url(#paint4_linear_273_16354)"/>
<path d="M126.873 0H147.641C147.96 0.325306 148.187 0.714921 148.485 1.03355C148.992 1.57493 150.909 1.82547 151.632 1.83209C152.41 1.83924 154.792 1.58682 155.324 2.05435C152.614 1.99775 150.71 2.96828 148.721 2.93289L146.298 2.77514L147.264 2.36921L147.353 2.0884C146.394 1.54222 145.054 1.51961 143.985 1.19409C142.905 0.865217 141.845 0.335457 140.728 0.16074C135.346 -0.68144 131.585 2.99892 127.144 2.28415C127.218 2.0802 127.26 2.06364 127.179 1.87022C127.149 1.7982 127.122 1.72472 127.09 1.65384C126.823 1.07499 126.852 0.622605 126.873 0Z" fill="#FEFDFE" fill-opacity="0.588235"/>
<path d="M211.084 16.9186C211.671 17.2322 214.756 18.3669 215.003 18.6414C225.734 20.7667 236.363 25.2046 246.187 29.9599C249.206 31.4215 252.121 33.2511 255.171 34.6092C256.759 34.7986 259.134 35.645 260.167 36.9523C260.398 37.2442 260.582 37.7012 260.603 38.0747L260.593 38.6856C260.416 39.6417 260.117 40.7887 259.261 41.361C259.231 41.3815 259.199 41.4002 259.167 41.4197C258.876 40.7046 258.559 39.9954 257.973 39.4716C256.706 38.3398 255.15 38.4679 253.579 38.5566C249.6 42.7086 246.576 45.799 241.177 48.1869C240.945 48.6542 240.629 48.99 240.124 49.169C239.428 49.4163 238.709 49.0882 238.074 48.8128C238.107 48.3964 238.024 48.184 237.815 47.8191C234.293 41.6732 213.84 36.1837 207.105 34.3652C207.822 31.9322 209.586 30.2374 210.825 28.0883C211.515 26.8922 212.1 25.3858 211.731 23.997C212.328 22.7626 212.262 20.8902 211.838 19.6059C211.598 18.8777 211.351 18.4832 210.66 18.1365L211.084 16.9186Z" fill="#92797B"/>
<path d="M210.086 31.8806C212.895 35.1512 231.99 38.3488 238.451 44.5331C238.87 44.9342 239.748 45.6127 239.895 46.1744C242.701 45.2528 248.716 39.8649 249.97 37.2775C250.142 36.9222 250.154 36.5824 250.093 36.1979C251.575 36.5889 252.65 37.3232 253.579 38.5566C249.6 42.7086 246.576 45.799 241.177 48.1869C240.945 48.6542 240.629 48.99 240.124 49.169C239.428 49.4163 238.709 49.0882 238.074 48.8128C238.107 48.3964 238.024 48.184 237.815 47.8191C234.293 41.6732 213.84 36.1837 207.105 34.3652L207.978 34.2692C208.966 33.6436 209.513 32.8741 210.086 31.8806Z" fill="#B6908F"/>
<path d="M211.084 16.9186C211.671 17.2322 214.756 18.3669 215.003 18.6414C225.734 20.7667 236.363 25.2046 246.187 29.9599C249.206 31.4215 252.121 33.2511 255.171 34.6092C256.759 34.7986 259.134 35.645 260.167 36.9523C260.398 37.2442 260.582 37.7012 260.603 38.0747L260.593 38.6856C260.416 39.6417 260.117 40.7887 259.261 41.361C259.231 41.3815 259.199 41.4002 259.167 41.4197C258.876 40.7046 258.559 39.9954 257.973 39.4716C256.706 38.3398 255.15 38.4679 253.579 38.5566C252.65 37.3232 251.575 36.5889 250.093 36.1979C249.943 35.5796 249.492 35.2286 249.068 34.766C246.439 32.3719 240.516 30.5712 237.114 29.0878C233.47 27.4985 229.953 25.6965 226.184 24.4005C223.656 23.531 221.127 22.8996 218.497 22.4311C218.52 22.5564 218.53 22.6792 218.511 22.8063C218.103 25.6321 212.445 30.1846 210.086 31.8806C209.513 32.8741 208.966 33.6436 207.978 34.2692L207.105 34.3652C207.822 31.9322 209.586 30.2374 210.825 28.0883C211.515 26.8922 212.1 25.3858 211.731 23.997C212.328 22.7626 212.262 20.8902 211.838 19.6059C211.598 18.8777 211.351 18.4832 210.66 18.1365L211.084 16.9186Z" fill="#EBDED3"/>
<path d="M211.084 16.9186C211.671 17.2322 214.756 18.3669 215.003 18.6414C215.222 19.5011 214.788 20.0309 214.347 20.7759C213.603 22.0304 212.932 23.1375 211.731 23.997C212.328 22.7626 212.262 20.8902 211.838 19.6059C211.598 18.8777 211.351 18.4832 210.66 18.1365L211.084 16.9186Z" fill="#70ACBC"/>
<path d="M255.171 34.6092C256.759 34.7986 259.134 35.645 260.167 36.9523C260.398 37.2442 260.582 37.7012 260.603 38.0747L260.593 38.6856C260.416 39.6417 260.117 40.7887 259.261 41.361C259.231 41.3815 259.199 41.4002 259.167 41.4197C258.876 40.7046 258.559 39.9954 257.973 39.4716C256.706 38.3398 255.15 38.4679 253.579 38.5566C252.65 37.3232 251.575 36.5889 250.093 36.1979C249.943 35.5796 249.492 35.2286 249.068 34.766C250.594 34.8887 252.385 36.1275 253.876 36.607C254.371 36.7663 254.912 36.9132 255.401 36.6651C255.714 35.9102 255.458 35.3447 255.171 34.6092Z" fill="#70ACBC"/>
<path d="M91.5542 29.4636C94.3262 28.4385 97.6884 28.2727 100.608 27.727C118.777 24.3304 146.287 22.2497 163.454 29.8975C172.842 34.0794 182.039 44.9215 185.683 54.4217C186.149 55.6342 186.604 56.887 186.843 58.1664C187.666 62.5897 188.032 73.6327 186.266 77.6062C186.551 81.3128 177.34 94.3142 174.679 97.421C170.102 102.766 160.361 111.495 153.142 112.595C150.079 112.949 147.503 114.24 144.805 115.644C142.999 116.391 141.059 116.754 139.151 117.146C135.978 116.53 132.686 116.268 129.476 115.868C125.673 115.405 121.896 114.78 118.147 113.994C113.454 113.022 109.146 111.18 104.557 109.962C101.851 108.502 99.4261 106.423 97.0132 104.531C92.6719 101.127 88.4842 97.8521 84.6985 93.8177C84.3353 92.9942 82.1398 90.9699 81.4033 90.0273C77.8014 85.416 75.6344 79.5531 74.6347 73.8162C72.5918 62.0931 76.3575 49.3185 83.2391 39.7947C85.8303 36.2089 89.0034 33.1112 91.5542 29.4636Z" fill="url(#paint5_linear_273_16354)"/>
<path d="M136.305 26.1646C140.207 25.5786 147.737 26.9812 151.596 28.2142C159.587 30.7679 165.555 35.3728 171.64 41.0141C173.833 43.0473 176.208 45.1328 177.594 47.8409C178.512 49.634 178.756 51.9416 179.269 53.888C180.648 59.1229 183.541 66.7778 181.799 72.1679C181.58 71.7622 181.901 69.5405 181.909 68.8879C181.939 66.6718 181.378 59.5221 179.93 58.0308C180.212 57.2051 179.59 55.4982 179.352 54.6435C178.543 51.7496 176.769 49.7116 175.114 47.3034C174.206 45.9828 173.821 44.3423 172.891 43.0322C169.985 38.9384 163.487 34.1721 159.11 31.7173C150.356 26.8079 139.428 25.2283 129.616 27.2435C127.404 27.6978 125.285 28.6394 123.115 29.2535C124.183 28.551 127.771 27.2809 128.989 27.0682C129.703 26.9432 130.449 27.009 131.167 26.8579C131.631 26.7604 132.031 26.4033 132.498 26.3595C133.719 26.245 135.004 26.4006 136.215 26.1821C136.245 26.1767 136.275 26.1704 136.305 26.1646Z" fill="#AD6945"/>
<path d="M131.131 35.8442C133.262 33.8343 136.061 32.9823 138.951 33.0779C148.277 33.3865 157.162 39.1619 163.332 45.8267C168.146 51.0276 171.802 58.1038 171.487 65.3934C171.469 65.8137 171.382 66.2342 171.21 66.619L171.08 66.7163C169.167 67.0287 157.555 63.7587 155.313 62.8711C155.271 62.7397 155.228 62.612 155.171 62.4862C154.328 60.6152 144.199 53.8896 141.912 53.0062C141.878 53.0093 141.844 53.0136 141.81 53.0158C140.564 53.0955 137.421 50.0288 136.449 49.2219C136.188 48.851 135.909 48.4471 135.715 48.0375C135.317 47.2031 135.828 46.1559 136.094 45.3499C135.958 44.2484 135.854 43.1275 135.597 42.0469C133.807 40.1122 132.244 38.2672 131.131 35.8442Z" fill="#EBDED3"/>
<path d="M136.094 45.3499C136.321 47.6472 138.137 49.9058 139.859 51.3208C140.54 51.8799 141.273 52.3965 141.912 53.0062C141.878 53.0093 141.844 53.0136 141.81 53.0158C140.564 53.0955 137.421 50.0288 136.449 49.2219C136.188 48.851 135.909 48.4471 135.715 48.0375C135.317 47.2031 135.828 46.1559 136.094 45.3499Z" fill="#FEA64D"/>
<path d="M136.449 49.2219C137.421 50.0288 140.564 53.0955 141.81 53.0158C141.844 53.0136 141.878 53.0093 141.912 53.0062C144.199 53.8896 154.328 60.6152 155.171 62.4862C155.228 62.612 155.271 62.7397 155.313 62.8711C157.555 63.7587 169.167 67.0287 171.08 66.7163L171.21 66.619C171.329 66.7323 171.433 66.8588 171.52 66.9985C171.608 67.1381 171.676 67.2865 171.726 67.4437C173.028 71.5399 170.75 78.4676 168.872 82.2259C166.95 86.0706 160.897 93.1233 157.392 95.5399C155.138 97.0932 152.233 98.3015 149.636 99.163C147.702 99.8052 145.641 100.418 143.623 100.706C141.81 100.965 133.245 101.068 131.831 100.353C132.368 100.074 134.493 100.559 135.232 100.594C138.638 100.753 142.077 100.852 145.436 100.151C146.788 99.869 153.31 97.8687 153.912 96.9526C153.769 96.6058 153.562 96.4908 153.261 96.2979C152.021 95.5026 150.629 94.5286 149.221 94.0916C148.241 93.787 147.172 93.7821 146.16 93.643C144.683 93.4403 142.872 91.3332 141.862 90.2491C139.976 88.2215 140.985 86.7319 140.255 85.9961C139.309 86.4596 138.182 87.3766 137.414 88.1048C136.957 88.5385 136.876 88.867 136.853 89.467C138.013 90.4055 140.091 90.2946 141.298 91.2488C142.288 92.0309 142.172 93.8673 143.279 94.483C144.267 95.0342 145.591 94.6229 146.634 95.093L146.363 95.2452C140.46 95.3313 143.34 93.2152 140.506 91.4408C139.245 90.6513 137.575 90.6149 136.28 89.7675C135.488 88.2778 140.095 85.1561 141.078 84.0819C141.935 83.1451 142.594 82.0892 142.976 80.8723C143.664 78.6734 144.074 73.8559 143.629 71.6069C143.408 70.4984 142.969 69.4135 142.612 68.343C141.753 65.7674 141.842 63.7932 142.144 61.1487L142.397 61.0704C142.645 61.5942 142.465 62.1885 142.399 62.7604C142.97 62.8711 144.446 63.3181 144.917 63.1106C144.93 62.7613 144.97 62.4929 144.743 62.1922C144.241 61.5279 143.25 60.9108 142.617 60.3433C141.612 59.4407 140.692 58.442 139.683 57.5427C137.274 55.3972 134.13 53.4233 133.274 50.1171C134.651 49.7113 136.689 52.1649 138.326 51.9828C138.08 50.9639 136.92 50.3167 136.449 49.2219Z" fill="#F88E61"/>
<mask id="path-2-outside-1_273_16354" maskUnits="userSpaceOnUse" x="78.2969" y="37.5723" width="110" height="55" fill="black">
<rect fill="white" x="78.2969" y="37.5723" width="110" height="55"/>
<path d="M110.865 43.3483L111.089 43.4043C112.022 43.9643 112.825 44.5989 113.497 45.3083C114.206 45.9803 114.841 46.7083 115.401 47.4923C115.998 48.2389 116.465 49.0603 116.801 49.9563C118.22 53.3909 116.988 57.2363 113.105 61.4923C111.462 63.2843 109.614 64.8149 107.561 66.0843C108.084 66.4576 108.569 66.7376 109.017 66.9243C109.502 67.0736 110.174 67.3909 111.033 67.8763C111.892 68.3243 112.452 69.2016 112.713 70.5083C112.974 71.7776 112.9 73.2149 112.489 74.8203C112.116 76.4256 111.406 78.0869 110.361 79.8043C109.353 81.4843 108.028 82.9963 106.385 84.3403C102.652 87.4389 98.3209 88.7456 93.3929 88.2603C92.6835 88.2603 92.2355 88.2043 92.0489 88.0923C91.8622 87.9803 91.7129 87.8869 91.6009 87.8123C91.4889 87.7376 91.2462 87.6816 90.8729 87.6443C89.9395 88.3909 88.8755 88.8576 87.6809 89.0443C86.4862 89.2309 85.3475 89.1376 84.2649 88.7643C83.2195 88.3909 82.3235 87.7563 81.5769 86.8603C80.8675 85.9643 80.5129 84.7883 80.5129 83.3323C80.6249 82.3616 80.8115 81.5963 81.0729 81.0363C80.9609 80.7003 80.9049 80.2896 80.9049 79.8043C82.1742 73.0469 83.3689 67.8763 84.4889 64.2923C86.7662 57.1616 89.2302 51.7856 91.8809 48.1643C94.0462 45.1029 97.0515 43.1243 100.897 42.2283C104.593 41.3696 107.916 41.7429 110.865 43.3483ZM93.4489 82.4363C93.8969 82.3243 94.2702 82.3056 94.5689 82.3803C94.9049 82.4176 95.2969 82.3989 95.7449 82.3243C96.8275 82.2123 98.2835 81.5403 100.113 80.3083C101.27 79.1509 101.886 78.0123 101.961 76.8923C102.036 75.7723 101.868 75.0629 101.457 74.7643C101.046 74.4283 100.486 74.2603 99.7769 74.2603C99.1049 74.2603 98.3395 74.3723 97.4809 74.5963C96.6595 74.7829 95.8569 74.8949 95.0729 74.9323V75.0443C94.8862 75.7909 94.6995 76.4443 94.5129 77.0043C94.3262 77.5643 94.1582 78.1056 94.0089 78.6283C93.6729 79.8603 93.4115 81.1296 93.2249 82.4363H93.4489ZM103.865 53.3163C102.745 53.1669 101.532 54.0443 100.225 55.9483C99.4035 57.1429 98.7689 58.9536 98.3209 61.3803C99.1049 61.0443 99.8702 60.7643 100.617 60.5403C101.401 60.2789 102.129 59.9989 102.801 59.7003C104.444 58.9909 105.62 58.1323 106.329 57.1243C107.15 56.1536 107.412 55.3323 107.113 54.6603C106.665 54.0629 105.937 53.5216 104.929 53.0363C104.63 53.2976 104.276 53.3909 103.865 53.3163ZM103.025 53.0923H103.193H103.025ZM136.063 61.5483L136.287 61.6043C136.361 61.6043 136.399 61.6229 136.399 61.6603C137.369 61.2869 138.172 61.5669 138.807 62.5003C139.217 63.1349 139.535 64.1056 139.759 65.4123C139.833 67.2043 139.647 69.6869 139.199 72.8603C138.34 79.2816 137.873 83.1083 137.799 84.3403C137.873 85.6469 137.071 86.5429 135.391 87.0283C133.935 87.4763 132.479 87.4576 131.023 86.9723C129.492 86.4496 128.857 85.6469 129.119 84.5643C128.82 85.1243 128.521 85.5163 128.223 85.7403C127.924 86.0016 127.327 86.3376 126.431 86.7483C125.572 87.1963 124.34 87.5509 122.735 87.8123C121.129 88.1109 119.524 88.1856 117.919 88.0363C116.313 87.9243 114.839 87.5323 113.495 86.8603C112.188 86.2256 111.311 85.2176 110.863 83.8363C110.004 81.1483 110.116 77.7323 111.199 73.5883C111.945 70.8629 113.289 68.4549 115.231 66.3643C117.471 63.9749 120.009 61.9963 122.847 60.4283C124.975 59.2709 127.028 58.5803 129.007 58.3563C129.679 58.2816 130.257 58.3003 130.743 58.4123C131.265 58.5243 131.807 58.6363 132.367 58.7483C132.964 58.8603 133.524 59.0283 134.047 59.2523C135.391 59.8123 136.063 60.5776 136.063 61.5483ZM125.703 76.3883C125.964 75.8656 126.169 75.2123 126.319 74.4283C126.505 73.6443 126.748 72.7856 127.047 71.8523C124.023 73.0843 121.708 74.5963 120.103 76.3883C118.348 78.3669 118.46 79.7296 120.439 80.4763C122.156 80.9243 123.407 80.6443 124.191 79.6363C124.527 79.1883 124.825 78.6283 125.087 77.9563C125.348 77.2843 125.665 76.5936 126.039 75.8843C125.927 76.0709 125.815 76.2389 125.703 76.3883ZM159.758 58.0763C161.214 58.2629 162.185 58.7856 162.67 59.6443C163.193 60.4656 163.398 61.3616 163.286 62.3323C163.174 63.2656 162.819 64.1243 162.222 64.9083C161.662 65.6549 161.027 66.0469 160.318 66.0843C160.057 66.8683 159.646 67.4096 159.086 67.7083C158.526 68.0069 157.91 68.2123 157.238 68.3243C156.566 68.4363 155.857 68.5669 155.11 68.7163C154.401 68.8283 153.729 69.1456 153.094 69.6683C152.459 70.1909 151.918 70.7136 151.47 71.2363C151.059 71.7216 150.723 72.2069 150.462 72.6923C150.014 73.5136 149.622 74.5216 149.286 75.7163C149.211 76.5376 149.603 77.3029 150.462 78.0123C151.47 78.7963 152.571 79.1509 153.766 79.0763C154.961 78.9643 155.913 79.0203 156.622 79.2443C157.369 79.4309 157.929 79.7109 158.302 80.0843C159.123 80.9429 159.049 81.9323 158.078 83.0523C156.211 86.0389 153.075 87.8123 148.67 88.3723C147.363 88.5589 146.057 88.5963 144.75 88.4843C143.443 88.4096 142.174 87.9243 140.942 87.0283C139.71 86.1323 138.739 84.9189 138.03 83.3883C136.462 79.8789 136.593 75.7909 138.422 71.1243C140.177 66.7563 142.809 63.3963 146.318 61.0443C150.163 58.4309 154.643 57.4416 159.758 58.0763ZM169.128 41.6123C169.949 40.6043 170.938 40.0443 172.096 39.9323C173.253 39.8203 174.373 40.0069 175.456 40.4923C176.538 40.9403 177.453 41.6496 178.2 42.6203C178.984 43.5536 179.413 44.5989 179.488 45.7563L178.984 47.3803C179.394 47.8656 179.749 48.2576 180.048 48.5563C180.384 48.8549 180.57 49.3216 180.608 49.9563C180.832 50.4789 179.898 52.5509 177.808 56.1723C176.949 57.6656 176.034 59.2336 175.064 60.8763C174.13 62.4816 173.365 63.9189 172.768 65.1883C173.216 65.0763 173.664 64.9829 174.112 64.9083C174.56 64.8336 175.008 64.7403 175.456 64.6283C178.218 63.9189 180.085 63.5643 181.056 63.5643C182.026 63.5269 182.829 63.6203 183.464 63.8443C185.181 64.5163 186.077 65.5616 186.152 66.9803C185.629 68.2123 183.669 69.9296 180.272 72.1323C179.488 72.6176 178.853 73.0283 178.368 73.3643L173.496 76.8363C173.234 77.2469 173.048 77.6389 172.936 78.0123V78.0683C173.01 78.2549 173.477 78.5163 174.336 78.8523C175.232 79.1883 175.997 79.4869 176.632 79.7483C178.125 80.4203 179.45 81.3349 180.608 82.4923C180.981 82.9029 181.224 83.5189 181.336 84.3403C181.448 85.1243 181.317 85.8523 180.944 86.5243C180.608 87.1963 179.992 87.6816 179.096 87.9803C178.2 88.2789 176.949 88.1483 175.344 87.5883C172.992 86.5429 170.21 84.2096 167 80.5883C166.626 81.8949 166.253 83.1829 165.88 84.4523C165.544 85.6843 165.17 86.9536 164.76 88.2603C164.2 89.5296 162.893 90.1269 160.84 90.0523C160.018 90.0523 159.272 89.8843 158.6 89.5483C157.965 89.2123 157.592 88.7643 157.48 88.2043C157.181 87.3829 157.032 86.7669 157.032 86.3563C157.032 85.9829 157.125 85.5349 157.312 85.0123C158.17 82.8469 158.712 81.1296 158.936 79.8603C159.16 78.5536 159.309 77.7883 159.384 77.5643C158.338 76.8923 157.722 75.8283 157.536 74.3723C157.312 72.9536 157.648 71.6843 158.544 70.5643C159.738 70.1163 160.597 69.7803 161.12 69.5563C161.344 68.1376 161.717 66.6069 162.24 64.9643C163.173 62.0149 163.882 59.4576 164.368 57.2923C164.89 55.1269 165.618 52.6816 166.552 49.9563C167.522 47.1936 168.381 44.4123 169.128 41.6123Z"/>
</mask>
<path d="M110.865 43.3483L111.089 43.4043C112.022 43.9643 112.825 44.5989 113.497 45.3083C114.206 45.9803 114.841 46.7083 115.401 47.4923C115.998 48.2389 116.465 49.0603 116.801 49.9563C118.22 53.3909 116.988 57.2363 113.105 61.4923C111.462 63.2843 109.614 64.8149 107.561 66.0843C108.084 66.4576 108.569 66.7376 109.017 66.9243C109.502 67.0736 110.174 67.3909 111.033 67.8763C111.892 68.3243 112.452 69.2016 112.713 70.5083C112.974 71.7776 112.9 73.2149 112.489 74.8203C112.116 76.4256 111.406 78.0869 110.361 79.8043C109.353 81.4843 108.028 82.9963 106.385 84.3403C102.652 87.4389 98.3209 88.7456 93.3929 88.2603C92.6835 88.2603 92.2355 88.2043 92.0489 88.0923C91.8622 87.9803 91.7129 87.8869 91.6009 87.8123C91.4889 87.7376 91.2462 87.6816 90.8729 87.6443C89.9395 88.3909 88.8755 88.8576 87.6809 89.0443C86.4862 89.2309 85.3475 89.1376 84.2649 88.7643C83.2195 88.3909 82.3235 87.7563 81.5769 86.8603C80.8675 85.9643 80.5129 84.7883 80.5129 83.3323C80.6249 82.3616 80.8115 81.5963 81.0729 81.0363C80.9609 80.7003 80.9049 80.2896 80.9049 79.8043C82.1742 73.0469 83.3689 67.8763 84.4889 64.2923C86.7662 57.1616 89.2302 51.7856 91.8809 48.1643C94.0462 45.1029 97.0515 43.1243 100.897 42.2283C104.593 41.3696 107.916 41.7429 110.865 43.3483ZM93.4489 82.4363C93.8969 82.3243 94.2702 82.3056 94.5689 82.3803C94.9049 82.4176 95.2969 82.3989 95.7449 82.3243C96.8275 82.2123 98.2835 81.5403 100.113 80.3083C101.27 79.1509 101.886 78.0123 101.961 76.8923C102.036 75.7723 101.868 75.0629 101.457 74.7643C101.046 74.4283 100.486 74.2603 99.7769 74.2603C99.1049 74.2603 98.3395 74.3723 97.4809 74.5963C96.6595 74.7829 95.8569 74.8949 95.0729 74.9323V75.0443C94.8862 75.7909 94.6995 76.4443 94.5129 77.0043C94.3262 77.5643 94.1582 78.1056 94.0089 78.6283C93.6729 79.8603 93.4115 81.1296 93.2249 82.4363H93.4489ZM103.865 53.3163C102.745 53.1669 101.532 54.0443 100.225 55.9483C99.4035 57.1429 98.7689 58.9536 98.3209 61.3803C99.1049 61.0443 99.8702 60.7643 100.617 60.5403C101.401 60.2789 102.129 59.9989 102.801 59.7003C104.444 58.9909 105.62 58.1323 106.329 57.1243C107.15 56.1536 107.412 55.3323 107.113 54.6603C106.665 54.0629 105.937 53.5216 104.929 53.0363C104.63 53.2976 104.276 53.3909 103.865 53.3163ZM103.025 53.0923H103.193H103.025ZM136.063 61.5483L136.287 61.6043C136.361 61.6043 136.399 61.6229 136.399 61.6603C137.369 61.2869 138.172 61.5669 138.807 62.5003C139.217 63.1349 139.535 64.1056 139.759 65.4123C139.833 67.2043 139.647 69.6869 139.199 72.8603C138.34 79.2816 137.873 83.1083 137.799 84.3403C137.873 85.6469 137.071 86.5429 135.391 87.0283C133.935 87.4763 132.479 87.4576 131.023 86.9723C129.492 86.4496 128.857 85.6469 129.119 84.5643C128.82 85.1243 128.521 85.5163 128.223 85.7403C127.924 86.0016 127.327 86.3376 126.431 86.7483C125.572 87.1963 124.34 87.5509 122.735 87.8123C121.129 88.1109 119.524 88.1856 117.919 88.0363C116.313 87.9243 114.839 87.5323 113.495 86.8603C112.188 86.2256 111.311 85.2176 110.863 83.8363C110.004 81.1483 110.116 77.7323 111.199 73.5883C111.945 70.8629 113.289 68.4549 115.231 66.3643C117.471 63.9749 120.009 61.9963 122.847 60.4283C124.975 59.2709 127.028 58.5803 129.007 58.3563C129.679 58.2816 130.257 58.3003 130.743 58.4123C131.265 58.5243 131.807 58.6363 132.367 58.7483C132.964 58.8603 133.524 59.0283 134.047 59.2523C135.391 59.8123 136.063 60.5776 136.063 61.5483ZM125.703 76.3883C125.964 75.8656 126.169 75.2123 126.319 74.4283C126.505 73.6443 126.748 72.7856 127.047 71.8523C124.023 73.0843 121.708 74.5963 120.103 76.3883C118.348 78.3669 118.46 79.7296 120.439 80.4763C122.156 80.9243 123.407 80.6443 124.191 79.6363C124.527 79.1883 124.825 78.6283 125.087 77.9563C125.348 77.2843 125.665 76.5936 126.039 75.8843C125.927 76.0709 125.815 76.2389 125.703 76.3883ZM159.758 58.0763C161.214 58.2629 162.185 58.7856 162.67 59.6443C163.193 60.4656 163.398 61.3616 163.286 62.3323C163.174 63.2656 162.819 64.1243 162.222 64.9083C161.662 65.6549 161.027 66.0469 160.318 66.0843C160.057 66.8683 159.646 67.4096 159.086 67.7083C158.526 68.0069 157.91 68.2123 157.238 68.3243C156.566 68.4363 155.857 68.5669 155.11 68.7163C154.401 68.8283 153.729 69.1456 153.094 69.6683C152.459 70.1909 151.918 70.7136 151.47 71.2363C151.059 71.7216 150.723 72.2069 150.462 72.6923C150.014 73.5136 149.622 74.5216 149.286 75.7163C149.211 76.5376 149.603 77.3029 150.462 78.0123C151.47 78.7963 152.571 79.1509 153.766 79.0763C154.961 78.9643 155.913 79.0203 156.622 79.2443C157.369 79.4309 157.929 79.7109 158.302 80.0843C159.123 80.9429 159.049 81.9323 158.078 83.0523C156.211 86.0389 153.075 87.8123 148.67 88.3723C147.363 88.5589 146.057 88.5963 144.75 88.4843C143.443 88.4096 142.174 87.9243 140.942 87.0283C139.71 86.1323 138.739 84.9189 138.03 83.3883C136.462 79.8789 136.593 75.7909 138.422 71.1243C140.177 66.7563 142.809 63.3963 146.318 61.0443C150.163 58.4309 154.643 57.4416 159.758 58.0763ZM169.128 41.6123C169.949 40.6043 170.938 40.0443 172.096 39.9323C173.253 39.8203 174.373 40.0069 175.456 40.4923C176.538 40.9403 177.453 41.6496 178.2 42.6203C178.984 43.5536 179.413 44.5989 179.488 45.7563L178.984 47.3803C179.394 47.8656 179.749 48.2576 180.048 48.5563C180.384 48.8549 180.57 49.3216 180.608 49.9563C180.832 50.4789 179.898 52.5509 177.808 56.1723C176.949 57.6656 176.034 59.2336 175.064 60.8763C174.13 62.4816 173.365 63.9189 172.768 65.1883C173.216 65.0763 173.664 64.9829 174.112 64.9083C174.56 64.8336 175.008 64.7403 175.456 64.6283C178.218 63.9189 180.085 63.5643 181.056 63.5643C182.026 63.5269 182.829 63.6203 183.464 63.8443C185.181 64.5163 186.077 65.5616 186.152 66.9803C185.629 68.2123 183.669 69.9296 180.272 72.1323C179.488 72.6176 178.853 73.0283 178.368 73.3643L173.496 76.8363C173.234 77.2469 173.048 77.6389 172.936 78.0123V78.0683C173.01 78.2549 173.477 78.5163 174.336 78.8523C175.232 79.1883 175.997 79.4869 176.632 79.7483C178.125 80.4203 179.45 81.3349 180.608 82.4923C180.981 82.9029 181.224 83.5189 181.336 84.3403C181.448 85.1243 181.317 85.8523 180.944 86.5243C180.608 87.1963 179.992 87.6816 179.096 87.9803C178.2 88.2789 176.949 88.1483 175.344 87.5883C172.992 86.5429 170.21 84.2096 167 80.5883C166.626 81.8949 166.253 83.1829 165.88 84.4523C165.544 85.6843 165.17 86.9536 164.76 88.2603C164.2 89.5296 162.893 90.1269 160.84 90.0523C160.018 90.0523 159.272 89.8843 158.6 89.5483C157.965 89.2123 157.592 88.7643 157.48 88.2043C157.181 87.3829 157.032 86.7669 157.032 86.3563C157.032 85.9829 157.125 85.5349 157.312 85.0123C158.17 82.8469 158.712 81.1296 158.936 79.8603C159.16 78.5536 159.309 77.7883 159.384 77.5643C158.338 76.8923 157.722 75.8283 157.536 74.3723C157.312 72.9536 157.648 71.6843 158.544 70.5643C159.738 70.1163 160.597 69.7803 161.12 69.5563C161.344 68.1376 161.717 66.6069 162.24 64.9643C163.173 62.0149 163.882 59.4576 164.368 57.2923C164.89 55.1269 165.618 52.6816 166.552 49.9563C167.522 47.1936 168.381 44.4123 169.128 41.6123Z" fill="white"/>
<path d="M110.865 43.3483L109.909 45.1049L110.133 45.2267L110.38 45.2886L110.865 43.3483ZM111.089 43.4043L112.118 41.6893L111.863 41.5362L111.574 41.464L111.089 43.4043ZM113.497 45.3083L112.045 46.6838L112.082 46.723L112.121 46.7602L113.497 45.3083ZM115.401 47.4923L113.773 48.6547L113.805 48.6991L113.839 48.7417L115.401 47.4923ZM116.801 49.9563L114.928 50.6585L114.94 50.6893L114.952 50.7198L116.801 49.9563ZM113.105 61.4923L114.579 62.8437L114.582 62.8402L113.105 61.4923ZM107.561 66.0843L106.509 64.3831L103.952 65.9641L106.398 67.7117L107.561 66.0843ZM109.017 66.9243L108.248 68.7704L108.337 68.8075L108.429 68.8358L109.017 66.9243ZM111.033 67.8763L110.049 69.6174L110.078 69.6339L110.108 69.6494L111.033 67.8763ZM112.713 70.5083L110.752 70.9005L110.754 70.9116L112.713 70.5083ZM112.489 74.8203L110.551 74.3246L110.546 74.3459L110.541 74.3672L112.489 74.8203ZM110.361 79.8043L108.652 78.7644L108.646 78.7753L110.361 79.8043ZM106.385 84.3403L105.118 82.7923L105.108 82.8013L106.385 84.3403ZM93.3929 88.2603L93.5889 86.2699L93.4911 86.2603H93.3929V88.2603ZM92.0489 88.0923L91.0199 89.8073H91.0199L92.0489 88.0923ZM91.6009 87.8123L92.7103 86.1482L92.7103 86.1482L91.6009 87.8123ZM90.8729 87.6443L91.0719 85.6542L90.2603 85.573L89.6235 86.0825L90.8729 87.6443ZM87.6809 89.0443L87.3721 87.0682L87.6809 89.0443ZM84.2649 88.7643L83.5922 90.6478L83.6025 90.6514L83.6129 90.655L84.2649 88.7643ZM81.5769 86.8603L80.0088 88.1017L80.0244 88.1214L80.0404 88.1406L81.5769 86.8603ZM80.5129 83.3323L78.5261 83.103L78.5129 83.2173V83.3323H80.5129ZM81.0729 81.0363L82.8852 81.882L83.2223 81.1599L82.9702 80.4038L81.0729 81.0363ZM80.9049 79.8043L78.9393 79.435L78.9049 79.618V79.8043H80.9049ZM84.4889 64.2923L82.5836 63.6838L82.5799 63.6957L84.4889 64.2923ZM91.8809 48.1643L93.4947 49.3455L93.5043 49.3324L93.5137 49.3192L91.8809 48.1643ZM100.897 42.2283L100.444 40.2801L100.443 40.2804L100.897 42.2283ZM93.4489 82.4363V84.4363H93.6951L93.9339 84.3765L93.4489 82.4363ZM94.5689 82.3803L94.0838 84.3205L94.2143 84.3532L94.348 84.368L94.5689 82.3803ZM95.7449 82.3243L95.5391 80.3349L95.4773 80.3413L95.4161 80.3515L95.7449 82.3243ZM100.113 80.3083L101.23 81.9671L101.39 81.8592L101.527 81.7225L100.113 80.3083ZM101.457 74.7643L100.19 76.3122L100.234 76.3482L100.281 76.3817L101.457 74.7643ZM97.4809 74.5963L97.9241 76.5465L97.955 76.5395L97.9857 76.5315L97.4809 74.5963ZM95.0729 74.9323L94.9777 72.9345L93.0729 73.0252V74.9323H95.0729ZM95.0729 75.0443L97.0132 75.5293L97.0729 75.2905V75.0443H95.0729ZM94.5129 77.0043L96.4102 77.6367L96.4102 77.6367L94.5129 77.0043ZM94.0089 78.6283L92.0858 78.0788L92.0825 78.0904L92.0793 78.102L94.0089 78.6283ZM93.2249 82.4363L91.245 82.1534L90.9189 84.4363H93.2249V82.4363ZM103.865 53.3163L104.223 51.3485L104.176 51.3401L104.129 51.3338L103.865 53.3163ZM100.225 55.9483L101.873 57.0813L101.874 57.0799L100.225 55.9483ZM98.3209 61.3803L96.3541 61.0172L95.6761 64.6897L99.1087 63.2186L98.3209 61.3803ZM100.617 60.5403L101.192 62.4559L101.221 62.4472L101.249 62.4376L100.617 60.5403ZM102.801 59.7003L102.008 57.8641L101.998 57.8683L101.989 57.8726L102.801 59.7003ZM106.329 57.1243L104.802 55.8324L104.745 55.9004L104.693 55.9733L106.329 57.1243ZM107.113 54.6603L108.941 53.848L108.849 53.6413L108.713 53.4603L107.113 54.6603ZM104.929 53.0363L105.797 51.2343L104.606 50.6611L103.612 51.5311L104.929 53.0363ZM110.38 45.2886L110.604 45.3446L111.574 41.464L111.35 41.408L110.38 45.2886ZM110.06 45.1193C110.855 45.5963 111.511 46.1203 112.045 46.6838L114.949 43.9328C114.139 43.0776 113.189 42.3322 112.118 41.6893L110.06 45.1193ZM112.121 46.7602C112.739 47.3452 113.289 47.9765 113.773 48.6547L117.028 46.3298C116.393 45.44 115.673 44.6153 114.872 43.8564L112.121 46.7602ZM113.839 48.7417C114.305 49.3234 114.666 49.96 114.928 50.6585L118.674 49.254C118.263 48.1605 117.692 47.1545 116.963 46.2429L113.839 48.7417ZM114.952 50.7198C115.929 53.0846 115.308 56.1102 111.627 60.1443L114.582 62.8402C118.667 58.3624 120.51 53.6973 118.649 49.1927L114.952 50.7198ZM111.631 60.1408C110.111 61.7983 108.405 63.211 106.509 64.3831L108.613 67.7855C110.823 66.4188 112.813 64.7702 114.579 62.8437L111.631 60.1408ZM106.398 67.7117C107.007 68.1462 107.624 68.5107 108.248 68.7704L109.786 65.0781C109.513 64.9644 109.16 64.769 108.723 64.4568L106.398 67.7117ZM108.429 68.8358C108.702 68.9198 109.222 69.1498 110.049 69.6174L112.017 66.1351C111.127 65.632 110.303 65.2274 109.605 65.0127L108.429 68.8358ZM110.108 69.6494C110.248 69.7225 110.562 69.9511 110.752 70.9005L114.674 70.116C114.341 68.4521 113.535 66.926 111.958 66.1031L110.108 69.6494ZM110.754 70.9116C110.939 71.8125 110.907 72.9341 110.551 74.3246L114.426 75.3159C114.892 73.4958 115.009 71.7426 114.672 70.105L110.754 70.9116ZM110.541 74.3672C110.225 75.7257 109.611 77.1902 108.652 78.7644L112.069 80.8442C113.202 78.9837 114.006 77.1255 114.437 75.2733L110.541 74.3672ZM108.646 78.7753C107.766 80.2419 106.598 81.582 105.118 82.7924L107.651 85.8882C109.457 84.4105 110.94 82.7266 112.076 80.8333L108.646 78.7753ZM105.108 82.8013C101.795 85.5509 97.9975 86.7041 93.5889 86.2699L93.1969 90.2506C98.6442 90.7871 103.508 89.3269 107.662 85.8792L105.108 82.8013ZM93.3929 86.2603C93.0801 86.2603 92.8821 86.2474 92.7729 86.2337C92.7195 86.227 92.717 86.2237 92.7497 86.2324C92.7676 86.2371 92.805 86.2478 92.856 86.2676C92.9058 86.287 92.9843 86.3211 93.0779 86.3773L91.0199 89.8073C91.4938 90.0916 92.0102 90.1695 92.2768 90.2028C92.6157 90.2452 92.9963 90.2603 93.3929 90.2603V86.2603ZM93.0779 86.3773C92.9041 86.273 92.7849 86.1979 92.7103 86.1482L90.4915 89.4764C90.6409 89.576 90.8204 89.6875 91.0199 89.8073L93.0779 86.3773ZM92.7103 86.1482C92.349 85.9073 91.9762 85.8097 91.7846 85.7655C91.5505 85.7115 91.3053 85.6775 91.0719 85.6542L90.6739 89.6343C90.7401 89.641 90.7911 89.6475 90.8288 89.6532C90.8473 89.656 90.8613 89.6584 90.8712 89.6603C90.8811 89.6621 90.8856 89.6631 90.8852 89.663C90.8849 89.663 90.8777 89.6613 90.8647 89.6576C90.8519 89.6539 90.83 89.6471 90.801 89.6365C90.7723 89.6259 90.7313 89.6095 90.6816 89.5855C90.6325 89.5617 90.5666 89.5265 90.4915 89.4764L92.7103 86.1482ZM89.6235 86.0825C88.9656 86.6089 88.2267 86.9347 87.3721 87.0682L87.9896 91.0203C89.5244 90.7805 90.9135 90.173 92.1223 89.206L89.6235 86.0825ZM87.3721 87.0682C86.4813 87.2074 85.6737 87.1345 84.9169 86.8735L83.6129 90.655C85.0213 91.1407 86.4911 91.2544 87.9896 91.0203L87.3721 87.0682ZM84.9375 86.8808C84.2462 86.6339 83.6432 86.2158 83.1133 85.5799L80.0404 88.1406C81.0038 89.2967 82.1929 90.148 83.5922 90.6478L84.9375 86.8808ZM83.145 85.6189C82.7843 85.1633 82.5129 84.463 82.5129 83.3323H78.5129C78.5129 85.1135 78.9507 86.7652 80.0088 88.1017L83.145 85.6189ZM82.4997 83.5615C82.5996 82.6954 82.7518 82.1679 82.8852 81.882L79.2605 80.1905C78.8713 81.0246 78.6501 82.0278 78.5261 83.103L82.4997 83.5615ZM82.9702 80.4038C82.9462 80.3316 82.9049 80.1485 82.9049 79.8043H78.9049C78.9049 80.4307 78.9756 81.0689 79.1755 81.6687L82.9702 80.4038ZM82.8705 80.1735C84.1351 73.4411 85.3129 68.3608 86.3978 64.8888L82.5799 63.6957C81.4249 67.3918 80.2133 72.6527 78.9393 79.435L82.8705 80.1735ZM86.3941 64.9007C88.6435 57.8575 91.0283 52.7152 93.4947 49.3455L90.267 46.983C87.4321 50.856 84.889 56.4657 82.5837 63.6838L86.3941 64.9007ZM93.5137 49.3192C95.3804 46.6801 97.9546 44.9674 101.351 44.1761L100.443 40.2804C96.1485 41.2811 92.712 43.5258 90.248 47.0093L93.5137 49.3192ZM101.349 44.1764C104.635 43.4131 107.446 43.7645 109.909 45.1049L111.821 41.5916C108.385 39.7214 104.551 39.3261 100.444 40.2801L101.349 44.1764ZM93.9339 84.3765C94.0599 84.3451 94.1342 84.3373 94.1648 84.3358C94.1952 84.3342 94.1613 84.3399 94.0838 84.3205L95.0539 80.44C94.3169 80.2557 93.5838 80.341 92.9638 80.496L93.9339 84.3765ZM94.348 84.368C94.9175 84.4313 95.502 84.3923 96.0737 84.2971L95.4161 80.3515C95.0918 80.4055 94.8923 80.4039 94.7897 80.3925L94.348 84.368ZM95.9507 84.3136C97.5514 84.1481 99.3537 83.2308 101.23 81.9671L98.9957 78.6494C97.2134 79.8497 96.1037 80.2765 95.5391 80.3349L95.9507 84.3136ZM101.527 81.7225C102.873 80.3764 103.838 78.8088 103.956 77.0253L99.9653 76.7592C99.9349 77.2158 99.6672 77.9255 98.6987 78.8941L101.527 81.7225ZM103.956 77.0253C104.001 76.3612 103.985 75.6835 103.837 75.0593C103.69 74.4388 103.364 73.6779 102.633 73.1468L100.281 76.3817C99.9609 76.1493 99.9237 75.8924 99.9447 75.9812C99.9528 76.0152 99.967 76.0943 99.974 76.2312C99.9809 76.3665 99.9799 76.5407 99.9653 76.7592L103.956 77.0253ZM102.723 73.2164C101.851 72.5025 100.792 72.2603 99.7769 72.2603V76.2603C100.18 76.2603 100.242 76.354 100.19 76.3122L102.723 73.2164ZM99.7769 72.2603C98.8902 72.2603 97.9503 72.4069 96.976 72.661L97.9857 76.5315C98.7288 76.3376 99.3196 76.2603 99.7769 76.2603V72.2603ZM97.0376 72.646C96.3225 72.8085 95.6364 72.9032 94.9777 72.9345L95.168 76.93C96.0774 76.8867 96.9966 76.7573 97.9241 76.5465L97.0376 72.646ZM93.0729 74.9323V75.0443H97.0729V74.9323H93.0729ZM93.1326 74.5592C92.9548 75.2702 92.782 75.8723 92.6155 76.3718L96.4102 77.6367C96.6171 77.0162 96.8176 76.3117 97.0132 75.5293L93.1326 74.5592ZM92.6155 76.3718C92.4205 76.957 92.2438 77.5261 92.0858 78.0788L95.9319 79.1777C96.0727 78.6851 96.232 78.1716 96.4102 77.6367L92.6155 76.3718ZM92.0793 78.102C91.7208 79.4167 91.443 80.7674 91.245 82.1534L95.2048 82.7191C95.3801 81.4918 95.6249 80.3039 95.9384 79.1545L92.0793 78.102ZM93.2249 84.4363H93.4489V80.4363H93.2249V84.4363ZM104.129 51.3338C102.915 51.1718 101.826 51.6031 100.943 52.2416C100.078 52.867 99.2964 53.7667 98.5758 54.8166L101.874 57.0799C102.46 56.2259 102.938 55.7348 103.287 55.483C103.617 55.2441 103.695 55.3113 103.601 55.2987L104.129 51.3338ZM98.5768 54.8152C97.5221 56.3493 96.8222 58.4817 96.3541 61.0172L100.288 61.7434C100.716 59.4255 101.285 57.9365 101.873 57.0813L98.5768 54.8152ZM99.1087 63.2186C99.8296 62.9096 100.524 62.6563 101.192 62.4559L100.042 58.6246C99.2167 58.8723 98.3802 59.1789 97.533 59.542L99.1087 63.2186ZM101.249 62.4376C102.087 62.1584 102.876 61.8556 103.613 61.5279L101.989 57.8726C101.382 58.1422 100.715 58.3995 99.9844 58.6429L101.249 62.4376ZM103.594 61.5364C105.431 60.743 106.968 59.6918 107.964 58.2753L104.693 55.9733C104.271 56.5727 103.456 57.2388 102.008 57.8641L103.594 61.5364ZM107.856 58.4161C108.792 57.3097 109.734 55.6334 108.941 53.848L105.285 55.4725C105.251 55.3964 105.234 55.3143 105.233 55.2422C105.231 55.1751 105.243 55.1485 105.235 55.1739C105.213 55.2435 105.116 55.4612 104.802 55.8324L107.856 58.4161ZM108.713 53.4603C108 52.5104 106.961 51.795 105.797 51.2343L104.061 54.8383C104.913 55.2482 105.329 55.6155 105.513 55.8603L108.713 53.4603ZM103.612 51.5311C103.676 51.4753 103.784 51.4064 103.93 51.3681C104.072 51.3307 104.18 51.3408 104.223 51.3485L103.507 55.284C104.481 55.4612 105.462 55.2275 106.246 54.5414L103.612 51.5311ZM103.025 55.0923H103.193V51.0923H103.025V55.0923ZM103.193 51.0923H103.025V55.0923H103.193V51.0923ZM136.063 61.5483H134.063V63.1098L135.578 63.4886L136.063 61.5483ZM136.287 61.6043L135.802 63.5445L136.04 63.6043H136.287V61.6043ZM136.399 61.6603H134.399V64.5723L137.117 63.527L136.399 61.6603ZM138.807 62.5003L140.486 61.4138L140.473 61.3946L140.461 61.3756L138.807 62.5003ZM139.759 65.4123L141.757 65.329L141.752 65.2008L141.73 65.0743L139.759 65.4123ZM139.199 72.8603L137.218 72.5807L137.217 72.5879L137.216 72.5952L139.199 72.8603ZM137.799 84.3403L135.802 84.2193L135.795 84.3368L135.802 84.4544L137.799 84.3403ZM135.391 87.0283L134.836 85.1068L134.819 85.1116L134.803 85.1167L135.391 87.0283ZM131.023 86.9723L130.376 88.865L130.383 88.8673L130.39 88.8696L131.023 86.9723ZM129.119 84.5643L131.063 85.0335L127.354 83.6231L129.119 84.5643ZM128.223 85.7403L127.023 84.1403L126.962 84.1855L126.906 84.2351L128.223 85.7403ZM126.431 86.7483L125.597 84.9301L125.551 84.9514L125.506 84.9751L126.431 86.7483ZM122.735 87.8123L122.413 85.8382L122.391 85.8419L122.369 85.846L122.735 87.8123ZM117.919 88.0363L118.104 86.0449L118.081 86.0427L118.058 86.0411L117.919 88.0363ZM113.495 86.8603L114.389 85.0714L114.379 85.0663L114.368 85.0612L113.495 86.8603ZM110.863 83.8363L108.958 84.4449L108.96 84.4533L110.863 83.8363ZM111.199 73.5883L109.27 73.0598L109.267 73.0712L109.264 73.0827L111.199 73.5883ZM115.231 66.3643L113.772 64.9964L113.765 65.0034L115.231 66.3643ZM122.847 60.4283L121.891 58.6713L121.879 58.6778L122.847 60.4283ZM129.007 58.3563L128.786 56.3685L128.782 56.369L129.007 58.3563ZM130.743 58.4123L130.293 60.361L130.308 60.3646L130.324 60.3679L130.743 58.4123ZM132.367 58.7483L131.974 60.7094L131.986 60.7118L131.998 60.714L132.367 58.7483ZM134.047 59.2523L133.259 61.0906L133.268 61.0945L133.277 61.0984L134.047 59.2523ZM125.703 76.3883L123.914 75.4938L127.303 77.5883L125.703 76.3883ZM126.319 74.4283L124.373 73.965L124.363 74.0093L124.354 74.054L126.319 74.4283ZM127.047 71.8523L128.952 72.4618L130.256 68.3851L126.292 70.0001L127.047 71.8523ZM120.103 76.3883L118.613 75.0538L118.606 75.0613L120.103 76.3883ZM120.439 80.4763L119.733 82.3475L119.832 82.3848L119.934 82.4115L120.439 80.4763ZM124.191 79.6363L125.769 80.8641L125.78 80.8503L125.791 80.8363L124.191 79.6363ZM125.087 77.9563L126.951 78.6812L125.087 77.9563ZM126.039 75.8843L127.809 76.8158L124.324 74.8553L126.039 75.8843ZM135.578 63.4886L135.802 63.5445L136.772 59.664L136.548 59.608L135.578 63.4886ZM136.287 63.6043C136.222 63.6043 135.876 63.6067 135.476 63.4071C135.248 63.2931 134.957 63.0896 134.728 62.7452C134.49 62.3882 134.399 62.0009 134.399 61.6603H138.399C138.399 61.301 138.303 60.8974 138.056 60.5264C137.817 60.1679 137.512 59.9527 137.265 59.8294C136.829 59.6111 136.426 59.6043 136.287 59.6043V63.6043ZM137.117 63.527C137.196 63.4965 137.221 63.4989 137.2 63.5C137.19 63.5005 137.171 63.5005 137.146 63.4971C137.121 63.4936 137.095 63.4874 137.07 63.4787C137.045 63.47 137.026 63.4606 137.015 63.4538C137.003 63.4472 137.002 63.4448 137.009 63.451C137.025 63.4647 137.077 63.513 137.153 63.6249L140.461 61.3756C139.981 60.6697 139.308 60.0231 138.387 59.7019C137.445 59.3732 136.505 59.4764 135.681 59.7936L137.117 63.527ZM137.128 63.5868C137.32 63.8837 137.58 64.5393 137.787 65.7502L141.73 65.0743C141.49 63.6719 141.115 62.3862 140.486 61.4138L137.128 63.5868ZM137.76 65.4955C137.828 67.1071 137.66 69.4496 137.218 72.5807L141.179 73.1398C141.633 69.9242 141.839 67.3014 141.757 65.329L137.76 65.4955ZM137.216 72.5952C136.363 78.9771 135.883 82.8958 135.802 84.2193L139.795 84.4613C139.864 83.3207 140.317 79.5861 141.181 73.1253L137.216 72.5952ZM135.802 84.4544C135.808 84.5619 135.794 84.6079 135.791 84.6156C135.79 84.62 135.787 84.631 135.763 84.6578C135.701 84.7269 135.47 84.9237 134.836 85.1068L135.946 88.9497C136.992 88.6475 138.002 88.1536 138.742 87.3268C139.532 86.4457 139.86 85.359 139.795 84.2262L135.802 84.4544ZM134.803 85.1167C133.748 85.4411 132.719 85.4295 131.655 85.0749L130.39 88.8696C132.239 89.4857 134.121 89.5114 135.979 88.9398L134.803 85.1167ZM131.669 85.0796C131.389 84.9841 131.203 84.8933 131.087 84.8219C130.971 84.7508 130.95 84.7152 130.968 84.7378C130.992 84.7694 131.034 84.8397 131.053 84.9353C131.07 85.0252 131.055 85.0674 131.063 85.0335L127.175 84.095C126.914 85.173 127.094 86.2885 127.83 87.2187C128.487 88.0496 129.441 88.5455 130.376 88.865L131.669 85.0796ZM127.354 83.6231C127.242 83.8337 127.149 83.9759 127.08 84.0662C127.009 84.1594 126.986 84.1678 127.023 84.1403L129.423 87.3403C130.065 86.8586 130.53 86.1671 130.883 85.5054L127.354 83.6231ZM126.906 84.2351C126.908 84.2328 126.822 84.3035 126.57 84.4451C126.335 84.5773 126.015 84.7388 125.597 84.9301L127.264 88.5664C128.152 88.1595 128.997 87.7203 129.54 87.2454L126.906 84.2351ZM125.506 84.9751C124.922 85.2798 123.931 85.5913 122.413 85.8382L123.056 89.7863C124.749 89.5106 126.223 89.1127 127.356 88.5214L125.506 84.9751ZM122.369 85.846C120.943 86.1113 119.523 86.1769 118.104 86.0449L117.733 90.0277C119.525 90.1943 121.316 90.1105 123.101 89.7785L122.369 85.846ZM118.058 86.0411C116.697 85.9461 115.481 85.6174 114.389 85.0714L112.6 88.6491C114.196 89.4471 115.93 89.9024 117.779 90.0314L118.058 86.0411ZM114.368 85.0612C113.551 84.6642 113.045 84.0829 112.765 83.2193L108.96 84.4533C109.576 86.3523 110.825 87.787 112.621 88.6593L114.368 85.0612ZM112.768 83.2277C112.07 81.0421 112.101 78.0476 113.134 74.0938L109.264 73.0827C108.131 77.417 107.938 81.2545 108.958 84.4449L112.768 83.2277ZM113.128 74.1167C113.788 71.7053 114.972 69.5821 116.696 67.7252L113.765 65.0034C111.607 67.3278 110.102 70.0206 109.27 73.0598L113.128 74.1167ZM116.69 67.7321C118.788 65.4937 121.162 63.6446 123.814 62.1787L121.879 58.6778C118.857 60.3479 116.153 62.4562 113.772 64.9964L116.69 67.7321ZM123.802 62.1852C125.752 61.1251 127.558 60.533 129.232 60.3436L128.782 56.369C126.498 56.6275 124.198 57.4168 121.891 58.6713L123.802 62.1852ZM129.228 60.344C129.75 60.286 130.09 60.3143 130.293 60.361L131.192 56.4635C130.424 56.2863 129.607 56.2772 128.786 56.3685L129.228 60.344ZM130.324 60.3679C130.856 60.4819 131.406 60.5958 131.974 60.7094L132.759 56.7871C132.207 56.6768 131.675 56.5666 131.162 56.4567L130.324 60.3679ZM131.998 60.714C132.461 60.8008 132.88 60.9281 133.259 61.0906L134.835 57.414C134.168 57.1285 133.467 56.9197 132.735 56.7825L131.998 60.714ZM133.277 61.0984C133.781 61.308 133.988 61.4891 134.056 61.5659C134.084 61.5974 134.08 61.6024 134.072 61.5808C134.063 61.5577 134.063 61.5418 134.063 61.5483H138.063C138.063 59.3888 136.475 58.0975 134.816 57.4061L133.277 61.0984ZM127.492 77.2827C127.859 76.5479 128.111 75.7061 128.283 74.8025L124.354 74.054C124.227 74.7184 124.069 75.1833 123.914 75.4938L127.492 77.2827ZM128.264 74.8915C128.437 74.1659 128.665 73.3568 128.952 72.4618L125.142 71.2427C124.831 72.2144 124.574 73.1226 124.373 73.965L128.264 74.8915ZM126.292 70.0001C123.082 71.3078 120.48 72.9698 118.613 75.0538L121.592 77.7228C122.936 76.2227 124.963 74.8607 127.801 73.7044L126.292 70.0001ZM118.606 75.0613C117.667 76.1202 116.75 77.5051 116.877 79.0581C117.028 80.8873 118.46 81.8673 119.733 82.3475L121.145 78.6051C120.813 78.4798 120.718 78.3852 120.725 78.3929C120.735 78.4027 120.77 78.4417 120.804 78.5127C120.839 78.586 120.858 78.6629 120.864 78.7304C120.874 78.8576 120.83 78.8453 120.932 78.6391C121.032 78.4341 121.234 78.1271 121.599 77.7152L118.606 75.0613ZM119.934 82.4115C122.068 82.9682 124.302 82.7505 125.769 80.8641L122.612 78.4084C122.511 78.538 122.244 78.8804 120.944 78.541L119.934 82.4115ZM125.791 80.8363C126.262 80.2079 126.641 79.4768 126.951 78.6812L123.223 77.2314C123.009 77.7797 122.791 78.1687 122.591 78.4363L125.791 80.8363ZM126.951 78.6812C127.182 78.087 127.467 77.4654 127.809 76.8158L124.269 74.9528C123.864 75.7218 123.514 76.4815 123.223 77.2314L126.951 78.6812ZM124.324 74.8553C124.241 74.9924 124.167 75.102 124.103 75.1883L127.303 77.5883C127.462 77.3758 127.612 77.1495 127.754 76.9133L124.324 74.8553ZM159.758 58.0763L160.012 56.0925L160.004 56.0915L159.758 58.0763ZM162.67 59.6443L160.929 60.6284L160.955 60.6739L160.983 60.718L162.67 59.6443ZM163.286 62.3323L165.272 62.5706L165.273 62.5615L163.286 62.3323ZM162.222 64.9083L160.631 63.6962L160.627 63.7022L160.622 63.7083L162.222 64.9083ZM160.318 66.0843L160.213 64.087L158.852 64.1587L158.421 65.4518L160.318 66.0843ZM159.086 67.7083L160.027 69.473V69.473L159.086 67.7083ZM157.238 68.3243L156.909 66.3515H156.909L157.238 68.3243ZM155.11 68.7163L155.422 70.6918L155.462 70.6854L155.502 70.6774L155.11 68.7163ZM153.094 69.6683L151.823 68.1244H151.823L153.094 69.6683ZM151.47 71.2363L149.952 69.9347L149.943 69.9444L151.47 71.2363ZM150.462 72.6923L152.218 73.65L152.223 73.6405L150.462 72.6923ZM149.286 75.7163L147.361 75.1748L147.311 75.3519L147.294 75.5352L149.286 75.7163ZM150.462 78.0123L149.188 79.5542L149.211 79.5729L149.234 79.591L150.462 78.0123ZM153.766 79.0763L153.891 81.0724L153.922 81.0704L153.953 81.0675L153.766 79.0763ZM156.622 79.2443L156.02 81.1514L156.078 81.1698L156.137 81.1846L156.622 79.2443ZM158.302 80.0843L159.747 78.7018L159.732 78.6858L159.716 78.6701L158.302 80.0843ZM158.078 83.0523L156.567 81.7424L156.465 81.8601L156.382 81.9923L158.078 83.0523ZM148.67 88.3723L148.418 86.3882L148.403 86.3902L148.387 86.3924L148.67 88.3723ZM144.75 88.4843L144.921 86.4916L144.893 86.4891L144.864 86.4875L144.75 88.4843ZM140.942 87.0283L139.766 88.6457L140.942 87.0283ZM138.03 83.3883L136.204 84.2041L136.21 84.2167L136.216 84.2292L138.03 83.3883ZM138.422 71.1243L136.566 70.3787L136.563 70.3865L136.56 70.3943L138.422 71.1243ZM146.318 61.0443L147.432 62.7057L147.442 62.6984L146.318 61.0443ZM159.504 60.06C160.652 60.2072 160.883 60.5478 160.929 60.6284L164.411 58.6602C163.486 57.0234 161.776 56.3186 160.012 56.0925L159.504 60.06ZM160.983 60.718C161.258 61.1507 161.359 61.5864 161.299 62.103L165.273 62.5615C165.437 61.1368 165.127 59.7805 164.357 58.5705L160.983 60.718ZM161.3 62.094C161.233 62.6558 161.023 63.1814 160.631 63.6962L163.813 66.1203C164.615 65.0671 165.115 63.8754 165.272 62.5706L161.3 62.094ZM160.622 63.7083C160.456 63.9299 160.334 64.0245 160.275 64.0607C160.228 64.0895 160.216 64.0869 160.213 64.087L160.423 68.0815C161.898 68.0039 163.026 67.1698 163.822 66.1083L160.622 63.7083ZM158.421 65.4518C158.345 65.6797 158.269 65.806 158.221 65.8695C158.178 65.9264 158.152 65.9397 158.145 65.9436L160.027 69.473C161.163 68.8673 161.843 67.8349 162.215 66.7167L158.421 65.4518ZM158.145 65.9436C157.79 66.1329 157.383 66.2725 156.909 66.3515L157.567 70.2971C158.437 70.152 159.262 69.881 160.027 69.473L158.145 65.9436ZM156.909 66.3515C156.214 66.4674 155.483 66.602 154.718 66.7551L155.502 70.6774C156.23 70.5318 156.918 70.4051 157.567 70.2971L156.909 66.3515ZM154.798 66.7407C153.688 66.9161 152.692 67.4082 151.823 68.1244L154.366 71.2121C154.765 70.8829 155.114 70.7404 155.422 70.6918L154.798 66.7407ZM151.823 68.1244C151.115 68.7069 150.488 69.3093 149.952 69.9347L152.989 72.5378C153.349 72.1179 153.803 71.675 154.366 71.2121L151.823 68.1244ZM149.943 69.9444C149.456 70.52 149.038 71.1194 148.701 71.7441L152.223 73.6405C152.409 73.2945 152.663 72.9232 152.997 72.5281L149.943 69.9444ZM148.706 71.7346C148.167 72.7226 147.725 73.8793 147.361 75.1748L151.211 76.2578C151.519 75.1639 151.861 74.3046 152.218 73.65L148.706 71.7346ZM147.294 75.5352C147.14 77.2322 148.016 78.5861 149.188 79.5542L151.736 76.4703C151.457 76.2401 151.345 76.0747 151.304 75.9945C151.273 75.9336 151.276 75.9145 151.278 75.8973L147.294 75.5352ZM149.234 79.591C150.599 80.6526 152.175 81.1796 153.891 81.0724L153.641 77.0802C152.968 77.1223 152.341 76.9399 151.69 76.4336L149.234 79.591ZM153.953 81.0675C155.025 80.967 155.674 81.0422 156.02 81.1514L157.224 77.3371C156.152 76.9984 154.897 76.9615 153.579 77.085L153.953 81.0675ZM156.137 81.1846C156.683 81.3211 156.862 81.4729 156.888 81.4985L159.716 78.6701C158.995 77.949 158.054 77.5408 157.107 77.304L156.137 81.1846ZM156.857 81.4667C156.92 81.5326 156.914 81.5466 156.896 81.502C156.874 81.4492 156.863 81.3805 156.868 81.3198C156.872 81.2674 156.883 81.2734 156.846 81.3487C156.807 81.4272 156.726 81.5591 156.567 81.7424L159.59 84.3621C160.224 83.63 160.774 82.7086 160.856 81.6208C160.945 80.449 160.466 79.4528 159.747 78.7018L156.857 81.4667ZM156.382 81.9923C154.914 84.341 152.397 85.8824 148.418 86.3882L148.922 90.3563C153.754 89.7421 157.509 87.7369 159.774 84.1123L156.382 81.9923ZM148.387 86.3924C147.23 86.5577 146.075 86.5905 144.921 86.4916L144.579 90.477C146.038 90.602 147.497 90.5602 148.953 90.3522L148.387 86.3924ZM144.864 86.4875C144 86.4381 143.092 86.1189 142.118 85.4108L139.766 88.6457C141.256 89.7297 142.887 90.3811 144.636 90.481L144.864 86.4875ZM142.118 85.4108C141.191 84.736 140.427 83.803 139.845 82.5473L136.216 84.2292C137.052 86.0349 138.23 87.5285 139.766 88.6457L142.118 85.4108ZM139.856 82.5724C138.568 79.6888 138.588 76.1801 140.284 71.8542L136.56 70.3943C134.597 75.4018 134.357 80.069 136.204 84.2041L139.856 82.5724ZM140.278 71.8698C141.901 67.8304 144.294 64.8087 147.432 62.7056L145.205 59.3829C141.324 61.9838 138.453 65.6821 136.566 70.3787L140.278 71.8698ZM147.442 62.6984C150.842 60.3882 154.823 59.4792 159.512 60.061L160.004 56.0915C154.464 55.404 149.485 56.4736 145.194 59.3901L147.442 62.6984ZM169.128 41.6123L167.577 40.3489L167.306 40.6819L167.195 41.0969L169.128 41.6123ZM172.096 39.9323L171.903 37.9416H171.903L172.096 39.9323ZM175.456 40.4923L174.638 42.3173L174.664 42.3292L174.691 42.3403L175.456 40.4923ZM178.2 42.6203L176.614 43.8397L176.641 43.8737L176.668 43.9066L178.2 42.6203ZM179.488 45.7563L181.398 46.3491L181.507 45.9962L181.483 45.6275L179.488 45.7563ZM178.984 47.3803L177.074 46.7875L176.748 47.8349L177.457 48.6721L178.984 47.3803ZM180.048 48.5563L178.633 49.9705L178.675 50.012L178.719 50.0511L180.048 48.5563ZM180.608 49.9563L178.611 50.0737L178.632 50.4227L178.769 50.7441L180.608 49.9563ZM177.808 56.1723L176.076 55.1723L176.074 55.1753L177.808 56.1723ZM175.064 60.8763L173.342 59.8588L173.338 59.8649L173.335 59.871L175.064 60.8763ZM172.768 65.1883L170.958 64.3367L169.163 68.151L173.253 67.1286L172.768 65.1883ZM174.112 64.9083L173.783 62.9355L174.112 64.9083ZM175.456 64.6283L175.941 66.5686L175.953 66.5654L175.456 64.6283ZM181.056 63.5643V65.5643H181.094L181.132 65.5628L181.056 63.5643ZM183.464 63.8443L184.192 61.9818L184.161 61.9695L184.129 61.9583L183.464 63.8443ZM186.152 66.9803L187.993 67.7614L188.173 67.3363L188.149 66.8751L186.152 66.9803ZM180.272 72.1323L181.324 73.8328L181.342 73.8218L181.36 73.8104L180.272 72.1323ZM178.368 73.3643L177.229 71.7199L177.218 71.7276L177.207 71.7355L178.368 73.3643ZM173.496 76.8363L172.335 75.2075L172.018 75.4337L171.808 75.7625L173.496 76.8363ZM172.936 78.0123L171.02 77.4376L170.936 77.7187V78.0123H172.936ZM172.936 78.0683H170.936V78.4534L171.079 78.8111L172.936 78.0683ZM174.336 78.8523L173.607 80.7148L173.62 80.7199L173.633 80.7249L174.336 78.8523ZM176.632 79.7483L177.452 77.9244L177.423 77.9112L177.393 77.8989L176.632 79.7483ZM180.608 82.4923L182.088 81.1469L182.055 81.1117L182.022 81.0781L180.608 82.4923ZM181.336 84.3403L179.354 84.6105L179.356 84.6231L181.336 84.3403ZM180.944 86.5243L179.195 85.553L179.174 85.591L179.155 85.6298L180.944 86.5243ZM179.096 87.9803L179.728 89.8776L179.096 87.9803ZM175.344 87.5883L174.531 89.4159L174.607 89.4494L174.685 89.4767L175.344 87.5883ZM167 80.5883L168.496 79.2615L166.078 76.534L165.077 80.0388L167 80.5883ZM165.88 84.4523L163.961 83.8879L163.955 83.9069L163.95 83.926L165.88 84.4523ZM164.76 88.2603L166.589 89.0675L166.634 88.9659L166.668 88.8599L164.76 88.2603ZM160.84 90.0523L160.912 88.0536L160.876 88.0523H160.84V90.0523ZM158.6 89.5483L157.664 91.3158L157.684 91.3267L157.705 91.3371L158.6 89.5483ZM157.48 88.2043L159.441 87.812L159.411 87.6633L159.359 87.5208L157.48 88.2043ZM157.312 85.0123L155.452 84.275L155.44 84.3071L155.428 84.3396L157.312 85.0123ZM158.936 79.8603L160.905 80.2078L160.907 80.1982L158.936 79.8603ZM159.384 77.5643L161.281 78.1967L161.772 76.7223L160.465 75.8819L159.384 77.5643ZM157.536 74.3723L159.519 74.1179L159.516 74.0891L159.511 74.0603L157.536 74.3723ZM158.544 70.5643L157.841 68.6916L157.326 68.8849L156.982 69.3149L158.544 70.5643ZM161.12 69.5563L161.907 71.3946L162.923 70.9594L163.095 69.8682L161.12 69.5563ZM162.24 64.9643L164.145 65.5707L164.146 65.5677L162.24 64.9643ZM164.368 57.2923L162.423 56.823L162.42 56.8389L162.416 56.8548L164.368 57.2923ZM166.552 49.9563L164.665 49.2933L164.662 49.3008L164.66 49.3083L166.552 49.9563ZM170.678 42.8756C171.206 42.228 171.728 41.9772 172.288 41.923L171.903 37.9416C170.149 38.1113 168.692 38.9805 167.577 40.3489L170.678 42.8756ZM172.288 41.923C173.093 41.8451 173.865 41.9709 174.638 42.3173L176.274 38.6672C174.881 38.0429 173.413 37.7954 171.903 37.9416L172.288 41.923ZM174.691 42.3403C175.435 42.6481 176.071 43.1338 176.614 43.8397L179.785 41.4008C178.835 40.1654 177.642 39.2324 176.22 38.6442L174.691 42.3403ZM176.668 43.9066C177.193 44.5312 177.446 45.1758 177.492 45.885L181.483 45.6275C181.38 44.0221 180.774 42.5759 179.731 41.3339L176.668 43.9066ZM177.577 45.1635L177.074 46.7875L180.894 47.9731L181.398 46.3491L177.577 45.1635ZM177.457 48.6721C177.887 49.181 178.281 49.6184 178.633 49.9705L181.462 47.1421C181.217 46.8968 180.901 46.5502 180.51 46.0884L177.457 48.6721ZM178.719 50.0511C178.677 50.0138 178.644 49.9749 178.62 49.9397C178.596 49.9052 178.586 49.8805 178.583 49.873C178.58 49.8662 178.585 49.8767 178.592 49.9104C178.599 49.9442 178.607 49.9975 178.611 50.0737L182.604 49.8388C182.549 48.8964 182.249 47.8368 181.376 47.0614L178.719 50.0511ZM178.769 50.7441C178.618 50.3905 178.64 50.1144 178.643 50.0817C178.647 50.0202 178.654 50.0217 178.629 50.1114C178.581 50.2899 178.467 50.6027 178.252 51.0809C177.827 52.025 177.11 53.3802 176.076 55.1723L179.54 57.1722C180.596 55.343 181.391 53.8515 181.899 52.7237C182.15 52.1658 182.359 51.6363 182.488 51.1662C182.552 50.9315 182.611 50.6571 182.632 50.3681C182.651 50.1079 182.653 49.6527 182.446 49.1684L178.769 50.7441ZM176.074 55.1753C175.219 56.6611 174.309 58.2222 173.342 59.8588L176.785 61.8937C177.76 60.245 178.678 58.6701 179.541 57.1692L176.074 55.1753ZM173.335 59.871C172.381 61.5115 171.586 63.0014 170.958 64.3367L174.577 66.0399C175.144 64.8365 175.88 63.4517 176.793 61.8815L173.335 59.871ZM173.253 67.1286C173.65 67.0292 174.046 66.9468 174.44 66.8811L173.783 62.9355C173.281 63.019 172.781 63.1233 172.283 63.248L173.253 67.1286ZM174.44 66.8811C174.942 66.7975 175.442 66.6932 175.941 66.5686L174.971 62.688C174.573 62.7873 174.177 62.8697 173.783 62.9355L174.44 66.8811ZM175.953 66.5654C178.754 65.8461 180.379 65.5643 181.056 65.5643V61.5643C179.791 61.5643 177.682 61.9917 174.958 62.6911L175.953 66.5654ZM181.132 65.5628C181.953 65.5312 182.482 65.6188 182.798 65.7302L184.129 61.9583C183.176 61.6217 182.099 61.5226 180.979 61.5657L181.132 65.5628ZM182.735 65.7067C183.388 65.9622 183.73 66.2301 183.905 66.4338C184.056 66.6101 184.139 66.8016 184.154 67.0854L188.149 66.8751C188.089 65.7402 187.687 64.6997 186.942 63.8307C186.221 62.9891 185.257 62.3983 184.192 61.9818L182.735 65.7067ZM184.31 66.1992C184.233 66.3827 183.9 66.8744 182.972 67.688C182.092 68.4586 180.84 69.3799 179.184 70.4541L181.36 73.8104C183.1 72.682 184.527 71.6432 185.608 70.6965C186.639 69.7928 187.548 68.8099 187.993 67.7614L184.31 66.1992ZM179.219 70.4317C178.42 70.9263 177.754 71.3568 177.229 71.7199L179.506 75.0086C179.952 74.6997 180.555 74.3089 181.324 73.8328L179.219 70.4317ZM177.207 71.7355L172.335 75.2075L174.656 78.465L179.528 74.993L177.207 71.7355ZM171.808 75.7625C171.472 76.2915 171.196 76.8509 171.02 77.4376L174.851 78.587C174.899 78.427 174.997 78.2023 175.183 77.91L171.808 75.7625ZM170.936 78.0123V78.0683H174.936V78.0123H170.936ZM171.079 78.8111C171.283 79.3209 171.631 79.6317 171.79 79.7631C171.985 79.9247 172.191 80.0521 172.364 80.1493C172.715 80.3455 173.144 80.5335 173.607 80.7148L175.064 76.9898C174.873 76.915 174.715 76.8487 174.587 76.7909C174.457 76.7323 174.371 76.6882 174.319 76.6593C174.259 76.6258 174.28 76.6318 174.34 76.6815C174.372 76.7081 174.437 76.765 174.513 76.8546C174.585 76.9409 174.701 77.0975 174.793 77.3255L171.079 78.8111ZM173.633 80.7249C174.517 81.0561 175.261 81.3468 175.87 81.5976L177.393 77.8989C176.733 77.6271 175.947 77.3204 175.038 76.9796L173.633 80.7249ZM175.811 81.5721C177.083 82.1447 178.208 82.9206 179.193 83.9065L182.022 81.0781C180.693 79.7493 179.167 78.6958 177.452 77.9244L175.811 81.5721ZM179.128 83.8376C179.125 83.8347 179.271 84.0035 179.354 84.6105L183.317 84.07C183.176 83.0344 182.837 81.9712 182.088 81.1469L179.128 83.8376ZM179.356 84.6231C179.408 84.989 179.35 85.2748 179.195 85.553L182.692 87.4956C183.284 86.4298 183.487 85.2595 183.316 84.0574L179.356 84.6231ZM179.155 85.6298C179.113 85.7127 178.992 85.9065 178.463 86.0829L179.728 89.8776C180.991 89.4567 182.102 88.6799 182.732 87.4187L179.155 85.6298ZM178.463 86.0829C178.209 86.1676 177.485 86.217 176.002 85.6999L174.685 89.4767C176.413 90.0795 178.19 90.3903 179.728 89.8776L178.463 86.0829ZM176.156 85.7606C174.205 84.8935 171.655 82.8245 168.496 79.2615L165.503 81.9151C168.765 85.5947 171.778 88.1923 174.531 89.4159L176.156 85.7606ZM165.077 80.0388C164.705 81.3407 164.333 82.6237 163.961 83.8879L167.798 85.0166C168.173 83.7422 168.548 82.4492 168.923 81.1377L165.077 80.0388ZM163.95 83.926C163.621 85.1317 163.255 86.3765 162.852 87.6606L166.668 88.8599C167.085 87.5307 167.466 86.2368 167.809 84.9785L163.95 83.926ZM162.93 87.453C162.853 87.6261 162.607 88.1152 160.912 88.0536L160.767 92.0509C163.178 92.1386 165.546 91.4331 166.589 89.0675L162.93 87.453ZM160.84 88.0523C160.299 88.0523 159.863 87.944 159.494 87.7594L157.705 91.3371C158.68 91.8246 159.737 92.0523 160.84 92.0523V88.0523ZM159.535 87.7807C159.396 87.7071 159.366 87.6635 159.38 87.6799C159.387 87.6887 159.401 87.7075 159.415 87.7356C159.428 87.764 159.437 87.791 159.441 87.812L155.518 88.5965C155.778 89.8933 156.647 90.7776 157.664 91.3158L159.535 87.7807ZM159.359 87.5208C159.226 87.1557 159.139 86.87 159.087 86.6551C159.032 86.4276 159.032 86.3416 159.032 86.3563H155.032C155.032 87.1408 155.291 88.0378 155.6 88.8877L159.359 87.5208ZM159.032 86.3563C159.032 86.2949 159.052 86.0865 159.195 85.6849L155.428 84.3396C155.198 84.9834 155.032 85.671 155.032 86.3563H159.032ZM159.171 85.7495C160.046 83.5417 160.646 81.6766 160.905 80.2078L156.966 79.5127C156.777 80.5826 156.294 82.1521 155.452 84.275L159.171 85.7495ZM160.907 80.1982C161.018 79.5511 161.108 79.0502 161.179 78.6893C161.259 78.2762 161.292 78.1629 161.281 78.1967L157.486 76.9318C157.4 77.1896 157.321 77.571 157.253 77.9232C157.174 78.3277 157.077 78.8628 156.964 79.5223L160.907 80.1982ZM160.465 75.8819C160.008 75.5883 159.646 75.1056 159.519 74.1179L155.552 74.6266C155.799 76.5509 156.668 78.1962 158.302 79.2466L160.465 75.8819ZM159.511 74.0603C159.375 73.1963 159.561 72.4939 160.105 71.8137L156.982 69.3149C155.734 70.8747 155.249 72.7109 155.56 74.6842L159.511 74.0603ZM159.246 72.4369C160.443 71.988 161.339 71.6382 161.907 71.3946L160.332 67.718C159.855 67.9224 159.034 68.2445 157.841 68.6916L159.246 72.4369ZM163.095 69.8682C163.301 68.5667 163.648 67.1355 164.145 65.5707L160.334 64.3579C159.786 66.0784 159.387 67.7085 159.144 69.2443L163.095 69.8682ZM164.146 65.5677C165.091 62.5832 165.818 59.9679 166.319 57.7297L162.416 56.8548C161.947 58.9473 161.255 61.4467 160.333 64.3608L164.146 65.5677ZM166.312 57.7615C166.816 55.671 167.525 53.2869 168.444 50.6042L164.66 49.3083C163.712 52.0763 162.964 54.5828 162.423 56.823L166.312 57.7615ZM168.439 50.6192C169.426 47.8085 170.3 44.9779 171.06 42.1276L167.195 41.0969C166.462 43.8466 165.618 46.5787 164.665 49.2933L168.439 50.6192Z" fill="black" mask="url(#path-2-outside-1_273_16354)"/>
<defs>
<linearGradient id="paint0_linear_273_16354" x1="115.684" y1="5.99331" x2="131.263" y2="143.815" gradientUnits="userSpaceOnUse">
<stop stop-color="#482828"/>
<stop offset="1" stop-color="#3F333B"/>
</linearGradient>
<linearGradient id="paint1_linear_273_16354" x1="196.95" y1="206.563" x2="2.50125" y2="142.298" gradientUnits="userSpaceOnUse">
<stop stop-color="#7A5054"/>
<stop offset="1" stop-color="#A27270"/>
</linearGradient>
<linearGradient id="paint2_linear_273_16354" x1="172.393" y1="21.3461" x2="34.6615" y2="132.296" gradientUnits="userSpaceOnUse">
<stop stop-color="#5B4544"/>
<stop offset="1" stop-color="#895E61"/>
</linearGradient>
<linearGradient id="paint3_linear_273_16354" x1="185.07" y1="247.573" x2="-39.3181" y2="121.784" gradientUnits="userSpaceOnUse">
<stop stop-color="#C29E9B"/>
<stop offset="1" stop-color="#C4B4AE"/>
</linearGradient>
<linearGradient id="paint4_linear_273_16354" x1="128.162" y1="37.8826" x2="106.895" y2="108.48" gradientUnits="userSpaceOnUse">
<stop stop-color="#FBFBFC" stop-opacity="0.792157"/>
<stop offset="1" stop-color="#F9F9FB" stop-opacity="0.85098"/>
</linearGradient>
<linearGradient id="paint5_linear_273_16354" x1="60.9956" y1="128.026" x2="138.529" y2="-26.6598" gradientUnits="userSpaceOnUse">
<stop stop-color="#F08B4C"/>
<stop offset="1" stop-color="#894B2C"/>
</linearGradient>
</defs>
</svg>
